<svg width="715" height="194" viewBox="0 0 715 194" fill="none" xmlns="http://www.w3.org/2000/svg">
<path d="M0.645441 184.424L1.54011 107.035L704.235 112.058C705.18 112.064 705.965 112.79 706.046 113.733L712.147 185.207C712.236 186.251 711.408 187.158 710.36 187.193C435.947 196.216 276.845 195.692 2.43492 186.275C1.44071 186.241 0.633941 185.419 0.645441 184.424Z" fill="#A0915F"/>
<path d="M1.0824 69.0522V7.40195C1.0824 6.4078 1.87997 5.59524 2.87384 5.57168C113.618 2.9466 214.515 0.831811 302.25 1.93721C313.521 2.07923 314.831 7.49879 326.026 7.55724C336.603 7.61246 338.244 1.83657 348.812 1.93721C457.316 -3.33782 568.291 6.13887 703.351 12.2131C704.329 12.2571 705.108 13.0633 705.108 14.0426V69.8925C705.108 70.2665 705.223 70.6315 705.437 70.9385L713.372 82.3366C713.83 82.9946 713.806 83.8741 713.314 84.5069L700.328 101.193C699.885 101.762 699.818 102.538 700.156 103.175L704.917 112.149C705.043 112.386 705.115 112.648 705.129 112.916L708.337 177.375C708.388 178.396 707.568 179.262 706.545 179.296C432.104 188.326 277.299 188.709 2.87258 179.295C1.88658 179.262 1.0824 178.452 1.0824 177.465V105.779L24.3285 89.0852L1.0824 69.0522Z" fill="#BBAE85"/>
<path d="M176.083 24.6211L143.375 25.1909L111.045 29.1768L134.618 32.9828L197.762 31.0484L163.677 27.7934L176.083 24.6211Z" fill="#A0915F"/>
<path d="M27.1698 164.182L35.4082 160.126L1.08233 165.16L1.08222 169.737L41.8156 168.364L36.3235 172.94L87.1256 163.787L59.665 160.126L27.1698 164.182Z" fill="#A0915F"/>
<path d="M464.133 29.1138L455.894 25.0581L490.22 34.6687L449.487 33.2957L454.979 37.8725L404.177 28.719L431.637 25.0581L464.133 29.1138Z" fill="#A0915F"/>
<path d="M329.236 157.38L270.196 152.803L329.236 147.769L396.515 152.803L329.236 157.38Z" fill="#A0915F"/>
<path d="M616.216 63.0498L566.268 66.9869L615.658 58.5071L672.565 53.9352L616.216 63.0498Z" fill="#A0915F"/>
<path d="M615.011 162.465L575.651 159.719L590.754 164.233L548.19 173.45L620.961 169.33L646.591 157.889L615.011 162.465Z" fill="#A0915F"/>
<path d="M679.816 112.069L713.227 84.6089L700.488 101.3C700.151 101.743 700.033 102.315 700.168 102.855L700.412 103.831L672.951 132.207L692.174 108.866L679.816 112.069Z" fill="#A0915F"/>
<path d="M33.5774 86.8977L1.0824 66.3022V69.0483L23.9662 89.1861L1.0824 105.662L28.0853 92.8475L56.9189 97.8819L49.1384 92.8475L93.0753 89.1861L33.5774 86.8977Z" fill="#A0915F"/>
<path d="M199.524 138.679C191.322 140.085 182.417 139.382 174.685 136.57C171.17 135.281 167.889 133.524 165.077 131.298C159.805 127.08 158.984 116.886 161.679 110.794C162.851 108.216 164.725 105.521 167.42 104.584C170.584 103.412 174.216 104.467 177.496 105.053C179.254 105.287 181.011 105.521 182.652 105.873C184.175 106.341 185.815 107.044 186.518 108.333C187.456 109.856 187.456 111.848 187.221 113.606C186.987 115.012 187.338 116.886 188.393 117.824C190.853 119.933 195.774 119.698 198.352 117.824C199.758 116.886 200.344 115.012 200.344 113.371C200.344 111.028 199.055 108.685 197.297 107.279C192.728 103.881 186.635 103.529 181.129 101.889C174.685 100.015 168.123 96.8511 163.554 91.9302C160.625 88.6495 158.75 84.1973 158.047 79.745C156.993 73.0666 158.281 65.568 161.445 59.4754C162.968 56.5463 165.077 53.7343 167.537 51.5082C170.818 48.5791 174.685 46.3529 178.668 44.8298C186.05 42.2521 194.251 41.6663 201.984 42.4865C208.077 43.0723 214.286 45.2984 219.09 49.1649C223.308 52.5627 226.471 57.7179 227.292 62.9904C227.995 67.2083 227.877 71.7778 226.94 75.9957C226.471 78.339 225.651 80.6823 224.128 82.4398C222.839 83.8458 220.848 84.5488 219.09 85.0174C216.395 85.6032 213.583 85.8376 210.771 85.8376C208.311 85.8376 205.733 85.6032 203.39 84.7831C201.984 84.3144 200.578 83.4943 199.758 82.3226C198.938 81.3853 198.586 80.0965 198.352 78.9248C197.766 76.1129 198.235 73.1837 198 70.3718C197.883 68.8486 197.297 67.3255 196.243 66.271C195.071 65.2165 193.314 64.865 191.791 65.2165C186.05 66.3882 182.535 73.5352 184.995 78.6905C186.753 82.3226 190.385 84.9002 194.017 86.6577C199.524 89.3525 205.616 90.407 211.357 92.7503C214.872 94.1563 218.504 96.2653 220.965 99.3116C226.003 105.638 227.057 113.84 223.894 121.339C221.668 126.611 217.333 131.18 212.412 134.11C208.428 136.453 203.976 137.859 199.524 138.679ZM281.786 137.859C274.639 138.445 267.375 138.21 260.228 137.859C259.173 137.859 257.885 137.39 257.299 136.57C256.479 135.516 256.361 134.227 256.244 132.938C255.073 114.543 256.244 96.0309 257.767 77.7532C253.081 77.7532 248.511 78.1047 243.825 78.339C241.013 78.339 237.263 78.5733 237.029 75.8785C236.209 66.974 236.209 58.0694 237.029 49.2821C237.146 48.1104 237.381 46.9387 238.201 46.1186C239.372 44.9469 241.247 44.7126 242.887 44.7126C248.863 44.7126 284.247 41.9007 290.222 41.5492C292.917 41.432 304.516 41.0805 307.094 41.7835C308.266 42.0178 309.32 43.1895 309.32 44.244C309.437 48.2276 309.437 71.1919 309.437 75.1755C309.437 76.3472 308.734 78.1047 307.563 78.339C304.868 79.1592 290.105 78.6905 287.293 79.042C286.473 92.1645 286.707 105.287 287.293 118.409C287.41 120.401 288.699 132.118 288.699 133.992C288.816 137.039 284.833 137.625 281.786 137.859ZM321.15 130.477C320.681 130.712 319.978 130.829 319.51 130.477C318.807 130.009 318.572 128.954 318.455 128.017C317.518 121.456 319.393 92.7503 320.681 86.0719C321.502 81.151 322.79 76.23 324.782 71.6606C326.54 67.4426 329.234 63.459 332.632 60.5299C338.139 55.7261 345.638 52.6798 352.902 52.3283C358.174 52.094 363.564 53.6172 368.25 55.8433C371.648 57.4836 375.046 59.5926 377.389 62.4045C382.427 68.38 385.591 75.9957 387.348 83.6114C389.574 92.8675 390.043 102.709 389.809 112.317C389.692 117.003 389.574 121.807 388.871 126.494C388.754 127.431 388.637 128.369 388.051 128.954C387.348 129.657 386.177 129.892 385.122 130.009C383.833 130.126 382.545 130.009 381.139 130.009C379.147 129.892 366.962 130.36 364.97 130.243C361.338 130.009 362.392 124.854 362.275 121.221C360.283 121.104 347.864 120.987 345.872 120.87C345.872 122.979 345.638 125.205 345.872 127.314C345.989 128.954 344.7 130.243 342.943 130.126C336.147 129.54 329.352 129.189 322.673 130.243C322.087 130.36 321.619 130.243 321.15 130.477ZM347.512 88.8839C346.341 93.1018 345.989 97.4369 345.872 101.772C351.379 101.655 356.885 101.421 362.392 101.538C362.392 98.2571 362.392 95.0936 362.041 91.9302C361.806 88.6495 361.103 85.2517 359.463 82.3226C358.643 80.9166 357.237 79.3935 355.597 79.3935C351.613 79.2763 348.684 85.1346 347.512 88.8839ZM419.777 143.483C416.145 143.483 407.241 143.717 405.015 140.788C403.374 138.679 403.609 135.633 403.492 132.938C402.554 116.769 402.086 100.6 401.617 84.3144C401.5 80.5651 400.68 63.2247 401.5 59.4754C401.851 57.8351 403.492 56.5463 405.132 55.8433C411.107 53.2657 417.668 52.2112 424.23 51.2739C433.134 50.1022 442.625 49.6335 451.295 51.9769C456.919 53.5 462.426 56.312 466.526 60.4127C470.51 64.5135 473.322 69.9031 474.259 75.527C475.197 80.7995 474.376 86.5406 472.033 91.2272C469.104 97.2026 463.246 102.006 457.036 104.35C462.074 112.551 469.69 118.995 475.782 126.377C476.017 126.611 476.251 126.728 476.368 126.963C476.603 128.017 474.962 130.009 474.142 130.946C469.807 135.867 463.832 139.382 457.387 140.554C455.63 140.905 453.755 141.022 452.115 140.437C450.826 139.968 449.889 139.031 449.069 137.976C446.608 134.813 435.946 117.706 434.072 114.074C434.306 120.87 434.657 127.666 435.36 134.344C435.478 135.75 436.063 137.156 435.478 138.445C433.72 142.897 424.581 143.483 419.777 143.483ZM430.322 90.0555C433.251 90.0555 436.298 90.407 439.227 89.8212C441.687 89.3525 444.265 88.0637 445.554 85.9547C447.311 82.7913 447.194 78.339 445.671 75.0584C443.562 70.4889 435.36 71.4263 430.322 72.3636C430.088 78.2218 430.088 84.1973 430.322 90.0555ZM529.325 137.859C522.178 138.445 514.914 138.21 507.767 137.859C506.712 137.859 505.423 137.39 504.838 136.57C504.017 135.516 503.9 134.227 503.783 132.938C502.611 114.543 503.783 96.0309 505.306 77.7532C500.62 77.7532 496.05 78.1047 491.364 78.339C488.552 78.339 484.802 78.5733 484.568 75.8785C483.748 66.974 483.748 58.0694 484.568 49.2821C484.685 48.1104 484.919 46.9387 485.74 46.1186C486.911 44.9469 488.786 44.7126 490.426 44.7126C496.402 44.7126 531.785 41.9007 537.761 41.5492C540.456 41.432 552.055 41.0805 554.633 41.7835C555.804 42.0178 556.859 43.1895 556.859 44.244C556.976 48.2276 556.976 71.1919 556.976 75.1755C556.976 76.3472 556.273 78.1047 555.101 78.339C552.407 79.1592 537.644 78.6905 534.832 79.042C534.012 92.1645 534.246 105.287 534.832 118.409C534.949 120.401 536.238 132.118 536.238 133.992C536.355 137.039 532.371 137.625 529.325 137.859Z" fill="#FFF4D6"/>
</svg>
