<svg width="1185" height="1011" viewBox="0 0 1185 1011" fill="none" xmlns="http://www.w3.org/2000/svg">
<path d="M457.098 892.97C458.846 844.128 484.781 811.583 511.611 802.369C536.223 775.496 457.098 705.627 430.225 724.054C390.338 747.576 367.223 773.193 364.962 802.369C362.701 831.546 373.751 888.072 386.46 921.378C340.328 942.688 331.95 955.929 346.535 970.517C361.12 985.105 401.988 969.791 457.098 939.805V892.97Z" fill="url(#paint0_linear_1037_1606)"/>
<path d="M756.643 712.755C700.594 702.005 685.28 809.497 700.594 818.711C715.907 827.924 731.452 894.307 720.556 946.933C785.022 993.542 811.16 977.645 827.28 977.645C843.401 977.645 833.324 951.161 795.033 919.292C818.39 881.115 833.465 818.711 827.28 793.373C821.095 768.036 777.416 723.504 756.643 712.755Z" fill="url(#paint1_linear_1037_1606)"/>
<path d="M813.466 363.412C683.734 399.928 810.778 593.461 824.546 617.329L961.5 637.499C961.116 610.444 927.771 495.881 910.039 470.363C916.365 473.258 913.825 471.374 907.756 466.468C906.221 463.877 905.894 464.104 904.315 461.553C911.611 453.393 916.183 456.604 897.72 450.301C895.893 447.492 895.502 446.746 893.633 444.007C910.177 451.345 908.252 452.082 888.471 436.635C864.14 402.11 836.876 374.321 813.466 363.412Z" fill="url(#paint2_linear_1037_1606)"/>
<path d="M801.444 354.334C693.516 287.691 619.026 267.421 420.671 311.215C310.783 363.042 459.063 472.727 399.072 553.576C339.081 634.424 353.927 728.043 416.071 740.448C478.214 752.852 496.13 787.984 510.057 803.384C523.983 818.784 675.221 852.909 699.031 817.424C722.84 781.938 720.528 783.455 786.518 735.122C852.509 686.79 820.21 583.433 800.516 566.647C780.822 549.861 860.159 390.588 801.444 354.334Z" fill="url(#paint3_linear_1037_1606)"/>
<path d="M681.002 316.842C664.962 329.602 655.501 354.644 655.501 354.644C687.502 322.173 732.621 343.065 747.199 349.869C761.777 356.672 767.958 346.829 758.451 337.415C737.386 320.641 697.042 304.081 681.002 316.842Z" fill="#6C5C43"/>
<ellipse cx="9.86558" cy="6.08684" rx="9.86558" ry="6.08684" transform="matrix(0.848456 0.529267 -0.553136 0.833091 771.734 347.376)" fill="#6C5C43"/>
<ellipse cx="6.75375" cy="4.16692" rx="6.75375" ry="4.16692" transform="matrix(0.848456 0.529267 -0.553136 0.833091 791.609 361.916)" fill="#6C5C43"/>
<path d="M402.102 553.182C379.602 568.69 371.6 603.099 371.6 603.099C396.102 531.372 501.577 554.939 517.149 559.195C532.721 563.451 537.053 552.72 526.008 545.042C502.267 532.053 424.601 537.674 402.102 553.182Z" fill="#AFABA4" fill-opacity="0.3"/>
<ellipse cx="9.90882" cy="6.05934" rx="9.90882" ry="6.05934" transform="matrix(0.926072 0.377348 -0.397892 0.917432 540.871 552.624)" fill="#7E776C"/>
<ellipse cx="6.78335" cy="4.14809" rx="6.78335" ry="4.14809" transform="matrix(0.926072 0.377348 -0.397892 0.917432 563.043 563.611)" fill="#7E776C"/>
<ellipse cx="12.4993" cy="6.7854" rx="12.4993" ry="6.7854" transform="matrix(0.999172 0.0406845 -0.0432988 0.999062 656.586 530.571)" fill="#615546"/>
<ellipse cx="12.4993" cy="6.7854" rx="12.4993" ry="6.7854" transform="matrix(0.999172 0.0406845 -0.0432988 0.999062 447.816 507.389)" fill="#615546"/>
<path d="M781.862 466.342C775.498 456.014 769.479 452.93 752.454 454.306C733.244 459.616 733.952 464.355 734.019 472.622C741.495 510.698 769.572 524.955 781.862 521.292C794.152 517.628 803.936 489.849 781.862 466.342Z" fill="#736B5E"/>
<path d="M414.719 642.282C418.543 634.344 418.02 629.052 410.287 617.43C399.234 605.563 396.586 607.636 391.493 610.424C370.935 628.349 373.453 652.993 380.689 660.497C387.925 668.002 409.084 665.734 414.719 642.282Z" fill="#6A6358"/>
<path d="M769.908 530.838C767.925 528.182 766.051 527.389 760.748 527.742C754.764 529.108 754.985 530.326 755.006 532.452C757.335 542.243 766.08 545.909 769.908 544.967C773.736 544.025 776.783 536.882 769.908 530.838Z" fill="#6E6557"/>
<path d="M439.019 652.603C438.478 647.56 436.597 645.095 429.209 641.601C420.104 638.953 419.429 640.751 417.764 643.616C413.086 658.478 421.885 669.935 427.765 671.537C433.645 673.139 443.418 665.848 439.019 652.603Z" fill="#6A6358"/>
<path d="M630.174 733.542C599.311 724.165 571.625 695.073 583.392 670.819C595.159 646.565 604.251 644.03 623.758 638.71C653.923 641.82 657.893 650.584 656.736 670.675C727.439 678.463 802.81 661.36 829.429 654.239C875.904 697.438 946.261 696.058 927.297 724.27C923.753 733.539 858.637 788.961 812.093 788.492C803.527 804.428 804.166 798.875 802.194 787.609C799.777 787.358 801.81 787.598 799.421 787.299C786.614 816.437 791.221 800.73 787.137 785.712C736.912 778.25 691.517 760.091 630.174 733.542Z" fill="url(#paint4_linear_1037_1606)"/>
<path d="M743.871 771.515C750.394 777.772 755.731 779.035 769.572 775.574C784.722 769.051 783.549 765.855 782.466 760.107C771.576 734.69 746.694 728.889 737.035 733.247C727.375 737.606 722.778 758.391 743.871 771.515Z" fill="#6A6358"/>
<path d="M754.554 726.517C759.653 727.679 762.667 726.718 768.458 720.884C773.976 713.142 772.437 711.906 770.175 709.378C757.164 700.013 743.141 704.538 739.683 709.573C736.225 714.608 740.201 726.283 754.554 726.517Z" fill="#6A6358"/>
<path d="M929.649 721.194C958.053 681.519 955.151 663.734 961.998 637C929.105 588.448 850.749 601.863 819.867 599.162C807.129 647.234 807.793 659.66 809.244 660.289C810.694 660.918 906.879 694.608 929.649 721.194Z" fill="url(#paint5_linear_1037_1606)"/>
<path d="M815.267 617.33C812.814 628.157 812.464 628.386 810.317 639.484C855.887 639.611 903.166 662.512 948.465 689.716C954.772 678.246 956.138 665.118 958.75 652.469C900.282 627.648 855.049 611.854 815.267 617.33Z" fill="#8B877E"/>
<path d="M812.054 631.104C809.289 642.792 810.535 636.994 808.721 647.953C846.377 665.919 897.981 684.525 932.532 716.931C939.879 707.535 941.224 703.637 942.438 701.235C902.568 671.708 853.375 649.96 812.054 631.104Z" fill="#8B877E"/>
<path d="M239.888 624.143C227.003 554.795 309.643 323.057 411.287 313.543C469.362 326.77 393.992 539.1 368.605 552.152C338.197 551.476 295.814 674.744 276.232 666.638C256.944 658.653 249.252 648.318 239.888 624.143Z" fill="url(#paint6_linear_1037_1606)"/>
<path d="M288.05 461.333C280.715 464.481 277.428 468.684 273.642 482.429C271.423 498.627 274.199 498.935 278.73 500.4C301.51 501.465 316.775 481.832 318.049 471.42C319.324 461.008 306.765 448.155 288.05 461.333Z" fill="#81786C"/>
<path d="M313.868 489.949C311 493.729 310.575 496.794 312.829 504.694C316.659 513.321 318.207 512.626 321.03 511.964C333.28 505.545 335.219 491.257 332.678 485.758C330.136 480.259 319.602 477.777 313.868 489.949Z" fill="#81786C"/>
<path d="M513.294 712.55C420.298 708.424 378.002 710.322 307.132 673.838L372.765 553.385C416.741 602.312 449.928 620.47 516.913 644.398C524.661 625.826 532.066 619.681 560.551 630.081C575.765 643.399 582.831 649.657 582.802 676.614C582.773 703.572 545.149 717.62 513.294 712.55Z" fill="url(#paint7_linear_1037_1606)"/>
<path d="M513.295 712.549C419.729 709.335 330.74 702.723 263.154 660.957C252.082 603.367 362.912 526.212 373.702 552.639C417.679 601.567 449.928 620.469 516.913 644.397C516.884 671.355 502.226 684.808 513.295 712.549Z" fill="url(#paint8_linear_1037_1606)"/>
<path d="M392.809 574.067C400.819 581.657 400.732 582.045 409.393 589.307C373.693 618.613 358.517 643.107 340.05 693.315C327.887 688.431 319.904 687.643 308.384 681.927C338.689 625.132 358.13 595.303 392.809 574.067Z" fill="#8B877E"/>
<path d="M402.891 583.835C412.425 591.115 407.181 588.039 416.265 594.305C398.623 631.336 391.328 657.39 385.225 703.607C372.196 702.584 372.348 700.428 359.877 697.422C371.903 650.139 382.987 623.81 402.891 583.835Z" fill="#8B877E"/>
<path d="M443.624 613.109C454.187 618.367 448.624 615.667 458.665 620.804C444.793 649.769 438.864 669.05 436.519 708.974C423.495 707.941 423.137 709.235 410.455 707.245C418.101 667.082 427.556 646.222 443.624 613.109Z" fill="#868278"/>
<path d="M492.277 635.992C502.834 641.267 493.624 635.164 503.658 640.32C491.223 671.965 487.002 688.41 491.826 711.98C478.772 711.02 478.863 712.612 466.159 710.677C467.939 690.778 466.849 681.903 492.277 635.992Z" fill="#868278"/>
<path d="M459.036 621.154C469.78 626.213 464.055 624.779 474.898 627.887C466.987 660.957 462.384 679.528 469.554 709.749C456.57 711.281 459.106 709.644 446.274 710.164C442.549 684.65 448.449 660.939 459.036 621.154Z" fill="#868278"/>
<path d="M643.724 251.56L640.544 192.147L588.89 219.686L587.139 190.172L548.031 214.617L531.434 170.816L482.759 242.661C475.418 232.253 470.118 236.324 462.895 242.661C460.782 244.515 458.504 246.563 455.962 248.5C450.356 252.771 443.465 256.497 434.225 256.397C448.157 278.91 444.999 265.079 454.592 280.324C440.787 293.804 433.566 282.455 424.899 274C421.335 265.588 420.145 265.627 420 269.855C417.656 268.245 415.135 267.121 412.313 266.905C411.719 280.268 407.373 299.172 413.569 317C402.675 313.029 404 313 417.157 325C418.301 327.042 419.62 329.055 421.139 331.028C416.137 335.648 405.402 335.006 394.5 334.52C378.5 327 380.5 328 387.65 334.284C384.204 334.225 380.861 334.301 377.806 334.689C379.042 344.82 387.865 356.014 396.5 367.238C384.754 369.377 383.875 372.104 403 375.897C405.536 379.429 407.854 382.937 409.707 386.388C401.014 392.237 395.562 397.559 392.127 406C380.225 420.458 377.351 425.58 389.448 415C388.68 418.61 388.096 422.7 387.65 427.408C402.131 418.907 413.856 422.376 438.751 437.557L423.422 481.674L477.632 477.69C488.357 483.365 495.327 487.472 492.717 499.837C483.513 513.036 475.757 518.543 489.955 508.324C488.723 511.289 487.125 514.603 485.123 518.326C506.064 514.087 518.345 508.972 527.404 499.426C519.093 515.547 528.888 505.874 533.585 491.523C535.753 488.205 537.776 484.477 539.769 480.264C543.098 482.301 545.834 484.357 548.079 486.47C552.316 498.488 553.31 504.975 553.479 507.558C553.604 509.462 553.281 509.245 553.479 507.558C553.666 505.969 554.315 503.076 556.238 499.423C558.576 507.288 557.858 516.47 557.329 528.202C560.525 524.343 563.49 520.898 566.203 517.618C567.435 533.909 565.108 526.593 573.983 507.388C579.331 499.38 582.961 490.73 584.53 477.56C589.421 478.295 584.231 470.89 597.476 479.263C610.721 487.637 611.927 500.77 611.461 486.567C615.386 490 619.805 494.988 625.15 502.324C626.951 497.883 628.41 493.772 629.572 489.958C633.075 497.4 635.87 502.937 631.814 481.359C638.532 449.832 622.2 442.405 619.864 433.375C633.227 436.08 647.217 427.834 655.535 425.536C663.854 423.238 677.334 420.821 663.945 419.061C666.131 417.058 668.015 415.031 669.545 413.104C652.413 397.653 648.888 379.622 656.879 378.126L664.87 376.63C692.159 379.907 691.024 379.119 672.861 375.134L692.169 371.52C674.965 364.538 672.275 351.639 665.24 336.872C670.228 325.267 704.485 321.155 710.5 319C716.516 316.845 746.724 316.643 722.499 310C725.932 308.77 731.094 304.31 733.617 303.181C723.535 292.66 691.454 288.024 674.826 285.06C687.35 273.298 693.888 270.286 706.463 271.169C686.819 247.018 671.279 248.848 643.724 251.56Z" fill="url(#paint9_radial_1037_1606)"/>
<path d="M736.135 149.692C722.283 153.179 679.192 183.662 638.199 185.803L679.719 253.249C693.957 253.138 706.072 252.518 716.573 251.375C720.263 243.337 725.891 244.718 731.929 249.124C734.719 250.142 737.284 249.904 739.607 247.454C740.961 236.585 747.677 236.256 757.266 241.548C760.225 241.75 762.949 242.103 766.48 236.895C769.315 227.123 773.466 226.8 777.997 229.165C780.601 227.171 783.163 225.05 785.738 222.799C800.166 203.056 800.531 175.267 793.441 160.203C786.352 145.139 749.986 146.206 736.135 149.692Z" fill="#746C5F"/>
<path d="M535.399 67.4698C544.118 78.7837 559.084 129.401 589.949 156.462L514.526 180.65C467.047 142.614 456.828 124.358 451.184 94.1686C452.077 69.7317 468.996 47.6838 483.89 40.2437C498.783 32.8036 526.681 56.1559 535.399 67.4698Z" fill="#7C7467"/>
<path d="M733.384 162.537C719.374 166.313 678.832 191.824 640.041 193.9L680.45 249.586C694.302 249.399 702.048 247.302 711.967 246.34C711.967 215.611 732.582 264.767 737.247 239.43C741.911 214.092 757.267 237.458 760.338 236.524C763.409 235.591 763.409 201.807 778.689 224.507C792.752 207.601 794.465 182.753 787.321 171.139C780.176 159.524 747.395 158.762 733.384 162.537Z" fill="url(#paint10_linear_1037_1606)"/>
<path d="M529.606 79.2599C538.27 90.8995 554.312 136.034 583.489 161.68L517.28 180.392C472.601 144.176 462.418 127.308 455.66 99.8744C455.084 77.8911 469.123 57.3181 481.925 52.6207C494.726 47.9232 520.941 67.6204 529.606 79.2599Z" fill="url(#paint11_linear_1037_1606)"/>
<path d="M513.716 158.587C506.394 159.663 512.292 199.776 512.292 199.776L466.531 206.505C466.531 206.505 489.286 233.94 471.893 242.97C454.5 252.001 458.129 247.679 476.5 257.492C477.782 260.433 479.198 263.325 480.595 266.001C463.939 262.529 463 263.501 488.505 279.645L482.502 285.501C467.659 288.45 466.531 290.001 475 292.817L466.531 301.078C459.528 275.501 463.196 293.88 459.528 307.908C443 301.078 430.5 266.001 445 321.001C445 321.001 435.827 328.37 418.911 353.21C401.996 378.05 414.461 464.019 437.497 474C460.532 483.982 559.556 470.371 582.773 450.193C605.991 430.014 637.271 324.828 637.271 324.828C637.271 324.828 640.249 324.633 645 324.235C648.5 332.501 637.271 342.001 653 323.513C663 361.001 657.174 342.586 666.5 322.051C686 341.001 679.077 331.966 680.5 320.501C697.084 318.139 708.006 315.077 709.953 310.416C711.677 306.291 707.058 298.59 701.074 291.001C705.106 282.583 719.5 283.001 692.933 281.501C692.033 280.519 691.093 279.509 690.145 278.501C694.207 268.401 697.245 266.847 687 275.191C682.711 270.719 679 267.001 679 267.001C689.683 271.275 698.824 273.891 681.413 262.501C701.074 259.001 696 269.887 680.578 248.501C679.627 237.704 677.75 225.511 674.047 218.834C666.405 205.056 654.047 184.521 643.013 173.104C631.978 161.688 617.567 152.63 602.918 154.784C588.269 156.938 566.269 147.134 555.816 152.397C545.364 157.659 540.683 163.935 540.683 163.935C540.683 163.935 521.038 157.51 513.716 158.587Z" fill="url(#paint12_linear_1037_1606)"/>
<path d="M615.174 221.681C598.62 220.458 558.271 233.218 543.334 265.153C576.961 292.926 614.427 278.468 624.262 258.739C634.096 239.01 659.493 226.134 659.493 226.134C659.493 226.134 631.728 222.903 615.174 221.681Z" fill="url(#paint13_linear_1037_1606)"/>
<path d="M526.413 187.196C538.151 192.784 534.126 241.581 533.903 262.883C517.272 254.461 508.121 248.391 504.761 237.916C501.401 227.44 503.024 192.83 510.587 178.554C510.587 178.554 514.675 181.609 526.413 187.196Z" fill="url(#paint14_linear_1037_1606)"/>
<path d="M568.641 187.03C557.944 191.842 544.615 200.81 548.502 228.722C576.739 230.815 587.896 213.198 587.367 197.63C586.837 182.062 585.6 178.904 585.6 178.904C585.6 178.904 579.338 182.218 568.641 187.03Z" fill="url(#paint15_linear_1037_1606)"/>
<path d="M561.501 192.5C547.002 195.998 547.442 211.057 547.443 219.89C547.444 228.722 554.351 233.824 572.175 224.483C590 215.141 576 189.003 561.501 192.5Z" fill="#872D43"/>
<path d="M575.3 234.102C558.811 238.079 550.835 252.445 553.493 265.247C556.152 278.049 582.024 285.11 596.434 277.558C610.845 270.007 591.788 230.125 575.3 234.102Z" fill="#872D43"/>
<path d="M530.147 212.027C533.99 222.327 537.117 243.597 530.638 252.31C524.158 261.024 506.994 246.305 503.627 232.224C498.935 200.32 526.304 201.728 530.147 212.027Z" fill="#872D43"/>
<path d="M450.643 477.118C464.994 479.369 503.906 459.038 537.679 431.596C445.003 421.965 448.72 420.848 412.373 373C406.361 397.364 414.644 454.707 424.681 464.717C434.718 474.727 436.293 474.868 450.643 477.118Z" fill="#754E53"/>
<path d="M536.93 432.191C445.8 421.76 446.55 421.012 412.373 373C412.373 373 424.057 442.055 437.172 450.888C450.287 459.721 536.93 432.191 536.93 432.191Z" fill="#9D6774"/>
<path d="M586.818 345.385C586.05 356.134 595.026 421.081 578.5 453.5C581.5 451 582.853 452.779 588.5 444.5C593.407 437.306 602.442 419.02 606.012 412.952C614.198 392.699 641.331 336.172 636.724 322.351C632.117 308.531 639.027 303.924 636.724 300.085C634.421 296.246 587.585 334.636 586.818 345.385Z" fill="#9D6774"/>
<path d="M620.162 331.145L634.417 300.085C626.276 304.001 615.91 312.644 607.546 319.28C594.803 328.754 588.35 340.01 586.815 344.211L589.895 344.211L593.531 338.036L600.745 339.908L600.333 332.537L605.214 328.283L612.791 331.557L611.34 325.95L616.898 318.531L620.162 331.145Z" fill="#ECD66E"/>
<path d="M594.31 379.657L602.94 418.325C610.93 404.466 612.779 397.74 619.925 382.778L620.236 381.991C629.77 357.819 637.918 337.159 637.296 327.669L627.636 340.793L626.772 351.888L615.429 354.194L621.029 364.198L617.118 373.461L604.314 374.058L610.16 380.892L607.464 395.034L594.31 379.657Z" fill="#ECD66E"/>
<g filter="url(#filter0_dd_1037_1606)">
<path d="M576.5 648L585.5 662L595.5 650.5L586.5 667.5L599.5 665.5L586.5 674L599.5 679.5H585.5L593.5 690L584 685L591 703.5L580 693.5L571.5 703.5L578 683L570.5 685L580 669.5H568L580 663.5L576.5 648Z" fill="white" fill-opacity="0.4" shape-rendering="crispEdges"/>
</g>
<defs>
<filter id="filter0_dd_1037_1606" x="561" y="643" width="46.5" height="65.5" filterUnits="userSpaceOnUse" color-interpolation-filters="sRGB">
<feFlood flood-opacity="0" result="BackgroundImageFix"/>
<feColorMatrix in="SourceAlpha" type="matrix" values="0 0 0 0 0 0 0 0 0 0 0 0 0 0 0 0 0 0 127 0" result="hardAlpha"/>
<feOffset dx="-2"/>
<feGaussianBlur stdDeviation="2.5"/>
<feComposite in2="hardAlpha" operator="out"/>
<feColorMatrix type="matrix" values="0 0 0 0 1 0 0 0 0 1 0 0 0 0 1 0 0 0 0.65 0"/>
<feBlend mode="normal" in2="BackgroundImageFix" result="effect1_dropShadow_1037_1606"/>
<feColorMatrix in="SourceAlpha" type="matrix" values="0 0 0 0 0 0 0 0 0 0 0 0 0 0 0 0 0 0 127 0" result="hardAlpha"/>
<feOffset dx="3"/>
<feGaussianBlur stdDeviation="2.5"/>
<feComposite in2="hardAlpha" operator="out"/>
<feColorMatrix type="matrix" values="0 0 0 0 1 0 0 0 0 1 0 0 0 0 1 0 0 0 0.65 0"/>
<feBlend mode="normal" in2="effect1_dropShadow_1037_1606" result="effect2_dropShadow_1037_1606"/>
<feBlend mode="normal" in="SourceGraphic" in2="effect2_dropShadow_1037_1606" result="shape"/>
</filter>
<linearGradient id="paint0_linear_1037_1606" x1="383.312" y1="976.1" x2="472.982" y2="721" gradientUnits="userSpaceOnUse">
<stop stop-color="#898072"/>
<stop offset="1" stop-color="#6F6659"/>
</linearGradient>
<linearGradient id="paint1_linear_1037_1606" x1="795.976" y1="980.259" x2="751.225" y2="751.913" gradientUnits="userSpaceOnUse">
<stop stop-color="#898072"/>
<stop offset="1" stop-color="#6F6659"/>
</linearGradient>
<linearGradient id="paint2_linear_1037_1606" x1="836.964" y1="367.299" x2="893.135" y2="574.222" gradientUnits="userSpaceOnUse">
<stop stop-color="#898072"/>
<stop offset="1" stop-color="#6F6659"/>
</linearGradient>
<linearGradient id="paint3_linear_1037_1606" x1="585.535" y1="288" x2="595.39" y2="588.938" gradientUnits="userSpaceOnUse">
<stop stop-color="#8A8173"/>
<stop offset="1" stop-color="#635A4E"/>
</linearGradient>
<linearGradient id="paint4_linear_1037_1606" x1="1058.8" y1="731.443" x2="844.387" y2="732.144" gradientUnits="userSpaceOnUse">
<stop stop-color="#898072"/>
<stop offset="1" stop-color="#6F6659"/>
</linearGradient>
<linearGradient id="paint5_linear_1037_1606" x1="893.528" y1="570.031" x2="794.129" y2="799.741" gradientUnits="userSpaceOnUse">
<stop stop-color="#989590"/>
<stop offset="1" stop-color="#8E8982"/>
</linearGradient>
<linearGradient id="paint6_linear_1037_1606" x1="375.31" y1="326.202" x2="317.515" y2="574.412" gradientUnits="userSpaceOnUse">
<stop stop-color="#898072"/>
<stop offset="1" stop-color="#6F6659"/>
</linearGradient>
<linearGradient id="paint7_linear_1037_1606" x1="128.774" y1="523.15" x2="371.001" y2="602.357" gradientUnits="userSpaceOnUse">
<stop stop-color="#898072"/>
<stop offset="1" stop-color="#6F6659"/>
</linearGradient>
<linearGradient id="paint8_linear_1037_1606" x1="306.117" y1="577.041" x2="538.832" y2="669.186" gradientUnits="userSpaceOnUse">
<stop stop-color="#989590"/>
<stop offset="1" stop-color="#8E8982"/>
</linearGradient>
<radialGradient id="paint9_radial_1037_1606" cx="0" cy="0" r="1" gradientUnits="userSpaceOnUse" gradientTransform="translate(455.5 321.5) rotate(27.887) scale(366.19 387.15)">
<stop stop-color="#7E6B51"/>
<stop offset="0.415" stop-color="#867358"/>
<stop offset="1" stop-color="#A39889"/>
</radialGradient>
<linearGradient id="paint10_linear_1037_1606" x1="795.229" y1="200.2" x2="649.064" y2="233.501" gradientUnits="userSpaceOnUse">
<stop stop-color="#754E53"/>
<stop offset="1" stop-color="#90686D"/>
</linearGradient>
<linearGradient id="paint11_linear_1037_1606" x1="457.728" y1="70.5403" x2="551.892" y2="187.187" gradientUnits="userSpaceOnUse">
<stop stop-color="#754E53"/>
<stop offset="1" stop-color="#90686D"/>
</linearGradient>
<linearGradient id="paint12_linear_1037_1606" x1="508" y1="225.001" x2="613.998" y2="396.5" gradientUnits="userSpaceOnUse">
<stop stop-color="#968E81"/>
<stop offset="1" stop-color="#5C5547"/>
</linearGradient>
<linearGradient id="paint13_linear_1037_1606" x1="599.998" y1="199.5" x2="572.998" y2="253.5" gradientUnits="userSpaceOnUse">
<stop stop-color="#ECD66E"/>
<stop offset="1" stop-color="#C3AD46"/>
</linearGradient>
<linearGradient id="paint14_linear_1037_1606" x1="599.998" y1="199.5" x2="572.998" y2="253.5" gradientUnits="userSpaceOnUse">
<stop stop-color="#ECD66E"/>
<stop offset="1" stop-color="#C3AD46"/>
</linearGradient>
<linearGradient id="paint15_linear_1037_1606" x1="560.227" y1="163.938" x2="561.626" y2="206.578" gradientUnits="userSpaceOnUse">
<stop stop-color="#ECD66E"/>
<stop offset="1" stop-color="#C3AD46"/>
</linearGradient>
</defs>
</svg>
