<svg width="592" height="753" viewBox="0 0 592 753" fill="none" xmlns="http://www.w3.org/2000/svg">
<ellipse cx="297.5" cy="556.554" rx="172.5" ry="71.4459" fill="#E9DDB9" fill-opacity="0.05"/>
<g filter="url(#filter0_d_813_991)">
<ellipse cx="296.213" cy="549.474" rx="171.213" ry="78.5261" stroke="#7FD71B" stroke-opacity="0.01" stroke-width="106.292"/>
</g>
<path d="M374.239 440.315L379.773 149.091C381.018 129.342 379.207 118.138 318.896 95.1601C243.389 74.7809 221.483 92.5061 199.909 149.091C199.909 149.091 188.534 133.428 183 155C177.466 176.572 191.608 461.887 191.608 461.887C196.668 503.786 213.972 540.986 255.479 540.986C296.986 540.986 370.436 544.529 374.239 440.315Z" fill="url(#paint0_linear_813_991)"/>
<path d="M290.201 187.675L323.5 196L319.187 410.343L291.438 465.842L280.338 540.765L263.688 510.241L294.213 399.243L290.201 187.675Z" fill="#837A61"/>
<path d="M185.993 162.5H199.312L202.642 501.168L192.652 418.438L199.312 412.074L185.993 162.5Z" fill="#A09881"/>
<path d="M366.362 173.771L380.009 134.922C381.257 119.68 379.441 111.033 318.96 93.298C243.24 77.5692 221.272 91.2496 199.638 134.922C199.638 134.922 188.538 134.922 182.988 151.572C177.438 168.221 199.638 162.672 199.638 162.672C204.712 195.009 222.065 182.096 263.689 182.096C305.313 182.096 318.96 212.62 366.362 173.771Z" fill="url(#paint1_linear_813_991)"/>
<path d="M226.066 149.82L219 112.133C223.231 105.326 226.551 102.455 233.133 98L240.199 130.977L268.465 156.887L322.641 194.574C316.97 194.805 310.086 193.398 289.664 187.508L226.066 149.82Z" fill="#928A74"/>
<path d="M316.414 329.87L291.44 324.32L285.89 338.195L288.665 377.044L319.189 382.594L352.488 374.269V399.243L391.337 390.919L407.987 365.944V285.471L380.238 254.947V277.146L391.337 291.021L377.463 307.671L358.909 314.726L352.488 310.445L335.839 318.77L333.064 338.195L316.414 343.745V329.87Z" fill="url(#paint2_linear_813_991)"/>
<path d="M285.89 338.195L291.44 324.32L316.414 329.87V340.97L333.064 338.195L335.839 318.771L352.488 310.446L360.813 315.996L344.164 321.546L338.614 340.97L310.864 346.52V338.195H285.89Z" fill="#837B63"/>
<path d="M380.238 277.146V254.947L407.987 285.471L391.337 304.896L385.788 310.445L360.813 321.545V315.995H355.263L377.463 307.671V299.346L391.337 291.021L380.238 277.146Z" fill="#837B63"/>
<path d="M352.486 374.269V399.243L344.162 390.918V377.044L352.486 374.269Z" fill="#837B63"/>
<path d="M380.238 277.147L391.338 291.021L380.238 299.346V277.147Z" fill="#8D866F"/>
<path d="M166.567 216H183.217L180.442 240.974L219.291 263.174L216.516 318.673L199.866 324.222L191.542 274.274L155.468 243.749L166.567 216Z" fill="#837B63"/>
<path d="M191.542 354.747L180.442 360.297L185.992 324.222L172.117 304.798L188.767 315.898L194.317 324.222L191.542 354.747Z" fill="#837B63"/>
<path d="M155.468 243.749L191.542 274.274L199.867 324.222L172.118 304.798L185.993 324.222L180.443 360.297L166.568 321.447L155.468 243.749Z" fill="#948A6C"/>
<path d="M424.636 528.917L399.661 451.219L385.787 440.119L358.037 453.994L346.938 492.843L252.59 509.492L241.49 473.418L216.516 470.643L205.416 481.743L191.541 462.319L188.766 440.119L158.242 451.219L155.467 503.943L169.342 545.567L158.242 559.441L188.766 595.515H247.04L252.59 578.866L366.362 545.567L380.237 553.891L424.636 528.917Z" fill="url(#paint3_linear_813_991)"/>
<path d="M322.911 546.74C325.196 554.883 324.962 561.861 322.903 570.659C317.073 565.389 313.14 558.39 310.38 552.709C307.619 547.028 305.085 534.127 311.266 530.692C317.445 527.258 320.623 538.585 322.908 546.728L322.911 546.74Z" fill="#A0B479"/>
<path d="M337.151 555.603C333.793 563.09 329.264 567.76 322.224 572.242C321.119 563.932 322.523 555.93 323.986 549.778C325.449 543.626 331.588 532.63 338.388 535.162C345.185 537.693 340.514 548.107 337.156 555.593L337.151 555.603Z" fill="#A0B479"/>
<path d="M312.332 554.891C318.4 559.805 321.233 564.968 322.901 572.246C314.278 570.957 306.939 567.588 301.446 564.668C295.954 561.747 287.514 553.489 292.666 548.311C297.816 543.135 306.256 549.971 312.323 554.884L312.332 554.891Z" fill="#A0B479"/>
<path d="M345.288 565.819C338.058 570.208 331.274 571.858 322.246 572.239C325.755 565.207 331.44 559.538 336.17 555.352C340.9 551.166 352.645 545.259 357.616 550.289C362.583 555.318 352.527 561.423 345.298 565.813L345.288 565.819Z" fill="#A0B479"/>
<path d="M363.585 459.544L399.66 451.219L385.785 440.119L358.036 453.994L346.936 492.843L252.588 509.492L241.488 473.418L216.514 470.643L213.739 473.418L235.938 481.743L252.588 520.592L349.711 495.618L363.585 459.544Z" fill="#837B63"/>
<path d="M174.892 445.669L188.767 440.119L191.542 462.319L205.416 481.743L180.442 459.544L174.892 445.669Z" fill="#837B63"/>
<path d="M233.167 542.792L224.842 520.592L213.742 517.817L194.318 528.917L199.867 562.216L222.067 559.441L233.167 542.792Z" fill="url(#paint4_linear_813_991)"/>
<path d="M402.438 506.717L399.663 481.743L388.564 478.968L369.139 490.068L374.689 509.492L396.888 520.592L402.438 506.717Z" fill="url(#paint5_linear_813_991)"/>
<path d="M395.863 358.945L399.662 342.996L385.653 329.648L370.51 333.82L367.986 358.145L383.013 367.971L395.863 358.945Z" fill="url(#paint6_linear_813_991)"/>
<path d="M169.627 291.55L173.427 275.602L159.418 262.253L152.692 265.949L158.242 290.924L163.792 296.474L169.627 291.55Z" fill="url(#paint7_linear_813_991)"/>
<path opacity="0.55" d="M205.83 23.2287C221.328 16.3279 289.065 1.01256 296.487 8.96462C303.91 16.9167 348.463 107.966 331.484 113.594C314.141 119.697 241.358 132.516 228.681 126.087C216.004 119.659 208.751 85.5796 213.273 75.6421C216.121 69.3849 283.687 59.3601 283.57 66.4083C283.02 99.6746 296.39 75.3302 295.117 93.0265C290.98 96.2989 248.522 108.408 254.169 109.584C259.815 110.759 305.041 97.5293 309.191 95.8444C313.216 93.7888 288.749 34.0835 287.505 31.9644C286.26 29.8453 223.611 52.4202 218.174 47.2237C211.884 42.6075 205.83 23.2287 205.83 23.2287Z" fill="url(#paint8_linear_813_991)"/>
<path d="M267.687 68.9539C292.285 76.5181 263.1 88.6089 286.431 90.9988C292.522 91.638 235.647 103.052 242.821 113.952C246.866 120.097 306.661 103 314.172 100.612C321.684 98.2242 294.941 28.1022 291.218 25.7882C287.495 23.4742 231.915 44.3352 226.28 43.5981C221.101 42.7633 217.01 28.1615 217.01 28.1615C217.01 28.1615 238.197 13.8128 288.575 10.7946C301.152 23.6586 336.989 95.7213 329.709 107.775C317.989 116.511 242.2 126.543 232.647 120.032C223.093 113.522 216.896 83.7311 223.422 78.4421C228.913 72.9861 267.687 68.9539 267.687 68.9539Z" fill="url(#paint9_linear_813_991)"/>
<defs>
<filter id="filter0_d_813_991" x="0.987518" y="346.935" width="590.45" height="405.077" filterUnits="userSpaceOnUse" color-interpolation-filters="sRGB">
<feFlood flood-opacity="0" result="BackgroundImageFix"/>
<feColorMatrix in="SourceAlpha" type="matrix" values="0 0 0 0 0 0 0 0 0 0 0 0 0 0 0 0 0 0 127 0" result="hardAlpha"/>
<feOffset/>
<feGaussianBlur stdDeviation="35.4333"/>
<feColorMatrix type="matrix" values="0 0 0 0 0.490196 0 0 0 0 0.427451 0 0 0 0 0.556863 0 0 0 0.3 0"/>
<feBlend mode="normal" in2="BackgroundImageFix" result="effect1_dropShadow_813_991"/>
<feBlend mode="normal" in="SourceGraphic" in2="effect1_dropShadow_813_991" result="shape"/>
</filter>
<linearGradient id="paint0_linear_813_991" x1="274.849" y1="242.57" x2="285.228" y2="540.853" gradientUnits="userSpaceOnUse">
<stop offset="0.307345" stop-color="#948A6C"/>
<stop offset="0.745124" stop-color="#948A6C"/>
</linearGradient>
<linearGradient id="paint1_linear_813_991" x1="269.937" y1="107.173" x2="321.963" y2="179.321" gradientUnits="userSpaceOnUse">
<stop stop-color="#948A6C"/>
<stop offset="1" stop-color="#AAA082"/>
</linearGradient>
<linearGradient id="paint2_linear_813_991" x1="338.614" y1="338.195" x2="346.938" y2="399.243" gradientUnits="userSpaceOnUse">
<stop stop-color="#948B6D"/>
<stop offset="1" stop-color="#A69D80"/>
</linearGradient>
<linearGradient id="paint3_linear_813_991" x1="290.051" y1="440.119" x2="290.051" y2="595.515" gradientUnits="userSpaceOnUse">
<stop stop-color="#908564"/>
<stop offset="1" stop-color="#9D967F"/>
</linearGradient>
<linearGradient id="paint4_linear_813_991" x1="233.167" y1="522.115" x2="217.885" y2="561.756" gradientUnits="userSpaceOnUse">
<stop stop-color="#982981"/>
<stop offset="0.404912" stop-color="#862472"/>
<stop offset="1" stop-color="#65185B"/>
</linearGradient>
<linearGradient id="paint5_linear_813_991" x1="402.438" y1="482.997" x2="387.157" y2="519.241" gradientUnits="userSpaceOnUse">
<stop stop-color="#982981"/>
<stop offset="0.404912" stop-color="#862472"/>
<stop offset="1" stop-color="#65185B"/>
</linearGradient>
<linearGradient id="paint6_linear_813_991" x1="400.652" y1="335.326" x2="382.254" y2="366.417" gradientUnits="userSpaceOnUse">
<stop stop-color="#982981"/>
<stop offset="0.404912" stop-color="#862472"/>
<stop offset="1" stop-color="#65185B"/>
</linearGradient>
<linearGradient id="paint7_linear_813_991" x1="174.478" y1="267.454" x2="157.178" y2="292.469" gradientUnits="userSpaceOnUse">
<stop stop-color="#982981"/>
<stop offset="0.404912" stop-color="#862472"/>
<stop offset="1" stop-color="#65185B"/>
</linearGradient>
<linearGradient id="paint8_linear_813_991" x1="264.889" y1="19.7581" x2="232.246" y2="116.508" gradientUnits="userSpaceOnUse">
<stop stop-color="#EFEFEF"/>
<stop offset="0.645" stop-color="#D4D4D4"/>
</linearGradient>
<linearGradient id="paint9_linear_813_991" x1="266.125" y1="23.376" x2="235.121" y2="111.362" gradientUnits="userSpaceOnUse">
<stop stop-color="#EFEFEF"/>
<stop offset="0.645" stop-color="#D4D4D4"/>
</linearGradient>
</defs>
</svg>
