<svg width="520" height="560" viewBox="0 0 520 560" fill="none" xmlns="http://www.w3.org/2000/svg">
<g clip-path="url(#clip0_864_151)">
<ellipse cx="215.924" cy="500.211" rx="126" ry="59.5" fill="url(#paint0_radial_864_151)"/>
<path d="M127.417 217.81C127.147 216.802 125.859 216.289 124.563 216.823C123.304 217.282 122.428 218.522 122.698 219.53L122.728 219.642C123.193 221.807 122.932 224.053 121.883 226.155C119.562 230.81 114.184 232.647 109.935 230.325C108.789 229.699 107.792 228.772 107.073 227.805C106.556 226.949 105.252 226.81 104.084 227.604C102.915 228.399 102.346 229.712 102.826 230.643C102.826 230.643 102.826 230.643 102.893 230.68C104.063 232.466 105.621 233.986 107.577 235.055C114.253 238.704 122.568 235.797 126.162 228.589C127.959 224.985 128.28 221.243 127.417 217.81Z" fill="#8E8B97"/>
<path opacity="0.25" d="M122.766 219.567C123.171 221.508 123.021 223.528 122.22 225.479C122.333 225.254 122.445 225.029 122.52 224.878C123.418 223.077 123.755 219.821 123.147 217.769C122.825 218.071 122.481 218.933 122.766 219.567Z" fill="#46395B"/>
<path opacity="0.25" d="M108.138 233.929C106.318 232.934 105.059 231.672 103.807 230.224C103.477 229.853 103.118 229.369 102.893 228.96C102.706 229.335 102.609 230.046 102.863 230.568C104.032 232.353 105.659 233.911 107.614 234.98C114.29 238.629 122.605 235.722 126.199 228.514C126.386 228.138 126.573 227.763 126.656 227.426C122.889 233.775 115.623 238.02 108.138 233.929Z" fill="#46395B"/>
<path opacity="0.3" d="M125.936 223.88C125.524 223.845 125.029 224.148 124.91 224.561C124.752 225.048 124.595 225.535 124.371 225.986C122.941 229.026 120.409 231.177 117.585 232.022C117.165 232.175 116.873 232.589 116.956 233.112C117.001 233.71 117.54 234.005 118.027 233.889C121.376 232.852 124.402 230.398 126.026 226.795C126.288 226.27 126.483 225.707 126.678 225.145C126.872 224.583 126.483 223.987 125.936 223.88Z" fill="#9C8C9A"/>
<path d="M180.061 466.513C181.02 466.792 181.529 468.154 181.212 469.559C180.895 470.964 179.816 471.987 178.856 471.708C178.784 471.681 178.784 471.681 178.712 471.653C176.739 471.255 174.593 471.598 172.777 472.877C168.679 475.614 167.401 481.5 169.832 486.025C170.467 487.257 171.353 488.226 172.393 488.984C173.2 489.473 173.439 490.912 172.763 492.179C172.159 493.474 170.946 494.176 170.067 493.659C170.067 493.659 170.067 493.659 169.996 493.631C168.293 492.439 166.753 490.77 165.662 488.735C161.817 481.691 163.892 472.52 170.301 468.244C173.401 466.292 176.813 465.805 180.061 466.513Z" fill="url(#paint1_linear_864_151)"/>
<path opacity="0.25" d="M178.713 471.653C176.954 471.337 175.006 471.577 173.299 472.538C173.496 472.435 173.649 472.224 173.847 472.12C175.438 471.025 178.437 470.559 180.356 471.117C180.05 471.538 179.331 471.98 178.713 471.653Z" fill="#46395B"/>
<path opacity="0.25" d="M166.579 488.188C167.625 490.117 168.861 491.489 170.321 492.678C170.769 493.03 171.145 493.354 171.549 493.599C171.225 493.834 170.615 493.958 170.068 493.659C168.365 492.466 166.825 490.797 165.662 488.735C161.818 481.691 163.892 472.519 170.301 468.244C170.625 468.009 170.921 467.854 171.316 467.646C165.697 472.224 162.278 480.341 166.579 488.188Z" fill="#46395B"/>
<path opacity="0.3" d="M174.537 468.433C174.617 468.913 174.382 469.362 173.987 469.569C173.592 469.777 173.125 469.956 172.729 470.164C170.051 471.83 168.277 474.651 167.678 477.834C167.587 478.338 167.165 478.624 166.752 478.646C166.195 478.612 165.873 478.129 165.991 477.545C166.681 473.859 168.717 470.509 171.916 468.505C172.41 468.245 172.904 467.986 173.399 467.727C173.821 467.44 174.413 467.847 174.537 468.433Z" fill="#575878"/>
<path opacity="0.45" d="M180.061 466.513C181.02 466.792 181.529 468.154 181.212 469.559C180.895 470.964 179.816 471.987 178.856 471.708C178.784 471.681 178.784 471.681 178.712 471.653C176.739 471.255 174.593 471.598 172.777 472.877C168.679 475.614 167.401 481.5 169.832 486.025C170.467 487.257 171.353 488.226 172.393 488.984C173.2 489.473 173.439 490.912 172.763 492.179C172.159 493.474 170.946 494.176 170.067 493.659C170.067 493.659 170.067 493.659 169.996 493.631C168.293 492.439 166.753 490.77 165.662 488.735C161.817 481.691 163.892 472.52 170.301 468.244C173.401 466.292 176.813 465.805 180.061 466.513Z" fill="#BEBEBE"/>
<path d="M100.597 271.082C96.2665 269.957 93.7706 265.153 95.0279 260.395L98.0216 249.228C99.279 244.469 103.841 241.517 108.171 242.641C110.216 243.186 111.955 244.519 113.011 246.529C114.136 248.577 114.384 251.006 113.74 253.329L110.746 264.496C109.556 269.291 104.995 272.244 100.597 271.082ZM106.876 247.475C104.966 247.004 102.951 248.292 102.419 250.39L99.4258 261.556C98.8944 263.655 99.9812 265.777 101.892 266.248C103.802 266.719 105.817 265.432 106.348 263.334L109.342 252.167C109.589 251.156 109.529 250.072 109.012 249.216C108.532 248.285 107.798 247.692 106.876 247.475Z" fill="url(#paint2_linear_864_151)"/>
<g opacity="0.35">
<path d="M107.589 262.389L110.583 251.223C110.83 250.211 110.769 249.127 110.252 248.271C109.803 247.452 109.001 246.823 108.117 246.531C106.821 246.204 105.562 246.663 104.626 247.68C105.293 247.376 106.124 247.257 106.873 247.475C107.795 247.692 108.529 248.285 109.009 249.216C109.489 250.147 109.586 251.156 109.339 252.167L106.346 263.334C106.181 264.008 105.814 264.572 105.38 265.099C106.398 264.605 107.297 263.663 107.589 262.389Z" fill="#26366F"/>
<path d="M101.905 270.175C97.5743 269.05 95.0784 264.246 96.3357 259.487L99.3294 248.32C99.8534 246.409 100.917 244.793 102.205 243.586C100.228 244.798 98.6698 246.718 98.0187 249.228L95.025 260.395C93.7676 265.154 96.2635 269.957 100.594 271.082C103.186 271.735 105.868 271.003 107.868 269.23C106.137 270.291 103.95 270.719 101.905 270.175Z" fill="#26366F"/>
</g>
<path opacity="0.3" d="M108.951 245.552C110.27 246.177 111.289 247.403 111.709 248.97C111.979 249.978 111.867 251.063 111.62 252.075L111.051 254.248C111.051 254.248 110.849 254.997 110.692 255.485C110.572 255.897 110.797 256.307 111.134 256.491C111.576 256.637 112.033 256.409 112.19 255.922C112.953 253.186 113.126 252.325 113.126 252.325C113.649 250.413 113.417 248.471 112.555 246.758C111.82 245.305 110.509 244.493 109.632 244.014C109.228 243.792 108.733 244.096 108.614 244.508C108.389 244.958 108.576 245.443 108.951 245.552Z" fill="#575878"/>
<path opacity="0.3" d="M101.615 267.148C100.296 266.523 99.2769 265.297 98.857 263.73C98.587 262.723 98.6991 261.637 98.9461 260.626L99.0733 260.027C99.0733 260.027 99.2753 259.277 99.4325 258.79C99.5523 258.378 99.3274 257.968 98.9903 257.784C98.5482 257.638 98.0913 257.866 97.9341 258.353C97.1707 261.089 97.4402 260.376 97.4402 260.376C96.9163 262.287 97.149 264.23 98.011 265.943C98.7456 267.396 100.057 268.208 100.933 268.687C101.338 268.908 101.832 268.605 101.952 268.193C102.109 267.705 101.989 267.258 101.615 267.148Z" fill="#575878"/>
<path d="M95.6472 308.027C91.1521 307.577 88.087 303.226 88.7299 298.323L90.2178 286.906C90.8608 282.002 95.0326 278.455 99.5277 278.905C101.655 279.113 103.573 280.257 104.847 282.004C106.151 283.863 106.781 286.214 106.445 288.61L104.957 300.026C104.284 304.818 100.075 308.441 95.6472 308.027ZM98.8472 283.884C96.8919 283.675 95.0719 285.26 94.7803 287.393L93.2924 298.81C93.0008 300.944 94.3722 302.84 96.3276 303.049C98.2829 303.258 100.103 301.673 100.395 299.539L101.882 288.123C102.062 287.074 101.792 286.067 101.17 285.249C100.548 284.431 99.7762 283.914 98.8472 283.884Z" fill="url(#paint3_linear_864_151)"/>
<g opacity="0.35">
<path d="M101.473 298.409L102.961 286.992C103.141 285.944 102.871 284.936 102.249 284.119C101.694 283.338 100.818 282.858 99.9262 282.753C98.6226 282.614 97.3567 283.26 96.6228 284.387C97.2595 283.971 98.0236 283.815 98.7802 283.847C99.6718 283.952 100.548 284.431 101.103 285.212C101.725 286.03 101.927 287 101.815 288.086L100.328 299.502C100.23 300.213 99.9308 300.814 99.5639 301.378C100.59 300.697 101.354 299.681 101.473 298.409Z" fill="#26366F"/>
<path d="M96.7934 306.934C92.2983 306.483 89.2332 302.133 89.8762 297.229L91.364 285.813C91.6482 283.866 92.4418 282.102 93.6326 280.747C91.85 282.256 90.5246 284.398 90.2181 286.906L88.7303 298.322C88.0873 303.226 91.1524 307.577 95.6475 308.027C98.322 308.343 100.921 307.088 102.689 305.092C101.018 306.377 98.921 307.141 96.7934 306.934Z" fill="#26366F"/>
</g>
<path opacity="0.3" d="M100.622 281.701C102.053 282.101 103.185 283.101 103.777 284.667C104.152 285.636 104.249 286.645 104.137 287.731L103.876 289.976C103.876 289.976 103.779 290.687 103.719 291.324C103.666 291.773 103.929 292.107 104.303 292.216C104.745 292.362 105.172 292.023 105.262 291.498C105.651 288.653 105.756 287.755 105.756 287.755C106.04 285.809 105.53 283.906 104.488 282.381C103.574 281.117 102.12 280.418 101.236 280.125C100.794 279.979 100.3 280.282 100.21 280.807C100.023 281.182 100.248 281.592 100.622 281.701Z" fill="#575878"/>
<path opacity="0.3" d="M96.1182 303.985C94.6872 303.585 93.5557 302.585 92.9635 301.019C92.5886 300.05 92.491 299.041 92.6031 297.956L92.6628 297.319C92.6628 297.319 92.76 296.608 92.8198 295.972C92.8721 295.523 92.6098 295.189 92.2352 295.079C91.7932 294.933 91.3663 295.273 91.2765 295.797C90.8877 298.642 91.0223 297.856 91.0223 297.856C90.7382 299.803 91.2481 301.706 92.2898 303.23C93.2041 304.495 94.6576 305.194 95.5417 305.486C95.9837 305.632 96.4781 305.329 96.5679 304.805C96.6502 304.467 96.4928 304.095 96.1182 303.985Z" fill="#575878"/>
<path d="M95.9494 344.596C91.4246 344.893 87.7528 341.071 87.7065 336.173L87.6811 324.694C87.6349 319.796 91.3496 315.616 95.8744 315.318C98.0169 315.152 100.085 315.995 101.643 317.516C103.232 319.149 104.109 321.348 104.117 323.741L104.143 335.22C104.151 340.194 100.437 344.373 95.9494 344.596ZM95.9132 320.403C93.9804 320.493 92.3552 322.376 92.3408 324.47L92.3662 335.949C92.3518 338.043 94.0078 339.713 95.9406 339.623C97.8734 339.533 99.4986 337.65 99.513 335.556L99.4876 324.077C99.4948 323.03 99.12 322.06 98.4231 321.393C97.7262 320.725 96.8121 320.321 95.9132 320.403Z" fill="url(#paint4_linear_864_151)"/>
<g opacity="0.35">
<path d="M100.494 334.277L100.469 322.798C100.476 321.751 100.101 320.782 99.4045 320.114C98.7077 319.447 97.861 319.079 96.8946 319.124C95.5836 319.172 94.4451 320.079 93.7787 321.243C94.3854 320.715 95.052 320.41 95.8461 320.367C96.8125 320.322 97.6592 320.689 98.3561 321.356C99.0529 322.024 99.4278 322.993 99.4205 324.04L99.446 335.52C99.4537 336.193 99.289 336.867 98.9895 337.468C99.8808 336.713 100.48 335.511 100.494 334.277Z" fill="#26366F"/>
<path d="M96.9311 343.317C92.4063 343.614 88.7344 339.792 88.6882 334.894L88.6627 323.414C88.7072 321.432 89.2611 319.633 90.287 318.092C88.6693 319.787 87.681 322.113 87.6817 324.694L87.7071 336.173C87.7533 341.071 91.3578 344.857 95.95 344.596C98.6769 344.462 101.014 342.873 102.586 340.58C101.074 342.237 99.1036 343.262 96.9311 343.317Z" fill="#26366F"/>
</g>
<path opacity="0.3" d="M97.3886 317.961C98.827 318.174 100.138 318.986 100.91 320.364C101.427 321.22 101.66 322.302 101.653 323.349L101.668 325.555C101.668 325.555 101.638 326.303 101.684 326.901C101.669 327.275 101.998 327.647 102.343 327.644C102.822 327.715 103.219 327.263 103.204 326.777C103.249 323.935 103.181 323.038 103.181 323.038C103.188 321.131 102.468 319.304 101.142 318.006C100.085 316.855 98.5494 316.493 97.6279 316.276C97.1484 316.205 96.7889 316.582 96.6992 317.106C96.7143 317.592 96.9766 317.927 97.3886 317.961Z" fill="#575878"/>
<path opacity="0.3" d="M95.9037 340.558C94.4653 340.345 93.1541 339.533 92.3821 338.156C91.865 337.3 91.6324 336.217 91.6397 335.17L91.5946 334.572C91.5946 334.572 91.6243 333.824 91.5792 333.226C91.5941 332.852 91.2644 332.481 90.9198 332.483C90.4403 332.412 90.0434 332.864 90.0585 333.35C90.0143 336.192 90.044 335.444 90.044 335.444C90.037 337.351 90.7567 339.178 92.083 340.476C93.1396 341.627 94.6755 341.989 95.597 342.206C96.0765 342.277 96.436 341.9 96.5258 341.376C96.5406 341.002 96.2109 340.631 95.9037 340.558Z" fill="#575878"/>
<path d="M100.506 379.858C96.0263 380.753 91.8827 377.533 91.2821 372.714L89.8708 361.433C89.2702 356.614 92.4529 351.952 96.9326 351.056C99.0526 350.591 101.203 351.097 102.941 352.43C104.747 353.799 105.871 355.847 106.157 358.2L107.568 369.482C108.168 374.301 104.986 378.962 100.506 379.858ZM97.5631 355.987C95.5855 356.339 94.23 358.369 94.4553 360.499L95.8667 371.78C96.092 373.91 97.8978 375.279 99.8755 374.927C101.853 374.575 103.209 372.545 102.983 370.415L101.572 359.134C101.407 358.088 100.927 357.157 100.155 356.64C99.4211 356.047 98.4995 355.83 97.5631 355.987Z" fill="url(#paint5_linear_864_151)"/>
<g opacity="0.35">
<path d="M103.867 368.987L102.455 357.706C102.29 356.66 101.81 355.729 101.039 355.211C100.304 354.619 99.3828 354.402 98.409 354.634C97.0905 354.869 96.0495 355.924 95.5853 357.199C96.1246 356.634 96.7613 356.217 97.5254 356.062C98.4618 355.905 99.3833 356.122 100.155 356.639C100.889 357.232 101.474 358.125 101.572 359.133L102.983 370.415C103.058 371.125 102.998 371.761 102.766 372.398C103.56 371.495 103.987 370.295 103.867 368.987Z" fill="#26366F"/>
<path d="M101.389 378.43C96.9097 379.325 92.7661 376.105 92.1655 371.286L90.7542 360.005C90.5214 358.062 90.873 356.152 91.6967 354.5C90.3112 356.418 89.5927 358.892 89.908 361.357L91.3193 372.639C91.9199 377.458 96.0636 380.678 100.543 379.783C103.218 379.238 105.427 377.388 106.663 374.911C105.315 376.754 103.472 378.039 101.389 378.43Z" fill="#26366F"/>
</g>
<path opacity="0.3" d="M98.7689 353.398C100.252 353.348 101.638 354.011 102.658 355.236C103.28 356.054 103.654 357.023 103.752 358.032L104.045 360.199C104.045 360.199 104.12 360.909 104.165 361.507C104.217 361.917 104.517 362.177 104.929 362.211C105.379 362.17 105.776 361.718 105.693 361.195C105.393 358.356 105.288 357.534 105.288 357.534C105.055 355.591 104.051 353.992 102.649 352.843C101.413 351.881 99.8698 351.706 98.8734 351.639C98.4239 351.68 98.0644 352.057 98.0795 352.543C98.0572 353.104 98.4243 353.4 98.7689 353.398Z" fill="#575878"/>
<path opacity="0.3" d="M100.011 375.86C98.5273 375.909 97.1412 375.247 96.1221 374.021C95.5001 373.204 95.1252 372.234 95.0276 371.226L94.915 370.591C94.915 370.591 94.8399 369.881 94.7948 369.283C94.7423 368.872 94.4426 368.613 94.0305 368.579C93.581 368.619 93.1841 369.071 93.2667 369.594C93.567 372.434 93.5294 371.649 93.5294 371.649C93.7621 373.591 94.7664 375.191 96.1676 376.339C97.404 377.302 98.9473 377.477 99.9437 377.543C100.393 377.502 100.753 377.126 100.738 376.64C100.722 376.154 100.355 375.857 100.011 375.86Z" fill="#575878"/>
<path d="M111.714 415.031C107.467 417.009 102.762 414.914 101.15 410.403L97.4691 399.887C95.8573 395.375 98.0285 390.16 102.276 388.182C104.276 387.269 106.516 387.252 108.449 388.021C110.517 388.865 112.068 390.573 112.84 392.81L116.521 403.326C118.133 407.838 115.924 413.128 111.714 415.031ZM103.85 392.769C101.992 393.569 101.072 395.932 101.754 397.834L105.435 408.35C106.08 410.326 108.215 411.207 110.005 410.37C111.863 409.57 112.784 407.207 112.101 405.305L108.42 394.79C108.046 393.821 107.386 393.078 106.54 392.711C105.693 392.343 104.726 392.388 103.85 392.769Z" fill="url(#paint6_linear_864_151)"/>
<g opacity="0.35">
<path d="M112.677 403.805L108.996 393.289C108.621 392.32 107.962 391.577 107.115 391.21C106.269 390.843 105.302 390.888 104.426 391.268C103.197 391.839 102.321 393.08 102.164 394.427C102.569 393.788 103.145 393.148 103.917 392.806C104.793 392.425 105.76 392.38 106.606 392.747C107.52 393.151 108.18 393.894 108.487 394.826L112.168 405.342C112.386 405.938 112.461 406.648 112.296 407.322C112.925 406.233 113.112 404.998 112.677 403.805Z" fill="#26366F"/>
<path d="M112.223 413.493C107.976 415.471 103.271 413.377 101.659 408.865L97.9776 398.349C97.3254 396.56 97.3324 394.652 97.8188 392.816C96.838 394.956 96.6664 397.537 97.4686 399.886L101.15 410.402C102.762 414.914 107.467 417.008 111.714 415.03C114.276 413.851 116.021 411.556 116.747 408.895C115.773 410.847 114.223 412.58 112.223 413.493Z" fill="#26366F"/>
</g>
<path opacity="0.3" d="M104.479 389.96C105.872 389.575 107.446 389.862 108.682 390.824C109.416 391.416 110.001 392.309 110.376 393.279L111.155 395.329C111.155 395.329 111.403 396.037 111.59 396.522C111.748 396.895 112.085 397.079 112.467 397.001C112.886 396.848 113.148 396.323 113.028 395.875C112.099 393.265 111.821 392.444 111.821 392.444C111.169 390.655 109.948 389.318 108.254 388.584C106.868 387.922 105.31 388.121 104.336 388.353C103.849 388.469 103.587 388.995 103.707 389.442C103.76 389.853 104.164 390.074 104.479 389.96Z" fill="#575878"/>
<path opacity="0.3" d="M110.312 411.303C108.919 411.688 107.346 411.401 106.109 410.438C105.375 409.846 104.79 408.953 104.415 407.984L104.198 407.387C104.198 407.387 103.951 406.679 103.763 406.194C103.606 405.822 103.269 405.637 102.887 405.715C102.467 405.868 102.205 406.394 102.325 406.841C103.255 409.451 103.007 408.743 103.007 408.743C103.659 410.533 104.881 411.869 106.574 412.604C107.96 413.266 109.519 413.066 110.492 412.834C110.979 412.718 111.241 412.193 111.121 411.745C111.099 411.446 110.694 411.225 110.312 411.303Z" fill="#575878"/>
<path d="M130.654 444.683C126.789 447.443 121.732 446.399 119.378 442.342L113.9 432.85C111.546 428.793 112.766 423.249 116.631 420.489C118.473 419.203 120.631 418.662 122.751 419.057C124.939 419.488 126.782 420.782 127.906 422.83L133.385 432.322C135.738 436.379 134.451 441.886 130.654 444.683ZM118.947 424.621C117.246 425.793 116.7 428.266 117.734 429.978L123.281 439.506C124.278 441.293 126.533 441.761 128.165 440.552C129.866 439.379 130.412 436.907 129.378 435.195L123.899 425.703C123.382 424.848 122.58 424.218 121.621 424.076C120.7 423.859 119.763 424.016 118.947 424.621Z" fill="url(#paint7_linear_864_151)"/>
<g opacity="0.35">
<path d="M129.685 433.547L124.206 424.056C123.689 423.2 122.887 422.57 121.928 422.428C121.006 422.211 120.1 422.48 119.216 423.048C118.048 423.842 117.441 425.231 117.524 426.614C117.793 425.901 118.303 425.224 118.977 424.733C119.793 424.128 120.73 423.971 121.689 424.113C122.61 424.33 123.449 424.884 123.966 425.74L129.445 435.232C129.768 435.79 129.947 436.462 129.955 437.135C130.314 435.898 130.299 434.552 129.685 433.547Z" fill="#26366F"/>
<path d="M130.856 443.073C126.991 445.833 121.934 444.789 119.581 440.732L114.102 431.24C113.135 429.565 112.76 427.735 112.969 425.939C112.393 428.299 112.603 430.803 113.863 432.924L119.341 442.416C121.695 446.473 126.752 447.518 130.617 444.758C132.924 443.057 134.301 440.466 134.48 437.697C133.949 439.795 132.736 441.712 130.856 443.073Z" fill="#26366F"/>
</g>
<path opacity="0.3" d="M119.059 421.816C120.429 421.132 121.98 421.119 123.366 421.782C124.28 422.186 124.94 422.928 125.457 423.784L126.589 425.645C126.589 425.645 126.978 426.24 127.233 426.762C127.391 427.134 127.87 427.205 128.222 427.016C128.679 426.788 128.806 426.188 128.581 425.779C127.195 423.397 126.775 422.689 126.775 422.689C125.876 421.051 124.332 420.016 122.557 419.619C121.088 419.294 119.553 419.793 118.571 420.212C118.114 420.44 117.957 420.927 118.145 421.412C118.37 421.821 118.744 421.93 119.059 421.816Z" fill="#575878"/>
<path opacity="0.3" d="M128.615 441.371C127.245 442.055 125.694 442.067 124.308 441.405C123.394 441.001 122.734 440.258 122.217 439.402L121.857 438.919C121.857 438.919 121.468 438.324 121.213 437.802C121.055 437.43 120.576 437.359 120.224 437.548C119.767 437.776 119.64 438.376 119.865 438.785C121.251 441.167 120.899 440.497 120.899 440.497C121.798 442.135 123.342 443.17 125.117 443.567C126.586 443.892 128.121 443.394 129.103 442.975C129.56 442.747 129.717 442.26 129.529 441.775C129.41 441.327 128.967 441.181 128.615 441.371Z" fill="#575878"/>
<path d="M157.442 468.402C154.364 472.165 149.142 472.655 145.823 469.503L138.09 462.123C134.77 458.971 134.581 453.326 137.659 449.563C139.142 447.794 141.082 446.656 143.262 446.415C145.51 446.21 147.652 446.904 149.279 448.461L157.012 455.841C160.331 458.993 160.52 464.638 157.442 468.402ZM141.009 452.827C139.668 454.483 139.744 456.913 141.205 458.285L148.938 465.665C150.4 467.037 152.647 466.832 153.988 465.176C155.328 463.52 155.253 461.09 153.791 459.718L146.058 452.338C145.361 451.671 144.41 451.342 143.406 451.462C142.507 451.544 141.661 452.036 141.009 452.827Z" fill="url(#paint8_linear_864_151)"/>
<g opacity="0.35">
<path d="M153.648 458.111L145.915 450.731C145.218 450.064 144.267 449.735 143.263 449.855C142.364 449.937 141.413 450.468 140.798 451.183C139.892 452.312 139.698 453.734 139.99 455.041C140.058 454.218 140.365 453.43 140.941 452.79C141.593 451.999 142.439 451.506 143.406 451.461C144.409 451.341 145.294 451.633 146.058 452.338L153.791 459.718C154.256 460.163 154.578 460.721 154.758 461.393C154.945 460.157 154.547 458.889 153.648 458.111Z" fill="#26366F"/>
<path d="M157.299 466.795C154.221 470.558 148.999 471.048 145.68 467.896L137.947 460.516C136.62 459.218 135.788 457.616 135.481 455.824C135.489 458.217 136.396 460.528 138.089 462.123L145.823 469.503C149.142 472.655 154.364 472.165 157.442 468.401C159.254 466.143 159.92 463.259 159.44 460.608C159.493 462.739 158.714 464.989 157.299 466.795Z" fill="#26366F"/>
</g>
<path opacity="0.3" d="M140.394 450.102C141.502 449.083 143.038 448.585 144.544 448.835C145.503 448.977 146.379 449.456 147.076 450.124L148.605 451.532C148.605 451.532 149.069 451.977 149.467 452.386C149.766 452.645 150.178 452.679 150.5 452.377C150.86 452.001 150.882 451.44 150.515 451.143C148.589 449.326 148.027 448.732 148.027 448.732C146.701 447.434 144.963 446.962 143.165 447.126C141.644 447.25 140.228 448.196 139.479 448.837C139.09 449.102 139.03 449.738 139.36 450.11C139.697 450.294 140.177 450.365 140.394 450.102Z" fill="#575878"/>
<path opacity="0.3" d="M154.685 465.844C153.576 466.862 152.04 467.36 150.535 467.11C149.576 466.968 148.699 466.489 148.002 465.822L147.567 465.489C147.567 465.489 147.103 465.043 146.706 464.635C146.406 464.376 145.994 464.342 145.672 464.643C145.312 465.02 145.29 465.581 145.657 465.878C147.583 467.695 147.051 467.213 147.051 467.213C148.377 468.511 150.116 468.983 151.913 468.82C153.434 468.695 154.85 467.749 155.599 467.108C155.988 466.843 156.048 466.207 155.718 465.835C155.419 465.576 154.902 465.58 154.685 465.844Z" fill="#575878"/>
<path d="M104.481 254.86C102.915 254.386 102.053 252.673 102.569 250.949L109.134 228.835C109.65 227.111 111.276 226.088 112.841 226.562C113.591 226.781 114.19 227.299 114.505 228.045C114.857 228.715 114.925 229.612 114.685 230.436L108.256 252.624C107.739 254.348 106.047 255.333 104.481 254.86Z" fill="url(#paint9_linear_864_151)"/>
<path opacity="0.3" d="M107.385 245.937C106.501 245.645 106.081 244.078 106.598 242.354L108.828 234.783C109.345 233.059 110.491 231.965 111.412 232.183C111.854 232.329 112.214 232.812 112.326 233.447C112.439 234.081 112.439 234.941 112.2 235.766L109.969 243.337C109.52 245.098 108.374 246.191 107.385 245.937Z" fill="#575878"/>
<path opacity="0.35" d="M106.022 249.874C105.205 249.619 104.576 248.988 104.261 248.243L110.549 227.029C109.912 227.445 109.44 228.047 109.201 228.872L104.111 245.963L102.951 250.011L102.636 250.985C102.12 252.71 102.982 254.423 104.548 254.897C106.113 255.37 107.739 254.348 108.255 252.624L109.73 247.601C109.213 249.326 107.52 250.311 106.022 249.874Z" fill="#26366F"/>
<path d="M97.6803 289.839C96.107 289.552 95.1027 287.952 95.4843 286.154L100.071 263.533C100.415 261.81 101.943 260.639 103.584 260.962C104.37 261.106 105.007 261.549 105.427 262.257C105.779 262.927 105.952 263.786 105.78 264.647L101.193 287.268C100.849 288.991 99.2536 290.126 97.6803 289.839Z" fill="url(#paint10_linear_864_151)"/>
<path opacity="0.3" d="M99.7678 280.661C98.8089 280.519 98.3215 278.915 98.6657 277.192L100.214 269.44C100.559 267.717 101.607 266.475 102.566 266.617C103.046 266.688 103.405 267.171 103.623 267.767C103.84 268.364 103.84 269.224 103.668 270.085L102.119 277.838C101.805 279.673 100.757 280.915 99.7678 280.661Z" fill="#575878"/>
<path opacity="0.35" d="M98.7425 284.782C97.8884 284.602 97.289 284.083 96.8692 283.376L101.246 261.691C100.677 262.144 100.235 262.858 100.1 263.645L96.5465 281.098L95.6935 285.218L95.4466 286.229C95.1024 287.952 96.0693 289.627 97.6426 289.914C99.2159 290.2 100.811 289.066 101.155 287.343L102.188 282.175C101.844 283.898 100.316 285.069 98.7425 284.782Z" fill="#26366F"/>
<path d="M103.04 272.895C102.516 273.946 101.43 274.403 100.62 273.961C99.8112 273.519 99.5487 272.324 100.073 271.273C100.597 270.222 101.683 269.765 102.492 270.207C103.302 270.649 103.527 271.919 103.04 272.895Z" fill="#575878"/>
<path d="M95.8468 327.245C94.2286 327.221 92.9771 325.772 93.0441 324.089L94.0945 301.159C94.1989 299.401 95.5994 297.969 97.1502 297.957C97.9443 297.913 98.686 298.318 99.1806 298.875C99.6752 299.432 99.9526 300.253 99.9528 301.113L98.9025 324.043C98.8655 325.838 97.5024 327.195 95.8468 327.245Z" fill="url(#paint11_linear_864_151)"/>
<path opacity="0.3" d="M96.564 317.892C95.5976 317.937 94.8631 316.484 94.9675 314.726L95.3475 306.908C95.452 305.149 96.3356 303.722 97.2645 303.752C97.7815 303.748 98.2161 304.081 98.4335 304.677C98.7557 305.236 98.8608 306.057 98.8611 306.917L98.481 314.735C98.3766 316.494 97.5304 317.847 96.564 317.892Z" fill="#575878"/>
<path opacity="0.35" d="M96.1235 322.046C95.262 322.053 94.5202 321.647 93.9956 320.978L95.0087 298.983C94.4695 299.548 94.1625 300.336 94.1328 301.084L93.2908 318.778L93.0896 322.967L93.015 323.977C92.9106 325.736 94.162 327.184 95.8176 327.134C97.4358 327.158 98.8364 325.726 98.8734 323.931L99.1492 318.731C99.0748 320.601 97.7791 321.995 96.1235 322.046Z" fill="#26366F"/>
<path d="M98.0064 363.013C96.3808 363.176 95.017 361.953 94.9491 360.196L93.7895 337.395C93.7216 335.638 94.9198 334.096 96.5455 333.933C97.377 333.815 98.0888 334.108 98.6882 334.627C99.2202 335.109 99.6025 335.891 99.6702 336.788L100.83 359.588C100.83 361.308 99.632 362.851 98.0064 363.013Z" fill="url(#paint12_linear_864_151)"/>
<path opacity="0.5" d="M97.7569 353.704C96.7531 353.824 95.8762 352.485 95.8083 350.728L95.4317 342.879C95.3638 341.122 96.0452 339.583 97.0116 339.538C97.4611 339.497 98.0005 339.792 98.3228 340.35C98.6451 340.909 98.8925 341.617 98.9601 342.514L99.3368 350.364C99.4046 352.121 98.7233 353.659 97.7569 353.704Z" fill="#575878"/>
<path opacity="0.35" d="M97.7279 357.893C96.8963 358.011 96.1171 357.681 95.5551 357.087L94.4257 335.259C93.9539 335.861 93.7144 336.685 93.752 337.47L94.6031 355.038L94.8514 359.187L94.8817 360.159C94.9495 361.916 96.3808 363.176 97.9389 362.976C99.5646 362.814 100.8 361.196 100.695 359.514L100.454 354.319C100.589 356.112 99.3535 357.73 97.7279 357.893Z" fill="#26366F"/>
<path d="M105.454 398.328C103.851 398.789 102.308 397.754 101.963 396.037L97.6417 373.897C97.2966 372.18 98.33 370.452 99.9331 369.99C100.735 369.76 101.521 369.903 102.158 370.347C102.795 370.79 103.252 371.423 103.425 372.281L107.746 394.421C108.053 396.213 107.02 397.942 105.454 398.328Z" fill="url(#paint13_linear_864_151)"/>
<path opacity="0.3" d="M103.887 389.254C102.913 389.486 101.856 388.335 101.579 386.654L100.056 379.038C99.7107 377.321 100.22 375.784 101.231 375.477C101.718 375.361 102.227 375.544 102.655 376.064C103.119 376.509 103.434 377.254 103.607 378.113L105.129 385.729C105.407 387.409 104.86 389.022 103.887 389.254Z" fill="#575878"/>
<path opacity="0.35" d="M104.449 393.288C103.648 393.519 102.794 393.338 102.157 392.895L98.0083 371.614C97.6714 372.29 97.5367 373.076 97.6418 373.898L101.025 391.034L101.828 395.104L102.03 396.074C102.375 397.791 103.919 398.826 105.522 398.365C107.125 397.904 108.158 396.175 107.813 394.458L106.808 389.418C107.048 391.173 106.015 392.902 104.449 393.288Z" fill="#26366F"/>
<path opacity="0.8" d="M103.284 378.414C102.76 379.465 101.607 379.886 100.73 379.407C99.8533 378.928 99.5233 377.696 100.047 376.645C100.572 375.594 101.725 375.174 102.602 375.653C103.441 376.207 103.771 377.438 103.284 378.414Z" fill="#575878"/>
<path d="M121.944 429.794C120.529 430.74 118.753 430.343 117.914 428.928L107.061 409.907C106.259 408.417 106.715 406.469 108.064 405.486C108.738 404.995 109.569 404.876 110.288 404.983C110.97 405.164 111.674 405.645 112.094 406.352L122.947 425.374C123.854 426.825 123.397 428.773 121.944 429.794Z" fill="url(#paint14_linear_864_151)"/>
<path opacity="0.3" d="M117.747 421.862C116.931 422.467 115.582 421.73 114.743 420.316L111.04 413.801C110.238 412.312 110.2 410.667 111.084 410.099C111.473 409.834 112.058 409.867 112.597 410.162C113.137 410.457 113.736 410.975 114.118 411.758L117.821 418.272C118.593 419.65 118.631 421.295 117.747 421.862Z" fill="#575878"/>
<path opacity="0.35" d="M119.568 425.437C118.789 425.967 117.958 426.086 117.208 425.867L106.775 407.553C106.641 408.339 106.746 409.161 107.098 409.831L115.47 424.535L117.434 427.997L117.883 428.816C118.685 430.305 120.498 430.628 121.914 429.682C123.33 428.736 123.719 426.751 122.917 425.261L120.436 420.943C121.373 422.507 120.916 424.455 119.568 425.437Z" fill="#26366F"/>
<path d="M145.564 456.082C144.478 457.399 142.575 457.601 141.451 456.414L126.022 441.579C124.861 440.466 124.77 438.41 125.924 437.13C126.501 436.489 127.205 436.11 127.931 436.029C128.658 435.949 129.475 436.204 130.037 436.798L145.466 451.633C146.56 452.709 146.65 454.765 145.564 456.082Z" fill="url(#paint15_linear_864_151)"/>
<path opacity="0.3" d="M139.405 449.849C138.753 450.639 137.247 450.389 136.086 449.277L130.81 444.195C129.649 443.083 129.229 441.516 129.918 440.65C130.277 440.273 130.802 440.082 131.416 440.227C132.031 440.372 132.742 440.665 133.304 441.259L138.58 446.34C139.674 447.416 140.056 449.058 139.405 449.849Z" fill="#575878"/>
<path opacity="0.35" d="M142.012 452.708C141.398 453.423 140.627 453.765 139.833 453.809L125.071 439.53C125.108 440.315 125.423 441.06 125.955 441.542L137.832 453.002L140.687 455.709L141.384 456.377C142.546 457.49 144.411 457.363 145.497 456.045C146.583 454.728 146.56 452.709 145.398 451.596L141.914 448.259C143.075 449.371 143.166 451.427 142.012 452.708Z" fill="#26366F"/>
<path opacity="0.8" d="M137.613 447.245C137.089 448.297 135.935 448.717 135.059 448.238C134.182 447.759 133.852 446.527 134.376 445.476C134.9 444.425 136.054 444.005 136.93 444.484C137.807 444.963 138.1 446.269 137.613 447.245Z" fill="#575878"/>
<path d="M172.121 479.579C171.065 481.008 169.297 481.284 167.993 480.284L151.583 466.728C150.317 465.654 150.151 463.748 151.14 462.282C151.649 461.605 152.391 461.15 153.117 461.07C153.881 460.914 154.631 461.133 155.23 461.651L171.64 475.207C172.981 476.132 173.177 478.149 172.121 479.579Z" fill="url(#paint16_linear_864_151)"/>
<path opacity="0.45" d="M172.121 479.579C171.065 481.008 169.297 481.284 167.993 480.284L151.583 466.728C150.317 465.654 150.151 463.748 151.14 462.282C151.649 461.605 152.391 461.15 153.117 461.07C153.881 460.914 154.631 461.133 155.23 461.651L171.64 475.207C172.981 476.132 173.177 478.149 172.121 479.579Z" fill="#AEA8B4"/>
<path opacity="0.3" d="M165.631 473.834C165.01 474.737 163.466 474.562 162.268 473.524L156.595 468.895C155.329 467.821 154.804 466.292 155.456 465.502C155.748 465.088 156.272 464.897 156.924 464.966C157.508 464.999 158.22 465.293 158.887 465.848L164.559 470.478C165.691 471.478 166.215 473.007 165.631 473.834Z" fill="#575878"/>
<path opacity="0.35" d="M168.419 476.504C167.872 477.256 167.13 477.711 166.336 477.754L150.593 464.754C150.736 465.501 151.051 466.246 151.62 466.653L164.328 477.135L167.296 479.617L168.03 480.209C169.296 481.283 171.102 480.933 172.158 479.503C173.214 478.074 172.981 476.131 171.714 475.057L168.013 471.983C169.242 473.132 169.475 475.075 168.419 476.504Z" fill="#26366F"/>
<path d="M197.2 344.565C197.618 342.173 199.696 340.427 202.125 340.427H227.774C230.18 340.427 232.245 342.141 232.689 344.506L260.814 494.506C261.391 497.583 259.03 500.427 255.899 500.427H175.875C172.769 500.427 170.414 497.625 170.95 494.565L197.2 344.565Z" fill="url(#paint17_linear_864_151)"/>
<path d="M232.124 369.711L212.924 374.096V434.019L228.924 463.25L235.324 502.711L244.924 486.634L227.324 428.173L232.124 369.711Z" fill="#A39875"/>
<path d="M367.924 11C427.684 29.2803 428.764 29.4375 455.247 84.2729L423 142.5L372 211.011L295.059 337.829L143.923 211.011L256 112L313.5 54L367.924 11Z" fill="url(#paint18_linear_864_151)"/>
<path d="M437.958 52.3799L445.676 67.8146L392.747 149.344L353.377 180.591L312.976 231.052L319.197 203.845L385.86 133.509L437.958 52.3799Z" fill="#A4997C"/>
<path d="M263.995 200.566L263.995 200.566L263.994 200.567L263.995 200.566L272.754 215.093L299.792 177.623L329.136 143.205L331.774 116.881L298.6 167.892L263.995 200.566Z" fill="#AC9F7C"/>
<path d="M368.339 12.4679L376.459 14.7422L319.924 70.2116L335.807 46.6702L368.339 12.4679Z" fill="#A49976"/>
<path d="M319.502 85.1743L315.182 96.6886L302.277 112.625L289.924 119.454L319.502 85.1743Z" fill="#ADA281"/>
<path d="M158.375 494.877L166.338 462.446L171.677 457.519L183.386 462.392L189.02 477.935L227.958 482.043L231.453 467L241.556 465.155L246.397 469.37L251.499 461.044L251.997 451.903L264.757 455.564L267.394 477.008L262.926 494.397L267.847 499.744L256.433 515.341L232.676 517.003L229.939 510.364L182.606 500.013L177.188 503.807L158.375 494.877Z" fill="url(#paint19_linear_864_151)"/>
<path d="M181.315 464.747L166.442 462.401L171.757 457.514L177.424 456.712L176.924 459.712L183.41 462.343L189.013 477.755L227.768 481.818L231.251 466.899L241.306 465.067L242.511 466.112L233.738 470.112L228.082 486.311L187.966 478.957L181.315 464.747Z" fill="#837B63"/>
<path d="M347.424 274.211C347.424 349.874 288.811 415.427 213.424 415.427C138.037 415.427 76.9238 354.09 76.9238 278.427C76.9238 202.764 138.037 141.427 213.424 141.427C255.424 153.211 271.363 162.711 304.424 198.711C326.924 223.211 338.924 240.211 347.424 274.211Z" fill="url(#paint20_radial_864_151)"/>
<path d="M206.653 253.902C188.946 281.169 150.808 288.204 124.535 271.142C98.2614 254.08 102.976 226.302 120.683 199.035C138.39 171.768 175.444 156.453 201.717 173.515C227.99 190.577 224.36 226.635 206.653 253.902Z" fill="#4E3B21"/>
<path d="M231.408 306.548C231.101 305.566 231.788 304.084 233.005 303.378C234.158 302.648 235.422 302.828 235.729 303.811L235.763 303.92C236.507 305.933 237.825 307.388 239.646 308.064C243.681 309.563 248.543 306.351 250.492 300.996C251.018 299.551 251.284 298.009 251.327 296.674C251.276 295.594 252.162 294.379 253.416 293.976C254.671 293.574 255.746 294.069 255.861 295.174C255.861 295.174 255.861 295.174 255.83 295.259C255.868 297.589 255.489 300.053 254.591 302.518C251.528 310.934 243.978 315.849 237.731 313.529C234.608 312.369 232.497 309.848 231.408 306.548Z" fill="url(#paint21_linear_864_151)"/>
<path opacity="0.45" d="M231.408 306.548C231.101 305.566 231.788 304.084 233.005 303.378C234.158 302.648 235.422 302.828 235.729 303.811L235.763 303.92C236.507 305.933 237.825 307.388 239.646 308.064C243.681 309.563 248.543 306.351 250.492 300.996C251.018 299.551 251.284 298.009 251.327 296.674C251.276 295.594 252.162 294.379 253.416 293.976C254.671 293.574 255.746 294.069 255.861 295.174C255.861 295.174 255.861 295.174 255.83 295.259C255.868 297.589 255.489 300.053 254.591 302.518C251.528 310.934 243.978 315.849 237.731 313.529C234.608 312.369 232.497 309.848 231.408 306.548Z" fill="#BEBED0"/>
<path opacity="0.25" d="M235.698 303.895C236.374 305.691 237.496 307.072 239.061 307.847C238.866 307.774 238.671 307.702 238.541 307.653C236.979 307.073 235.101 304.928 234.517 302.878C234.874 302.914 235.589 303.18 235.698 303.895Z" fill="#46395B"/>
<path opacity="0.25" d="M253.615 302.156C254.451 299.861 254.741 297.846 254.932 295.698C254.988 295.139 255.009 294.472 254.968 293.974C255.294 294.095 255.721 294.543 255.796 295.15C255.834 297.48 255.423 300.03 254.526 302.495C251.463 310.91 243.913 315.826 237.666 313.505C237.341 313.385 237.016 313.264 236.786 313.082C242.729 314.614 250.181 311.592 253.615 302.156Z" fill="#46395B"/>
<path opacity="0.3" d="M235.536 309.818C235.821 309.442 236.27 309.222 236.63 309.452C236.989 309.683 237.349 309.913 237.739 310.058C240.311 311.109 243.244 310.559 245.737 308.783C246.121 308.539 246.543 308.599 246.744 309.06C247.011 309.545 246.763 310.225 246.348 310.554C243.375 312.634 239.928 313.38 236.931 312.074C236.476 311.904 236.051 311.65 235.627 311.396C235.202 311.142 235.19 310.365 235.536 309.818Z" fill="#575878"/>
<path d="M234.615 488.035C233.956 489.027 234.166 490.435 235.073 491.193C235.98 491.952 237.337 491.805 237.996 490.812C238.042 490.733 238.042 490.733 238.088 490.654C239.524 488.74 241.443 487.222 243.521 486.655C248.144 485.266 251.903 488.484 251.992 493.77C252.039 495.187 251.758 496.62 251.254 498.026C250.818 499.045 251.284 500.286 252.422 500.649C253.514 501.091 254.832 500.602 255.315 499.503C255.315 499.503 255.315 499.503 255.361 499.424C256.209 497.157 256.704 494.677 256.662 492.302C256.572 484.026 250.646 479.079 243.419 481.254C239.976 482.39 236.953 484.847 234.615 488.035Z" fill="url(#paint22_linear_864_151)"/>
<path opacity="0.25" d="M238.042 490.734C239.34 489.056 241.048 487.626 242.892 486.918C242.682 487.005 242.459 486.978 242.249 487.066C240.439 487.581 237.765 489.713 236.447 491.698C236.938 491.672 237.732 491.401 238.042 490.734Z" fill="#46395B"/>
<path opacity="0.25" d="M255.658 492.661C255.7 495.036 255.306 496.935 254.668 499.115C254.462 499.739 254.303 500.284 254.085 500.794C254.458 500.698 255.017 500.286 255.327 499.618C256.175 497.35 256.67 494.871 256.674 492.417C256.584 484.14 250.658 479.193 243.432 481.368C243.058 481.464 242.743 481.596 242.323 481.771C249.029 480.351 255.572 483.426 255.658 492.661Z" fill="#46395B"/>
<path opacity="0.3" d="M240.031 484.88C240.187 485.293 240.586 485.426 241.006 485.251C241.426 485.076 241.892 484.822 242.312 484.647C245.276 483.65 248.031 484.237 249.988 486.053C250.295 486.343 250.773 486.204 251.122 485.879C251.563 485.396 251.605 484.781 251.239 484.454C248.975 482.347 245.763 481.593 242.215 482.773C241.69 482.992 241.165 483.211 240.64 483.43C240.115 483.648 239.863 484.351 240.031 484.88Z" fill="#575878"/>
<path d="M248.887 337.542L244.792 328.816C243.919 327.01 243.965 324.72 244.958 322.39C245.884 320.122 247.58 318.166 249.665 316.784C254.08 313.883 259.093 314.545 260.818 318.272L264.913 326.997C266.639 330.724 264.457 336.129 260.041 339.03C255.625 341.93 250.613 341.269 248.887 337.542ZM249.429 322.995C249.01 324.041 248.996 324.99 249.342 325.791L253.437 334.516C254.174 336.169 256.386 336.446 258.337 335.189C260.287 333.932 261.235 331.551 260.498 329.898L256.403 321.172C255.666 319.519 253.453 319.242 251.503 320.499C250.561 321.096 249.781 322.012 249.429 322.995Z" fill="url(#paint23_linear_864_151)"/>
<g opacity="0.35">
<path d="M251.992 334.273L247.897 325.547C247.551 324.746 247.52 323.746 247.984 322.752C248.381 321.82 249.162 320.904 250.058 320.256C251.381 319.397 252.732 319.26 253.797 319.765C253.075 319.782 252.198 320.039 251.436 320.562C250.495 321.159 249.781 322.012 249.362 323.058C248.944 324.104 248.93 325.052 249.275 325.853L253.37 334.579C253.601 335.113 254.033 335.459 254.531 335.743C253.426 335.744 252.474 335.227 251.992 334.273Z" fill="#26366F"/>
<path d="M258.663 338.724C263.079 335.823 265.261 330.418 263.535 326.691L259.441 317.966C258.728 316.477 257.478 315.489 256.03 314.967C258.197 315.193 259.988 316.238 260.886 318.209L264.981 326.935C266.707 330.661 264.524 336.066 260.109 338.967C257.464 340.685 254.604 341.198 252.365 340.478C254.261 340.675 256.579 340.106 258.663 338.724Z" fill="#26366F"/>
</g>
<path opacity="0.3" d="M249.174 319.676C247.854 320.813 246.898 322.36 246.597 323.951C246.404 324.974 246.615 325.9 246.961 326.701L247.744 328.405C247.744 328.405 248.02 328.99 248.226 329.359C248.387 329.677 248.188 330.144 247.853 330.456C247.405 330.78 246.909 330.775 246.702 330.406C245.668 328.281 245.413 327.583 245.413 327.583C244.7 326.094 244.774 324.247 245.522 322.332C246.161 320.706 247.457 319.404 248.329 318.591C248.732 318.216 249.273 318.272 249.434 318.591C249.641 318.96 249.555 319.414 249.174 319.676Z" fill="#575878"/>
<path opacity="0.3" d="M258.704 335.877C260.024 334.74 260.979 333.193 261.28 331.602C261.474 330.579 261.262 329.653 260.917 328.852L260.732 328.369C260.732 328.369 260.456 327.784 260.249 327.415C260.088 327.097 260.287 326.631 260.622 326.318C261.07 325.994 261.567 325.999 261.773 326.368C262.808 328.493 262.464 327.97 262.464 327.97C263.177 329.459 263.104 331.306 262.355 333.221C261.716 334.847 260.42 336.149 259.548 336.962C259.146 337.337 258.604 337.28 258.443 336.962C258.237 336.593 258.323 336.138 258.704 335.877Z" fill="#575878"/>
<path opacity="0.45" d="M249.686 316.67C247.601 318.052 245.906 320.008 244.98 322.276C244.163 324.254 243.978 326.112 244.489 327.788C245.973 327.247 247.703 326.57 249.479 325.944L249.409 325.728C249.063 324.927 249.031 323.927 249.496 322.932C249.893 322 250.674 321.085 251.57 320.436C253.52 319.179 255.733 319.456 256.47 321.109L257.689 323.717C259.513 323.42 261.382 323.175 263.367 323.196L261.065 318.135C259.16 314.482 254.102 313.769 249.686 316.67Z" fill="#9A9A9A"/>
<path d="M258.494 366.777L255.7 357.306C255.14 355.301 255.412 352.988 256.676 350.686C257.806 348.509 259.705 346.644 261.859 345.478C266.46 343.06 271.185 344.364 272.417 348.363L275.211 357.834C276.376 361.896 273.607 367.194 269.052 369.663C264.384 372.143 259.659 370.839 258.494 366.777ZM260.814 351.882C260.304 352.826 260.156 353.9 260.435 354.763L263.228 364.234C263.719 366.024 265.821 366.591 267.795 365.499C269.815 364.457 271.034 362.104 270.477 360.377L267.683 350.906C267.193 349.117 265.09 348.55 263.116 349.642C262.129 350.188 261.324 350.939 260.814 351.882Z" fill="url(#paint24_linear_864_151)"/>
<g opacity="0.35">
<path d="M261.873 363.815L259.079 354.344C258.8 353.481 258.994 352.458 259.458 351.463C259.968 350.519 260.794 349.655 261.714 349.171C263.061 348.477 264.437 348.505 265.367 349.135C264.667 349.039 263.857 349.233 263.004 349.654C262.084 350.137 261.212 350.95 260.748 351.945C260.238 352.889 260.09 353.963 260.369 354.826L263.162 364.297C263.326 364.894 263.69 365.302 264.122 365.649C263.106 365.473 262.221 364.894 261.873 363.815Z" fill="#26366F"/>
<path d="M267.696 369.244C272.297 366.826 275.066 361.528 273.856 357.415L271.062 347.944C270.596 346.319 269.548 345.144 268.121 344.508C270.132 344.973 271.746 346.37 272.352 348.426L275.146 357.897C276.311 361.959 273.541 367.257 268.986 369.726C266.226 371.177 263.431 371.349 261.369 370.276C263.268 370.752 265.496 370.359 267.696 369.244Z" fill="#26366F"/>
</g>
<path opacity="0.3" d="M261.008 348.518C259.597 349.553 258.505 350.946 258.024 352.611C257.718 353.646 257.75 354.646 258.028 355.509L258.564 357.35C258.564 357.35 258.727 357.946 258.912 358.429C259.006 358.81 258.762 359.225 258.448 359.424C258 359.748 257.525 359.629 257.386 359.197C256.665 356.874 256.478 356.112 256.478 356.112C256.012 354.488 256.31 352.618 257.217 350.742C258.014 349.156 259.469 347.894 260.365 347.246C260.813 346.921 261.354 346.978 261.448 347.359C261.587 347.79 261.389 348.256 261.008 348.518Z" fill="#575878"/>
<path opacity="0.3" d="M268.141 366.299C269.552 365.264 270.645 363.871 271.125 362.206C271.431 361.171 271.4 360.171 271.121 359.308L271.003 358.762C271.003 358.762 270.84 358.166 270.655 357.683C270.561 357.302 270.805 356.887 271.119 356.688C271.567 356.364 272.042 356.483 272.181 356.915C272.902 359.238 272.738 358.642 272.738 358.642C273.205 360.267 272.906 362.136 271.999 364.012C271.202 365.598 269.748 366.86 268.852 367.509C268.404 367.833 267.862 367.776 267.768 367.396C267.562 367.027 267.76 366.56 268.141 366.299Z" fill="#575878"/>
<path d="M263.112 397.857L261.89 387.669C261.644 385.465 262.299 383.169 263.813 381.008C265.259 378.911 267.274 377.313 269.543 376.413C274.261 374.541 278.565 376.612 279.057 381.022L280.279 391.209C280.838 395.556 277.39 400.644 272.626 402.465C267.974 404.275 263.671 402.204 263.112 397.857ZM267.551 382.858C266.928 383.813 266.622 384.848 266.721 385.785L267.943 395.973C268.186 397.899 270.066 398.767 272.088 398.005C274.178 397.18 275.646 394.968 275.448 393.093L274.226 382.905C273.983 380.979 272.103 380.111 270.08 380.874C269.069 381.255 268.219 381.955 267.551 382.858Z" fill="url(#paint25_linear_864_151)"/>
<g opacity="0.35">
<path d="M266.809 395.252L265.587 385.064C265.488 384.127 265.794 383.092 266.416 382.137C267.085 381.233 267.935 380.534 268.946 380.153C270.317 379.623 271.604 379.827 272.379 380.696C271.701 380.486 270.912 380.566 270.081 380.874C269.069 381.255 268.219 381.954 267.551 382.858C266.928 383.813 266.622 384.848 266.721 385.785L267.943 395.973C267.994 396.581 268.291 397.052 268.656 397.461C267.661 397.172 266.977 396.405 266.809 395.252Z" fill="#26366F"/>
<path d="M271.492 401.744C276.211 399.872 279.637 394.897 279.146 390.488L277.924 380.3C277.704 378.539 276.857 377.176 275.699 376.29C277.533 377.107 278.833 378.703 279.125 380.959L280.347 391.147C280.906 395.493 277.457 400.581 272.694 402.402C269.885 403.523 267.243 403.178 265.45 401.856C267.08 402.582 269.223 402.643 271.492 401.744Z" fill="#26366F"/>
</g>
<path opacity="0.3" d="M268.263 379.386C266.782 380.205 265.532 381.558 264.847 383.133C264.383 384.128 264.302 385.139 264.401 386.077L264.623 388.116C264.623 388.116 264.719 388.776 264.791 389.27C264.839 389.599 264.528 390.077 264.214 390.276C263.721 390.549 263.267 390.316 263.241 389.873C262.947 387.339 262.872 386.566 262.872 386.566C262.653 384.805 263.289 382.901 264.446 381.167C265.447 379.672 266.97 378.626 267.912 378.028C268.405 377.755 268.88 377.874 268.952 378.369C268.888 378.71 268.689 379.176 268.263 379.386Z" fill="#575878"/>
<path opacity="0.3" d="M272.321 398.817C273.802 397.998 275.052 396.645 275.737 395.07C276.201 394.075 276.282 393.064 276.183 392.126L276.178 391.57C276.178 391.57 276.082 390.91 276.009 390.416C275.961 390.087 276.273 389.609 276.586 389.41C277.08 389.137 277.533 389.37 277.56 389.813C277.854 392.347 277.758 391.688 277.758 391.688C277.977 393.449 277.341 395.353 276.184 397.087C275.183 398.582 273.659 399.629 272.718 400.226C272.224 400.499 271.749 400.38 271.677 399.886C271.65 399.442 271.895 399.027 272.321 398.817Z" fill="#575878"/>
<path d="M263.228 429.95L263.423 419.284C263.469 416.994 264.462 414.664 266.113 412.657C267.808 410.701 269.893 409.319 272.165 408.698C276.934 407.434 280.725 410.171 280.587 414.699L280.392 425.365C280.299 429.945 276.307 434.698 271.605 435.9C266.948 437.153 263.157 434.417 263.228 429.95ZM269.472 415.047C268.759 415.9 268.34 416.946 268.259 417.957L268.065 428.623C268.016 430.635 269.673 431.804 271.765 431.258C273.857 430.711 275.574 428.641 275.623 426.63L275.818 415.964C275.867 413.952 274.21 412.783 272.117 413.329C271.195 413.535 270.232 414.246 269.472 415.047Z" fill="url(#paint26_linear_864_151)"/>
<g opacity="0.35">
<path d="M267.065 427.776L267.259 417.11C267.273 416.161 267.692 415.116 268.472 414.2C269.186 413.347 270.128 412.75 271.117 412.483C272.512 412.118 273.711 412.498 274.306 413.441C273.695 413.169 272.928 413.135 272.118 413.329C271.128 413.596 270.186 414.194 269.472 415.046C268.759 415.899 268.34 416.945 268.259 417.956L268.065 428.622C268.048 429.293 268.233 429.776 268.531 430.247C267.67 429.833 267.008 428.953 267.065 427.776Z" fill="#26366F"/>
<path d="M270.718 435.042C275.487 433.778 279.413 429.088 279.505 424.508L279.7 413.842C279.773 411.995 279.173 410.495 278.103 409.433C279.782 410.489 280.746 412.398 280.745 414.739L280.551 425.405C280.458 429.985 276.466 434.738 271.764 435.94C268.907 436.731 266.442 436.034 264.871 434.41C266.346 435.375 268.401 435.612 270.718 435.042Z" fill="#26366F"/>
</g>
<path opacity="0.3" d="M270.635 411.529C269.13 412.183 267.743 413.383 266.833 414.981C266.256 415.987 266.017 416.959 265.982 418.021L265.911 420.146C265.911 420.146 265.895 420.817 265.9 421.374C265.881 421.766 265.591 422.13 265.165 422.34C264.693 422.5 264.24 422.267 264.258 421.875C264.324 419.193 264.362 418.409 264.362 418.409C264.435 416.562 265.229 414.697 266.59 413.054C267.749 411.599 269.342 410.768 270.375 410.273C270.802 410.063 271.322 410.233 271.281 410.739C271.351 410.955 271.107 411.37 270.635 411.529Z" fill="#575878"/>
<path opacity="0.3" d="M271.819 432.144C273.324 431.49 274.711 430.29 275.62 428.693C276.197 427.687 276.437 426.715 276.472 425.652L276.534 425.033C276.534 425.033 276.55 424.362 276.545 423.806C276.564 423.413 276.854 423.05 277.28 422.839C277.752 422.68 278.205 422.912 278.186 423.305C278.121 425.987 278.159 425.202 278.159 425.202C278.086 427.049 277.291 428.914 275.931 430.557C274.772 432.012 273.178 432.843 272.146 433.338C271.719 433.548 271.199 433.378 271.239 432.872C271.102 432.719 271.459 432.292 271.819 432.144Z" fill="#575878"/>
<path d="M254.43 463.617L258.184 452.534C258.951 450.227 260.578 448.055 262.683 446.56C264.789 445.064 267.083 444.329 269.159 444.453C273.581 444.729 275.964 448.779 274.34 453.57L270.586 464.653C268.983 469.331 264.033 473.01 259.498 472.746C255.143 472.407 252.873 468.346 254.43 463.617ZM264.814 450.189C263.918 450.838 263.183 451.804 262.831 452.787L259.078 463.87C258.353 465.95 259.406 467.683 261.369 467.818C263.333 467.953 265.46 466.344 266.185 464.264L269.939 453.181C270.663 451.101 269.61 449.368 267.647 449.233C266.655 449.222 265.71 449.541 264.814 450.189Z" fill="url(#paint27_linear_864_151)"/>
<g opacity="0.35">
<path d="M258.481 462.65L262.234 451.567C262.586 450.583 263.321 449.617 264.217 448.969C265.113 448.32 266.17 447.99 267.05 448.012C268.359 448.102 269.246 448.96 269.482 450.051C269.026 449.54 268.415 449.267 267.648 449.234C266.722 449.16 265.711 449.542 264.815 450.19C263.919 450.838 263.184 451.805 262.832 452.788L259.079 463.871C258.837 464.564 258.775 465.184 258.938 465.78C258.255 465.014 258.019 463.923 258.481 462.65Z" fill="#26366F"/>
<path d="M259.081 471.451C263.504 471.727 268.499 468.098 270.169 463.358L273.923 452.275C274.559 450.372 274.565 448.587 274.077 447.076C275.085 448.757 275.377 451.013 274.52 453.497L270.767 464.58C269.164 469.257 264.214 472.937 259.679 472.672C256.994 472.555 255.085 470.965 254.343 468.755C255.327 470.272 256.96 471.276 259.081 471.451Z" fill="#26366F"/>
</g>
<path opacity="0.3" d="M266.926 446.91C265.462 447.058 263.823 447.838 262.573 449.191C261.746 450.055 261.236 450.999 260.817 452.044L260.071 454.238C260.071 454.238 259.829 454.932 259.609 455.511C259.478 455.915 259.075 456.29 258.692 456.273C258.241 456.319 257.922 455.961 258.075 455.444C259.042 452.671 259.305 451.864 259.305 451.864C259.941 449.96 261.256 448.265 262.981 447.031C264.459 445.934 266.079 445.546 267.16 445.381C267.611 445.335 267.93 445.693 267.844 446.148C267.712 446.551 267.377 446.864 266.926 446.91Z" fill="#575878"/>
<path opacity="0.3" d="M261.085 468.74C262.549 468.591 264.188 467.812 265.438 466.458C266.265 465.594 266.775 464.651 267.193 463.605L267.414 463.025C267.414 463.025 267.655 462.332 267.875 461.752C268.007 461.348 268.455 461.024 268.793 460.99C269.243 460.944 269.563 461.302 269.409 461.819C268.443 464.593 268.752 463.837 268.752 463.837C268.115 465.741 266.8 467.435 265.075 468.669C263.597 469.767 261.977 470.154 260.896 470.319C260.446 470.365 260.127 470.007 260.213 469.553C260.232 469.161 260.634 468.785 261.085 468.74Z" fill="#575878"/>
<g opacity="0.45">
<path d="M253.941 466.788C255.281 467.878 257.225 468.405 259.454 468.012L260.715 467.772C259.133 467.375 258.329 465.785 259.011 463.932L259.185 463.301C257.538 463.245 256.445 462.018 256.676 460.211C256.802 459.251 257.267 458.256 258.026 457.455C258.852 456.59 259.84 456.044 260.808 455.89L261.776 455.736L262.697 452.912C263.027 452.042 263.561 451.263 264.299 450.575L261.26 451.162C260.225 451.379 259.281 451.698 258.248 452.193C258.159 452.369 258.138 452.482 258.049 452.659L254.296 463.742C254.057 464.713 253.909 465.787 253.941 466.788Z" fill="#575878"/>
<path d="M270.72 464.527L271.949 460.946C271.657 461.032 271.41 461.168 271.072 461.203L266.907 461.904L266.139 464.212C265.744 465.422 264.762 466.525 263.662 467.083L270.057 465.988C270.301 465.573 270.5 465.107 270.72 464.527Z" fill="#575878"/>
<path d="M272.426 449.082L268.937 449.715C269.98 450.333 270.376 451.742 269.871 453.243L269.52 454.226L271.861 453.821C272.784 453.616 273.575 453.814 274.143 454.314L274.407 453.507C274.933 451.893 275.009 450.324 274.703 449.018C274.07 448.859 273.282 448.939 272.426 449.082Z" fill="#575878"/>
</g>
<path d="M254.577 326.15C256.168 325.041 256.917 323.126 256.228 321.802L247.456 304.8C246.768 303.477 244.984 303.268 243.393 304.377C242.631 304.9 242.052 305.628 241.789 306.435C241.48 307.191 241.488 308.026 241.809 308.662L250.514 325.727C251.203 327.05 253.054 327.197 254.577 326.15Z" fill="url(#paint28_linear_864_151)"/>
<path opacity="0.45" d="M254.577 326.15C256.168 325.041 256.917 323.126 256.228 321.802L247.456 304.8C246.768 303.477 244.984 303.268 243.393 304.377C242.631 304.9 242.052 305.628 241.789 306.435C241.48 307.191 241.488 308.026 241.809 308.662L250.514 325.727C251.203 327.05 253.054 327.197 254.577 326.15Z" fill="#9A9A9A"/>
<path opacity="0.3" d="M250.839 319.338C251.735 318.69 252.036 317.099 251.347 315.775L248.362 309.947C247.673 308.624 246.383 308.141 245.441 308.739C244.993 309.063 244.661 309.654 244.599 310.273C244.537 310.893 244.612 311.665 244.933 312.302L247.919 318.13C248.541 319.516 249.83 319.998 250.839 319.338Z" fill="#575878"/>
<path opacity="0.35" d="M252.602 322.282C253.431 321.696 254.032 320.854 254.295 320.047L245.891 303.733C246.59 303.829 247.135 304.164 247.456 304.8L254.253 317.934L255.816 321.064L256.228 321.802C256.917 323.126 256.168 325.041 254.577 326.15C252.986 327.259 251.203 327.05 250.514 325.726L248.539 321.858C249.228 323.181 251.078 323.328 252.602 322.282Z" fill="#26366F"/>
<path d="M264.718 354.607C266.333 353.663 267.24 351.787 266.686 350.339L259.931 332.017C259.422 330.62 257.727 330.234 256.045 331.241C255.238 331.713 254.612 332.39 254.237 333.208C253.861 334.027 253.823 334.811 254.078 335.51L260.832 353.831C261.408 355.166 263.103 355.552 264.718 354.607Z" fill="url(#paint29_linear_864_151)"/>
<path opacity="0.3" d="M261.742 347.273C262.729 346.727 263.097 345.073 262.588 343.676L260.297 337.387C259.788 335.989 258.587 335.331 257.599 335.877C257.106 336.15 256.773 336.741 256.599 337.372C256.424 338.003 256.499 338.776 256.753 339.474L259.044 345.763C259.599 347.212 260.8 347.87 261.742 347.273Z" fill="#575878"/>
<path opacity="0.35" d="M263.237 350.466C264.111 349.932 264.758 349.142 265.067 348.386L258.612 330.814C259.245 330.973 259.768 331.421 259.977 332.069L265.204 346.198L266.453 349.527L266.799 350.328C267.308 351.725 266.446 353.652 264.831 354.597C263.216 355.541 261.454 355.218 260.945 353.82L259.418 349.628C259.927 351.025 261.622 351.411 263.237 350.466Z" fill="#26366F"/>
<path d="M270.814 386.931C272.498 386.202 273.676 384.355 273.347 382.883L269.712 362.963C269.45 361.429 267.865 360.754 266.226 361.533C265.373 361.954 264.657 362.529 264.235 363.296C263.768 364.012 263.551 364.871 263.738 365.632L267.373 385.552C267.59 387.035 269.129 387.659 270.814 386.931Z" fill="url(#paint30_linear_864_151)"/>
<path opacity="0.8" d="M269.183 378.903C270.216 378.408 270.788 376.845 270.525 375.311L269.495 368.782C269.233 367.248 267.366 367.772 267.366 367.772C266.58 368.131 265.531 369.296 265.606 370.069L266.797 376.915C267.105 378.501 268.105 379.347 269.183 378.903Z" fill="#575878"/>
<path opacity="0.35" d="M270.005 382.442C270.903 382.072 271.596 381.332 272.084 380.503L268.637 361.344C269.248 361.616 269.658 362.076 269.733 362.849L272.514 378.229L273.156 381.843L273.322 382.718C273.585 384.252 272.474 386.037 270.789 386.765C269.105 387.494 267.565 386.87 267.303 385.335L266.495 380.847C266.735 382.495 268.32 383.17 270.005 382.442Z" fill="#26366F"/>
<path opacity="0.8" d="M269.153 368.259C269.791 368.975 269.554 370.225 268.682 371.038C267.811 371.851 266.571 371.977 265.933 371.261C265.295 370.546 265.532 369.295 266.404 368.482C267.276 367.669 268.515 367.543 269.153 368.259Z" fill="#575878"/>
<path d="M272.492 419.813C274.201 419.25 275.47 417.504 275.388 415.896L274.135 395.066C274.052 393.458 272.602 392.657 270.893 393.221C270.062 393.528 269.3 394.052 268.766 394.83C268.253 395.495 267.923 396.365 267.998 397.138L269.251 417.969C269.4 419.514 270.784 420.377 272.492 419.813Z" fill="url(#paint31_linear_864_151)"/>
<path opacity="0.3" d="M271.76 411.415C272.817 411.085 273.502 409.511 273.419 407.903L272.947 400.76C272.864 399.152 271.953 398.13 270.942 398.511C270.47 398.671 269.933 399.171 269.646 399.813C269.359 400.456 269.208 401.251 269.216 402.087L269.688 409.229C269.792 410.723 270.703 411.746 271.76 411.415Z" fill="#575878"/>
<path opacity="0.35" d="M272.223 415.102C273.167 414.784 273.884 414.209 274.418 413.43L273.218 393.486C273.762 393.821 274.151 394.395 274.113 395.179L275.097 411.299L275.313 415.123L275.366 416.01C275.449 417.618 274.179 419.363 272.471 419.927C270.762 420.49 269.311 419.69 269.229 418.082L268.96 413.371C269.085 414.752 270.515 415.666 272.223 415.102Z" fill="#26366F"/>
<path d="M266.051 455.026C267.741 454.854 269.351 453.353 269.673 451.648L274.002 429.638C274.325 427.933 273.231 426.706 271.541 426.878C270.753 426.958 269.9 427.379 269.229 428.004C268.558 428.63 268.137 429.397 267.919 430.255L263.59 452.266C263.268 453.97 264.362 455.197 266.051 455.026Z" fill="url(#paint32_linear_864_151)"/>
<path opacity="0.3" d="M267.525 446.07C268.539 445.967 269.585 444.523 269.954 442.869L271.439 435.305C271.762 433.6 271.231 432.317 270.218 432.419C269.721 432.414 269.139 432.863 268.761 433.403C268.315 434.006 268.007 434.762 267.789 435.62L266.303 443.184C265.981 444.889 266.511 446.173 267.525 446.07Z" fill="#575878"/>
<path opacity="0.35" d="M266.997 450.025C267.898 449.933 268.751 449.512 269.376 448.836L273.488 427.684C273.898 428.144 274.04 428.854 273.889 429.649L270.552 446.71L269.733 450.75L269.493 451.722C269.171 453.427 267.561 454.928 265.871 455.1C264.182 455.271 263.088 454.045 263.41 452.34L264.356 447.339C264.281 448.907 265.307 450.196 266.997 450.025Z" fill="#26366F"/>
<path d="M248.992 490.033C250.461 490.441 252.369 489.412 253.233 487.763L264.422 466.283C265.286 464.634 264.775 462.958 263.305 462.55C262.559 462.403 261.771 462.483 260.963 462.955C260.223 463.365 259.485 464.053 259.109 464.871L247.92 486.352C247.01 487.949 247.522 489.625 248.992 490.033Z" fill="url(#paint33_linear_864_151)"/>
<path opacity="0.3" d="M253.375 481.171C254.211 481.42 255.644 480.272 256.508 478.623L260.341 471.211C261.205 469.563 261.168 468.006 260.264 467.819C259.79 467.7 259.25 467.922 258.668 468.371C258.086 468.82 257.507 469.548 257.131 470.366L253.298 477.779C252.434 479.427 252.425 480.933 253.375 481.171Z" fill="#575878"/>
<path opacity="0.35" d="M251.517 485.15C252.308 485.348 253.163 485.205 253.971 484.733L264.672 464.083C264.835 464.679 264.73 465.526 264.309 466.293L255.645 482.891L253.629 486.83L253.119 487.774C252.255 489.422 250.348 490.452 248.878 490.044C247.409 489.635 246.897 487.959 247.761 486.311L250.287 481.428C249.535 483.065 250.047 484.741 251.517 485.15Z" fill="#26366F"/>
<path d="M248.424 276.711L171.924 313.211L172.424 309.711L139.924 312.211L106.924 304.211L97.4238 286.211L95.4238 268.711L80.9238 247.211L85.9238 307.211L113.424 315.211L109.424 319.211L147.424 330.211L193.924 318.211L177.424 330.211L211.424 315.211L260.924 290.211L280.924 243.211L264.424 177.711L236.924 150.711L188.924 143.711L236.924 159.211L248.424 181.211L250.924 175.711L264.424 222.711L257.424 254.711L256.424 228.711L248.424 276.711Z" fill="url(#paint34_linear_864_151)"/>
<path d="M236.778 495.018L239.456 485.785L243.786 484.352L251.816 488.313L250.556 501.969L241.659 501.461L236.778 495.018Z" fill="url(#paint35_linear_864_151)"/>
<path d="M167.148 484.828L167.5 474.466L171.707 473.023L179.528 477.071L177.944 485.222L169.691 490.394L167.148 484.828Z" fill="url(#paint36_linear_864_151)"/>
<path d="M128.491 259.11C128.369 260.197 128.974 266.073 130.293 267.161C131.513 266.875 131.961 267.278 132.587 267.145C133.127 267.031 133.68 266.943 134.212 266.8C135.66 266.412 137.021 265.573 138.448 265.1C139.389 264.788 140.149 263.261 140.92 262.62C141.506 262.132 141.71 261.384 142.262 260.891C142.734 260.47 144.554 257.246 144.8 256.669C146.266 253.237 147.291 252.094 147.838 248.357C148.325 245.026 150.305 241.8 149.745 238.313C149.605 237.446 149.769 236.55 149.581 235.661L149.052 233.175C148.721 231.617 148.463 230.019 148.054 228.479C147.668 227.024 146.937 225.648 146.214 224.317C145.369 222.76 144.962 220.851 143.96 219.355C143.327 218.408 142.946 216.919 142.487 215.87C141.892 214.511 141.424 212.988 140.91 211.586C140.068 209.29 139.264 206.878 138.24 204.669C137.375 202.802 136.707 200.604 136.114 198.636C135.453 196.441 132.822 191.239 132.091 189.13C132.305 190.353 131.874 197.461 131.884 198.691C131.905 201.477 131.792 204.053 131.257 206.82C130.945 208.437 130.966 210.092 130.699 211.713C130.484 213.014 130.347 214.473 130.322 215.791C130.261 218.984 130.131 222.208 130.803 225.372C132.419 232.974 133.801 241.567 131.294 249.098C130.708 250.859 130.226 252.748 129.719 254.541C129.286 256.072 128.671 257.52 128.491 259.11Z" fill="#C34FBC"/>
<path d="M158.295 277.47C158.323 277.472 158.35 277.475 158.377 277.477C158.365 277.495 158.337 277.492 158.295 277.47C156.979 277.343 154.828 276.619 153.761 275.926C153.207 275.566 152.367 275.322 151.705 275.186C150.288 274.894 148.924 274.723 147.515 274.278C145.343 273.592 143.199 273.01 141.128 272.026C139.903 271.445 138.755 270.792 137.451 270.398C136.371 270.072 135.283 270.039 134.224 269.585C132.769 268.961 131.006 268.58 130.294 267.161C131.513 266.876 131.824 267.11 132.45 266.977C132.989 266.863 133.592 266.962 134.125 266.819C135.573 266.431 136.933 265.593 138.361 265.119C139.301 264.808 140.062 263.281 140.832 262.64C141.419 262.151 141.623 261.404 142.175 260.911C142.647 260.489 144.467 257.265 144.713 256.688C145.449 257.828 146.93 259.823 147.481 261.059C148.442 263.216 149.911 265.097 151.014 267.182C152.256 269.529 153.407 271.973 155.123 274.026C155.392 274.348 157.8 277.208 158.295 277.47Z" fill="#832FA0"/>
<path d="M166.73 271.97C167.448 271.105 168.561 270.194 168.981 269.137C168.625 268.067 168 266.244 167.881 265.684C167.668 264.683 166.947 263.86 166.688 262.895C166.541 262.347 166.142 261.759 165.844 261.275C165.538 260.778 165.526 260.17 165.243 259.649C164.795 258.823 164.498 257.639 164.19 256.73C163.54 254.813 163.292 252.76 162.528 250.898C161.927 249.432 161.891 247.847 161.581 246.391C161.173 244.468 161.367 242.562 160.967 240.681C160.544 238.689 160.317 236.681 159.889 234.669C159.383 232.287 159.08 229.923 158.576 227.552C158.32 226.346 157.591 225.222 157.217 224.032C157.005 223.355 156.067 222.085 155.956 221.372C155.014 222.076 153.196 223.893 152.278 224.671C151.519 225.315 150.953 226.181 150.264 226.898C150.074 227.096 147.382 228.506 147.792 228.535C148.201 230.074 148.459 231.672 148.79 233.231L149.319 235.717C149.507 236.605 149.343 237.502 149.483 238.369C150.043 241.856 148.063 245.082 147.576 248.413C147.029 252.15 146.004 253.293 144.538 256.725C145.275 257.865 146.755 259.859 147.306 261.096C148.267 263.253 149.737 265.134 150.84 267.218C152.082 269.566 153.232 272.01 154.948 274.063C155.24 274.412 158.05 277.749 158.203 277.513C159.267 277.597 162.1 277.913 162.817 276.599C163.142 276.003 163.942 275.317 164.407 274.784C165.211 273.864 165.944 272.916 166.73 271.97Z" fill="#9440A2"/>
<path d="M160.018 223.392C159.715 221.964 159.687 220.854 159.352 219.278C158.811 218.022 156.03 220.844 155.634 221.14C155.745 221.853 156.683 223.123 156.896 223.8C157.269 224.99 157.998 226.114 158.254 227.32C158.758 229.691 159.061 232.055 159.567 234.437C159.995 236.449 160.222 238.457 160.645 240.448C161.045 242.33 160.851 244.236 161.259 246.159C161.569 247.615 161.605 249.199 162.206 250.666C162.97 252.528 163.218 254.58 163.868 256.498C164.176 257.407 164.473 258.591 164.921 259.416C165.204 259.937 165.216 260.546 165.522 261.043C165.821 261.527 166.219 262.115 166.366 262.663C166.625 263.628 167.346 264.451 167.559 265.452C167.678 266.012 168.547 268.31 168.904 269.38C169.761 267.226 170.189 264.548 170.995 262.39C171.397 261.313 171.464 260.074 171.823 258.971C172.146 257.977 172.482 256.806 172.653 255.774C172.949 253.999 173.516 252.102 173.137 250.319C172.664 248.091 171.408 246.139 170.459 244.092C169.558 242.15 168.711 240.184 167.739 238.296C166.939 236.743 166.469 235.036 165.606 233.486C164.57 231.625 163.533 229.788 162.434 227.964C161.52 226.449 160.399 225.182 160.018 223.392Z" fill="#8A3B96"/>
<path d="M138.178 193.6C137.187 193.046 132.971 189.899 132.09 189.13C132.822 191.239 135.19 196.497 135.851 198.692C136.444 200.66 137.112 202.858 137.977 204.725C139.001 206.933 139.805 209.346 140.647 211.642C141.161 213.044 141.629 214.567 142.224 215.926C142.683 216.975 143.064 218.464 143.697 219.411C144.699 220.907 145.106 222.816 145.951 224.373C146.674 225.704 147.405 227.08 147.791 228.535C149.307 228.822 150.073 227.097 150.264 226.898C150.952 226.181 151.518 225.316 152.278 224.671C153.196 223.893 155.014 222.076 155.955 221.373C156.351 221.077 159.138 220.079 159.407 219.542C158.827 218.473 158.728 216.785 157.871 215.876C157.01 214.964 156.175 214.1 155.398 213.126C154.048 211.432 152.658 209.815 151.512 207.956C150.455 206.241 149.009 205.141 147.705 203.679C146.352 202.163 144.97 200.63 143.534 199.157C142.323 197.916 141.343 196.425 140.018 195.308C139.344 194.74 138.968 194.041 138.178 193.6Z" fill="#C667BC"/>
<path d="M171.64 244.267C173.311 246.087 178.852 251.653 180.581 253.413L180.539 252.201L177.302 247.314C177.302 247.314 176.612 244.836 176.198 243.234C175.642 241.084 175.427 238.842 174.936 236.668C174.397 234.284 175.065 231.937 175.234 229.565C175.369 227.673 175.522 225.754 175.713 223.876C175.859 222.444 175.687 220.816 176.077 219.439C176.448 218.131 176.293 212.446 176.55 211.069C175.809 212.278 173.594 217.058 172.586 218.06C169.952 220.677 167.482 221.057 165.419 224.092C164.657 225.214 163.194 225.671 162.896 226.96C163.888 231.166 164.646 235.931 167.592 239.358C168.338 240.226 168.817 241.252 169.597 242.1C170.269 242.832 170.969 243.538 171.64 244.267Z" fill="#5A2373"/>
<path d="M187.955 245.606C188.877 242.24 189.035 238.71 189.876 235.307C190.203 235.369 189.295 228.247 189.051 227.399C188.889 226.833 188.901 226.204 188.499 225.618C187.347 223.936 186.341 222.117 185.262 220.386C184.693 219.474 184.119 218.559 183.573 217.643C182.996 216.677 182.014 215.966 181.398 215.017C180.771 214.052 179.64 212.887 178.672 212.279C177.658 211.642 177.006 211.315 175.974 210.661C175.717 212.038 176.112 217.904 175.741 219.212C175.351 220.589 175.523 222.217 175.377 223.649C175.187 225.527 175.033 227.446 174.899 229.337C174.73 231.709 174.062 234.057 174.6 236.441C175.091 238.615 175.307 240.857 175.862 243.006C176.276 244.609 177.197 248.017 177.197 248.017L177.203 248.026C177.89 249.146 180.221 252.157 180.581 253.413C181.588 254.297 183.344 255.253 183.83 256.56C183.992 256.996 185.767 259.51 185.962 259.198C186.394 258.507 186.039 257.492 186.163 256.748C186.304 255.9 186.401 255.048 186.56 254.198C187.095 251.327 187.18 248.433 187.955 245.606Z" fill="#772D81"/>
<path d="M159.817 214.457C160.736 218.669 161.911 222.784 162.896 226.96C163.195 225.671 164.758 225.492 165.52 224.371C167.583 221.335 169.732 221.24 172.366 218.624C173.374 217.622 174.371 216.112 175.112 214.903C175.905 213.608 176.134 212.477 176.389 211.016C176.658 209.477 176.43 207.898 176.32 206.365C176.187 204.516 175.188 202.713 175.005 200.875C174.796 198.777 173.989 196.811 173.649 194.732C173.349 192.893 173.161 190.944 172.65 189.162C171.665 185.728 171.247 182.145 170.251 178.669C168.244 171.67 164.615 163.308 162.617 156.339C162.234 160.155 162.171 164.129 161.417 167.943C160.578 172.189 160.83 176.484 160.14 180.72C159.617 183.925 160.238 187.512 160.241 190.755C160.244 193.849 159.921 196.925 159.827 200.013C159.75 202.544 159.528 205.11 159.647 207.646C159.752 209.891 159.331 212.228 159.817 214.457Z" fill="#903A8B"/>
<path d="M162.61 156.342C162.801 156.71 163.907 158.141 164.089 158.4C164.576 159.093 165.064 159.75 165.497 160.478C166.654 162.423 168.959 163.719 170.046 165.718C172.548 170.321 174.8 174.988 177.093 179.673C179.228 184.033 180.682 188.766 182.782 193.138C183.937 195.541 184.479 198.188 185.638 200.578C186.76 202.893 186.736 205.728 187.867 208.039C188.908 210.165 189.525 212.561 190.18 214.845C190.419 215.678 190.846 216.46 191.091 217.314C191.396 218.376 191.386 219.391 191.437 220.487C191.671 225.504 191.099 230.155 189.914 235.071C189.905 235.325 189.875 235.472 189.818 235.461C189.85 235.331 189.882 235.201 189.914 235.071C189.957 233.856 189.529 230.183 189.328 229.481C189.165 228.915 189.059 226.634 188.657 226.047C187.504 224.366 186.498 222.547 185.419 220.816C184.85 219.903 184.277 218.989 183.73 218.073C183.154 217.107 182.171 216.396 181.556 215.447C180.929 214.481 179.798 213.317 178.83 212.709C177.816 212.072 177.415 211.673 176.382 211.019C176.651 209.48 176.422 207.901 176.312 206.368C176.179 204.519 175.181 202.715 174.998 200.878C174.788 198.779 173.982 196.814 173.642 194.734C173.341 192.896 173.154 190.946 172.643 189.165C171.658 185.73 171.24 182.148 170.243 178.672C168.236 171.672 164.608 163.311 162.61 156.342Z" fill="#A5569D"/>
<path d="M179.014 267.609C177.982 268.618 175.172 270.597 173.949 271.372C173.555 271.569 172.034 265.683 171.623 265.025C171.236 264.406 171.306 263.458 171.117 262.772C170.922 262.066 170.621 261.209 170.6 260.477C170.578 259.72 170.608 258.467 170.373 257.79C170.148 257.144 170.44 256.346 170.186 255.743C169.697 254.581 170.042 252.803 170.042 251.547C170.042 249.439 170.653 247.859 171.065 245.882C172.798 243.716 184.576 232.041 186.445 229.952C187.721 229.952 188.972 229.69 190.212 229.69C191.627 229.69 193.429 229.356 194.677 228.643C195.095 228.945 195.685 229.757 196.102 230.287C196.778 231.148 196.948 231.094 197.586 231.988C199.818 235.113 205.163 237.033 204.828 241.732C203.344 243.89 201.127 245.868 199.293 247.702C197.508 249.487 195.654 251.154 193.857 252.952C190.887 255.922 188.065 258.93 185.112 261.883C184.002 262.993 182.687 263.909 181.701 265.149C180.908 266.147 179.913 266.729 179.014 267.609Z" fill="#7838AA"/>
<path d="M177.861 220.26C179.194 218.039 181.469 215.218 183.348 213.875C183.483 214.211 185.02 217.518 185.362 217.903L186.369 230.321C184.5 232.41 172.664 244.264 170.931 246.43C171.26 244.85 171.473 243.415 171.846 241.832C172.061 240.917 172.325 240.014 172.507 239.083C172.738 237.906 172.692 236.544 173.065 235.424C173.44 234.301 173.241 232.783 173.386 231.599C173.524 230.463 173.538 229.26 173.944 228.178C174.978 225.421 176.342 222.792 177.861 220.26Z" fill="#C34FBC"/>
<path d="M189.787 230.201C188.547 230.201 187.645 230.321 186.369 230.321L185.362 217.926C186.279 218.045 187.392 217.766 187.685 217.687C188.532 217.458 189.474 217.162 190.362 217.247C190.905 217.298 193.417 217.232 194.455 217.692C194.424 218.574 194.135 219.241 194.135 219.99C194.135 223.146 194.252 226.008 194.252 229.154C193.004 229.867 191.202 230.201 189.787 230.201Z" fill="#9440A2"/>
<path d="M206.519 239.802C205.785 240.571 205.432 240.852 204.828 241.731C202.109 239.012 199.395 235.503 197.163 232.378C196.524 231.484 196.354 231.538 195.678 230.678C195.261 230.147 194.505 229.616 194.088 229.314C194.088 226.168 194.137 223.025 194.137 219.869C194.137 219.12 193.903 218.125 194.457 217.571C195.366 216.662 196.202 215.496 196.871 214.4C197.776 212.919 198.759 211.638 199.504 210.066C200.234 208.525 200.903 207.193 201.875 205.79C202.939 204.253 204.968 200.965 204.968 199.108C205.727 202.332 207.405 205.925 209.62 208.401C210.272 209.13 210.296 210.767 210.457 211.667C210.682 212.931 210.922 214.216 210.922 215.502C210.922 217.234 210.954 218.99 210.726 220.701C210.232 224.4 210.123 228.216 209.289 231.864C208.813 233.945 209.037 236.008 208.121 237.993C207.829 238.625 207.007 239.291 206.519 239.802Z" fill="#8A3B96"/>
<path d="M203.476 194.12C203.852 195.925 204.639 197.645 205.058 199.423C205.058 201.279 203.029 204.567 201.964 206.104C200.993 207.507 200.324 208.839 199.594 210.38C198.849 211.952 197.866 213.234 196.961 214.714C196.291 215.81 195.455 216.977 194.546 217.885C194.546 218.405 190.996 217.492 190.453 217.44C189.565 217.355 188.623 217.652 187.776 217.88C187.483 217.959 186.37 218.239 185.453 218.12C185.111 217.735 183.295 213.903 183.35 213.876C185.526 211.993 187.265 209.544 189.533 207.743C191.232 206.394 192.529 204.349 193.719 202.565C194.942 200.73 196.332 199.025 197.533 197.169C198.634 195.467 199.502 193.592 200.406 191.784C200.576 191.445 201.446 189.148 201.853 189.841C202.534 190.998 203.204 192.816 203.476 194.12Z" fill="#C667BC"/>
<path d="M124.924 271.212C151.197 288.274 188.832 282.036 206.54 254.769C215.401 241.124 220.737 225.278 220.564 210.712C218.781 192.015 215.279 185.916 206.924 178.711C209.662 190.218 209.367 229.919 201.604 240.662C163.309 287.427 98.6504 254.15 124.924 271.212Z" fill="#4E3B21"/>
<path d="M197 375.999L156 380.499L125 374.999L132 380.499L161 387.499L197 375.999Z" fill="url(#paint37_linear_864_151)"/>
<path d="M302.663 342.064L313.849 302.364L330.562 275.682L322.84 280.112L305.486 304.378L302.663 342.064Z" fill="url(#paint38_linear_864_151)"/>
</g>
<defs>
<radialGradient id="paint0_radial_864_151" cx="0" cy="0" r="1" gradientUnits="userSpaceOnUse" gradientTransform="translate(186.487 487.484) rotate(67.0387) scale(78.4424 147.721)">
<stop stop-color="#A08464"/>
<stop offset="1" stop-color="#645143"/>
</radialGradient>
<linearGradient id="paint1_linear_864_151" x1="179.056" y1="488.631" x2="166.978" y2="470.575" gradientUnits="userSpaceOnUse">
<stop stop-color="#493A48"/>
<stop offset="1" stop-color="#706D75"/>
</linearGradient>
<linearGradient id="paint2_linear_864_151" x1="100.586" y1="271.069" x2="108.134" y2="242.586" gradientUnits="userSpaceOnUse">
<stop stop-color="#706D75"/>
<stop offset="1" stop-color="#B8B2BF"/>
</linearGradient>
<linearGradient id="paint3_linear_864_151" x1="95.5927" y1="307.989" x2="98.6748" y2="278.76" gradientUnits="userSpaceOnUse">
<stop stop-color="#706D75"/>
<stop offset="1" stop-color="#B8B2BF"/>
</linearGradient>
<linearGradient id="paint4_linear_864_151" x1="86.485" y1="324.841" x2="105.698" y2="334.421" gradientUnits="userSpaceOnUse">
<stop stop-color="#706D75"/>
<stop offset="1" stop-color="#B8B2BF"/>
</linearGradient>
<linearGradient id="paint5_linear_864_151" x1="100.49" y1="379.855" x2="94.9418" y2="351.457" gradientUnits="userSpaceOnUse">
<stop stop-color="#706D75"/>
<stop offset="1" stop-color="#B8B2BF"/>
</linearGradient>
<linearGradient id="paint6_linear_864_151" x1="111.643" y1="415.056" x2="99.9047" y2="389.226" gradientUnits="userSpaceOnUse">
<stop stop-color="#706D75"/>
<stop offset="1" stop-color="#B8B2BF"/>
</linearGradient>
<linearGradient id="paint7_linear_864_151" x1="130.579" y1="444.704" x2="114.436" y2="421.996" gradientUnits="userSpaceOnUse">
<stop stop-color="#706D75"/>
<stop offset="1" stop-color="#B8B2BF"/>
</linearGradient>
<linearGradient id="paint8_linear_864_151" x1="157.398" y1="468.428" x2="136.37" y2="451.132" gradientUnits="userSpaceOnUse">
<stop stop-color="#706D75"/>
<stop offset="1" stop-color="#B8B2BF"/>
</linearGradient>
<linearGradient id="paint9_linear_864_151" x1="104.519" y1="254.861" x2="112.967" y2="226.632" gradientUnits="userSpaceOnUse">
<stop stop-color="#706D75"/>
<stop offset="1" stop-color="#B8B2BF"/>
</linearGradient>
<linearGradient id="paint10_linear_864_151" x1="97.6946" y1="289.868" x2="103.045" y2="260.914" gradientUnits="userSpaceOnUse">
<stop stop-color="#706D75"/>
<stop offset="1" stop-color="#B8B2BF"/>
</linearGradient>
<linearGradient id="paint11_linear_864_151" x1="95.8779" y1="327.218" x2="95.9051" y2="297.943" gradientUnits="userSpaceOnUse">
<stop stop-color="#706D75"/>
<stop offset="1" stop-color="#B8B2BF"/>
</linearGradient>
<linearGradient id="paint12_linear_864_151" x1="97.9874" y1="363.041" x2="94.6619" y2="334.142" gradientUnits="userSpaceOnUse">
<stop stop-color="#706D75"/>
<stop offset="1" stop-color="#B8B2BF"/>
</linearGradient>
<linearGradient id="paint13_linear_864_151" x1="105.447" y1="398.359" x2="97.6488" y2="370.684" gradientUnits="userSpaceOnUse">
<stop stop-color="#706D75"/>
<stop offset="1" stop-color="#B8B2BF"/>
</linearGradient>
<linearGradient id="paint14_linear_864_151" x1="121.985" y1="429.775" x2="105.969" y2="406.958" gradientUnits="userSpaceOnUse">
<stop stop-color="#706D75"/>
<stop offset="1" stop-color="#B8B2BF"/>
</linearGradient>
<linearGradient id="paint15_linear_864_151" x1="145.531" y1="456.082" x2="124.569" y2="438.693" gradientUnits="userSpaceOnUse">
<stop stop-color="#706D75"/>
<stop offset="1" stop-color="#B8B2BF"/>
</linearGradient>
<linearGradient id="paint16_linear_864_151" x1="172.16" y1="479.579" x2="150.176" y2="463.721" gradientUnits="userSpaceOnUse">
<stop stop-color="#706D75"/>
<stop offset="1" stop-color="#B8B2BF"/>
</linearGradient>
<linearGradient id="paint17_linear_864_151" x1="214.924" y1="340.427" x2="214.924" y2="500.427" gradientUnits="userSpaceOnUse">
<stop offset="0.275" stop-color="#C1B58F"/>
<stop offset="1" stop-color="#A59870"/>
</linearGradient>
<linearGradient id="paint18_linear_864_151" x1="269.424" y1="67.7114" x2="392.065" y2="191.572" gradientUnits="userSpaceOnUse">
<stop stop-color="#A59870"/>
<stop offset="0.264157" stop-color="#C1B58F"/>
<stop offset="1" stop-color="#A59870"/>
</linearGradient>
<linearGradient id="paint19_linear_864_151" x1="210.706" y1="454.79" x2="215.142" y2="518.229" gradientUnits="userSpaceOnUse">
<stop stop-color="#908564"/>
<stop offset="1" stop-color="#9D967F"/>
</linearGradient>
<radialGradient id="paint20_radial_864_151" cx="0" cy="0" r="1" gradientUnits="userSpaceOnUse" gradientTransform="translate(180.576 249.122) rotate(78.8271) scale(169.518 168.946)">
<stop stop-color="#A08464"/>
<stop offset="1" stop-color="#645143"/>
</radialGradient>
<linearGradient id="paint21_linear_864_151" x1="247.55" y1="291.267" x2="239.086" y2="314.053" gradientUnits="userSpaceOnUse">
<stop stop-color="#493A48"/>
<stop offset="1" stop-color="#706D75"/>
</linearGradient>
<linearGradient id="paint22_linear_864_151" x1="245.617" y1="503.27" x2="242.414" y2="481.096" gradientUnits="userSpaceOnUse">
<stop stop-color="#878A9C"/>
<stop offset="1" stop-color="#706D75"/>
</linearGradient>
<linearGradient id="paint23_linear_864_151" x1="260.107" y1="338.961" x2="246.693" y2="318.692" gradientUnits="userSpaceOnUse">
<stop stop-color="#706D75"/>
<stop offset="1" stop-color="#B8B2BF"/>
</linearGradient>
<linearGradient id="paint24_linear_864_151" x1="269.061" y1="369.66" x2="257.39" y2="347.886" gradientUnits="userSpaceOnUse">
<stop stop-color="#706D75"/>
<stop offset="1" stop-color="#B8B2BF"/>
</linearGradient>
<linearGradient id="paint25_linear_864_151" x1="272.707" y1="402.411" x2="263.439" y2="378.771" gradientUnits="userSpaceOnUse">
<stop stop-color="#706D75"/>
<stop offset="1" stop-color="#B8B2BF"/>
</linearGradient>
<linearGradient id="paint26_linear_864_151" x1="271.732" y1="435.895" x2="264.982" y2="410.592" gradientUnits="userSpaceOnUse">
<stop stop-color="#706D75"/>
<stop offset="1" stop-color="#B8B2BF"/>
</linearGradient>
<linearGradient id="paint27_linear_864_151" x1="259.707" y1="472.665" x2="261.336" y2="443.986" gradientUnits="userSpaceOnUse">
<stop stop-color="#706D75"/>
<stop offset="1" stop-color="#B8B2BF"/>
</linearGradient>
<linearGradient id="paint28_linear_864_151" x1="254.593" y1="326.117" x2="240.777" y2="306.21" gradientUnits="userSpaceOnUse">
<stop stop-color="#706D75"/>
<stop offset="1" stop-color="#B8B2BF"/>
</linearGradient>
<linearGradient id="paint29_linear_864_151" x1="264.762" y1="354.588" x2="252.347" y2="333.442" gradientUnits="userSpaceOnUse">
<stop stop-color="#706D75"/>
<stop offset="1" stop-color="#B8B2BF"/>
</linearGradient>
<linearGradient id="paint30_linear_864_151" x1="270.84" y1="386.915" x2="260.709" y2="363.915" gradientUnits="userSpaceOnUse">
<stop stop-color="#706D75"/>
<stop offset="1" stop-color="#B8B2BF"/>
</linearGradient>
<linearGradient id="paint31_linear_864_151" x1="272.515" y1="419.78" x2="264.302" y2="395.406" gradientUnits="userSpaceOnUse">
<stop stop-color="#706D75"/>
<stop offset="1" stop-color="#B8B2BF"/>
</linearGradient>
<linearGradient id="paint32_linear_864_151" x1="266.036" y1="455.013" x2="263.445" y2="427.632" gradientUnits="userSpaceOnUse">
<stop stop-color="#706D75"/>
<stop offset="1" stop-color="#B8B2BF"/>
</linearGradient>
<linearGradient id="paint33_linear_864_151" x1="249" y1="489.987" x2="256.96" y2="460.792" gradientUnits="userSpaceOnUse">
<stop stop-color="#706D75"/>
<stop offset="1" stop-color="#B8B2BF"/>
</linearGradient>
<linearGradient id="paint34_linear_864_151" x1="109.424" y1="132.211" x2="257.424" y2="330.711" gradientUnits="userSpaceOnUse">
<stop stop-color="#79634C"/>
<stop offset="1" stop-color="#77604B"/>
</linearGradient>
<linearGradient id="paint35_linear_864_151" x1="243.786" y1="484.352" x2="245.045" y2="502.355" gradientUnits="userSpaceOnUse">
<stop stop-color="#A35CAB"/>
<stop offset="1" stop-color="#77457D"/>
</linearGradient>
<linearGradient id="paint36_linear_864_151" x1="172.778" y1="472.948" x2="173.977" y2="490.094" gradientUnits="userSpaceOnUse">
<stop stop-color="#A35CAB"/>
<stop offset="1" stop-color="#77457D"/>
</linearGradient>
<linearGradient id="paint37_linear_864_151" x1="159.5" y1="375.999" x2="162" y2="400.999" gradientUnits="userSpaceOnUse">
<stop stop-color="#665343"/>
<stop offset="1" stop-color="#624F40"/>
</linearGradient>
<linearGradient id="paint38_linear_864_151" x1="316.71" y1="307.295" x2="295.5" y2="300.499" gradientUnits="userSpaceOnUse">
<stop stop-color="#5C4A3D"/>
<stop offset="1" stop-color="#5C4A3C"/>
</linearGradient>
<clipPath id="clip0_864_151">
<rect width="520" height="560" fill="white"/>
</clipPath>
</defs>
</svg>
