<svg width="878" height="185" viewBox="0 0 878 185" fill="none" xmlns="http://www.w3.org/2000/svg">
<mask id="path-1-outside-1_988_2349" maskUnits="userSpaceOnUse" x="-11" y="-11" width="900" height="207" fill="black">
<rect fill="white" x="-11" y="-11" width="900" height="207"/>
<path d="M45.516 182.9C33.644 184.596 21.56 182.264 9.9 179.72C7.78 179.084 5.448 178.236 3.964 176.752C2.268 175.268 1.42 172.936 1.208 170.604C0.784 167.212 1.208 164.032 1.42 160.64C3.116 129.9 5.872 99.372 8.84 68.844C9.688 58.456 10.748 47.856 11.808 37.468C12.232 33.864 12.232 29.836 14.14 26.656C15.412 24.536 17.956 23.264 20.076 22.628C32.584 18.812 45.728 18.388 58.66 18.176C72.016 18.176 86.22 18.6 98.516 23.476C108.48 27.504 118.02 34.5 123.32 43.616C131.164 56.76 133.284 73.72 130.74 88.984C129.044 98.736 123.956 108.488 116.748 115.272C110.812 120.572 103.392 123.964 95.76 126.084C84.524 129.052 72.44 129.264 60.992 127.568C60.356 133.504 58.448 165.092 58.448 171.028C58.448 172.936 58.872 175.268 57.812 176.964C57.176 178.66 55.48 179.932 53.784 180.568C51.24 181.84 48.272 182.476 45.516 182.9ZM58.66 89.196C65.232 90.044 72.016 91.316 78.376 90.044C82.192 89.408 86.008 87.288 87.704 84.108C91.096 77.96 92.156 66.512 87.492 61.636C83.252 57.184 68.624 56.972 62.688 57.396C60.78 67.996 59.72 78.596 58.66 89.196ZM152.762 162.972C151.914 163.396 150.642 163.608 149.794 162.972C148.522 162.124 148.098 160.216 147.886 158.52C146.19 146.648 149.582 94.708 151.914 82.624C153.398 73.72 155.73 64.816 159.334 56.548C162.514 48.916 167.39 41.708 173.538 36.408C183.502 27.716 197.07 22.204 210.214 21.568C219.754 21.144 229.506 23.9 237.986 27.928C244.134 30.896 250.282 34.712 254.522 39.8C263.638 50.612 269.362 64.392 272.542 78.172C276.57 94.92 277.418 112.728 276.994 130.112C276.782 138.592 276.57 147.284 275.298 155.764C275.086 157.46 274.874 159.156 273.814 160.216C272.542 161.488 270.422 161.912 268.514 162.124C266.182 162.336 263.85 162.124 261.306 162.124C257.702 161.912 235.654 162.76 232.05 162.548C225.478 162.124 227.386 152.796 227.174 146.224C223.57 146.012 201.098 145.8 197.494 145.588C197.494 149.404 197.07 153.432 197.494 157.248C197.706 160.216 195.374 162.548 192.194 162.336C179.898 161.276 167.602 160.64 155.518 162.548C154.458 162.76 153.61 162.548 152.762 162.972ZM200.462 87.712C198.342 95.344 197.706 103.188 197.494 111.032C207.458 110.82 217.422 110.396 227.386 110.608C227.386 104.672 227.386 98.948 226.75 93.224C226.326 87.288 225.054 81.14 222.086 75.84C220.602 73.296 218.058 70.54 215.09 70.54C207.882 70.328 202.582 80.928 200.462 87.712ZM375.951 170.604C360.475 172.512 343.303 169.544 329.947 161.488C320.407 155.976 312.139 147.072 307.263 137.108C299.419 121.42 297.299 102.976 296.451 85.38C295.391 63.968 296.239 41.496 303.235 21.144C303.871 19.66 304.719 17.752 306.203 17.116C307.687 16.268 309.595 16.692 311.291 16.904C322.951 18.812 334.823 19.448 346.695 20.084C348.179 20.084 350.087 20.296 351.571 21.144C353.267 22.416 353.903 24.96 353.691 27.08C351.783 42.768 351.147 58.668 352.207 74.356C353.055 83.472 354.327 93.012 358.355 101.28C360.263 104.884 363.019 108.488 366.623 110.608C368.955 111.88 371.923 112.728 374.679 112.304C377.223 111.88 379.767 109.972 381.463 108.064C385.067 103.188 385.915 96.616 386.551 90.468C388.883 67.36 383.371 43.616 375.739 21.356C374.467 17.54 373.831 12.876 377.647 11.604C391.003 7.364 404.783 3.54799 418.775 1.21599C421.743 0.791992 425.559 2.276 426.619 5.03199C433.191 20.72 437.007 37.68 438.915 54.64C441.247 76.264 439.763 98.948 433.191 119.724C428.739 133.716 420.683 147.496 409.235 156.824C399.907 164.456 387.823 169.12 375.951 170.604ZM533.684 177.812C518.844 180.356 502.732 179.084 488.74 173.996C482.38 171.664 476.444 168.484 471.356 164.456C461.816 156.824 460.332 138.38 465.208 127.356C467.328 122.692 470.72 117.816 475.596 116.12C481.32 114 487.892 115.908 493.828 116.968C497.008 117.392 500.188 117.816 503.156 118.452C505.912 119.3 508.88 120.572 510.152 122.904C511.848 125.66 511.848 129.264 511.424 132.444C511 134.988 511.636 138.38 513.544 140.076C517.996 143.892 526.9 143.468 531.564 140.076C534.108 138.38 535.168 134.988 535.168 132.02C535.168 127.78 532.836 123.54 529.656 120.996C521.388 114.848 510.364 114.212 500.4 111.244C488.74 107.852 476.868 102.128 468.6 93.224C463.3 87.288 459.908 79.232 458.636 71.176C456.728 59.092 459.06 45.524 464.784 34.5C467.54 29.2 471.356 24.112 475.808 20.084C481.744 14.784 488.74 10.756 495.948 7.99999C509.304 3.336 524.144 2.276 538.136 3.75999C549.16 4.81999 560.396 8.84799 569.088 15.844C576.72 21.992 582.444 31.32 583.928 40.86C585.2 48.492 584.988 56.76 583.292 64.392C582.444 68.632 580.96 72.872 578.204 76.052C575.872 78.596 572.268 79.868 569.088 80.716C564.212 81.776 559.124 82.2 554.036 82.2C549.584 82.2 544.92 81.776 540.68 80.292C538.136 79.444 535.592 77.96 534.108 75.84C532.624 74.144 531.988 71.812 531.564 69.692C530.504 64.604 531.352 59.304 530.928 54.216C530.716 51.46 529.656 48.704 527.748 46.796C525.628 44.888 522.448 44.252 519.692 44.888C509.304 47.008 502.944 59.94 507.396 69.268C510.576 75.84 517.148 80.504 523.72 83.684C533.684 88.56 544.708 90.468 555.096 94.708C561.456 97.252 568.028 101.068 572.48 106.58C581.596 118.028 583.504 132.868 577.78 146.436C573.752 155.976 565.908 164.244 557.004 169.544C549.796 173.784 541.74 176.328 533.684 177.812ZM702.883 169.332C691.435 173.148 642.039 170.816 629.743 170.18C626.139 170.18 622.535 170.604 618.931 169.968C617.235 169.756 615.327 169.332 614.267 168.06C613.419 167.212 612.995 165.94 612.995 164.88C611.723 148.344 605.999 55.488 603.455 39.164C603.031 36.196 602.183 31.108 604.939 29.836C611.299 26.444 618.931 26.232 625.927 25.172C653.275 21.992 680.623 20.72 707.971 19.66C709.243 19.66 710.515 19.66 711.575 20.296C714.543 21.992 713.907 29.2 713.907 32.592C713.695 40.648 713.059 48.492 712.635 56.548C712.423 59.728 710.939 63.332 707.547 63.332C691.435 63.332 675.535 64.18 659.423 64.816C659.423 68.632 659.635 72.66 659.847 76.688C663.239 76.476 682.531 76.264 685.711 76.052C689.951 75.84 695.887 74.992 695.887 79.232C696.099 82.2 695.675 100.432 695.463 103.4C695.463 107.852 695.463 113.576 691.011 113.576C680.411 113.576 669.811 113.152 659.423 114C658.787 116.544 659.635 128.416 659.847 131.172C675.111 129.9 690.375 130.324 705.639 130.112C709.879 130.112 709.879 135.412 709.667 139.652C709.455 142.62 708.607 159.58 708.395 162.548C708.183 165.516 705.851 168.272 702.883 169.332ZM804.206 165.728C784.278 167 763.29 167 744.21 160.852C740.182 159.368 735.306 158.096 732.55 154.916C730.218 151.948 730.218 147.708 730.642 144.104C732.126 135.2 738.486 82.412 739.546 73.508C740.606 65.664 746.754 18.6 747.39 10.756C747.602 9.48399 747.602 8.42399 748.026 7.364C749.086 5.03199 751.842 2.91199 754.386 2.91199C763.926 2.276 808.658 5.87999 817.986 7.57599C831.342 9.90799 844.274 17.752 853.39 27.716C867.594 43.192 875.65 65.028 876.71 85.804C877.346 96.828 875.862 108.276 871.834 118.452C865.686 133.928 853.178 147.708 838.762 155.764C828.162 161.7 816.078 165.092 804.206 165.728ZM783.642 110.608C791.274 113.152 799.966 114.848 807.81 113.364C815.23 111.88 820.954 107.64 824.134 100.856C827.738 93.436 828.374 84.532 826.89 76.476C826.254 72.872 824.982 69.268 822.862 66.088C820.742 63.12 817.562 61 814.382 59.092C807.81 55.7 800.39 54.004 793.182 52.52C790.426 72.024 786.822 91.316 783.642 110.608Z"/>
</mask>
<path d="M45.516 182.9C33.644 184.596 21.56 182.264 9.9 179.72C7.78 179.084 5.448 178.236 3.964 176.752C2.268 175.268 1.42 172.936 1.208 170.604C0.784 167.212 1.208 164.032 1.42 160.64C3.116 129.9 5.872 99.372 8.84 68.844C9.688 58.456 10.748 47.856 11.808 37.468C12.232 33.864 12.232 29.836 14.14 26.656C15.412 24.536 17.956 23.264 20.076 22.628C32.584 18.812 45.728 18.388 58.66 18.176C72.016 18.176 86.22 18.6 98.516 23.476C108.48 27.504 118.02 34.5 123.32 43.616C131.164 56.76 133.284 73.72 130.74 88.984C129.044 98.736 123.956 108.488 116.748 115.272C110.812 120.572 103.392 123.964 95.76 126.084C84.524 129.052 72.44 129.264 60.992 127.568C60.356 133.504 58.448 165.092 58.448 171.028C58.448 172.936 58.872 175.268 57.812 176.964C57.176 178.66 55.48 179.932 53.784 180.568C51.24 181.84 48.272 182.476 45.516 182.9ZM58.66 89.196C65.232 90.044 72.016 91.316 78.376 90.044C82.192 89.408 86.008 87.288 87.704 84.108C91.096 77.96 92.156 66.512 87.492 61.636C83.252 57.184 68.624 56.972 62.688 57.396C60.78 67.996 59.72 78.596 58.66 89.196ZM152.762 162.972C151.914 163.396 150.642 163.608 149.794 162.972C148.522 162.124 148.098 160.216 147.886 158.52C146.19 146.648 149.582 94.708 151.914 82.624C153.398 73.72 155.73 64.816 159.334 56.548C162.514 48.916 167.39 41.708 173.538 36.408C183.502 27.716 197.07 22.204 210.214 21.568C219.754 21.144 229.506 23.9 237.986 27.928C244.134 30.896 250.282 34.712 254.522 39.8C263.638 50.612 269.362 64.392 272.542 78.172C276.57 94.92 277.418 112.728 276.994 130.112C276.782 138.592 276.57 147.284 275.298 155.764C275.086 157.46 274.874 159.156 273.814 160.216C272.542 161.488 270.422 161.912 268.514 162.124C266.182 162.336 263.85 162.124 261.306 162.124C257.702 161.912 235.654 162.76 232.05 162.548C225.478 162.124 227.386 152.796 227.174 146.224C223.57 146.012 201.098 145.8 197.494 145.588C197.494 149.404 197.07 153.432 197.494 157.248C197.706 160.216 195.374 162.548 192.194 162.336C179.898 161.276 167.602 160.64 155.518 162.548C154.458 162.76 153.61 162.548 152.762 162.972ZM200.462 87.712C198.342 95.344 197.706 103.188 197.494 111.032C207.458 110.82 217.422 110.396 227.386 110.608C227.386 104.672 227.386 98.948 226.75 93.224C226.326 87.288 225.054 81.14 222.086 75.84C220.602 73.296 218.058 70.54 215.09 70.54C207.882 70.328 202.582 80.928 200.462 87.712ZM375.951 170.604C360.475 172.512 343.303 169.544 329.947 161.488C320.407 155.976 312.139 147.072 307.263 137.108C299.419 121.42 297.299 102.976 296.451 85.38C295.391 63.968 296.239 41.496 303.235 21.144C303.871 19.66 304.719 17.752 306.203 17.116C307.687 16.268 309.595 16.692 311.291 16.904C322.951 18.812 334.823 19.448 346.695 20.084C348.179 20.084 350.087 20.296 351.571 21.144C353.267 22.416 353.903 24.96 353.691 27.08C351.783 42.768 351.147 58.668 352.207 74.356C353.055 83.472 354.327 93.012 358.355 101.28C360.263 104.884 363.019 108.488 366.623 110.608C368.955 111.88 371.923 112.728 374.679 112.304C377.223 111.88 379.767 109.972 381.463 108.064C385.067 103.188 385.915 96.616 386.551 90.468C388.883 67.36 383.371 43.616 375.739 21.356C374.467 17.54 373.831 12.876 377.647 11.604C391.003 7.364 404.783 3.54799 418.775 1.21599C421.743 0.791992 425.559 2.276 426.619 5.03199C433.191 20.72 437.007 37.68 438.915 54.64C441.247 76.264 439.763 98.948 433.191 119.724C428.739 133.716 420.683 147.496 409.235 156.824C399.907 164.456 387.823 169.12 375.951 170.604ZM533.684 177.812C518.844 180.356 502.732 179.084 488.74 173.996C482.38 171.664 476.444 168.484 471.356 164.456C461.816 156.824 460.332 138.38 465.208 127.356C467.328 122.692 470.72 117.816 475.596 116.12C481.32 114 487.892 115.908 493.828 116.968C497.008 117.392 500.188 117.816 503.156 118.452C505.912 119.3 508.88 120.572 510.152 122.904C511.848 125.66 511.848 129.264 511.424 132.444C511 134.988 511.636 138.38 513.544 140.076C517.996 143.892 526.9 143.468 531.564 140.076C534.108 138.38 535.168 134.988 535.168 132.02C535.168 127.78 532.836 123.54 529.656 120.996C521.388 114.848 510.364 114.212 500.4 111.244C488.74 107.852 476.868 102.128 468.6 93.224C463.3 87.288 459.908 79.232 458.636 71.176C456.728 59.092 459.06 45.524 464.784 34.5C467.54 29.2 471.356 24.112 475.808 20.084C481.744 14.784 488.74 10.756 495.948 7.99999C509.304 3.336 524.144 2.276 538.136 3.75999C549.16 4.81999 560.396 8.84799 569.088 15.844C576.72 21.992 582.444 31.32 583.928 40.86C585.2 48.492 584.988 56.76 583.292 64.392C582.444 68.632 580.96 72.872 578.204 76.052C575.872 78.596 572.268 79.868 569.088 80.716C564.212 81.776 559.124 82.2 554.036 82.2C549.584 82.2 544.92 81.776 540.68 80.292C538.136 79.444 535.592 77.96 534.108 75.84C532.624 74.144 531.988 71.812 531.564 69.692C530.504 64.604 531.352 59.304 530.928 54.216C530.716 51.46 529.656 48.704 527.748 46.796C525.628 44.888 522.448 44.252 519.692 44.888C509.304 47.008 502.944 59.94 507.396 69.268C510.576 75.84 517.148 80.504 523.72 83.684C533.684 88.56 544.708 90.468 555.096 94.708C561.456 97.252 568.028 101.068 572.48 106.58C581.596 118.028 583.504 132.868 577.78 146.436C573.752 155.976 565.908 164.244 557.004 169.544C549.796 173.784 541.74 176.328 533.684 177.812ZM702.883 169.332C691.435 173.148 642.039 170.816 629.743 170.18C626.139 170.18 622.535 170.604 618.931 169.968C617.235 169.756 615.327 169.332 614.267 168.06C613.419 167.212 612.995 165.94 612.995 164.88C611.723 148.344 605.999 55.488 603.455 39.164C603.031 36.196 602.183 31.108 604.939 29.836C611.299 26.444 618.931 26.232 625.927 25.172C653.275 21.992 680.623 20.72 707.971 19.66C709.243 19.66 710.515 19.66 711.575 20.296C714.543 21.992 713.907 29.2 713.907 32.592C713.695 40.648 713.059 48.492 712.635 56.548C712.423 59.728 710.939 63.332 707.547 63.332C691.435 63.332 675.535 64.18 659.423 64.816C659.423 68.632 659.635 72.66 659.847 76.688C663.239 76.476 682.531 76.264 685.711 76.052C689.951 75.84 695.887 74.992 695.887 79.232C696.099 82.2 695.675 100.432 695.463 103.4C695.463 107.852 695.463 113.576 691.011 113.576C680.411 113.576 669.811 113.152 659.423 114C658.787 116.544 659.635 128.416 659.847 131.172C675.111 129.9 690.375 130.324 705.639 130.112C709.879 130.112 709.879 135.412 709.667 139.652C709.455 142.62 708.607 159.58 708.395 162.548C708.183 165.516 705.851 168.272 702.883 169.332ZM804.206 165.728C784.278 167 763.29 167 744.21 160.852C740.182 159.368 735.306 158.096 732.55 154.916C730.218 151.948 730.218 147.708 730.642 144.104C732.126 135.2 738.486 82.412 739.546 73.508C740.606 65.664 746.754 18.6 747.39 10.756C747.602 9.48399 747.602 8.42399 748.026 7.364C749.086 5.03199 751.842 2.91199 754.386 2.91199C763.926 2.276 808.658 5.87999 817.986 7.57599C831.342 9.90799 844.274 17.752 853.39 27.716C867.594 43.192 875.65 65.028 876.71 85.804C877.346 96.828 875.862 108.276 871.834 118.452C865.686 133.928 853.178 147.708 838.762 155.764C828.162 161.7 816.078 165.092 804.206 165.728ZM783.642 110.608C791.274 113.152 799.966 114.848 807.81 113.364C815.23 111.88 820.954 107.64 824.134 100.856C827.738 93.436 828.374 84.532 826.89 76.476C826.254 72.872 824.982 69.268 822.862 66.088C820.742 63.12 817.562 61 814.382 59.092C807.81 55.7 800.39 54.004 793.182 52.52C790.426 72.024 786.822 91.316 783.642 110.608Z" fill="#FFF4D6"/>
<path d="M45.516 182.9L47.2131 194.779L47.2769 194.77L47.3407 194.76L45.516 182.9ZM9.9 179.72L6.45183 191.214L6.8925 191.346L7.342 191.444L9.9 179.72ZM3.964 176.752L12.4493 168.267L12.1668 167.984L11.8661 167.721L3.964 176.752ZM1.208 170.604L13.1587 169.518L13.1404 169.316L13.1153 169.116L1.208 170.604ZM1.42 160.64L13.3966 161.389L13.3994 161.345L13.4018 161.301L1.42 160.64ZM8.84 68.844L20.7837 70.0052L20.7927 69.9128L20.8002 69.8203L8.84 68.844ZM11.808 37.468L-0.109807 36.0659L-0.120616 36.1578L-0.130008 36.2498L11.808 37.468ZM14.14 26.656L3.85009 20.482L3.85008 20.4821L14.14 26.656ZM20.076 22.628L23.5242 34.1219L23.551 34.1139L23.5777 34.1057L20.076 22.628ZM58.66 18.176V6.17599H58.5616L58.4633 6.17761L58.66 18.176ZM98.516 23.476L103.013 12.3507L102.977 12.3357L102.94 12.3211L98.516 23.476ZM123.32 43.616L112.946 49.6474L112.98 49.7067L113.015 49.7655L123.32 43.616ZM130.74 88.984L142.563 91.0401L142.57 90.9985L142.577 90.9568L130.74 88.984ZM116.748 115.272L124.74 124.223L124.858 124.118L124.972 124.01L116.748 115.272ZM95.76 126.084L98.8247 137.686L98.8983 137.667L98.9717 137.646L95.76 126.084ZM60.992 127.568L62.7506 115.698L50.3913 113.867L49.0603 126.29L60.992 127.568ZM57.812 176.964L47.636 170.604L46.9985 171.624L46.5761 172.75L57.812 176.964ZM53.784 180.568L49.5705 169.332L48.9808 169.553L48.4174 169.835L53.784 180.568ZM58.66 89.196L46.7196 88.002L45.5592 99.6051L57.1243 101.097L58.66 89.196ZM78.376 90.044L76.4032 78.2073L76.2123 78.2391L76.0226 78.277L78.376 90.044ZM87.704 84.108L77.1971 78.3111L77.1559 78.3857L77.1158 78.4609L87.704 84.108ZM87.492 61.636L78.8023 69.9119L78.8113 69.9213L78.8203 69.9307L87.492 61.636ZM62.688 57.396L61.833 45.4265L52.53 46.091L50.8778 55.2702L62.688 57.396ZM43.8189 171.021C34.3512 172.373 24.2392 170.566 12.458 167.996L7.342 191.444C18.8808 193.962 32.9368 196.819 47.2131 194.779L43.8189 171.021ZM13.3482 168.226C12.9341 168.102 12.5964 167.993 12.3097 167.891C12.0221 167.789 11.8342 167.71 11.7222 167.658C11.6077 167.606 11.629 167.607 11.7415 167.679C11.8539 167.752 12.1192 167.937 12.4493 168.267L-4.52128 185.237C-0.658213 189.1 4.45417 190.615 6.45183 191.214L13.3482 168.226ZM11.8661 167.721C12.6262 168.386 12.9578 169.03 13.0735 169.302C13.1855 169.566 13.1705 169.647 13.1587 169.518L-10.7427 171.69C-10.3693 175.798 -8.7757 181.55 -3.93806 185.783L11.8661 167.721ZM13.1153 169.116C12.8751 167.194 13.1182 165.844 13.3966 161.389L-10.5566 159.891C-10.7022 162.22 -11.3071 167.23 -10.6993 172.092L13.1153 169.116ZM13.4018 161.301C15.0834 130.821 17.8193 100.497 20.7837 70.0052L-3.10369 67.6828C-6.07525 98.2475 -8.85144 128.979 -10.5618 159.979L13.4018 161.301ZM20.8002 69.8203C21.6374 59.5651 22.6862 49.072 23.746 38.6862L-0.130008 36.2498C-1.19023 46.64 -2.26138 57.3469 -3.12022 67.8677L20.8002 69.8203ZM23.7258 38.8701C23.852 37.7971 23.9545 36.6203 24.0283 35.8491C24.113 34.9646 24.1849 34.32 24.272 33.7658C24.4531 32.6134 24.6078 32.5334 24.4299 32.8299L3.85008 20.4821C1.76417 23.9586 0.96487 27.4826 0.562975 30.0401C0.25339 32.0102 -0.0376058 35.4522 -0.109807 36.0659L23.7258 38.8701ZM24.4299 32.8299C24.1122 33.3595 23.7871 33.7167 23.5643 33.9281C23.3445 34.1365 23.1888 34.2372 23.15 34.2615C23.1088 34.2872 23.1275 34.2716 23.2153 34.2334C23.3009 34.1962 23.4087 34.1565 23.5242 34.1219L16.6278 11.1341C13.5447 12.059 7.44273 14.4943 3.85009 20.482L24.4299 32.8299ZM23.5777 34.1057C34.2648 30.8452 45.8175 30.3881 58.8567 30.1744L58.4633 6.17761C45.6385 6.38785 30.9032 6.77873 16.5743 11.1503L23.5777 34.1057ZM58.66 30.176C72.1518 30.176 84.1893 30.7038 94.0925 34.6309L102.94 12.3211C88.2507 6.49619 71.8802 6.17599 58.66 6.17599V30.176ZM94.0185 34.6013C102.273 37.9381 109.346 43.4553 112.946 49.6474L133.694 37.5846C126.694 25.5447 114.687 17.0699 103.013 12.3507L94.0185 34.6013ZM113.015 49.7655C119.115 59.987 121.081 73.9423 118.903 87.0112L142.577 90.9568C145.487 73.4977 143.213 53.533 133.625 37.4665L113.015 49.7655ZM118.917 86.9279C117.646 94.2401 113.755 101.61 108.524 106.534L124.972 124.01C134.157 115.366 140.442 103.232 142.563 91.0401L118.917 86.9279ZM108.756 106.321C104.602 110.03 99.0261 112.722 92.5483 114.522L98.9717 137.646C107.758 135.206 117.022 131.114 124.74 124.223L108.756 106.321ZM92.6953 114.482C83.3242 116.957 72.9176 117.204 62.7506 115.698L59.2334 139.438C71.9624 141.324 85.7238 141.147 98.8247 137.686L92.6953 114.482ZM49.0603 126.29C48.3894 132.551 46.448 164.576 46.448 171.028H70.448C70.448 165.608 72.3226 134.457 72.9237 128.846L49.0603 126.29ZM46.448 171.028C46.448 171.479 46.4604 171.891 46.4729 172.219C46.4845 172.524 46.501 172.867 46.5099 173.063C46.5326 173.566 46.5328 173.716 46.5314 173.768C46.5305 173.805 46.5327 173.483 46.65 172.961C46.7739 172.409 47.0443 171.551 47.636 170.604L67.988 183.324C70.1989 179.786 70.4763 176.225 70.5236 174.383C70.5487 173.402 70.5091 172.505 70.4855 171.981C70.4553 171.313 70.448 171.161 70.448 171.028H46.448ZM46.5761 172.75C47.1375 171.253 47.979 170.399 48.4139 170.029C48.8614 169.647 49.2513 169.452 49.5705 169.332L57.9975 191.804C61.511 190.486 66.7462 187.316 69.0479 181.178L46.5761 172.75ZM48.4174 169.835C47.5958 170.246 46.1407 170.663 43.6913 171.04L47.3407 194.76C50.4033 194.289 54.8842 193.434 59.1506 191.301L48.4174 169.835ZM57.1243 101.097C62.5169 101.793 71.9067 103.576 80.7294 101.811L76.0226 78.277C72.1253 79.0565 67.9471 78.2949 60.1957 77.2947L57.1243 101.097ZM80.3488 101.881C86.461 100.862 94.274 97.2893 98.2922 89.7551L77.1158 78.4609C77.3108 78.0952 77.4995 77.8852 77.5824 77.8023C77.6631 77.7216 77.67 77.734 77.5643 77.7988C77.4604 77.8624 77.2942 77.948 77.0714 78.0297C76.8495 78.1112 76.6188 78.1713 76.4032 78.2073L80.3488 101.881ZM98.2109 89.9049C100.987 84.8733 102.47 78.5245 102.615 72.6949C102.75 67.2862 101.792 59.2253 96.1637 53.3413L78.8203 69.9307C78.2249 69.3083 78.2457 68.9559 78.3888 69.4832C78.5232 69.9783 78.6536 70.8612 78.6228 72.0951C78.5565 74.7455 77.813 77.1947 77.1971 78.3111L98.2109 89.9049ZM96.1817 53.3601C93.0197 50.0401 88.98 48.4316 86.2186 47.5747C83.1803 46.632 79.96 46.0893 77.0723 45.7633C71.2985 45.1114 65.4106 45.171 61.833 45.4265L63.543 69.3655C65.9015 69.197 70.2955 69.1506 74.3797 69.6117C76.421 69.8422 78.0237 70.1608 79.1062 70.4966C80.4655 70.9184 79.8443 71.0059 78.8023 69.9119L96.1817 53.3601ZM50.8778 55.2702C48.8727 66.4095 47.7721 77.4765 46.7196 88.002L70.6004 90.39C71.6679 79.7155 72.6873 69.5825 74.4982 59.5218L50.8778 55.2702ZM149.794 162.972L156.993 153.372L156.727 153.172L156.45 152.987L149.794 162.972ZM147.886 158.52L159.793 157.032L159.78 156.927L159.765 156.823L147.886 158.52ZM151.914 82.624L163.696 84.8978L163.725 84.7477L163.75 84.5968L151.914 82.624ZM159.334 56.548L170.334 61.343L170.373 61.2535L170.41 61.1634L159.334 56.548ZM173.538 36.408L181.373 45.4969L181.399 45.4739L181.426 45.4508L173.538 36.408ZM210.214 21.568L209.681 9.57982L209.657 9.58087L209.634 9.58201L210.214 21.568ZM237.986 27.928L243.202 17.1214L243.168 17.1049L243.134 17.0887L237.986 27.928ZM254.522 39.8L245.303 47.4822L245.325 47.5088L245.347 47.5352L254.522 39.8ZM272.542 78.172L260.849 80.8703L260.861 80.9242L260.874 80.9781L272.542 78.172ZM276.993 130.112L288.99 130.412L288.99 130.405L276.993 130.112ZM275.298 155.764L263.43 153.984L263.408 154.129L263.39 154.276L275.298 155.764ZM273.814 160.216L265.328 151.731L273.814 160.216ZM268.514 162.124L269.6 174.075L269.719 174.064L269.839 174.051L268.514 162.124ZM261.306 162.124L260.601 174.103L260.953 174.124H261.306V162.124ZM232.05 162.548L231.277 174.523L231.311 174.525L231.345 174.527L232.05 162.548ZM227.174 146.224L239.167 145.837L238.814 134.888L227.878 134.245L227.174 146.224ZM197.493 145.588L198.198 133.609L185.493 132.861V145.588H197.493ZM197.493 157.248L209.463 156.393L209.446 156.158L209.42 155.923L197.493 157.248ZM192.194 162.336L191.163 174.292L191.279 174.302L191.395 174.309L192.194 162.336ZM155.518 162.548L153.646 150.695L153.404 150.733L153.164 150.781L155.518 162.548ZM200.462 87.712L189.008 84.1327L188.951 84.3156L188.899 84.5003L200.462 87.712ZM197.493 111.032L185.498 110.708L185.158 123.297L197.749 123.029L197.493 111.032ZM227.386 110.608L227.13 122.605L239.386 122.866V110.608H227.386ZM226.75 93.224L214.78 94.079L214.797 94.3145L214.823 94.5492L226.75 93.224ZM222.086 75.84L232.556 69.9767L232.504 69.8847L232.451 69.7936L222.086 75.84ZM215.09 70.54L214.737 82.5348L214.913 82.54H215.09V70.54ZM147.395 152.239C148.264 151.805 149.347 151.451 150.678 151.384C152.004 151.318 154.522 151.518 156.993 153.372L142.594 172.572C145.913 175.062 149.491 175.474 151.877 175.355C154.268 175.235 156.411 174.563 158.128 173.705L147.395 152.239ZM156.45 152.987C158.779 154.54 159.554 156.512 159.709 156.933C159.887 157.42 159.862 157.583 159.793 157.032L135.978 160.008C136.121 161.153 136.414 163.118 137.175 165.195C137.913 167.206 139.536 170.556 143.137 172.957L156.45 152.987ZM159.765 156.823C159.496 154.938 159.352 150.385 159.47 143.559C159.582 137.042 159.911 129.231 160.369 121.347C161.304 105.241 162.706 90.0293 163.696 84.8978L140.131 80.3502C138.789 87.3027 137.329 104.103 136.409 119.956C135.939 128.052 135.593 136.206 135.473 143.145C135.359 149.775 135.427 156.166 136.006 160.217L159.765 156.823ZM163.75 84.5968C165.118 76.3894 167.221 68.4842 170.334 61.343L148.333 51.753C144.238 61.1478 141.677 71.0506 140.077 80.6512L163.75 84.5968ZM170.41 61.1634C172.99 54.9724 176.853 49.3933 181.373 45.4969L165.702 27.3191C157.926 34.0227 152.037 42.8595 148.257 51.9326L170.41 61.1634ZM181.426 45.4508C189.38 38.5118 200.382 34.0578 210.793 33.554L209.634 9.58201C193.757 10.3502 177.623 16.9202 165.649 27.3652L181.426 45.4508ZM210.746 33.5562C217.738 33.2454 225.505 35.2849 232.837 38.7673L243.134 17.0887C233.506 12.515 221.769 9.04256 209.681 9.57982L210.746 33.5562ZM232.769 38.7346C238.341 41.425 242.684 44.3391 245.303 47.4822L263.74 32.1178C257.879 25.0849 249.926 20.367 243.202 17.1214L232.769 38.7346ZM245.347 47.5352C252.879 56.4683 257.952 68.3174 260.849 80.8703L284.234 75.4737C280.771 60.4665 274.396 44.7557 263.696 32.0648L245.347 47.5352ZM260.874 80.9781C264.558 96.2955 265.409 112.939 264.997 129.819L288.99 130.405C289.426 112.517 288.581 93.5445 284.209 75.3659L260.874 80.9781ZM264.997 129.812C264.782 138.428 264.573 146.366 263.43 153.984L287.165 157.544C288.566 148.202 288.781 138.756 288.99 130.412L264.997 129.812ZM263.39 154.276C263.333 154.736 263.304 154.954 263.276 155.13C263.25 155.291 263.253 155.227 263.306 155.037C263.395 154.712 263.843 153.216 265.328 151.731L282.299 168.701C284.844 166.156 285.928 163.282 286.441 161.42C286.927 159.658 287.123 157.91 287.205 157.252L263.39 154.276ZM265.328 151.731C265.955 151.104 266.554 150.713 266.977 150.483C267.392 150.257 267.695 150.154 267.804 150.12C267.962 150.07 267.841 150.125 267.188 150.197L269.839 174.051C271.551 173.86 277.737 173.263 282.299 168.701L265.328 151.731ZM267.427 150.173C265.731 150.327 265.373 150.124 261.306 150.124V174.124C262.326 174.124 266.632 174.345 269.6 174.075L267.427 150.173ZM262.01 150.145C259.55 150 252.344 150.192 246.38 150.34C243.16 150.42 240.001 150.498 237.423 150.543C236.133 150.566 235.03 150.58 234.162 150.582C233.729 150.583 233.381 150.581 233.115 150.577C232.826 150.573 232.727 150.567 232.754 150.569L231.345 174.527C233.805 174.672 241.011 174.48 246.975 174.332C250.195 174.252 253.354 174.174 255.932 174.129C257.222 174.106 258.325 174.092 259.193 174.09C259.626 174.089 259.974 174.091 260.24 174.095C260.529 174.099 260.628 174.105 260.601 174.103L262.01 150.145ZM232.822 150.573C233.451 150.613 234.473 150.799 235.618 151.411C236.786 152.036 237.672 152.885 238.274 153.718C239.299 155.138 239.243 156.141 239.147 155.312C239.068 154.633 239.051 153.59 239.097 151.796C239.134 150.326 239.235 147.939 239.167 145.837L215.18 146.611C215.218 147.795 215.16 149.039 215.105 151.179C215.058 152.995 215.014 155.544 215.306 158.071C215.581 160.448 216.293 164.274 218.816 167.767C221.805 171.908 226.312 174.203 231.277 174.523L232.822 150.573ZM227.878 134.245C225.742 134.119 218.818 134.01 212.529 133.908C205.78 133.798 199.666 133.695 198.198 133.609L196.789 157.567C198.925 157.693 205.849 157.802 212.138 157.904C218.887 158.014 225.001 158.117 226.469 158.203L227.878 134.245ZM185.493 145.588C185.493 147.309 185.405 148.665 185.339 151.094C185.282 153.209 185.262 155.829 185.567 158.573L209.42 155.923C209.301 154.851 209.281 153.549 209.33 151.742C209.37 150.249 209.493 147.683 209.493 145.588H185.493ZM185.524 158.103C185.382 156.12 186.122 153.964 187.751 152.381C189.375 150.801 191.387 150.256 192.992 150.363L191.395 174.309C201.439 174.979 210.222 167.023 209.463 156.393L185.524 158.103ZM193.224 150.38C180.793 149.309 167.263 148.545 153.646 150.695L157.389 174.401C167.94 172.735 179.002 173.243 191.163 174.292L193.224 150.38ZM153.164 150.781C153.579 150.698 153.879 150.676 153.939 150.672C153.96 150.671 153.954 150.671 153.849 150.676C153.782 150.679 153.564 150.689 153.355 150.701C152.484 150.752 150.059 150.907 147.395 152.239L158.128 173.705C157.692 173.923 157.262 174.097 156.848 174.234C156.437 174.37 156.066 174.461 155.754 174.524C155.446 174.585 155.196 174.618 155.032 174.636C154.873 174.654 154.768 174.66 154.765 174.66C154.761 174.66 154.771 174.659 154.805 174.658C154.849 174.656 154.877 174.654 154.958 174.651C155.085 174.645 155.316 174.634 155.579 174.616C156.123 174.579 156.926 174.504 157.871 174.315L153.164 150.781ZM188.899 84.5003C186.392 93.5266 185.72 102.508 185.498 110.708L209.489 111.356C209.692 103.868 210.291 97.1614 212.024 90.9237L188.899 84.5003ZM197.749 123.029C208.053 122.81 217.507 122.401 227.13 122.605L227.641 98.6107C217.336 98.3915 206.862 98.83 197.238 99.0347L197.749 123.029ZM239.386 110.608C239.386 104.787 239.398 98.3945 238.676 91.8988L214.823 94.5492C215.373 99.5014 215.386 104.557 215.386 110.608H239.386ZM238.719 92.369C238.226 85.46 236.702 77.3805 232.556 69.9767L211.615 81.7033C213.405 84.8995 214.426 89.116 214.78 94.079L238.719 92.369ZM232.451 69.7936C231.223 67.6894 229.395 65.1866 226.886 63.0676C224.419 60.9845 220.389 58.54 215.09 58.54V82.54C212.758 82.54 211.484 81.4735 211.402 81.4044C211.278 81.2994 211.464 81.4465 211.72 81.8864L232.451 69.7936ZM215.442 58.5452C205.568 58.2548 199.179 65.2405 196.118 69.5065C192.655 74.3326 190.314 79.9515 189.008 84.1327L211.915 91.2913C212.729 88.6885 214.098 85.6154 215.617 83.4985C215.966 83.0123 216.271 82.6507 216.515 82.3954C216.635 82.2705 216.73 82.1816 216.799 82.1221C216.867 82.0626 216.901 82.0396 216.897 82.0422C216.872 82.0599 216.082 82.5744 214.737 82.5348L215.442 58.5452ZM375.951 170.604L377.419 182.514L377.43 182.513L377.44 182.511L375.951 170.604ZM329.947 161.488L336.145 151.213L336.048 151.154L335.95 151.098L329.947 161.488ZM307.263 137.108L318.042 131.833L318.019 131.787L317.996 131.741L307.263 137.108ZM296.451 85.38L308.437 84.8024L308.437 84.7945L308.436 84.7867L296.451 85.38ZM303.235 21.144L292.205 16.417L292.031 16.8241L291.887 17.243L303.235 21.144ZM306.203 17.116L310.93 28.1458L311.561 27.8754L312.157 27.5349L306.203 17.116ZM311.291 16.904L313.229 5.0615L313.005 5.02484L312.78 4.99667L311.291 16.904ZM346.695 20.084L346.053 32.0668L346.374 32.084H346.695V20.084ZM351.571 21.144L358.771 11.544L358.173 11.0957L357.525 10.7251L351.571 21.144ZM353.691 27.08L365.603 28.5288L365.619 28.4016L365.632 28.274L353.691 27.08ZM352.207 74.356L340.234 75.165L340.245 75.3164L340.259 75.4675L352.207 74.356ZM358.355 101.28L347.567 106.536L347.655 106.717L347.75 106.895L358.355 101.28ZM366.623 110.608L360.539 120.951L360.706 121.05L360.877 121.143L366.623 110.608ZM374.679 112.304L376.504 124.164L376.578 124.153L376.652 124.141L374.679 112.304ZM381.463 108.064L390.432 116.036L390.792 115.632L391.113 115.197L381.463 108.064ZM386.551 90.468L398.487 91.7028L398.489 91.6878L398.491 91.6729L386.551 90.468ZM375.739 21.356L364.355 25.1507L364.371 25.1994L364.388 25.2479L375.739 21.356ZM377.647 11.604L374.016 0.1665L373.934 0.192554L373.852 0.219788L377.647 11.604ZM418.775 1.21599L417.078 -10.6634L416.94 -10.6437L416.802 -10.6207L418.775 1.21599ZM426.619 5.03199L415.419 9.33979L415.483 9.50517L415.551 9.6686L426.619 5.03199ZM438.915 54.64L450.846 53.3533L450.843 53.3259L450.84 53.2985L438.915 54.64ZM433.191 119.724L444.626 123.362L444.629 123.353L444.632 123.343L433.191 119.724ZM409.235 156.824L401.655 147.521L401.646 147.529L401.636 147.537L409.235 156.824ZM374.483 158.694C361.309 160.318 346.905 157.703 336.145 151.213L323.749 171.763C339.701 181.385 359.642 184.706 377.419 182.514L374.483 158.694ZM335.95 151.098C328.502 146.794 321.883 139.684 318.042 131.833L296.485 142.383C302.395 154.46 312.312 165.158 323.944 171.878L335.95 151.098ZM317.996 131.741C311.342 118.433 309.273 102.144 308.437 84.8024L284.465 85.9576C285.325 103.808 287.496 124.407 296.53 142.475L317.996 131.741ZM308.436 84.7867C307.403 63.9184 308.326 43.2488 314.583 25.045L291.887 17.243C284.152 39.7432 283.379 64.0176 284.466 85.9733L308.436 84.7867ZM314.265 25.871C314.42 25.5092 314.499 25.3308 314.563 25.2C314.624 25.0734 314.602 25.1346 314.495 25.3011C314.394 25.4592 314.109 25.8799 313.592 26.3851C313.062 26.9038 312.189 27.6065 310.93 28.1458L301.476 6.08624C297.556 7.76643 295.352 10.6969 294.307 12.3229C293.216 14.0207 292.492 15.7486 292.205 16.417L314.265 25.871ZM312.157 27.5349C310.177 28.666 308.488 28.6126 308.304 28.607C308.174 28.6031 308.178 28.5946 308.468 28.6316C308.609 28.6497 308.759 28.6704 308.994 28.7031C309.203 28.7322 309.497 28.7731 309.803 28.8113L312.78 4.99667C312.768 4.99524 310.657 4.66727 309.031 4.618C307.098 4.55942 303.713 4.71803 300.249 6.69708L312.157 27.5349ZM309.353 28.7465C321.766 30.7776 334.294 31.4368 346.053 32.0668L347.337 8.10118C335.353 7.45914 324.136 6.84634 313.229 5.0615L309.353 28.7465ZM346.695 32.084C346.904 32.084 346.983 32.102 346.922 32.0905C346.879 32.0825 346.746 32.0554 346.542 31.9864C346.339 31.9176 346.015 31.7899 345.617 31.5629L357.525 10.7251C353.311 8.31705 348.868 8.084 346.695 8.084V32.084ZM344.371 30.744C342.724 29.5084 342.126 28.0918 341.934 27.503C341.733 26.8843 341.702 26.373 341.751 25.886L365.632 28.274C366.064 23.952 365.159 16.3352 358.771 11.544L344.371 30.744ZM341.779 25.6312C339.793 41.9565 339.117 58.6196 340.234 75.165L364.18 73.547C363.178 58.7164 363.773 43.5795 365.603 28.5288L341.779 25.6312ZM340.259 75.4675C341.11 84.6216 342.493 96.1209 347.567 106.536L369.143 96.0244C366.161 89.9031 365 82.3224 364.156 73.2445L340.259 75.4675ZM347.75 106.895C350.209 111.54 354.284 117.272 360.539 120.951L372.707 100.265C371.754 99.7043 370.317 98.2275 368.961 95.6654L347.75 106.895ZM360.877 121.143C364.664 123.209 370.326 125.115 376.504 124.164L372.854 100.444C373.077 100.409 373.219 100.413 373.264 100.416C373.308 100.418 373.283 100.421 373.19 100.399C373.099 100.378 372.971 100.341 372.816 100.281C372.662 100.221 372.509 100.15 372.369 100.073L360.877 121.143ZM376.652 124.141C383.062 123.072 387.891 118.895 390.432 116.036L372.494 100.092C372.395 100.204 372.268 100.331 372.127 100.455C371.985 100.58 371.866 100.668 371.785 100.721C371.702 100.776 371.711 100.76 371.826 100.71C371.937 100.662 372.235 100.546 372.706 100.467L376.652 124.141ZM391.113 115.197C396.961 107.285 397.902 97.363 398.487 91.7028L374.615 89.2332C373.928 95.869 373.173 99.0913 371.813 100.931L391.113 115.197ZM398.491 91.6729C401.08 66.0102 394.927 40.3209 387.09 17.4641L364.388 25.2479C371.815 46.9111 376.686 68.7098 374.612 89.2631L398.491 91.6729ZM387.123 17.5613C386.933 16.9907 386.825 16.5571 386.774 16.2754C386.717 15.955 386.781 16.097 386.739 16.5807C386.696 17.0687 386.498 18.3762 385.5 19.8515C384.387 21.4958 382.837 22.5233 381.442 22.9882L373.852 0.219788C370.55 1.3207 367.647 3.40818 365.621 6.40402C363.709 9.23082 363.034 12.1813 362.832 14.4713C362.453 18.7609 363.562 22.7706 364.355 25.1507L387.123 17.5613ZM381.278 23.0415C394.38 18.8822 407.553 15.2519 420.748 13.0527L416.802 -10.6207C402.014 -8.15594 387.626 -4.15419 374.016 0.1665L381.278 23.0415ZM420.472 13.0954C419.508 13.2331 418.9 13.0619 418.447 12.8559C418.062 12.6811 416.367 11.8042 415.419 9.33979L437.819 0.724182C435.811 -4.49625 431.678 -7.49308 428.378 -8.9929C425.01 -10.5239 421.01 -11.2252 417.078 -10.6634L420.472 13.0954ZM415.551 9.6686C421.583 24.0675 425.178 39.8676 426.99 55.9815L450.84 53.2985C448.837 35.4924 444.799 17.3725 437.687 0.395378L415.551 9.6686ZM426.984 55.9267C429.17 76.1959 427.738 97.1744 421.75 116.105L444.632 123.343C451.788 100.722 453.324 76.3321 450.846 53.3533L426.984 55.9267ZM421.756 116.086C417.818 128.462 410.857 140.023 401.655 147.521L416.815 166.127C430.509 154.969 439.66 138.97 444.626 123.362L421.756 116.086ZM401.636 147.537C394.293 153.544 384.414 157.453 374.463 158.697L377.44 182.511C391.232 180.787 405.521 175.368 416.834 166.111L401.636 147.537ZM533.684 177.812L535.712 189.639L535.785 189.627L535.858 189.613L533.684 177.812ZM488.74 173.996L484.609 185.263L484.624 185.268L484.639 185.274L488.74 173.996ZM471.356 164.456L463.86 173.826L463.884 173.846L463.908 173.865L471.356 164.456ZM465.208 127.356L454.284 122.39L454.258 122.446L454.234 122.502L465.208 127.356ZM475.596 116.12L479.538 127.454L479.652 127.415L479.764 127.373L475.596 116.12ZM493.828 116.968L491.719 128.781L491.979 128.828L492.242 128.863L493.828 116.968ZM503.156 118.452L506.685 106.983L506.184 106.828L505.67 106.718L503.156 118.452ZM510.152 122.904L499.617 128.65L499.768 128.926L499.932 129.193L510.152 122.904ZM511.424 132.444L523.261 134.417L523.293 134.224L523.319 134.03L511.424 132.444ZM513.544 140.076L505.572 149.045L505.653 149.117L505.735 149.187L513.544 140.076ZM531.564 140.076L524.908 130.091L524.704 130.227L524.506 130.371L531.564 140.076ZM529.656 120.996L537.152 111.626L536.987 111.493L536.817 111.366L529.656 120.996ZM500.4 111.244L503.826 99.7434L503.789 99.7324L503.752 99.7216L500.4 111.244ZM468.6 93.224L459.649 101.216L459.727 101.304L459.807 101.389L468.6 93.224ZM458.636 71.176L446.783 73.0475L458.636 71.176ZM464.784 34.5L454.137 28.9638L454.134 28.9702L464.784 34.5ZM475.808 20.084L467.816 11.1327L467.786 11.1591L467.757 11.1856L475.808 20.084ZM495.948 7.99999L491.992 -3.32912L491.826 -3.27128L491.662 -3.20863L495.948 7.99999ZM538.136 3.75999L536.87 15.6931L536.929 15.6993L536.988 15.7049L538.136 3.75999ZM569.088 15.844L576.616 6.49895L576.612 6.49585L569.088 15.844ZM583.928 40.86L572.071 42.7045L572.081 42.7687L572.091 42.8328L583.928 40.86ZM583.292 64.392L571.578 61.7888L571.55 61.9134L571.525 62.0386L583.292 64.392ZM578.204 76.052L587.05 84.1607L587.163 84.0375L587.272 83.9112L578.204 76.052ZM569.088 80.716L571.637 92.4421L571.91 92.3828L572.18 92.3108L569.088 80.716ZM540.68 80.292L544.644 68.9657L544.56 68.9361L544.475 68.9078L540.68 80.292ZM534.108 75.84L543.939 68.9584L543.567 68.4266L543.139 67.9379L534.108 75.84ZM531.564 69.692L543.331 67.3386L543.322 67.2915L543.312 67.2445L531.564 69.692ZM530.928 54.216L518.963 55.1363L518.966 55.1745L518.97 55.2125L530.928 54.216ZM527.748 46.796L536.233 38.3107L536.01 38.0876L535.776 37.8765L527.748 46.796ZM519.692 44.888L522.092 56.6456L522.241 56.6151L522.39 56.5807L519.692 44.888ZM507.396 69.268L496.566 74.4368L496.58 74.4658L496.594 74.4947L507.396 69.268ZM523.72 83.684L528.995 72.9054L528.971 72.8937L528.947 72.8821L523.72 83.684ZM555.096 94.708L550.561 105.818L550.6 105.834L550.639 105.85L555.096 94.708ZM572.48 106.58L581.867 99.1049L581.842 99.0723L581.815 99.0399L572.48 106.58ZM577.78 146.436L588.835 151.104L588.836 151.1L577.78 146.436ZM557.004 169.544L563.088 179.887L563.115 179.871L563.142 179.856L557.004 169.544ZM531.657 165.985C518.768 168.194 504.775 167.058 492.841 162.718L484.639 185.274C500.689 191.11 518.921 192.518 535.712 189.639L531.657 165.985ZM492.871 162.729C487.532 160.772 482.755 158.175 478.805 155.047L463.908 173.865C470.133 178.793 477.228 182.556 484.609 185.263L492.871 162.729ZM478.852 155.086C477.399 153.923 475.493 150.844 474.764 145.544C474.058 140.403 474.797 135.343 476.183 132.21L454.234 122.502C450.744 130.393 449.786 140.067 450.988 148.812C452.168 157.398 455.773 167.357 463.86 173.826L478.852 155.086ZM476.132 132.322C476.879 130.68 477.702 129.343 478.488 128.425C479.277 127.502 479.673 127.407 479.538 127.454L471.654 104.786C461.941 108.164 456.744 116.978 454.284 122.39L476.132 132.322ZM479.764 127.373C480.131 127.237 481.077 127.03 483.307 127.278C484.389 127.398 485.584 127.601 487.024 127.876C488.263 128.113 490.173 128.505 491.719 128.781L495.938 105.155C493.917 104.794 489.547 103.824 485.958 103.425C481.987 102.984 476.785 102.883 471.428 104.867L479.764 127.373ZM492.242 128.863C495.52 129.3 498.218 129.666 500.642 130.186L505.67 106.718C502.158 105.966 498.497 105.484 495.414 105.073L492.242 128.863ZM499.627 129.921C500.099 130.067 500.472 130.197 500.767 130.315C501.066 130.435 501.207 130.512 501.233 130.527C501.263 130.544 501.075 130.442 500.783 130.173C500.479 129.893 500.025 129.398 499.617 128.65L520.687 117.158C518.612 113.355 515.528 111.061 513.188 109.716C510.82 108.356 508.42 107.516 506.685 106.983L499.627 129.921ZM499.932 129.193C499.555 128.58 499.599 128.263 499.639 128.671C499.679 129.083 499.671 129.793 499.529 130.858L523.319 134.03C523.815 130.312 524.361 123.097 520.372 116.615L499.932 129.193ZM499.587 130.471C499.098 133.407 499.234 136.553 499.968 139.488C500.677 142.326 502.235 146.079 505.572 149.045L521.516 131.107C522.269 131.776 522.693 132.427 522.912 132.833C523.132 133.241 523.219 133.537 523.251 133.668C523.296 133.847 523.326 134.025 523.261 134.417L499.587 130.471ZM505.735 149.187C510.953 153.66 517.57 154.858 522.664 154.778C527.839 154.696 533.816 153.277 538.622 149.781L524.506 130.371C524.667 130.254 524.548 130.377 524.033 130.528C523.545 130.671 522.929 130.77 522.286 130.78C521.635 130.791 521.163 130.707 520.918 130.636C520.658 130.561 520.9 130.576 521.354 130.965L505.735 149.187ZM538.221 150.061C545.524 145.191 547.168 136.922 547.168 132.02H523.168C523.168 132.167 523.128 132.191 523.207 131.997C523.289 131.796 523.709 130.891 524.908 130.091L538.221 150.061ZM547.168 132.02C547.168 123.674 542.799 116.143 537.152 111.626L522.16 130.366C522.375 130.538 522.692 130.891 522.931 131.357C523.17 131.82 523.168 132.073 523.168 132.02H547.168ZM536.817 111.366C530.823 106.91 524.22 104.741 518.661 103.308C515.897 102.595 513.042 101.984 510.63 101.444C508.098 100.878 505.888 100.358 503.826 99.7434L496.974 122.745C499.894 123.614 502.799 124.286 505.395 124.866C508.11 125.473 510.396 125.962 512.667 126.547C517.179 127.711 520.221 128.934 522.496 130.626L536.817 111.366ZM503.752 99.7216C493.217 96.6569 483.628 91.7722 477.394 85.0586L459.807 101.389C470.109 112.484 484.263 119.047 497.048 122.766L503.752 99.7216ZM477.551 85.2318C474.054 81.3146 471.47 75.516 470.489 69.3044L446.783 73.0475C448.346 82.948 452.546 93.2614 459.649 101.216L477.551 85.2318ZM470.489 69.3044C468.997 59.8524 470.844 48.8697 475.434 40.0298L454.134 28.9702C447.276 42.1783 444.459 58.3316 446.783 73.0475L470.489 69.3044ZM475.431 40.0362C477.582 35.8992 480.548 31.9779 483.859 28.9824L467.757 11.1856C462.164 16.2461 457.498 22.5008 454.137 28.9638L475.431 40.0362ZM483.8 29.0352C488.516 24.8245 494.213 21.5108 500.234 19.2086L491.662 -3.20863C483.268 0.00114441 474.972 4.74344 467.816 11.1327L483.8 29.0352ZM499.904 19.3291C511.255 15.3653 524.257 14.3553 536.87 15.6931L539.402 -8.17308C524.031 -9.80332 507.353 -8.69332 491.992 -3.32912L499.904 19.3291ZM536.988 15.7049C546.057 16.577 554.973 19.8874 561.564 25.1921L576.612 6.49585C565.819 -2.19144 552.263 -6.93698 539.285 -8.18492L536.988 15.7049ZM561.56 25.189C567.084 29.6388 571.087 36.3822 572.071 42.7045L595.786 39.0155C593.801 26.2577 586.356 14.3452 576.616 6.49895L561.56 25.189ZM572.091 42.8328C573.11 48.9473 572.939 55.6617 571.578 61.7888L595.006 66.9952C597.037 57.8582 597.29 48.0367 595.765 38.8872L572.091 42.8328ZM571.525 62.0386C570.853 65.4001 569.923 67.2844 569.136 68.1928L587.272 83.9112C591.997 78.4595 594.035 71.8639 595.059 66.7454L571.525 62.0386ZM569.358 67.9433C569.58 67.7011 569.565 67.8307 568.889 68.1458C568.219 68.4589 567.29 68.7762 565.996 69.1212L572.18 92.3108C575.512 91.4224 582.182 89.4716 587.05 84.1607L569.358 67.9433ZM566.539 68.9899C562.687 69.8273 558.481 70.2 554.036 70.2V94.2C559.767 94.2 565.738 93.7247 571.637 92.4421L566.539 68.9899ZM554.036 70.2C550.216 70.2 547.074 69.8161 544.644 68.9657L536.716 91.6183C542.766 93.7359 548.952 94.2 554.036 94.2V70.2ZM544.475 68.9078C544.262 68.8368 544.067 68.7582 543.898 68.6789C543.729 68.5992 543.612 68.5309 543.545 68.487C543.476 68.4424 543.487 68.4414 543.553 68.5023C543.619 68.5637 543.765 68.7099 543.939 68.9584L524.277 82.7215C527.794 87.7455 533.014 90.3859 536.885 91.6762L544.475 68.9078ZM543.139 67.9379C543.386 68.2206 543.535 68.4572 543.611 68.5923C543.684 68.7238 543.699 68.7763 543.675 68.7115C543.65 68.6465 543.603 68.5065 543.539 68.265C543.476 68.0231 543.408 67.7251 543.331 67.3386L519.797 72.0454C520.25 74.3117 521.332 79.4617 525.077 83.7421L543.139 67.9379ZM543.312 67.2445C543.062 66.0461 542.982 64.544 543.007 62.0764C543.028 59.9922 543.16 56.4982 542.887 53.2195L518.97 55.2125C519.12 57.0218 519.04 58.7218 519.008 61.8316C518.98 64.558 519.006 68.2499 519.816 72.1394L543.312 67.2445ZM542.893 53.2957C542.511 48.331 540.583 42.6605 536.233 38.3107L519.263 55.2813C519.111 55.1298 519.017 55.0017 518.964 54.9208C518.912 54.8408 518.895 54.7982 518.897 54.8034C518.899 54.8085 518.914 54.8446 518.929 54.9107C518.945 54.9766 518.957 55.0542 518.963 55.1363L542.893 53.2957ZM535.776 37.8765C530.352 32.9948 523.015 31.8059 516.994 33.1953L522.39 56.5807C521.976 56.6763 521.632 56.6649 521.309 56.5918C520.981 56.5175 520.378 56.3073 519.721 55.7155L535.776 37.8765ZM517.293 33.1303C507.81 35.0656 500.891 41.7184 497.246 49.0084C493.613 56.2738 492.434 65.7794 496.566 74.4368L518.226 64.0992C517.906 63.4286 517.681 61.8042 518.712 59.7416C519.731 57.7036 521.186 56.8304 522.092 56.6456L517.293 33.1303ZM496.594 74.4947C501.532 84.7006 511.049 90.8837 518.493 94.4859L528.947 72.8821C523.247 70.1243 519.62 66.9794 518.198 64.0413L496.594 74.4947ZM518.445 94.4626C524.363 97.3583 530.417 99.2863 535.748 100.912C541.332 102.616 546.01 103.96 550.561 105.818L559.631 83.5978C553.794 81.2155 547.766 79.4863 542.75 77.9565C537.482 76.3496 533.041 74.8857 528.995 72.9054L518.445 94.4626ZM550.639 105.85C556.046 108.012 560.504 110.851 563.145 114.12L581.815 99.0399C575.552 91.2852 566.866 86.4916 559.553 83.5663L550.639 105.85ZM563.093 114.055C569.408 121.986 570.781 132.154 566.724 141.772L588.836 151.1C596.227 133.582 593.784 114.07 581.867 99.1049L563.093 114.055ZM566.725 141.768C563.837 148.61 557.913 155.038 550.866 159.232L563.142 179.856C573.904 173.45 583.668 163.342 588.835 151.104L566.725 141.768ZM550.92 159.201C545.247 162.538 538.617 164.701 531.51 166.011L535.858 189.613C544.863 187.955 554.346 185.03 563.088 179.887L550.92 159.201ZM702.883 169.332L706.678 180.716L706.799 180.676L706.919 180.633L702.883 169.332ZM629.743 170.18L630.363 158.196L630.053 158.18H629.743V170.18ZM618.931 169.968L621.017 158.151L620.719 158.098L620.42 158.061L618.931 169.968ZM614.267 168.06L623.486 160.378L623.138 159.96L622.753 159.575L614.267 168.06ZM612.995 164.88H624.995V164.419L624.96 163.96L612.995 164.88ZM603.455 39.164L591.576 40.861L591.587 40.9365L591.598 41.0118L603.455 39.164ZM604.939 29.836L609.968 40.7315L610.282 40.5868L610.586 40.4242L604.939 29.836ZM625.927 25.172L624.541 13.2523L624.335 13.2763L624.13 13.3074L625.927 25.172ZM707.971 19.66V7.65999H707.739L707.507 7.66899L707.971 19.66ZM711.575 20.296L705.401 30.5859L705.511 30.6516L705.622 30.7149L711.575 20.296ZM713.907 32.592L725.903 32.9077L725.907 32.7499V32.592H713.907ZM712.635 56.548L724.609 57.3462L724.614 57.2625L724.619 57.1787L712.635 56.548ZM659.423 64.816L658.95 52.8253L647.423 53.2803V64.816H659.423ZM659.847 76.688L647.864 77.3187L648.501 89.4205L660.596 88.6646L659.847 76.688ZM685.711 76.052L685.112 64.067L685.013 64.0719L684.913 64.0786L685.711 76.052ZM695.887 79.232H683.887V79.66L683.918 80.0869L695.887 79.232ZM695.463 103.4L683.494 102.545L683.463 102.972V103.4H695.463ZM659.423 114L658.447 102.04L649.869 102.74L647.782 111.09L659.423 114ZM659.847 131.172L647.883 132.092L648.809 144.133L660.844 143.131L659.847 131.172ZM705.639 130.112V118.112H705.556L705.473 118.113L705.639 130.112ZM709.667 139.652L721.637 140.507L721.646 140.379L721.652 140.251L709.667 139.652ZM708.395 162.548L696.426 161.693L708.395 162.548ZM699.089 157.948C698.019 158.304 694.386 158.861 687.781 159.178C681.691 159.469 674.328 159.518 666.777 159.426C651.7 159.244 636.465 158.512 630.363 158.196L629.123 182.164C635.317 182.484 650.928 183.236 666.486 183.425C674.252 183.519 682.153 183.475 688.929 183.15C695.189 182.85 702.024 182.268 706.678 180.716L699.089 157.948ZM629.743 158.18C624.248 158.18 623.261 158.547 621.017 158.151L616.846 181.785C621.81 182.661 628.03 182.18 629.743 182.18V158.18ZM620.42 158.061C619.899 157.996 619.992 157.967 620.374 158.102C620.746 158.234 622.163 158.79 623.486 160.378L605.049 175.742C607.431 178.602 610.333 180.006 612.348 180.721C614.372 181.439 616.267 181.728 617.443 181.875L620.42 158.061ZM622.753 159.575C623.717 160.539 624.241 161.527 624.527 162.278C624.811 163.023 624.995 163.885 624.995 164.88H600.995C600.995 168.608 602.344 173.107 605.782 176.545L622.753 159.575ZM624.96 163.96C624.327 155.729 622.593 128.596 620.673 101.107C618.789 74.126 616.685 46.1257 615.312 37.3162L591.598 41.0118C592.77 48.5263 594.8 75.116 596.731 102.778C598.628 129.932 600.392 157.495 601.031 165.8L624.96 163.96ZM615.335 37.4669C615.21 36.594 615.121 36.0108 615.055 35.3793C614.99 34.7585 614.99 34.4599 614.993 34.3929C615 34.2351 615.007 34.9937 614.512 36.1461C613.926 37.5123 612.556 39.5372 609.968 40.7315L599.911 18.9405C591.794 22.6864 591.118 31.0336 591.016 33.3351C590.876 36.5082 591.423 39.7923 591.576 40.861L615.335 37.4669ZM610.586 40.4242C612.138 39.5965 614.201 38.9717 617.21 38.459C618.702 38.2049 620.27 38.0015 622.06 37.7806C623.768 37.5699 625.769 37.333 627.725 37.0366L624.13 13.3074C622.588 13.541 621.011 13.7281 619.121 13.9613C617.314 14.1842 615.265 14.4446 613.179 14.7999C609.033 15.5063 604.1 16.6835 599.292 19.2478L610.586 40.4242ZM627.313 37.0917C654.16 33.97 681.102 32.7104 708.436 31.651L707.507 7.66899C680.144 8.72954 652.391 10.014 624.541 13.2523L627.313 37.0917ZM707.971 31.66C708.322 31.66 708.45 31.661 708.543 31.6639C708.618 31.6663 708.512 31.6663 708.301 31.6387C707.874 31.583 706.724 31.3796 705.401 30.5859L717.749 10.0061C713.337 7.35875 708.502 7.65999 707.971 7.65999V31.66ZM705.622 30.7149C702.943 29.1842 702.08 27.0061 701.937 26.6185C701.764 26.1521 701.836 26.1176 701.899 26.8476C701.955 27.4888 701.973 28.3075 701.961 29.3434C701.955 29.8534 701.944 30.3455 701.932 30.8944C701.921 31.4007 701.907 32.0146 701.907 32.592H725.907C725.907 31.9731 726.079 27.8749 725.809 24.7684C725.661 23.0604 725.335 20.6939 724.447 18.293C723.588 15.9709 721.692 12.2558 717.529 9.87708L705.622 30.7149ZM701.911 32.2763C701.704 40.155 701.101 47.3839 700.652 55.9173L724.619 57.1787C725.018 49.6001 725.687 41.141 725.903 32.9077L701.911 32.2763ZM700.662 55.7498C700.642 56.0508 700.571 55.6206 701.143 54.7168C701.481 54.1826 702.169 53.303 703.379 52.5463C704.674 51.7355 706.153 51.332 707.547 51.332V75.332C714.323 75.332 718.975 71.4202 721.425 67.5482C723.64 64.0474 724.417 60.2251 724.609 57.3462L700.662 55.7498ZM707.547 51.332C691.123 51.332 674.84 52.1981 658.95 52.8253L659.897 76.8067C676.23 76.1619 691.747 75.332 707.547 75.332V51.332ZM647.423 64.816C647.423 69.0044 647.655 73.3563 647.864 77.3187L671.831 76.0573C671.615 71.9636 671.423 68.2596 671.423 64.816H647.423ZM660.596 88.6646C661.949 88.5801 667.21 88.4782 673.084 88.3679C678.474 88.2667 684.544 88.1565 686.51 88.0254L684.913 64.0786C683.699 64.1595 678.533 64.2613 672.633 64.3721C667.219 64.4738 661.138 64.5839 659.099 64.7114L660.596 88.6646ZM686.311 88.037C686.934 88.0058 687.602 87.9623 688.108 87.9309C688.662 87.8966 689.118 87.8705 689.538 87.8548C690.466 87.8202 690.747 87.8598 690.67 87.8487C690.597 87.8381 690.229 87.7821 689.684 87.5838C689.134 87.3839 688.231 86.976 687.26 86.1755C686.235 85.3309 685.3 84.1803 684.666 82.7606C684.047 81.3737 683.887 80.1161 683.887 79.232H707.887C707.887 74.9651 706.193 70.6798 702.527 67.6577C699.447 65.1179 696.041 64.376 694.108 64.0962C690.569 63.584 686.07 64.0191 685.112 64.067L686.311 88.037ZM683.918 80.0869C683.916 80.0581 683.931 80.3437 683.939 81.1269C683.947 81.8236 683.947 82.7184 683.941 83.7698C683.928 85.8677 683.889 88.4579 683.837 91.076C683.729 96.4854 683.573 101.436 683.494 102.545L707.433 104.255C707.566 102.396 707.728 96.7466 707.832 91.556C707.932 86.5758 708.012 80.5563 707.857 78.377L683.918 80.0869ZM683.463 103.4C683.463 104.573 683.46 105.407 683.415 106.152C683.369 106.925 683.301 107.101 683.351 106.922C683.384 106.804 683.763 105.419 685.238 103.991C686.024 103.23 687.007 102.573 688.142 102.133C689.26 101.7 690.266 101.576 691.011 101.576V125.576C694.981 125.576 698.889 124.18 701.932 121.233C704.659 118.593 705.873 115.498 706.462 113.393C707.554 109.493 707.463 105.135 707.463 103.4H683.463ZM691.011 101.576C681.063 101.576 669.485 101.139 658.447 102.04L660.4 125.96C670.138 125.165 679.759 125.576 691.011 125.576V101.576ZM647.782 111.09C647.213 113.364 647.197 116.04 647.192 117.316C647.184 119.107 647.246 121.133 647.329 123.032C647.496 126.852 647.772 130.657 647.883 132.092L671.812 130.252C671.71 128.931 671.456 125.422 671.306 121.981C671.23 120.25 671.186 118.658 671.191 117.421C671.194 116.799 671.209 116.378 671.225 116.133C671.251 115.729 671.256 116.145 671.065 116.91L647.782 111.09ZM660.844 143.131C675.558 141.904 689.874 142.332 705.806 142.111L705.473 118.113C690.877 118.316 674.664 117.896 658.851 119.213L660.844 143.131ZM705.639 142.112C703.949 142.112 701.686 141.476 699.824 139.708C698.251 138.214 697.817 136.712 697.742 136.435C697.654 136.111 697.709 136.145 697.73 136.772C697.75 137.352 697.731 138.075 697.682 139.053L721.652 140.251C721.747 138.351 721.979 134.11 720.904 130.149C720.325 128.017 719.109 124.925 716.351 122.305C713.303 119.41 709.449 118.112 705.639 118.112V142.112ZM697.698 138.797C697.582 140.424 697.308 145.576 697.048 150.463C696.778 155.54 696.522 160.352 696.426 161.693L720.365 163.403C720.481 161.776 720.754 156.624 721.014 151.737C721.284 146.66 721.541 141.848 721.637 140.507L697.698 138.797ZM696.426 161.693C696.523 160.327 697.057 159.456 697.404 159.034C697.755 158.607 698.217 158.256 698.847 158.031L706.919 180.633C713.654 178.228 719.763 171.832 720.365 163.403L696.426 161.693ZM804.206 165.728L803.564 153.745L803.503 153.748L803.442 153.752L804.206 165.728ZM744.21 160.852L740.062 172.112L740.294 172.198L740.53 172.274L744.21 160.852ZM732.55 154.916L723.114 162.33L723.293 162.557L723.482 162.775L732.55 154.916ZM730.642 144.104L718.805 142.131L718.758 142.416L718.724 142.702L730.642 144.104ZM739.546 73.508L727.654 71.901L727.641 71.9951L727.63 72.0894L739.546 73.508ZM747.39 10.756L735.553 8.78319L735.47 9.28208L735.429 9.7862L747.39 10.756ZM748.026 7.36399L737.102 2.39837L736.987 2.65033L736.884 2.90731L748.026 7.36399ZM754.386 2.91199V14.912H754.786L755.184 14.8854L754.386 2.91199ZM817.986 7.57599L815.839 19.3824L815.881 19.3899L815.922 19.3972L817.986 7.57599ZM853.39 27.716L844.536 35.8162L844.543 35.8232L844.549 35.8302L853.39 27.716ZM876.71 85.804L864.726 86.4154L864.728 86.4553L864.73 86.4952L876.71 85.804ZM871.834 118.452L882.986 122.882L882.989 122.875L882.992 122.869L871.834 118.452ZM838.762 155.764L832.908 145.289L832.899 145.294L838.762 155.764ZM783.642 110.608L771.802 108.656L770.137 118.755L779.847 121.992L783.642 110.608ZM807.81 113.364L810.041 125.155L810.102 125.143L810.163 125.131L807.81 113.364ZM824.134 100.856L813.34 95.6131L813.304 95.6877L813.269 95.7628L824.134 100.856ZM826.89 76.476L815.073 78.5614L815.08 78.6057L815.089 78.6499L826.89 76.476ZM822.862 66.088L832.847 59.4316L832.739 59.2706L832.627 59.1131L822.862 66.088ZM814.382 59.092L820.556 48.8021L820.227 48.6046L819.886 48.4286L814.382 59.092ZM793.182 52.52L795.602 40.7665L783.088 38.1901L781.3 50.841L793.182 52.52ZM803.442 153.752C783.805 155.006 764.714 154.851 747.89 149.43L740.53 172.274C761.866 179.149 784.751 178.994 804.97 177.704L803.442 153.752ZM748.359 149.592C747.279 149.194 745.898 148.723 745.081 148.434C744.098 148.086 743.34 147.799 742.698 147.52C741.293 146.907 741.283 146.67 741.618 147.057L723.482 162.775C726.573 166.342 730.379 168.331 733.108 169.52C735.56 170.589 738.907 171.687 740.062 172.112L748.359 149.592ZM741.986 147.502C742.566 148.241 742.529 148.722 742.467 148.239C742.44 148.021 742.418 147.678 742.43 147.189C742.442 146.703 742.485 146.146 742.56 145.506L718.724 142.702C718.282 146.459 717.526 155.217 723.114 162.33L741.986 147.502ZM742.479 146.077C744.023 136.812 750.43 83.5987 751.462 74.9266L727.63 72.0894C726.543 81.2253 720.229 133.588 718.805 142.131L742.479 146.077ZM751.438 75.115C752.471 67.471 758.682 19.9786 759.351 11.7258L735.429 9.7862C734.826 17.2214 728.741 63.857 727.654 71.901L751.438 75.115ZM759.227 12.7288C759.322 12.1552 759.387 11.6489 759.429 11.3104C759.439 11.2254 759.449 11.1411 759.458 11.073C759.467 11.0007 759.474 10.9422 759.481 10.8874C759.494 10.7768 759.503 10.7155 759.508 10.6776C759.531 10.5127 759.471 11.0619 759.168 11.8207L736.884 2.90731C736.157 4.72609 735.885 6.33533 735.749 7.28344C735.688 7.71069 735.632 8.19022 735.61 8.36648C735.579 8.61756 735.564 8.72078 735.553 8.78319L759.227 12.7288ZM758.95 12.3296C758.499 13.322 757.979 13.7725 757.667 13.9976C757.398 14.192 756.316 14.912 754.386 14.912V-9.08801C749.912 -9.08801 746.181 -7.30799 743.632 -5.47063C741.041 -3.60248 738.613 -0.925995 737.102 2.39837L758.95 12.3296ZM755.184 14.8854C758.9 14.6377 771.472 15.2753 785.352 16.3347C799.052 17.3803 811.907 18.6674 815.839 19.3824L820.133 -4.23045C814.737 -5.21146 800.562 -6.57431 787.179 -7.59571C773.976 -8.60333 759.412 -9.44973 753.588 -9.06143L755.184 14.8854ZM815.922 19.3972C826.289 21.2072 836.933 27.506 844.536 35.8162L862.244 19.6158C851.615 7.998 836.395 -1.39123 820.05 -4.24517L815.922 19.3972ZM844.549 35.8302C856.611 48.9723 863.788 68.0327 864.726 86.4154L888.694 85.1926C887.512 62.0233 878.577 37.4117 862.231 19.6018L844.549 35.8302ZM864.73 86.4952C865.281 96.0552 863.967 105.722 860.676 114.035L882.992 122.869C887.757 110.83 889.411 97.6008 888.69 85.1128L864.73 86.4952ZM860.682 114.022C855.607 126.797 845.047 138.505 832.908 145.289L844.616 166.239C861.309 156.911 875.765 141.059 882.986 122.882L860.682 114.022ZM832.899 145.294C823.945 150.308 813.654 153.205 803.564 153.745L804.848 177.711C818.502 176.979 832.379 173.092 844.625 166.234L832.899 145.294ZM779.847 121.992C788.229 124.786 799.236 127.199 810.041 125.155L805.579 101.573C800.696 102.497 794.319 101.518 787.437 99.2238L779.847 121.992ZM810.163 125.131C821.046 122.954 830.088 116.427 835 105.949L813.269 95.7628C811.82 98.8525 809.414 100.806 805.457 101.597L810.163 125.131ZM834.928 106.099C839.883 95.8967 840.532 84.2927 838.691 74.302L815.089 78.6499C816.216 84.7713 815.593 90.9753 813.34 95.6131L834.928 106.099ZM838.707 74.3906C837.84 69.4767 836.054 64.242 832.847 59.4316L812.877 72.7444C813.911 74.294 814.668 76.2673 815.073 78.5614L838.707 74.3906ZM832.627 59.1131C828.926 53.9317 823.775 50.7334 820.556 48.8021L808.208 69.3819C811.349 71.2666 812.558 72.3083 813.097 73.0629L832.627 59.1131ZM819.886 48.4286C811.68 44.1931 802.761 42.2404 795.602 40.7665L790.762 64.2735C798.019 65.7676 803.941 67.2069 808.878 69.7554L819.886 48.4286ZM781.3 50.841C778.568 70.1794 775.04 89.012 771.802 108.656L795.482 112.56C798.604 93.62 802.285 73.8686 805.064 54.199L781.3 50.841Z" fill="#A0915F" mask="url(#path-1-outside-1_988_2349)"/>
</svg>
