<svg width="520" height="560" viewBox="0 0 520 560" fill="none" xmlns="http://www.w3.org/2000/svg">
<g clip-path="url(#clip0_864_151)">
<ellipse cx="126" cy="59.5" rx="126" ry="59.5" transform="matrix(-1 0 0 1 430.076 440.711)" fill="url(#paint0_radial_864_151)"/>
<path d="M392.583 217.81C392.853 216.802 394.141 216.289 395.437 216.823C396.696 217.282 397.572 218.522 397.302 219.53L397.272 219.642C396.807 221.807 397.068 224.053 398.117 226.155C400.438 230.81 405.816 232.647 410.065 230.325C411.211 229.699 412.208 228.772 412.927 227.805C413.444 226.949 414.748 226.81 415.916 227.604C417.085 228.399 417.654 229.712 417.174 230.643C417.174 230.643 417.174 230.643 417.107 230.68C415.937 232.466 414.379 233.986 412.423 235.055C405.747 238.704 397.432 235.797 393.838 228.589C392.041 224.985 391.72 221.243 392.583 217.81Z" fill="#8E8B97"/>
<path opacity="0.25" d="M397.234 219.567C396.829 221.508 396.979 223.528 397.78 225.479C397.667 225.254 397.555 225.029 397.48 224.878C396.582 223.077 396.245 219.821 396.853 217.769C397.175 218.071 397.519 218.933 397.234 219.567Z" fill="#46395B"/>
<path opacity="0.25" d="M411.862 233.929C413.682 232.934 414.941 231.672 416.193 230.224C416.523 229.853 416.882 229.369 417.107 228.96C417.294 229.335 417.391 230.046 417.137 230.568C415.968 232.353 414.341 233.911 412.386 234.98C405.71 238.629 397.395 235.722 393.801 228.514C393.614 228.138 393.427 227.763 393.344 227.426C397.111 233.775 404.377 238.02 411.862 233.929Z" fill="#46395B"/>
<path opacity="0.3" d="M394.064 223.88C394.476 223.845 394.971 224.148 395.09 224.561C395.248 225.048 395.405 225.535 395.629 225.986C397.059 229.026 399.591 231.177 402.415 232.022C402.835 232.175 403.127 232.589 403.044 233.112C402.999 233.71 402.46 234.005 401.973 233.889C398.624 232.852 395.598 230.398 393.974 226.795C393.712 226.27 393.517 225.707 393.322 225.145C393.128 224.583 393.517 223.987 394.064 223.88Z" fill="#9C8C9A"/>
<path d="M339.939 466.513C338.98 466.792 338.471 468.154 338.788 469.559C339.105 470.964 340.184 471.987 341.144 471.708C341.216 471.681 341.216 471.681 341.288 471.653C343.261 471.255 345.407 471.598 347.223 472.877C351.321 475.614 352.599 481.5 350.168 486.025C349.533 487.257 348.647 488.226 347.607 488.984C346.8 489.473 346.561 490.912 347.237 492.179C347.841 493.474 349.054 494.176 349.933 493.659C349.933 493.659 349.933 493.659 350.004 493.631C351.707 492.439 353.247 490.77 354.338 488.735C358.183 481.691 356.108 472.52 349.699 468.244C346.599 466.292 343.187 465.805 339.939 466.513Z" fill="url(#paint1_linear_864_151)"/>
<path opacity="0.25" d="M341.287 471.653C343.046 471.337 344.994 471.577 346.701 472.538C346.504 472.435 346.351 472.224 346.153 472.12C344.562 471.025 341.563 470.559 339.644 471.117C339.95 471.538 340.669 471.98 341.287 471.653Z" fill="#46395B"/>
<path opacity="0.25" d="M353.421 488.188C352.375 490.117 351.139 491.489 349.679 492.678C349.231 493.03 348.855 493.354 348.451 493.599C348.775 493.834 349.385 493.958 349.932 493.659C351.635 492.466 353.175 490.797 354.338 488.735C358.182 481.691 356.108 472.519 349.699 468.244C349.375 468.009 349.079 467.854 348.684 467.646C354.303 472.224 357.722 480.341 353.421 488.188Z" fill="#46395B"/>
<path opacity="0.3" d="M345.463 468.433C345.383 468.913 345.618 469.362 346.013 469.569C346.408 469.777 346.875 469.956 347.271 470.164C349.949 471.83 351.723 474.651 352.322 477.834C352.413 478.338 352.835 478.624 353.248 478.646C353.805 478.612 354.127 478.129 354.009 477.545C353.319 473.859 351.283 470.509 348.084 468.505C347.59 468.245 347.096 467.986 346.601 467.727C346.179 467.44 345.587 467.847 345.463 468.433Z" fill="#575878"/>
<path opacity="0.45" d="M339.939 466.513C338.98 466.792 338.471 468.154 338.788 469.559C339.105 470.964 340.184 471.987 341.144 471.708C341.216 471.681 341.216 471.681 341.288 471.653C343.261 471.255 345.407 471.598 347.223 472.877C351.321 475.614 352.599 481.5 350.168 486.025C349.533 487.257 348.647 488.226 347.607 488.984C346.8 489.473 346.561 490.912 347.237 492.179C347.841 493.474 349.054 494.176 349.933 493.659C349.933 493.659 349.933 493.659 350.004 493.631C351.707 492.439 353.247 490.77 354.338 488.735C358.183 481.691 356.108 472.52 349.699 468.244C346.599 466.292 343.187 465.805 339.939 466.513Z" fill="#BEBEBE"/>
<path d="M419.403 271.082C423.733 269.957 426.229 265.153 424.972 260.395L421.978 249.228C420.721 244.469 416.159 241.517 411.829 242.641C409.784 243.186 408.045 244.519 406.989 246.529C405.864 248.577 405.616 251.006 406.26 253.329L409.254 264.496C410.444 269.291 415.005 272.244 419.403 271.082ZM413.124 247.475C415.034 247.004 417.049 248.292 417.581 250.39L420.574 261.556C421.106 263.655 420.019 265.777 418.108 266.248C416.198 266.719 414.183 265.432 413.652 263.334L410.658 252.167C410.411 251.156 410.471 250.072 410.988 249.216C411.468 248.285 412.202 247.692 413.124 247.475Z" fill="url(#paint2_linear_864_151)"/>
<g opacity="0.35">
<path d="M412.411 262.389L409.417 251.223C409.17 250.211 409.231 249.127 409.748 248.271C410.197 247.452 410.999 246.823 411.883 246.531C413.179 246.204 414.438 246.663 415.374 247.68C414.707 247.376 413.876 247.257 413.127 247.475C412.205 247.692 411.471 248.285 410.991 249.216C410.511 250.147 410.414 251.156 410.661 252.167L413.654 263.334C413.819 264.008 414.186 264.572 414.62 265.099C413.602 264.605 412.703 263.663 412.411 262.389Z" fill="#26366F"/>
<path d="M418.095 270.175C422.426 269.05 424.922 264.246 423.664 259.487L420.671 248.32C420.147 246.409 419.083 244.793 417.795 243.586C419.772 244.798 421.33 246.718 421.981 249.228L424.975 260.395C426.232 265.154 423.736 269.957 419.406 271.082C416.814 271.735 414.132 271.003 412.132 269.23C413.863 270.291 416.05 270.719 418.095 270.175Z" fill="#26366F"/>
</g>
<path opacity="0.3" d="M411.049 245.552C409.73 246.177 408.711 247.403 408.291 248.97C408.021 249.978 408.133 251.063 408.38 252.075L408.949 254.248C408.949 254.248 409.151 254.997 409.308 255.485C409.428 255.897 409.203 256.307 408.866 256.491C408.424 256.637 407.967 256.409 407.81 255.922C407.047 253.186 406.874 252.325 406.874 252.325C406.351 250.413 406.583 248.471 407.445 246.758C408.18 245.305 409.491 244.493 410.368 244.014C410.772 243.792 411.267 244.096 411.386 244.508C411.611 244.958 411.424 245.443 411.049 245.552Z" fill="#575878"/>
<path opacity="0.3" d="M418.385 267.148C419.704 266.523 420.723 265.297 421.143 263.73C421.413 262.723 421.301 261.637 421.054 260.626L420.927 260.027C420.927 260.027 420.725 259.277 420.567 258.79C420.448 258.378 420.673 257.968 421.01 257.784C421.452 257.638 421.909 257.866 422.066 258.353C422.829 261.089 422.56 260.376 422.56 260.376C423.084 262.287 422.851 264.23 421.989 265.943C421.254 267.396 419.943 268.208 419.067 268.687C418.662 268.908 418.168 268.605 418.048 268.193C417.891 267.705 418.011 267.258 418.385 267.148Z" fill="#575878"/>
<path d="M424.353 308.027C428.848 307.577 431.913 303.226 431.27 298.323L429.782 286.906C429.139 282.002 424.967 278.455 420.472 278.905C418.345 279.113 416.427 280.257 415.153 282.004C413.849 283.863 413.219 286.214 413.555 288.61L415.043 300.026C415.716 304.818 419.925 308.441 424.353 308.027ZM421.153 283.884C423.108 283.675 424.928 285.26 425.22 287.393L426.708 298.81C426.999 300.944 425.628 302.84 423.672 303.049C421.717 303.258 419.897 301.673 419.605 299.539L418.118 288.123C417.938 287.074 418.208 286.067 418.83 285.249C419.452 284.431 420.224 283.914 421.153 283.884Z" fill="url(#paint3_linear_864_151)"/>
<g opacity="0.35">
<path d="M418.527 298.409L417.039 286.992C416.859 285.944 417.129 284.936 417.751 284.119C418.306 283.338 419.182 282.858 420.074 282.753C421.377 282.614 422.643 283.26 423.377 284.387C422.741 283.971 421.976 283.815 421.22 283.847C420.328 283.952 419.452 284.431 418.897 285.212C418.275 286.03 418.073 287 418.185 288.086L419.672 299.502C419.77 300.213 420.069 300.814 420.436 301.378C419.41 300.697 418.646 299.681 418.527 298.409Z" fill="#26366F"/>
<path d="M423.207 306.934C427.702 306.483 430.767 302.133 430.124 297.229L428.636 285.813C428.352 283.866 427.558 282.102 426.367 280.747C428.15 282.256 429.475 284.398 429.782 286.906L431.27 298.322C431.913 303.226 428.848 307.577 424.353 308.027C421.678 308.343 419.079 307.088 417.311 305.092C418.982 306.377 421.079 307.141 423.207 306.934Z" fill="#26366F"/>
</g>
<path opacity="0.3" d="M419.378 281.701C417.947 282.101 416.815 283.101 416.223 284.667C415.848 285.636 415.751 286.645 415.863 287.731L416.124 289.976C416.124 289.976 416.221 290.687 416.281 291.324C416.334 291.773 416.071 292.107 415.697 292.216C415.255 292.362 414.828 292.023 414.738 291.498C414.349 288.653 414.244 287.755 414.244 287.755C413.96 285.809 414.47 283.906 415.512 282.381C416.426 281.117 417.88 280.418 418.764 280.125C419.206 279.979 419.7 280.282 419.79 280.807C419.977 281.182 419.752 281.592 419.378 281.701Z" fill="#575878"/>
<path opacity="0.3" d="M423.882 303.985C425.313 303.585 426.444 302.585 427.037 301.019C427.411 300.05 427.509 299.041 427.397 297.956L427.337 297.319C427.337 297.319 427.24 296.608 427.18 295.972C427.128 295.523 427.39 295.189 427.765 295.079C428.207 294.933 428.634 295.273 428.723 295.797C429.112 298.642 428.978 297.856 428.978 297.856C429.262 299.803 428.752 301.706 427.71 303.23C426.796 304.495 425.342 305.194 424.458 305.486C424.016 305.632 423.522 305.329 423.432 304.805C423.35 304.467 423.507 304.095 423.882 303.985Z" fill="#575878"/>
<path d="M424.051 344.596C428.575 344.893 432.247 341.071 432.293 336.173L432.319 324.694C432.365 319.796 428.65 315.616 424.126 315.318C421.983 315.152 419.915 315.995 418.357 317.516C416.768 319.149 415.891 321.348 415.883 323.741L415.857 335.22C415.849 340.194 419.563 344.373 424.051 344.596ZM424.087 320.403C426.02 320.493 427.645 322.376 427.659 324.47L427.634 335.949C427.648 338.043 425.992 339.713 424.059 339.623C422.127 339.533 420.501 337.65 420.487 335.556L420.512 324.077C420.505 323.03 420.88 322.06 421.577 321.393C422.274 320.725 423.188 320.321 424.087 320.403Z" fill="url(#paint4_linear_864_151)"/>
<g opacity="0.35">
<path d="M419.506 334.277L419.531 322.798C419.524 321.751 419.899 320.782 420.595 320.114C421.292 319.447 422.139 319.079 423.105 319.124C424.416 319.172 425.555 320.079 426.221 321.243C425.615 320.715 424.948 320.41 424.154 320.367C423.187 320.322 422.341 320.689 421.644 321.356C420.947 322.024 420.572 322.993 420.579 324.04L420.554 335.52C420.546 336.193 420.711 336.867 421.01 337.468C420.119 336.713 419.52 335.511 419.506 334.277Z" fill="#26366F"/>
<path d="M423.069 343.317C427.594 343.614 431.266 339.792 431.312 334.894L431.337 323.414C431.293 321.432 430.739 319.633 429.713 318.092C431.331 319.787 432.319 322.113 432.318 324.694L432.293 336.173C432.247 341.071 428.642 344.857 424.05 344.596C421.323 344.462 418.986 342.873 417.414 340.58C418.926 342.237 420.896 343.262 423.069 343.317Z" fill="#26366F"/>
</g>
<path opacity="0.3" d="M422.611 317.961C421.173 318.174 419.862 318.986 419.09 320.364C418.573 321.22 418.34 322.302 418.347 323.349L418.332 325.555C418.332 325.555 418.362 326.303 418.316 326.901C418.331 327.275 418.002 327.647 417.657 327.644C417.178 327.715 416.781 327.263 416.796 326.777C416.751 323.935 416.819 323.038 416.819 323.038C416.812 321.131 417.532 319.304 418.858 318.006C419.915 316.855 421.451 316.493 422.372 316.276C422.852 316.205 423.211 316.582 423.301 317.106C423.286 317.592 423.023 317.927 422.611 317.961Z" fill="#575878"/>
<path opacity="0.3" d="M424.096 340.558C425.535 340.345 426.846 339.533 427.618 338.156C428.135 337.3 428.368 336.217 428.36 335.17L428.405 334.572C428.405 334.572 428.376 333.824 428.421 333.226C428.406 332.852 428.736 332.481 429.08 332.483C429.56 332.412 429.957 332.864 429.942 333.35C429.986 336.192 429.956 335.444 429.956 335.444C429.963 337.351 429.243 339.178 427.917 340.476C426.86 341.627 425.324 341.989 424.403 342.206C423.924 342.277 423.564 341.9 423.474 341.376C423.459 341.002 423.789 340.631 424.096 340.558Z" fill="#575878"/>
<path d="M419.494 379.858C423.974 380.753 428.117 377.533 428.718 372.714L430.129 361.433C430.73 356.614 427.547 351.952 423.067 351.056C420.947 350.591 418.797 351.097 417.059 352.43C415.253 353.799 414.129 355.847 413.843 358.2L412.432 369.482C411.832 374.301 415.014 378.962 419.494 379.858ZM422.437 355.987C424.415 356.339 425.77 358.369 425.545 360.499L424.133 371.78C423.908 373.91 422.102 375.279 420.125 374.927C418.147 374.575 416.791 372.545 417.017 370.415L418.428 359.134C418.593 358.088 419.073 357.157 419.845 356.64C420.579 356.047 421.5 355.83 422.437 355.987Z" fill="url(#paint5_linear_864_151)"/>
<g opacity="0.35">
<path d="M416.133 368.987L417.545 357.706C417.71 356.66 418.19 355.729 418.961 355.211C419.696 354.619 420.617 354.402 421.591 354.634C422.909 354.869 423.951 355.924 424.415 357.199C423.875 356.634 423.239 356.217 422.475 356.062C421.538 355.905 420.617 356.122 419.845 356.639C419.111 357.232 418.526 358.125 418.428 359.133L417.017 370.415C416.942 371.125 417.002 371.761 417.234 372.398C416.44 371.495 416.013 370.295 416.133 368.987Z" fill="#26366F"/>
<path d="M418.611 378.43C423.09 379.325 427.234 376.105 427.834 371.286L429.246 360.005C429.479 358.062 429.127 356.152 428.303 354.5C429.689 356.418 430.407 358.892 430.092 361.357L428.681 372.639C428.08 377.458 423.936 380.678 419.457 379.783C416.782 379.238 414.573 377.388 413.337 374.911C414.685 376.754 416.528 378.039 418.611 378.43Z" fill="#26366F"/>
</g>
<path opacity="0.3" d="M421.231 353.398C419.748 353.348 418.362 354.011 417.342 355.236C416.72 356.054 416.346 357.023 416.248 358.032L415.955 360.199C415.955 360.199 415.88 360.909 415.835 361.507C415.783 361.917 415.483 362.177 415.071 362.211C414.621 362.17 414.224 361.718 414.307 361.195C414.607 358.356 414.712 357.534 414.712 357.534C414.945 355.591 415.949 353.992 417.351 352.843C418.587 351.881 420.13 351.706 421.127 351.639C421.576 351.68 421.936 352.057 421.921 352.543C421.943 353.104 421.576 353.4 421.231 353.398Z" fill="#575878"/>
<path opacity="0.3" d="M419.989 375.86C421.473 375.909 422.859 375.247 423.878 374.021C424.5 373.204 424.875 372.234 424.972 371.226L425.085 370.591C425.085 370.591 425.16 369.881 425.205 369.283C425.258 368.872 425.557 368.613 425.969 368.579C426.419 368.619 426.816 369.071 426.733 369.594C426.433 372.434 426.471 371.649 426.471 371.649C426.238 373.591 425.234 375.191 423.832 376.339C422.596 377.302 421.053 377.477 420.056 377.543C419.607 377.502 419.247 377.126 419.262 376.64C419.278 376.154 419.645 375.857 419.989 375.86Z" fill="#575878"/>
<path d="M408.286 415.031C412.533 417.009 417.238 414.914 418.85 410.403L422.531 399.887C424.143 395.375 421.972 390.16 417.724 388.182C415.724 387.269 413.484 387.252 411.551 388.021C409.483 388.865 407.932 390.573 407.16 392.81L403.479 403.326C401.867 407.838 404.076 413.128 408.286 415.031ZM416.15 392.769C418.008 393.569 418.928 395.932 418.246 397.834L414.565 408.35C413.92 410.326 411.785 411.207 409.995 410.37C408.137 409.57 407.216 407.207 407.899 405.305L411.58 394.79C411.954 393.821 412.614 393.078 413.46 392.711C414.307 392.343 415.274 392.388 416.15 392.769Z" fill="url(#paint6_linear_864_151)"/>
<g opacity="0.35">
<path d="M407.323 403.805L411.004 393.289C411.379 392.32 412.038 391.577 412.885 391.21C413.731 390.843 414.698 390.888 415.574 391.268C416.803 391.839 417.679 393.08 417.836 394.427C417.431 393.788 416.855 393.148 416.083 392.806C415.207 392.425 414.24 392.38 413.394 392.747C412.48 393.151 411.82 393.894 411.513 394.826L407.832 405.342C407.614 405.938 407.539 406.648 407.704 407.322C407.075 406.233 406.888 404.998 407.323 403.805Z" fill="#26366F"/>
<path d="M407.777 413.493C412.024 415.471 416.729 413.377 418.341 408.865L422.022 398.349C422.675 396.56 422.668 394.652 422.181 392.816C423.162 394.956 423.334 397.537 422.531 399.886L418.85 410.402C417.238 414.914 412.533 417.008 408.286 415.03C405.724 413.851 403.979 411.556 403.253 408.895C404.227 410.847 405.777 412.58 407.777 413.493Z" fill="#26366F"/>
</g>
<path opacity="0.3" d="M415.521 389.96C414.128 389.575 412.554 389.862 411.318 390.824C410.584 391.416 409.999 392.309 409.624 393.279L408.845 395.329C408.845 395.329 408.597 396.037 408.41 396.522C408.252 396.895 407.915 397.079 407.533 397.001C407.114 396.848 406.852 396.323 406.972 395.875C407.901 393.265 408.179 392.444 408.179 392.444C408.831 390.655 410.052 389.318 411.746 388.584C413.132 387.922 414.69 388.121 415.664 388.353C416.151 388.469 416.413 388.995 416.293 389.442C416.24 389.853 415.836 390.074 415.521 389.96Z" fill="#575878"/>
<path opacity="0.3" d="M409.688 411.303C411.081 411.688 412.654 411.401 413.891 410.438C414.625 409.846 415.21 408.953 415.585 407.984L415.802 407.387C415.802 407.387 416.049 406.679 416.237 406.194C416.394 405.822 416.731 405.637 417.113 405.715C417.533 405.868 417.795 406.394 417.675 406.841C416.745 409.451 416.993 408.743 416.993 408.743C416.341 410.533 415.119 411.869 413.426 412.604C412.04 413.266 410.481 413.066 409.508 412.834C409.021 412.718 408.759 412.193 408.879 411.745C408.901 411.446 409.306 411.225 409.688 411.303Z" fill="#575878"/>
<path d="M389.346 444.683C393.211 447.443 398.268 446.399 400.622 442.342L406.1 432.85C408.454 428.793 407.234 423.249 403.369 420.489C401.527 419.203 399.369 418.662 397.249 419.057C395.061 419.488 393.218 420.782 392.094 422.83L386.615 432.322C384.262 436.379 385.549 441.886 389.346 444.683ZM401.053 424.621C402.754 425.793 403.3 428.266 402.266 429.978L396.719 439.506C395.722 441.293 393.467 441.761 391.835 440.552C390.134 439.379 389.588 436.907 390.622 435.195L396.101 425.703C396.618 424.848 397.42 424.218 398.379 424.076C399.3 423.859 400.237 424.016 401.053 424.621Z" fill="url(#paint7_linear_864_151)"/>
<g opacity="0.35">
<path d="M390.315 433.547L395.794 424.056C396.311 423.2 397.113 422.57 398.072 422.428C398.994 422.211 399.9 422.48 400.784 423.048C401.952 423.842 402.559 425.231 402.476 426.614C402.207 425.901 401.697 425.224 401.023 424.733C400.207 424.128 399.27 423.971 398.311 424.113C397.39 424.33 396.551 424.884 396.034 425.74L390.555 435.232C390.232 435.79 390.053 436.462 390.045 437.135C389.686 435.898 389.701 434.552 390.315 433.547Z" fill="#26366F"/>
<path d="M389.144 443.073C393.009 445.833 398.066 444.789 400.419 440.732L405.898 431.24C406.865 429.565 407.24 427.735 407.031 425.939C407.607 428.299 407.397 430.803 406.137 432.924L400.659 442.416C398.305 446.473 393.248 447.518 389.383 444.758C387.076 443.057 385.699 440.466 385.52 437.697C386.051 439.795 387.264 441.712 389.144 443.073Z" fill="#26366F"/>
</g>
<path opacity="0.3" d="M400.941 421.816C399.571 421.132 398.02 421.119 396.634 421.782C395.72 422.186 395.06 422.928 394.543 423.784L393.411 425.645C393.411 425.645 393.022 426.24 392.767 426.762C392.609 427.134 392.13 427.205 391.778 427.016C391.321 426.788 391.194 426.188 391.419 425.779C392.805 423.397 393.225 422.689 393.225 422.689C394.124 421.051 395.668 420.016 397.443 419.619C398.912 419.294 400.447 419.793 401.429 420.212C401.886 420.44 402.043 420.927 401.855 421.412C401.63 421.821 401.256 421.93 400.941 421.816Z" fill="#575878"/>
<path opacity="0.3" d="M391.385 441.371C392.755 442.055 394.306 442.067 395.692 441.405C396.606 441.001 397.266 440.258 397.783 439.402L398.143 438.919C398.143 438.919 398.532 438.324 398.787 437.802C398.945 437.43 399.424 437.359 399.776 437.548C400.233 437.776 400.36 438.376 400.135 438.785C398.749 441.167 399.101 440.497 399.101 440.497C398.202 442.135 396.658 443.17 394.883 443.567C393.414 443.892 391.879 443.394 390.897 442.975C390.44 442.747 390.283 442.26 390.471 441.775C390.59 441.327 391.033 441.181 391.385 441.371Z" fill="#575878"/>
<path d="M362.558 468.402C365.636 472.165 370.858 472.655 374.177 469.503L381.91 462.123C385.23 458.971 385.419 453.326 382.341 449.563C380.858 447.794 378.918 446.656 376.738 446.415C374.49 446.21 372.348 446.904 370.721 448.461L362.988 455.841C359.669 458.993 359.48 464.638 362.558 468.402ZM378.991 452.827C380.332 454.483 380.256 456.913 378.795 458.285L371.062 465.665C369.6 467.037 367.353 466.832 366.012 465.176C364.672 463.52 364.747 461.09 366.209 459.718L373.942 452.338C374.639 451.671 375.59 451.342 376.594 451.462C377.493 451.544 378.339 452.036 378.991 452.827Z" fill="url(#paint8_linear_864_151)"/>
<g opacity="0.35">
<path d="M366.352 458.111L374.085 450.731C374.782 450.064 375.733 449.735 376.737 449.855C377.636 449.937 378.587 450.468 379.202 451.183C380.108 452.312 380.302 453.734 380.01 455.041C379.942 454.218 379.635 453.43 379.059 452.79C378.407 451.999 377.561 451.506 376.594 451.461C375.591 451.341 374.706 451.633 373.942 452.338L366.209 459.718C365.744 460.163 365.422 460.721 365.242 461.393C365.055 460.157 365.453 458.889 366.352 458.111Z" fill="#26366F"/>
<path d="M362.701 466.795C365.779 470.558 371.001 471.048 374.32 467.896L382.053 460.516C383.38 459.218 384.212 457.616 384.519 455.824C384.511 458.217 383.604 460.528 381.911 462.123L374.177 469.503C370.858 472.655 365.636 472.165 362.558 468.401C360.746 466.143 360.08 463.259 360.56 460.608C360.507 462.739 361.286 464.989 362.701 466.795Z" fill="#26366F"/>
</g>
<path opacity="0.3" d="M379.606 450.102C378.498 449.083 376.962 448.585 375.456 448.835C374.497 448.977 373.621 449.456 372.924 450.124L371.395 451.532C371.395 451.532 370.931 451.977 370.533 452.386C370.234 452.645 369.822 452.679 369.5 452.377C369.14 452.001 369.118 451.44 369.485 451.143C371.411 449.326 371.973 448.732 371.973 448.732C373.299 447.434 375.037 446.962 376.835 447.126C378.356 447.25 379.772 448.196 380.521 448.837C380.91 449.102 380.97 449.738 380.64 450.11C380.303 450.294 379.823 450.365 379.606 450.102Z" fill="#575878"/>
<path opacity="0.3" d="M365.315 465.844C366.424 466.862 367.96 467.36 369.465 467.11C370.424 466.968 371.301 466.489 371.998 465.822L372.433 465.489C372.433 465.489 372.897 465.043 373.294 464.635C373.594 464.376 374.006 464.342 374.328 464.643C374.688 465.02 374.71 465.581 374.343 465.878C372.417 467.695 372.949 467.213 372.949 467.213C371.623 468.511 369.884 468.983 368.087 468.82C366.566 468.695 365.15 467.749 364.401 467.108C364.012 466.843 363.952 466.207 364.282 465.835C364.581 465.576 365.098 465.58 365.315 465.844Z" fill="#575878"/>
<path d="M415.519 254.86C417.085 254.386 417.947 252.673 417.431 250.949L410.866 228.835C410.35 227.111 408.724 226.088 407.159 226.562C406.409 226.781 405.81 227.299 405.495 228.045C405.143 228.715 405.075 229.612 405.315 230.436L411.744 252.624C412.261 254.348 413.953 255.333 415.519 254.86Z" fill="url(#paint9_linear_864_151)"/>
<path opacity="0.3" d="M412.615 245.937C413.499 245.645 413.919 244.078 413.402 242.354L411.172 234.783C410.655 233.059 409.509 231.965 408.588 232.183C408.146 232.329 407.786 232.812 407.674 233.447C407.561 234.081 407.561 234.941 407.8 235.766L410.031 243.337C410.48 245.098 411.626 246.191 412.615 245.937Z" fill="#575878"/>
<path opacity="0.35" d="M413.978 249.874C414.795 249.619 415.424 248.988 415.739 248.243L409.451 227.029C410.088 227.445 410.56 228.047 410.799 228.872L415.889 245.963L417.049 250.011L417.364 250.985C417.88 252.71 417.018 254.423 415.452 254.897C413.887 255.37 412.261 254.348 411.745 252.624L410.27 247.601C410.787 249.326 412.48 250.311 413.978 249.874Z" fill="#26366F"/>
<path d="M422.32 289.839C423.893 289.552 424.897 287.952 424.516 286.154L419.929 263.533C419.585 261.81 418.057 260.639 416.416 260.962C415.63 261.106 414.993 261.549 414.573 262.257C414.221 262.927 414.048 263.786 414.22 264.647L418.807 287.268C419.151 288.991 420.746 290.126 422.32 289.839Z" fill="url(#paint10_linear_864_151)"/>
<path opacity="0.3" d="M420.232 280.661C421.191 280.519 421.678 278.915 421.334 277.192L419.786 269.44C419.441 267.717 418.393 266.475 417.434 266.617C416.954 266.688 416.595 267.171 416.377 267.767C416.16 268.364 416.16 269.224 416.332 270.085L417.881 277.838C418.195 279.673 419.243 280.915 420.232 280.661Z" fill="#575878"/>
<path opacity="0.35" d="M421.258 284.782C422.112 284.602 422.711 284.083 423.131 283.376L418.754 261.691C419.323 262.144 419.765 262.858 419.9 263.645L423.453 281.098L424.306 285.218L424.553 286.229C424.898 287.952 423.931 289.627 422.357 289.914C420.784 290.2 419.189 289.066 418.845 287.343L417.812 282.175C418.156 283.898 419.684 285.069 421.258 284.782Z" fill="#26366F"/>
<path d="M416.96 272.895C417.484 273.946 418.57 274.403 419.38 273.961C420.189 273.519 420.451 272.324 419.927 271.273C419.403 270.222 418.317 269.765 417.508 270.207C416.698 270.649 416.473 271.919 416.96 272.895Z" fill="#575878"/>
<path d="M424.153 327.245C425.771 327.221 427.023 325.772 426.956 324.089L425.906 301.159C425.801 299.401 424.401 297.969 422.85 297.957C422.056 297.913 421.314 298.318 420.819 298.875C420.325 299.432 420.047 300.253 420.047 301.113L421.098 324.043C421.135 325.838 422.498 327.195 424.153 327.245Z" fill="url(#paint11_linear_864_151)"/>
<path opacity="0.3" d="M423.436 317.892C424.402 317.937 425.137 316.484 425.033 314.726L424.652 306.908C424.548 305.149 423.664 303.722 422.735 303.752C422.219 303.748 421.784 304.081 421.567 304.677C421.244 305.236 421.139 306.057 421.139 306.917L421.519 314.735C421.623 316.494 422.47 317.847 423.436 317.892Z" fill="#575878"/>
<path opacity="0.35" d="M423.877 322.046C424.738 322.053 425.48 321.647 426.004 320.978L424.991 298.983C425.531 299.548 425.837 300.336 425.867 301.084L426.709 318.778L426.91 322.967L426.985 323.977C427.089 325.736 425.838 327.184 424.182 327.134C422.564 327.158 421.164 325.726 421.127 323.931L420.851 318.731C420.925 320.601 422.221 321.995 423.877 322.046Z" fill="#26366F"/>
<path d="M421.994 363.013C423.619 363.176 424.983 361.953 425.051 360.196L426.211 337.395C426.278 335.638 425.08 334.096 423.455 333.933C422.623 333.815 421.911 334.108 421.312 334.627C420.78 335.109 420.397 335.891 420.33 336.788L419.17 359.588C419.17 361.308 420.368 362.851 421.994 363.013Z" fill="url(#paint12_linear_864_151)"/>
<path opacity="0.5" d="M422.243 353.704C423.247 353.824 424.124 352.485 424.192 350.728L424.568 342.879C424.636 341.122 423.955 339.583 422.988 339.538C422.539 339.497 421.999 339.792 421.677 340.35C421.355 340.909 421.108 341.617 421.04 342.514L420.663 350.364C420.595 352.121 421.277 353.659 422.243 353.704Z" fill="#575878"/>
<path opacity="0.35" d="M422.272 357.893C423.104 358.011 423.883 357.681 424.445 357.087L425.574 335.259C426.046 335.861 426.286 336.685 426.248 337.47L425.397 355.038L425.149 359.187L425.118 360.159C425.05 361.916 423.619 363.176 422.061 362.976C420.435 362.814 419.2 361.196 419.305 359.514L419.546 354.319C419.411 356.112 420.647 357.73 422.272 357.893Z" fill="#26366F"/>
<path d="M414.546 398.328C416.149 398.789 417.692 397.754 418.037 396.037L422.358 373.897C422.703 372.18 421.67 370.452 420.067 369.99C419.265 369.76 418.479 369.903 417.842 370.347C417.205 370.79 416.748 371.423 416.575 372.281L412.254 394.421C411.947 396.213 412.98 397.942 414.546 398.328Z" fill="url(#paint13_linear_864_151)"/>
<path opacity="0.3" d="M416.113 389.254C417.087 389.486 418.144 388.335 418.421 386.654L419.944 379.038C420.289 377.321 419.78 375.784 418.769 375.477C418.282 375.361 417.773 375.544 417.345 376.064C416.881 376.509 416.566 377.254 416.393 378.113L414.871 385.729C414.593 387.409 415.14 389.022 416.113 389.254Z" fill="#575878"/>
<path opacity="0.35" d="M415.551 393.288C416.352 393.519 417.206 393.338 417.843 392.895L421.992 371.614C422.329 372.29 422.463 373.076 422.358 373.898L418.975 391.034L418.172 395.104L417.97 396.074C417.625 397.791 416.081 398.826 414.478 398.365C412.875 397.904 411.842 396.175 412.187 394.458L413.192 389.418C412.952 391.173 413.985 392.902 415.551 393.288Z" fill="#26366F"/>
<path opacity="0.8" d="M416.716 378.414C417.24 379.465 418.393 379.886 419.27 379.407C420.147 378.928 420.477 377.696 419.953 376.645C419.428 375.594 418.275 375.174 417.398 375.653C416.559 376.207 416.229 377.438 416.716 378.414Z" fill="#575878"/>
<path d="M398.056 429.794C399.471 430.74 401.247 430.343 402.086 428.928L412.939 409.907C413.741 408.417 413.285 406.469 411.936 405.486C411.262 404.995 410.431 404.876 409.712 404.983C409.03 405.164 408.326 405.645 407.906 406.352L397.053 425.374C396.146 426.825 396.603 428.773 398.056 429.794Z" fill="url(#paint14_linear_864_151)"/>
<path opacity="0.3" d="M402.253 421.862C403.069 422.467 404.418 421.73 405.257 420.316L408.96 413.801C409.762 412.312 409.8 410.667 408.916 410.099C408.527 409.834 407.942 409.867 407.403 410.162C406.863 410.457 406.264 410.975 405.882 411.758L402.179 418.272C401.407 419.65 401.369 421.295 402.253 421.862Z" fill="#575878"/>
<path opacity="0.35" d="M400.432 425.437C401.211 425.967 402.042 426.086 402.792 425.867L413.225 407.553C413.359 408.339 413.254 409.161 412.902 409.831L404.53 424.535L402.566 427.997L402.117 428.816C401.315 430.305 399.502 430.628 398.086 429.682C396.67 428.736 396.281 426.751 397.083 425.261L399.564 420.943C398.627 422.507 399.084 424.455 400.432 425.437Z" fill="#26366F"/>
<path d="M374.436 456.082C375.522 457.399 377.425 457.601 378.549 456.414L393.978 441.579C395.139 440.466 395.23 438.41 394.076 437.13C393.499 436.489 392.795 436.11 392.069 436.029C391.342 435.949 390.525 436.204 389.963 436.798L374.534 451.633C373.44 452.709 373.35 454.765 374.436 456.082Z" fill="url(#paint15_linear_864_151)"/>
<path opacity="0.3" d="M380.595 449.849C381.247 450.639 382.753 450.389 383.914 449.277L389.19 444.195C390.351 443.083 390.771 441.516 390.082 440.65C389.723 440.273 389.198 440.082 388.584 440.227C387.969 440.372 387.258 440.665 386.696 441.259L381.42 446.34C380.326 447.416 379.944 449.058 380.595 449.849Z" fill="#575878"/>
<path opacity="0.35" d="M377.988 452.708C378.602 453.423 379.373 453.765 380.167 453.809L394.929 439.53C394.892 440.315 394.577 441.06 394.045 441.542L382.168 453.002L379.313 455.709L378.616 456.377C377.454 457.49 375.589 457.363 374.503 456.045C373.417 454.728 373.44 452.709 374.602 451.596L378.086 448.259C376.925 449.371 376.834 451.427 377.988 452.708Z" fill="#26366F"/>
<path opacity="0.8" d="M382.387 447.245C382.911 448.297 384.065 448.717 384.941 448.238C385.818 447.759 386.148 446.527 385.624 445.476C385.1 444.425 383.946 444.005 383.07 444.484C382.193 444.963 381.9 446.269 382.387 447.245Z" fill="#575878"/>
<path d="M347.879 479.579C348.935 481.008 350.703 481.284 352.007 480.284L368.417 466.728C369.683 465.654 369.849 463.748 368.86 462.282C368.351 461.605 367.609 461.15 366.883 461.07C366.119 460.914 365.369 461.133 364.77 461.651L348.36 475.207C347.019 476.132 346.823 478.149 347.879 479.579Z" fill="url(#paint16_linear_864_151)"/>
<path opacity="0.45" d="M347.879 479.579C348.935 481.008 350.703 481.284 352.007 480.284L368.417 466.728C369.683 465.654 369.849 463.748 368.86 462.282C368.351 461.605 367.609 461.15 366.883 461.07C366.119 460.914 365.369 461.133 364.77 461.651L348.36 475.207C347.019 476.132 346.823 478.149 347.879 479.579Z" fill="#AEA8B4"/>
<path opacity="0.3" d="M354.369 473.834C354.99 474.737 356.534 474.562 357.732 473.524L363.405 468.895C364.671 467.821 365.196 466.292 364.544 465.502C364.252 465.088 363.728 464.897 363.076 464.966C362.492 464.999 361.78 465.293 361.113 465.848L355.441 470.478C354.309 471.478 353.785 473.007 354.369 473.834Z" fill="#575878"/>
<path opacity="0.35" d="M351.581 476.504C352.128 477.256 352.87 477.711 353.664 477.754L369.407 464.754C369.264 465.501 368.949 466.246 368.38 466.653L355.672 477.135L352.704 479.617L351.97 480.209C350.704 481.283 348.898 480.933 347.842 479.503C346.786 478.074 347.019 476.131 348.286 475.057L351.987 471.983C350.758 473.132 350.525 475.075 351.581 476.504Z" fill="#26366F"/>
<path d="M322.8 344.565C322.382 342.173 320.304 340.427 317.875 340.427H292.226C289.82 340.427 287.755 342.141 287.311 344.506L259.186 494.506C258.609 497.583 260.97 500.427 264.101 500.427H344.125C347.231 500.427 349.586 497.625 349.05 494.565L322.8 344.565Z" fill="url(#paint17_linear_864_151)"/>
<path d="M287.876 369.711L307.076 374.096V434.019L291.076 463.25L284.676 502.711L275.076 486.634L292.676 428.173L287.876 369.711Z" fill="#A39875"/>
<path d="M152.076 11C92.316 29.2802 91.2363 29.4375 64.7534 84.2729L97 142.5L148 211.011L224.941 337.829L376.077 211.011L264 112L206.5 54L152.076 11Z" fill="url(#paint18_linear_864_151)"/>
<path d="M82.042 52.3799L74.3239 67.8146L127.253 149.344L166.623 180.591L207.024 231.052L200.803 203.845L134.14 133.509L82.042 52.3799Z" fill="#A4997C"/>
<path d="M256.005 200.566L256.005 200.566L256.006 200.567L256.005 200.566L247.246 215.093L220.208 177.623L190.864 143.205L188.226 116.881L221.4 167.892L256.005 200.566Z" fill="#AC9F7C"/>
<path d="M151.661 12.4679L143.541 14.7422L200.076 70.2116L184.193 46.6702L151.661 12.4679Z" fill="#A49976"/>
<path d="M200.498 85.1743L204.818 96.6886L217.723 112.625L230.076 119.454L200.498 85.1743Z" fill="#ADA281"/>
<path d="M361.625 494.877L353.662 462.446L348.323 457.519L336.614 462.392L330.98 477.935L292.042 482.043L288.547 467L278.444 465.155L273.603 469.37L268.501 461.044L268.003 451.903L255.243 455.564L252.606 477.008L257.074 494.397L252.153 499.744L263.567 515.341L287.324 517.003L290.061 510.364L337.394 500.013L342.812 503.807L361.625 494.877Z" fill="url(#paint19_linear_864_151)"/>
<path d="M338.685 464.747L353.558 462.401L348.243 457.514L342.576 456.712L343.076 459.712L336.59 462.343L330.987 477.755L292.232 481.818L288.749 466.899L278.694 465.067L277.489 466.112L286.262 470.112L291.918 486.311L332.034 478.957L338.685 464.747Z" fill="#837B63"/>
<path d="M172.576 274.211C172.576 349.874 231.189 415.427 306.576 415.427C381.963 415.427 443.076 354.09 443.076 278.427C443.076 202.764 381.963 141.427 306.576 141.427C264.576 153.211 248.637 162.711 215.576 198.711C193.076 223.211 181.076 240.211 172.576 274.211Z" fill="url(#paint20_radial_864_151)"/>
<path d="M313.347 253.902C331.054 281.169 369.192 288.204 395.465 271.142C421.739 254.08 417.024 226.302 399.317 199.035C381.61 171.768 344.556 156.453 318.283 173.515C292.01 190.577 295.639 226.635 313.347 253.902Z" fill="#4E3B21"/>
<path d="M288.592 306.548C288.899 305.566 288.212 304.084 286.995 303.378C285.842 302.648 284.578 302.828 284.271 303.811L284.237 303.92C283.493 305.933 282.175 307.388 280.354 308.064C276.319 309.563 271.457 306.351 269.508 300.996C268.982 299.551 268.716 298.009 268.673 296.674C268.724 295.594 267.838 294.379 266.584 293.976C265.329 293.574 264.254 294.069 264.139 295.174C264.139 295.174 264.139 295.174 264.17 295.259C264.132 297.589 264.511 300.053 265.409 302.518C268.472 310.934 276.022 315.849 282.269 313.529C285.392 312.369 287.503 309.848 288.592 306.548Z" fill="url(#paint21_linear_864_151)"/>
<path opacity="0.45" d="M288.592 306.548C288.899 305.566 288.212 304.084 286.995 303.378C285.842 302.648 284.578 302.828 284.271 303.811L284.237 303.92C283.493 305.933 282.175 307.388 280.354 308.064C276.319 309.563 271.457 306.351 269.508 300.996C268.982 299.551 268.716 298.009 268.673 296.674C268.724 295.594 267.838 294.379 266.584 293.976C265.329 293.574 264.254 294.069 264.139 295.174C264.139 295.174 264.139 295.174 264.17 295.259C264.132 297.589 264.511 300.053 265.409 302.518C268.472 310.934 276.022 315.849 282.269 313.529C285.392 312.369 287.503 309.848 288.592 306.548Z" fill="#BEBED0"/>
<path opacity="0.25" d="M284.302 303.895C283.626 305.691 282.504 307.072 280.939 307.847C281.134 307.774 281.329 307.702 281.459 307.653C283.021 307.073 284.899 304.928 285.483 302.878C285.126 302.914 284.411 303.18 284.302 303.895Z" fill="#46395B"/>
<path opacity="0.25" d="M266.385 302.156C265.549 299.861 265.259 297.846 265.068 295.698C265.012 295.139 264.991 294.472 265.032 293.974C264.706 294.095 264.279 294.543 264.204 295.15C264.166 297.48 264.577 300.03 265.474 302.495C268.537 310.91 276.087 315.826 282.334 313.505C282.659 313.385 282.984 313.264 283.214 313.082C277.271 314.614 269.819 311.592 266.385 302.156Z" fill="#46395B"/>
<path opacity="0.3" d="M284.464 309.818C284.179 309.442 283.73 309.222 283.37 309.452C283.011 309.683 282.651 309.913 282.261 310.058C279.689 311.109 276.756 310.559 274.263 308.783C273.879 308.539 273.457 308.599 273.256 309.06C272.989 309.545 273.237 310.225 273.652 310.554C276.625 312.634 280.072 313.38 283.069 312.074C283.524 311.904 283.949 311.65 284.373 311.396C284.798 311.142 284.81 310.365 284.464 309.818Z" fill="#575878"/>
<path d="M285.385 488.035C286.044 489.027 285.834 490.435 284.927 491.193C284.02 491.952 282.663 491.805 282.004 490.812C281.958 490.733 281.958 490.733 281.912 490.654C280.476 488.74 278.557 487.222 276.479 486.655C271.856 485.266 268.097 488.484 268.008 493.77C267.961 495.187 268.242 496.62 268.746 498.026C269.182 499.045 268.716 500.286 267.578 500.649C266.486 501.091 265.168 500.602 264.685 499.503C264.685 499.503 264.685 499.503 264.639 499.424C263.791 497.157 263.296 494.677 263.338 492.302C263.428 484.026 269.354 479.079 276.581 481.254C280.024 482.39 283.047 484.847 285.385 488.035Z" fill="url(#paint22_linear_864_151)"/>
<path opacity="0.25" d="M281.958 490.734C280.66 489.056 278.952 487.626 277.108 486.918C277.318 487.005 277.541 486.978 277.751 487.066C279.561 487.581 282.235 489.713 283.553 491.698C283.062 491.672 282.268 491.401 281.958 490.734Z" fill="#46395B"/>
<path opacity="0.25" d="M264.342 492.661C264.3 495.036 264.694 496.935 265.332 499.115C265.538 499.739 265.697 500.284 265.915 500.794C265.542 500.698 264.983 500.286 264.673 499.618C263.825 497.35 263.33 494.871 263.326 492.417C263.416 484.14 269.342 479.193 276.568 481.368C276.942 481.464 277.257 481.596 277.677 481.771C270.971 480.351 264.428 483.426 264.342 492.661Z" fill="#46395B"/>
<path opacity="0.3" d="M279.969 484.88C279.813 485.293 279.414 485.426 278.994 485.251C278.574 485.076 278.108 484.822 277.688 484.647C274.724 483.65 271.969 484.237 270.012 486.053C269.705 486.343 269.227 486.204 268.878 485.879C268.437 485.396 268.395 484.781 268.761 484.454C271.025 482.347 274.237 481.593 277.785 482.773C278.31 482.992 278.835 483.211 279.36 483.43C279.885 483.648 280.137 484.351 279.969 484.88Z" fill="#575878"/>
<path d="M271.113 337.542L275.208 328.816C276.081 327.01 276.035 324.72 275.042 322.39C274.116 320.122 272.42 318.166 270.335 316.784C265.92 313.883 260.907 314.545 259.182 318.272L255.087 326.997C253.361 330.724 255.543 336.129 259.959 339.03C264.375 341.93 269.387 341.269 271.113 337.542ZM270.571 322.995C270.99 324.041 271.004 324.99 270.658 325.791L266.563 334.516C265.826 336.169 263.614 336.446 261.663 335.189C259.713 333.932 258.765 331.551 259.502 329.898L263.597 321.172C264.334 319.519 266.547 319.242 268.497 320.499C269.439 321.096 270.219 322.012 270.571 322.995Z" fill="url(#paint23_linear_864_151)"/>
<g opacity="0.35">
<path d="M268.008 334.273L272.103 325.547C272.449 324.746 272.48 323.746 272.016 322.752C271.619 321.82 270.838 320.904 269.942 320.256C268.619 319.397 267.268 319.26 266.203 319.765C266.925 319.782 267.802 320.039 268.564 320.562C269.505 321.159 270.219 322.012 270.638 323.058C271.056 324.104 271.07 325.052 270.725 325.853L266.63 334.579C266.399 335.113 265.967 335.459 265.469 335.743C266.574 335.744 267.526 335.227 268.008 334.273Z" fill="#26366F"/>
<path d="M261.337 338.724C256.921 335.823 254.739 330.418 256.465 326.691L260.559 317.966C261.272 316.477 262.522 315.489 263.97 314.967C261.803 315.193 260.012 316.238 259.114 318.209L255.019 326.935C253.293 330.661 255.476 336.066 259.891 338.967C262.536 340.685 265.396 341.198 267.635 340.478C265.739 340.675 263.421 340.106 261.337 338.724Z" fill="#26366F"/>
</g>
<path opacity="0.3" d="M270.826 319.676C272.146 320.813 273.102 322.36 273.403 323.951C273.596 324.974 273.385 325.9 273.039 326.701L272.256 328.405C272.256 328.405 271.98 328.99 271.774 329.359C271.613 329.677 271.812 330.144 272.147 330.456C272.595 330.78 273.091 330.775 273.298 330.406C274.332 328.281 274.587 327.583 274.587 327.583C275.3 326.094 275.226 324.247 274.478 322.332C273.839 320.706 272.543 319.404 271.671 318.591C271.268 318.216 270.727 318.272 270.566 318.591C270.359 318.96 270.445 319.414 270.826 319.676Z" fill="#575878"/>
<path opacity="0.3" d="M261.296 335.877C259.976 334.74 259.021 333.193 258.72 331.602C258.526 330.579 258.738 329.653 259.083 328.852L259.268 328.369C259.268 328.369 259.544 327.784 259.751 327.415C259.912 327.097 259.713 326.631 259.378 326.318C258.93 325.994 258.433 325.999 258.227 326.368C257.192 328.493 257.536 327.97 257.536 327.97C256.823 329.459 256.896 331.306 257.645 333.221C258.284 334.847 259.58 336.149 260.452 336.962C260.854 337.337 261.396 337.28 261.557 336.962C261.763 336.593 261.677 336.138 261.296 335.877Z" fill="#575878"/>
<path opacity="0.45" d="M270.314 316.67C272.399 318.052 274.094 320.008 275.02 322.276C275.837 324.254 276.022 326.112 275.511 327.788C274.027 327.247 272.297 326.57 270.521 325.944L270.591 325.728C270.937 324.927 270.969 323.927 270.504 322.932C270.107 322 269.326 321.085 268.43 320.436C266.48 319.179 264.267 319.456 263.53 321.109L262.311 323.717C260.487 323.42 258.618 323.175 256.633 323.196L258.935 318.135C260.84 314.482 265.898 313.769 270.314 316.67Z" fill="#9A9A9A"/>
<path d="M261.506 366.777L264.3 357.306C264.86 355.301 264.588 352.988 263.324 350.686C262.194 348.509 260.295 346.644 258.141 345.478C253.54 343.06 248.815 344.364 247.583 348.363L244.789 357.834C243.624 361.896 246.393 367.194 250.948 369.663C255.616 372.143 260.341 370.839 261.506 366.777ZM259.186 351.882C259.696 352.826 259.844 353.9 259.565 354.763L256.772 364.234C256.281 366.024 254.179 366.591 252.205 365.499C250.185 364.457 248.966 362.104 249.523 360.377L252.317 350.906C252.807 349.117 254.91 348.55 256.884 349.642C257.871 350.188 258.676 350.939 259.186 351.882Z" fill="url(#paint24_linear_864_151)"/>
<g opacity="0.35">
<path d="M258.127 363.815L260.921 354.344C261.2 353.481 261.006 352.458 260.542 351.463C260.032 350.519 259.206 349.655 258.286 349.171C256.939 348.477 255.563 348.505 254.633 349.135C255.333 349.039 256.143 349.233 256.996 349.654C257.916 350.137 258.788 350.95 259.252 351.945C259.762 352.889 259.91 353.963 259.631 354.826L256.838 364.297C256.674 364.894 256.31 365.302 255.878 365.649C256.894 365.473 257.779 364.894 258.127 363.815Z" fill="#26366F"/>
<path d="M252.304 369.244C247.703 366.826 244.934 361.528 246.144 357.415L248.938 347.944C249.404 346.319 250.452 345.144 251.879 344.508C249.868 344.973 248.254 346.37 247.648 348.426L244.854 357.897C243.689 361.959 246.459 367.257 251.014 369.726C253.774 371.177 256.569 371.349 258.631 370.276C256.732 370.752 254.504 370.359 252.304 369.244Z" fill="#26366F"/>
</g>
<path opacity="0.3" d="M258.992 348.518C260.403 349.553 261.495 350.946 261.976 352.611C262.282 353.646 262.25 354.646 261.972 355.509L261.436 357.35C261.436 357.35 261.273 357.946 261.088 358.429C260.994 358.81 261.238 359.225 261.552 359.424C262 359.748 262.475 359.629 262.614 359.197C263.335 356.874 263.522 356.112 263.522 356.112C263.988 354.488 263.69 352.618 262.783 350.742C261.986 349.156 260.531 347.894 259.635 347.246C259.187 346.921 258.646 346.978 258.552 347.359C258.413 347.79 258.611 348.256 258.992 348.518Z" fill="#575878"/>
<path opacity="0.3" d="M251.859 366.299C250.448 365.264 249.355 363.871 248.875 362.206C248.569 361.171 248.6 360.171 248.879 359.308L248.997 358.762C248.997 358.762 249.16 358.166 249.345 357.683C249.439 357.302 249.195 356.887 248.881 356.688C248.433 356.364 247.958 356.483 247.819 356.915C247.098 359.238 247.262 358.642 247.262 358.642C246.795 360.267 247.094 362.136 248.001 364.012C248.798 365.598 250.252 366.86 251.148 367.509C251.596 367.833 252.138 367.776 252.232 367.396C252.438 367.027 252.24 366.56 251.859 366.299Z" fill="#575878"/>
<path d="M256.888 397.857L258.11 387.669C258.356 385.465 257.701 383.169 256.187 381.008C254.741 378.911 252.726 377.313 250.457 376.413C245.739 374.541 241.435 376.612 240.943 381.022L239.721 391.209C239.162 395.556 242.61 400.644 247.374 402.465C252.026 404.275 256.329 402.204 256.888 397.857ZM252.449 382.858C253.072 383.813 253.378 384.848 253.279 385.785L252.057 395.973C251.814 397.899 249.934 398.767 247.912 398.005C245.822 397.18 244.354 394.968 244.552 393.093L245.774 382.905C246.017 380.979 247.897 380.111 249.92 380.874C250.931 381.255 251.781 381.955 252.449 382.858Z" fill="url(#paint25_linear_864_151)"/>
<g opacity="0.35">
<path d="M253.191 395.252L254.413 385.064C254.512 384.127 254.206 383.092 253.584 382.137C252.915 381.233 252.065 380.534 251.054 380.153C249.683 379.623 248.396 379.827 247.621 380.696C248.299 380.486 249.088 380.566 249.919 380.874C250.931 381.255 251.781 381.954 252.449 382.858C253.072 383.813 253.378 384.848 253.279 385.785L252.057 395.973C252.006 396.581 251.709 397.052 251.344 397.461C252.339 397.172 253.023 396.405 253.191 395.252Z" fill="#26366F"/>
<path d="M248.508 401.744C243.789 399.872 240.363 394.897 240.854 390.488L242.076 380.3C242.296 378.539 243.143 377.176 244.301 376.29C242.467 377.107 241.167 378.703 240.875 380.959L239.653 391.147C239.094 395.493 242.543 400.581 247.306 402.402C250.115 403.523 252.757 403.178 254.55 401.856C252.92 402.582 250.777 402.643 248.508 401.744Z" fill="#26366F"/>
</g>
<path opacity="0.3" d="M251.737 379.386C253.218 380.205 254.468 381.558 255.153 383.133C255.617 384.128 255.698 385.139 255.599 386.077L255.377 388.116C255.377 388.116 255.281 388.776 255.209 389.27C255.161 389.599 255.472 390.077 255.786 390.276C256.279 390.549 256.733 390.316 256.759 389.873C257.053 387.339 257.128 386.566 257.128 386.566C257.347 384.805 256.711 382.901 255.554 381.167C254.553 379.672 253.03 378.626 252.088 378.028C251.595 377.755 251.12 377.874 251.048 378.369C251.112 378.71 251.311 379.176 251.737 379.386Z" fill="#575878"/>
<path opacity="0.3" d="M247.679 398.817C246.198 397.998 244.948 396.645 244.263 395.07C243.799 394.075 243.718 393.064 243.817 392.126L243.822 391.57C243.822 391.57 243.918 390.91 243.991 390.416C244.039 390.087 243.727 389.609 243.414 389.41C242.92 389.137 242.467 389.37 242.44 389.813C242.146 392.347 242.242 391.688 242.242 391.688C242.023 393.449 242.659 395.353 243.816 397.087C244.817 398.582 246.341 399.629 247.282 400.226C247.776 400.499 248.251 400.38 248.323 399.886C248.35 399.442 248.105 399.027 247.679 398.817Z" fill="#575878"/>
<path d="M256.772 429.95L256.577 419.284C256.531 416.994 255.538 414.664 253.887 412.657C252.192 410.701 250.107 409.319 247.835 408.698C243.066 407.434 239.275 410.171 239.413 414.699L239.608 425.365C239.701 429.945 243.693 434.698 248.395 435.9C253.052 437.153 256.843 434.417 256.772 429.95ZM250.528 415.047C251.241 415.9 251.66 416.946 251.741 417.957L251.935 428.623C251.984 430.635 250.327 431.804 248.235 431.258C246.143 430.711 244.426 428.641 244.377 426.63L244.182 415.964C244.133 413.952 245.79 412.783 247.883 413.329C248.805 413.535 249.768 414.246 250.528 415.047Z" fill="url(#paint26_linear_864_151)"/>
<g opacity="0.35">
<path d="M252.935 427.776L252.741 417.11C252.727 416.161 252.308 415.116 251.528 414.2C250.814 413.347 249.872 412.75 248.883 412.483C247.488 412.118 246.289 412.498 245.694 413.441C246.305 413.169 247.072 413.135 247.882 413.329C248.872 413.596 249.814 414.194 250.528 415.046C251.241 415.899 251.66 416.945 251.741 417.956L251.935 428.622C251.952 429.293 251.767 429.776 251.469 430.247C252.33 429.833 252.992 428.953 252.935 427.776Z" fill="#26366F"/>
<path d="M249.282 435.042C244.513 433.778 240.587 429.088 240.495 424.508L240.3 413.842C240.227 411.995 240.827 410.495 241.897 409.433C240.218 410.489 239.254 412.398 239.255 414.739L239.449 425.405C239.542 429.985 243.534 434.738 248.236 435.94C251.093 436.731 253.558 436.034 255.129 434.41C253.654 435.375 251.599 435.612 249.282 435.042Z" fill="#26366F"/>
</g>
<path opacity="0.3" d="M249.365 411.529C250.87 412.184 252.257 413.383 253.167 414.981C253.744 415.987 253.983 416.959 254.018 418.021L254.089 420.146C254.089 420.146 254.105 420.817 254.1 421.374C254.119 421.766 254.409 422.13 254.835 422.34C255.307 422.5 255.76 422.267 255.742 421.875C255.676 419.193 255.638 418.409 255.638 418.409C255.565 416.562 254.771 414.697 253.41 413.054C252.251 411.599 250.658 410.768 249.625 410.273C249.198 410.063 248.678 410.233 248.719 410.739C248.649 410.955 248.893 411.37 249.365 411.529Z" fill="#575878"/>
<path opacity="0.3" d="M248.181 432.144C246.676 431.49 245.289 430.29 244.38 428.693C243.803 427.687 243.563 426.715 243.528 425.652L243.466 425.033C243.466 425.033 243.45 424.362 243.455 423.806C243.436 423.413 243.146 423.05 242.72 422.839C242.248 422.68 241.795 422.912 241.814 423.305C241.879 425.987 241.841 425.202 241.841 425.202C241.914 427.049 242.709 428.914 244.069 430.557C245.228 432.012 246.822 432.843 247.854 433.338C248.281 433.548 248.801 433.378 248.761 432.872C248.898 432.719 248.541 432.292 248.181 432.144Z" fill="#575878"/>
<path d="M265.57 463.617L261.816 452.534C261.049 450.227 259.422 448.055 257.317 446.56C255.211 445.064 252.917 444.329 250.841 444.453C246.419 444.729 244.036 448.779 245.66 453.57L249.414 464.653C251.017 469.331 255.967 473.01 260.502 472.746C264.857 472.407 267.127 468.346 265.57 463.617ZM255.186 450.189C256.082 450.838 256.817 451.804 257.169 452.787L260.922 463.87C261.647 465.95 260.594 467.683 258.631 467.818C256.667 467.953 254.54 466.344 253.815 464.264L250.061 453.181C249.337 451.101 250.39 449.368 252.353 449.233C253.345 449.222 254.29 449.541 255.186 450.189Z" fill="url(#paint27_linear_864_151)"/>
<g opacity="0.35">
<path d="M261.519 462.65L257.766 451.567C257.414 450.583 256.679 449.617 255.783 448.969C254.887 448.32 253.83 447.99 252.95 448.012C251.641 448.102 250.754 448.96 250.518 450.051C250.974 449.54 251.585 449.267 252.352 449.234C253.278 449.16 254.289 449.542 255.185 450.19C256.081 450.838 256.816 451.805 257.168 452.788L260.921 463.871C261.163 464.564 261.225 465.184 261.062 465.78C261.745 465.014 261.981 463.923 261.519 462.65Z" fill="#26366F"/>
<path d="M260.919 471.451C256.496 471.727 251.501 468.098 249.831 463.358L246.077 452.275C245.441 450.372 245.435 448.587 245.923 447.076C244.915 448.757 244.623 451.013 245.48 453.497L249.233 464.58C250.836 469.257 255.786 472.937 260.321 472.672C263.006 472.555 264.915 470.965 265.657 468.755C264.673 470.272 263.04 471.276 260.919 471.451Z" fill="#26366F"/>
</g>
<path opacity="0.3" d="M253.074 446.91C254.538 447.058 256.177 447.838 257.427 449.191C258.254 450.055 258.764 450.999 259.183 452.044L259.929 454.238C259.929 454.238 260.171 454.932 260.391 455.511C260.522 455.915 260.925 456.29 261.308 456.273C261.759 456.319 262.078 455.961 261.925 455.444C260.958 452.671 260.695 451.864 260.695 451.864C260.059 449.96 258.744 448.265 257.019 447.031C255.541 445.934 253.921 445.546 252.84 445.381C252.389 445.335 252.07 445.693 252.156 446.148C252.288 446.551 252.623 446.864 253.074 446.91Z" fill="#575878"/>
<path opacity="0.3" d="M258.915 468.74C257.451 468.591 255.812 467.812 254.562 466.458C253.735 465.594 253.225 464.651 252.807 463.605L252.586 463.025C252.586 463.025 252.345 462.332 252.125 461.752C251.993 461.348 251.545 461.024 251.207 460.99C250.757 460.944 250.437 461.302 250.591 461.819C251.557 464.593 251.248 463.837 251.248 463.837C251.885 465.741 253.2 467.435 254.925 468.669C256.403 469.767 258.023 470.154 259.104 470.319C259.554 470.365 259.873 470.007 259.787 469.553C259.768 469.161 259.366 468.785 258.915 468.74Z" fill="#575878"/>
<g opacity="0.45">
<path d="M266.059 466.788C264.719 467.878 262.775 468.405 260.546 468.012L259.285 467.772C260.867 467.375 261.671 465.785 260.989 463.932L260.815 463.301C262.462 463.245 263.555 462.018 263.324 460.211C263.198 459.251 262.733 458.256 261.974 457.455C261.148 456.59 260.16 456.044 259.192 455.89L258.224 455.736L257.303 452.912C256.973 452.042 256.439 451.263 255.701 450.575L258.74 451.162C259.775 451.379 260.719 451.698 261.752 452.193C261.841 452.369 261.862 452.482 261.951 452.659L265.704 463.742C265.943 464.713 266.091 465.787 266.059 466.788Z" fill="#575878"/>
<path d="M249.28 464.527L248.051 460.946C248.343 461.032 248.59 461.168 248.928 461.203L253.093 461.904L253.861 464.212C254.256 465.422 255.238 466.525 256.338 467.083L249.943 465.988C249.699 465.573 249.5 465.107 249.28 464.527Z" fill="#575878"/>
<path d="M247.574 449.082L251.063 449.715C250.02 450.333 249.624 451.742 250.129 453.243L250.48 454.226L248.139 453.821C247.216 453.616 246.425 453.814 245.857 454.314L245.593 453.507C245.067 451.893 244.991 450.324 245.297 449.018C245.93 448.859 246.718 448.939 247.574 449.082Z" fill="#575878"/>
</g>
<path d="M265.423 326.15C263.832 325.041 263.083 323.126 263.772 321.802L272.544 304.8C273.232 303.477 275.016 303.268 276.607 304.377C277.369 304.9 277.948 305.628 278.211 306.435C278.52 307.191 278.512 308.026 278.191 308.662L269.486 325.727C268.797 327.05 266.946 327.197 265.423 326.15Z" fill="url(#paint28_linear_864_151)"/>
<path opacity="0.45" d="M265.423 326.15C263.832 325.041 263.083 323.126 263.772 321.802L272.544 304.8C273.232 303.477 275.016 303.268 276.607 304.377C277.369 304.9 277.948 305.628 278.211 306.435C278.52 307.191 278.512 308.026 278.191 308.662L269.486 325.727C268.797 327.05 266.946 327.197 265.423 326.15Z" fill="#9A9A9A"/>
<path opacity="0.3" d="M269.161 319.338C268.265 318.69 267.964 317.099 268.653 315.775L271.638 309.947C272.327 308.624 273.617 308.141 274.559 308.739C275.007 309.063 275.339 309.654 275.401 310.273C275.463 310.893 275.388 311.665 275.067 312.302L272.081 318.13C271.459 319.516 270.17 319.998 269.161 319.338Z" fill="#575878"/>
<path opacity="0.35" d="M267.398 322.282C266.569 321.696 265.968 320.854 265.705 320.047L274.109 303.733C273.41 303.829 272.865 304.164 272.544 304.8L265.747 317.934L264.184 321.064L263.772 321.802C263.083 323.126 263.832 325.041 265.423 326.15C267.014 327.259 268.797 327.05 269.486 325.726L271.461 321.858C270.772 323.181 268.922 323.328 267.398 322.282Z" fill="#26366F"/>
<path d="M255.282 354.607C253.667 353.663 252.76 351.787 253.314 350.339L260.069 332.017C260.578 330.62 262.273 330.234 263.955 331.241C264.762 331.713 265.388 332.39 265.763 333.208C266.139 334.027 266.177 334.811 265.922 335.51L259.168 353.831C258.592 355.166 256.897 355.552 255.282 354.607Z" fill="url(#paint29_linear_864_151)"/>
<path opacity="0.3" d="M258.258 347.273C257.271 346.727 256.903 345.073 257.412 343.676L259.703 337.387C260.212 335.989 261.413 335.331 262.401 335.877C262.894 336.15 263.227 336.741 263.401 337.372C263.576 338.003 263.501 338.776 263.247 339.474L260.956 345.763C260.401 347.212 259.2 347.87 258.258 347.273Z" fill="#575878"/>
<path opacity="0.35" d="M256.763 350.466C255.889 349.932 255.242 349.142 254.933 348.386L261.388 330.814C260.755 330.973 260.232 331.421 260.023 332.069L254.796 346.198L253.547 349.527L253.201 350.328C252.692 351.725 253.554 353.652 255.169 354.597C256.784 355.541 258.546 355.218 259.055 353.82L260.582 349.628C260.073 351.025 258.378 351.411 256.763 350.466Z" fill="#26366F"/>
<path d="M249.186 386.931C247.502 386.202 246.324 384.355 246.653 382.883L250.288 362.963C250.55 361.429 252.135 360.754 253.774 361.533C254.627 361.954 255.343 362.529 255.765 363.296C256.232 364.012 256.449 364.871 256.262 365.632L252.627 385.552C252.41 387.035 250.871 387.659 249.186 386.931Z" fill="url(#paint30_linear_864_151)"/>
<path opacity="0.8" d="M250.817 378.903C249.784 378.408 249.212 376.845 249.475 375.311L250.505 368.782C250.767 367.248 252.634 367.772 252.634 367.772C253.42 368.131 254.469 369.296 254.394 370.069L253.203 376.915C252.895 378.501 251.895 379.347 250.817 378.903Z" fill="#575878"/>
<path opacity="0.35" d="M249.995 382.442C249.097 382.072 248.404 381.332 247.916 380.503L251.363 361.344C250.752 361.616 250.342 362.076 250.267 362.849L247.486 378.229L246.844 381.843L246.678 382.718C246.415 384.252 247.526 386.037 249.211 386.765C250.895 387.494 252.435 386.87 252.697 385.335L253.505 380.847C253.265 382.495 251.68 383.17 249.995 382.442Z" fill="#26366F"/>
<path opacity="0.8" d="M250.847 368.259C250.209 368.975 250.446 370.225 251.318 371.038C252.189 371.851 253.429 371.977 254.067 371.261C254.705 370.546 254.468 369.295 253.596 368.482C252.724 367.669 251.485 367.543 250.847 368.259Z" fill="#575878"/>
<path d="M247.508 419.813C245.799 419.25 244.53 417.504 244.612 415.896L245.865 395.066C245.948 393.458 247.398 392.657 249.107 393.221C249.938 393.528 250.7 394.052 251.234 394.83C251.747 395.495 252.077 396.365 252.002 397.138L250.749 417.969C250.6 419.514 249.216 420.377 247.508 419.813Z" fill="url(#paint31_linear_864_151)"/>
<path opacity="0.3" d="M248.24 411.415C247.183 411.085 246.498 409.511 246.581 407.903L247.053 400.76C247.136 399.152 248.047 398.13 249.058 398.511C249.53 398.671 250.067 399.171 250.354 399.813C250.641 400.456 250.792 401.251 250.784 402.087L250.312 409.229C250.208 410.723 249.297 411.746 248.24 411.415Z" fill="#575878"/>
<path opacity="0.35" d="M247.777 415.102C246.833 414.784 246.116 414.209 245.582 413.43L246.782 393.486C246.238 393.821 245.849 394.395 245.887 395.179L244.903 411.299L244.687 415.123L244.634 416.01C244.551 417.618 245.821 419.363 247.529 419.927C249.238 420.49 250.689 419.69 250.771 418.082L251.04 413.371C250.915 414.752 249.485 415.666 247.777 415.102Z" fill="#26366F"/>
<path d="M253.949 455.026C252.259 454.854 250.649 453.353 250.327 451.648L245.998 429.638C245.675 427.933 246.769 426.706 248.459 426.878C249.247 426.958 250.1 427.379 250.771 428.004C251.442 428.63 251.863 429.397 252.081 430.255L256.41 452.266C256.732 453.97 255.638 455.197 253.949 455.026Z" fill="url(#paint32_linear_864_151)"/>
<path opacity="0.3" d="M252.475 446.07C251.461 445.967 250.415 444.523 250.046 442.869L248.561 435.305C248.238 433.6 248.769 432.317 249.782 432.419C250.279 432.414 250.861 432.863 251.239 433.403C251.685 434.006 251.993 434.762 252.211 435.62L253.697 443.184C254.019 444.889 253.489 446.173 252.475 446.07Z" fill="#575878"/>
<path opacity="0.35" d="M253.003 450.025C252.102 449.933 251.249 449.512 250.624 448.836L246.512 427.684C246.102 428.144 245.96 428.854 246.111 429.649L249.448 446.71L250.267 450.75L250.507 451.722C250.829 453.427 252.439 454.928 254.129 455.1C255.818 455.271 256.912 454.045 256.59 452.34L255.644 447.339C255.719 448.907 254.693 450.196 253.003 450.025Z" fill="#26366F"/>
<path d="M271.008 490.033C269.539 490.441 267.631 489.412 266.767 487.763L255.578 466.283C254.714 464.634 255.225 462.958 256.695 462.55C257.441 462.403 258.229 462.483 259.037 462.955C259.777 463.365 260.515 464.053 260.891 464.871L272.08 486.352C272.99 487.949 272.478 489.625 271.008 490.033Z" fill="url(#paint33_linear_864_151)"/>
<path opacity="0.3" d="M266.625 481.171C265.789 481.42 264.356 480.272 263.492 478.623L259.659 471.211C258.795 469.563 258.832 468.006 259.736 467.819C260.21 467.7 260.75 467.922 261.332 468.371C261.914 468.82 262.493 469.548 262.869 470.366L266.702 477.779C267.566 479.427 267.575 480.933 266.625 481.171Z" fill="#575878"/>
<path opacity="0.35" d="M268.483 485.15C267.692 485.348 266.837 485.205 266.029 484.733L255.328 464.083C255.165 464.679 255.27 465.526 255.691 466.293L264.355 482.891L266.371 486.83L266.881 487.774C267.745 489.422 269.652 490.452 271.122 490.044C272.591 489.635 273.103 487.959 272.239 486.311L269.713 481.428C270.465 483.065 269.953 484.741 268.483 485.15Z" fill="#26366F"/>
<path d="M271.576 276.711L348.076 313.211L347.576 309.711L380.076 312.211L413.076 304.211L422.576 286.211L424.576 268.711L439.076 247.211L434.076 307.211L406.576 315.211L410.576 319.211L372.576 330.211L326.076 318.211L342.576 330.211L308.576 315.211L259.076 290.211L239.076 243.211L255.576 177.711L283.076 150.711L331.076 143.711L283.076 159.211L271.576 181.211L269.076 175.711L255.576 222.711L262.576 254.711L263.576 228.711L271.576 276.711Z" fill="url(#paint34_linear_864_151)"/>
<path d="M283.222 495.018L280.544 485.785L276.214 484.352L268.184 488.313L269.444 501.969L278.341 501.461L283.222 495.018Z" fill="url(#paint35_linear_864_151)"/>
<path d="M352.852 484.828L352.5 474.466L348.293 473.023L340.472 477.071L342.056 485.222L350.309 490.394L352.852 484.828Z" fill="url(#paint36_linear_864_151)"/>
<path d="M391.509 259.11C391.631 260.197 391.026 266.073 389.707 267.161C388.487 266.875 388.039 267.278 387.413 267.145C386.873 267.031 386.32 266.943 385.788 266.8C384.34 266.412 382.979 265.573 381.552 265.1C380.611 264.788 379.851 263.261 379.08 262.62C378.494 262.132 378.29 261.384 377.738 260.891C377.266 260.47 375.446 257.246 375.2 256.669C373.734 253.237 372.709 252.094 372.162 248.357C371.675 245.026 369.695 241.8 370.255 238.313C370.395 237.446 370.231 236.55 370.419 235.661L370.948 233.175C371.279 231.617 371.537 230.019 371.946 228.479C372.332 227.024 373.063 225.648 373.786 224.317C374.631 222.76 375.038 220.851 376.04 219.355C376.673 218.408 377.054 216.919 377.513 215.87C378.108 214.511 378.576 212.988 379.09 211.586C379.932 209.29 380.736 206.878 381.76 204.669C382.625 202.802 383.293 200.604 383.886 198.636C384.547 196.441 387.178 191.239 387.909 189.13C387.695 190.353 388.126 197.461 388.116 198.691C388.095 201.477 388.208 204.053 388.743 206.82C389.055 208.437 389.034 210.092 389.301 211.713C389.516 213.014 389.653 214.473 389.678 215.791C389.739 218.984 389.869 222.208 389.197 225.372C387.581 232.974 386.199 241.567 388.706 249.098C389.292 250.859 389.774 252.748 390.281 254.541C390.714 256.072 391.329 257.52 391.509 259.11Z" fill="#C34FBC"/>
<path d="M361.705 277.47C361.677 277.472 361.65 277.475 361.623 277.477C361.635 277.495 361.663 277.492 361.705 277.47C363.021 277.343 365.172 276.619 366.239 275.926C366.793 275.566 367.633 275.322 368.295 275.186C369.712 274.894 371.076 274.723 372.485 274.278C374.657 273.592 376.801 273.01 378.872 272.026C380.097 271.445 381.245 270.792 382.549 270.398C383.629 270.072 384.717 270.039 385.776 269.585C387.231 268.961 388.994 268.58 389.706 267.161C388.487 266.876 388.176 267.11 387.55 266.977C387.011 266.863 386.408 266.962 385.875 266.819C384.427 266.431 383.067 265.593 381.639 265.119C380.699 264.808 379.938 263.281 379.168 262.64C378.581 262.151 378.377 261.404 377.825 260.911C377.353 260.489 375.533 257.265 375.287 256.688C374.551 257.828 373.07 259.823 372.519 261.059C371.558 263.216 370.089 265.097 368.986 267.182C367.744 269.529 366.593 271.973 364.877 274.026C364.608 274.348 362.2 277.208 361.705 277.47Z" fill="#832FA0"/>
<path d="M353.27 271.97C352.552 271.105 351.439 270.194 351.019 269.137C351.375 268.067 352 266.244 352.119 265.684C352.332 264.683 353.053 263.86 353.312 262.895C353.459 262.347 353.858 261.759 354.156 261.275C354.462 260.778 354.474 260.17 354.757 259.649C355.205 258.823 355.502 257.639 355.81 256.73C356.46 254.813 356.708 252.76 357.472 250.898C358.073 249.432 358.109 247.847 358.419 246.391C358.827 244.468 358.633 242.562 359.033 240.681C359.456 238.689 359.683 236.681 360.111 234.669C360.617 232.287 360.92 229.923 361.424 227.552C361.68 226.346 362.409 225.222 362.783 224.032C362.995 223.355 363.933 222.085 364.044 221.372C364.986 222.076 366.804 223.893 367.722 224.671C368.481 225.315 369.047 226.181 369.736 226.898C369.926 227.096 372.618 228.506 372.208 228.535C371.799 230.074 371.541 231.672 371.21 233.231L370.681 235.717C370.493 236.605 370.657 237.502 370.517 238.369C369.957 241.856 371.937 245.082 372.424 248.413C372.971 252.15 373.996 253.293 375.462 256.725C374.725 257.865 373.245 259.859 372.694 261.096C371.733 263.253 370.263 265.134 369.16 267.218C367.918 269.566 366.768 272.01 365.052 274.063C364.76 274.412 361.95 277.749 361.797 277.513C360.733 277.597 357.9 277.913 357.183 276.599C356.858 276.003 356.058 275.317 355.593 274.784C354.789 273.864 354.056 272.916 353.27 271.97Z" fill="#9440A2"/>
<path d="M359.982 223.392C360.285 221.964 360.313 220.854 360.648 219.278C361.189 218.022 363.97 220.844 364.366 221.14C364.255 221.853 363.317 223.123 363.104 223.8C362.731 224.99 362.002 226.114 361.746 227.32C361.242 229.691 360.939 232.055 360.433 234.437C360.005 236.449 359.778 238.457 359.355 240.448C358.955 242.33 359.149 244.236 358.741 246.159C358.431 247.615 358.395 249.199 357.794 250.666C357.03 252.528 356.782 254.58 356.132 256.498C355.824 257.407 355.527 258.591 355.079 259.416C354.796 259.937 354.784 260.546 354.478 261.043C354.179 261.527 353.781 262.115 353.634 262.663C353.375 263.628 352.654 264.451 352.441 265.452C352.322 266.012 351.453 268.31 351.096 269.38C350.239 267.226 349.811 264.548 349.005 262.39C348.603 261.313 348.536 260.074 348.177 258.971C347.854 257.977 347.518 256.806 347.347 255.774C347.051 253.999 346.484 252.102 346.863 250.319C347.336 248.091 348.592 246.139 349.541 244.092C350.442 242.15 351.289 240.184 352.261 238.296C353.061 236.743 353.531 235.036 354.394 233.486C355.43 231.625 356.467 229.788 357.566 227.964C358.48 226.449 359.601 225.182 359.982 223.392Z" fill="#8A3B96"/>
<path d="M381.822 193.6C382.813 193.046 387.029 189.899 387.91 189.13C387.178 191.239 384.81 196.497 384.149 198.692C383.556 200.66 382.888 202.858 382.023 204.725C380.999 206.933 380.195 209.346 379.353 211.642C378.839 213.044 378.371 214.567 377.776 215.926C377.317 216.975 376.936 218.464 376.303 219.411C375.301 220.907 374.894 222.816 374.049 224.373C373.326 225.704 372.595 227.08 372.209 228.535C370.693 228.822 369.927 227.097 369.736 226.898C369.048 226.181 368.482 225.316 367.722 224.671C366.804 223.893 364.986 222.076 364.045 221.373C363.649 221.077 360.862 220.079 360.593 219.542C361.173 218.473 361.272 216.785 362.129 215.876C362.99 214.964 363.825 214.1 364.602 213.126C365.952 211.432 367.342 209.815 368.488 207.956C369.545 206.241 370.991 205.141 372.295 203.679C373.648 202.163 375.03 200.63 376.466 199.157C377.677 197.916 378.657 196.425 379.982 195.308C380.656 194.74 381.032 194.041 381.822 193.6Z" fill="#C667BC"/>
<path d="M348.36 244.267C346.689 246.087 341.148 251.653 339.419 253.413L339.461 252.201L342.698 247.314C342.698 247.314 343.388 244.836 343.802 243.234C344.358 241.084 344.573 238.842 345.064 236.668C345.603 234.284 344.935 231.937 344.766 229.565C344.631 227.673 344.478 225.754 344.287 223.876C344.141 222.444 344.313 220.816 343.923 219.439C343.552 218.131 343.707 212.446 343.45 211.069C344.191 212.278 346.406 217.058 347.414 218.06C350.048 220.677 352.518 221.057 354.581 224.092C355.343 225.214 356.806 225.671 357.104 226.96C356.112 231.166 355.354 235.931 352.408 239.358C351.662 240.226 351.183 241.252 350.403 242.1C349.731 242.832 349.031 243.538 348.36 244.267Z" fill="#5A2373"/>
<path d="M332.045 245.606C331.123 242.24 330.965 238.71 330.124 235.307C329.797 235.369 330.705 228.247 330.949 227.399C331.111 226.833 331.099 226.204 331.501 225.618C332.653 223.936 333.659 222.117 334.738 220.386C335.307 219.474 335.881 218.559 336.427 217.643C337.004 216.677 337.986 215.966 338.602 215.017C339.229 214.052 340.36 212.887 341.328 212.279C342.342 211.642 342.994 211.315 344.026 210.661C344.283 212.038 343.888 217.904 344.259 219.212C344.649 220.589 344.477 222.217 344.623 223.649C344.813 225.527 344.967 227.446 345.101 229.337C345.27 231.709 345.938 234.057 345.4 236.441C344.909 238.615 344.693 240.857 344.138 243.006C343.724 244.609 342.803 248.017 342.803 248.017L342.797 248.026C342.11 249.146 339.779 252.157 339.419 253.413C338.412 254.297 336.656 255.253 336.17 256.56C336.008 256.996 334.233 259.51 334.038 259.198C333.606 258.507 333.961 257.492 333.837 256.748C333.696 255.9 333.599 255.048 333.44 254.198C332.905 251.327 332.82 248.433 332.045 245.606Z" fill="#772D81"/>
<path d="M360.183 214.457C359.264 218.669 358.089 222.784 357.104 226.96C356.805 225.671 355.242 225.492 354.48 224.371C352.417 221.335 350.268 221.24 347.634 218.624C346.626 217.622 345.629 216.112 344.888 214.903C344.095 213.608 343.866 212.477 343.611 211.016C343.342 209.477 343.57 207.898 343.68 206.365C343.813 204.516 344.812 202.713 344.995 200.875C345.204 198.777 346.011 196.811 346.351 194.732C346.651 192.893 346.839 190.944 347.35 189.162C348.335 185.728 348.753 182.145 349.749 178.669C351.756 171.67 355.385 163.308 357.383 156.339C357.766 160.155 357.829 164.129 358.583 167.943C359.422 172.189 359.17 176.484 359.86 180.72C360.383 183.925 359.762 187.512 359.759 190.755C359.756 193.849 360.079 196.925 360.173 200.013C360.25 202.544 360.472 205.11 360.353 207.646C360.248 209.891 360.669 212.228 360.183 214.457Z" fill="#903A8B"/>
<path d="M357.39 156.342C357.199 156.71 356.093 158.141 355.911 158.4C355.424 159.093 354.936 159.75 354.503 160.478C353.346 162.423 351.041 163.719 349.954 165.718C347.452 170.321 345.2 174.988 342.907 179.673C340.772 184.033 339.318 188.766 337.218 193.138C336.063 195.541 335.521 198.188 334.362 200.578C333.24 202.893 333.264 205.728 332.133 208.039C331.092 210.165 330.475 212.561 329.82 214.845C329.581 215.678 329.154 216.46 328.909 217.314C328.604 218.376 328.614 219.391 328.563 220.487C328.329 225.504 328.901 230.155 330.086 235.071C330.095 235.325 330.125 235.472 330.182 235.461C330.15 235.331 330.118 235.201 330.086 235.071C330.043 233.856 330.471 230.183 330.672 229.481C330.835 228.915 330.941 226.634 331.343 226.047C332.496 224.366 333.502 222.547 334.581 220.816C335.15 219.903 335.723 218.989 336.27 218.073C336.846 217.107 337.829 216.396 338.444 215.447C339.071 214.481 340.202 213.317 341.17 212.709C342.184 212.072 342.585 211.673 343.618 211.019C343.349 209.48 343.578 207.901 343.688 206.368C343.821 204.519 344.819 202.715 345.002 200.878C345.212 198.779 346.018 196.814 346.358 194.734C346.659 192.896 346.846 190.946 347.357 189.165C348.342 185.73 348.76 182.148 349.757 178.672C351.764 171.672 355.392 163.311 357.39 156.342Z" fill="#A5569D"/>
<path d="M340.986 267.609C342.018 268.618 344.828 270.597 346.051 271.372C346.445 271.569 347.966 265.683 348.377 265.025C348.764 264.406 348.694 263.458 348.883 262.772C349.078 262.066 349.379 261.209 349.4 260.477C349.422 259.72 349.392 258.467 349.627 257.79C349.852 257.144 349.56 256.346 349.814 255.743C350.303 254.581 349.958 252.803 349.958 251.547C349.958 249.439 349.347 247.859 348.935 245.882C347.202 243.716 335.424 232.041 333.555 229.952C332.279 229.952 331.028 229.69 329.788 229.69C328.373 229.69 326.571 229.356 325.323 228.643C324.905 228.945 324.315 229.757 323.898 230.287C323.222 231.148 323.052 231.094 322.414 231.988C320.182 235.113 314.837 237.033 315.172 241.732C316.656 243.89 318.873 245.868 320.707 247.702C322.492 249.487 324.346 251.154 326.143 252.952C329.113 255.922 331.935 258.93 334.888 261.883C335.998 262.993 337.313 263.909 338.299 265.149C339.092 266.147 340.087 266.729 340.986 267.609Z" fill="#7838AA"/>
<path d="M342.139 220.26C340.806 218.039 338.531 215.218 336.652 213.875C336.517 214.211 334.98 217.518 334.638 217.903L333.631 230.321C335.5 232.41 347.336 244.264 349.069 246.43C348.74 244.85 348.527 243.415 348.154 241.832C347.939 240.917 347.675 240.014 347.493 239.083C347.262 237.906 347.308 236.544 346.935 235.424C346.56 234.301 346.759 232.783 346.614 231.599C346.476 230.463 346.462 229.26 346.056 228.178C345.022 225.421 343.658 222.792 342.139 220.26Z" fill="#C34FBC"/>
<path d="M330.213 230.201C331.453 230.201 332.355 230.321 333.631 230.321L334.638 217.926C333.721 218.045 332.608 217.766 332.315 217.687C331.468 217.458 330.526 217.162 329.638 217.247C329.095 217.298 326.583 217.232 325.545 217.692C325.576 218.574 325.865 219.241 325.865 219.99C325.865 223.146 325.748 226.008 325.748 229.154C326.996 229.867 328.798 230.201 330.213 230.201Z" fill="#9440A2"/>
<path d="M313.481 239.802C314.215 240.571 314.568 240.852 315.172 241.731C317.891 239.012 320.605 235.503 322.837 232.378C323.476 231.484 323.646 231.538 324.322 230.678C324.739 230.147 325.495 229.616 325.912 229.314C325.912 226.168 325.863 223.025 325.863 219.869C325.863 219.12 326.097 218.125 325.543 217.571C324.634 216.662 323.798 215.496 323.129 214.4C322.224 212.919 321.241 211.638 320.496 210.066C319.766 208.525 319.097 207.193 318.125 205.79C317.061 204.253 315.032 200.965 315.032 199.108C314.273 202.332 312.595 205.925 310.38 208.401C309.728 209.13 309.704 210.767 309.543 211.667C309.318 212.931 309.078 214.216 309.078 215.502C309.078 217.234 309.046 218.99 309.274 220.701C309.768 224.4 309.877 228.216 310.711 231.864C311.187 233.945 310.963 236.008 311.879 237.993C312.171 238.625 312.993 239.291 313.481 239.802Z" fill="#8A3B96"/>
<path d="M316.524 194.12C316.148 195.925 315.361 197.645 314.942 199.423C314.942 201.279 316.971 204.567 318.036 206.104C319.007 207.507 319.676 208.839 320.406 210.38C321.151 211.952 322.134 213.234 323.039 214.714C323.709 215.81 324.545 216.977 325.454 217.885C325.454 218.405 329.004 217.492 329.547 217.44C330.435 217.355 331.377 217.652 332.224 217.88C332.517 217.959 333.63 218.239 334.547 218.12C334.889 217.735 336.705 213.903 336.65 213.876C334.474 211.993 332.735 209.544 330.467 207.743C328.768 206.394 327.471 204.349 326.281 202.565C325.058 200.73 323.668 199.025 322.467 197.169C321.366 195.467 320.498 193.592 319.594 191.784C319.424 191.445 318.554 189.148 318.147 189.841C317.466 190.998 316.796 192.816 316.524 194.12Z" fill="#C667BC"/>
<path d="M395.076 271.212C368.803 288.274 331.168 282.036 313.46 254.769C304.599 241.124 299.263 225.278 299.436 210.712C301.219 192.015 304.721 185.916 313.076 178.711C310.338 190.218 310.633 229.919 318.396 240.662C356.691 287.427 421.35 254.15 395.076 271.212Z" fill="#4E3B21"/>
<path d="M323 375.999L364 380.499L395 374.999L388 380.499L359 387.499L323 375.999Z" fill="url(#paint37_linear_864_151)"/>
<path d="M217.337 342.064L206.151 302.364L189.438 275.682L197.16 280.112L214.514 304.378L217.337 342.064Z" fill="url(#paint38_linear_864_151)"/>
</g>
<defs>
<radialGradient id="paint0_radial_864_151" cx="0" cy="0" r="1" gradientUnits="userSpaceOnUse" gradientTransform="translate(96.5634 46.7727) rotate(67.0387) scale(78.4424 147.721)">
<stop stop-color="#A08464"/>
<stop offset="1" stop-color="#645143"/>
</radialGradient>
<linearGradient id="paint1_linear_864_151" x1="340.944" y1="488.631" x2="353.022" y2="470.575" gradientUnits="userSpaceOnUse">
<stop stop-color="#493A48"/>
<stop offset="1" stop-color="#706D75"/>
</linearGradient>
<linearGradient id="paint2_linear_864_151" x1="419.414" y1="271.069" x2="411.866" y2="242.586" gradientUnits="userSpaceOnUse">
<stop stop-color="#706D75"/>
<stop offset="1" stop-color="#B8B2BF"/>
</linearGradient>
<linearGradient id="paint3_linear_864_151" x1="424.407" y1="307.989" x2="421.325" y2="278.76" gradientUnits="userSpaceOnUse">
<stop stop-color="#706D75"/>
<stop offset="1" stop-color="#B8B2BF"/>
</linearGradient>
<linearGradient id="paint4_linear_864_151" x1="433.515" y1="324.841" x2="414.302" y2="334.421" gradientUnits="userSpaceOnUse">
<stop stop-color="#706D75"/>
<stop offset="1" stop-color="#B8B2BF"/>
</linearGradient>
<linearGradient id="paint5_linear_864_151" x1="419.51" y1="379.855" x2="425.058" y2="351.457" gradientUnits="userSpaceOnUse">
<stop stop-color="#706D75"/>
<stop offset="1" stop-color="#B8B2BF"/>
</linearGradient>
<linearGradient id="paint6_linear_864_151" x1="408.357" y1="415.056" x2="420.095" y2="389.226" gradientUnits="userSpaceOnUse">
<stop stop-color="#706D75"/>
<stop offset="1" stop-color="#B8B2BF"/>
</linearGradient>
<linearGradient id="paint7_linear_864_151" x1="389.421" y1="444.704" x2="405.564" y2="421.996" gradientUnits="userSpaceOnUse">
<stop stop-color="#706D75"/>
<stop offset="1" stop-color="#B8B2BF"/>
</linearGradient>
<linearGradient id="paint8_linear_864_151" x1="362.602" y1="468.428" x2="383.63" y2="451.132" gradientUnits="userSpaceOnUse">
<stop stop-color="#706D75"/>
<stop offset="1" stop-color="#B8B2BF"/>
</linearGradient>
<linearGradient id="paint9_linear_864_151" x1="415.481" y1="254.861" x2="407.033" y2="226.632" gradientUnits="userSpaceOnUse">
<stop stop-color="#706D75"/>
<stop offset="1" stop-color="#B8B2BF"/>
</linearGradient>
<linearGradient id="paint10_linear_864_151" x1="422.305" y1="289.868" x2="416.955" y2="260.914" gradientUnits="userSpaceOnUse">
<stop stop-color="#706D75"/>
<stop offset="1" stop-color="#B8B2BF"/>
</linearGradient>
<linearGradient id="paint11_linear_864_151" x1="424.122" y1="327.218" x2="424.095" y2="297.943" gradientUnits="userSpaceOnUse">
<stop stop-color="#706D75"/>
<stop offset="1" stop-color="#B8B2BF"/>
</linearGradient>
<linearGradient id="paint12_linear_864_151" x1="422.013" y1="363.041" x2="425.338" y2="334.142" gradientUnits="userSpaceOnUse">
<stop stop-color="#706D75"/>
<stop offset="1" stop-color="#B8B2BF"/>
</linearGradient>
<linearGradient id="paint13_linear_864_151" x1="414.553" y1="398.359" x2="422.351" y2="370.684" gradientUnits="userSpaceOnUse">
<stop stop-color="#706D75"/>
<stop offset="1" stop-color="#B8B2BF"/>
</linearGradient>
<linearGradient id="paint14_linear_864_151" x1="398.015" y1="429.775" x2="414.031" y2="406.958" gradientUnits="userSpaceOnUse">
<stop stop-color="#706D75"/>
<stop offset="1" stop-color="#B8B2BF"/>
</linearGradient>
<linearGradient id="paint15_linear_864_151" x1="374.469" y1="456.082" x2="395.431" y2="438.693" gradientUnits="userSpaceOnUse">
<stop stop-color="#706D75"/>
<stop offset="1" stop-color="#B8B2BF"/>
</linearGradient>
<linearGradient id="paint16_linear_864_151" x1="347.84" y1="479.579" x2="369.824" y2="463.721" gradientUnits="userSpaceOnUse">
<stop stop-color="#706D75"/>
<stop offset="1" stop-color="#B8B2BF"/>
</linearGradient>
<linearGradient id="paint17_linear_864_151" x1="305.076" y1="340.427" x2="305.076" y2="500.427" gradientUnits="userSpaceOnUse">
<stop offset="0.275" stop-color="#C1B58F"/>
<stop offset="1" stop-color="#A59870"/>
</linearGradient>
<linearGradient id="paint18_linear_864_151" x1="250.576" y1="67.7114" x2="127.935" y2="191.572" gradientUnits="userSpaceOnUse">
<stop stop-color="#A59870"/>
<stop offset="0.264157" stop-color="#C1B58F"/>
<stop offset="1" stop-color="#A59870"/>
</linearGradient>
<linearGradient id="paint19_linear_864_151" x1="309.294" y1="454.79" x2="304.858" y2="518.229" gradientUnits="userSpaceOnUse">
<stop stop-color="#908564"/>
<stop offset="1" stop-color="#9D967F"/>
</linearGradient>
<radialGradient id="paint20_radial_864_151" cx="0" cy="0" r="1" gradientUnits="userSpaceOnUse" gradientTransform="translate(339.424 249.122) rotate(101.173) scale(169.518 168.946)">
<stop stop-color="#A08464"/>
<stop offset="1" stop-color="#645143"/>
</radialGradient>
<linearGradient id="paint21_linear_864_151" x1="272.45" y1="291.267" x2="280.914" y2="314.053" gradientUnits="userSpaceOnUse">
<stop stop-color="#493A48"/>
<stop offset="1" stop-color="#706D75"/>
</linearGradient>
<linearGradient id="paint22_linear_864_151" x1="274.383" y1="503.27" x2="277.586" y2="481.096" gradientUnits="userSpaceOnUse">
<stop stop-color="#878A9C"/>
<stop offset="1" stop-color="#706D75"/>
</linearGradient>
<linearGradient id="paint23_linear_864_151" x1="259.893" y1="338.961" x2="273.307" y2="318.692" gradientUnits="userSpaceOnUse">
<stop stop-color="#706D75"/>
<stop offset="1" stop-color="#B8B2BF"/>
</linearGradient>
<linearGradient id="paint24_linear_864_151" x1="250.939" y1="369.66" x2="262.61" y2="347.886" gradientUnits="userSpaceOnUse">
<stop stop-color="#706D75"/>
<stop offset="1" stop-color="#B8B2BF"/>
</linearGradient>
<linearGradient id="paint25_linear_864_151" x1="247.293" y1="402.411" x2="256.561" y2="378.771" gradientUnits="userSpaceOnUse">
<stop stop-color="#706D75"/>
<stop offset="1" stop-color="#B8B2BF"/>
</linearGradient>
<linearGradient id="paint26_linear_864_151" x1="248.268" y1="435.895" x2="255.018" y2="410.592" gradientUnits="userSpaceOnUse">
<stop stop-color="#706D75"/>
<stop offset="1" stop-color="#B8B2BF"/>
</linearGradient>
<linearGradient id="paint27_linear_864_151" x1="260.293" y1="472.665" x2="258.664" y2="443.986" gradientUnits="userSpaceOnUse">
<stop stop-color="#706D75"/>
<stop offset="1" stop-color="#B8B2BF"/>
</linearGradient>
<linearGradient id="paint28_linear_864_151" x1="265.407" y1="326.117" x2="279.223" y2="306.21" gradientUnits="userSpaceOnUse">
<stop stop-color="#706D75"/>
<stop offset="1" stop-color="#B8B2BF"/>
</linearGradient>
<linearGradient id="paint29_linear_864_151" x1="255.238" y1="354.588" x2="267.653" y2="333.442" gradientUnits="userSpaceOnUse">
<stop stop-color="#706D75"/>
<stop offset="1" stop-color="#B8B2BF"/>
</linearGradient>
<linearGradient id="paint30_linear_864_151" x1="249.16" y1="386.915" x2="259.291" y2="363.915" gradientUnits="userSpaceOnUse">
<stop stop-color="#706D75"/>
<stop offset="1" stop-color="#B8B2BF"/>
</linearGradient>
<linearGradient id="paint31_linear_864_151" x1="247.485" y1="419.78" x2="255.698" y2="395.406" gradientUnits="userSpaceOnUse">
<stop stop-color="#706D75"/>
<stop offset="1" stop-color="#B8B2BF"/>
</linearGradient>
<linearGradient id="paint32_linear_864_151" x1="253.964" y1="455.013" x2="256.555" y2="427.632" gradientUnits="userSpaceOnUse">
<stop stop-color="#706D75"/>
<stop offset="1" stop-color="#B8B2BF"/>
</linearGradient>
<linearGradient id="paint33_linear_864_151" x1="271" y1="489.987" x2="263.04" y2="460.792" gradientUnits="userSpaceOnUse">
<stop stop-color="#706D75"/>
<stop offset="1" stop-color="#B8B2BF"/>
</linearGradient>
<linearGradient id="paint34_linear_864_151" x1="410.576" y1="132.211" x2="262.576" y2="330.711" gradientUnits="userSpaceOnUse">
<stop stop-color="#79634C"/>
<stop offset="1" stop-color="#77604B"/>
</linearGradient>
<linearGradient id="paint35_linear_864_151" x1="276.214" y1="484.352" x2="274.955" y2="502.355" gradientUnits="userSpaceOnUse">
<stop stop-color="#A35CAB"/>
<stop offset="1" stop-color="#77457D"/>
</linearGradient>
<linearGradient id="paint36_linear_864_151" x1="347.222" y1="472.948" x2="346.023" y2="490.094" gradientUnits="userSpaceOnUse">
<stop stop-color="#A35CAB"/>
<stop offset="1" stop-color="#77457D"/>
</linearGradient>
<linearGradient id="paint37_linear_864_151" x1="360.5" y1="375.999" x2="358" y2="400.999" gradientUnits="userSpaceOnUse">
<stop stop-color="#665343"/>
<stop offset="1" stop-color="#624F40"/>
</linearGradient>
<linearGradient id="paint38_linear_864_151" x1="203.29" y1="307.295" x2="224.5" y2="300.499" gradientUnits="userSpaceOnUse">
<stop stop-color="#5C4A3D"/>
<stop offset="1" stop-color="#5C4A3C"/>
</linearGradient>
<clipPath id="clip0_864_151">
<rect width="520" height="560" fill="white" transform="matrix(-1 0 0 1 520 0)"/>
</clipPath>
</defs>
</svg>
