<svg width="86" height="173" viewBox="0 0 86 173" fill="none" xmlns="http://www.w3.org/2000/svg">
<path d="M0.936152 126.131C0.2916 128.065 -0.881466 139.007 1.10156 141.5C3.43466 141.452 4.09536 142.36 5.28701 142.36C6.31501 142.36 7.35685 142.414 8.3831 142.36C11.1716 142.214 13.9754 141.213 16.7608 140.903C18.595 140.7 20.572 138.212 22.2245 137.342C23.4827 136.68 24.1433 135.396 25.3408 134.711C26.3645 134.126 30.9292 128.955 31.6015 128C35.6022 122.314 37.9124 120.627 40.3558 114.03C42.5342 108.149 47.3931 103.037 47.7217 96.4654C47.8034 94.8309 48.4502 93.2607 48.4502 91.5683V86.8331C48.4502 83.8652 48.5984 80.853 48.4502 77.8888C48.3101 75.088 47.5113 72.297 46.7099 69.5921C45.772 66.4267 45.7705 62.7918 44.5244 59.6765C43.7362 57.7059 43.6189 54.8445 43.1888 52.7559C42.6312 50.0473 42.368 47.0906 41.9747 44.3377C41.3304 39.8276 40.7997 35.1198 39.7892 30.6987C38.9348 26.9606 38.5692 22.696 38.2513 18.881C37.8966 14.6254 35.1173 4.1264 34.6015 0C34.519 2.31239 30.9805 15.0966 30.521 17.3428C29.481 22.4272 28.2764 27.078 26.231 31.9127C25.0352 34.7392 24.4327 37.7631 23.317 40.6141C22.4221 42.9013 21.6067 45.5077 21.0506 47.899C19.7028 53.6947 18.2176 59.5182 18.2176 65.5447C18.2176 80.0238 17.4065 96.2177 9.92089 108.971C8.17066 111.953 6.56078 115.21 4.94286 118.279C3.56021 120.903 1.87913 123.302 0.936152 126.131Z" fill="#C34FBC"/>
<path d="M48.136 171.132C48.1857 171.147 48.2347 171.162 48.2831 171.177C48.2542 171.206 48.2041 171.188 48.136 171.132C45.7872 170.392 42.1477 168.238 40.4721 166.563C39.6011 165.692 38.1654 164.922 37.0118 164.418C34.5417 163.337 32.123 162.497 29.7268 161.14C26.035 159.048 22.3533 157.157 18.9613 154.563C16.9544 153.028 15.1147 151.395 12.8906 150.172C11.0486 149.159 9.07838 148.677 7.3257 147.44C4.91507 145.738 1.84991 144.362 1.10156 141.5C3.43466 141.452 3.90991 142 5.10156 142C6.12956 142 7.18997 142.415 8.21622 142.361C11.0048 142.214 13.8085 141.213 16.5939 140.904C18.4281 140.7 20.4051 138.212 22.0576 137.342C23.3158 136.68 23.9764 135.396 25.1739 134.712C26.1976 134.127 30.7623 128.955 31.4347 128C32.335 130.363 34.2606 134.571 34.7854 137.038C35.7009 141.34 37.6503 145.338 38.8529 149.564C40.207 154.323 41.3566 159.222 43.6892 163.628C44.0546 164.318 47.335 170.464 48.136 171.132Z" fill="#832FA0"/>
<path d="M65.6362 164.377C67.2792 163.08 69.6618 161.85 70.8368 160.087C70.6016 158 70.1687 154.435 70.1687 153.369C70.1687 151.463 69.1738 149.683 69.076 147.824C69.0204 146.769 68.5212 145.542 68.1653 144.546C67.7992 143.521 68.0135 142.407 67.6999 141.349C67.2025 139.67 67.1197 137.398 66.9107 135.622C66.47 131.876 66.8126 128.04 66.1417 124.351C65.6135 121.445 66.162 118.544 66.162 115.771C66.162 112.108 67.2547 108.71 67.2547 105.127C67.2547 101.334 67.619 97.5862 67.619 93.7539C67.619 89.2172 67.9832 84.7917 67.9832 80.2768C67.9832 77.9789 67.0905 75.649 66.8702 73.3359C66.7448 72.0193 65.527 69.342 65.6016 68C63.6134 68.9176 59.5968 71.5237 57.6224 72.5868C55.9887 73.4665 54.6224 74.8239 53.0896 75.865C52.6663 76.1525 47.2141 77.679 47.9502 77.8893C48.0984 80.8535 47.9502 83.8656 47.9502 86.8335V91.5687C47.9502 93.2611 47.3034 94.8313 47.2217 96.4658C46.8931 103.037 42.0342 108.149 39.8558 114.031C37.4124 120.628 35.1023 122.315 31.1016 128C32.0019 130.363 33.9275 134.571 34.4524 137.038C35.3678 141.34 37.3172 145.338 38.5198 149.564C39.8739 154.323 41.0235 159.222 43.3561 163.628C43.7526 164.377 47.58 171.547 47.9501 171.177C49.8578 171.742 54.898 173.414 56.7122 171.298C57.5355 170.337 59.2598 169.397 60.3142 168.607C62.1343 167.241 63.8381 165.797 65.6362 164.377Z" fill="#9440A2"/>
<path d="M72.2221 73.2537C72.2221 70.5335 72.6016 68.4998 72.6016 65.4998C72.1016 62.9997 65.9408 67.0665 65.1048 67.4523C65.0303 68.7943 66.2481 71.4716 66.3735 72.7882C66.5938 75.1012 67.4865 77.4312 67.4865 79.7291C67.4865 84.244 67.1223 88.6694 67.1223 93.2062C67.1223 97.0385 66.758 100.786 66.758 104.579C66.758 108.162 65.6653 111.56 65.6653 115.223C65.6653 117.997 65.1168 120.898 65.645 123.803C66.3159 127.493 65.9733 131.328 66.414 135.074C66.6229 136.85 66.7058 139.122 67.2032 140.801C67.5168 141.86 67.3025 142.973 67.6686 143.998C68.0245 144.995 68.5237 146.221 68.5792 147.277C68.6771 149.135 69.672 150.915 69.672 152.821C69.672 153.888 70.3663 158.413 70.6016 160.5C72.997 156.907 74.8151 152.192 77.1192 148.572C78.2686 146.765 78.8713 144.534 79.9522 142.663C80.9264 140.977 81.9917 138.972 82.7043 137.159C83.93 134.039 85.6992 130.801 85.6992 127.405C85.6992 123.162 84.1667 119.117 83.2304 115.021C82.3415 111.132 81.5595 107.221 80.5188 103.405C79.6623 100.265 79.4671 96.972 78.4952 93.8134C77.328 90.02 76.1505 86.2708 74.8527 82.5217C73.7742 79.406 72.2221 76.6642 72.2221 73.2537Z" fill="#8A3B96"/>
<path d="M43.9636 10.5031C42.3717 9.11026 35.9085 1.74256 34.6016 0C35.1174 4.1264 37.3967 14.6254 37.7513 18.881C38.0692 22.696 38.4348 26.9606 39.2892 30.6987C40.2998 35.1198 40.8304 39.8276 41.4747 44.3377C41.868 47.0906 42.1312 50.0473 42.6889 52.7559C43.1189 54.8445 43.2362 57.7059 44.0244 59.6765C45.2705 62.7918 45.272 66.4267 46.2099 69.5921C47.0113 72.297 47.8102 75.088 47.9502 77.8888C50.6016 79 52.6663 76.1521 53.0896 75.8646C54.6224 74.8235 55.9887 73.4661 57.6224 72.5864C59.5968 71.5232 63.6134 68.9172 65.6016 67.9995C66.4375 67.6137 71.9034 66.8743 72.6016 66C71.9577 63.8269 72.4315 60.7134 71.2213 58.7252C70.0062 56.729 68.8188 54.8308 67.7812 52.7556C65.9764 49.146 64.0704 45.6598 62.702 41.8283C61.4398 38.2939 59.2311 35.7289 57.4204 32.5602C55.543 29.2747 53.6187 25.9456 51.5723 22.7053C49.8466 19.973 48.6376 16.8767 46.655 14.3277C45.6472 13.032 45.2319 11.6129 43.9636 10.5031Z" fill="#C667BC"/>
</svg>
