<svg width="577" height="750" viewBox="0 0 577 750" fill="none" xmlns="http://www.w3.org/2000/svg">
<ellipse cx="297.5" cy="553.554" rx="172.5" ry="71.4459" fill="#E9DDB9" fill-opacity="0.05"/>
<g filter="url(#filter0_d_813_986)">
<ellipse cx="296.213" cy="546.474" rx="171.213" ry="78.5261" stroke="#7FD71B" stroke-opacity="0.01" stroke-width="106.292"/>
</g>
<path d="M184.444 429.315L178.91 138.091C177.665 118.342 179.476 107.138 239.787 84.1601C315.294 63.7809 337.2 81.5061 358.774 138.091C358.774 138.091 370.149 122.428 375.683 144C381.217 165.572 367.075 450.887 367.075 450.887C362.015 492.786 344.711 529.986 303.204 529.986C261.697 529.986 188.247 533.529 184.444 429.315Z" fill="url(#paint0_linear_813_986)"/>
<path d="M268.482 176.675L235.183 185L239.496 399.343L267.245 454.842L278.345 529.765L294.994 499.241L264.47 388.243L268.482 176.675Z" fill="#837A61"/>
<path d="M372.69 151.5H359.371L356.041 490.168L366.031 407.438L359.371 401.074L372.69 151.5Z" fill="#A09881"/>
<path d="M192.321 162.771L178.674 123.922C177.426 108.68 179.242 100.033 239.723 82.298C315.443 66.5692 337.411 80.2496 359.045 123.922C359.045 123.922 370.145 123.922 375.695 140.572C381.245 157.221 359.045 151.672 359.045 151.672C353.971 184.009 336.618 171.096 294.994 171.096C253.37 171.096 239.723 201.62 192.321 162.771Z" fill="url(#paint1_linear_813_986)"/>
<path d="M332.617 138.82L339.683 101.133C335.452 94.3263 332.132 91.4555 325.55 87L318.484 119.977L290.218 145.887L236.042 183.574C241.713 183.805 248.597 182.398 269.019 176.508L332.617 138.82Z" fill="#928A74"/>
<path d="M242.269 318.87L267.243 313.32L272.793 327.195L270.018 366.044L239.494 371.594L206.195 363.269V388.243L167.346 379.919L150.696 354.944V274.471L178.445 243.947V266.146L167.346 280.021L181.22 296.671L199.774 303.726L206.195 299.445L222.844 307.77L225.619 327.195L242.269 332.745V318.87Z" fill="url(#paint2_linear_813_986)"/>
<path d="M272.793 327.195L267.243 313.32L242.269 318.87V329.97L225.619 327.195L222.844 307.771L206.194 299.446L197.87 304.996L214.519 310.546L220.069 329.97L247.819 335.52V327.195H272.793Z" fill="#837B63"/>
<path d="M178.445 266.146V243.947L150.696 274.471L167.346 293.896L172.895 299.445L197.87 310.545V304.995H203.42L181.22 296.671V288.346L167.346 280.021L178.445 266.146Z" fill="#837B63"/>
<path d="M206.197 363.269V388.243L214.521 379.918V366.044L206.197 363.269Z" fill="#837B63"/>
<path d="M178.445 266.147L167.345 280.021L178.445 288.346V266.147Z" fill="#8D866F"/>
<path d="M392.116 205H375.466L378.241 229.974L339.392 252.174L342.167 307.673L358.817 313.222L367.141 263.274L403.215 232.749L392.116 205Z" fill="#837B63"/>
<path d="M367.141 343.747L378.241 349.297L372.691 313.222L386.566 293.798L369.916 304.898L364.366 313.222L367.141 343.747Z" fill="#837B63"/>
<path d="M403.215 232.749L367.14 263.274L358.816 313.222L386.565 293.798L372.69 313.222L378.24 349.297L392.115 310.447L403.215 232.749Z" fill="#948A6C"/>
<path d="M134.047 517.917L159.022 440.219L172.896 429.119L200.646 442.994L211.745 481.843L306.093 498.492L317.193 462.418L342.167 459.643L353.267 470.743L367.142 451.319L369.917 429.119L400.441 440.219L403.216 492.943L389.341 534.567L400.441 548.441L369.917 584.515H311.643L306.093 567.866L192.321 534.567L178.446 542.891L134.047 517.917Z" fill="url(#paint3_linear_813_986)"/>
<path d="M235.911 536.74C238.196 544.883 237.962 551.861 235.903 560.659C230.073 555.389 226.14 548.39 223.38 542.709C220.619 537.028 218.085 524.127 224.266 520.692C230.445 517.258 233.623 528.585 235.908 536.728L235.911 536.74Z" fill="#A0B479"/>
<path d="M250.151 545.603C246.793 553.09 242.264 557.76 235.224 562.242C234.119 553.932 235.523 545.93 236.986 539.778C238.449 533.626 244.588 522.63 251.388 525.162C258.185 527.693 253.514 538.107 250.156 545.593L250.151 545.603Z" fill="#A0B479"/>
<path d="M225.332 544.891C231.4 549.805 234.233 554.968 235.901 562.246C227.278 560.957 219.939 557.588 214.446 554.668C208.954 551.747 200.514 543.489 205.666 538.311C210.816 533.135 219.256 539.971 225.323 544.884L225.332 544.891Z" fill="#A0B479"/>
<path d="M258.288 555.819C251.058 560.208 244.274 561.858 235.246 562.239C238.755 555.207 244.44 549.538 249.17 545.352C253.9 541.166 265.645 535.259 270.616 540.289C275.583 545.318 265.527 551.423 258.298 555.813L258.288 555.819Z" fill="#A0B479"/>
<path d="M195.098 448.544L159.023 440.219L172.898 429.119L200.647 442.994L211.747 481.843L306.095 498.492L317.195 462.418L342.169 459.643L344.944 462.418L322.745 470.743L306.095 509.592L208.972 484.618L195.098 448.544Z" fill="#837B63"/>
<path d="M383.791 434.669L369.916 429.119L367.141 451.319L353.267 470.743L378.241 448.544L383.791 434.669Z" fill="#837B63"/>
<path d="M325.516 531.792L333.841 509.592L344.941 506.817L364.365 517.917L358.816 551.216L336.616 548.441L325.516 531.792Z" fill="url(#paint4_linear_813_986)"/>
<path d="M156.245 495.717L159.02 470.743L170.119 467.968L189.544 479.068L183.994 498.492L161.795 509.592L156.245 495.717Z" fill="url(#paint5_linear_813_986)"/>
<path d="M162.82 347.945L159.02 331.996L173.03 318.648L188.173 322.82L190.697 347.145L175.67 356.971L162.82 347.945Z" fill="url(#paint6_linear_813_986)"/>
<path d="M389.056 280.55L385.256 264.602L399.265 251.253L405.991 254.949L400.441 279.924L394.891 285.474L389.056 280.55Z" fill="url(#paint7_linear_813_986)"/>
<path opacity="0.55" d="M274.293 -2.66973e-05C264.152 20.5763 248.386 34.4588 204.047 59.6031C228.356 84.3762 241.838 99.392 263.65 129.849C286.816 103.037 303.057 92.4119 333.897 70.2462C306.249 46.9752 293.895 30.5169 274.293 -2.66973e-05Z" fill="url(#paint8_linear_813_986)"/>
<path d="M277.77 25.0261C259.041 27.098 260.422 53.6912 227.551 63.7622C248.188 71.6338 245.365 91.1293 267.849 106.7C275.023 80.738 306.613 92.9309 311.305 71.0837C289.93 60.0473 291.549 42.4612 277.77 25.0261Z" fill="url(#paint9_linear_813_986)"/>
<defs>
<filter id="filter0_d_813_986" x="0.987579" y="343.935" width="590.45" height="405.077" filterUnits="userSpaceOnUse" color-interpolation-filters="sRGB">
<feFlood flood-opacity="0" result="BackgroundImageFix"/>
<feColorMatrix in="SourceAlpha" type="matrix" values="0 0 0 0 0 0 0 0 0 0 0 0 0 0 0 0 0 0 127 0" result="hardAlpha"/>
<feOffset/>
<feGaussianBlur stdDeviation="35.4333"/>
<feColorMatrix type="matrix" values="0 0 0 0 0.490196 0 0 0 0 0.427451 0 0 0 0 0.556863 0 0 0 0.3 0"/>
<feBlend mode="normal" in2="BackgroundImageFix" result="effect1_dropShadow_813_986"/>
<feBlend mode="normal" in="SourceGraphic" in2="effect1_dropShadow_813_986" result="shape"/>
</filter>
<linearGradient id="paint0_linear_813_986" x1="283.834" y1="231.57" x2="273.455" y2="529.853" gradientUnits="userSpaceOnUse">
<stop offset="0.307345" stop-color="#948A6C"/>
<stop offset="0.745124" stop-color="#948A6C"/>
</linearGradient>
<linearGradient id="paint1_linear_813_986" x1="288.746" y1="96.1728" x2="236.72" y2="168.321" gradientUnits="userSpaceOnUse">
<stop stop-color="#948A6C"/>
<stop offset="1" stop-color="#AAA082"/>
</linearGradient>
<linearGradient id="paint2_linear_813_986" x1="220.069" y1="327.195" x2="211.745" y2="388.243" gradientUnits="userSpaceOnUse">
<stop stop-color="#948B6D"/>
<stop offset="1" stop-color="#A69D80"/>
</linearGradient>
<linearGradient id="paint3_linear_813_986" x1="268.632" y1="429.119" x2="268.632" y2="584.515" gradientUnits="userSpaceOnUse">
<stop stop-color="#908564"/>
<stop offset="1" stop-color="#9D967F"/>
</linearGradient>
<linearGradient id="paint4_linear_813_986" x1="344.941" y1="506.817" x2="344.941" y2="551.216" gradientUnits="userSpaceOnUse">
<stop stop-color="#BC525F"/>
<stop offset="1" stop-color="#752743"/>
</linearGradient>
<linearGradient id="paint5_linear_813_986" x1="172.894" y1="467.968" x2="172.894" y2="509.592" gradientUnits="userSpaceOnUse">
<stop stop-color="#BC525F"/>
<stop offset="1" stop-color="#752743"/>
</linearGradient>
<linearGradient id="paint6_linear_813_986" x1="172.476" y1="318.719" x2="177.383" y2="356.75" gradientUnits="userSpaceOnUse">
<stop stop-color="#BC525F"/>
<stop offset="1" stop-color="#752743"/>
</linearGradient>
<linearGradient id="paint7_linear_813_986" x1="394.601" y1="251.855" x2="398.873" y2="284.96" gradientUnits="userSpaceOnUse">
<stop stop-color="#BC525F"/>
<stop offset="1" stop-color="#752743"/>
</linearGradient>
<linearGradient id="paint8_linear_813_986" x1="254.667" y1="28.3419" x2="266.207" y2="111.73" gradientUnits="userSpaceOnUse">
<stop stop-color="#EFEFEF"/>
<stop offset="0.645" stop-color="#D4D4D4"/>
</linearGradient>
<linearGradient id="paint9_linear_813_986" x1="262.305" y1="42.198" x2="270.178" y2="99.6833" gradientUnits="userSpaceOnUse">
<stop stop-color="#EFEFEF"/>
<stop offset="0.645" stop-color="#D4D4D4"/>
</linearGradient>
</defs>
</svg>
