<svg width="837" height="212" viewBox="0 0 837 212" fill="none" xmlns="http://www.w3.org/2000/svg">
<path d="M0.0243431 201.039L1.07377 116.5L825.523 121.988C826.552 121.995 827.408 122.781 827.502 123.805L834.659 201.884C834.764 203.031 833.854 204.031 832.702 204.066C510.668 213.93 324.016 213.356 1.9842 203.063C0.895465 203.029 0.0108223 202.128 0.0243431 201.039Z" fill="#A0915F"/>
<path d="M0.537109 75.0047V7.65648C0.537109 6.56913 1.41045 5.68089 2.49753 5.65689C132.462 2.78761 250.869 0.475146 353.825 1.68321C367.047 1.83836 368.584 7.7591 381.716 7.82295C394.123 7.88328 396.049 1.57326 408.445 1.68321C535.764 -4.08128 665.982 6.27932 824.477 12.915C825.548 12.9599 826.403 13.8417 826.403 14.9139V75.8854C826.403 76.317 826.543 76.7371 826.801 77.0828L836.053 89.4597C836.608 90.2021 836.581 91.2284 835.986 91.9397L820.833 110.074C820.297 110.715 820.216 111.621 820.63 112.346L826.169 122.069C826.323 122.34 826.412 122.642 826.428 122.953L830.19 193.333C830.249 194.453 829.35 195.405 828.228 195.439C506.158 205.31 324.55 205.729 2.49774 195.438C1.41865 195.404 0.537109 194.518 0.537109 193.439V115.128L27.8063 96.8903L0.537109 75.0047Z" fill="#BBAE85"/>
<path d="M205.824 26.4648L167.455 27.0874L129.529 31.4419L157.182 35.5998L231.254 33.4865L191.27 29.9305L205.824 26.4648Z" fill="#A0915F"/>
<path d="M31.1389 178.931L40.803 174.501L0.536673 180L0.536547 185L48.3194 183.5L41.8768 188.5L101.471 178.5L69.2578 174.501L31.1389 178.931Z" fill="#A0915F"/>
<path d="M543.722 31.3728L534.058 26.942L574.325 37.4414L526.542 35.9414L532.985 40.9414L473.391 30.9414L505.604 26.942L543.722 31.3728Z" fill="#A0915F"/>
<path d="M385.481 171.5L316.224 166.5L385.481 161L464.403 166.5L385.481 171.5Z" fill="#A0915F"/>
<path d="M722.127 68.4468L663.534 72.748L721.472 63.484L788.228 58.4893L722.127 68.4468Z" fill="#A0915F"/>
<path d="M720.713 177.056L674.541 174.056L692.258 178.987L642.328 189.056L727.692 184.556L757.758 172.056L720.713 177.056Z" fill="#A0915F"/>
<path d="M796.734 122L835.926 92L821.008 110.206C820.599 110.704 820.456 111.369 820.623 111.992L820.894 113L788.681 144L811.23 118.5L796.734 122Z" fill="#A0915F"/>
<path d="M38.6558 94.5L0.537109 72V75L27.3812 97L0.537109 115L32.2132 101L66.0368 106.5L56.9098 101L108.451 97L38.6558 94.5Z" fill="#A0915F"/>
<path d="M138.729 158.776C134.761 158.776 125.033 159.032 122.601 155.832C120.809 153.528 121.065 150.2 120.937 147.256C119.913 129.592 119.401 111.928 118.889 94.136C118.761 90.04 117.865 71.096 118.761 67C119.145 65.208 120.937 63.8 122.729 63.032C129.257 60.216 136.425 59.064 143.593 58.04C153.321 56.76 163.689 56.248 173.161 58.808C179.305 60.472 185.321 63.544 189.801 68.024C194.153 72.504 197.225 78.392 198.249 84.536C199.273 90.296 198.377 96.568 195.817 101.688C192.617 108.216 186.217 113.464 179.433 116.024C184.937 124.984 193.257 132.024 199.913 140.088C200.169 140.344 200.425 140.472 200.553 140.728C200.809 141.88 199.017 144.056 198.121 145.08C193.385 150.456 186.857 154.296 179.817 155.576C177.897 155.96 175.849 156.088 174.057 155.448C172.649 154.936 171.625 153.912 170.729 152.76C168.041 149.304 156.393 130.616 154.345 126.648C154.601 134.072 154.985 141.496 155.753 148.792C155.881 150.328 156.521 151.864 155.881 153.272C153.961 158.136 143.977 158.776 138.729 158.776ZM150.249 100.408C153.449 100.408 156.777 100.792 159.977 100.152C162.665 99.64 165.481 98.232 166.889 95.928C168.809 92.472 168.681 87.608 167.017 84.024C164.713 79.032 155.753 80.056 150.249 81.08C149.993 87.48 149.993 94.008 150.249 100.408ZM270.695 148.408C263.783 150.712 233.959 149.304 226.535 148.92C224.359 148.92 222.183 149.176 220.007 148.792C218.983 148.664 217.831 148.408 217.191 147.64C216.679 147.128 216.423 146.36 216.423 145.72C215.655 135.736 212.199 79.672 210.663 69.816C210.407 68.024 209.895 64.952 211.559 64.184C215.399 62.136 220.007 62.008 224.231 61.368C240.743 59.448 257.255 58.68 273.767 58.04C274.535 58.04 275.303 58.04 275.943 58.424C277.735 59.448 277.351 63.8 277.351 65.848C277.223 70.712 276.839 75.448 276.583 80.312C276.455 82.232 275.559 84.408 273.511 84.408C263.783 84.408 254.183 84.92 244.455 85.304C244.455 87.608 244.583 90.04 244.711 92.472C246.759 92.344 258.407 92.216 260.327 92.088C262.887 91.96 266.471 91.448 266.471 94.008C266.599 95.8 266.343 106.808 266.215 108.6C266.215 111.288 266.215 114.744 263.527 114.744C257.127 114.744 250.727 114.488 244.455 115C244.071 116.536 244.583 123.704 244.711 125.368C253.927 124.6 263.143 124.856 272.359 124.728C274.919 124.728 274.919 127.928 274.791 130.488C274.663 132.28 274.151 142.52 274.023 144.312C273.895 146.104 272.487 147.768 270.695 148.408ZM333.407 153.528C324.447 155.064 314.719 154.296 306.271 151.224C302.431 149.816 298.847 147.896 295.775 145.464C290.015 140.856 289.119 129.72 292.063 123.064C293.343 120.248 295.391 117.304 298.335 116.28C301.791 115 305.759 116.152 309.343 116.792C311.263 117.048 313.183 117.304 314.975 117.688C316.639 118.2 318.431 118.968 319.199 120.376C320.223 122.04 320.223 124.216 319.967 126.136C319.711 127.672 320.095 129.72 321.247 130.744C323.935 133.048 329.311 132.792 332.127 130.744C333.663 129.72 334.303 127.672 334.303 125.88C334.303 123.32 332.895 120.76 330.975 119.224C325.983 115.512 319.327 115.128 313.311 113.336C306.271 111.288 299.103 107.832 294.111 102.456C290.911 98.872 288.863 94.008 288.095 89.144C286.943 81.848 288.351 73.656 291.807 67C293.471 63.8 295.775 60.728 298.463 58.296C302.047 55.096 306.271 52.664 310.623 51C318.687 48.184 327.647 47.544 336.095 48.44C342.751 49.08 349.535 51.512 354.783 55.736C359.391 59.448 362.847 65.08 363.743 70.84C364.511 75.448 364.383 80.44 363.359 85.048C362.847 87.608 361.951 90.168 360.287 92.088C358.879 93.624 356.703 94.392 354.783 94.904C351.839 95.544 348.767 95.8 345.695 95.8C343.007 95.8 340.191 95.544 337.631 94.648C336.095 94.136 334.559 93.24 333.663 91.96C332.767 90.936 332.383 89.528 332.127 88.248C331.487 85.176 331.999 81.976 331.743 78.904C331.615 77.24 330.975 75.576 329.823 74.424C328.543 73.272 326.623 72.888 324.959 73.272C318.687 74.552 314.847 82.36 317.535 87.992C319.455 91.96 323.423 94.776 327.391 96.696C333.407 99.64 340.063 100.792 346.335 103.352C350.175 104.888 354.143 107.192 356.831 110.52C362.335 117.432 363.487 126.392 360.031 134.584C357.599 140.344 352.863 145.336 347.487 148.536C343.135 151.096 338.271 152.632 333.407 153.528ZM423.277 152.632C415.469 153.272 407.533 153.016 399.725 152.632C398.573 152.632 397.165 152.12 396.525 151.224C395.629 150.072 395.501 148.664 395.373 147.256C394.093 127.16 395.373 106.936 397.037 86.968C391.917 86.968 386.925 87.352 381.805 87.608C378.733 87.608 374.637 87.864 374.381 84.92C373.485 75.192 373.485 65.464 374.381 55.864C374.509 54.584 374.765 53.304 375.661 52.408C376.941 51.128 378.989 50.872 380.781 50.872C387.309 50.872 425.965 47.8 432.493 47.416C435.437 47.288 448.109 46.904 450.925 47.672C452.205 47.928 453.357 49.208 453.357 50.36C453.485 54.712 453.485 79.8 453.485 84.152C453.485 85.432 452.717 87.352 451.437 87.608C448.493 88.504 432.365 87.992 429.293 88.376C428.397 102.712 428.653 117.048 429.293 131.384C429.421 133.56 430.829 146.36 430.829 148.408C430.957 151.736 426.605 152.376 423.277 152.632ZM466.281 144.568C465.769 144.824 465.001 144.952 464.489 144.568C463.721 144.056 463.465 142.904 463.337 141.88C462.313 134.712 464.361 103.352 465.769 96.056C466.665 90.68 468.073 85.304 470.249 80.312C472.169 75.704 475.113 71.352 478.825 68.152C484.841 62.904 493.033 59.576 500.969 59.192C506.729 58.936 512.617 60.6 517.737 63.032C521.449 64.824 525.161 67.128 527.721 70.2C533.225 76.728 536.681 85.048 538.601 93.368C541.033 103.48 541.545 114.232 541.289 124.728C541.161 129.848 541.033 135.096 540.265 140.216C540.137 141.24 540.009 142.264 539.369 142.904C538.601 143.672 537.321 143.928 536.169 144.056C534.761 144.184 533.353 144.056 531.817 144.056C529.641 143.928 516.329 144.44 514.153 144.312C510.185 144.056 511.337 138.424 511.209 134.456C509.033 134.328 495.465 134.2 493.289 134.072C493.289 136.376 493.033 138.808 493.289 141.112C493.417 142.904 492.009 144.312 490.089 144.184C482.665 143.544 475.241 143.16 467.945 144.312C467.305 144.44 466.793 144.312 466.281 144.568ZM495.081 99.128C493.801 103.736 493.417 108.472 493.289 113.208C499.305 113.08 505.321 112.824 511.337 112.952C511.337 109.368 511.337 105.912 510.953 102.456C510.697 98.872 509.929 95.16 508.137 91.96C507.241 90.424 505.705 88.76 503.913 88.76C499.561 88.632 496.361 95.032 495.081 99.128ZM574.029 158.776C570.061 158.776 560.333 159.032 557.901 155.832C556.109 153.528 556.365 150.2 556.237 147.256C555.213 129.592 554.701 111.928 554.189 94.136C554.061 90.04 553.165 71.096 554.061 67C554.445 65.208 556.237 63.8 558.029 63.032C564.557 60.216 571.725 59.064 578.893 58.04C588.621 56.76 598.989 56.248 608.461 58.808C614.605 60.472 620.621 63.544 625.101 68.024C629.453 72.504 632.525 78.392 633.549 84.536C634.573 90.296 633.677 96.568 631.117 101.688C627.917 108.216 621.517 113.464 614.733 116.024C620.237 124.984 628.557 132.024 635.213 140.088C635.469 140.344 635.725 140.472 635.853 140.728C636.109 141.88 634.317 144.056 633.421 145.08C628.685 150.456 622.157 154.296 615.117 155.576C613.197 155.96 611.149 156.088 609.357 155.448C607.949 154.936 606.925 153.912 606.029 152.76C603.341 149.304 591.693 130.616 589.645 126.648C589.901 134.072 590.285 141.496 591.053 148.792C591.181 150.328 591.821 151.864 591.181 153.272C589.261 158.136 579.277 158.776 574.029 158.776ZM585.549 100.408C588.749 100.408 592.077 100.792 595.277 100.152C597.965 99.64 600.781 98.232 602.189 95.928C604.109 92.472 603.981 87.608 602.317 84.024C600.013 79.032 591.053 80.056 585.549 81.08C585.293 87.48 585.293 94.008 585.549 100.408ZM693.707 152.632C685.899 153.272 677.963 153.016 670.155 152.632C669.003 152.632 667.595 152.12 666.955 151.224C666.059 150.072 665.931 148.664 665.803 147.256C664.523 127.16 665.803 106.936 667.467 86.968C662.347 86.968 657.355 87.352 652.235 87.608C649.163 87.608 645.067 87.864 644.811 84.92C643.915 75.192 643.915 65.464 644.811 55.864C644.939 54.584 645.195 53.304 646.091 52.408C647.371 51.128 649.419 50.872 651.211 50.872C657.739 50.872 696.395 47.8 702.923 47.416C705.867 47.288 718.539 46.904 721.355 47.672C722.635 47.928 723.787 49.208 723.787 50.36C723.915 54.712 723.915 79.8 723.915 84.152C723.915 85.432 723.147 87.352 721.867 87.608C718.923 88.504 702.795 87.992 699.723 88.376C698.827 102.712 699.083 117.048 699.723 131.384C699.851 133.56 701.259 146.36 701.259 148.408C701.387 151.736 697.035 152.376 693.707 152.632Z" fill="#FFF4D6"/>
</svg>
