<svg width="592" height="763" viewBox="0 0 592 763" fill="none" xmlns="http://www.w3.org/2000/svg">
<ellipse cx="297.5" cy="566.554" rx="172.5" ry="71.4459" fill="#E9DDB9" fill-opacity="0.05"/>
<g filter="url(#filter0_d_813_987)">
<ellipse cx="296.213" cy="559.474" rx="171.213" ry="78.5261" stroke="#7FD71B" stroke-opacity="0.01" stroke-width="106.292"/>
</g>
<path d="M395.239 450.315L400.773 159.091C402.018 139.342 400.207 128.138 339.896 105.16C264.389 84.7809 242.483 102.506 220.91 159.091C220.91 159.091 209.534 143.428 204 165C198.466 186.572 212.608 471.887 212.608 471.887C217.668 513.786 234.972 550.986 276.479 550.986C317.986 550.986 391.436 554.529 395.239 450.315Z" fill="url(#paint0_linear_813_987)"/>
<path d="M311.201 197.675L344.5 206L340.187 420.343L312.438 475.842L301.338 550.765L284.689 520.241L315.213 409.243L311.201 197.675Z" fill="#837A61"/>
<path d="M206.993 172.5H220.312L223.642 511.168L213.652 428.438L220.312 422.074L206.993 172.5Z" fill="#A09881"/>
<path d="M387.362 183.771L401.009 144.922C402.257 129.68 400.442 121.033 339.96 103.298C264.24 87.5692 242.272 101.25 220.638 144.922C220.638 144.922 209.538 144.922 203.989 161.572C198.439 178.221 220.638 172.672 220.638 172.672C225.712 205.009 243.065 192.096 284.689 192.096C326.313 192.096 339.96 222.62 387.362 183.771Z" fill="url(#paint1_linear_813_987)"/>
<path d="M247.066 159.82L240 122.133C244.231 115.326 247.551 112.455 254.133 108L261.199 140.977L289.465 166.887L343.641 204.574C337.97 204.805 331.086 203.398 310.664 197.508L247.066 159.82Z" fill="#928A74"/>
<path d="M337.414 339.87L312.44 334.32L306.89 348.195L309.665 387.044L340.189 392.594L373.488 384.269V409.243L412.338 400.919L428.987 375.944V295.471L401.238 264.947V287.146L412.338 301.021L398.463 317.671L379.909 324.726L373.488 320.445L356.839 328.77L354.064 348.195L337.414 353.745V339.87Z" fill="url(#paint2_linear_813_987)"/>
<path d="M306.89 348.195L312.44 334.32L337.414 339.87V350.97L354.064 348.195L356.839 328.771L373.489 320.446L381.813 325.996L365.164 331.546L359.614 350.97L331.865 356.52V348.195H306.89Z" fill="#837B63"/>
<path d="M401.238 287.146V264.947L428.987 295.471L412.338 314.896L406.788 320.445L381.813 331.545V325.995H376.263L398.463 317.671V309.346L412.338 301.021L401.238 287.146Z" fill="#837B63"/>
<path d="M373.486 384.269V409.243L365.162 400.918V387.044L373.486 384.269Z" fill="#837B63"/>
<path d="M401.238 287.147L412.338 301.021L401.238 309.346V287.147Z" fill="#8D866F"/>
<path d="M187.567 226H204.217L201.442 250.974L240.291 273.174L237.516 328.673L220.867 334.222L212.542 284.274L176.468 253.749L187.567 226Z" fill="#837B63"/>
<path d="M212.542 364.747L201.442 370.297L206.992 334.222L193.117 314.798L209.767 325.898L215.317 334.222L212.542 364.747Z" fill="#837B63"/>
<path d="M176.468 253.749L212.543 284.274L220.867 334.222L193.118 314.798L206.993 334.222L201.443 370.297L187.568 331.447L176.468 253.749Z" fill="#948A6C"/>
<path d="M445.636 538.917L420.662 461.219L406.787 450.119L379.038 463.994L367.938 502.843L273.59 519.492L262.49 483.418L237.516 480.643L226.416 491.743L212.541 472.319L209.766 450.119L179.242 461.219L176.467 513.943L190.342 555.567L179.242 569.441L209.766 605.515H268.04L273.59 588.866L387.362 555.567L401.237 563.891L445.636 538.917Z" fill="url(#paint3_linear_813_987)"/>
<path d="M360.911 547.74C363.196 555.883 362.962 562.861 360.903 571.659C355.073 566.389 351.14 559.39 348.38 553.709C345.619 548.028 343.085 535.127 349.266 531.692C355.445 528.258 358.623 539.585 360.908 547.728L360.911 547.74Z" fill="#A0B479"/>
<path d="M375.151 556.603C371.793 564.09 367.264 568.76 360.224 573.242C359.119 564.932 360.523 556.93 361.986 550.778C363.45 544.626 369.588 533.63 376.388 536.162C383.185 538.693 378.514 549.107 375.156 556.593L375.151 556.603Z" fill="#A0B479"/>
<path d="M350.332 555.891C356.4 560.805 359.233 565.968 360.901 573.246C352.278 571.957 344.939 568.588 339.446 565.668C333.954 562.747 325.514 554.489 330.666 549.311C335.816 544.135 344.256 550.971 350.323 555.884L350.332 555.891Z" fill="#A0B479"/>
<path d="M383.288 566.819C376.058 571.208 369.274 572.858 360.246 573.239C363.755 566.207 369.44 560.538 374.17 556.352C378.9 552.166 390.645 546.259 395.616 551.289C400.583 556.318 390.527 562.423 383.298 566.813L383.288 566.819Z" fill="#A0B479"/>
<path d="M384.586 469.544L420.66 461.219L406.785 450.119L379.036 463.994L367.936 502.843L273.588 519.492L262.488 483.418L237.514 480.643L234.739 483.418L256.939 491.743L273.588 530.592L370.711 505.618L384.586 469.544Z" fill="#837B63"/>
<path d="M195.892 455.669L209.767 450.119L212.542 472.319L226.416 491.743L201.442 469.544L195.892 455.669Z" fill="#837B63"/>
<path d="M254.167 552.792L245.842 530.592L234.742 527.817L215.318 538.917L220.868 572.216L243.067 569.441L254.167 552.792Z" fill="url(#paint4_linear_813_987)"/>
<path d="M423.438 516.717L420.664 491.743L409.564 488.968L390.139 500.068L395.689 519.492L417.889 530.592L423.438 516.717Z" fill="url(#paint5_linear_813_987)"/>
<path d="M416.863 368.945L420.663 352.996L406.653 339.648L391.51 343.82L388.986 368.145L404.013 377.971L416.863 368.945Z" fill="url(#paint6_linear_813_987)"/>
<path d="M190.627 301.55L194.427 285.602L180.418 272.253L173.692 275.949L179.242 300.924L184.792 306.474L190.627 301.55Z" fill="url(#paint7_linear_813_987)"/>
<path opacity="0.55" d="M255.799 8.51638C332.044 2.46042 372.291 28.6496 373.258 33.8315C375.735 36.9685 334.319 43.6961 334.319 43.6961C334.319 43.6961 308.722 104.387 315.285 106.589C340.422 115.023 353.459 131.931 353.459 131.931C353.459 131.931 319.896 140.744 217.178 108.187C215.301 102.344 267.267 99.8612 270.014 96.0615C272.762 92.2617 295.781 45.7359 291.226 37.6583C286.671 29.5807 255.799 8.51638 255.799 8.51638Z" fill="url(#paint8_linear_813_987)"/>
<path d="M271.732 14.3415C355.955 12.096 364.666 34.3855 364.666 34.3855C364.666 34.3855 328.069 41.4311 325.06 44.2869C321.375 47.5161 305.525 102.884 307.8 106.012C310.651 109.22 333.255 117.069 336.278 122.175C339.302 127.281 289.042 126.325 274.126 118.617C259.686 111.444 258.62 102.867 258.62 102.867C258.62 102.867 277.883 99.0109 280.316 96.0744C282.749 93.1379 299.419 42.0988 298.728 34.5108C298.036 26.9227 271.732 14.3415 271.732 14.3415Z" fill="url(#paint9_linear_813_987)"/>
<defs>
<filter id="filter0_d_813_987" x="0.987579" y="356.935" width="590.45" height="405.077" filterUnits="userSpaceOnUse" color-interpolation-filters="sRGB">
<feFlood flood-opacity="0" result="BackgroundImageFix"/>
<feColorMatrix in="SourceAlpha" type="matrix" values="0 0 0 0 0 0 0 0 0 0 0 0 0 0 0 0 0 0 127 0" result="hardAlpha"/>
<feOffset/>
<feGaussianBlur stdDeviation="35.4333"/>
<feColorMatrix type="matrix" values="0 0 0 0 0.490196 0 0 0 0 0.427451 0 0 0 0 0.556863 0 0 0 0.3 0"/>
<feBlend mode="normal" in2="BackgroundImageFix" result="effect1_dropShadow_813_987"/>
<feBlend mode="normal" in="SourceGraphic" in2="effect1_dropShadow_813_987" result="shape"/>
</filter>
<linearGradient id="paint0_linear_813_987" x1="295.849" y1="252.57" x2="306.228" y2="550.853" gradientUnits="userSpaceOnUse">
<stop offset="0.307345" stop-color="#948A6C"/>
<stop offset="0.745124" stop-color="#948A6C"/>
</linearGradient>
<linearGradient id="paint1_linear_813_987" x1="290.937" y1="117.173" x2="342.963" y2="189.321" gradientUnits="userSpaceOnUse">
<stop stop-color="#948A6C"/>
<stop offset="1" stop-color="#AAA082"/>
</linearGradient>
<linearGradient id="paint2_linear_813_987" x1="359.614" y1="348.195" x2="367.939" y2="409.243" gradientUnits="userSpaceOnUse">
<stop stop-color="#948B6D"/>
<stop offset="1" stop-color="#A69D80"/>
</linearGradient>
<linearGradient id="paint3_linear_813_987" x1="311.052" y1="450.119" x2="311.052" y2="605.515" gradientUnits="userSpaceOnUse">
<stop stop-color="#908564"/>
<stop offset="1" stop-color="#9D967F"/>
</linearGradient>
<linearGradient id="paint4_linear_813_987" x1="236.736" y1="527.817" x2="236.736" y2="570.08" gradientUnits="userSpaceOnUse">
<stop stop-color="#186E72"/>
<stop offset="1" stop-color="#125257"/>
</linearGradient>
<linearGradient id="paint5_linear_813_987" x1="408.498" y1="488.968" x2="408.498" y2="528.589" gradientUnits="userSpaceOnUse">
<stop stop-color="#186E72"/>
<stop offset="1" stop-color="#125257"/>
</linearGradient>
<linearGradient id="paint6_linear_813_987" x1="408.739" y1="339.917" x2="404.067" y2="376.117" gradientUnits="userSpaceOnUse">
<stop stop-color="#186E72"/>
<stop offset="1" stop-color="#125257"/>
</linearGradient>
<linearGradient id="paint7_linear_813_987" x1="186.191" y1="272.998" x2="182.125" y2="304.51" gradientUnits="userSpaceOnUse">
<stop stop-color="#186E72"/>
<stop offset="1" stop-color="#125257"/>
</linearGradient>
<linearGradient id="paint8_linear_813_987" x1="326.268" y1="23.6486" x2="254.112" y2="116.591" gradientUnits="userSpaceOnUse">
<stop stop-color="#EFEFEF"/>
<stop offset="0.645" stop-color="#D4D4D4"/>
</linearGradient>
<linearGradient id="paint9_linear_813_987" x1="330.764" y1="28.5253" x2="259.181" y2="98.0079" gradientUnits="userSpaceOnUse">
<stop stop-color="#EFEFEF"/>
<stop offset="0.645" stop-color="#D4D4D4"/>
</linearGradient>
</defs>
</svg>
