<svg width="592" height="752" viewBox="0 0 592 752" fill="none" xmlns="http://www.w3.org/2000/svg">
<ellipse cx="297.5" cy="555.786" rx="172.5" ry="71.4459" fill="#E9DDB9" fill-opacity="0.05"/>
<g filter="url(#filter0_d_813_990)">
<ellipse cx="296.213" cy="548.706" rx="171.213" ry="78.5261" stroke="#7FD71B" stroke-opacity="0.01" stroke-width="106.292"/>
</g>
<path d="M205.397 431.547L199.863 140.323C198.618 120.574 200.429 109.371 260.74 86.3922C336.247 66.013 358.153 83.7381 379.726 140.323C379.726 140.323 391.102 124.66 396.636 146.232C402.17 167.804 388.028 453.12 388.028 453.12C382.968 495.018 365.664 532.218 324.157 532.218C282.65 532.218 209.2 535.761 205.397 431.547Z" fill="url(#paint0_linear_813_990)"/>
<path d="M289.435 178.907L256.136 187.232L260.449 401.575L288.198 457.074L299.298 531.997L315.947 501.473L285.423 390.475L289.435 178.907Z" fill="#837A61"/>
<path d="M393.643 153.732H380.324L376.994 492.4L386.984 409.67L380.324 403.306L393.643 153.732Z" fill="#A09881"/>
<path d="M213.274 165.003L199.627 126.154C198.379 110.912 200.194 102.265 260.676 84.5301C336.396 68.8013 358.364 82.4817 379.998 126.154C379.998 126.154 391.098 126.154 396.647 142.804C402.197 159.453 379.998 153.904 379.998 153.904C374.924 186.241 357.571 173.328 315.947 173.328C274.323 173.328 260.676 203.852 213.274 165.003Z" fill="url(#paint1_linear_813_990)"/>
<path d="M353.57 141.052L360.636 103.365C356.405 96.5584 353.085 93.6875 346.503 89.2321L339.437 122.209L311.171 148.119L256.995 185.806C262.666 186.037 269.55 184.63 289.972 178.74L353.57 141.052Z" fill="#928A74"/>
<path d="M263.222 321.102L288.196 315.552L293.746 329.427L290.971 368.276L260.447 373.826L227.148 365.501V390.476L188.298 382.151L171.649 357.176V276.703L199.398 246.179V268.378L188.298 282.253L202.173 298.903L220.727 305.958L227.148 301.678L243.797 310.002L246.572 329.427L263.222 334.977V321.102Z" fill="url(#paint2_linear_813_990)"/>
<path d="M293.746 329.427L288.196 315.553L263.222 321.103V332.202L246.572 329.427L243.797 310.003L227.147 301.678L218.823 307.228L235.472 312.778L241.022 332.202L268.771 337.752V329.427H293.746Z" fill="#837B63"/>
<path d="M199.398 268.378V246.179L171.649 276.703L188.298 296.128L193.848 301.678L218.823 312.777V307.228H224.373L202.173 298.903V290.578L188.298 282.253L199.398 268.378Z" fill="#837B63"/>
<path d="M227.15 365.501V390.475L235.474 382.151V368.276L227.15 365.501Z" fill="#837B63"/>
<path d="M199.398 268.379L188.298 282.253L199.398 290.578V268.379Z" fill="#8D866F"/>
<path d="M413.069 207.232H396.419L399.194 232.206L360.345 254.406L363.12 309.905L379.769 315.455L388.094 265.506L424.168 234.981L413.069 207.232Z" fill="#837B63"/>
<path d="M388.094 345.979L399.194 351.529L393.644 315.455L407.519 296.03L390.869 307.13L385.319 315.455L388.094 345.979Z" fill="#837B63"/>
<path d="M424.168 234.981L388.093 265.506L379.769 315.454L407.518 296.03L393.643 315.454L399.193 351.529L413.068 312.68L424.168 234.981Z" fill="#948A6C"/>
<path d="M155 520.149L179.974 442.451L193.849 431.351L221.598 445.226L232.698 484.075L327.046 500.724L338.146 464.65L363.12 461.875L374.22 472.975L388.095 453.551L390.87 431.351L421.394 442.451L424.169 495.175L410.294 536.799L421.394 550.673L390.87 586.747H332.596L327.046 570.098L213.274 536.799L199.399 545.123L155 520.149Z" fill="url(#paint3_linear_813_990)"/>
<path d="M239.911 539.74C242.196 547.883 241.962 554.861 239.903 563.659C234.073 558.389 230.14 551.39 227.38 545.709C224.619 540.028 222.085 527.127 228.266 523.692C234.445 520.258 237.623 531.585 239.908 539.728L239.911 539.74Z" fill="#A0B479"/>
<path d="M254.151 548.603C250.793 556.09 246.264 560.76 239.224 565.242C238.119 556.932 239.523 548.93 240.986 542.778C242.449 536.626 248.588 525.63 255.388 528.162C262.185 530.693 257.514 541.107 254.156 548.593L254.151 548.603Z" fill="#A0B479"/>
<path d="M229.332 547.891C235.4 552.805 238.233 557.968 239.901 565.246C231.278 563.957 223.939 560.588 218.446 557.668C212.954 554.747 204.514 546.489 209.666 541.311C214.816 536.135 223.256 542.971 229.323 547.884L229.332 547.891Z" fill="#A0B479"/>
<path d="M262.288 558.819C255.058 563.208 248.274 564.858 239.246 565.239C242.755 558.207 248.44 552.538 253.17 548.352C257.9 544.166 269.645 538.259 274.616 543.289C279.583 548.318 269.527 554.423 262.298 558.813L262.288 558.819Z" fill="#A0B479"/>
<path d="M216.05 450.776L179.976 442.451L193.851 431.351L221.6 445.226L232.7 484.075L327.048 500.724L338.148 464.65L363.122 461.875L365.897 464.65L343.697 472.975L327.048 511.824L229.925 486.85L216.05 450.776Z" fill="#837B63"/>
<path d="M404.744 436.901L390.869 431.351L388.094 453.551L374.22 472.975L399.194 450.776L404.744 436.901Z" fill="#837B63"/>
<path d="M346.469 534.024L354.794 511.824L365.894 509.049L385.318 520.149L379.768 553.448L357.569 550.673L346.469 534.024Z" fill="url(#paint4_linear_813_990)"/>
<path d="M177.198 497.95L179.972 472.975L191.072 470.2L210.497 481.3L204.947 500.724L182.747 511.824L177.198 497.95Z" fill="url(#paint5_linear_813_990)"/>
<path d="M183.773 350.177L179.973 334.228L193.983 320.88L209.126 325.052L211.65 349.378L196.623 359.203L183.773 350.177Z" fill="url(#paint6_linear_813_990)"/>
<path d="M410.009 282.782L406.209 266.834L420.218 253.485L426.944 257.181L421.394 282.156L415.844 287.706L410.009 282.782Z" fill="url(#paint7_linear_813_990)"/>
<path opacity="0.55" d="M263.958 4.88923C230.327 -0.770546 225.41 8.89262 225.41 8.89262L262.266 119.131C262.266 119.131 306.299 90.3101 297.722 41.714C288.779 9.77155 263.958 4.88923 263.958 4.88923Z" fill="url(#paint8_linear_813_990)"/>
<path opacity="0.65" d="M238.033 14.9439C291.479 3.38491 293.803 59.036 287.731 77.1349C280.951 95.224 267.139 110.542 267.139 110.542L238.033 14.9439Z" fill="url(#paint9_linear_813_990)"/>
<path opacity="0.55" d="M326.581 3.37996C303.269 6.80394 313.011 115.726 313.011 115.726C313.011 115.726 368.025 79.5516 375.872 35.7632C383.707 -7.4899 326.581 3.37996 326.581 3.37996Z" fill="url(#paint10_linear_813_990)"/>
<path d="M323.31 18.3521C353.473 11.4732 369.59 21.2901 366.656 44.4938C367.296 48.6726 334.534 98.1727 321.968 103.732C308.67 109.281 323.31 18.3521 323.31 18.3521Z" fill="url(#paint11_linear_813_990)"/>
<defs>
<filter id="filter0_d_813_990" x="0.987579" y="346.167" width="590.45" height="405.077" filterUnits="userSpaceOnUse" color-interpolation-filters="sRGB">
<feFlood flood-opacity="0" result="BackgroundImageFix"/>
<feColorMatrix in="SourceAlpha" type="matrix" values="0 0 0 0 0 0 0 0 0 0 0 0 0 0 0 0 0 0 127 0" result="hardAlpha"/>
<feOffset/>
<feGaussianBlur stdDeviation="35.4333"/>
<feColorMatrix type="matrix" values="0 0 0 0 0.490196 0 0 0 0 0.427451 0 0 0 0 0.556863 0 0 0 0.3 0"/>
<feBlend mode="normal" in2="BackgroundImageFix" result="effect1_dropShadow_813_990"/>
<feBlend mode="normal" in="SourceGraphic" in2="effect1_dropShadow_813_990" result="shape"/>
</filter>
<linearGradient id="paint0_linear_813_990" x1="304.787" y1="233.802" x2="294.408" y2="532.085" gradientUnits="userSpaceOnUse">
<stop offset="0.307345" stop-color="#948A6C"/>
<stop offset="0.745124" stop-color="#948A6C"/>
</linearGradient>
<linearGradient id="paint1_linear_813_990" x1="309.699" y1="98.4049" x2="257.673" y2="170.553" gradientUnits="userSpaceOnUse">
<stop stop-color="#948A6C"/>
<stop offset="1" stop-color="#AAA082"/>
</linearGradient>
<linearGradient id="paint2_linear_813_990" x1="241.022" y1="329.427" x2="232.697" y2="390.476" gradientUnits="userSpaceOnUse">
<stop stop-color="#948B6D"/>
<stop offset="1" stop-color="#A69D80"/>
</linearGradient>
<linearGradient id="paint3_linear_813_990" x1="289.584" y1="431.351" x2="289.584" y2="586.747" gradientUnits="userSpaceOnUse">
<stop stop-color="#908564"/>
<stop offset="1" stop-color="#9D967F"/>
</linearGradient>
<linearGradient id="paint4_linear_813_990" x1="365.894" y1="509.049" x2="365.894" y2="553.448" gradientUnits="userSpaceOnUse">
<stop stop-color="#6580B2"/>
<stop offset="1" stop-color="#45587D"/>
</linearGradient>
<linearGradient id="paint5_linear_813_990" x1="193.847" y1="470.2" x2="193.847" y2="511.824" gradientUnits="userSpaceOnUse">
<stop stop-color="#6580B2"/>
<stop offset="1" stop-color="#45587D"/>
</linearGradient>
<linearGradient id="paint6_linear_813_990" x1="193.429" y1="320.951" x2="198.336" y2="358.982" gradientUnits="userSpaceOnUse">
<stop stop-color="#6580B2"/>
<stop offset="1" stop-color="#45587D"/>
</linearGradient>
<linearGradient id="paint7_linear_813_990" x1="415.554" y1="254.087" x2="419.826" y2="287.192" gradientUnits="userSpaceOnUse">
<stop stop-color="#6580B2"/>
<stop offset="1" stop-color="#45587D"/>
</linearGradient>
<linearGradient id="paint8_linear_813_990" x1="272.808" y1="14.6888" x2="208.753" y2="77.1997" gradientUnits="userSpaceOnUse">
<stop stop-color="#EFEFEF"/>
<stop offset="0.645" stop-color="#D4D4D4"/>
</linearGradient>
<linearGradient id="paint9_linear_813_990" x1="271.725" y1="23.0325" x2="218.799" y2="66.9138" gradientUnits="userSpaceOnUse">
<stop stop-color="#EFEFEF"/>
<stop offset="0.645" stop-color="#D4D4D4"/>
</linearGradient>
<linearGradient id="paint10_linear_813_990" x1="353.5" y1="13.352" x2="290.939" y2="67.3286" gradientUnits="userSpaceOnUse">
<stop stop-color="#EFEFEF"/>
<stop offset="0.645" stop-color="#D4D4D4"/>
</linearGradient>
<linearGradient id="paint11_linear_813_990" x1="349.387" y1="24.8348" x2="301.107" y2="66.0793" gradientUnits="userSpaceOnUse">
<stop stop-color="#EFEFEF"/>
<stop offset="0.645" stop-color="#D4D4D4"/>
</linearGradient>
</defs>
</svg>
