<svg width="195" height="195" viewBox="0 0 195 195" fill="none" xmlns="http://www.w3.org/2000/svg">
<circle cx="143.749" cy="91.25" r="1" transform="rotate(-8 143.749 91.25)" fill="#D9D9D9"/>
<path d="M139.029 96.0996C138.356 96.6992 138.068 97.4003 138.227 98.1902C138.441 99.2498 139.1 100.032 139.754 101.258C142.5 106.396 143.645 105.704 146.225 110.892C148.336 115.139 152.717 123.095 155.348 124.75C157.979 126.406 170.097 119.192 182 109.75C185 107.37 187.651 102.25 188.576 100C189.501 97.75 189.568 96.5884 190.284 94.3282C190.669 93.1157 191.429 90.1416 191.251 87.5003C191.097 85.2177 190.751 83.5003 189.75 82.5002C188.75 81.5002 188 83.5002 187.75 83.5002C187.5 83.5002 187.001 83.5614 187.001 82.5003C187.001 81.4393 186.438 79.8392 185.251 79.5002C184.404 79.2585 183 79.5002 182.5 81C182 82.4997 181.342 81.7503 181.25 81.2502C181.159 80.75 180.618 78.3683 179.501 78.2502C178.384 78.1321 178.011 78.0657 176.751 78.7504C175.491 79.435 174.5 80.7502 174.25 81.0002C174 81.2502 173.5 82.0002 173.205 82.4088C172.471 83.4211 171.676 85.2502 171.501 87C171.326 88.7497 171.501 90.75 170.251 92.5C169.001 94.25 166.75 95.4324 165 96.3282C163.25 97.2239 158.411 96.0333 155.348 93.9324C153.517 92.6764 153.206 92.9265 151.252 92.0679C149.603 91.3437 148.232 91.5243 146.534 92.0154C144.836 92.5066 142.945 93.2589 141.995 93.9156C140.163 95.183 139.47 95.7078 139.029 96.0996Z" fill="#E9C516"/>
<mask id="mask0_1195_2" style="mask-type:alpha" maskUnits="userSpaceOnUse" x="138" y="78" width="54" height="47">
<path d="M139.028 96.0991C138.355 96.6987 138.067 97.3998 138.226 98.1897C138.44 99.2493 139.099 100.032 139.753 101.257C142.499 106.396 143.644 105.703 146.224 110.891C148.336 115.139 152.716 123.094 155.347 124.75C157.978 126.405 170.096 119.191 181.999 109.749C184.999 107.37 187.65 102.249 188.575 99.9995C189.5 97.7495 189.567 96.5879 190.284 94.3277C190.668 93.1152 191.428 90.1411 191.25 87.4998C191.096 85.2172 190.75 83.4998 189.75 82.4998C188.749 81.4997 188 83.4998 187.75 83.4998C187.5 83.4998 187 83.5609 187 82.4998C187 81.4388 186.437 79.8387 185.25 79.4997C184.403 79.258 183 79.4998 182.499 80.9995C181.999 82.4992 181.341 81.7498 181.249 81.2497C181.158 80.7495 180.617 78.3678 179.5 78.2497C178.383 78.1316 178.01 78.0652 176.75 78.7499C175.49 79.4345 174.5 80.7498 174.25 80.9998C174 81.2498 173.5 81.9998 173.204 82.4083C172.47 83.4206 171.675 85.2498 171.5 86.9995C171.325 88.7492 171.5 90.7495 170.25 92.4995C169 94.2495 166.749 95.4319 164.999 96.3277C163.249 97.2234 158.41 96.0328 155.347 93.9319C153.516 92.676 153.205 92.926 151.251 92.0674C149.602 91.3433 148.231 91.5238 146.533 92.015C144.835 92.5061 142.944 93.2584 141.994 93.9151C140.162 95.1825 139.469 95.7073 139.028 96.0991Z" fill="#E9C516"/>
</mask>
<g mask="url(#mask0_1195_2)">
<path opacity="0.9" d="M177.369 97.7997C181.605 98.4103 182.98 103.296 183.138 105.662C184.215 105.921 186.445 106.49 186.755 106.7C187.066 106.911 190.304 101.008 191.884 98.0308L200.473 89.4465L193.512 78.5173L179.455 72.6654L169.812 85.337C169.563 85.9215 168.926 87.5047 168.37 89.1616C167.675 91.2327 167.316 93.2489 168.456 95.998C169.596 98.7472 172.073 97.0364 177.369 97.7997Z" fill="url(#paint0_linear_1195_2)"/>
<path opacity="0.3" d="M157.5 121.5C154.9 123.5 157.629 126.213 158.463 126.463C158.463 126.629 158.713 126.963 159.713 126.963C160.963 126.963 181.953 110.524 183.463 108.713C184.713 107.213 186.251 106.461 185.251 106.211C184.84 106.152 184.21 105.921 183.21 105.671C182.96 105.171 183.072 104.826 182.751 103.5C182.596 102.858 182.251 101.469 182.251 102.5C182.25 104.5 182.038 104.958 182.001 105.671C181.986 105.94 182.657 106.925 181.5 108.25C179.625 110.398 175.164 113.435 171.75 115.75C171.75 115.75 167.928 118.69 165.25 120C162.522 121.334 157.5 121.5 157.5 121.5Z" fill="url(#paint1_linear_1195_2)"/>
<g style="mix-blend-mode:multiply">
<path fill-rule="evenodd" clip-rule="evenodd" d="M180.375 85.7659C180.189 84.7561 179.751 83.8715 179.122 83.4276C178.896 83.2561 178.617 83.187 178.38 83.1281L178.304 83.1091C177.294 83.2314 176.658 84.6164 176.842 86.1306C177.025 87.708 177.966 88.8468 178.976 88.7245C179.67 88.6641 180.177 87.9093 180.37 86.9641L180.37 86.901L180.371 86.7118C180.435 86.3967 180.437 86.0814 180.375 85.7659ZM184.851 94.0119C185.931 93.4774 186.635 92.4365 186.559 91.3615C186.459 90.1476 185.369 89.166 184.064 88.9098C183.701 88.802 183.303 88.8152 182.904 88.8284C180.971 88.9122 179.441 90.2996 179.572 91.8517C179.703 93.4037 181.319 94.6074 183.27 94.4632C183.825 94.365 184.381 94.2669 184.851 94.0119ZM184.087 83.9221C184.541 84.386 184.767 85.1767 184.697 86.077C184.686 86.3367 184.596 86.639 184.524 86.8808L184.524 86.8808L184.524 86.8808L184.47 87.0622L184.452 87.1226C184.158 87.8906 183.556 88.3694 182.976 88.3287C182.136 88.2767 181.559 87.1184 181.676 85.8375C181.794 84.5566 182.558 83.5337 183.398 83.5858C183.597 83.5792 183.881 83.7294 184.087 83.9221ZM188.658 87.8527C189.028 87.1182 189.117 86.3614 188.88 85.7767C188.762 85.4843 188.579 85.3 188.438 85.2888C187.758 84.9516 186.75 85.5221 186.152 86.6345C185.555 87.7469 185.66 88.9152 186.394 89.285C186.912 89.5243 187.584 89.2666 188.137 88.7165L188.169 88.6625L188.267 88.5005L188.658 87.8527Z" fill="url(#paint2_linear_1195_2)"/>
</g>
<g opacity="0.2" filter="url(#filter0_f_1195_2)">
<path d="M150.437 86.8574L149.077 87.1268L149.164 93.143L153.605 112.796C154.214 116.86 155.856 125.429 157.553 127.195C159.25 128.96 160.683 128.164 161.187 127.545C161.205 126.212 161.176 122.818 160.923 119.91C160.606 116.275 159.921 113.004 158.982 108.909C158.043 104.813 157.167 103.527 156.405 101.05C155.796 99.0692 152.172 90.7629 150.437 86.8574Z" fill="#090707"/>
</g>
<path opacity="0.3" d="M170 95.9995C169 96.7496 168.124 97.9996 166.25 98.4996C165.306 98.7516 162.369 99.6536 159 99.3331C157.406 98.7722 152.858 100.217 151 101C149.143 101.782 150.296 100.122 150.349 99.3331C150.402 98.5444 152.412 96.9363 152.412 96.9363L153.812 96.1591L156.869 94.7811L168.123 94.8805L169.218 92.2115L173.25 85.4995C173.75 87.4995 173.25 89.9995 172.25 92.9995C172.012 93.7145 171.25 94.7496 171.25 94.7496C171.25 94.7496 170.595 95.5533 170 95.9995Z" fill="#8C8C8C"/>
<path opacity="0.3" d="M164.851 107.949C164.686 109.577 163.4 110.278 162.065 109.25C159.734 107.455 158.693 103.731 158.432 100.837C158.188 98.1373 157.151 93.3402 157.881 92.709C159.786 93.0351 161.291 85.5846 163.782 90.2047C166.273 94.8248 162.329 95.6273 162.579 98.9581C162.942 103.799 164.975 106.726 164.851 107.949Z" fill="url(#paint3_linear_1195_2)"/>
<path opacity="0.15" d="M157.05 110.097C156.776 109.379 155.787 109.387 155.352 110.806C154.675 113.015 155.49 116.818 156.663 119.404C157.837 121.99 159.171 123.832 160.939 124.091C163.722 124.499 168.591 124.497 170.174 123.782C168.974 122.659 163.205 122.042 161.004 119.123C158.804 116.203 157.47 111.198 157.05 110.097Z" fill="url(#paint4_linear_1195_2)"/>
<path opacity="0.2" d="M172.046 102.518C170.992 101.431 169.968 103.204 169.662 103.798C168.599 105.862 167.662 106.997 169.159 111.524C170.656 116.052 176.722 125.013 178.282 124.073C179.927 123.082 183.32 120.916 184.704 119.678C183.755 119.737 177.548 119.505 175.374 114.782C173.199 110.059 173.1 103.605 172.046 102.518Z" fill="url(#paint5_linear_1195_2)"/>
</g>
<path d="M173.557 179.56C171.462 177.167 170.3 176.088 168.227 174.121C166.137 169.19 166.25 162.25 164.75 157.75C162.919 154.011 159.75 152 156.05 149.163L132.969 162.643C136.056 168.586 137.88 171.606 141.591 175.446C141.297 177.544 141.383 178.563 142.199 179.959C152.305 183.356 160.247 182.099 173.08 181.706C174.49 181.286 174.61 180.766 173.557 179.56Z" fill="url(#paint6_linear_1195_2)"/>
<mask id="mask1_1195_2" style="mask-type:alpha" maskUnits="userSpaceOnUse" x="132" y="149" width="43" height="34">
<path d="M173.557 179.56C171.462 177.167 170.3 176.088 168.227 174.121C166.137 169.19 166.25 162.25 164.75 157.75C162.919 154.011 159.75 152 156.05 149.163L132.969 162.643C136.056 168.586 137.88 171.606 141.591 175.446C141.297 177.544 141.383 178.563 142.199 179.959C152.305 183.356 160.247 182.099 173.08 181.706C174.49 181.286 174.61 180.766 173.557 179.56Z" fill="url(#paint7_linear_1195_2)"/>
</mask>
<g mask="url(#mask1_1195_2)">
<path d="M156.25 149.5L155.75 147.5L148.75 151L142.25 155.25L134.5 158.75L132.25 162.5L134.5 170.75L139.75 175.75L140.25 183.25L174.5 182.75L175 180.5L173.75 179C173.667 179.166 173.35 179.5 172.75 179.5C172 179.5 160.5 180.25 156.25 180C153.455 179.835 149.583 178.833 148 178.5C147.417 178.416 146.15 178.1 145.75 177.5C145.25 176.75 145.5 176.25 145.5 175.75C145.5 175.25 146.5 175.25 147 174.5C147.4 173.9 145.333 171.75 144.25 170.75C142.083 168.75 138.989 164.756 142.75 162.5C146.5 160.25 153.417 153.083 156.25 149.5Z" fill="url(#paint8_linear_1195_2)"/>
</g>
<path d="M46.7511 122.706C63.5012 118.456 76.3278 98.5606 82.7924 86.3857L75.4371 152.772C71.5258 158.053 71.3769 147.8 58.751 145.206C46.1251 142.613 30.001 126.956 46.7511 122.706Z" fill="url(#paint9_linear_1195_2)"/>
<path d="M56.0014 125.956C71.4128 121.442 66.7506 117.206 70.2506 110.206L76.2513 121.456L71.7508 150.706C71.7508 150.706 68.0005 146.999 62.7508 144.456C57.501 141.912 51.1965 139.611 49.1325 135.749C47.1611 132.061 48.4723 128.162 56.0014 125.956Z" fill="#265482"/>
<path d="M33.2844 112.548C32.7628 113.76 32.88 115.534 34.0835 116.472C34.8518 117.062 35.8388 117.188 36.9045 117.29C37.7098 117.386 38.5417 117.456 39.2904 117.759C41.4588 118.64 42.4485 121.006 42.4478 123.403C42.4744 123.377 42.5265 123.378 42.5785 123.379C44.7399 123.401 46.9971 122.617 48.6942 121.248C46.812 122.743 45.3226 122.646 42.9275 122.593C42.9275 122.593 42.4935 123.154 42.4426 123.1C42.4034 123.699 42.2503 125.273 42.0815 125.843C41.6305 127.396 40.844 128.811 40.1096 130.227C39.4584 131.411 38.806 132.647 38.3608 133.939C37.0552 137.635 37.5582 141.996 39.6993 145.299C41.8405 148.602 45.6197 150.847 49.4935 151.166C52.4833 151.415 55.444 150.62 58.2994 149.876C60.5 149.299 62.7792 148.698 65.0748 148.541C65.57 148.525 66.1936 148.591 66.9203 148.711C67.6201 147.685 68.4772 146.61 69.5403 145.644C69.7358 144.12 69.2956 144.366 68.6754 144.144C67.5125 143.727 66.8102 143.506 66.1854 143.492C63.9998 143.392 63.1088 141.665 60.9626 142.138C59.9421 142.35 58.895 142.588 57.8237 142.746C54.8965 143.203 50.833 143.217 48.1274 140.709C44.9635 137.723 45.3074 132.755 46.5529 129.423C47.3554 127.279 46.7595 128.718 47.5999 126.754C48.0946 125.152 48.7622 123.369 49.3284 122.017C50.2571 120.058 52.1641 115.074 49.6966 111.216C47.5057 107.808 41.6543 106.221 36.4031 109.309C34.8448 110.29 33.7794 111.361 33.2844 112.548Z" fill="#E9C519"/>
<path opacity="0.5" d="M33.5189 116.742C32.578 115.706 32.4319 114.061 32.9824 112.719C33.6139 111.249 34.8875 110.183 36.2862 109.354C39.1357 107.698 42.8971 107.208 45.9218 108.238C44.6559 113.68 38.8659 118.761 33.5189 116.742Z" fill="#EBE8DA"/>
<g opacity="0.5">
<path d="M49.6508 111.036C49.6763 111.062 49.7018 111.089 49.7018 111.089C51.5651 113.995 50.8987 117.693 49.4763 121.043C46.9936 122.604 45.1805 123.27 42.3331 123.65C42.4405 122.324 42.2354 120.991 41.7123 119.911C45.529 118.094 48.1822 115.041 49.6508 111.036Z" fill="#B0960F"/>
</g>
<g opacity="0.5">
<path d="M45.8404 134.944C43.9073 135.215 40.4391 133.917 38.5927 133.798C39.0616 132.266 40.4203 129.76 40.7659 129.399C43.9025 129.619 44.7816 129.899 46.7748 129.265C45.6065 131.956 45.982 133.35 45.8404 134.944Z" fill="#B0960F"/>
</g>
<path d="M60.6309 179.993C62.6159 177.552 63.7535 177.444 65.7787 175.427C67.4027 170.373 65.1794 165.467 66.7495 161.5C68.2153 157.796 73.4482 155.04 75.6453 150.25L103.529 162.971C100.969 168.972 99.383 172.029 95.8076 175.957C96.4531 178.035 96.5103 178.05 95.8076 179.463C85.0032 183.139 75.9196 182.124 61.4889 182.113C59.8468 181.737 59.634 181.223 60.6309 179.993Z" fill="url(#paint10_linear_1195_2)"/>
<mask id="mask2_1195_2" style="mask-type:alpha" maskUnits="userSpaceOnUse" x="60" y="150" width="44" height="33">
<path d="M60.6368 179.993C62.6218 177.552 63.7594 177.444 65.7846 175.427C67.4086 170.373 65.1853 165.467 66.7554 161.5C68.2211 157.796 73.4541 155.04 75.6512 150.25L103.535 162.971C100.975 168.972 99.3888 172.029 95.8134 175.957C96.459 178.035 96.5161 178.05 95.8134 179.463C85.0091 183.139 75.9254 182.124 61.4947 182.113C59.8527 181.737 59.6398 181.223 60.6368 179.993Z" fill="url(#paint11_linear_1195_2)"/>
</mask>
<g mask="url(#mask2_1195_2)">
<path opacity="0.4" d="M40.6868 160.787C41.7018 157.525 44.8433 155.403 48.2484 155.68L64.3693 156.988C69.0646 157.369 72.4598 161.64 71.7716 166.3V166.3C71.0959 170.876 66.7512 173.973 62.2053 173.119L46.3096 170.132C42.018 169.325 39.3893 164.957 40.6868 160.787V160.787Z" fill="#B99C12"/>
</g>
<path d="M70.0156 147.446C68.9342 143.292 60.2768 115.045 83.8876 82.1523L146.859 88.7412C162.894 112.561 157.561 146.778 155.935 150.287C154.31 153.796 153.38 154.499 151.397 156.941C132.878 179.744 80.9232 161.536 76.1756 156.567C71.4281 151.599 71.0969 151.599 70.0156 147.446Z" fill="url(#paint12_linear_1195_2)"/>
<path d="M85.4104 97.4595C83.4244 97.705 85.6844 95.3502 87.0626 94.1421L134.565 93.251C137.234 95.1696 142.699 99.1637 143.215 99.7918C143.731 100.42 143.835 100.903 143.823 101.066L141.635 102.132C141.856 102.312 142.946 103.409 145.538 106.354C148.13 109.299 149.627 116.195 149.354 116.467C149.081 116.738 146.209 116.233 146.209 116.233C146.538 117.221 151.082 118.979 151.076 123.833C151.07 126.367 148.368 122.922 148.586 123.84C149.021 125.672 149.481 128.627 149.176 131.233C148.641 135.792 144.234 141.871 144.234 141.871C144.234 141.871 143.588 142.802 141.676 144.989C140.158 146.724 138.305 148.492 136.767 148.705L136.468 143.276C136.18 143.992 135.11 146.419 133.127 150.4C131.144 154.381 127.78 156.146 126.346 156.531C126.346 156.531 126.393 151.803 126.154 151.56C125.916 151.318 125.276 152.028 125.276 152.028C124.522 152.709 122.71 154.393 121.49 155.678C119.965 157.285 119.23 157.722 118.713 155.226C118.299 153.229 117.842 154.342 117.665 155.148C117.218 156.425 115.442 158.681 114.603 158.618C113.764 158.556 108.49 153.524 107.953 153.443C107.415 153.362 106.115 154.535 106.115 154.535C104.888 153.706 102.099 151.828 100.76 150.942C99.4199 150.056 95.1339 146.018 94.8329 145.587C94.5319 145.156 93.8639 147.803 93.8639 147.803C89.3011 143.859 87.6297 138.107 87.5065 137.776C87.3833 137.445 85.9675 141.606 85.3046 139.427C82.4513 130.047 85.4342 125.192 85.1405 124.716C84.6687 123.95 82.0323 125.407 82.0323 125.407C81.9326 123.597 82.3807 119.064 82.4824 117.696C82.5842 116.327 83.96 110.601 83.7665 110.115C83.573 109.63 79.0237 112.466 79.0237 112.466C79.0661 111.896 79.3307 110.228 80.0497 108.119C80.7687 106.01 86.0197 100.29 88.5553 97.6934C88.3345 97.5131 87.3964 97.214 85.4104 97.4595Z" fill="url(#paint13_radial_1195_2)"/>
<g style="mix-blend-mode:multiply">
<mask id="mask3_1195_2" style="mask-type:alpha" maskUnits="userSpaceOnUse" x="67" y="82" width="91" height="89">
<path d="M70.0002 147.499C69.2502 143.499 59.9451 115.142 83.556 82.249L146.528 88.8379C162.562 112.657 157.229 146.875 155.603 150.384C153.978 153.892 153.048 154.596 151.065 157.037C140.931 169.516 119.739 169.915 102.16 165.999C101.16 168.249 101 168.749 99.75 170.749C95.7035 170.707 93.2504 164.999 86.5004 161.249C79.7504 157.499 71.2875 159.742 69.7501 157.499C70.7501 156.499 73.4 153.699 73.4 153.699C73.4 153.699 70.7501 151.499 70.0002 147.499Z" fill="url(#paint14_linear_1195_2)"/>
</mask>
<g mask="url(#mask3_1195_2)">
<path d="M67.2502 129.846C66.4502 117.646 64.0003 97.8457 73.7502 99.8457C83.5 101.846 73.0002 132.346 79.75 144.096C87.6397 157.83 105.335 163.35 119.25 163.097C130.131 162.898 138.679 160.541 141 159.999C147 158.599 154.75 150.666 156.25 149.499L152 156.846L148.75 160.346C147.334 161.346 143.3 163.896 138.5 166.096C132.5 168.846 125.5 168.999 115.5 169.749C107.52 170.348 95.25 172.083 91 170.749C87.8333 169.749 81.15 167.549 79.75 166.749C78 165.749 76 164.749 71.75 160.999C68.3499 157.999 69.1668 147.512 69.0002 145.846C68.7502 145.596 68.0502 142.046 67.2502 129.846Z" fill="url(#paint15_linear_1195_2)"/>
</g>
</g>
<circle cx="84" cy="89.499" r="1.75" fill="#D9D9D9"/>
<path opacity="0.2" d="M84.0002 99.9985C86.0003 95.3986 93.1669 87.0819 96.5002 83.4985L97 86.9985L92 93.9985C90.25 95.9985 86.55 100.399 85.75 101.999C84.75 103.999 83.5 107.749 82.5 111.499C81.5 115.249 81.25 126.499 79.75 127.749C78.55 128.749 78.0833 127.665 78 126.999V125.249C78 124.449 79.5 115.249 80.25 110.749C80.6667 109.082 82.0002 104.599 84.0002 99.9985Z" fill="#887878"/>
<path d="M84.8296 81.7487C73.2601 86.8077 53.9088 112.626 57.2881 136.476C58.3937 144.255 62.6834 147.598 71.1558 146.618C73.678 147.048 79.5114 147.18 81.8884 144.059C83.7851 141.573 83.6417 137.004 80.7505 135.154C80.7505 135.154 84.8593 134.779 84.3932 130.798C84.0533 127.889 80.6037 126.586 78.9588 126.232C78.6701 122.794 80.1485 109.312 84.4427 100.195L96.2498 83.2488L84.8296 81.7487Z" fill="#E9C516"/>
<g style="mix-blend-mode:multiply" opacity="0.5">
<path d="M66.4023 106.499C66.0902 106.333 65.1736 105.044 66.3889 103.889C68.5106 101.871 72.0438 101.562 74.6637 101.882C77.1079 102.181 81.6711 105.545 82.0625 106.418C81.6375 107.594 80.7424 111.71 80.4924 112.96C80.2424 111.21 77.8806 106.42 74.8766 106C70.5103 105.39 67.3894 107.024 66.4023 106.499Z" fill="#D1D1D1"/>
</g>
<g style="mix-blend-mode:multiply" opacity="0.5">
<path d="M80.154 99.7627C80.6802 99.9514 81.2225 99.2483 80.7203 98.1841C79.9388 96.5281 77.4993 95.0777 75.4987 94.529C73.4982 93.9803 70.7493 94.4983 69.9993 95.2483C68.9807 96.7558 66.2491 100.248 65.7492 101.748C66.9993 101.498 70.5074 97.7483 73.2493 97.7483C75.9912 97.7483 79.3458 99.4727 80.154 99.7627Z" fill="#D1D1D1"/>
</g>
<g style="mix-blend-mode:multiply" opacity="0.5">
<path d="M76.4998 117.249C76.7498 117.499 76.9747 115.475 76.7498 114.999C75.9683 113.343 75.6892 112.182 72.3445 111.265C68.9998 110.348 61.2498 110.998 60.7497 111.998C59.936 113.626 58.7499 117.499 58.4997 118.749C58.8687 118.049 63.9999 113.727 67.7498 114.249C71.4998 114.771 75.8926 116.641 76.4998 117.249Z" fill="#D1D1D1"/>
</g>
<g opacity="0.2">
<path d="M58.2866 140.451C60.1893 145.378 64.3092 147.412 71.1617 146.618C73.6841 147.054 79.5174 147.18 81.8943 144.058C83.7911 141.573 83.6477 137.004 80.7565 135.153C80.7565 135.153 84.8653 134.779 84.3992 130.797C84.3757 130.605 84.3397 130.419 84.291 130.233C83.8328 131.275 82.9864 132.537 81.4776 133.133C79.4278 133.935 77.1993 133.589 76.9247 135.985C76.7457 137.58 78.4927 138.781 78.3805 140.793C78.2585 142.934 75.2766 144.028 71.3109 143.182C71.3109 143.182 62.1679 145.067 58.2866 140.451Z" fill="#2525AD"/>
</g>
<path d="M91.3005 100.922C94.4735 103.046 106.104 107.913 114.707 99.2656C142.309 120.464 148.036 103.945 162.5 99.749C159.5 94.749 155.889 92.6412 151.142 91.9787C153.129 89.7706 150.7 87.8936 148.381 88.2249L80.1715 83.9189C78.4931 83.9189 77.5226 84.0795 78.2723 85.7959C86.417 91.3895 88.1274 98.798 91.3005 100.922Z" fill="url(#paint16_linear_1195_2)"/>
<path d="M119 97.2061C125.118 98.2196 147.752 94.2544 151 91.9561C151 91.9561 160.5 93.9561 154.75 94.2061C149 94.4561 138.25 97.2061 132.75 101.456C127.25 105.706 119 97.2061 119 97.2061Z" fill="#265482"/>
<path d="M98 96.4561C92.25 97.2061 81 84.4561 81 84.4561C93.0783 93.0367 103.083 94.9814 116.75 97.2061C116.75 97.2061 103.75 95.7061 98 96.4561Z" fill="#083868"/>
<circle cx="116.751" cy="100.064" r="4" fill="url(#paint17_linear_1195_2)"/>
<circle cx="116.751" cy="100.207" r="3" fill="#E2E1E0"/>
<mask id="mask4_1195_2" style="mask-type:alpha" maskUnits="userSpaceOnUse" x="111" y="96" width="13" height="9">
<rect x="111.752" y="101.488" width="11.0334" height="1.22594" transform="rotate(-28.5994 111.752 101.488)" fill="#D9D9D9"/>
<rect x="112.979" y="103.327" width="11.0334" height="1.22594" transform="rotate(-28.5994 112.979 103.327)" fill="#D9D9D9"/>
</mask>
<g mask="url(#mask4_1195_2)">
<circle cx="116.752" cy="100.207" r="3" fill="#D5D4D3"/>
</g>
<path d="M135.107 14.5892C126.272 20.9122 123.029 25.0046 118.264 32.6308L145.395 41.9626C146.671 31.1488 145.288 25.2395 139.11 14.9559C138.161 13.6708 137.434 13.311 135.107 14.5892Z" fill="url(#paint18_linear_1195_2)"/>
<path d="M135.301 19.3349C130.313 25.0518 128.549 29.6254 128.856 32.773C129.163 35.9206 143.435 42.1551 144.435 37.464C145.435 32.773 144.256 23.2156 138.935 17.464C138.314 16.7927 137.695 16.5923 135.301 19.3349Z" fill="url(#paint19_linear_1195_2)"/>
<path opacity="0.1" fill-rule="evenodd" clip-rule="evenodd" d="M141.552 38.3928C141.768 38.1815 141.929 37.9149 142.029 37.5872C143.385 33.1042 143.064 22.9217 138.56 16.6943C143.863 22.2766 145.392 31.9381 144.602 36.5772C144.387 37.8401 143.194 38.3636 141.552 38.3928Z" fill="#6E5B00"/>
<path d="M75.8136 50.406C72.0802 57.2417 70.6268 71.0611 75.431 77.7339C80.2353 84.4066 88.5857 87.9349 97.9924 90.4192C101.105 91.2411 113.147 94 120.397 94C127.647 94 134.439 93.1159 136.793 92.4329C139.147 91.75 144.147 90.75 150.147 87.25C156.147 83.75 161.189 78.3217 160.897 73.75C160.785 72.0025 160.486 68.9061 159.647 66.5C159.647 66.5 158.053 56.2076 152.324 45.5051C146.596 34.8026 127.648 25.0603 110.012 26.5494C92.376 28.0385 79.5469 43.5702 75.8136 50.406Z" fill="url(#paint20_linear_1195_2)"/>
<mask id="mask5_1195_2" style="mask-type:alpha" maskUnits="userSpaceOnUse" x="72" y="26" width="89" height="68">
<path d="M75.8136 50.405C72.0802 57.2407 70.6268 71.0601 75.431 77.7329C80.2353 84.4057 88.5857 87.9339 97.9924 90.4182C101.105 91.2401 113.147 93.999 120.397 93.999C127.647 93.999 134.439 93.1149 136.793 92.432C139.147 91.749 144.147 90.749 150.147 87.249C156.147 83.749 161.189 78.3207 160.897 73.749C160.785 72.0015 160.486 68.9051 159.647 66.499C159.647 66.499 158.053 56.2067 152.324 45.5041C146.596 34.8016 127.648 25.0593 110.012 26.5484C92.376 28.0376 79.5469 43.5693 75.8136 50.405Z" fill="url(#paint21_linear_1195_2)"/>
</mask>
<g mask="url(#mask5_1195_2)">
<path opacity="0.5" d="M105.129 26.8032C105.129 26.8032 106.129 26.5301 106.948 26.3839C107.768 26.2377 109.32 26 109.32 26C109.32 26 112.58 29.6291 115.117 32.3906C117.889 35.4082 121.291 38.1179 120.515 38.6348C119.728 39.1587 114.196 34.3767 111.535 31.7435C107.953 28.584 105.129 26.8032 105.129 26.8032Z" fill="url(#paint22_linear_1195_2)"/>
<path opacity="0.5" d="M110.351 25.8906C110.351 25.8906 111.31 25.7321 112.263 25.6636C113.215 25.5952 114.168 25.5312 114.168 25.5312C114.168 25.5312 117.883 28.1992 119.224 30.623C119.705 31.656 125.371 38 124.251 38.75C123.131 39.5 117.378 31.2123 115.773 29.3046C114.168 27.3969 110.351 25.8906 110.351 25.8906Z" fill="url(#paint23_linear_1195_2)"/>
<path opacity="0.5" d="M117.279 25.8369C117.279 25.8369 118.284 25.8118 119.281 25.8864C120.278 25.961 121.055 25.9097 121.055 25.9097C121.055 25.9097 122.848 29.2954 125.135 31.9011C126.497 33.4533 127.751 37.4998 126.751 37.7498C125.751 37.9998 124.751 34.7498 123.251 32.7498C121.751 30.7498 117.279 25.8369 117.279 25.8369Z" fill="url(#paint24_linear_1195_2)"/>
</g>
<path opacity="0.7" d="M99.5303 86.2502C100.108 84.7502 108.03 88.4256 108.03 86.2501C108.03 84.0745 97.5968 80.9702 98.5303 78.5002C99.0131 77.2885 107.465 79.389 115.78 79.2502C124.404 79.1061 132.899 76.6865 133.28 73.2501C134.03 66.5001 136.105 64.2501 138.53 66.5001C140.956 68.7502 141.32 71.0001 146.78 71.0001C151.28 71.0001 153.98 67.764 155.03 69.2501C156.031 70.7346 150.113 74.7435 151.78 75.7501C153.78 75.5001 156.53 69.7501 157.53 71.5001C158.318 73.3776 153.167 78.6623 154.257 78.9991C155.346 79.3359 161.247 71.898 159.332 76.7864C156.511 82.6267 146.816 89.4225 136.53 91.2502C111.706 95.6615 98.5985 88.6702 99.5303 86.2502Z" fill="#FFEFA6"/>
<path d="M133.03 83.1316C133.859 86.3401 140.155 85.1434 141.394 80.3376C144.715 83.0523 147.343 82.2483 147.343 79.9951" stroke="#CB9218"/>
<path d="M142.8 41.9263C136.714 42.4263 136.305 56.0356 140.822 65.2077C145.338 74.3799 158.136 65.8536 156.903 57.914C155.671 49.9745 148.887 41.4262 142.8 41.9263Z" fill="url(#paint25_linear_1195_2)"/>
<path d="M146.544 44.3122C141.724 44.7081 138.015 58.5778 144.471 65.19C150.927 71.8022 157.949 64.5415 156.973 58.2549C155.997 51.9683 151.363 43.9163 146.544 44.3122Z" fill="black"/>
<path d="M141.353 74.879L135.334 77.0361C134.777 77.5666 135.147 77.8298 135.885 78.2953C137.91 79.2168 140.525 81.4854 141.92 80.6943C143.314 79.9032 144.219 76.6249 144.023 75.63C143.828 74.6351 143.003 74.3861 141.353 74.879Z" fill="#DB9A11"/>
<path d="M83.9345 15.964C83.9345 15.964 85.1846 14.464 87.9345 15.714C94.6845 20.964 98.6846 24.2139 101.935 32.7139L76.9345 49.4639C75.4419 43.1913 74.8031 36.7004 75.4346 31.964C76.9346 20.7139 83.9345 15.964 83.9345 15.964Z" fill="url(#paint26_angular_1195_2)"/>
<path d="M83.6591 21.7065C80.1844 28.4639 81.6695 38.8154 82.9345 41.7139C84.1996 44.6125 97.0764 34.9166 97.2232 33.168C97.3701 31.4194 93.7815 22.8255 86.9435 19.0002C86.067 18.51 84.8573 19.8802 83.6591 21.7065Z" fill="url(#paint27_linear_1195_2)"/>
<path opacity="0.3" fill-rule="evenodd" clip-rule="evenodd" d="M90.6785 39.1789C92.691 36.6495 94.2426 34.2519 94.3963 33.1728C94.7388 30.768 91.1965 23.6851 86.1748 18.9908C86.4478 18.8853 86.7037 18.8844 86.9362 19.0144C93.7742 22.8397 97.3628 31.4336 97.2159 33.1822C97.1473 34.0001 94.0673 36.7644 90.6785 39.1789Z" fill="#6E5B00"/>
<circle cx="2.51843" cy="2.51843" r="2.51843" transform="matrix(-0.723998 0.689802 0.689802 0.723998 108.314 35.4595)" fill="#D9D9D9"/>
<path d="M93.935 44.9837C97.0232 42.7821 106.497 43.2463 109.74 41.4217C111.057 40.6808 111.436 38.4955 110.394 37.4015C107.513 34.3776 96.1917 40.0504 94.0037 42.1351C91.8157 44.2198 92.1008 46.2913 93.935 44.9837Z" fill="#D4B314"/>
<circle cx="139.533" cy="37.8123" r="2.01474" transform="rotate(43.6144 139.533 37.8123)" fill="#D9D9D9"/>
<path d="M147.934 41.2139C144.846 39.0122 139.974 40.9937 137.935 39.464C136.934 38.7138 137.128 36.6684 138.184 35.9639C139.684 34.964 145.678 36.2806 147.866 38.3652C150.054 40.4499 149.768 42.5215 147.934 41.2139Z" fill="#D4B314"/>
<path d="M114.418 44.587C103.092 42.2051 93.1828 55.5292 94.5184 66.4712C95.854 77.4132 124.276 80.0502 127.939 71.8378C131.601 63.6254 125.744 46.9688 114.418 44.587Z" fill="url(#paint28_linear_1195_2)"/>
<path d="M119.883 47.564C113.051 43.8699 104.067 52.8092 103.466 64.6575C102.865 76.5057 124.908 80.3233 128.182 71.3104C131.456 62.2974 126.715 51.2582 119.883 47.564Z" fill="black"/>
<defs>
<filter id="filter0_f_1195_2" x="145.077" y="82.8574" width="20.1143" height="49.4146" filterUnits="userSpaceOnUse" color-interpolation-filters="sRGB">
<feFlood flood-opacity="0" result="BackgroundImageFix"/>
<feBlend mode="normal" in="SourceGraphic" in2="BackgroundImageFix" result="shape"/>
<feGaussianBlur stdDeviation="2" result="effect1_foregroundBlur_1195_2"/>
</filter>
<linearGradient id="paint0_linear_1195_2" x1="171" y1="102.75" x2="184.817" y2="75.2793" gradientUnits="userSpaceOnUse">
<stop stop-color="#D8BA27"/>
<stop offset="1" stop-color="#D23F00"/>
</linearGradient>
<linearGradient id="paint1_linear_1195_2" x1="182.25" y1="103" x2="152.25" y2="125" gradientUnits="userSpaceOnUse">
<stop stop-color="#6B4141"/>
<stop offset="1" stop-color="#6B4141" stop-opacity="0"/>
</linearGradient>
<linearGradient id="paint2_linear_1195_2" x1="184.954" y1="82.1321" x2="178.927" y2="98.5232" gradientUnits="userSpaceOnUse">
<stop stop-color="#F0BF99"/>
<stop offset="1" stop-color="#EDB990"/>
</linearGradient>
<linearGradient id="paint3_linear_1195_2" x1="164.386" y1="106.922" x2="162.103" y2="89.5569" gradientUnits="userSpaceOnUse">
<stop stop-color="#CAAC16"/>
<stop offset="1" stop-color="#AE971D"/>
</linearGradient>
<linearGradient id="paint4_linear_1195_2" x1="155.5" y1="108.5" x2="167.072" y2="120.819" gradientUnits="userSpaceOnUse">
<stop stop-color="#CEB138"/>
<stop offset="1" stop-color="#6C5B1A"/>
</linearGradient>
<linearGradient id="paint5_linear_1195_2" x1="173.204" y1="104.978" x2="180.811" y2="114.119" gradientUnits="userSpaceOnUse">
<stop stop-color="#BCA015"/>
<stop offset="1" stop-color="#6B6B6B"/>
</linearGradient>
<linearGradient id="paint6_linear_1195_2" x1="157.384" y1="156.245" x2="143.985" y2="180.428" gradientUnits="userSpaceOnUse">
<stop stop-color="#FED201"/>
<stop offset="1" stop-color="#E7C001"/>
</linearGradient>
<linearGradient id="paint7_linear_1195_2" x1="157.384" y1="156.245" x2="143.985" y2="180.428" gradientUnits="userSpaceOnUse">
<stop stop-color="#FED201"/>
<stop offset="1" stop-color="#E7C001"/>
</linearGradient>
<linearGradient id="paint8_linear_1195_2" x1="139.5" y1="165.25" x2="174.5" y2="180.5" gradientUnits="userSpaceOnUse">
<stop stop-color="#E4BE18"/>
<stop offset="1" stop-color="#C8AA19"/>
</linearGradient>
<linearGradient id="paint9_linear_1195_2" x1="37.251" y1="117.206" x2="68.251" y2="137.206" gradientUnits="userSpaceOnUse">
<stop stop-color="#5082B3"/>
<stop offset="1" stop-color="#1E5284"/>
</linearGradient>
<linearGradient id="paint10_linear_1195_2" x1="67.7495" y1="165.25" x2="100.564" y2="172.713" gradientUnits="userSpaceOnUse">
<stop stop-color="#EAC201"/>
<stop offset="1" stop-color="#E8C102"/>
</linearGradient>
<linearGradient id="paint11_linear_1195_2" x1="67.7554" y1="165.25" x2="91.9602" y2="177.608" gradientUnits="userSpaceOnUse">
<stop stop-color="#EAC201"/>
<stop offset="1" stop-color="#EBC305"/>
</linearGradient>
<linearGradient id="paint12_linear_1195_2" x1="124.181" y1="97.2984" x2="107.951" y2="168.43" gradientUnits="userSpaceOnUse">
<stop stop-color="#FFD300"/>
<stop offset="1" stop-color="#E7C001"/>
</linearGradient>
<radialGradient id="paint13_radial_1195_2" cx="0" cy="0" r="1" gradientUnits="userSpaceOnUse" gradientTransform="translate(119.774 95.8174) rotate(96.5247) scale(70.8834 78.5191)">
<stop offset="0.0001" stop-color="#FFF2E0"/>
<stop offset="1" stop-color="#FFDB2C"/>
</radialGradient>
<linearGradient id="paint14_linear_1195_2" x1="123.848" y1="97.3951" x2="107.619" y2="168.527" gradientUnits="userSpaceOnUse">
<stop stop-color="#FFD300"/>
<stop offset="1" stop-color="#E7C001"/>
</linearGradient>
<linearGradient id="paint15_linear_1195_2" x1="151.75" y1="155.249" x2="66.3828" y2="134.202" gradientUnits="userSpaceOnUse">
<stop stop-color="#F1F1F1"/>
<stop offset="1" stop-color="#EAE7E7"/>
</linearGradient>
<linearGradient id="paint16_linear_1195_2" x1="153.75" y1="93.9562" x2="88.9819" y2="99.9281" gradientUnits="userSpaceOnUse">
<stop stop-color="#4F82B3"/>
<stop offset="1" stop-color="#1A4D80"/>
</linearGradient>
<linearGradient id="paint17_linear_1195_2" x1="119.554" y1="96.0645" x2="113.948" y2="104.064" gradientUnits="userSpaceOnUse">
<stop stop-color="#D9D9D9"/>
<stop offset="1" stop-color="#CABABA"/>
</linearGradient>
<linearGradient id="paint18_linear_1195_2" x1="138.137" y1="16.5102" x2="122.7" y2="36.7055" gradientUnits="userSpaceOnUse">
<stop stop-color="#FFDD38"/>
<stop offset="0.718286" stop-color="#E2BE0F"/>
</linearGradient>
<linearGradient id="paint19_linear_1195_2" x1="140.765" y1="15.021" x2="133.295" y2="42.7771" gradientUnits="userSpaceOnUse">
<stop stop-color="#FFE97B"/>
<stop offset="1" stop-color="#F8E68C"/>
</linearGradient>
<linearGradient id="paint20_linear_1195_2" x1="130.792" y1="33.726" x2="99.3832" y2="91.3627" gradientUnits="userSpaceOnUse">
<stop stop-color="#FFDD38"/>
<stop offset="1" stop-color="#E2BE0F"/>
</linearGradient>
<linearGradient id="paint21_linear_1195_2" x1="142.943" y1="53.8045" x2="147.279" y2="126.188" gradientUnits="userSpaceOnUse">
<stop stop-color="#ECC307"/>
<stop offset="1" stop-color="#EDCA1F" stop-opacity="0"/>
</linearGradient>
<linearGradient id="paint22_linear_1195_2" x1="113.817" y1="30.4887" x2="128.254" y2="39.4753" gradientUnits="userSpaceOnUse">
<stop stop-color="#CCAD14"/>
<stop offset="1" stop-color="#EDCA1F" stop-opacity="0"/>
</linearGradient>
<linearGradient id="paint23_linear_1195_2" x1="116.698" y1="28.1727" x2="130.09" y2="37.6912" gradientUnits="userSpaceOnUse">
<stop stop-color="#CCAD14"/>
<stop offset="1" stop-color="#EDCA1F" stop-opacity="0"/>
</linearGradient>
<linearGradient id="paint24_linear_1195_2" x1="123.267" y1="30.1435" x2="136.033" y2="36.6491" gradientUnits="userSpaceOnUse">
<stop stop-color="#CCAD14"/>
<stop offset="1" stop-color="#EDCA1F" stop-opacity="0"/>
</linearGradient>
<linearGradient id="paint25_linear_1195_2" x1="141.678" y1="42.1872" x2="151.446" y2="67.9282" gradientUnits="userSpaceOnUse">
<stop stop-color="white"/>
<stop offset="1" stop-color="#E1E1E1"/>
</linearGradient>
<radialGradient id="paint26_angular_1195_2" cx="0" cy="0" r="1" gradientUnits="userSpaceOnUse" gradientTransform="translate(88.6362 32.6295) rotate(93.6568) scale(17.2962 13.2767)">
<stop offset="0.119946" stop-color="#EDCA1F"/>
<stop offset="0.386152" stop-color="#E8C000"/>
<stop offset="0.752364" stop-color="#FAD731"/>
</radialGradient>
<linearGradient id="paint27_linear_1195_2" x1="88.2927" y1="16.5902" x2="89.7683" y2="45.296" gradientUnits="userSpaceOnUse">
<stop stop-color="#FFE97B"/>
<stop offset="1" stop-color="#F8E68C"/>
</linearGradient>
<linearGradient id="paint28_linear_1195_2" x1="112.773" y1="44.343" x2="111.142" y2="76.4925" gradientUnits="userSpaceOnUse">
<stop stop-color="white"/>
<stop offset="1" stop-color="#E1E1E1"/>
</linearGradient>
</defs>
</svg>
