<svg width="95" height="95" viewBox="0 0 95 95" fill="none" xmlns="http://www.w3.org/2000/svg">
<g opacity="0.5" filter="url(#filter0_f_864_77)">
<circle cx="47.5" cy="47.5" r="39.5" fill="#FBB114"/>
</g>
<mask id="mask0_864_77" style="mask-type:alpha" maskUnits="userSpaceOnUse" x="10" y="10" width="75" height="75">
<circle cx="47.5" cy="47.5" r="37.5" fill="#D9D9D9"/>
</mask>
<g mask="url(#mask0_864_77)">
<circle cx="48" cy="48" r="43" fill="#F5D851"/>
<path fill-rule="evenodd" clip-rule="evenodd" d="M44.2919 44.9304C41.6424 40.318 33.3713 40.5941 31.5043 35.6132C29.6217 30.5907 35.2325 25.3949 34.9616 20.038C34.6773 14.4173 30.0893 9.70381 29.9092 4.07885C29.7119 -2.08712 28.1674 -11.5008 33.8771 -13.8368C41.5519 -16.9769 49.5068 -5.71933 57.6524 -7.27204C62.9774 -8.28708 62.8149 -17.1341 67.2824 -20.2045C72.007 -23.4518 80.8815 -30.1549 83.6127 -25.1143C88.6074 -15.8964 75.2259 -2.41734 81.4798 5.99727C85.823 11.8411 95.216 -1.66615 102.298 0.0263713C106.746 1.08946 108.742 7.8277 108.058 12.3496C107.289 17.4369 100.761 19.7156 98.6123 24.3908C97.0649 27.7584 97.95 31.6798 97.4861 35.3567C96.8413 40.4683 100.425 49.8692 95.3151 50.5267C87.8854 51.4828 84.1763 39.7161 76.8826 38.0081C73.6506 37.2513 71.7514 42.1085 69.4087 44.4603C62.3598 51.5365 58.9601 65.8382 48.9737 66.0251C41.7105 66.161 47.9103 51.2296 44.2919 44.9304Z" fill="#ECB848"/>
<path d="M62.2858 76.3036C62.2858 77.8519 61.0306 79.1071 59.4823 79.1071C57.9339 79.1071 56.6787 77.8519 56.6787 76.3036C56.6787 74.7552 57.9339 73.5 59.4823 73.5C61.0306 73.5 62.2858 74.7552 62.2858 76.3036Z" fill="#ECB848"/>
<path d="M32.2143 79.6071C32.2143 82.7039 29.7039 85.2143 26.6071 85.2143C23.5104 85.2143 21 82.7039 21 79.6071C21 76.5104 23.5104 74 26.6071 74C29.7039 74 32.2143 76.5104 32.2143 79.6071Z" fill="#ECB848"/>
<path d="M28.6429 39.8571C28.6429 42.9539 26.1325 45.4643 23.0357 45.4643C19.939 45.4643 17.4286 42.9539 17.4286 39.8571C17.4286 36.7604 19.939 34.25 23.0357 34.25C26.1325 34.25 28.6429 36.7604 28.6429 39.8571Z" fill="#ECB848"/>
</g>
<defs>
<filter id="filter0_f_864_77" x="0" y="0" width="95" height="95" filterUnits="userSpaceOnUse" color-interpolation-filters="sRGB">
<feFlood flood-opacity="0" result="BackgroundImageFix"/>
<feBlend mode="normal" in="SourceGraphic" in2="BackgroundImageFix" result="shape"/>
<feGaussianBlur stdDeviation="4" result="effect1_foregroundBlur_864_77"/>
</filter>
</defs>
</svg>
