<svg width="782" height="594" viewBox="0 0 782 594" fill="none" xmlns="http://www.w3.org/2000/svg">
<ellipse cx="395.209" cy="431.59" rx="276.209" ry="92.4099" fill="#E9DDB9" fill-opacity="0.05"/>
<g filter="url(#filter0_d_995_2159)">
<ellipse cx="391" cy="439" rx="274" ry="85" stroke="#7FD71B" stroke-opacity="0.01" stroke-width="82.5686"/>
</g>
<path d="M341.815 340.969L338.804 125C338.074 111.028 338.904 113.03 374.239 96.7732C418.478 82.355 431.312 94.8955 443.951 134.929C443.951 134.929 451.061 123.738 454.303 139C457.546 154.262 448.815 356.231 448.815 356.231C445.851 385.874 435.713 412.193 411.394 412.193C387.076 412.193 344.043 414.7 341.815 340.969Z" fill="url(#paint0_linear_995_2159)"/>
<path d="M393.503 158L374.303 166.374V280.813L390.303 336.637L396.703 412L406.303 381.297L388.703 269.648L393.503 158Z" fill="#8D7EA1"/>
<path d="M452.303 144H444.303L442.303 376L448.303 295.573L444.303 289.387L452.303 144Z" fill="#9182A7"/>
<path d="M346.426 152.109L338.436 124.749C337.706 114.015 338.768 107.925 374.177 95.4354C418.507 84.3583 431.369 93.9928 444.034 124.749C444.034 124.749 450.533 124.749 453.782 136.475C457.031 148.201 444.034 144.292 444.034 144.292C441.064 167.066 430.904 157.972 406.536 157.972C382.167 157.972 374.177 179.469 346.426 152.109Z" fill="url(#paint1_linear_995_2159)"/>
<path d="M431.144 135.951L435.303 109.805C432.813 105.083 430.859 103.091 426.985 100L422.826 122.878L406.19 140.854L374.303 167L393.712 160.463L431.144 135.951Z" fill="#8D7EA1"/>
<path d="M463.272 198H453.545L455.166 212.591L432.469 225.561L434.09 257.985L443.818 261.227L448.681 232.045L469.757 214.212L463.272 198Z" fill="#60546D"/>
<path d="M448.681 279.06L455.166 282.303L451.924 261.227L460.03 249.879L450.303 256.364L447.06 261.227L448.681 279.06Z" fill="#60546D"/>
<path d="M469.756 214.212L448.68 232.045L443.817 261.227L460.029 249.879L451.923 261.227L455.165 282.303L463.271 259.606L469.756 214.212Z" fill="#847992"/>
<path d="M312.499 405.274L327.09 359.881L335.196 353.396L351.409 361.502L357.893 384.199L413.014 393.926L419.499 372.85L434.09 371.229L440.575 377.714L448.681 366.365L450.302 353.396L468.136 359.881L469.757 390.684L461.651 415.002L468.136 423.108L450.302 444.183H416.257L413.014 434.456L346.545 415.002L338.439 419.865L312.499 405.274Z" fill="url(#paint2_linear_995_2159)"/>
<path d="M348.167 364.744L327.091 359.881L335.197 353.396L351.409 361.502L357.894 384.199L413.015 393.926L419.5 372.85L434.091 371.229L435.712 372.85L422.742 377.714L413.015 400.411L356.273 385.82L348.167 364.744Z" fill="#60546D"/>
<path d="M458.409 356.638L450.302 353.396L448.681 366.365L440.575 377.714L455.166 364.744L458.409 356.638Z" fill="#60546D"/>
<path d="M424.362 413.381L429.226 400.411L435.711 398.79L447.059 405.275L443.817 424.729L430.847 423.108L424.362 413.381Z" fill="url(#paint3_linear_995_2159)"/>
<path d="M325.468 392.305L327.089 377.714L333.574 376.093L344.922 382.578L341.68 393.926L328.71 400.411L325.468 392.305Z" fill="url(#paint4_linear_995_2159)"/>
<path d="M424.362 413.381L429.226 400.411L435.711 398.79L447.059 405.275L443.817 424.729L430.847 423.108L424.362 413.381Z" fill="black" fill-opacity="0.3"/>
<path d="M325.468 392.305L327.089 377.714L333.574 376.093L344.922 382.578L341.68 393.926L328.71 400.411L325.468 392.305Z" fill="black" fill-opacity="0.3"/>
<path d="M375.726 226.773L390.317 223.53L393.559 231.636L391.938 254.333L374.105 257.576L354.65 252.712V267.303L331.953 262.439L322.226 247.848V200.833L338.438 183V195.97L331.953 204.076L340.059 213.803L350.899 217.925L354.65 215.424L364.377 220.288L365.999 231.636L375.726 234.879V226.773Z" fill="url(#paint5_linear_995_2159)"/>
<path d="M393.56 231.636L390.317 223.53L375.726 226.773V233.258L365.999 231.636L364.378 220.288L354.651 215.424L349.787 218.667L359.514 221.909L362.757 233.258L378.969 236.5V231.636H393.56Z" fill="#60546D"/>
<path d="M338.438 195.97V183L322.226 200.833L331.953 212.182L335.196 215.424L349.787 221.909V218.667H353.029L340.059 213.803V208.939L331.953 204.076L338.438 195.97Z" fill="#60546D"/>
<path d="M354.651 252.712V267.303L359.515 262.439V254.333L354.651 252.712Z" fill="#60546D"/>
<path d="M338.438 195.97L331.954 204.076L338.438 208.94V195.97Z" fill="#7E738D"/>
<path d="M329.311 243.759L327.091 234.441L335.275 226.643L344.123 229.08L345.597 243.292L336.818 249.032L329.311 243.759Z" fill="url(#paint6_linear_995_2159)"/>
<path d="M329.311 243.759L327.091 234.441L335.275 226.643L344.123 229.08L345.597 243.292L336.818 249.032L329.311 243.759Z" fill="black" fill-opacity="0.3"/>
<path d="M461.484 242.139L459.264 232.821L467.449 225.023L471.378 227.182L468.136 241.773L464.893 245.015L461.484 242.139Z" fill="url(#paint7_linear_995_2159)"/>
<path d="M461.484 242.139L459.264 232.821L467.449 225.023L471.378 227.182L468.136 241.773L464.893 245.015L461.484 242.139Z" fill="black" fill-opacity="0.3"/>
<path d="M376.156 117.859L391.297 134.188L413.562 117.859L417.719 99.75L421.875 94.4062L429 70.3594L421.875 56.1094L400.5 18.4062L393.672 0L388.328 2.07812L381.203 18.4062L368.14 37.1094V49.2812L358.344 44.2344V67.0938L353 64.4219L358.344 97.375L372.594 120.828L376.156 117.859Z" fill="url(#paint8_linear_995_2159)"/>
<path d="M413.5 118L401.5 91.5L417.5 99.5L413.5 118Z" fill="#9A9A9A"/>
<path d="M376 118L372.5 121L377 96.5L376 118Z" fill="#9A9A9A"/>
<path d="M358.64 66.7969V44.8281L368.437 49.5781L376.453 77.4844L358.64 66.7969Z" fill="white"/>
<path d="M376.156 117.859L376.75 96.4844L386.547 105.094L391.297 134.188L376.156 117.859Z" fill="#D4D4D4"/>
<path d="M401.687 91.7344L429 70.3594L421.578 94.4062L417.719 99.4531L401.687 91.7344Z" fill="#D4D4D4"/>
<path d="M376.156 117.859L391.297 134.188L413.562 117.859L417.719 99.75L421.875 94.4062L429 70.3594L421.875 56.1094L400.5 18.4062L393.672 0L388.328 2.07812L381.203 18.4062L368.141 37.1094V49.2812L358.344 44.2344V67.0938L353 64.4219L358.344 97.375L372.594 120.828L376.156 117.859Z" fill="#050505" fill-opacity="0.4"/>
<defs>
<filter id="filter0_d_995_2159" x="0.665695" y="237.666" width="780.669" height="402.668" filterUnits="userSpaceOnUse" color-interpolation-filters="sRGB">
<feFlood flood-opacity="0" result="BackgroundImageFix"/>
<feColorMatrix in="SourceAlpha" type="matrix" values="0 0 0 0 0 0 0 0 0 0 0 0 0 0 0 0 0 0 127 0" result="hardAlpha"/>
<feOffset/>
<feGaussianBlur stdDeviation="37.525"/>
<feColorMatrix type="matrix" values="0 0 0 0 0.490393 0 0 0 0 0.427875 0 0 0 0 0.558122 0 0 0 0.18 0"/>
<feBlend mode="normal" in2="BackgroundImageFix" result="effect1_dropShadow_995_2159"/>
<feBlend mode="normal" in="SourceGraphic" in2="effect1_dropShadow_995_2159" result="shape"/>
</filter>
<linearGradient id="paint0_linear_995_2159" x1="400.047" y1="201.065" x2="391.184" y2="411.982" gradientUnits="userSpaceOnUse">
<stop offset="0.307345" stop-color="#A190B9"/>
<stop offset="0.745124" stop-color="#9180AA"/>
</linearGradient>
<linearGradient id="paint1_linear_995_2159" x1="402.878" y1="105.207" x2="364.65" y2="149.278" gradientUnits="userSpaceOnUse">
<stop stop-color="#9C8AB4"/>
<stop offset="1" stop-color="#9888AD"/>
</linearGradient>
<linearGradient id="paint2_linear_995_2159" x1="391.128" y1="353.396" x2="391.128" y2="444.183" gradientUnits="userSpaceOnUse">
<stop stop-color="#8E849B"/>
<stop offset="1" stop-color="#7F738D"/>
</linearGradient>
<linearGradient id="paint3_linear_995_2159" x1="438.854" y1="401.299" x2="425.501" y2="419.686" gradientUnits="userSpaceOnUse">
<stop stop-color="#EFEFEF"/>
<stop offset="0.645" stop-color="#D4D4D4"/>
</linearGradient>
<linearGradient id="paint4_linear_995_2159" x1="337.89" y1="378.445" x2="325.067" y2="394.588" gradientUnits="userSpaceOnUse">
<stop stop-color="#EFEFEF"/>
<stop offset="0.645" stop-color="#D4D4D4"/>
</linearGradient>
<linearGradient id="paint5_linear_995_2159" x1="362.756" y1="231.636" x2="357.893" y2="267.303" gradientUnits="userSpaceOnUse">
<stop stop-color="#8D839A"/>
<stop offset="1" stop-color="#7D728C"/>
</linearGradient>
<linearGradient id="paint6_linear_995_2159" x1="337.644" y1="228.522" x2="327.753" y2="244.567" gradientUnits="userSpaceOnUse">
<stop stop-color="#EFEFEF"/>
<stop offset="0.645" stop-color="#D4D4D4"/>
</linearGradient>
<linearGradient id="paint7_linear_995_2159" x1="466.715" y1="227.02" x2="457.637" y2="239.126" gradientUnits="userSpaceOnUse">
<stop stop-color="#EFEFEF"/>
<stop offset="0.645" stop-color="#D4D4D4"/>
</linearGradient>
<linearGradient id="paint8_linear_995_2159" x1="387" y1="27" x2="391" y2="134.188" gradientUnits="userSpaceOnUse">
<stop stop-color="white"/>
<stop offset="1" stop-color="#989292"/>
</linearGradient>
</defs>
</svg>
