<svg width="2880" height="922" viewBox="0 0 2880 922" fill="none" xmlns="http://www.w3.org/2000/svg">
<g clip-path="url(#clip0_952_2654)">
<path d="M824.967 25.0016L861.995 21C863.599 150.532 869.789 258.773 875.872 315.065C881.956 371.357 885.922 495.212 905.757 591.598L785.654 634.499C828.617 439.141 848.461 346.767 846.513 292.361C844.566 237.955 835.277 114.287 824.967 25.0016Z" fill="#4F6049"/>
<path d="M999.967 33.0016L1037 29C1038.6 158.532 1044.79 266.773 1050.87 323.065C1056.96 379.357 1060.92 503.212 1080.76 599.598L960.654 642.499C1003.62 447.141 1023.46 354.767 1021.51 300.361C1019.57 245.955 1010.28 122.287 999.967 33.0016Z" fill="#4F6049"/>
<path d="M2777.97 169.002L2815 165C2816.6 294.532 2822.79 402.773 2828.87 459.065C2834.96 515.357 2838.92 639.212 2858.76 735.598L2738.65 778.499C2781.62 583.141 2801.46 490.767 2799.51 436.361C2797.57 381.955 2788.28 258.287 2777.97 169.002Z" fill="#4F6049"/>
<path d="M2711.97 55.0016L2749 51C2750.6 180.532 2756.79 288.773 2762.87 345.065C2768.96 401.357 2772.92 525.212 2792.76 621.598L2672.65 664.499C2715.62 469.141 2735.46 376.767 2733.51 322.361C2731.57 267.955 2722.28 144.287 2711.97 55.0016Z" fill="#4F6049"/>
<path d="M1255.74 49.0828L1292.22 56.5913C1254.15 180.414 1226.96 285.366 1215.54 340.823C1204.13 396.28 1170.05 515.419 1159.47 613.255L1032 617.389C1132.62 444.515 1179.75 362.628 1194.53 310.231C1209.31 257.834 1238.27 137.246 1255.74 49.0828Z" fill="#4F6049"/>
<path d="M693.742 44.842L730.221 52.3506C692.153 176.173 664.959 281.125 653.544 336.582C642.129 392.039 608.047 511.178 597.468 609.014L470 613.149C570.624 440.274 617.754 358.388 632.531 305.991C647.307 253.594 676.265 133.006 693.742 44.842Z" fill="#4F6049"/>
<path d="M410.51 119.381L447.75 119.873C433.726 248.653 426.82 356.851 426.072 413.466C425.325 470.08 414.33 593.51 422.399 691.585L298 719.693C364.203 530.939 395.039 441.632 399.665 387.388C404.291 333.144 409.98 209.258 410.51 119.381Z" fill="#4F6049"/>
<path d="M1294.06 139.27L1331.29 138.194C1322.7 267.451 1320.36 375.843 1321.99 432.439C1323.63 489.035 1317.84 612.818 1330.03 710.467L1206.93 743.787C1265.13 552.413 1292.17 461.887 1294.51 407.497C1296.85 353.106 1297.32 229.091 1294.06 139.27Z" fill="#4F6049"/>
<path d="M2674.37 200.576L2710.95 207.547C2674.71 331.916 2649.06 437.256 2638.46 492.875C2627.86 548.494 2595.53 668.121 2586.39 766.102L2459 772.108C2557.07 597.774 2603 515.204 2617 462.595C2631.01 409.987 2658.19 288.986 2674.37 200.576Z" fill="#4F6049"/>
<path d="M1398.19 287.018C1425.12 399.1 1474.9 527.031 1527.73 667.321L1658.81 646.172C1602.41 557.628 1507.27 522.091 1454.78 368.33C1402.29 214.569 1381.52 94.9269 1356.13 -58.2758L1342.82 -56.1292C1354.04 74.1381 1371.25 174.936 1398.19 287.018Z" fill="#4F6049"/>
<path d="M1677.62 324.018C1650.69 436.1 1600.91 564.031 1548.08 704.321L1417 683.172C1473.4 594.628 1568.54 559.091 1621.03 405.33C1673.52 251.569 1694.29 131.927 1719.68 -21.2758L1732.99 -19.1292C1721.77 111.138 1704.56 211.936 1677.62 324.018Z" fill="#4F6049"/>
<path d="M1474.46 319.332C1469.04 452.896 1483.96 483.784 1483.96 483.784C1483.96 483.784 1513.68 614.621 1506.18 426.91C1498.67 239.199 1512.14 98.9249 1530.55 -80.3478L1517.15 -81.774C1491.51 67.6693 1479.89 185.767 1474.46 319.332Z" fill="#4F6049"/>
<path d="M2734.53 535.533C2769.69 540.108 2807.62 493.77 2817.23 474.622C2818.97 471.164 2820.76 467.222 2822.46 462.882C2823.45 460.339 2801.14 460.086 2802.05 457.287C2802.92 454.578 2827.02 449.331 2827.76 446.413C2832.19 428.991 2833.78 408.105 2827.18 387C2809.69 395.162 2796.03 403.111 2785.05 410.954C2783.17 412.297 2795.36 425.85 2793.63 427.187C2791.9 428.528 2776.25 417.654 2774.66 418.992C2765.95 426.299 2759.27 433.545 2753.65 440.818C2752.21 442.681 2773.97 457.547 2772.66 459.415C2771.16 461.537 2746.61 450.662 2745.23 452.796C2731.14 474.622 2725.14 524.107 2734.53 535.533Z" fill="#3F4F2D"/>
<path d="M2234.45 681.735C2231.88 681.299 2223.81 679.575 2220.86 678.096C2210.43 672.865 2202.53 653.962 2201.15 645.178C2200.51 641.081 2202.07 639.546 2206.51 638.271C2214.4 636.005 2223.87 632.291 2232.92 634.47C2237.4 635.55 2242.79 636.432 2246.32 639.257C2248.31 640.848 2250.69 643.268 2247.73 639.539C2243.08 633.688 2243.58 625.537 2246.84 619.927C2251.72 611.511 2271 619.225 2279.63 621.821C2280.72 622.149 2286.78 625.812 2287.45 625.551C2289.76 624.653 2290.43 616.622 2292.39 614.56C2297.24 609.44 2304.22 608.233 2312.48 609.988C2313.94 610.3 2319.82 612.499 2317.33 610.695C2308.96 604.623 2300.39 596.809 2295.35 588.775C2291.02 581.894 2290.78 576.377 2292.07 569.225C2294.66 554.975 2298.82 548.513 2316.17 543.738C2339.14 537.414 2364.23 538.283 2388.83 544.209C2398.49 546.534 2409.22 548.079 2416.17 554.949C2424.2 562.882 2428.62 576.164 2431.08 585.673C2437.32 609.728 2431.75 580.774 2438.54 579.271C2440.98 578.731 2442.49 578.954 2445.11 579.584C2449.07 580.537 2436.32 565.863 2434.87 563.839L2434.82 563.77C2432.06 559.946 2415.81 537.377 2429.9 536.896C2440.91 536.52 2452.77 538.948 2463.74 540.889L2464.12 540.956C2464.82 541.08 2465.5 541.199 2466.15 541.321C2466.44 540.207 2466.81 539.207 2466.94 538.657C2470.73 522.906 2473.38 500.642 2496.01 496.185C2512.55 492.927 2541.2 493.002 2552.27 507.713C2553.96 509.963 2552.72 508.419 2551.86 506.345C2549.35 500.321 2554.14 490.729 2555.65 485.09C2561.66 462.553 2605.53 447.925 2627.59 470.78C2630.78 474.094 2634.78 479.035 2635.96 483.637C2637.01 477.304 2639.5 467.596 2643.67 463.222C2651.17 455.348 2670.35 446.791 2679.77 450.272C2689.19 453.753 2689.89 457.477 2685.03 477.667C2681.59 491.948 2696.34 506.78 2693.5 521.773C2689.1 544.938 2706.53 684.295 2689.78 703.447C2673.89 715.912 2270.25 677.047 2239.3 684.278C2241.88 683.912 2243.71 683.687 2238.62 684.463C2238.46 684.515 2238.31 684.57 2238.18 684.627C2249.43 683.577 2230.66 685.822 2236.05 684.877C2233.61 685.147 2235.24 684.875 2237.38 684.556C2236.21 684.246 2235.13 683.073 2234.45 681.735Z" fill="#4C6036"/>
<path d="M3087.43 738.888C3090.15 738.801 3098.3 738.213 3101.42 737.171C3112.56 733.447 3123.11 715.896 3125.73 707.425C3126.95 703.474 3125.61 701.746 3121.36 699.879C3113.81 696.56 3104.89 691.597 3095.56 692.501C3090.93 692.95 3085.43 693.079 3081.51 695.378C3079.3 696.673 3076.58 698.732 3080.07 695.462C3085.53 690.333 3086.18 682.228 3083.73 676.249C3080.05 667.28 3059.73 672.235 3050.75 673.608C3049.61 673.782 3043.05 676.56 3042.42 676.211C3040.24 675.007 3040.71 666.997 3039.05 664.695C3034.93 658.98 3028.14 656.831 3019.66 657.426C3018.15 657.532 3011.98 658.892 3014.71 657.456C3023.93 652.62 3033.58 646.094 3039.75 638.866C3045.03 632.676 3046.06 627.27 3045.78 620.041C3045.21 605.636 3041.97 598.692 3025.35 591.6C3003.33 582.208 2978.18 579.615 2952.79 582.075C2942.83 583.04 2931.91 583.088 2924 588.906C2914.87 595.624 2908.58 608.112 2904.78 617.148C2895.16 640.008 2904.81 612.226 2898.25 609.811C2895.89 608.944 2894.35 608.955 2891.65 609.216C2887.57 609.612 2902.36 596.896 2904.1 595.101L2904.16 595.041C2907.44 591.649 2926.85 571.631 2912.86 569.22C2901.93 567.336 2889.75 568.098 2878.54 568.505L2878.15 568.519C2877.44 568.545 2876.74 568.57 2876.07 568.599C2875.95 567.462 2875.72 566.425 2875.67 565.865C2874.11 549.813 2874.62 527.498 2852.68 519.993C2836.64 514.507 2808.04 510.643 2794.92 523.626C2792.92 525.611 2794.37 524.258 2795.52 522.333C2798.88 516.739 2795.45 506.622 2794.75 500.855C2791.94 477.81 2750.25 457.355 2725.01 476.857C2721.86 479.291 2717.95 482.833 2715.76 486.562C2715.67 480.646 2714.36 472.659 2710.04 467.195C2701.01 455.77 2678.44 447.039 2675.86 449.464C2674.73 450.527 2676.29 453.951 2678.29 474.525C2679.7 489.078 2674.66 497.251 2675.38 512.425C2676.48 535.869 2612.94 690.775 2626.94 711.961C2641.24 726.648 3063.69 731.328 3082.54 742.705C3078.86 741.848 3078.26 741.844 3078.91 742.161C3076.91 741.767 3076.2 741.726 3080.26 742.925C3088.63 745.394 3080.41 742.902 3078.91 742.161C3082.4 742.85 3089.83 744.616 3082.54 742.705C3084.11 743.072 3086.2 741.025 3087.43 738.888Z" fill="#4E6238"/>
<path d="M-140.353 494.629C-142.163 494.322 -147.855 493.107 -149.934 492.064C-157.284 488.376 -162.853 475.051 -163.825 468.859C-164.279 465.97 -163.179 464.888 -160.048 463.989C-154.485 462.392 -147.811 459.774 -141.433 461.31C-138.272 462.071 -134.474 462.693 -131.985 464.684C-130.583 465.806 -128.903 467.512 -130.991 464.883C-134.267 460.759 -133.914 455.013 -131.62 451.058C-128.179 445.125 -114.588 450.563 -108.503 452.393C-107.732 452.625 -103.462 455.206 -102.99 455.023C-101.36 454.389 -100.887 448.728 -99.5089 447.274C-96.0862 443.665 -91.1677 442.815 -85.3466 444.052C-84.3125 444.271 -80.1719 445.821 -81.9248 444.55C-87.8277 440.269 -93.8651 434.761 -97.4231 429.097C-100.47 424.247 -100.644 420.357 -99.7294 415.316C-97.9065 405.27 -94.9711 400.715 -82.7454 397.349C-66.5528 392.891 -48.8638 393.503 -31.52 397.68C-24.7122 399.32 -17.149 400.409 -12.2484 405.252C-6.58973 410.844 -3.47186 420.207 -1.73449 426.911C2.66032 443.868 -1.26462 423.457 3.51943 422.397C5.23834 422.017 6.30875 422.174 8.15402 422.618C10.9436 423.29 1.95807 412.945 0.930759 411.519L0.896182 411.471C-1.0452 408.775 -12.5025 392.865 -2.56849 392.526C5.19304 392.261 13.5553 393.972 21.2863 395.34L21.5535 395.388C22.0459 395.475 22.5232 395.559 22.9879 395.645C23.1862 394.859 23.4471 394.154 23.5404 393.767C26.2146 382.663 28.0818 366.968 44.0332 363.826C55.6942 361.529 75.8936 361.583 83.693 371.953C84.8855 373.539 84.0142 372.45 83.4045 370.989C81.6333 366.742 85.0151 359.98 86.0756 356.005C90.3139 340.118 121.243 329.805 136.789 345.917C139.044 348.253 141.861 351.737 142.69 354.981C143.43 350.516 145.188 343.672 148.125 340.589C153.412 335.039 166.935 329.006 173.576 331.46C180.218 333.914 180.711 336.539 177.283 350.772C174.859 360.839 185.257 371.295 183.251 381.865C180.152 398.195 192.44 496.434 180.63 509.935C169.427 518.722 -115.112 491.325 -136.932 496.422C-135.115 496.164 -133.826 496.005 -137.412 496.552C-137.527 496.589 -137.631 496.628 -137.722 496.668C-129.791 495.928 -143.023 497.511 -139.227 496.844C-140.947 497.035 -139.798 496.843 -138.284 496.618C-139.11 496.399 -139.874 495.573 -140.353 494.629Z" fill="#455237"/>
<path d="M460.955 534.919C462.87 534.858 468.616 534.443 470.814 533.709C478.667 531.084 486.108 518.711 487.955 512.74C488.816 509.954 487.872 508.736 484.876 507.42C479.552 505.08 473.265 501.581 466.685 502.219C463.424 502.535 459.547 502.626 456.783 504.247C455.225 505.16 453.308 506.611 455.763 504.306C459.614 500.69 460.075 494.977 458.346 490.762C455.753 484.439 441.426 487.933 435.097 488.9C434.295 489.023 429.67 490.981 429.225 490.735C427.689 489.887 428.019 484.24 426.849 482.617C423.945 478.588 419.159 477.074 413.177 477.493C412.115 477.567 407.765 478.526 409.693 477.514C416.188 474.105 422.99 469.504 427.34 464.409C431.066 460.046 431.79 456.235 431.591 451.138C431.194 440.983 428.91 436.089 417.19 431.089C401.668 424.468 383.936 422.64 366.043 424.374C359.02 425.055 351.321 425.089 345.747 429.19C339.311 433.926 334.876 442.729 332.195 449.099C325.411 465.214 332.215 445.629 327.592 443.927C325.931 443.315 324.841 443.323 322.938 443.508C320.06 443.787 330.487 434.823 331.714 433.557L331.755 433.514C334.073 431.123 347.753 417.012 337.892 415.312C330.187 413.984 321.603 414.522 313.697 414.808L313.424 414.818C312.92 414.836 312.432 414.854 311.956 414.874C311.87 414.073 311.709 413.342 311.671 412.947C310.574 401.631 310.932 385.9 295.464 380.61C284.157 376.742 263.999 374.018 254.752 383.171C253.338 384.57 254.361 383.617 255.176 382.259C257.544 378.316 255.127 371.184 254.631 367.119C252.651 350.873 223.257 336.454 205.469 350.201C203.249 351.917 200.492 354.414 198.947 357.043C198.879 352.872 197.959 347.242 194.914 343.39C188.547 335.336 172.638 329.181 170.817 330.891C170.019 331.64 171.123 334.054 172.529 348.557C173.523 358.817 169.971 364.578 170.477 375.275C171.258 391.801 126.461 501.002 136.332 515.937C146.41 526.291 444.22 529.59 457.504 537.61C454.913 537.006 454.493 537.003 454.946 537.227C453.537 536.949 453.035 536.92 455.902 537.765C461.802 539.506 456.002 537.749 454.946 537.227C457.41 537.712 462.648 538.957 457.504 537.61C458.615 537.869 460.085 536.426 460.955 534.919Z" fill="#455237"/>
<path d="M512.502 507.663C511.093 507.249 506.686 505.744 505.128 504.705C499.618 501.03 496.343 489.64 496.102 484.493C495.989 482.092 496.953 481.307 499.511 480.855C504.057 480.051 509.57 478.512 514.494 480.342C516.934 481.248 519.891 482.098 521.693 483.949C522.709 484.992 523.894 486.538 522.464 484.201C520.221 480.536 520.991 475.873 523.147 472.848C526.382 468.31 536.688 473.977 541.355 476.02C541.946 476.279 545.109 478.773 545.499 478.666C546.845 478.295 547.703 473.712 548.92 472.648C551.941 470.007 555.912 469.755 560.42 471.29C561.22 471.563 564.369 473.202 563.089 472.005C558.777 467.976 554.463 462.932 552.127 457.984C550.127 453.746 550.321 450.552 551.477 446.515C553.781 438.471 556.496 435.014 566.474 433.364C579.688 431.179 593.655 433.273 607.043 438.247C612.298 440.2 618.2 441.77 621.669 446.169C625.676 451.248 627.347 459.179 628.15 464.813C630.184 479.064 628.818 462.033 632.7 461.598C634.095 461.442 634.93 461.667 636.354 462.196C638.508 462.996 632.271 453.734 631.579 452.476L631.555 452.434C630.247 450.056 622.527 436.025 630.429 436.642C636.603 437.124 643.084 439.276 649.094 441.09L649.302 441.153C649.685 441.268 650.056 441.38 650.417 441.492C650.641 440.868 650.908 440.315 651.015 440.007C654.084 431.175 656.905 418.519 669.816 417.388C679.254 416.562 695.258 418.424 700.553 427.6C701.362 429.003 700.765 428.035 700.407 426.785C699.366 423.156 702.624 417.935 703.804 414.783C708.522 402.183 733.916 396.542 744.859 411.107C746.446 413.218 748.382 416.319 748.761 419.044C749.729 415.462 751.707 410.029 754.299 407.774C758.963 403.715 770.196 400.003 775.25 402.606C780.304 405.21 780.47 407.399 776.537 418.72C773.755 426.727 781.102 436.207 778.609 444.662C774.757 457.727 776.097 539.103 765.584 549.071C755.954 555.242 532.789 507.236 515.059 509.436C516.522 509.389 517.557 509.376 514.668 509.5C514.574 509.52 514.488 509.542 514.412 509.566C520.761 509.675 510.139 509.777 513.205 509.574C511.825 509.575 512.752 509.522 513.971 509.475C513.335 509.222 512.8 508.478 512.502 507.663Z" fill="#34471D"/>
<path d="M985.615 594.726C987.137 594.848 991.727 595.027 993.531 594.625C999.98 593.187 1006.93 583.747 1008.91 579.034C1009.83 576.836 1009.19 575.756 1006.92 574.41C1002.9 572.019 998.22 568.594 992.951 568.523C990.339 568.488 987.259 568.213 984.93 569.288C983.617 569.894 981.974 570.907 984.116 569.245C987.478 566.637 988.332 562.01 987.322 558.411C985.807 553.011 974.154 554.575 969.055 554.796C968.409 554.824 964.576 556.008 964.244 555.767C963.099 554.935 963.843 550.351 963.055 548.92C961.098 545.366 957.435 543.698 952.658 543.502C951.809 543.467 948.28 543.859 949.895 543.205C955.333 541.004 961.117 537.858 965.001 534.086C968.327 530.856 969.226 527.808 969.504 523.626C970.058 515.292 968.666 511.087 959.805 505.947C948.069 499.139 934.172 496.049 919.843 495.855C914.219 495.779 908.115 495.113 903.346 497.963C897.841 501.253 893.573 508.046 890.904 513.01C884.15 525.566 891.216 510.176 887.698 508.369C886.434 507.72 885.57 507.628 884.045 507.608C881.74 507.576 890.771 501.191 891.851 500.267L891.887 500.236C893.929 498.491 905.978 488.193 898.307 485.916C892.314 484.137 885.465 483.803 879.175 483.325L878.957 483.309C878.557 483.278 878.168 483.249 877.79 483.223C877.79 482.56 877.725 481.948 877.728 481.622C877.826 472.278 879.455 459.456 867.648 453.741C859.017 449.563 843.275 445.522 835.163 452.168C833.923 453.184 834.815 452.497 835.577 451.461C837.791 448.452 836.485 442.407 836.44 439.041C836.259 425.588 814.196 411.16 798.923 420.791C797.017 421.993 794.619 423.785 793.169 425.794C793.472 422.38 793.225 417.697 791.141 414.276C786.783 407.121 774.7 400.66 773.111 401.893C772.415 402.433 773.084 404.505 772.958 416.482C772.869 424.954 769.561 429.342 769.048 438.128C768.254 451.702 723.415 536.895 729.962 549.987C737.064 559.354 972.807 588.865 982.649 596.614C980.647 595.887 980.315 595.847 980.655 596.07C979.562 595.717 979.167 595.647 981.366 596.596C985.893 598.55 981.447 596.592 980.655 596.07C982.566 596.689 986.611 598.177 982.649 596.614C983.508 596.926 984.796 595.878 985.615 594.726Z" fill="#34471D"/>
<path d="M849.538 584.738C848.359 584.365 844.671 583.012 843.366 582.081C838.752 578.789 835.989 568.614 835.777 564.018C835.677 561.874 836.482 561.175 838.62 560.777C842.419 560.069 847.025 558.707 851.145 560.351C853.188 561.165 855.662 561.93 857.173 563.587C858.024 564.52 859.018 565.902 857.818 563.813C855.934 560.537 856.568 556.375 858.365 553.679C861.06 549.635 869.689 554.716 873.595 556.55C874.089 556.782 876.74 559.015 877.065 558.92C878.19 558.592 878.898 554.502 879.913 553.555C882.433 551.204 885.753 550.987 889.525 552.367C890.195 552.612 892.832 554.083 891.758 553.012C888.144 549.405 884.527 544.893 882.563 540.47C880.882 536.683 881.038 533.832 881.996 530.23C883.904 523.054 886.168 519.973 894.506 518.521C905.55 516.599 917.232 518.498 928.437 522.967C932.835 524.722 937.772 526.136 940.683 530.07C944.044 534.613 945.457 541.697 946.141 546.729C947.872 559.456 946.694 544.248 949.939 543.868C951.104 543.732 951.803 543.934 952.995 544.41C954.797 545.129 949.563 536.847 948.981 535.722L948.962 535.684C947.863 533.559 941.378 521.016 947.986 521.584C953.15 522.028 958.573 523.962 963.602 525.594L963.776 525.651C964.096 525.755 964.407 525.855 964.709 525.956C964.895 525.4 965.117 524.907 965.206 524.632C967.753 516.753 970.085 505.461 980.877 504.479C988.767 503.761 1002.15 505.457 1006.6 513.66C1007.28 514.914 1006.78 514.049 1006.47 512.933C1005.6 509.691 1008.31 505.037 1009.29 502.225C1013.21 490.987 1034.43 486.004 1043.61 499.03C1044.94 500.919 1046.56 503.69 1046.89 506.124C1047.69 502.929 1049.33 498.082 1051.49 496.075C1055.38 492.461 1064.77 489.171 1069 491.506C1073.23 493.841 1073.37 495.796 1070.11 505.894C1067.8 513.037 1073.96 521.515 1071.9 529.059C1068.7 540.714 1070 613.366 1061.23 622.243C1053.19 627.732 866.498 584.399 851.68 586.326C852.903 586.287 853.768 586.277 851.353 586.382C851.274 586.4 851.203 586.419 851.139 586.441C856.448 586.552 847.567 586.62 850.13 586.446C848.976 586.444 849.751 586.398 850.77 586.358C850.238 586.131 849.789 585.466 849.538 584.738Z" fill="#34471D"/>
<path d="M1245.29 663.469C1246.57 663.581 1250.41 663.75 1251.91 663.395C1257.3 662.125 1263.1 653.713 1264.74 649.509C1265.5 647.549 1264.96 646.583 1263.07 645.377C1259.7 643.234 1255.78 640.166 1251.37 640.091C1249.19 640.054 1246.61 639.802 1244.67 640.758C1243.57 641.296 1242.2 642.197 1243.99 640.717C1246.79 638.396 1247.5 634.267 1246.64 631.052C1245.37 626.228 1235.63 627.6 1231.36 627.786C1230.82 627.809 1227.62 628.858 1227.34 628.642C1226.38 627.897 1227 623.806 1226.34 622.527C1224.69 619.35 1221.62 617.853 1217.63 617.668C1216.92 617.635 1213.97 617.977 1215.32 617.397C1219.86 615.444 1224.69 612.647 1227.93 609.288C1230.7 606.412 1231.45 603.692 1231.67 599.959C1232.12 592.521 1230.95 588.764 1223.53 584.156C1213.7 578.053 1202.07 575.265 1190.09 575.061C1185.39 574.981 1180.28 574.374 1176.3 576.908C1171.71 579.833 1168.15 585.889 1165.93 590.315C1160.31 601.51 1166.19 587.786 1163.24 586.165C1162.18 585.583 1161.46 585.499 1160.19 585.477C1158.26 585.445 1165.8 579.763 1166.7 578.941L1166.73 578.913C1168.43 577.36 1178.48 568.191 1172.06 566.142C1167.05 564.541 1161.32 564.229 1156.06 563.789L1155.88 563.774C1155.55 563.746 1155.22 563.719 1154.9 563.695C1154.9 563.103 1154.85 562.557 1154.85 562.266C1154.91 553.923 1156.25 542.48 1146.36 537.353C1139.14 533.604 1125.97 529.963 1119.2 535.879C1118.16 536.784 1118.91 536.172 1119.54 535.249C1121.39 532.568 1120.28 527.168 1120.24 524.163C1120.06 512.153 1101.58 499.225 1088.83 507.791C1087.24 508.86 1085.24 510.454 1084.03 512.245C1084.28 509.198 1084.06 505.016 1082.31 501.958C1078.65 495.561 1068.54 489.767 1067.21 490.864C1066.63 491.345 1067.19 493.196 1067.11 503.888C1067.06 511.452 1064.3 515.362 1063.89 523.204C1063.25 535.321 1025.95 611.283 1031.45 622.984C1037.41 631.362 1234.57 658.209 1242.82 665.148C1241.14 664.495 1240.87 664.458 1241.15 664.658C1240.24 664.34 1239.91 664.278 1241.75 665.129C1245.54 666.883 1241.81 665.126 1241.15 664.658C1242.75 665.215 1246.13 666.552 1242.82 665.148C1243.54 665.428 1244.61 664.496 1245.29 663.469Z" fill="#34471D"/>
<path d="M73.4488 507.44C98.4878 512.13 127.549 480.389 135.211 467.03C136.595 464.617 138.034 461.859 139.425 458.812C140.24 457.027 124.249 455.953 125.011 453.98C125.748 452.071 143.24 449.269 143.889 447.204C147.766 434.877 149.743 419.95 145.848 404.538C132.978 409.697 122.862 414.856 114.676 420.046C113.274 420.935 121.474 431.149 120.181 432.04C118.884 432.934 108.095 424.503 106.899 425.399C100.363 430.296 95.2771 435.229 90.9563 440.225C89.8498 441.504 104.863 453.044 103.845 454.332C102.689 455.796 85.513 447.009 84.4396 448.485C73.4568 463.587 67.1775 498.865 73.4488 507.44Z" fill="#6C884C"/>
<path d="M1363.12 618.134C1398.58 617.826 1429.77 566.709 1436.66 546.42C1437.9 542.755 1439.13 538.605 1440.21 534.072C1440.85 531.417 1418.71 534.237 1419.23 531.34C1419.72 528.536 1442.87 520.023 1443.2 517.03C1445.19 499.164 1443.89 478.258 1434.44 458.263C1418.24 468.754 1405.81 478.508 1396.02 487.787C1394.34 489.375 1408.28 501.122 1406.75 502.684C1405.22 504.251 1388.22 495.634 1386.83 497.178C1379.21 505.614 1373.59 513.711 1369.02 521.689C1367.85 523.732 1391.45 535.461 1390.41 537.492C1389.22 539.8 1363.41 532.408 1362.33 534.71C1351.38 558.269 1352.25 608.108 1363.12 618.134Z" fill="#3F4835"/>
<path d="M1653.3 643.33C1682.24 633.502 1693.57 582.643 1693.58 563.939C1693.58 560.561 1693.43 556.784 1693.06 552.728C1692.84 550.353 1675.5 558.668 1675.12 556.124C1674.75 553.663 1691.33 540.348 1690.77 537.773C1687.44 522.402 1680.57 505.396 1667.28 491.347C1656.93 504.43 1649.46 515.884 1644.02 526.232C1643.09 528.003 1657.76 533.993 1656.94 535.701C1656.13 537.417 1639.82 534.851 1639.1 536.509C1635.21 545.568 1632.86 553.81 1631.34 561.665C1630.95 563.677 1653.53 567.044 1653.24 569.012C1652.9 571.249 1629.72 572.081 1629.48 574.282C1627.05 596.798 1641.62 637.94 1653.3 643.33Z" fill="#3F4835"/>
<path d="M657.518 512.086C633.784 521.34 599.339 495.54 589.332 483.834C587.525 481.72 585.599 479.277 583.667 476.541C582.535 474.938 598.049 470.916 596.934 469.119C595.856 467.38 578.147 467.871 577.126 465.962C571.031 454.568 566.319 440.267 567.287 424.4C580.891 427.082 591.788 430.275 600.796 433.857C602.337 434.47 596.175 446.028 597.61 446.663C599.051 447.301 608.089 437.015 609.43 437.674C616.761 441.273 622.674 445.178 627.846 449.285C629.171 450.337 616.559 464.462 617.798 465.538C619.206 466.762 634.454 454.942 635.782 456.193C649.376 468.996 662.09 502.496 657.518 512.086Z" fill="#6C8067"/>
<path d="M638.241 508.039C663.553 505.172 682.015 466.298 685.418 451.278C686.032 448.565 686.598 445.507 687.034 442.185C687.289 440.24 671.688 443.908 671.837 441.798C671.981 439.757 687.879 431.942 687.894 429.778C687.98 416.856 685.488 402.006 677.24 388.417C666.451 397.127 658.296 405.028 651.994 412.393C650.915 413.654 661.752 421.011 660.778 422.242C659.8 423.477 647.012 418.586 646.131 419.794C641.321 426.393 637.908 432.602 635.244 438.646C634.562 440.194 652.301 446.818 651.706 448.348C651.031 450.087 632.032 446.729 631.439 448.455C625.374 466.117 629.728 501.683 638.241 508.039Z" fill="#6C8067"/>
<path d="M1109.06 660.986C1107.37 660.218 1102.08 657.523 1100.28 655.864C1093.93 650 1091.44 633.704 1091.86 626.508C1092.06 623.152 1093.37 622.19 1096.63 621.909C1102.41 621.41 1109.5 620.02 1115.39 623.237C1118.31 624.831 1121.87 626.417 1123.86 629.239C1124.98 630.828 1126.24 633.14 1124.79 629.694C1122.5 624.288 1124.12 617.904 1127.24 613.988C1131.91 608.114 1143.97 617.405 1149.5 620.884C1150.2 621.325 1153.8 625.226 1154.3 625.13C1156.03 624.797 1157.74 618.536 1159.41 617.222C1163.55 613.958 1168.54 614.149 1173.95 616.899C1174.91 617.387 1178.6 620.098 1177.18 618.258C1172.36 612.063 1167.69 604.456 1165.47 597.252C1163.57 591.082 1164.26 586.664 1166.27 581.204C1170.28 570.324 1174.15 565.882 1186.83 564.946C1203.62 563.706 1220.75 568.523 1236.75 577.27C1243.03 580.703 1250.17 583.693 1253.88 590.287C1258.16 597.9 1259.13 609.165 1259.34 617.115C1259.87 637.224 1260.56 613.337 1265.47 613.261C1267.23 613.234 1268.24 613.66 1269.94 614.591C1272.51 615.998 1266.04 602.26 1265.35 600.414L1265.33 600.352C1264.03 596.865 1256.37 576.287 1266.14 578.223C1273.77 579.735 1281.56 583.612 1288.8 586.956L1289.05 587.072C1289.51 587.284 1289.96 587.491 1290.39 587.696C1290.76 586.858 1291.17 586.125 1291.35 585.711C1296.42 573.838 1301.71 556.611 1317.98 556.796C1329.87 556.932 1349.57 561.704 1354.88 575.195C1355.69 577.258 1355.08 575.829 1354.81 574.042C1354.03 568.85 1358.82 562.029 1360.74 557.802C1368.39 540.912 1400.86 536.522 1412.46 558.281C1414.15 561.436 1416.13 566.014 1416.22 569.858C1417.93 565.006 1421.16 557.714 1424.71 554.929C1431.1 549.916 1445.63 546.282 1451.57 550.593C1457.51 554.904 1457.41 557.974 1450.91 573.191C1446.31 583.956 1454.14 598.149 1449.85 609.576C1443.21 627.231 1433.44 740.657 1418.92 753.096C1406.05 760.371 1134.43 663.156 1112 663.802C1113.84 663.936 1115.13 664.058 1111.51 663.837C1111.39 663.852 1111.28 663.871 1111.18 663.894C1119.08 664.912 1105.82 663.606 1109.67 663.742C1107.95 663.555 1109.12 663.607 1110.64 663.707C1109.88 663.269 1109.32 662.16 1109.06 660.986Z" fill="#3F4835"/>
<path d="M1686.96 846.612C1688.85 846.99 1694.55 847.864 1696.85 847.55C1705.1 846.428 1715.1 834.24 1718.23 827.95C1719.68 825.016 1719.03 823.425 1716.4 821.244C1711.72 817.37 1706.36 811.965 1699.8 811.148C1696.55 810.743 1692.74 809.941 1689.69 811.12C1687.96 811.784 1685.77 812.97 1688.68 810.949C1693.24 807.778 1694.95 801.455 1694.2 796.308C1693.07 788.588 1678.31 789.177 1671.92 788.789C1671.11 788.74 1666.16 789.865 1665.78 789.485C1664.47 788.171 1666.05 781.893 1665.26 779.794C1663.32 774.582 1658.99 771.761 1653.06 770.838C1652 770.674 1647.54 770.738 1649.65 770.049C1656.74 767.727 1664.4 764.136 1669.78 759.417C1674.38 755.376 1675.93 751.256 1676.86 745.474C1678.72 733.953 1677.58 727.911 1667.25 719.551C1653.57 708.478 1636.67 702.284 1618.82 700.061C1611.82 699.189 1604.3 697.431 1597.95 700.746C1590.62 704.574 1584.34 713.447 1580.31 719.99C1570.12 736.543 1581.1 716.09 1576.97 713.096C1575.48 712.02 1574.42 711.774 1572.52 711.538C1569.65 711.18 1581.81 703.525 1583.28 702.387L1583.33 702.349C1586.13 700.198 1602.6 687.509 1593.35 683.295C1586.13 680.003 1577.63 678.605 1569.85 677.083L1569.59 677.031C1569.09 676.934 1568.61 676.84 1568.14 676.752C1568.23 675.83 1568.24 674.969 1568.29 674.516C1569.73 661.526 1573.56 643.905 1559.63 634.343C1549.46 627.352 1530.39 619.584 1519.34 627.727C1517.65 628.972 1518.86 628.138 1519.95 626.8C1523.14 622.914 1522.36 614.324 1522.77 609.634C1524.44 590.888 1498.95 567.803 1478.54 579.125C1476 580.538 1472.75 582.705 1470.66 585.303C1471.52 580.594 1471.87 574.043 1469.75 568.998C1465.32 558.448 1451.16 547.81 1449 549.309C1448.06 549.966 1448.6 552.94 1446.76 569.59C1445.46 581.368 1440.72 587.023 1438.84 599.179C1435.94 617.961 1368.04 730.406 1374.37 749.516C1381.91 763.519 1671.81 836.71 1683 848.835C1680.61 847.551 1680.2 847.449 1680.59 847.807C1679.28 847.166 1678.79 847.016 1681.4 848.636C1686.77 851.971 1681.5 848.641 1680.59 847.807C1682.89 848.928 1687.72 851.551 1683 848.835C1684.03 849.386 1685.78 848.104 1686.96 846.612Z" fill="#3F4835"/>
<path d="M1615.28 706.205C1613.43 706.368 1607.5 706.61 1605.12 706.045C1596.7 704.049 1586.55 691.062 1583.39 684.583C1581.92 681.561 1582.59 680.08 1585.29 678.24C1590.09 674.97 1595.59 670.282 1602.29 670.201C1605.62 670.161 1609.5 669.795 1612.62 671.279C1614.38 672.116 1616.61 673.513 1613.65 671.222C1609.01 667.63 1607.29 661.273 1608.09 656.333C1609.28 648.923 1624.34 651.11 1630.87 651.43C1631.7 651.471 1636.75 653.109 1637.14 652.779C1638.48 651.641 1636.91 645.343 1637.72 643.38C1639.72 638.507 1644.17 636.227 1650.23 635.974C1651.3 635.929 1655.86 636.479 1653.71 635.577C1646.48 632.536 1638.68 628.195 1633.21 623.003C1628.53 618.556 1626.97 614.366 1626.04 608.622C1624.2 597.176 1625.4 591.406 1635.99 584.377C1650.02 575.066 1667.31 570.869 1685.54 570.651C1692.7 570.565 1700.39 569.671 1706.85 573.6C1714.32 578.137 1720.69 587.481 1724.77 594.306C1735.09 611.573 1723.98 590.414 1728.22 587.944C1729.74 587.057 1730.83 586.933 1732.77 586.91C1735.7 586.875 1723.32 578.076 1721.82 576.804L1721.77 576.761C1718.93 574.358 1702.17 560.174 1711.63 557.073C1719.03 554.65 1727.71 554.215 1735.66 553.58L1735.93 553.558C1736.44 553.517 1736.93 553.478 1737.41 553.443C1737.32 552.533 1737.32 551.693 1737.27 551.246C1735.87 538.412 1732.04 520.799 1746.31 512.99C1756.74 507.281 1776.25 501.784 1787.5 510.938C1789.21 512.337 1787.98 511.391 1786.87 509.966C1783.64 505.826 1784.48 497.529 1784.08 492.906C1782.47 474.432 1808.62 454.691 1829.4 467.97C1832.41 469.895 1836.38 472.915 1838.34 476.222C1837.45 471.154 1836.7 463.215 1838.42 459.048C1841.54 451.546 1852.42 441.255 1859.71 442.102C1867 442.95 1868.42 445.675 1870.21 462.123C1871.48 473.759 1885.27 482.29 1887.12 494.357C1889.99 513.002 1937.07 616.654 1930.52 634.611C1922.86 647.265 1638.46 695.664 1619.23 707.218C1620.89 706.437 1622.08 705.909 1618.81 707.492C1618.71 707.564 1618.63 707.634 1618.55 707.703C1625.94 704.715 1613.74 710.079 1617.16 708.308C1615.57 708.99 1616.61 708.464 1617.99 707.803C1617.12 707.792 1616.08 707.102 1615.28 706.205Z" fill="#4C6036"/>
<path d="M2209.99 584.742C2211.81 584.149 2217.21 582.117 2219.07 580.712C2225.7 575.692 2228.45 560.166 2228.09 553.153C2227.92 549.881 2226.57 548.814 2223.21 548.203C2217.23 547.119 2209.91 545.035 2203.79 547.54C2200.76 548.781 2197.05 549.946 2194.96 552.472C2193.79 553.896 2192.46 556.004 2194 552.817C2196.42 547.819 2194.81 541.467 2191.63 537.35C2186.86 531.175 2174.29 538.921 2168.53 541.716C2167.8 542.07 2164.04 545.475 2163.52 545.33C2161.74 544.827 2160.03 538.585 2158.32 537.138C2154.07 533.547 2148.91 533.213 2143.29 535.315C2142.29 535.689 2138.44 537.93 2139.93 536.296C2144.98 530.796 2149.89 523.913 2152.26 517.165C2154.29 511.387 2153.63 507.036 2151.61 501.538C2147.58 490.584 2143.62 485.879 2130.52 483.655C2113.17 480.709 2095.4 483.595 2078.76 490.404C2072.22 493.077 2064.81 495.231 2060.9 501.232C2056.39 508.162 2055.26 518.972 2054.96 526.651C2054.19 546.073 2053.73 522.864 2048.66 522.281C2046.84 522.071 2045.79 522.38 2044.02 523.104C2041.34 524.199 2048.19 511.566 2048.92 509.85L2048.95 509.792C2050.33 506.549 2058.47 487.413 2048.34 488.273C2040.43 488.945 2032.34 491.891 2024.81 494.377L2024.55 494.463C2024.07 494.621 2023.61 494.775 2023.16 494.928C2022.79 494.079 2022.37 493.326 2022.19 492.907C2017.07 480.88 2011.78 463.643 1994.96 462.132C1982.66 461.028 1962.23 463.604 1956.59 476.118C1955.72 478.032 1956.37 476.712 1956.67 475.009C1957.54 470.061 1952.65 462.956 1950.71 458.663C1942.98 441.507 1909.44 433.881 1897.21 453.751C1895.68 456.231 1893.91 459.709 1893.37 462.998C1891.81 458.473 1888.9 452.592 1884.58 449.233C1875.55 442.208 1857.99 439.878 1856.84 442.241C1856.34 443.277 1858.27 445.603 1864.83 461.018C1869.47 471.922 1868.11 479.176 1872.43 490.691C1879.11 508.482 1875.04 639.776 1889.92 653.333C1903.36 661.841 2191.93 583.538 2207.62 588.623C2204.9 588.677 2204.5 588.789 2205.01 588.909C2203.56 588.994 2203.06 589.1 2206.13 589.233C2212.45 589.506 2206.22 589.187 2205.01 588.909C2207.57 588.76 2213.07 588.676 2207.62 588.623C2208.79 588.599 2209.69 586.623 2209.99 584.742Z" fill="#4E6238"/>
<path d="M1961.01 784.901C1959.18 784.527 1953.43 783.067 1951.31 781.846C1943.82 777.531 1937.79 762.187 1936.61 755.076C1936.06 751.759 1937.13 750.531 1940.24 749.538C1945.77 747.773 1952.38 744.85 1958.83 746.687C1962.03 747.598 1965.86 748.356 1968.42 750.668C1969.87 751.971 1971.61 753.947 1969.43 750.907C1966.01 746.14 1966.17 739.556 1968.34 735.049C1971.6 728.288 1985.42 734.684 1991.58 736.854C1992.36 737.129 1996.73 740.139 1997.2 739.935C1998.81 739.228 1999.1 732.742 2000.44 731.092C2003.75 726.995 2008.66 726.078 2014.54 727.565C2015.59 727.829 2019.79 729.656 2017.99 728.177C2011.93 723.199 2005.69 716.812 2001.94 710.276C1998.72 704.679 1998.42 700.218 1999.17 694.448C2000.67 682.952 2003.47 677.764 2015.62 674.05C2031.73 669.131 2049.49 670.043 2067.03 675.038C2073.92 676.999 2081.54 678.336 2086.62 683.947C2092.48 690.426 2095.91 701.198 2097.87 708.905C2102.84 728.399 2098.23 704.95 2103 703.792C2104.71 703.376 2105.79 703.569 2107.65 704.101C2110.48 704.904 2101.12 692.937 2100.04 691.289L2100.01 691.233C2097.97 688.12 2085.96 669.742 2095.91 669.471C2103.69 669.26 2112.14 671.321 2119.94 672.982L2120.21 673.039C2120.7 673.145 2121.19 673.247 2121.66 673.351C2121.83 672.453 2122.07 671.647 2122.15 671.205C2124.47 658.505 2125.83 640.533 2141.73 637.12C2153.35 634.625 2173.62 634.925 2181.79 646.908C2183.04 648.74 2182.13 647.482 2181.47 645.798C2179.55 640.908 2182.72 633.196 2183.66 628.651C2187.39 610.486 2218.08 599.03 2234.21 617.687C2236.55 620.392 2239.49 624.419 2240.43 628.148C2241.02 623.038 2242.56 615.213 2245.41 611.713C2250.53 605.412 2263.9 598.655 2270.65 601.548C2277.39 604.44 2277.97 607.456 2275 623.733C2272.89 635.247 2283.67 647.358 2282 659.453C2279.43 678.139 2294.97 790.919 2283.56 806.258C2272.61 816.199 1986.22 781.412 1964.5 786.997C1966.31 786.723 1967.6 786.556 1964.02 787.141C1963.91 787.182 1963.8 787.225 1963.71 787.269C1971.65 786.515 1958.42 788.173 1962.21 787.454C1960.49 787.652 1961.64 787.446 1963.15 787.206C1962.31 786.945 1961.52 785.989 1961.01 784.901Z" fill="#4C6036"/>
<path d="M2565.64 838.228C2567.56 838.181 2573.31 837.773 2575.49 836.957C2583.29 834.041 2590.35 819.944 2592 813.119C2592.78 809.936 2591.79 808.528 2588.74 806.983C2583.32 804.238 2576.9 800.152 2570.32 800.805C2567.06 801.128 2563.17 801.187 2560.45 803.012C2558.92 804.041 2557.04 805.682 2559.43 803.068C2563.17 798.968 2563.45 792.423 2561.58 787.57C2558.77 780.29 2544.51 784.125 2538.19 785.16C2537.39 785.291 2532.81 787.481 2532.36 787.194C2530.79 786.203 2530.94 779.732 2529.71 777.858C2526.66 773.204 2521.81 771.411 2515.82 771.821C2514.76 771.894 2510.43 772.942 2512.33 771.804C2518.73 767.972 2525.41 762.778 2529.61 756.988C2533.2 752.029 2533.8 747.669 2533.44 741.823C2532.71 730.175 2530.25 724.536 2518.33 718.665C2502.54 710.89 2484.69 708.584 2466.79 710.36C2459.77 711.057 2452.05 711.004 2446.59 715.64C2440.29 720.994 2436.12 731.034 2433.64 738.306C2427.36 756.701 2433.55 734.328 2428.86 732.321C2427.17 731.6 2426.08 731.596 2424.17 731.785C2421.29 732.071 2431.46 721.917 2432.65 720.481L2432.69 720.432C2434.94 717.718 2448.2 701.702 2438.25 699.636C2430.48 698.022 2421.88 698.536 2413.96 698.771L2413.69 698.779C2413.18 698.794 2412.69 698.808 2412.22 698.826C2412.1 697.906 2411.92 697.066 2411.87 696.613C2410.4 683.626 2410.24 665.595 2394.55 659.346C2383.08 654.777 2362.76 651.415 2353.78 661.799C2352.41 663.386 2353.41 662.305 2354.18 660.759C2356.43 656.265 2353.77 648.06 2353.14 643.393C2350.62 624.743 2320.66 607.863 2303.26 623.414C2301.09 625.355 2298.4 628.184 2296.94 631.18C2296.73 626.398 2295.63 619.932 2292.45 615.479C2285.79 606.169 2269.63 598.924 2267.86 600.862C2267.08 601.712 2268.27 604.493 2270.16 621.138C2271.49 632.912 2268.11 639.476 2268.97 651.746C2270.29 670.703 2228.92 795.374 2239.31 812.614C2249.76 824.604 2548.67 831.92 2562.26 841.272C2559.65 840.549 2559.22 840.54 2559.69 840.803C2558.26 840.468 2557.76 840.428 2560.66 841.431C2566.64 843.497 2560.76 841.414 2559.69 840.803C2562.17 841.389 2567.47 842.878 2562.26 841.272C2563.39 841.583 2564.82 839.945 2565.64 838.228Z" fill="#4E6238"/>
<path d="M442.491 149.143C368.027 294.283 618.552 377.89 672.739 251.408C736.239 333.066 794.096 322.724 799.506 256.309C883.825 280.388 913.367 194.009 855.103 154C907.055 155.874 929.256 152.229 889.426 91.8164C989.148 129.425 1042.33 29.114 967.227 -29.8034C1008.71 -46.2917 1040.63 -111.177 922.588 -149.583C913.912 -185.274 898.084 -196.901 855.194 -206.427C845.288 -241.144 830.847 -236.016 806.064 -229.586C804.422 -279.577 783.433 -291.704 723.259 -295.262C699.84 -318.172 686.431 -330.27 653.898 -327.958C605.788 -355.019 578.891 -368.611 533.88 -332.812C471.268 -364.922 442.158 -365.647 409.482 -311.52C373.415 -318.088 362.826 -309.001 357.364 -274.964C230.143 -297.314 128.461 -11.4168 427.14 102.725C415.958 126.034 420.981 135.693 442.491 149.143Z" fill="url(#paint0_linear_952_2654)"/>
<path d="M442.491 149.143C368.027 294.283 618.552 377.89 672.739 251.408C736.239 333.066 794.096 322.724 799.506 256.309C883.825 280.388 913.367 194.009 855.103 154C907.055 155.874 929.256 152.229 889.426 91.8164C989.148 129.425 1042.33 29.114 967.227 -29.8034C1008.71 -46.2917 1040.63 -111.177 922.588 -149.583C913.912 -185.274 898.084 -196.901 855.194 -206.427C845.288 -241.144 830.847 -236.016 806.064 -229.586C804.422 -279.577 783.433 -291.704 723.259 -295.262C699.84 -318.172 686.431 -330.27 653.898 -327.958C605.788 -355.019 578.891 -368.611 533.88 -332.812C471.268 -364.922 442.158 -365.647 409.482 -311.52C373.415 -318.088 362.826 -309.001 357.364 -274.964C230.143 -297.314 128.461 -11.4168 427.14 102.725C415.958 126.034 420.981 135.693 442.491 149.143Z" fill="black" fill-opacity="0.6"/>
<path d="M1952.13 221.143C2026.59 366.283 1776.07 449.89 1721.88 323.408C1658.38 405.066 1600.52 394.724 1595.11 328.309C1510.79 352.388 1481.25 266.009 1539.52 226C1487.56 227.874 1465.36 224.229 1505.19 163.816C1405.47 201.425 1352.29 101.114 1427.39 42.1966C1385.91 25.7083 1353.99 -39.177 1472.03 -77.5828C1480.71 -113.274 1496.54 -124.901 1539.43 -134.427C1549.33 -169.144 1563.77 -164.016 1588.56 -157.586C1590.2 -207.577 1611.19 -219.704 1671.36 -223.262C1694.78 -246.172 1708.19 -258.27 1740.72 -255.958C1788.83 -283.019 1815.73 -296.611 1860.74 -260.812C1923.35 -292.922 1952.46 -293.647 1985.14 -239.52C2021.2 -246.088 2031.79 -237.001 2037.26 -202.964C2164.48 -225.314 2266.16 60.5832 1967.48 174.725C1978.66 198.034 1973.64 207.693 1952.13 221.143Z" fill="url(#paint1_linear_952_2654)"/>
<path d="M1952.13 221.143C2026.59 366.283 1776.07 449.89 1721.88 323.408C1658.38 405.066 1600.52 394.724 1595.11 328.309C1510.79 352.388 1481.25 266.009 1539.52 226C1487.56 227.874 1465.36 224.229 1505.19 163.816C1405.47 201.425 1352.29 101.114 1427.39 42.1966C1385.91 25.7083 1353.99 -39.177 1472.03 -77.5828C1480.71 -113.274 1496.54 -124.901 1539.43 -134.427C1549.33 -169.144 1563.77 -164.016 1588.56 -157.586C1590.2 -207.577 1611.19 -219.704 1671.36 -223.262C1694.78 -246.172 1708.19 -258.27 1740.72 -255.958C1788.83 -283.019 1815.73 -296.611 1860.74 -260.812C1923.35 -292.922 1952.46 -293.647 1985.14 -239.52C2021.2 -246.088 2031.79 -237.001 2037.26 -202.964C2164.48 -225.314 2266.16 60.5832 1967.48 174.725C1978.66 198.034 1973.64 207.693 1952.13 221.143Z" fill="black" fill-opacity="0.6"/>
<path d="M2387.76 -146.968C2372.01 -309.334 2635.72 -294.75 2639.49 -157.201C2728.61 -209.717 2778.58 -178.785 2759.14 -115.049C2846.4 -106.366 2842.04 -15.1786 2773.13 0.546963C2822.12 17.9481 2841.41 29.5158 2782.13 71.0027C2888.69 72.7832 2901.17 185.633 2809.64 212.732C2842.13 243.345 2847.89 315.425 2724.01 307.637C2702.79 337.62 2683.79 342.597 2640.41 335.65C2618.41 364.274 2606.87 354.186 2586.2 339.077C2566.26 384.945 2542.28 388.486 2485.03 369.622C2454.81 382.291 2437.89 388.597 2408.5 374.46C2353.8 381.891 2323.79 384.616 2295.14 334.751C2225.1 341.532 2197.77 331.481 2187.33 269.122C2151.39 261.938 2144.89 249.589 2152.35 215.934C2025.85 189.835 2036.66 -113.413 2356.38 -109.472C2354.58 -135.261 2362.81 -142.39 2387.76 -146.968Z" fill="url(#paint2_linear_952_2654)"/>
<path d="M2387.76 -146.968C2372.01 -309.334 2635.72 -294.75 2639.49 -157.201C2728.61 -209.717 2778.58 -178.785 2759.14 -115.049C2846.4 -106.366 2842.04 -15.1786 2773.13 0.546963C2822.12 17.9481 2841.41 29.5158 2782.13 71.0027C2888.69 72.7832 2901.17 185.633 2809.64 212.732C2842.13 243.345 2847.89 315.425 2724.01 307.637C2702.79 337.62 2683.79 342.597 2640.41 335.65C2618.41 364.274 2606.87 354.186 2586.2 339.077C2566.26 384.945 2542.28 388.486 2485.03 369.622C2454.81 382.291 2437.89 388.597 2408.5 374.46C2353.8 381.891 2323.79 384.616 2295.14 334.751C2225.1 341.532 2197.77 331.481 2187.33 269.122C2151.39 261.938 2144.89 249.589 2152.35 215.934C2025.85 189.835 2036.66 -113.413 2356.38 -109.472C2354.58 -135.261 2362.81 -142.39 2387.76 -146.968Z" fill="black" fill-opacity="0.6"/>
<path d="M878.744 36.0512C726.195 93.8383 856.055 323.815 981.051 266.282C973.433 369.443 1023.3 400.552 1071.83 354.895C1118.26 429.285 1198.09 384.988 1181.67 316.244C1218.97 352.459 1237.88 364.637 1248.82 293.108C1297.61 387.863 1404.32 349.076 1388.08 255.011C1429.92 270.582 1497.1 243.828 1435.25 136.205C1452.74 103.904 1448.79 84.6658 1423.35 48.8461C1439.27 16.444 1425.11 10.569 1402.41 -1.27304C1434.7 -39.47 1427.26 -62.5385 1384.99 -105.516C1382.97 -138.214 1381.13 -156.18 1355.44 -176.272C1337.88 -228.603 1327.03 -256.719 1269.63 -260.327C1244.69 -326.125 1223.58 -346.177 1163.05 -327.915C1140.69 -356.966 1126.74 -357.32 1099.87 -335.725C1020.44 -437.59 753.344 -293.598 898.468 -8.68408C874.546 1.11678 871.798 11.6522 878.744 36.0512Z" fill="url(#paint3_linear_952_2654)"/>
<path d="M878.744 36.0512C726.195 93.8383 856.055 323.815 981.051 266.282C973.433 369.443 1023.3 400.552 1071.83 354.895C1118.26 429.285 1198.09 384.988 1181.67 316.244C1218.97 352.459 1237.88 364.637 1248.82 293.108C1297.61 387.863 1404.32 349.076 1388.08 255.011C1429.92 270.582 1497.1 243.828 1435.25 136.205C1452.74 103.904 1448.79 84.6658 1423.35 48.8461C1439.27 16.444 1425.11 10.569 1402.41 -1.27304C1434.7 -39.47 1427.26 -62.5385 1384.99 -105.516C1382.97 -138.214 1381.13 -156.18 1355.44 -176.272C1337.88 -228.603 1327.03 -256.719 1269.63 -260.327C1244.69 -326.125 1223.58 -346.177 1163.05 -327.915C1140.69 -356.966 1126.74 -357.32 1099.87 -335.725C1020.44 -437.59 753.344 -293.598 898.468 -8.68408C874.546 1.11678 871.798 11.6522 878.744 36.0512Z" fill="black" fill-opacity="0.4"/>
<path d="M921 134.914C926.744 164.923 939.596 182.112 948.391 197.219C974.82 242.616 1001.93 280.931 1031.04 299.362C1065.44 321.151 1100.48 329.347 1135.39 332.012C1181.99 335.57 1229.71 340.942 1275.87 314.339C1304.46 297.868 1332.83 277.029 1361.23 257.127C1379.29 244.469 1372.92 242.455 1387.81 218.25C1405.16 175.044 1422.11 120.768 1440.71 134.914C1450.77 142.568 1449.19 90.9045 1459 101.418" stroke="#40502E" stroke-width="7.15618" stroke-linecap="round"/>
<path d="M890 70.9063C890 66.996 890 72.2548 890 73.0595C890 100.785 896.793 128.589 901.892 153.223C916.97 226.063 939.499 289.291 964.013 349.158C973.888 373.275 981.381 388.532 995.621 395.865C1025.34 411.169 1048.95 340.804 1061.81 293.177C1078.19 232.504 1081.69 160.541 1102.65 106.019C1111.04 84.1888 1117.57 71.7682 1128 56" stroke="#40502E" stroke-width="7.15618" stroke-linecap="round"/>
<path d="M1869.75 -29.6927C1709.41 -59.7022 1700.67 204.261 1837.35 220.153C1777.18 304.292 1803.58 356.802 1868.78 343.059C1869.73 430.744 1960.95 434.441 1982.69 367.191C1995.71 417.523 2005.53 437.764 2052.08 382.368C2044.45 488.673 2155.76 511.061 2190.83 422.279C2218.46 457.341 2289.75 469.441 2292.92 345.354C2324.66 326.865 2331.29 308.38 2328.2 264.554C2358.65 245.164 2349.62 232.784 2336.4 210.861C2383.84 195.039 2389.49 171.464 2375.75 112.772C2391.03 83.7948 2398.81 67.4942 2387.32 36.9696C2399.55 -16.8577 2404.91 -46.5136 2357.77 -79.4547C2370.7 -148.621 2363.1 -176.73 2301.9 -192.625C2297.92 -229.068 2286.19 -236.627 2252.01 -232.163C2237.17 -360.477 1934.15 -376.459 1909.87 -57.6366C1884.34 -61.7116 1876.51 -54.1434 1869.75 -29.6927Z" fill="url(#paint4_linear_952_2654)"/>
<path d="M1869.75 -29.6927C1709.41 -59.7022 1700.67 204.261 1837.35 220.153C1777.18 304.292 1803.58 356.802 1868.78 343.059C1869.73 430.744 1960.95 434.441 1982.69 367.191C1995.71 417.523 2005.53 437.764 2052.08 382.368C2044.45 488.673 2155.76 511.061 2190.83 422.279C2218.46 457.341 2289.75 469.441 2292.92 345.354C2324.66 326.865 2331.29 308.38 2328.2 264.554C2358.65 245.164 2349.62 232.784 2336.4 210.861C2383.84 195.039 2389.49 171.464 2375.75 112.772C2391.03 83.7948 2398.81 67.4942 2387.32 36.9696C2399.55 -16.8577 2404.91 -46.5136 2357.77 -79.4547C2370.7 -148.621 2363.1 -176.73 2301.9 -192.625C2297.92 -229.068 2286.19 -236.627 2252.01 -232.163C2237.17 -360.477 1934.15 -376.459 1909.87 -57.6366C1884.34 -61.7116 1876.51 -54.1434 1869.75 -29.6927Z" fill="black" fill-opacity="0.4"/>
<path d="M2166.57 278.379C2124.39 435.96 2386.92 464.848 2413.21 329.783C2492.5 396.211 2546.88 373.9 2538.16 307.837C2625.66 313.591 2636.32 222.924 2570.93 196.104C2622.11 186.978 2643.04 178.733 2591.36 128.08C2696.77 143.81 2727.6 34.5385 2641.76 -7.21328C2678.83 -32.0794 2696.35 -102.237 2572.87 -114.884C2556.86 -147.942 2538.93 -155.969 2495 -156.235C2477.99 -188.082 2464.96 -180.023 2442.09 -168.511C2429.94 -217.031 2406.87 -224.459 2347.29 -215.246C2319.57 -232.701 2303.91 -241.698 2272.6 -232.577C2219.86 -248.882 2190.7 -256.496 2154.26 -212.009C2086.28 -230.191 2057.67 -224.761 2037.15 -164.959C2000.51 -163.773 1992.07 -152.657 1993.91 -118.233C1864.84 -113.248 1825.74 187.663 2141.78 236.243C2135.76 261.386 2142.71 269.769 2166.57 278.379Z" fill="url(#paint5_linear_952_2654)"/>
<path d="M2166.57 278.379C2124.39 435.96 2386.92 464.848 2413.21 329.783C2492.5 396.211 2546.88 373.9 2538.16 307.837C2625.66 313.591 2636.32 222.924 2570.93 196.104C2622.11 186.978 2643.04 178.733 2591.36 128.08C2696.77 143.81 2727.6 34.5385 2641.76 -7.21328C2678.83 -32.0794 2696.35 -102.237 2572.87 -114.884C2556.86 -147.942 2538.93 -155.969 2495 -156.235C2477.99 -188.082 2464.96 -180.023 2442.09 -168.511C2429.94 -217.031 2406.87 -224.459 2347.29 -215.246C2319.57 -232.701 2303.91 -241.698 2272.6 -232.577C2219.86 -248.882 2190.7 -256.496 2154.26 -212.009C2086.28 -230.191 2057.67 -224.761 2037.15 -164.959C2000.51 -163.773 1992.07 -152.657 1993.91 -118.233C1864.84 -113.248 1825.74 187.663 2141.78 236.243C2135.76 261.386 2142.71 269.769 2166.57 278.379Z" fill="black" fill-opacity="0.4"/>
<path d="M207.762 296.467C226.938 449.56 435.064 369.087 411.164 241.827C492.742 267.378 526.673 226.262 498.645 172.684C566.758 142.514 545.422 59.8944 487.215 62.9834C523.003 34.5437 536.177 19.0135 480.625 -3.99899C565.534 -32.7417 553.435 -139.538 474.903 -141.137C494.904 -177.511 485.41 -245.163 387.82 -206.498C364.978 -228.631 348.804 -228.369 315.455 -210.954C292.252 -231.641 284.997 -219.443 271.416 -200.312C246.481 -237.355 226.603 -234.506 184.489 -202.621C157.838 -206.568 143.065 -208.053 122.316 -187.596C77.1015 -180.505 52.5558 -175.373 39.3894 -122.297C-17.9718 -110.707 -37.87 -94.5252 -34.0146 -34.6117C-61.3701 -18.8712 -64.1502 -5.87921 -51.5934 23.1248C-147.698 79.27 -79.7024 354.968 175.323 270.018C178.924 294.158 186.903 298.611 207.762 296.467Z" fill="#6E8A4F"/>
<path d="M759.681 -16.9984L722.653 -21C721.049 108.532 714.86 216.773 708.776 273.065C702.693 329.357 698.726 453.212 678.892 549.598L798.995 592.499C756.031 397.141 736.188 304.767 738.135 250.361C740.082 195.955 749.372 72.2874 759.681 -16.9984Z" fill="#343D48"/>
<path d="M676.536 -33.704L639.508 -37.7056C634.506 123.266 625.464 257.905 617.889 328.001C610.313 398.097 603.091 552.077 580.675 672.346L699.995 722.499C662.027 480.913 644.547 366.669 647.925 299.025C651.303 231.381 663.858 77.4938 676.536 -33.704Z" fill="#343D48"/>
<path d="M505.681 -9.99844L468.653 -14C467.049 115.532 460.86 223.773 454.776 280.065C448.693 336.357 444.726 460.212 424.892 556.598L544.995 599.499C502.031 404.141 482.188 311.767 484.135 257.361C486.082 202.955 495.372 79.2874 505.681 -9.99844Z" fill="#74906D"/>
<path d="M34.9674 9.00156L71.9951 5C73.5993 134.532 79.7888 242.773 85.8722 299.065C91.9556 355.357 95.9225 479.212 115.757 575.598L-4.34624 618.499C38.6171 423.141 58.4608 330.767 56.5135 276.361C54.5662 221.955 45.2768 98.2874 34.9674 9.00156Z" fill="#74906D"/>
<path d="M888.967 30.0016L925.995 26C927.599 155.532 933.789 263.773 939.872 320.065C945.956 376.357 949.922 500.212 969.757 596.598L849.654 639.499C892.617 444.141 912.461 351.767 910.513 297.361C908.566 242.955 899.277 119.287 888.967 30.0016Z" fill="#74906D"/>
<path d="M210.681 9.00156L173.653 5C172.049 134.532 165.86 242.773 159.776 299.065C153.693 355.357 149.726 479.212 129.892 575.598L249.995 618.499C207.031 423.141 187.188 330.767 189.135 276.361C191.082 221.955 200.372 98.2874 210.681 9.00156Z" fill="#343D48"/>
<path d="M1259.27 373.879C1286.21 485.961 1335.99 613.892 1388.81 754.182L1519.9 733.033C1463.5 644.489 1368.35 608.953 1315.87 455.191C1263.38 301.43 1242.6 181.788 1217.21 28.5855L1203.91 30.7322C1215.12 160.999 1232.34 261.798 1259.27 373.879Z" fill="#343D48"/>
<path d="M595.623 279.018C568.689 391.1 518.907 519.031 466.083 659.321L335 638.172C391.401 549.628 486.544 514.091 539.031 360.33C591.517 206.569 612.293 86.9269 637.683 -66.2758L650.988 -64.1292C639.775 66.1381 622.558 166.936 595.623 279.018Z" fill="#4E6238"/>
<path d="M627.529 288.215C572.036 389.251 563.5 394.5 563.5 394.5L551.526 351.758C642.642 217.241 694.184 107.289 759.013 -33.8238L771.284 -28.2499C726.17 94.4694 683.023 187.178 627.529 288.215Z" fill="#4E6238"/>
<path d="M1747.55 366.386C1719.48 485.534 1668.36 621.717 1614.08 771.039L1483 749.889C1540.36 655.419 1636 616.794 1690.07 453.187C1744.15 289.58 1766.13 162.474 1793.06 -0.275797L1806.36 1.87085C1793.86 140.154 1775.63 247.238 1747.55 366.386Z" fill="#74906D"/>
<path d="M2878.69 349.768C2873.63 466.571 2850.76 603.398 2827.26 753.118L2705.93 756.163C2741.47 657.419 2820.85 604.431 2841.74 441.331C2862.63 278.231 2860.87 155.019 2857.52 -2.53243L2869.84 -2.8415C2882 129.212 2883.74 232.965 2878.69 349.768Z" fill="#343D48"/>
<path d="M2265.62 386.018C2238.69 498.1 2188.91 626.031 2136.08 766.321L2005 745.172C2061.4 656.628 2156.54 621.091 2209.03 467.33C2261.52 313.569 2282.29 193.927 2307.68 40.7242L2320.99 42.8708C2309.77 173.138 2292.56 273.936 2265.62 386.018Z" fill="#343D48"/>
<path d="M1335.55 406.193C1330.12 539.758 1345.05 570.645 1345.05 570.645C1345.05 570.645 1374.76 701.483 1367.26 513.772C1359.76 326.061 1373.23 185.786 1391.64 6.51356L1378.24 5.08734C1352.6 154.531 1340.98 272.629 1335.55 406.193Z" fill="#343D48"/>
<path d="M-26.3328 170.027C-91.9037 310.493 125.998 352.897 173.813 231.894C228.758 297.089 279.221 280.183 284.249 219.669C357.607 230.285 383.757 148.627 333.177 120.248C378.438 115.116 397.799 108.921 363.379 59.7497C450.095 80.5269 496.911 -16.7791 431.746 -59.9745C467.969 -80.2656 496.087 -142.881 393.416 -161.972C386.024 -192.971 372.288 -201.364 334.96 -204.313C326.493 -234.273 313.886 -227.76 292.26 -218.718C291.065 -263.517 272.834 -271.682 220.417 -266.989C200.119 -284.544 188.493 -293.678 160.134 -287.326C118.341 -305.379 94.9677 -314.088 55.578 -275.945C1.17263 -296.641 -24.1891 -293.474 -52.9181 -240.447C-84.3137 -241.627 -93.5834 -232.055 -98.5041 -200.689C-209.253 -204.117 -299.206 66.6656 -39.4897 130.245C-49.3434 152.701 -45.0118 160.74 -26.3328 170.027Z" fill="#8EAE6A"/>
<path d="M238 -20C238 -20 183.036 85.2245 107.736 141.724C32.4357 198.223 -19.5259 160.148 -47.7085 141.724C-75.8911 123.3 -112 232 -112 232" stroke="#197175" stroke-width="8.58741"/>
<path d="M49 -11.0213C49 -13.3767 49 -10.2091 49 -9.7244C49 6.97594 53.3956 23.7234 56.6949 38.5609C66.4511 82.4355 81.0288 120.52 96.8909 156.581C103.281 171.107 108.129 180.297 117.343 184.714C136.575 193.932 151.853 151.549 160.172 122.861C170.769 86.3155 173.033 42.9691 186.598 10.1285C192.029 -3.02079 196.253 -10.5022 203 -20" stroke="#197175" stroke-width="7.15618" stroke-linecap="round"/>
<path d="M1249.8 104.086C1312.79 239.012 1103.48 279.745 1057.55 163.513C1004.77 226.137 956.295 209.898 951.465 151.77C880.999 161.968 855.881 83.5292 904.466 56.2693C860.99 51.3397 842.392 45.3889 875.455 -1.84393C792.159 18.1141 747.188 -75.3552 809.784 -116.847C774.989 -136.338 747.98 -196.485 846.602 -214.823C853.703 -244.6 866.897 -252.662 902.753 -255.494C910.887 -284.274 922.997 -278.018 943.77 -269.332C944.918 -312.364 962.43 -320.208 1012.78 -315.699C1032.28 -332.563 1043.45 -341.336 1070.69 -335.235C1110.83 -352.576 1133.28 -360.942 1171.12 -324.303C1223.38 -344.183 1247.74 -341.14 1275.34 -290.204C1305.5 -291.338 1314.4 -282.143 1319.13 -252.014C1425.51 -255.306 1511.92 4.79931 1262.44 65.8718C1271.9 87.4423 1267.74 95.1642 1249.8 104.086Z" fill="#70904B"/>
<path d="M2388.68 20.6744C2495.32 124.594 2313.96 236.74 2229.88 144.272C2202.67 221.518 2151.59 223.478 2126.5 170.817C2064.2 205.284 2012.96 140.804 2048.76 98.1186C2006.35 108.888 1986.85 109.902 2001.07 54.0265C1930.22 102.162 1855.09 30.6456 1898.96 -30.3076C1859.52 -36.2291 1812.98 -82.9309 1898.73 -134.973C1894.84 -165.336 1904.33 -177.544 1936.86 -192.878C1934.29 -222.674 1947.83 -221.107 1970.33 -220.332C1956.18 -260.987 1969.79 -274.519 2018.48 -288.114C2030.75 -310.784 2038.09 -322.941 2065.73 -326.871C2097.14 -357.294 2115.18 -373.061 2163.53 -352.177C2205.38 -389.259 2229.25 -395.032 2273.08 -357.152C2300.88 -368.881 2312.46 -363.431 2327.54 -336.922C2425.88 -377.637 2598.72 -164.919 2386.98 -19.5392C2403.46 -2.71196 2402.3 5.98247 2388.68 20.6744Z" fill="#70904B"/>
<path d="M1372.22 609.302C917.901 474.494 520.452 475.933 -19 455V1270.99C-19 1294.49 1627 1293.13 2450 1283.34V754.543C1920.32 754.543 1826.54 744.11 1372.22 609.302Z" fill="url(#paint6_linear_952_2654)"/>
<path d="M935.384 504.299C937.354 511.323 937.153 517.341 935.376 524.929C930.348 520.384 926.957 514.347 924.576 509.448C922.194 504.548 920.009 493.422 925.34 490.459C930.669 487.498 933.41 497.267 935.381 504.29L935.384 504.299Z" fill="#465A31"/>
<path d="M947.665 511.944C944.769 518.401 940.863 522.428 934.792 526.294C933.839 519.127 935.049 512.225 936.311 506.92C937.573 501.614 942.868 492.131 948.732 494.315C954.594 496.497 950.565 505.478 947.669 511.935L947.665 511.944Z" fill="#465A31"/>
<path d="M926.26 511.329C931.493 515.568 933.937 520.02 935.375 526.297C927.939 525.185 921.609 522.28 916.872 519.761C912.135 517.242 904.856 510.12 909.3 505.654C913.741 501.19 921.02 507.086 926.253 511.324L926.26 511.329Z" fill="#465A31"/>
<path d="M954.682 520.754C948.447 524.54 942.596 525.963 934.81 526.292C937.837 520.227 942.74 515.338 946.819 511.727C950.898 508.117 961.028 503.022 965.314 507.361C969.599 511.697 960.926 516.963 954.691 520.749L954.682 520.754Z" fill="#465A31"/>
<path d="M1592.38 666.299C1594.35 673.323 1594.15 679.341 1592.38 686.929C1587.35 682.384 1583.96 676.347 1581.58 671.448C1579.19 666.548 1577.01 655.422 1582.34 652.459C1587.67 649.498 1590.41 659.267 1592.38 666.29L1592.38 666.299Z" fill="#52653D"/>
<path d="M1604.67 673.944C1601.77 680.401 1597.86 684.428 1591.79 688.294C1590.84 681.127 1592.05 674.225 1593.31 668.92C1594.57 663.614 1599.87 654.131 1605.73 656.315C1611.59 658.497 1607.57 667.478 1604.67 673.935L1604.67 673.944Z" fill="#52653D"/>
<path d="M1583.26 673.329C1588.49 677.568 1590.94 682.02 1592.38 688.297C1584.94 687.185 1578.61 684.28 1573.87 681.761C1569.14 679.242 1561.86 672.12 1566.3 667.654C1570.74 663.19 1578.02 669.086 1583.25 673.324L1583.26 673.329Z" fill="#52653D"/>
<path d="M1611.68 682.754C1605.45 686.54 1599.6 687.963 1591.81 688.292C1594.84 682.227 1599.74 677.338 1603.82 673.727C1607.9 670.117 1618.03 665.022 1622.31 669.361C1626.6 673.697 1617.93 678.963 1611.69 682.749L1611.68 682.754Z" fill="#52653D"/>
<path d="M687.384 475.299C689.354 482.323 689.153 488.341 687.376 495.929C682.348 491.384 678.957 485.347 676.576 480.448C674.194 475.548 672.009 464.422 677.34 461.459C682.669 458.498 685.41 468.267 687.381 475.29L687.384 475.299Z" fill="#465A31"/>
<path d="M699.665 482.944C696.769 489.401 692.863 493.428 686.792 497.294C685.839 490.127 687.049 483.225 688.311 477.92C689.573 472.614 694.868 463.131 700.732 465.315C706.594 467.497 702.565 476.478 699.669 482.935L699.665 482.944Z" fill="#465A31"/>
<path d="M678.26 482.329C683.493 486.568 685.937 491.02 687.375 497.297C679.939 496.185 673.609 493.28 668.872 490.761C664.135 488.242 656.856 481.12 661.3 476.654C665.741 472.19 673.02 478.086 678.253 482.324L678.26 482.329Z" fill="#465A31"/>
<path d="M706.682 491.754C700.447 495.54 694.596 496.963 686.81 497.292C689.837 491.227 694.74 486.338 698.819 482.727C702.898 479.117 713.028 474.022 717.314 478.361C721.599 482.697 712.926 487.963 706.691 491.749L706.682 491.754Z" fill="#465A31"/>
<path d="M203.384 449.299C205.354 456.323 205.153 462.341 203.376 469.929C198.348 465.384 194.957 459.347 192.576 454.448C190.194 449.548 188.009 438.422 193.34 435.459C198.669 432.498 201.41 442.267 203.381 449.29L203.384 449.299Z" fill="#465A31"/>
<path d="M215.665 456.944C212.769 463.401 208.863 467.428 202.792 471.294C201.839 464.127 203.049 457.225 204.311 451.92C205.573 446.614 210.868 437.131 216.732 439.315C222.594 441.497 218.565 450.478 215.669 456.935L215.665 456.944Z" fill="#465A31"/>
<path d="M194.26 456.329C199.493 460.568 201.937 465.02 203.375 471.297C195.939 470.185 189.609 467.28 184.872 464.761C180.135 462.242 172.856 455.12 177.3 450.654C181.741 446.19 189.02 452.086 194.253 456.324L194.26 456.329Z" fill="#465A31"/>
<path d="M222.682 465.754C216.447 469.54 210.596 470.963 202.81 471.292C205.837 465.227 210.74 460.338 214.819 456.727C218.898 453.117 229.028 448.022 233.314 452.361C237.599 456.697 228.926 461.963 222.691 465.749L222.682 465.754Z" fill="#465A31"/>
<path d="M1206.44 702.239C1239.07 716.138 1288.1 681.761 1302.53 665.92C1305.13 663.059 1307.92 659.746 1310.72 656.025C1312.37 653.846 1290.95 647.579 1292.58 645.128C1294.16 642.757 1318.77 644.21 1320.28 641.6C1329.25 626.021 1336.42 606.341 1335.75 584.236C1316.71 587.373 1301.41 591.34 1288.73 595.928C1286.56 596.714 1294.63 613.054 1292.61 613.874C1290.58 614.698 1278.44 600.003 1276.55 600.861C1266.2 605.547 1257.8 610.718 1250.43 616.205C1248.54 617.61 1265.48 637.799 1263.71 639.242C1261.7 640.883 1240.99 623.783 1239.09 625.465C1219.63 642.676 1200.5 688.706 1206.44 702.239Z" fill="#2E3723"/>
<path d="M1234.8 689.418C1199.7 684.33 1175.69 629.472 1171.6 608.44C1170.86 604.641 1170.21 600.363 1169.75 595.725C1169.47 593.009 1191.02 598.788 1190.91 595.848C1190.79 593.004 1169.01 581.446 1169.08 578.436C1169.52 560.464 1173.63 539.924 1185.69 521.387C1200.32 533.967 1211.33 545.309 1219.78 555.824C1221.23 557.624 1205.83 567.383 1207.13 569.137C1208.44 570.897 1226.44 564.651 1227.62 566.369C1234.02 575.755 1238.51 584.537 1241.95 593.057C1242.84 595.239 1217.87 603.678 1218.63 605.832C1219.5 608.279 1246.07 604.436 1246.82 606.862C1254.5 631.684 1246.91 680.949 1234.8 689.418Z" fill="#2E3723"/>
<path d="M320.45 249.222C348.237 365.512 399.013 498.385 452.924 644.082L584.007 623.125C526.893 531.001 431.377 493.503 377.704 333.856L335.5 209.5L313.044 219.267L320.45 249.222Z" fill="#5D3E57"/>
<path d="M496.322 598.957L306 584.535C309.461 575.863 313.254 567.908 317.419 560.697C318.407 558.986 343.373 576.826 344.404 575.2C345.405 573.619 322.469 552.57 323.511 551.069C327.545 545.262 331.89 540.058 336.571 535.477C338.46 533.63 368.912 563.929 370.911 562.286C373.045 560.533 346.735 526.852 349 525.335C361.096 517.231 375.094 512.51 391.328 511.418C394.583 511.199 389.839 547.718 393.276 547.793C396.314 547.859 407.513 511.449 410.698 511.747C417.747 512.408 424.312 513.72 430.414 515.6C434.061 516.724 413.958 548.913 417.28 550.424C421.144 552.183 448.375 523.328 451.811 525.559C465.482 534.431 475.828 546.817 483.307 560.941C484.235 562.692 458.821 574.483 459.661 576.284C460.538 578.163 487.664 570.054 488.448 571.98C489.01 573.363 489.549 574.757 490.065 576.161C490.593 577.6 459.679 581.922 460.159 583.38C460.636 584.831 492.508 583.418 492.938 584.885C494.297 589.521 495.421 594.228 496.322 598.957Z" fill="#7E893D"/>
<path d="M1146.56 275.573C1118.65 392.607 1053.07 562.853 999 709.5L867.917 688.543C925.133 595.797 1035.37 521.468 1089.21 360.785C1143.05 200.101 1164.85 75.2395 1191.56 -84.6374L1204.86 -82.5102C1192.54 53.3462 1174.46 158.54 1146.56 275.573Z" fill="#5D3E57"/>
<path d="M833.482 723.65C831.704 723.089 826.136 721.04 824.154 719.607C817.147 714.538 812.746 698.652 812.311 691.457C812.108 688.102 813.297 686.991 816.495 686.326C822.179 685.143 829.056 682.921 835.28 685.417C838.366 686.653 842.098 687.805 844.407 690.37C845.707 691.815 847.234 693.961 845.38 690.712C842.471 685.616 843.318 679.085 845.946 674.827C849.888 668.44 862.965 676.233 868.872 679.031C869.62 679.385 873.653 682.832 874.14 682.677C875.819 682.141 876.778 675.721 878.278 674.218C882.001 670.486 886.976 670.083 892.672 672.172C893.683 672.543 897.677 674.795 896.039 673.138C890.525 667.558 884.983 660.559 881.925 653.669C879.307 647.769 879.469 643.3 880.816 637.64C883.5 626.361 886.819 621.491 899.294 619.057C915.818 615.833 933.396 618.582 950.322 625.367C956.966 628.031 964.411 630.152 968.877 636.258C974.035 643.31 976.334 654.38 977.487 662.248C980.404 682.152 978.254 658.352 983.113 657.694C984.86 657.458 985.913 657.762 987.714 658.483C990.436 659.575 982.373 646.703 981.472 644.952L981.442 644.893C979.74 641.585 969.693 622.061 979.623 622.824C987.382 623.419 995.569 626.345 1003.16 628.805L1003.42 628.89C1003.9 629.047 1004.37 629.199 1004.83 629.351C1005.09 628.475 1005.41 627.699 1005.54 627.267C1009.16 614.876 1012.38 597.141 1028.55 595.395C1040.37 594.118 1060.5 596.518 1067.38 609.282C1068.43 611.234 1067.65 609.888 1067.17 608.146C1065.77 603.083 1069.73 595.741 1071.13 591.317C1076.72 573.637 1108.44 565.424 1122.54 585.651C1124.59 588.584 1127.1 592.895 1127.64 596.701C1128.77 591.681 1131.11 584.057 1134.3 580.87C1140.05 575.134 1154.05 569.8 1160.46 573.376C1166.87 576.952 1167.13 580.012 1162.49 595.893C1159.2 607.127 1168.66 620.289 1165.75 632.146C1161.25 650.465 1165.02 764.248 1152.09 778.322C1140.16 787.075 858.925 722.793 836.736 726.096C838.57 726.012 839.869 725.98 836.247 726.19C836.129 726.219 836.023 726.251 835.928 726.286C843.897 726.358 830.571 726.637 834.413 726.314C832.682 726.333 833.844 726.246 835.372 726.164C834.568 725.819 833.877 724.785 833.482 723.65Z" fill="#394B33"/>
<path d="M1429.33 839.356C1431.25 839.507 1437.01 839.698 1439.26 839.113C1447.32 837.02 1455.8 823.73 1458.16 817.114C1459.25 814.028 1458.42 812.526 1455.55 810.673C1450.44 807.381 1444.48 802.651 1437.86 802.619C1434.59 802.602 1430.71 802.258 1427.82 803.791C1426.19 804.656 1424.15 806.093 1426.8 803.741C1430.95 800.051 1431.9 793.57 1430.54 788.549C1428.5 781.018 1413.92 783.354 1407.53 783.728C1406.72 783.775 1401.94 785.48 1401.52 785.147C1400.06 783.998 1400.88 777.578 1399.85 775.587C1397.3 770.642 1392.66 768.356 1386.67 768.143C1385.6 768.105 1381.18 768.698 1383.19 767.764C1389.96 764.616 1397.14 760.142 1401.91 754.818C1406 750.259 1407.05 745.984 1407.29 740.132C1407.77 728.471 1405.92 722.609 1394.67 715.534C1379.77 706.163 1362.25 702.02 1344.27 701.931C1337.21 701.897 1329.54 701.044 1323.63 705.089C1316.8 709.76 1311.62 719.315 1308.4 726.291C1300.25 743.937 1308.72 722.324 1304.26 719.842C1302.66 718.951 1301.57 718.833 1299.66 718.824C1296.76 718.81 1307.93 709.765 1309.26 708.459L1309.31 708.415C1311.82 705.949 1326.68 691.393 1316.99 688.307C1309.43 685.896 1300.83 685.517 1292.92 684.929L1292.65 684.909C1292.15 684.871 1291.66 684.835 1291.18 684.803C1291.17 683.876 1291.07 683.022 1291.06 682.566C1290.95 669.497 1292.66 651.546 1277.7 643.704C1266.77 637.971 1246.91 632.522 1236.9 641.919C1235.37 643.356 1236.47 642.384 1237.4 640.926C1240.1 636.689 1238.31 628.253 1238.17 623.546C1237.6 604.735 1209.54 584.84 1190.63 598.504C1188.27 600.21 1185.3 602.746 1183.54 605.574C1183.83 600.796 1183.4 594.25 1180.7 589.492C1175.04 579.542 1159.72 570.661 1157.76 572.406C1156.9 573.17 1157.79 576.059 1157.94 592.81C1158.04 604.659 1154.01 610.837 1153.59 623.13C1152.94 642.123 1098.87 761.833 1107.42 780.058C1116.57 793.066 1413.11 831.323 1425.66 842.034C1423.13 841.043 1422.71 840.991 1423.14 841.299C1421.76 840.818 1421.26 840.727 1424.05 842.026C1429.78 844.699 1424.15 842.019 1423.14 841.299C1425.56 842.14 1430.67 844.17 1425.66 842.034C1426.74 842.459 1428.33 840.978 1429.33 839.356Z" fill="#394B33"/>
<path d="M961.777 763.726C963.496 763.582 968.939 762.87 971.02 761.981C978.377 758.838 985.592 745.402 987.453 738.998C988.321 736.012 987.474 734.767 984.724 733.514C979.837 731.287 974.085 727.878 967.959 728.859C964.923 729.345 961.32 729.622 958.713 731.466C957.244 732.504 955.428 734.129 957.765 731.576C961.43 727.571 961.999 721.505 960.496 717.126C958.243 710.558 944.853 714.921 938.951 716.24C938.204 716.407 933.861 718.694 933.453 718.455C932.048 717.628 932.493 711.639 931.446 709.977C928.849 705.849 924.441 704.47 918.876 705.192C917.887 705.321 913.824 706.538 915.64 705.377C921.754 701.468 928.184 696.284 932.349 690.69C935.916 685.901 936.682 681.835 936.622 676.453C936.503 665.728 934.502 660.656 923.741 655.913C909.489 649.63 893.067 648.523 876.408 651.191C869.87 652.238 862.719 652.632 857.442 657.231C851.349 662.541 847.015 672.061 844.368 678.925C837.673 696.29 844.472 675.253 840.221 673.668C838.694 673.098 837.681 673.157 835.909 673.441C833.229 673.87 843.133 663.901 844.303 662.505L844.342 662.458C846.554 659.82 859.604 644.254 850.488 642.915C843.365 641.869 835.38 642.837 828.032 643.509L827.778 643.532C827.31 643.574 826.856 643.616 826.414 643.66C826.353 642.816 826.222 642.05 826.196 641.634C825.455 629.714 826.174 613.054 811.94 608.178C801.534 604.613 782.881 602.67 774.069 612.784C772.721 614.33 773.695 613.273 774.485 611.799C776.781 607.517 774.711 600.085 774.351 595.807C772.911 578.712 745.968 564.826 729.112 580.199C726.667 582.428 723.524 585.806 722.254 589.129C722.267 584.369 721.709 577.012 719.477 573.485C715.461 567.135 703.918 559.465 697.406 561.383C690.894 563.302 690.031 566.009 690.98 581.287C691.651 592.095 680.426 602.041 680.633 613.334C680.953 630.782 654.326 732.684 663.126 748.025C672.099 758.357 938.994 757.759 958.341 765.269C956.704 764.818 955.539 764.524 958.764 765.454C958.864 765.504 958.954 765.554 959.032 765.605C951.827 764.044 963.794 767.015 960.394 765.939C961.952 766.31 960.92 765.995 959.559 765.609C960.355 765.461 961.189 764.669 961.777 763.726Z" fill="#465535"/>
<path d="M400.497 746.506C398.739 746.252 393.5 745.248 391.586 744.26C384.745 740.727 379.802 727.004 379.027 720.553C378.666 717.544 379.727 716.359 382.697 715.273C387.975 713.345 394.322 710.294 400.296 711.615C403.257 712.269 406.821 712.749 409.121 714.724C410.416 715.836 411.96 717.549 410.053 714.887C407.061 710.71 407.524 704.667 409.775 700.414C413.153 694.034 425.833 699.119 431.525 700.761C432.246 700.969 436.21 703.482 436.659 703.268C438.209 702.529 438.783 696.57 440.115 694.982C443.422 691.04 448.075 689.924 453.532 690.956C454.501 691.14 458.366 692.577 456.744 691.323C451.28 687.102 445.718 681.6 442.495 675.821C439.735 670.872 439.659 666.8 440.636 661.47C442.583 650.85 445.453 645.939 457.048 641.851C472.405 636.437 489.057 636.273 505.302 639.864C511.678 641.274 518.779 642.071 523.286 646.928C528.489 652.536 531.213 662.215 532.697 669.167C536.451 686.754 533.219 665.523 537.75 664.194C539.378 663.716 540.383 663.832 542.112 664.214C544.724 664.792 536.495 654.351 535.559 652.901L535.528 652.852C533.76 650.112 523.329 633.946 532.696 633.138C540.014 632.507 547.854 633.921 555.106 635.004L555.357 635.041C555.819 635.11 556.267 635.177 556.703 635.245C556.907 634.413 557.169 633.661 557.266 633.251C560.039 621.481 562.156 604.934 577.256 600.911C588.295 597.971 607.324 597.107 614.436 607.629C615.523 609.238 614.727 608.136 614.186 606.63C612.614 602.256 615.955 595.01 617.045 590.792C621.4 573.934 650.775 561.708 665.054 577.899C666.837 579.92 668.993 582.814 670.01 585.726C670.721 581.355 672.446 575.536 675.856 571.795C682.986 563.97 698.628 559.084 700.043 561.059C700.663 561.924 699.268 564.349 695.714 579.433C693.2 590.104 695.582 596.503 693.451 607.681C690.158 624.951 714.515 744.01 703.081 758.709C692.167 768.579 416.773 742.569 403.264 749.672C405.749 749.295 406.137 749.333 405.684 749.523C407.028 749.371 407.496 749.39 404.718 749.994C399.002 751.237 404.629 749.967 405.684 749.523C403.335 749.789 398.306 750.577 403.264 749.672C402.198 749.834 401.066 748.174 400.497 746.506Z" fill="#465535"/>
<path d="M415.221 572.302C117 483.812 -16 505.436 -16 505.436V1321.42C-16 1344.92 670 1256.13 1493 1246.34V717.543C963.317 717.543 713.442 660.791 415.221 572.302Z" fill="url(#paint7_linear_952_2654)"/>
<path d="M1042.57 872.774L804 846.69C808.706 835.95 813.802 826.123 819.334 817.247C820.646 815.141 851.283 838.581 852.644 836.583C853.968 834.64 826.016 807.257 827.388 805.418C832.697 798.297 838.371 791.947 844.444 786.394C846.893 784.155 883.908 823.464 886.489 821.485C889.243 819.374 857.572 775.994 860.481 774.184C876.016 764.519 893.803 759.181 914.248 758.491C918.347 758.353 910.876 803.992 915.192 804.23C919.007 804.441 934.586 759.208 938.575 759.716C947.406 760.841 955.601 762.763 963.192 765.379C967.729 766.943 941.137 806.504 945.248 808.54C950.031 810.91 985.443 775.833 989.67 778.777C1006.48 790.487 1018.97 806.468 1027.79 824.509C1028.88 826.746 996.456 840.481 997.437 842.776C998.461 845.172 1032.89 836.132 1033.79 838.582C1034.44 840.342 1035.06 842.114 1035.65 843.897C1036.25 845.725 997.227 849.855 997.77 851.704C998.31 853.547 1038.42 853.109 1038.9 854.969C1040.42 860.845 1041.63 866.8 1042.57 872.774Z" fill="#41601F"/>
<path d="M513.083 768.533C512.629 783.916 508.434 795.905 500.08 810.066C492.818 797.748 489.79 783.458 488.08 772.094C486.37 760.73 488.977 736.951 501.576 734.342C514.17 731.735 513.538 753.131 513.084 768.512L513.083 768.533Z" fill="#4E6238"/>
<path d="M536.985 772.987C527.742 789.23 516.425 799.875 499.421 810.664C498.658 793.657 503.551 776.758 508.19 763.686C512.829 750.614 529.156 726.504 544.129 730.319C559.096 734.131 546.24 756.723 536.997 772.965L536.985 772.987Z" fill="#4E6238"/>
<path d="M477.816 762.616C489.999 776.787 496.214 791.026 500.65 810.67C484.38 805.664 470.114 795.368 459.366 786.6C448.618 777.832 431.41 754.343 440.042 741.527C448.669 728.717 465.616 748.427 477.799 762.597L477.816 762.616Z" fill="#4E6238"/>
<path d="M541.381 798.977C528.227 806.964 515.884 809.966 499.458 810.659C505.843 797.865 516.186 787.55 524.792 779.934C533.397 772.318 554.768 761.569 563.811 770.722C572.849 779.871 554.552 790.98 541.399 798.966L541.381 798.977Z" fill="#4E6238"/>
<path d="M741.083 781.533C740.629 796.916 736.434 808.905 728.08 823.066C720.818 810.748 717.79 796.458 716.08 785.094C714.37 773.73 716.977 749.951 729.576 747.342C742.17 744.735 741.538 766.131 741.084 781.512L741.083 781.533Z" fill="#788F5E"/>
<path d="M764.985 785.987C755.742 802.23 744.425 812.875 727.421 823.664C726.658 806.657 731.551 789.758 736.19 776.686C740.829 763.614 757.156 739.504 772.129 743.319C787.096 747.131 774.24 769.723 764.997 785.965L764.985 785.987Z" fill="#788F5E"/>
<path d="M705.816 775.616C717.999 789.787 724.214 804.026 728.65 823.67C712.38 818.664 698.114 808.368 687.366 799.6C676.618 790.832 659.41 767.343 668.042 754.527C676.669 741.717 693.616 761.427 705.799 775.597L705.816 775.616Z" fill="#788F5E"/>
<path d="M769.381 811.977C756.227 819.964 743.884 822.966 727.458 823.659C733.843 810.865 744.186 800.55 752.792 792.934C761.397 785.318 782.768 774.569 791.811 783.722C800.849 792.871 782.552 803.98 769.399 811.966L769.381 811.977Z" fill="#788F5E"/>
<path d="M862.546 -4.76059L804.811 -11C802.309 190.972 792.658 359.747 783.173 447.52C773.687 535.293 767.502 728.413 736.575 878.703L923.846 945.596C856.855 640.984 825.914 496.951 828.95 412.119C831.987 327.287 846.471 134.458 862.546 -4.76059Z" fill="url(#paint8_linear_952_2654)"/>
<path d="M854.328 837.482C814.366 770.166 806.442 630.594 805.088 621.907C803.734 613.22 787.753 588.767 784.156 620.566C778.725 668.59 773.587 814.121 784.651 836.457C803.041 873.584 853.855 854.631 854.328 837.482Z" fill="#2B676A"/>
<ellipse cx="7.99152" cy="16.871" rx="7.99152" ry="16.871" transform="matrix(0.996502 -0.0835726 -0.0835726 -0.996502 786.716 601.802)" fill="#2B676A"/>
<ellipse cx="5.75552" cy="12.1505" rx="5.75552" ry="12.1505" transform="matrix(0.996502 -0.0835726 -0.0835726 -0.996502 791.259 564.722)" fill="#2B676A"/>
<path d="M861.996 -1.01445C833.77 44.5627 823.016 142.442 821.798 148.495C820.579 154.548 809.392 171.039 808.398 148.495C806.898 114.449 809.569 11.7864 817.535 -3.43601C830.775 -28.7379 862.396 -13.106 861.996 -1.01445Z" fill="#2E797C"/>
<path d="M1847.55 -120.761L1789.81 -127C1787.31 74.9723 1777.66 243.747 1768.17 331.52C1758.69 419.293 1752.5 612.413 1721.58 762.703L1908.85 829.596C1841.86 524.984 1810.91 380.951 1813.95 296.119C1816.99 211.287 1831.47 18.458 1847.55 -120.761Z" fill="url(#paint9_linear_952_2654)"/>
<path d="M232.382 322.872C244.244 465.686 283.298 632.462 323.755 815H504C447.56 695.227 327.736 632.807 290.643 433.812C253.55 234.816 251.577 83.948 250.677 -109H232.382C219.242 53.009 220.52 180.058 232.382 322.872Z" fill="url(#paint10_linear_952_2654)"/>
<ellipse cx="10.028" cy="20.6387" rx="10.028" ry="20.6387" transform="matrix(0.916335 -0.400412 -0.417582 -0.908639 334.974 783.351)" fill="#2C6568"/>
<ellipse cx="7.22218" cy="14.8641" rx="7.22218" ry="14.8641" transform="matrix(0.916335 -0.400412 -0.417582 -0.908639 325.06 738.87)" fill="#2C6568"/>
<ellipse cx="8.54828" cy="17.5933" rx="8.54828" ry="17.5933" transform="matrix(0.916335 -0.400412 -0.417582 -0.908639 350.418 752.643)" fill="#2C6568"/>
<ellipse cx="6.1565" cy="12.6708" rx="6.1565" ry="12.6708" transform="matrix(0.916335 -0.400412 -0.417582 -0.908639 341.967 714.725)" fill="#2C6568"/>
<path d="M1525.01 345.385C1560.64 494.508 1552.9 531.736 1552.9 531.736C1552.9 531.736 1553.22 683.753 1518.08 471.611C1482.95 259.47 1437.86 104.172 1379.05 -94.0978L1391.96 -97.9715C1451.14 65.5635 1489.38 196.262 1525.01 345.385Z" fill="url(#paint11_linear_952_2654)"/>
<path d="M1593.62 347.296C1581.76 495.21 1542.7 667.942 1502.24 857H1322C1378.44 732.95 1498.26 668.301 1535.36 462.198C1572.45 256.095 1574.42 99.8389 1575.32 -100H1593.62C1606.76 67.795 1605.48 199.382 1593.62 347.296Z" fill="url(#paint12_linear_952_2654)"/>
<path d="M1470.79 732.5C1509.74 688.243 1535.05 586.042 1537.26 579.801C1539.48 573.56 1547.02 544.637 1545.25 568.674C1542.58 604.976 1526.11 713.406 1514.81 728.397C1496.03 753.315 1468.75 745.259 1470.79 732.5Z" fill="#2B676A"/>
<path d="M2675.99 415.385C2640.36 564.508 2648.1 601.736 2648.1 601.736C2648.1 601.736 2647.78 753.753 2682.92 541.611C2718.05 329.47 2763.14 174.172 2821.95 -24.0978L2809.04 -27.9715C2749.86 135.564 2711.62 266.262 2675.99 415.385Z" fill="#5D3E57"/>
<path d="M2607.38 417.296C2619.24 565.21 2658.3 737.942 2698.76 927H2879C2822.56 802.95 2702.74 738.301 2665.64 532.198C2628.55 326.095 2626.58 169.839 2625.68 -30H2607.38C2594.24 137.795 2595.52 269.382 2607.38 417.296Z" fill="#5D3E57"/>
<ellipse cx="814.069" cy="173.986" rx="5.4392" ry="11.4828" transform="rotate(8.46095 814.069 173.986)" fill="#2E797C"/>
<ellipse cx="814.509" cy="195.967" rx="3.91733" ry="8.26992" transform="rotate(8.46095 814.509 195.967)" fill="#2E797C"/>
<path d="M1100.08 677.533C1099.63 692.916 1095.43 704.905 1087.08 719.066C1079.82 706.748 1076.79 692.458 1075.08 681.094C1073.37 669.73 1075.98 645.951 1088.58 643.342C1101.17 640.735 1100.54 662.131 1100.08 677.512L1100.08 677.533Z" fill="#4E6238"/>
<path d="M1123.98 681.987C1114.74 698.23 1103.43 708.875 1086.42 719.664C1085.66 702.657 1090.55 685.758 1095.19 672.686C1099.83 659.614 1116.16 635.504 1131.13 639.319C1146.1 643.131 1133.24 665.723 1124 681.965L1123.98 681.987Z" fill="#4E6238"/>
<path d="M1064.82 671.616C1077 685.787 1083.21 700.026 1087.65 719.67C1071.38 714.664 1057.11 704.368 1046.37 695.6C1035.62 686.832 1018.41 663.343 1027.04 650.527C1035.67 637.717 1052.62 657.427 1064.8 671.597L1064.82 671.616Z" fill="#4E6238"/>
<path d="M1128.38 707.977C1115.23 715.964 1102.88 718.966 1086.46 719.659C1092.84 706.865 1103.19 696.55 1111.79 688.934C1120.4 681.318 1141.77 670.569 1150.81 679.722C1159.85 688.871 1141.55 699.98 1128.4 707.966L1128.38 707.977Z" fill="#4E6238"/>
<path d="M1079.38 703.299C1081.35 710.323 1081.15 716.341 1079.38 723.929C1074.35 719.384 1070.96 713.347 1068.58 708.448C1066.19 703.548 1064.01 692.422 1069.34 689.459C1074.67 686.498 1077.41 696.267 1079.38 703.29L1079.38 703.299Z" fill="#6A8A47"/>
<path d="M1091.67 710.944C1088.77 717.401 1084.86 721.428 1078.79 725.294C1077.84 718.127 1079.05 711.225 1080.31 705.92C1081.57 700.614 1086.87 691.131 1092.73 693.315C1098.59 695.497 1094.57 704.478 1091.67 710.935L1091.67 710.944Z" fill="#6A8A47"/>
<path d="M1070.26 710.329C1075.49 714.568 1077.94 719.02 1079.38 725.297C1071.94 724.185 1065.61 721.28 1060.87 718.761C1056.14 716.242 1048.86 709.12 1053.3 704.654C1057.74 700.19 1065.02 706.086 1070.25 710.324L1070.26 710.329Z" fill="#6A8A47"/>
<path d="M1098.68 719.754C1092.45 723.54 1086.6 724.963 1078.81 725.292C1081.84 719.227 1086.74 714.338 1090.82 710.727C1094.9 707.117 1105.03 702.022 1109.31 706.361C1113.6 710.697 1104.93 715.963 1098.69 719.749L1098.68 719.754Z" fill="#6A8A47"/>
<path d="M523.384 594.299C525.354 601.323 525.153 607.341 523.376 614.929C518.348 610.384 514.957 604.347 512.576 599.448C510.194 594.548 508.009 583.422 513.34 580.459C518.669 577.498 521.41 587.267 523.381 594.29L523.384 594.299Z" fill="#6A8A47"/>
<path d="M535.665 601.944C532.769 608.401 528.863 612.428 522.792 616.294C521.839 609.127 523.049 602.225 524.311 596.92C525.573 591.614 530.868 582.131 536.732 584.315C542.594 586.497 538.565 595.478 535.669 601.935L535.665 601.944Z" fill="#6A8A47"/>
<path d="M514.26 601.329C519.493 605.568 521.937 610.02 523.375 616.297C515.939 615.185 509.609 612.28 504.872 609.761C500.135 607.242 492.856 600.12 497.3 595.654C501.741 591.19 509.02 597.086 514.253 601.324L514.26 601.329Z" fill="#6A8A47"/>
<path d="M542.682 610.754C536.447 614.54 530.596 615.963 522.81 616.292C525.837 610.227 530.74 605.338 534.819 601.727C538.898 598.117 549.028 593.022 553.314 597.361C557.599 601.697 548.926 606.963 542.691 610.749L542.682 610.754Z" fill="#6A8A47"/>
<path d="M2268.42 690.836C2269.76 699.972 2268.2 707.339 2264.07 716.257C2257.84 709.43 2254.26 701.164 2251.89 694.546C2249.51 687.928 2248.73 673.683 2256.97 671.332C2265.21 668.981 2267.07 681.688 2268.41 690.823L2268.42 690.836Z" fill="#97BF6B"/>
<path d="M2284.36 703.25C2278.87 710.502 2272.44 714.513 2262.95 717.797C2263.09 708.733 2266.27 700.522 2269.19 694.292C2272.11 688.061 2281.67 677.665 2289.59 681.785C2297.51 685.903 2289.87 695.99 2284.37 703.24L2284.36 703.25Z" fill="#97BF6B"/>
<path d="M2253.9 697.276C2260.49 703.774 2263.04 709.857 2263.78 717.943C2253.39 714.76 2244.95 709.637 2238.71 705.378C2232.47 701.119 2223.56 690.569 2230.85 686.148C2238.13 681.73 2247.3 690.769 2253.89 697.267L2253.9 697.276Z" fill="#97BF6B"/>
<path d="M2292.54 715.818C2282.83 718.964 2274.17 719.292 2262.97 717.799C2268.57 711.063 2276.61 706.233 2283.2 702.778C2289.79 699.323 2305.34 695.513 2310.55 701.904C2315.77 708.293 2302.26 712.668 2292.56 715.814L2292.54 715.818Z" fill="#97BF6B"/>
<path d="M2088.2 681.807C2091.04 689.04 2090.74 695.234 2088.16 703.041C2080.87 698.352 2075.96 692.131 2072.52 687.083C2069.07 682.036 2065.92 670.578 2073.66 667.54C2081.39 664.503 2085.35 674.564 2088.19 681.797L2088.2 681.807Z" fill="#97BF6B"/>
<path d="M2105.99 689.702C2101.78 696.342 2096.11 700.479 2087.31 704.445C2085.93 697.067 2087.7 689.965 2089.54 684.507C2091.38 679.048 2099.07 669.298 2107.57 671.558C2116.06 673.817 2110.21 683.053 2106 689.693L2105.99 689.702Z" fill="#97BF6B"/>
<path d="M2074.96 689.024C2082.54 693.398 2086.07 697.986 2088.15 704.449C2077.37 703.289 2068.2 700.286 2061.33 697.683C2054.47 695.08 2043.92 687.735 2050.37 683.147C2056.82 678.562 2067.36 684.645 2074.95 689.018L2074.96 689.024Z" fill="#97BF6B"/>
<path d="M2116.15 698.785C2107.11 702.668 2098.62 704.121 2087.33 704.443C2091.73 698.207 2098.85 693.185 2104.77 689.477C2110.69 685.77 2125.38 680.547 2131.59 685.021C2137.8 689.494 2125.21 694.896 2116.17 698.779L2116.15 698.785Z" fill="#97BF6B"/>
<path d="M2490.86 672.023C2493.69 682.133 2493.4 690.795 2490.85 701.718C2483.61 695.175 2478.73 686.486 2475.3 679.433C2471.87 672.381 2468.73 656.365 2476.4 652.1C2484.07 647.837 2488.02 661.9 2490.85 672.009L2490.86 672.023Z" fill="#97BF6B"/>
<path d="M2508.54 683.027C2504.37 692.321 2498.74 698.118 2490 703.683C2488.63 693.367 2490.38 683.432 2492.19 675.795C2494.01 668.158 2501.63 654.507 2510.07 657.65C2518.51 660.792 2512.71 673.72 2508.54 683.014L2508.54 683.027Z" fill="#97BF6B"/>
<path d="M2477.72 682.142C2485.26 688.243 2488.77 694.652 2490.85 703.687C2480.14 702.087 2471.03 697.905 2464.21 694.279C2457.39 690.653 2446.91 680.402 2453.31 673.973C2459.7 667.548 2470.18 676.033 2477.71 682.134L2477.72 682.142Z" fill="#97BF6B"/>
<path d="M2518.64 695.708C2509.66 701.158 2501.24 703.207 2490.03 703.679C2494.39 694.95 2501.45 687.912 2507.32 682.715C2513.19 677.518 2527.77 670.184 2533.94 676.429C2540.11 682.672 2527.62 690.252 2518.65 695.701L2518.64 695.708Z" fill="#97BF6B"/>
<path d="M2785.65 834.456C2789.44 847.979 2789.06 859.565 2785.64 874.175C2775.95 865.424 2769.42 853.802 2764.84 844.369C2760.26 834.936 2756.05 813.513 2766.31 807.809C2776.57 802.107 2781.85 820.917 2785.64 834.438L2785.65 834.456Z" fill="#9FC477" fill-opacity="0.8"/>
<path d="M2809.3 849.175C2803.72 861.607 2796.2 869.36 2784.51 876.804C2782.67 863.005 2785 849.717 2787.43 839.502C2789.86 829.287 2800.06 811.028 2811.35 815.232C2822.64 819.434 2814.88 836.727 2809.3 849.157L2809.3 849.175Z" fill="#9FC477" fill-opacity="0.8"/>
<path d="M2768.08 847.992C2778.16 856.153 2782.86 864.726 2785.63 876.81C2771.31 874.669 2759.13 869.076 2750.01 864.226C2740.89 859.376 2726.87 845.665 2735.43 837.066C2743.98 828.471 2757.99 839.822 2768.07 847.981L2768.08 847.992Z" fill="#9FC477" fill-opacity="0.8"/>
<path d="M2822.81 866.137C2810.8 873.426 2799.54 876.166 2784.54 876.799C2790.37 865.122 2799.81 855.709 2807.67 848.758C2815.52 841.807 2835.02 831.997 2843.28 840.351C2851.53 848.7 2834.83 858.839 2822.82 866.127L2822.81 866.137Z" fill="#9FC477" fill-opacity="0.8"/>
<path d="M2059.65 869.456C2063.44 882.979 2063.06 894.565 2059.64 909.175C2049.95 900.424 2043.42 888.802 2038.84 879.369C2034.26 869.936 2030.05 848.513 2040.31 842.809C2050.57 837.107 2055.85 855.917 2059.64 869.438L2059.65 869.456Z" fill="#9EC671"/>
<path d="M2083.29 884.175C2077.72 896.607 2070.2 904.36 2058.51 911.804C2056.67 898.005 2059 884.717 2061.43 874.502C2063.86 864.287 2074.06 846.028 2085.35 850.232C2096.63 854.434 2088.88 871.727 2083.3 884.157L2083.29 884.175Z" fill="#9EC671"/>
<path d="M2042.08 882.992C2052.16 891.152 2056.86 899.725 2059.63 911.809C2045.31 909.669 2033.13 904.076 2024.01 899.226C2014.89 894.376 2000.87 880.664 2009.43 872.066C2017.98 863.471 2031.99 874.821 2042.07 882.981L2042.08 882.992Z" fill="#9EC671"/>
<path d="M2096.81 901.137C2084.8 908.426 2073.54 911.166 2058.54 911.799C2064.37 900.122 2073.81 890.709 2081.67 883.758C2089.52 876.807 2109.02 866.997 2117.28 875.351C2125.53 883.7 2108.83 893.839 2096.82 901.127L2096.81 901.137Z" fill="#9EC671"/>
</g>
<defs>
<linearGradient id="paint0_linear_952_2654" x1="772.576" y1="-85.5052" x2="426.404" y2="93.2437" gradientUnits="userSpaceOnUse">
<stop stop-color="#A5CC79"/>
<stop offset="1" stop-color="#94BC67"/>
</linearGradient>
<linearGradient id="paint1_linear_952_2654" x1="1622.04" y1="-13.5052" x2="1968.22" y2="165.244" gradientUnits="userSpaceOnUse">
<stop stop-color="#A5CC79"/>
<stop offset="1" stop-color="#94BC67"/>
</linearGradient>
<linearGradient id="paint2_linear_952_2654" x1="2608.16" y1="192.794" x2="2352.21" y2="-100.93" gradientUnits="userSpaceOnUse">
<stop stop-color="#A5CC79"/>
<stop offset="1" stop-color="#94BC67"/>
</linearGradient>
<linearGradient id="paint3_linear_952_2654" x1="1280.98" y1="83.1957" x2="904.278" y2="-16.213" gradientUnits="userSpaceOnUse">
<stop stop-color="#A5CC79"/>
<stop offset="1" stop-color="#94BC67"/>
</linearGradient>
<linearGradient id="paint4_linear_952_2654" x1="2188.75" y1="219.826" x2="1918.75" y2="-61.0443" gradientUnits="userSpaceOnUse">
<stop stop-color="#A5CC79"/>
<stop offset="1" stop-color="#94BC67"/>
</linearGradient>
<linearGradient id="paint5_linear_952_2654" x1="2439.74" y1="-20.6084" x2="2139.06" y2="227.131" gradientUnits="userSpaceOnUse">
<stop stop-color="#A5CC79"/>
<stop offset="1" stop-color="#94BC67"/>
</linearGradient>
<linearGradient id="paint6_linear_952_2654" x1="759" y1="435.5" x2="734.5" y2="657.5" gradientUnits="userSpaceOnUse">
<stop stop-color="#3C4F26"/>
<stop offset="1" stop-color="#5D7049"/>
</linearGradient>
<linearGradient id="paint7_linear_952_2654" x1="441.999" y1="624.5" x2="392.499" y2="871.5" gradientUnits="userSpaceOnUse">
<stop stop-color="#6A8947"/>
<stop offset="1" stop-color="#5F7942"/>
</linearGradient>
<linearGradient id="paint8_linear_952_2654" x1="903.452" y1="-0.339859" x2="807.492" y2="887.612" gradientUnits="userSpaceOnUse">
<stop stop-color="#186E72"/>
<stop offset="1" stop-color="#125257"/>
</linearGradient>
<linearGradient id="paint9_linear_952_2654" x1="1888.45" y1="-116.34" x2="1792.49" y2="771.612" gradientUnits="userSpaceOnUse">
<stop stop-color="#186E72"/>
<stop offset="1" stop-color="#125257"/>
</linearGradient>
<linearGradient id="paint10_linear_952_2654" x1="349.081" y1="-109" x2="349.081" y2="770.54" gradientUnits="userSpaceOnUse">
<stop stop-color="#186E72"/>
<stop offset="1" stop-color="#125257"/>
</linearGradient>
<linearGradient id="paint11_linear_952_2654" x1="1373.29" y1="-92.3669" x2="1564.25" y2="543.975" gradientUnits="userSpaceOnUse">
<stop stop-color="#186E72"/>
<stop offset="1" stop-color="#125257"/>
</linearGradient>
<linearGradient id="paint12_linear_952_2654" x1="1476.92" y1="-100" x2="1476.92" y2="810.952" gradientUnits="userSpaceOnUse">
<stop stop-color="#186E72"/>
<stop offset="1" stop-color="#125257"/>
</linearGradient>
<clipPath id="clip0_952_2654">
<rect width="2880" height="922" fill="white"/>
</clipPath>
</defs>
</svg>
