<svg width="2880" height="996" viewBox="0 0 2880 996" fill="none" xmlns="http://www.w3.org/2000/svg">
<g clip-path="url(#clip0_952_2645)">
<path d="M2707.31 882.496C2696.29 861.05 2672.54 828.486 2637.02 801.937C2632.44 812.867 2636.22 846.6 2650.66 882.692C2665.09 918.785 2681.45 939.623 2714.91 949.395C2715.35 925.578 2718.32 903.942 2707.31 882.496Z" fill="#B5C561"/>
<path d="M2750.42 880.757C2747.24 857.054 2735.78 818.888 2711.15 782.773C2703.12 791.697 2695.29 824.787 2696.75 863.407C2698.21 902.028 2706.64 926.808 2735 946.414C2743.46 924.012 2753.59 904.461 2750.42 880.757Z" fill="#B5C561"/>
<path d="M180.857 945.69C210.963 950.178 243.437 904.727 251.668 885.946C253.155 882.553 254.685 878.687 256.138 874.43C256.99 871.936 237.891 871.688 238.666 868.942C239.417 866.285 260.045 861.138 260.68 858.276C264.475 841.187 265.838 820.701 260.181 800C245.208 808.006 233.514 815.803 224.116 823.496C222.508 824.813 232.942 838.106 231.463 839.417C229.979 840.734 216.581 830.068 215.217 831.379C207.765 838.547 202.041 845.654 197.231 852.789C195.999 854.615 214.629 869.197 213.503 871.029C212.224 873.111 191.203 862.444 190.024 864.536C177.957 885.946 172.826 934.484 180.857 945.69Z" fill="#3F4F2D"/>
<path d="M-0.273885 801.92C-0.273868 846.169 -0.789713 1000.46 -0.789713 1000.46C7.97935 1000.46 339.142 1001.04 354.617 1001.04C354.492 996.218 351.733 985.558 347.644 984.368C340.378 982.253 331.496 978.553 323.967 981.701C320.235 983.262 315.681 984.652 313.074 988.184C311.604 990.173 309.931 993.157 311.891 988.607C314.965 981.469 313.164 971.993 309.385 965.664C303.716 956.171 288.186 966.463 281.088 970.069C280.189 970.526 275.518 975.205 274.89 974.946C272.722 974.052 270.792 964.726 268.74 962.451C263.646 956.802 257.356 955.862 250.445 958.462C249.218 958.924 244.461 961.883 246.328 959.612C252.618 951.966 258.782 942.276 261.84 932.563C264.459 924.246 263.751 917.792 261.42 909.534C256.778 893.08 252.062 885.819 236.13 881.409C215.028 875.567 193.28 878.261 172.805 886.822C164.768 890.182 155.665 892.702 150.75 901.184C145.075 910.977 143.44 926.771 142.882 938.031C141.471 966.515 141.48 932.359 135.307 931.06C133.089 930.593 131.801 930.954 129.623 931.865C126.33 933.242 134.994 915.267 135.926 912.808L135.958 912.725C137.72 908.078 148.122 880.657 135.745 881.039C126.076 881.338 116.132 884.964 106.888 887.963L106.568 888.067C105.979 888.258 105.409 888.443 104.854 888.629C104.422 887.348 103.932 886.205 103.724 885.573C97.7759 867.448 91.7359 841.648 71.2458 837.962C56.2668 835.268 31.2776 837.275 24.0877 855.18C22.9884 857.918 23.8082 856.033 24.2156 853.556C25.399 846.359 37.8847 835.488 35.6276 829.009C26.6073 803.116 15.1407 773.777 -0.273885 801.92Z" fill="url(#paint0_linear_952_2645)"/>
<path d="M468.363 1037.42L163.042 1011.31C168.593 995.606 174.678 981.201 181.36 968.144C182.944 965.047 222.997 997.35 224.649 994.405C226.256 991.542 189.461 953.428 191.134 950.71C197.605 940.195 204.574 930.772 212.085 922.478C215.114 919.133 263.966 973.997 267.174 971.022C270.597 967.847 228.389 906.86 232.023 904.112C251.428 889.438 273.885 880.89 299.928 878.913C305.149 878.516 297.538 944.642 303.052 944.778C307.926 944.897 325.892 878.968 331.001 879.508C342.309 880.705 352.841 883.081 362.631 886.485C368.482 888.52 336.232 946.807 341.56 949.543C347.759 952.727 391.444 900.479 396.957 904.518C418.888 920.584 435.485 943.012 447.485 968.585C448.972 971.756 408.202 993.106 409.55 996.368C410.956 999.77 454.474 985.088 455.731 988.576C456.634 991.08 457.498 993.604 458.325 996.146C459.172 998.75 409.579 1006.58 410.349 1009.22C411.115 1011.85 462.244 1009.29 462.934 1011.94C465.115 1020.34 466.918 1028.86 468.363 1037.42Z" fill="url(#paint1_linear_952_2645)"/>
<path d="M2880.81 776.941C2880.73 826.485 2881.14 999.237 2881.14 999.237C2869.49 999.254 2429.46 1000.55 2408.9 1000.58C2409.07 995.174 2412.76 983.234 2418.19 981.894C2427.85 979.512 2439.66 975.352 2449.66 978.862C2454.61 980.602 2460.66 982.15 2464.12 986.099C2466.07 988.324 2468.29 991.661 2465.69 986.571C2461.62 978.585 2464.03 967.971 2469.06 960.878C2476.61 950.238 2497.23 961.731 2506.65 965.755C2507.85 966.265 2514.05 971.494 2514.88 971.203C2517.76 970.198 2520.34 959.753 2523.07 957.202C2529.85 950.867 2538.21 949.802 2547.39 952.7C2549.02 953.215 2555.34 956.518 2552.86 953.98C2544.52 945.431 2536.34 934.593 2532.3 923.724C2528.83 914.417 2529.78 907.189 2532.9 897.938C2539.09 879.506 2545.37 871.368 2566.55 866.399C2594.6 859.818 2623.49 862.792 2650.68 872.337C2661.36 876.084 2673.45 878.888 2679.96 888.375C2687.49 899.329 2689.63 917.01 2690.35 929.616C2692.17 961.506 2692.22 923.263 2700.43 921.796C2703.38 921.269 2705.09 921.672 2707.98 922.687C2712.35 924.222 2700.87 904.113 2699.64 901.361L2699.6 901.269C2697.26 896.07 2683.49 865.387 2699.94 865.791C2712.78 866.106 2725.99 870.148 2738.27 873.488L2738.69 873.603C2739.47 873.816 2740.23 874.022 2740.97 874.229C2741.54 872.794 2742.2 871.514 2742.47 870.806C2750.41 850.5 2758.48 821.601 2785.72 817.435C2805.62 814.39 2838.82 816.588 2848.34 836.622C2849.8 839.685 2848.71 837.577 2848.18 834.804C2846.62 826.747 2830.05 814.6 2833.06 807.341C2845.09 778.333 2860.38 745.46 2880.81 776.941Z" fill="url(#paint2_linear_952_2645)"/>
<path d="M2339.58 1022.45L2506.35 1000.05C2502.77 992.91 2498.94 986.397 2494.83 980.533C2493.85 979.142 2472.95 995.546 2471.95 994.229C2470.97 992.948 2489.88 973.943 2488.87 972.732C2484.96 968.045 2480.82 963.885 2476.41 960.27C2474.63 958.811 2449.67 986.03 2447.8 984.751C2445.82 983.385 2466.93 953.533 2464.84 952.374C2453.69 946.182 2441.07 942.949 2426.7 942.9C2423.82 942.89 2430.24 973.468 2427.21 973.716C2424.54 973.935 2412.44 943.795 2409.66 944.218C2403.49 945.155 2397.79 946.616 2392.53 948.532C2389.38 949.676 2409.06 975.774 2406.23 977.228C2402.94 978.921 2377.18 956.022 2374.29 958.09C2362.79 966.316 2354.43 977.33 2348.71 989.657C2348 991.185 2371.11 999.774 2370.48 1001.34C2369.83 1002.97 2345.43 997.586 2344.86 999.254C2344.45 1000.45 2344.06 1001.66 2343.69 1002.87C2343.32 1004.11 2370.81 1006.1 2370.48 1007.36C2370.15 1008.61 2341.99 1009.13 2341.7 1010.39C2340.78 1014.38 2340.08 1018.41 2339.58 1022.45Z" fill="url(#paint3_linear_952_2645)"/>
<path d="M2426.61 1029.82L2698.7 992.039C2692.87 980.159 2686.64 969.318 2679.95 959.558C2678.36 957.242 2644.23 984.631 2642.59 982.438C2641 980.306 2671.89 948.59 2670.25 946.575C2663.88 938.776 2657.13 931.856 2649.95 925.843C2647.05 923.418 2606.27 968.837 2603.23 966.71C2599.99 964.44 2634.5 914.645 2631.09 912.718C2612.91 902.431 2592.33 897.077 2568.9 897.033C2564.2 897.024 2574.6 947.957 2569.67 948.378C2565.31 948.75 2545.64 898.563 2541.09 899.276C2531.03 900.853 2521.72 903.302 2513.14 906.508C2508.01 908.423 2540.06 951.855 2535.43 954.286C2530.05 957.114 2488.09 919.029 2483.37 922.482C2464.59 936.219 2450.94 954.593 2441.58 975.147C2440.42 977.695 2478.1 991.945 2477.06 994.555C2475.99 997.279 2436.21 988.367 2435.27 991.148C2434.6 993.145 2433.96 995.155 2433.36 997.177C2432.74 999.249 2477.59 1002.49 2477.05 1004.58C2476.5 1006.67 2430.56 1007.61 2430.09 1009.71C2428.59 1016.36 2427.44 1023.08 2426.61 1029.82Z" fill="url(#paint4_linear_952_2645)"/>
</g>
<defs>
<linearGradient id="paint0_linear_952_2645" x1="53.9168" y1="733.494" x2="242.923" y2="1079.85" gradientUnits="userSpaceOnUse">
<stop stop-color="#73A85C"/>
<stop offset="1" stop-color="#5A8647"/>
</linearGradient>
<linearGradient id="paint1_linear_952_2645" x1="339.312" y1="880.47" x2="295.784" y2="1048.3" gradientUnits="userSpaceOnUse">
<stop stop-color="#C3D26A"/>
<stop offset="1" stop-color="#B6C574"/>
</linearGradient>
<linearGradient id="paint2_linear_952_2645" x1="2808.93" y1="700.433" x2="2618.06" y2="1116.53" gradientUnits="userSpaceOnUse">
<stop stop-color="#73A85C"/>
<stop offset="1" stop-color="#5A8647"/>
</linearGradient>
<linearGradient id="paint3_linear_952_2645" x1="2405.13" y1="944.946" x2="2423.29" y2="1020.12" gradientUnits="userSpaceOnUse">
<stop stop-color="#DBEB92"/>
<stop offset="1" stop-color="#C8D783"/>
</linearGradient>
<linearGradient id="paint4_linear_952_2645" x1="2533.7" y1="900.499" x2="2564.7" y2="1025.32" gradientUnits="userSpaceOnUse">
<stop stop-color="#176C70"/>
<stop offset="1" stop-color="#0E3F44"/>
</linearGradient>
<clipPath id="clip0_952_2645">
<rect width="2880" height="996" fill="white"/>
</clipPath>
</defs>
</svg>
