<svg width="2880" height="1356" viewBox="0 0 2880 1356" fill="none" xmlns="http://www.w3.org/2000/svg">
<g clip-path="url(#clip0_952_2652)">
<path d="M1464.5 222C1998.91 -5.01272 2239.68 169.673 2899 203.424V1356.98C2899 1396.56 962.846 1394.28 -5.2312 1377.79L-17 271.5C628.217 235.437 930.093 449.013 1464.5 222Z" fill="url(#paint0_linear_952_2652)"/>
<path d="M1856.65 577.456C1860.44 590.979 1860.06 602.565 1856.64 617.175C1846.95 608.424 1840.42 596.802 1835.84 587.369C1831.26 577.936 1827.05 556.513 1837.31 550.809C1847.57 545.107 1852.85 563.917 1856.64 577.438L1856.65 577.456Z" fill="#A6CE7A"/>
<path d="M1880.29 592.175C1874.72 604.607 1867.2 612.36 1855.51 619.804C1853.67 606.005 1856 592.717 1858.43 582.502C1860.86 572.287 1871.06 554.028 1882.35 558.232C1893.63 562.434 1885.88 579.727 1880.3 592.157L1880.29 592.175Z" fill="#A6CE7A"/>
<path d="M1839.08 590.992C1849.16 599.152 1853.86 607.725 1856.63 619.809C1842.31 617.669 1830.13 612.076 1821.01 607.226C1811.89 602.376 1797.87 588.664 1806.43 580.066C1814.98 571.471 1828.99 582.821 1839.07 590.981L1839.08 590.992Z" fill="#A6CE7A"/>
<path d="M1893.81 609.137C1881.8 616.426 1870.54 619.166 1855.54 619.799C1861.37 608.122 1870.81 598.709 1878.67 591.758C1886.52 584.807 1906.02 574.997 1914.28 583.351C1922.53 591.7 1905.83 601.839 1893.82 609.127L1893.81 609.137Z" fill="#A6CE7A"/>
<path d="M2711.65 693.456C2715.44 706.979 2715.06 718.565 2711.64 733.175C2701.95 724.424 2695.42 712.802 2690.84 703.369C2686.26 693.936 2682.05 672.513 2692.31 666.809C2702.57 661.107 2707.85 679.917 2711.64 693.438L2711.65 693.456Z" fill="#A2C67A"/>
<path d="M2735.29 708.175C2729.72 720.607 2722.2 728.36 2710.51 735.804C2708.67 722.005 2711 708.717 2713.43 698.502C2715.86 688.287 2726.06 670.028 2737.35 674.232C2748.63 678.434 2740.88 695.727 2735.3 708.157L2735.29 708.175Z" fill="#A2C67A"/>
<path d="M2694.08 706.992C2704.16 715.152 2708.86 723.725 2711.63 735.81C2697.31 733.669 2685.13 728.076 2676.01 723.226C2666.89 718.376 2652.87 704.664 2661.43 696.066C2669.98 687.471 2683.99 698.822 2694.07 706.981L2694.08 706.992Z" fill="#A2C67A"/>
<path d="M2748.81 725.137C2736.8 732.426 2725.54 735.166 2710.54 735.799C2716.37 724.122 2725.81 714.709 2733.67 707.758C2741.52 700.807 2761.02 690.997 2769.28 699.351C2777.53 707.7 2760.83 717.839 2748.82 725.127L2748.81 725.137Z" fill="#A2C67A"/>
<path d="M2604.91 1176.88C2608.71 1190.41 2608.32 1201.99 2604.9 1216.6C2595.22 1207.85 2588.69 1196.23 2584.1 1186.79C2579.52 1177.36 2575.31 1155.94 2585.57 1150.24C2595.83 1144.53 2601.11 1163.34 2604.91 1176.86L2604.91 1176.88Z" fill="#A6CE7A"/>
<path d="M2628.56 1191.6C2622.98 1204.03 2615.46 1211.79 2603.77 1219.23C2601.94 1205.43 2604.27 1192.14 2606.7 1181.93C2609.13 1171.71 2619.32 1153.45 2630.61 1157.66C2641.9 1161.86 2634.14 1179.15 2628.56 1191.58L2628.56 1191.6Z" fill="#A6CE7A"/>
<path d="M2587.34 1190.42C2597.42 1198.58 2602.12 1207.15 2604.89 1219.24C2590.58 1217.1 2578.39 1211.5 2569.27 1206.65C2560.15 1201.8 2546.13 1188.09 2554.69 1179.49C2563.24 1170.9 2577.26 1182.25 2587.33 1190.41L2587.34 1190.42Z" fill="#A6CE7A"/>
<path d="M2642.07 1208.56C2630.06 1215.85 2618.8 1218.59 2603.81 1219.22C2609.63 1207.55 2619.07 1198.14 2626.93 1191.18C2634.78 1184.23 2654.28 1174.42 2662.54 1182.78C2670.79 1191.13 2654.09 1201.26 2642.08 1208.55L2642.07 1208.56Z" fill="#A6CE7A"/>
<path d="M829 327C829 327 1078 357.649 1159.5 347.148C1235.43 337.366 1470.73 254.321 1491.53 246.578C1491.9 246.381 1492.23 246.237 1492.5 246.148C1493.43 245.848 1493.06 246.011 1491.53 246.578C1473.45 256.199 1340.71 392.702 1205 419.648C1066.5 447.148 829 327 829 327Z" fill="#9CBF75"/>
<path d="M2816.77 739.493C2898.75 733.807 3132.76 740.092 3132.76 740.092C3132.76 740.092 2902.74 606.176 2762.86 625.479C2622.99 644.781 2030.26 858.09 2043.3 882.052C2050.13 894.608 2734.8 745.179 2816.77 739.493Z" fill="#96BB6E" fill-opacity="0.8"/>
<path d="M941.869 1236.69C859.894 1230.97 629.004 1192.36 629.004 1192.36C629.004 1192.36 315.598 1344.21 581 1397C953.244 1471.04 2374.07 1456.36 2456.5 1456.5C2597.7 1456.74 2053.76 1107.12 1727.63 1202.56C1401.5 1298 1023.84 1242.4 941.869 1236.69Z" fill="#90B666" fill-opacity="0.8"/>
<path d="M221.225 801.229C140.208 787.494 -85.7761 726.4 -85.7761 726.4C-85.7761 726.4 -204.987 997.776 -113 1055.5C-59.4899 1089.08 42.4999 1001 246.835 924.718C451.169 848.436 1013.59 870.758 1006.54 844.403C1002.85 830.593 302.243 814.964 221.225 801.229Z" fill="#ACD183" fill-opacity="0.3"/>
<path d="M162.649 212.826C163.715 245.627 173.565 271.192 193.183 301.387C210.235 275.123 217.345 244.651 221.36 220.42C225.375 196.188 219.255 145.483 189.67 139.921C160.098 134.36 161.581 179.984 162.647 212.781L162.649 212.826Z" fill="url(#paint1_linear_952_2652)"/>
<path d="M106.524 222.323C128.229 256.958 154.801 279.656 194.731 302.662C196.522 266.399 185.031 230.365 174.139 202.491C163.246 174.618 124.908 123.207 89.748 131.341C54.6039 139.47 84.7927 187.645 106.495 222.276L106.524 222.323Z" fill="url(#paint2_linear_952_2652)"/>
<path d="M245.463 200.21C216.853 230.427 202.259 260.789 191.843 302.676C230.049 292.002 263.548 270.048 288.786 251.352C314.024 232.656 354.43 182.569 334.162 155.241C313.902 127.926 274.109 169.955 245.502 200.169L245.463 200.21Z" fill="url(#paint3_linear_952_2652)"/>
<path d="M96.2011 277.741C127.09 294.772 156.072 301.174 194.644 302.651C179.651 275.37 155.362 253.377 135.156 237.136C114.949 220.896 64.767 197.976 43.533 217.493C22.3087 237.001 65.2728 260.689 96.1587 277.718L96.2011 277.741Z" fill="url(#paint4_linear_952_2652)"/>
<path d="M1731.92 131.4C1732.72 155.923 1740.08 175.037 1754.75 197.611C1767.5 177.975 1772.81 155.193 1775.81 137.077C1778.82 118.961 1774.24 81.052 1752.12 76.8931C1730.01 72.7362 1731.12 106.846 1731.92 131.366L1731.92 131.4Z" fill="url(#paint5_linear_952_2652)"/>
<path d="M1764.4 119.968C1756.07 144.262 1756.31 165.583 1762.57 192.877C1782.63 178.161 1796.42 157.735 1806.16 141.059C1815.91 124.382 1825.44 85.6445 1804.88 73.7455C1784.33 61.8519 1772.74 95.643 1764.41 119.935L1764.4 119.968Z" fill="url(#paint6_linear_952_2652)"/>
<path d="M1689.96 138.5C1706.19 164.394 1726.05 181.365 1755.91 198.564C1757.24 171.453 1748.65 144.513 1740.51 123.673C1732.37 102.834 1703.7 64.398 1677.42 70.4788C1651.14 76.5568 1673.71 112.573 1689.94 138.465L1689.96 138.5Z" fill="url(#paint7_linear_952_2652)"/>
<path d="M1793.83 121.968C1772.45 144.559 1761.53 167.258 1753.75 198.575C1782.31 190.595 1807.36 174.181 1826.22 160.203C1845.09 146.225 1875.3 108.779 1860.15 88.3473C1845 67.9254 1815.25 99.3479 1793.86 121.937L1793.83 121.968Z" fill="url(#paint8_linear_952_2652)"/>
<path d="M1682.24 179.933C1705.34 192.666 1727 197.452 1755.84 198.557C1744.63 178.161 1726.47 161.717 1711.37 149.575C1696.26 137.433 1658.74 120.298 1642.87 134.889C1627 149.474 1659.12 167.184 1682.21 179.916L1682.24 179.933Z" fill="url(#paint9_linear_952_2652)"/>
<path d="M171.649 272.455C175.443 285.978 175.055 297.564 171.635 312.174C161.955 303.423 155.425 291.801 150.84 282.368C146.255 272.935 142.049 251.512 152.313 245.808C162.572 240.106 167.85 258.916 171.644 272.437L171.649 272.455Z" fill="#93BB68"/>
<path d="M195.294 287.174C189.718 299.606 182.198 307.359 170.508 314.803C168.673 301.004 171.004 287.716 173.434 277.501C175.864 267.286 186.057 249.027 197.348 253.231C208.634 257.433 200.878 274.726 195.302 287.156L195.294 287.174Z" fill="#93BB68"/>
<path d="M154.082 285.991C164.157 294.151 168.862 302.724 171.632 314.808C157.314 312.668 145.126 307.075 136.007 302.225C126.887 297.375 112.872 283.663 121.428 275.065C129.979 266.47 143.993 277.82 154.068 285.98L154.082 285.991Z" fill="#93BB68"/>
<path d="M208.806 304.136C196.8 311.425 185.536 314.165 170.545 314.798C176.372 303.121 185.812 293.708 193.666 286.757C201.519 279.806 221.023 269.996 229.276 278.35C237.525 286.699 220.826 296.838 208.822 304.126L208.806 304.136Z" fill="#93BB68"/>
<path d="M1738.65 175.982C1741.49 186.092 1741.2 194.754 1738.64 205.677C1731.4 199.134 1726.52 190.445 1723.09 183.392C1719.66 176.34 1716.52 160.324 1724.19 156.059C1731.86 151.796 1735.81 165.859 1738.65 175.968L1738.65 175.982Z" fill="#97BF6B"/>
<path d="M1756.33 186.986C1752.16 196.28 1746.54 202.077 1737.8 207.642C1736.42 197.326 1738.17 187.391 1739.98 179.754C1741.8 172.117 1749.42 158.466 1757.86 161.609C1766.3 164.751 1760.5 177.679 1756.33 186.973L1756.33 186.986Z" fill="#97BF6B"/>
<path d="M1725.52 186.101C1733.05 192.202 1736.57 198.611 1738.64 207.646C1727.93 206.046 1718.82 201.864 1712 198.238C1705.18 194.612 1694.71 184.361 1701.1 177.932C1707.5 171.507 1717.97 179.992 1725.51 186.093L1725.52 186.101Z" fill="#97BF6B"/>
<path d="M1766.43 199.667C1757.45 205.117 1749.03 207.166 1737.82 207.638C1742.18 198.909 1749.24 191.871 1755.11 186.674C1760.98 181.477 1775.56 174.143 1781.73 180.388C1787.9 186.631 1775.42 194.211 1766.44 199.66L1766.43 199.667Z" fill="#97BF6B"/>
<path d="M1792.86 173.023C1795.69 183.133 1795.4 191.795 1792.85 202.718C1785.61 196.175 1780.73 187.486 1777.3 180.433C1773.87 173.381 1770.73 157.365 1778.4 153.1C1786.07 148.837 1790.02 162.9 1792.85 173.009L1792.86 173.023Z" fill="#97BF6B"/>
<path d="M1810.54 184.027C1806.37 193.321 1800.74 199.118 1792 204.683C1790.63 194.367 1792.38 184.432 1794.19 176.795C1796.01 169.158 1803.63 155.507 1812.07 158.65C1820.51 161.792 1814.71 174.72 1810.54 184.014L1810.54 184.027Z" fill="#97BF6B"/>
<path d="M1779.72 183.142C1787.26 189.243 1790.77 195.652 1792.85 204.687C1782.14 203.087 1773.03 198.905 1766.21 195.279C1759.39 191.653 1748.91 181.402 1755.31 174.973C1761.7 168.548 1772.18 177.033 1779.71 183.134L1779.72 183.142Z" fill="#97BF6B"/>
<path d="M1820.64 196.708C1811.66 202.158 1803.24 204.207 1792.03 204.679C1796.39 195.95 1803.45 188.912 1809.32 183.715C1815.19 178.518 1829.77 171.184 1835.94 177.429C1842.11 183.672 1829.62 191.252 1820.65 196.701L1820.64 196.708Z" fill="#97BF6B"/>
<path d="M2558.65 145.456C2562.44 158.979 2562.06 170.565 2558.64 185.175C2548.95 176.424 2542.42 164.802 2537.84 155.369C2533.26 145.936 2529.05 124.513 2539.31 118.809C2549.57 113.107 2554.85 131.917 2558.64 145.438L2558.65 145.456Z" fill="#97BF6B"/>
<path d="M2582.29 160.175C2576.72 172.607 2569.2 180.36 2557.51 187.804C2555.67 174.005 2558 160.717 2560.43 150.502C2562.86 140.287 2573.06 122.028 2584.35 126.232C2595.63 130.434 2587.88 147.727 2582.3 160.157L2582.29 160.175Z" fill="#97BF6B"/>
<path d="M2541.08 158.992C2551.16 167.153 2555.86 175.726 2558.63 187.81C2544.31 185.669 2532.13 180.076 2523.01 175.226C2513.89 170.376 2499.87 156.665 2508.43 148.066C2516.98 139.471 2530.99 150.822 2541.07 158.981L2541.08 158.992Z" fill="#97BF6B"/>
<path d="M2595.81 177.138C2583.8 184.427 2572.54 187.167 2557.54 187.799C2563.37 176.123 2572.81 166.71 2580.67 159.758C2588.52 152.807 2608.02 142.998 2616.28 151.351C2624.53 159.701 2607.83 169.839 2595.82 177.128L2595.81 177.138Z" fill="#97BF6B"/>
<path d="M2982.44 221.459L2577 190.734C2584.37 172.261 2592.45 155.314 2601.33 139.953C2603.43 136.309 2656.62 174.312 2658.81 170.848C2660.94 167.48 2612.08 122.64 2614.3 119.443C2622.9 107.071 2632.15 95.9856 2642.13 86.2285C2646.15 82.2933 2711.02 146.839 2715.28 143.339C2719.82 139.604 2663.78 67.854 2668.6 64.6213C2694.37 47.3579 2724.19 37.3018 2758.77 34.9754C2765.71 34.5089 2755.6 112.304 2762.92 112.463C2769.39 112.604 2793.25 35.04 2800.04 35.6758C2815.05 37.0831 2829.04 39.8788 2842.04 43.884C2849.81 46.2776 2806.98 114.85 2814.06 118.07C2822.29 121.815 2880.3 60.3469 2887.62 65.0987C2916.74 84.0001 2938.78 110.386 2954.72 140.472C2956.69 144.202 2902.55 169.32 2904.34 173.157C2906.21 177.161 2964 159.887 2965.67 163.99C2966.86 166.936 2968.01 169.906 2969.11 172.896C2970.24 175.961 2904.38 185.169 2905.4 188.274C2906.42 191.367 2974.31 188.355 2975.23 191.481C2978.13 201.357 2980.52 211.384 2982.44 221.459Z" fill="url(#paint10_linear_952_2652)"/>
<path d="M2742.65 172.456C2746.44 185.979 2746.06 197.565 2742.64 212.175C2732.95 203.424 2726.42 191.802 2721.84 182.369C2717.26 172.936 2713.05 151.513 2723.31 145.809C2733.57 140.107 2738.85 158.917 2742.64 172.438L2742.65 172.456Z" fill="#97BF6B"/>
<path d="M2766.29 187.175C2760.72 199.607 2753.2 207.36 2741.51 214.804C2739.67 201.005 2742 187.717 2744.43 177.502C2746.86 167.287 2757.06 149.028 2768.35 153.232C2779.63 157.434 2771.88 174.727 2766.3 187.157L2766.29 187.175Z" fill="#97BF6B"/>
<path d="M2725.08 185.992C2735.16 194.153 2739.86 202.726 2742.63 214.81C2728.31 212.669 2716.13 207.076 2707.01 202.226C2697.89 197.376 2683.87 183.665 2692.43 175.066C2700.98 166.471 2714.99 177.822 2725.07 185.981L2725.08 185.992Z" fill="#97BF6B"/>
<path d="M2779.81 204.138C2767.8 211.427 2756.54 214.167 2741.54 214.799C2747.37 203.123 2756.81 193.71 2764.67 186.758C2772.52 179.807 2792.02 169.998 2800.28 178.351C2808.53 186.701 2791.83 196.839 2779.82 204.128L2779.81 204.138Z" fill="#97BF6B"/>
<path d="M841.628 1112.48C845.423 1126 845.035 1137.59 841.615 1152.2C831.934 1143.44 825.404 1131.82 820.82 1122.39C816.235 1112.96 812.028 1091.53 822.292 1085.83C832.551 1080.13 837.829 1098.94 841.623 1112.46L841.628 1112.48Z" fill="#A6CE7A"/>
<path d="M865.275 1127.2C859.698 1139.63 852.179 1147.38 840.489 1154.82C838.654 1141.03 840.984 1127.74 843.414 1117.52C845.844 1107.31 856.038 1089.05 867.329 1093.25C878.615 1097.45 870.858 1114.75 865.282 1127.18L865.275 1127.2Z" fill="#A6CE7A"/>
<path d="M824.061 1126.01C834.137 1134.17 838.842 1142.75 841.612 1154.83C827.294 1152.69 815.106 1147.1 805.986 1142.25C796.867 1137.4 782.852 1123.68 791.407 1115.09C799.958 1106.49 813.973 1117.84 824.047 1126L824.061 1126.01Z" fill="#A6CE7A"/>
<path d="M878.785 1144.16C866.78 1151.45 855.516 1154.19 840.524 1154.82C846.351 1143.14 855.792 1133.73 863.645 1126.78C871.499 1119.83 891.003 1110.02 899.255 1118.37C907.505 1126.72 890.806 1136.86 878.802 1144.15L878.785 1144.16Z" fill="#A6CE7A"/>
<path d="M569.649 691.456C573.443 704.979 573.055 716.565 569.635 731.175C559.955 722.424 553.425 710.802 548.84 701.369C544.255 691.936 540.049 670.513 550.313 664.809C560.572 659.107 565.85 677.917 569.644 691.438L569.649 691.456Z" fill="#9FC477" fill-opacity="0.8"/>
<path d="M593.295 706.175C587.719 718.607 580.199 726.36 568.509 733.804C566.674 720.005 569.005 706.717 571.435 696.502C573.865 686.287 584.058 668.028 595.349 672.232C606.635 676.434 598.879 693.727 593.303 706.157L593.295 706.175Z" fill="#9FC477" fill-opacity="0.8"/>
<path d="M552.082 704.992C562.157 713.152 566.862 721.725 569.632 733.81C555.314 731.669 543.126 726.076 534.007 721.226C524.887 716.376 510.872 702.664 519.428 694.066C527.979 685.471 541.993 696.822 552.068 704.981L552.082 704.992Z" fill="#9FC477" fill-opacity="0.8"/>
<path d="M606.806 723.137C594.8 730.427 583.536 733.167 568.545 733.799C574.372 722.123 583.812 712.709 591.666 705.758C599.519 698.807 619.023 688.997 627.276 697.351C635.525 705.7 618.826 715.839 606.822 723.127L606.806 723.137Z" fill="#9FC477" fill-opacity="0.8"/>
<path d="M80.6489 414.456C84.4433 427.979 84.0551 439.565 80.6352 454.175C70.9546 445.424 64.4247 433.802 59.8401 424.369C55.2555 414.936 51.0485 393.513 61.3126 387.809C71.572 382.107 76.8497 400.917 80.6437 414.438L80.6489 414.456Z" fill="#9FC477"/>
<path d="M104.295 429.175C98.7188 441.607 91.1992 449.36 79.5093 456.804C77.6744 443.005 80.0048 429.717 82.4347 419.502C84.8645 409.287 95.058 391.028 106.349 395.232C117.635 399.434 109.879 416.727 104.303 429.157L104.295 429.175Z" fill="#9FC477"/>
<path d="M63.0817 427.992C73.1574 436.153 77.8623 444.726 80.6325 456.81C66.3142 454.669 54.1265 449.076 45.0068 444.226C35.8871 439.376 21.8723 425.665 30.4276 417.066C38.9789 408.471 52.9933 419.822 63.0679 427.981L63.0817 427.992Z" fill="#9FC477"/>
<path d="M117.806 446.137C105.8 453.426 94.5362 456.166 79.5446 456.799C85.3718 445.122 94.812 435.709 102.666 428.758C110.519 421.807 130.023 411.997 138.276 420.351C146.525 428.7 129.826 438.839 117.822 446.127L117.806 446.137Z" fill="#9FC477"/>
<path d="M1756.65 661.456C1760.44 674.979 1760.06 686.565 1756.64 701.175C1746.95 692.424 1740.42 680.802 1735.84 671.369C1731.26 661.936 1727.05 640.513 1737.31 634.809C1747.57 629.107 1752.85 647.917 1756.64 661.438L1756.65 661.456Z" fill="#9FC477"/>
<path d="M1780.3 676.175C1774.72 688.607 1767.2 696.36 1755.51 703.804C1753.67 690.005 1756 676.717 1758.43 666.502C1760.86 656.287 1771.06 638.028 1782.35 642.232C1793.64 646.434 1785.88 663.727 1780.3 676.157L1780.3 676.175Z" fill="#9FC477"/>
<path d="M1739.08 674.992C1749.16 683.153 1753.86 691.726 1756.63 703.81C1742.31 701.669 1730.13 696.076 1721.01 691.226C1711.89 686.376 1697.87 672.665 1706.43 664.066C1714.98 655.471 1728.99 666.822 1739.07 674.981L1739.08 674.992Z" fill="#9FC477"/>
<path d="M1793.81 693.137C1781.8 700.426 1770.54 703.166 1755.54 703.799C1761.37 692.122 1770.81 682.709 1778.67 675.758C1786.52 668.807 1806.02 658.997 1814.28 667.351C1822.53 675.7 1805.83 685.839 1793.82 693.127L1793.81 693.137Z" fill="#9FC477"/>
<path d="M872.649 495.456C876.443 508.979 876.055 520.565 872.635 535.175C862.955 526.424 856.425 514.802 851.84 505.369C847.255 495.936 843.049 474.513 853.313 468.809C863.572 463.107 868.85 481.917 872.644 495.438L872.649 495.456Z" fill="#96BE6A"/>
<path d="M896.295 510.175C890.719 522.607 883.199 530.36 871.509 537.804C869.674 524.005 872.005 510.717 874.435 500.502C876.865 490.287 887.058 472.028 898.349 476.232C909.635 480.434 901.879 497.727 896.303 510.157L896.295 510.175Z" fill="#96BE6A"/>
<path d="M855.082 508.992C865.157 517.153 869.862 525.726 872.632 537.81C858.314 535.669 846.126 530.076 837.007 525.226C827.887 520.376 813.872 506.665 822.428 498.066C830.979 489.471 844.993 500.822 855.068 508.981L855.082 508.992Z" fill="#96BE6A"/>
<path d="M909.806 527.137C897.8 534.426 886.536 537.166 871.545 537.799C877.372 526.122 886.812 516.709 894.666 509.758C902.519 502.807 922.023 492.997 930.276 501.351C938.525 509.7 921.826 519.839 909.822 527.127L909.806 527.137Z" fill="#96BE6A"/>
<path d="M518.649 338.456C522.443 351.979 522.055 363.565 518.635 378.175C508.955 369.424 502.425 357.802 497.84 348.369C493.255 338.936 489.049 317.513 499.313 311.809C509.572 306.107 514.85 324.917 518.644 338.438L518.649 338.456Z" fill="#9FC477" fill-opacity="0.8"/>
<path d="M542.295 353.175C536.719 365.607 529.199 373.36 517.509 380.804C515.674 367.005 518.005 353.717 520.435 343.502C522.865 333.287 533.058 315.028 544.349 319.232C555.635 323.434 547.879 340.727 542.303 353.157L542.295 353.175Z" fill="#9FC477" fill-opacity="0.8"/>
<path d="M501.082 351.992C511.157 360.153 515.862 368.726 518.632 380.81C504.314 378.669 492.126 373.076 483.007 368.226C473.887 363.376 459.872 349.665 468.428 341.066C476.979 332.471 490.993 343.822 501.068 351.981L501.082 351.992Z" fill="#9FC477" fill-opacity="0.8"/>
<path d="M555.806 370.137C543.8 377.426 532.536 380.166 517.545 380.799C523.372 369.122 532.812 359.709 540.666 352.758C548.519 345.807 568.023 335.997 576.276 344.351C584.525 352.7 567.826 362.839 555.822 370.127L555.806 370.137Z" fill="#9FC477" fill-opacity="0.8"/>
<path d="M2544.65 512.456C2548.44 525.979 2548.06 537.565 2544.64 552.175C2534.95 543.424 2528.42 531.802 2523.84 522.369C2519.26 512.936 2515.05 491.513 2525.31 485.809C2535.57 480.107 2540.85 498.917 2544.64 512.438L2544.65 512.456Z" fill="#A6CE7A"/>
<path d="M2568.29 527.175C2562.72 539.607 2555.2 547.36 2543.51 554.804C2541.67 541.005 2544 527.717 2546.43 517.502C2548.86 507.287 2559.06 489.028 2570.35 493.232C2581.63 497.434 2573.88 514.727 2568.3 527.157L2568.29 527.175Z" fill="#A6CE7A"/>
<path d="M2527.08 525.992C2537.16 534.152 2541.86 542.725 2544.63 554.809C2530.31 552.669 2518.13 547.076 2509.01 542.226C2499.89 537.376 2485.87 523.664 2494.43 515.066C2502.98 506.471 2516.99 517.821 2527.07 525.981L2527.08 525.992Z" fill="#A6CE7A"/>
<path d="M2581.81 544.137C2569.8 551.426 2558.54 554.166 2543.54 554.799C2549.37 543.122 2558.81 533.709 2566.67 526.758C2574.52 519.807 2594.02 509.997 2602.28 518.351C2610.53 526.7 2593.83 536.839 2581.82 544.127L2581.81 544.137Z" fill="#A6CE7A"/>
<path d="M2729.65 352.456C2733.44 365.979 2733.06 377.565 2729.64 392.175C2719.95 383.424 2713.42 371.802 2708.84 362.369C2704.26 352.936 2700.05 331.513 2710.31 325.809C2720.57 320.107 2725.85 338.917 2729.64 352.438L2729.65 352.456Z" fill="#A6CE7A"/>
<path d="M2753.29 367.175C2747.72 379.607 2740.2 387.36 2728.51 394.804C2726.67 381.005 2729 367.717 2731.43 357.502C2733.86 347.287 2744.06 329.028 2755.35 333.232C2766.63 337.434 2758.88 354.727 2753.3 367.157L2753.29 367.175Z" fill="#A6CE7A"/>
<path d="M2712.08 365.992C2722.16 374.152 2726.86 382.725 2729.63 394.809C2715.31 392.669 2703.13 387.076 2694.01 382.226C2684.89 377.376 2670.87 363.664 2679.43 355.066C2687.98 346.471 2701.99 357.821 2712.07 365.981L2712.08 365.992Z" fill="#A6CE7A"/>
<path d="M2766.81 384.137C2754.8 391.426 2743.54 394.166 2728.54 394.799C2734.37 383.122 2743.81 373.709 2751.67 366.758C2759.52 359.807 2779.02 349.997 2787.28 358.351C2795.53 366.7 2778.83 376.839 2766.82 384.127L2766.81 384.137Z" fill="#A6CE7A"/>
<path d="M1834.91 1088.15C1838.7 1101.67 1838.31 1113.25 1834.89 1127.86C1825.21 1119.11 1818.68 1107.49 1814.1 1098.06C1809.51 1088.63 1805.31 1067.2 1815.57 1061.5C1825.83 1055.8 1831.11 1074.61 1834.9 1088.13L1834.91 1088.15Z" fill="#9FC772"/>
<path d="M1858.55 1102.86C1852.97 1115.3 1845.46 1123.05 1833.77 1130.49C1831.93 1116.69 1834.26 1103.41 1836.69 1093.19C1839.12 1082.98 1849.31 1064.72 1860.61 1068.92C1871.89 1073.12 1864.13 1090.42 1858.56 1102.85L1858.55 1102.86Z" fill="#9FC772"/>
<path d="M1817.34 1101.68C1827.41 1109.84 1832.12 1118.41 1834.89 1130.5C1820.57 1128.36 1808.38 1122.77 1799.26 1117.92C1790.14 1113.07 1776.13 1099.35 1784.68 1090.76C1793.24 1082.16 1807.25 1093.51 1817.32 1101.67L1817.34 1101.68Z" fill="#9FC772"/>
<path d="M1872.06 1119.83C1860.06 1127.12 1848.79 1129.86 1833.8 1130.49C1839.63 1118.81 1849.07 1109.4 1856.92 1102.45C1864.78 1095.5 1884.28 1085.69 1892.53 1094.04C1900.78 1102.39 1884.08 1112.53 1872.08 1119.82L1872.06 1119.83Z" fill="#9FC772"/>
<path d="M1309.65 927.456C1313.44 940.979 1313.06 952.565 1309.64 967.175C1299.95 958.424 1293.42 946.802 1288.84 937.369C1284.26 927.936 1280.05 906.513 1290.31 900.809C1300.57 895.107 1305.85 913.917 1309.64 927.438L1309.65 927.456Z" fill="#A6CE7A"/>
<path d="M1333.29 942.174C1327.72 954.606 1320.2 962.36 1308.51 969.804C1306.67 956.005 1309 942.717 1311.43 932.501C1313.86 922.286 1324.06 904.028 1335.35 908.232C1346.63 912.434 1338.88 929.726 1333.3 942.157L1333.29 942.174Z" fill="#A6CE7A"/>
<path d="M1292.08 940.992C1302.16 949.152 1306.86 957.725 1309.63 969.81C1295.31 967.669 1283.13 962.076 1274.01 957.226C1264.89 952.376 1250.87 938.664 1259.43 930.066C1267.98 921.471 1281.99 932.822 1292.07 940.981L1292.08 940.992Z" fill="#A6CE7A"/>
<path d="M1346.81 959.137C1334.8 966.427 1323.54 969.167 1308.54 969.799C1314.37 958.123 1323.81 948.709 1331.67 941.758C1339.52 934.807 1359.02 924.997 1367.28 933.351C1375.53 941.7 1358.83 951.839 1346.82 959.127L1346.81 959.137Z" fill="#A6CE7A"/>
</g>
<defs>
<linearGradient id="paint0_linear_952_2652" x1="1116.5" y1="478.5" x2="1367.5" y2="1297" gradientUnits="userSpaceOnUse">
<stop stop-color="#93BA67"/>
<stop offset="0.635" stop-color="#9FC772"/>
<stop offset="1" stop-color="#93BA67"/>
</linearGradient>
<linearGradient id="paint1_linear_952_2652" x1="200.712" y1="188.209" x2="182.078" y2="275.108" gradientUnits="userSpaceOnUse">
<stop stop-color="#80BD65"/>
<stop offset="1" stop-color="#86B073"/>
</linearGradient>
<linearGradient id="paint2_linear_952_2652" x1="128.395" y1="178.623" x2="152.202" y2="261.233" gradientUnits="userSpaceOnUse">
<stop stop-color="#80BD65"/>
<stop offset="1" stop-color="#86B073"/>
</linearGradient>
<linearGradient id="paint3_linear_952_2652" x1="300.135" y1="206.878" x2="206.88" y2="271.976" gradientUnits="userSpaceOnUse">
<stop stop-color="#80BD65"/>
<stop offset="1" stop-color="#86B073"/>
</linearGradient>
<linearGradient id="paint4_linear_952_2652" x1="102.065" y1="230.154" x2="147.211" y2="308.887" gradientUnits="userSpaceOnUse">
<stop stop-color="#80BD65"/>
<stop offset="1" stop-color="#86B073"/>
</linearGradient>
<linearGradient id="paint5_linear_952_2652" x1="1760.38" y1="112.995" x2="1746.45" y2="177.964" gradientUnits="userSpaceOnUse">
<stop stop-color="#80BD65"/>
<stop offset="1" stop-color="#86B073"/>
</linearGradient>
<linearGradient id="paint6_linear_952_2652" x1="1799.69" y1="112.017" x2="1763.14" y2="171.653" gradientUnits="userSpaceOnUse">
<stop stop-color="#80BD65"/>
<stop offset="1" stop-color="#86B073"/>
</linearGradient>
<linearGradient id="paint7_linear_952_2652" x1="1706.31" y1="105.829" x2="1724.11" y2="167.591" gradientUnits="userSpaceOnUse">
<stop stop-color="#80BD65"/>
<stop offset="1" stop-color="#86B073"/>
</linearGradient>
<linearGradient id="paint8_linear_952_2652" x1="1834.71" y1="126.953" x2="1764.99" y2="175.622" gradientUnits="userSpaceOnUse">
<stop stop-color="#80BD65"/>
<stop offset="1" stop-color="#86B073"/>
</linearGradient>
<linearGradient id="paint9_linear_952_2652" x1="1686.63" y1="144.355" x2="1720.38" y2="203.219" gradientUnits="userSpaceOnUse">
<stop stop-color="#80BD65"/>
<stop offset="1" stop-color="#86B073"/>
</linearGradient>
<linearGradient id="paint10_linear_952_2652" x1="2811.07" y1="36.8076" x2="2765.08" y2="236.97" gradientUnits="userSpaceOnUse">
<stop stop-color="#B1C347"/>
<stop offset="1" stop-color="#B6C574"/>
</linearGradient>
<clipPath id="clip0_952_2652">
<rect width="2880" height="1356" fill="white"/>
</clipPath>
</defs>
</svg>
