<svg width="1185" height="1011" viewBox="0 0 1185 1011" fill="none" xmlns="http://www.w3.org/2000/svg">
<g clip-path="url(#clip0_1037_1809)">
<path d="M457.098 892.97C458.846 844.128 484.781 811.583 511.611 802.369C536.223 775.496 457.098 705.627 430.225 724.054C390.338 747.576 367.223 773.193 364.962 802.369C362.701 831.546 373.751 888.072 386.46 921.378C340.328 942.688 331.95 955.929 346.535 970.517C361.12 985.105 401.988 969.791 457.098 939.805V892.97Z" fill="url(#paint0_linear_1037_1809)"/>
<path d="M756.643 712.755C700.594 702.005 685.28 809.497 700.594 818.711C715.907 827.924 731.452 894.307 720.556 946.933C785.022 993.542 811.16 977.645 827.28 977.645C843.401 977.645 833.324 951.161 795.033 919.292C818.39 881.115 833.465 818.711 827.28 793.373C821.095 768.036 777.416 723.504 756.643 712.755Z" fill="url(#paint1_linear_1037_1809)"/>
<path d="M882.296 785.435C862.929 811.23 826.122 827.296 807.355 807.944C788.589 788.591 789.316 779.18 790.988 759.03C804.228 731.748 813.822 731.015 832.305 738.974C863.63 675.551 870.126 601.603 872.569 573.791L872.609 573.331C929.099 544.434 962.975 480.531 982.999 508C990.498 514.5 1012.51 589.705 996.152 633.281C1008.2 646.781 1003.2 644.281 991.936 642.281C990.874 644.467 991.795 642.639 990.697 644.781C1013.7 666.781 1000.51 657.081 985.004 655.781C960.814 700.425 928.224 736.872 882.296 785.435Z" fill="url(#paint2_linear_1037_1809)"/>
<path d="M956.864 691.583C964.975 687.594 967.986 683.01 969.468 668.82C968.52 652.353 965.116 652.362 959.344 651.414C931.735 652.954 917.774 674.351 918.566 684.919C919.358 695.487 937.317 706.915 956.864 691.583Z" fill="#6A6358"/>
<path d="M918.235 666.154C921.071 661.76 921.198 658.599 917.697 651.161C912.309 643.329 910.622 644.352 907.472 645.613C894.222 654.637 893.678 669.362 897.227 674.333C900.775 679.305 913.106 679.561 918.235 666.154Z" fill="#6A6358"/>
<path d="M770.93 344.233C661.51 422.918 850.397 564.28 871.499 582L981.574 505.419C965.824 480.256 923.648 429.619 898.258 411.705C905.192 412.262 902.161 411.36 894.78 408.826C892.451 406.916 892.222 407.24 889.866 405.384C893.93 395.22 899.326 396.674 879.82 397.066C877.143 395.051 876.52 394.484 873.827 392.549C891.883 393.786 890.326 395.138 866.454 387.387C831.783 363.266 796.659 346.478 770.93 344.233Z" fill="url(#paint3_linear_1037_1809)"/>
<path d="M983.171 508.368C963.013 463.932 948.43 459.006 928.701 439.709C870.208 443.92 840.377 517.032 822.597 542.426C857.859 577.494 868.953 583.132 870.223 582.19C871.493 581.248 948.762 514.794 983.171 508.368Z" fill="url(#paint4_linear_1037_1809)"/>
<path d="M836.029 555.495C844.18 563.033 844.203 563.451 852.74 570.858C875.635 531.458 919.108 501.964 965.316 476.335C958.537 465.138 947.851 457.391 938.203 448.804C887.472 487.029 851.178 518.305 836.029 555.495Z" fill="#8B877E"/>
<path d="M846.351 565.164C855.091 573.402 850.692 569.425 859.276 576.475C893.663 552.847 935.578 517.46 980.918 503.741C976.455 492.68 973.751 489.566 972.278 487.314C926.773 507.079 883.341 538.807 846.351 565.164Z" fill="#8B877E"/>
<path d="M801.428 346.379C693.485 278.686 618.984 258.096 420.601 302.581C310.698 355.225 458.998 466.638 398.999 548.76C339 630.883 353.848 725.977 416 738.577C478.153 751.177 496.071 786.862 509.999 802.505C523.928 818.147 675.187 852.81 699 816.765C722.813 780.72 720.501 782.262 786.5 733.167C852.5 684.073 820.197 579.088 800.5 562.038C780.803 544.987 860.151 383.205 801.428 346.379Z" fill="url(#paint5_linear_1037_1809)"/>
<path d="M681 309.276C664.96 322.224 655.499 347.633 655.499 347.633C687.5 314.685 732.619 335.884 747.197 342.787C761.775 349.69 767.957 339.703 758.449 330.151C737.384 313.131 697.04 296.328 681 309.276Z" fill="#6C5C43"/>
<ellipse cx="9.90632" cy="6.14894" rx="9.90632" ry="6.14894" transform="matrix(0.844966 0.534821 -0.54755 0.836773 771.734 340.257)" fill="#6C5C43"/>
<ellipse cx="6.78165" cy="4.20943" rx="6.78165" ry="4.20943" transform="matrix(0.844966 0.534821 -0.54755 0.836773 791.609 355.01)" fill="#6C5C43"/>
<path d="M402.102 549.083C379.602 564.818 371.6 599.732 371.6 599.732C396.102 526.953 501.577 550.865 517.149 555.184C532.721 559.502 537.053 548.614 526.008 540.823C502.267 527.644 424.601 533.347 402.102 549.083Z" fill="#AFABA4" fill-opacity="0.3"/>
<ellipse cx="9.92964" cy="6.13423" rx="9.92964" ry="6.13423" transform="matrix(0.92413 0.382079 -0.393034 0.919524 540.871 548.517)" fill="#7E776C"/>
<ellipse cx="6.79761" cy="4.19936" rx="6.79761" ry="4.19936" transform="matrix(0.92413 0.382079 -0.393034 0.919524 563.043 559.665)" fill="#7E776C"/>
<ellipse cx="12.4996" cy="6.88474" rx="12.4996" ry="6.88474" transform="matrix(0.999148 0.0412802 -0.042674 0.999089 656.588 526.14)" fill="#615546"/>
<ellipse cx="12.4996" cy="6.88474" rx="12.4996" ry="6.88474" transform="matrix(0.999148 0.0412802 -0.042674 0.999089 447.816 502.617)" fill="#615546"/>
<path d="M781.862 460.969C775.498 450.489 769.479 447.36 752.454 448.756C733.244 454.144 733.952 458.952 734.019 467.341C741.495 505.975 769.572 520.441 781.862 516.724C794.152 513.007 803.936 484.82 781.862 460.969Z" fill="#736B5E"/>
<path d="M414.719 639.489C418.543 631.435 418.02 626.065 410.287 614.273C399.234 602.231 396.586 604.335 391.493 607.164C370.935 625.352 373.453 650.357 380.689 657.972C387.925 665.586 409.084 663.285 414.719 639.489Z" fill="#6A6358"/>
<path d="M769.908 526.41C767.925 523.716 766.051 522.911 760.748 523.27C754.764 524.656 754.985 525.892 755.006 528.049C757.335 537.984 766.08 541.703 769.908 540.748C773.736 539.792 776.783 532.544 769.908 526.41Z" fill="#6E6557"/>
<path d="M439.019 649.96C438.478 644.844 436.597 642.343 429.209 638.797C420.104 636.111 419.429 637.935 417.764 640.842C413.086 655.922 421.885 667.547 427.765 669.173C433.645 670.799 443.418 663.4 439.019 649.96Z" fill="#6A6358"/>
<path d="M157.002 477.5C188.155 408.653 364.216 271.243 448.432 306.065C495.476 342.596 312.88 526.254 284.356 527.355C257.082 513.891 252.108 495.844 237.786 480.221C223.68 464.832 164.583 504.928 157.002 477.5Z" fill="url(#paint6_linear_1037_1809)"/>
<path d="M268.287 382.337C259.326 381.154 254.277 383.295 245.168 394.277C236.817 408.5 239.653 410.382 243.928 414.374C267.749 428.417 291.238 418.367 296.445 409.138C301.652 399.908 293.056 380.433 268.287 382.337Z" fill="#81786C"/>
<path d="M286.307 424.932C281.509 427.013 279.649 429.571 278.433 437.701C278.567 447.207 280.539 447.292 283.858 447.992C299.889 447.84 308.514 435.893 308.322 429.788C308.13 423.683 298.015 416.626 286.307 424.932Z" fill="#81786C"/>
<path d="M213.894 715.492C178.332 629.465 158.736 591.935 161.851 512.285L298.756 520.864C272.998 581.397 270.567 619.148 277.19 689.969C297.297 689.143 305.995 693.257 308.608 723.468C302.967 742.885 300.282 751.934 275.838 763.301C251.394 774.667 222.761 746.505 213.894 715.492Z" fill="url(#paint7_linear_1037_1809)"/>
<path d="M213.894 715.491C177.265 629.332 147.163 556.544 156.452 477.639C203.968 443.266 319.219 500.448 299.827 521.395C274.069 581.929 270.567 619.146 277.19 689.968C252.745 701.334 234.358 693.735 213.894 715.491Z" fill="url(#paint8_linear_1037_1809)"/>
<path d="M288.483 547.77C284.99 558.238 284.601 558.322 281.68 569.241C240.033 549.271 211.419 545.869 158.111 550.351C157.398 537.264 154.737 529.695 155.05 516.839C219.33 520.302 254.581 525.315 288.483 547.77Z" fill="#8B877E"/>
<path d="M283.891 561.035C281.323 572.753 281.895 566.699 280.055 577.581C239.037 577.241 212.342 581.641 167.875 595.642C163.296 583.402 165.314 582.628 162.768 570.055C210.703 560.972 239.25 559.89 283.891 561.035Z" fill="#8B877E"/>
<path d="M274.574 610.323C274.274 622.119 274.369 615.936 273.957 627.207C241.843 626.876 221.863 629.651 184.688 644.398C180.121 632.157 178.796 632.38 175.241 620.046C214.872 610.002 237.773 609.755 274.574 610.323Z" fill="#868278"/>
<path d="M274.397 664.088C274.078 675.885 275.717 664.959 275.284 676.231C241.348 678.335 224.661 681.46 205.338 695.793C200.691 683.556 199.286 684.312 195.672 671.98C214.459 665.183 222.041 660.445 274.397 664.088Z" fill="#868278"/>
<path d="M273.797 627.692C273.752 639.569 272.633 633.773 274.398 644.914C241.083 651.72 222.306 655.397 197.948 674.667C191.071 663.547 193.627 665.153 187.733 653.744C209.282 639.585 233.265 634.911 273.797 627.692Z" fill="#868278"/>
<path d="M643.724 245.56L640.544 186.147L588.89 213.686L587.139 184.172L548.031 208.617L531.434 164.816L482.759 236.661C475.418 226.253 470.118 230.324 462.895 236.661C460.782 238.515 458.504 240.563 455.962 242.5C450.356 246.771 443.465 250.497 434.225 250.397C448.157 272.91 444.999 259.079 454.592 274.324C440.787 287.804 433.566 276.455 424.899 268C421.335 259.588 420.145 259.627 420 263.855C417.656 262.245 415.135 261.121 412.313 260.905C411.719 274.268 407.373 293.172 413.569 311C402.675 307.029 404 307 417.157 319C418.301 321.042 419.62 323.055 421.139 325.028C416.137 329.648 405.402 329.006 394.5 328.52C378.5 321 380.5 322 387.65 328.284C384.204 328.225 380.861 328.301 377.806 328.689C379.042 338.82 387.865 350.014 396.5 361.238C384.754 363.377 383.875 366.104 403 369.897C405.536 373.429 407.854 376.937 409.707 380.388C401.014 386.237 395.562 391.559 392.127 400C380.225 414.458 377.351 419.58 389.448 409C388.68 412.61 388.096 416.7 387.65 421.408C402.131 412.907 413.856 416.376 438.751 431.557L423.422 475.674L477.632 471.69C488.357 477.365 495.327 481.472 492.717 493.837C483.513 507.036 475.757 512.543 489.955 502.324C488.723 505.289 487.125 508.603 485.123 512.326C506.064 508.087 518.345 502.972 527.404 493.426C519.093 509.547 528.888 499.874 533.585 485.523C535.753 482.205 537.776 478.477 539.769 474.264C543.098 476.301 545.834 478.357 548.079 480.47C552.316 492.488 553.31 498.975 553.479 501.558C553.604 503.462 553.281 503.245 553.479 501.558C553.666 499.969 554.315 497.076 556.238 493.423C558.576 501.288 557.858 510.47 557.329 522.202C560.525 518.343 563.49 514.898 566.203 511.618C567.435 527.909 565.108 520.593 573.983 501.388C579.331 493.38 582.961 484.73 584.53 471.56C589.421 472.295 584.231 464.89 597.476 473.263C610.721 481.637 611.927 494.77 611.461 480.567C615.386 484 619.805 488.988 625.15 496.324C626.951 491.883 628.41 487.772 629.572 483.958C633.075 491.4 635.87 496.937 631.814 475.359C638.532 443.832 622.2 436.405 619.864 427.375C633.227 430.08 647.217 421.834 655.535 419.536C663.854 417.238 677.334 414.821 663.945 413.061C666.131 411.058 668.015 409.031 669.545 407.104C652.413 391.653 648.888 373.622 656.879 372.126L664.87 370.63C692.159 373.907 691.024 373.119 672.861 369.134L692.169 365.52C674.965 358.538 672.275 345.639 665.24 330.872C670.228 319.267 704.485 315.155 710.5 313C716.516 310.845 746.724 310.643 722.499 304C725.932 302.77 731.094 298.31 733.617 297.181C723.535 286.66 691.454 282.024 674.826 279.06C687.35 267.298 693.888 264.286 706.463 265.169C686.819 241.018 671.279 242.848 643.724 245.56Z" fill="url(#paint9_radial_1037_1809)"/>
<path d="M736.135 143.692C722.283 147.179 679.192 177.662 638.199 179.803L679.719 247.249C693.957 247.138 706.072 246.518 716.573 245.375C720.263 237.337 725.891 238.718 731.929 243.124C734.719 244.142 737.284 243.904 739.607 241.454C740.961 230.585 747.677 230.256 757.266 235.548C760.225 235.75 762.949 236.103 766.48 230.895C769.315 221.123 773.466 220.8 777.997 223.165C780.601 221.171 783.163 219.05 785.738 216.799C800.166 197.056 800.531 169.267 793.441 154.203C786.352 139.139 749.986 140.206 736.135 143.692Z" fill="#746C5F"/>
<path d="M535.399 61.4698C544.118 72.7837 559.084 123.401 589.949 150.462L514.526 174.65C467.047 136.614 456.828 118.358 451.184 88.1686C452.077 63.7317 468.996 41.6838 483.89 34.2437C498.783 26.8036 526.681 50.1559 535.399 61.4698Z" fill="#7C7467"/>
<path d="M733.384 156.537C719.374 160.313 678.832 185.824 640.041 187.9L680.45 243.586C694.302 243.399 702.048 241.302 711.967 240.34C711.967 209.611 732.582 258.767 737.247 233.43C741.911 208.092 757.267 231.458 760.338 230.524C763.409 229.591 763.409 195.807 778.689 218.507C792.752 201.601 794.465 176.753 787.321 165.139C780.176 153.524 747.395 152.762 733.384 156.537Z" fill="url(#paint10_linear_1037_1809)"/>
<path d="M529.606 73.2599C538.27 84.8995 554.312 130.034 583.489 155.68L517.28 174.392C472.601 138.176 462.418 121.308 455.66 93.8744C455.084 71.8911 469.123 51.3181 481.925 46.6207C494.726 41.9232 520.941 61.6204 529.606 73.2599Z" fill="url(#paint11_linear_1037_1809)"/>
<path d="M513.716 152.587C506.394 153.663 512.292 193.776 512.292 193.776L466.531 200.505C466.531 200.505 489.286 227.94 471.893 236.97C454.5 246.001 458.129 241.679 476.5 251.492C477.782 254.433 479.198 257.325 480.595 260.001C463.939 256.529 463 257.501 488.505 273.645L482.502 279.501C467.659 282.45 466.531 284.001 475 286.817L466.531 295.078C459.528 269.501 463.196 287.88 459.528 301.908C443 295.078 430.5 260.001 445 315.001C445 315.001 435.827 322.37 418.911 347.21C401.996 372.05 414.461 458.019 437.497 468C460.532 477.982 559.556 464.371 582.773 444.193C605.991 424.014 637.271 318.828 637.271 318.828C637.271 318.828 640.249 318.633 645 318.235C648.5 326.501 637.271 336.001 653 317.513C663 355.001 657.174 336.586 666.5 316.051C686 335.001 679.077 325.966 680.5 314.501C697.084 312.139 708.006 309.077 709.953 304.416C711.677 300.291 707.058 292.59 701.074 285.001C705.106 276.583 719.5 277.001 692.933 275.501C692.033 274.519 691.093 273.509 690.145 272.501C694.207 262.401 697.245 260.847 687 269.191C682.711 264.719 679 261.001 679 261.001C689.683 265.275 698.824 267.891 681.413 256.501C701.074 253.001 696 263.887 680.578 242.501C679.627 231.704 677.75 219.511 674.047 212.834C666.405 199.056 654.047 178.521 643.013 167.104C631.978 155.688 617.567 146.63 602.918 148.784C588.269 150.938 566.269 141.134 555.816 146.397C545.364 151.659 540.683 157.935 540.683 157.935C540.683 157.935 521.038 151.51 513.716 152.587Z" fill="url(#paint12_linear_1037_1809)"/>
<path d="M615.174 215.681C598.62 214.458 558.271 227.218 543.334 259.153C576.961 286.926 614.427 272.468 624.262 252.739C634.096 233.01 659.493 220.134 659.493 220.134C659.493 220.134 631.728 216.903 615.174 215.681Z" fill="url(#paint13_linear_1037_1809)"/>
<path d="M526.413 181.196C538.151 186.784 534.126 235.581 533.903 256.883C517.272 248.461 508.121 242.391 504.761 231.916C501.401 221.44 503.024 186.83 510.587 172.554C510.587 172.554 514.675 175.609 526.413 181.196Z" fill="url(#paint14_linear_1037_1809)"/>
<path d="M568.641 181.03C557.944 185.842 544.615 194.81 548.502 222.722C576.739 224.815 587.896 207.198 587.367 191.63C586.837 176.062 585.6 172.904 585.6 172.904C585.6 172.904 579.338 176.218 568.641 181.03Z" fill="url(#paint15_linear_1037_1809)"/>
<path d="M561.501 186.5C547.002 189.998 547.442 205.057 547.443 213.89C547.444 222.722 554.351 227.824 572.175 218.483C590 209.141 576 183.003 561.501 186.5Z" fill="#872D43"/>
<path d="M575.3 228.102C558.811 232.079 550.835 246.445 553.493 259.247C556.152 272.049 582.024 279.11 596.434 271.558C610.845 264.007 591.788 224.125 575.3 228.102Z" fill="#872D43"/>
<path d="M530.147 206.027C533.99 216.327 537.117 237.597 530.638 246.31C524.158 255.024 506.994 240.305 503.627 226.224C498.935 194.32 526.304 195.728 530.147 206.027Z" fill="#872D43"/>
<path d="M450.643 471.118C464.994 473.369 503.906 453.038 537.679 425.596C445.003 415.965 448.72 414.848 412.373 367C406.361 391.364 414.644 448.707 424.681 458.717C434.718 468.727 436.293 468.868 450.643 471.118Z" fill="#754E53"/>
<path d="M536.93 426.191C445.8 415.76 446.55 415.012 412.373 367C412.373 367 424.057 436.055 437.172 444.888C450.287 453.721 536.93 426.191 536.93 426.191Z" fill="#9D6774"/>
<path d="M586.818 339.385C586.05 350.134 595.026 415.081 578.5 447.5C581.5 445 582.853 446.779 588.5 438.5C593.407 431.306 602.442 413.02 606.012 406.952C614.198 386.699 641.331 330.172 636.724 316.351C632.117 302.531 639.027 297.924 636.724 294.085C634.421 290.246 587.585 328.636 586.818 339.385Z" fill="#9D6774"/>
<path d="M620.162 325.145L634.417 294.085C626.276 298.001 615.91 306.644 607.546 313.28C594.803 322.754 588.35 334.01 586.815 338.211L589.895 338.211L593.531 332.036L600.745 333.908L600.333 326.537L605.214 322.283L612.791 325.557L611.34 319.95L616.898 312.531L620.162 325.145Z" fill="#ECD66E"/>
<path d="M594.31 373.657L602.94 412.325C610.93 398.466 612.779 391.74 619.925 376.778L620.236 375.991C629.77 351.819 637.918 331.159 637.296 321.669L627.636 334.793L626.772 345.888L615.429 348.194L621.029 358.198L617.118 367.461L604.314 368.058L610.16 374.892L607.464 389.034L594.31 373.657Z" fill="#ECD66E"/>
<g filter="url(#filter0_dd_1037_1809)">
<path fill-rule="evenodd" clip-rule="evenodd" d="M586.926 429.306L474.413 255L518.168 447.982L368.151 522.685L461.027 567.065L331 706.379L448.024 728.669L411.906 946L518.168 821.496L655.684 946L586.926 728.669L686.938 777.919L635.634 647.189H761.946L655.684 576.352L761.946 472.883H655.684L711.94 286.126L586.926 429.306ZM582.455 494.621L529.757 399.887L550.447 504.159L461.029 526.065L507.467 573.758L431.309 667.58L485.785 678.965L468.972 789.968L518.438 726.377L582.455 789.968L550.447 678.965L608.643 702.664L582.455 626.505H659.784L602.201 585.64L680.217 511.339L614.463 516.878L637.494 433.322L582.455 494.621Z" fill="white" fill-opacity="0.2" shape-rendering="crispEdges"/>
</g>
</g>
<defs>
<filter id="filter0_dd_1037_1809" x="301" y="238" width="487.745" height="725" filterUnits="userSpaceOnUse" color-interpolation-filters="sRGB">
<feFlood flood-opacity="0" result="BackgroundImageFix"/>
<feColorMatrix in="SourceAlpha" type="matrix" values="0 0 0 0 0 0 0 0 0 0 0 0 0 0 0 0 0 0 127 0" result="hardAlpha"/>
<feOffset dx="-13"/>
<feGaussianBlur stdDeviation="8.5"/>
<feComposite in2="hardAlpha" operator="out"/>
<feColorMatrix type="matrix" values="0 0 0 0 1 0 0 0 0 1 0 0 0 0 1 0 0 0 0.3 0"/>
<feBlend mode="normal" in2="BackgroundImageFix" result="effect1_dropShadow_1037_1809"/>
<feColorMatrix in="SourceAlpha" type="matrix" values="0 0 0 0 0 0 0 0 0 0 0 0 0 0 0 0 0 0 127 0" result="hardAlpha"/>
<feOffset dx="12"/>
<feGaussianBlur stdDeviation="7.4"/>
<feComposite in2="hardAlpha" operator="out"/>
<feColorMatrix type="matrix" values="0 0 0 0 1 0 0 0 0 1 0 0 0 0 1 0 0 0 0.3 0"/>
<feBlend mode="normal" in2="effect1_dropShadow_1037_1809" result="effect2_dropShadow_1037_1809"/>
<feBlend mode="normal" in="SourceGraphic" in2="effect2_dropShadow_1037_1809" result="shape"/>
</filter>
<linearGradient id="paint0_linear_1037_1809" x1="383.312" y1="976.1" x2="472.982" y2="721" gradientUnits="userSpaceOnUse">
<stop stop-color="#898072"/>
<stop offset="1" stop-color="#6F6659"/>
</linearGradient>
<linearGradient id="paint1_linear_1037_1809" x1="795.976" y1="980.259" x2="751.225" y2="751.913" gradientUnits="userSpaceOnUse">
<stop stop-color="#898072"/>
<stop offset="1" stop-color="#6F6659"/>
</linearGradient>
<linearGradient id="paint2_linear_1037_1809" x1="1026.92" y1="381.942" x2="954.251" y2="583.662" gradientUnits="userSpaceOnUse">
<stop stop-color="#898072"/>
<stop offset="1" stop-color="#6F6659"/>
</linearGradient>
<linearGradient id="paint3_linear_1037_1809" x1="794.337" y1="339.85" x2="917.893" y2="515.082" gradientUnits="userSpaceOnUse">
<stop stop-color="#898072"/>
<stop offset="1" stop-color="#6F6659"/>
</linearGradient>
<linearGradient id="paint4_linear_1037_1809" x1="834.197" y1="464.07" x2="983.432" y2="665.007" gradientUnits="userSpaceOnUse">
<stop stop-color="#989590"/>
<stop offset="1" stop-color="#8E8982"/>
</linearGradient>
<linearGradient id="paint5_linear_1037_1809" x1="585.489" y1="279" x2="595.655" y2="584.669" gradientUnits="userSpaceOnUse">
<stop stop-color="#8A8173"/>
<stop offset="1" stop-color="#635A4E"/>
</linearGradient>
<linearGradient id="paint6_linear_1037_1809" x1="410.473" y1="302.332" x2="253.195" y2="502.862" gradientUnits="userSpaceOnUse">
<stop stop-color="#898072"/>
<stop offset="1" stop-color="#6F6659"/>
</linearGradient>
<linearGradient id="paint7_linear_1037_1809" x1="223.043" y1="286.954" x2="253.627" y2="539.962" gradientUnits="userSpaceOnUse">
<stop stop-color="#898072"/>
<stop offset="1" stop-color="#6F6659"/>
</linearGradient>
<linearGradient id="paint8_linear_1037_1809" x1="249.147" y1="470.457" x2="263.986" y2="720.311" gradientUnits="userSpaceOnUse">
<stop stop-color="#989590"/>
<stop offset="1" stop-color="#8E8982"/>
</linearGradient>
<radialGradient id="paint9_radial_1037_1809" cx="0" cy="0" r="1" gradientUnits="userSpaceOnUse" gradientTransform="translate(455.5 315.5) rotate(27.887) scale(366.19 387.15)">
<stop stop-color="#7E6B51"/>
<stop offset="0.415" stop-color="#867358"/>
<stop offset="1" stop-color="#A39889"/>
</radialGradient>
<linearGradient id="paint10_linear_1037_1809" x1="795.229" y1="194.2" x2="649.064" y2="227.501" gradientUnits="userSpaceOnUse">
<stop stop-color="#754E53"/>
<stop offset="1" stop-color="#90686D"/>
</linearGradient>
<linearGradient id="paint11_linear_1037_1809" x1="457.728" y1="64.5403" x2="551.892" y2="181.187" gradientUnits="userSpaceOnUse">
<stop stop-color="#754E53"/>
<stop offset="1" stop-color="#90686D"/>
</linearGradient>
<linearGradient id="paint12_linear_1037_1809" x1="508" y1="219.001" x2="613.998" y2="390.5" gradientUnits="userSpaceOnUse">
<stop stop-color="#968E81"/>
<stop offset="1" stop-color="#5C5547"/>
</linearGradient>
<linearGradient id="paint13_linear_1037_1809" x1="599.998" y1="193.5" x2="572.998" y2="247.5" gradientUnits="userSpaceOnUse">
<stop stop-color="#ECD66E"/>
<stop offset="1" stop-color="#C3AD46"/>
</linearGradient>
<linearGradient id="paint14_linear_1037_1809" x1="599.998" y1="193.5" x2="572.998" y2="247.5" gradientUnits="userSpaceOnUse">
<stop stop-color="#ECD66E"/>
<stop offset="1" stop-color="#C3AD46"/>
</linearGradient>
<linearGradient id="paint15_linear_1037_1809" x1="560.227" y1="157.938" x2="561.626" y2="200.578" gradientUnits="userSpaceOnUse">
<stop stop-color="#ECD66E"/>
<stop offset="1" stop-color="#C3AD46"/>
</linearGradient>
<clipPath id="clip0_1037_1809">
<rect width="1185" height="1011" fill="white"/>
</clipPath>
</defs>
</svg>
