<svg width="572" height="892" viewBox="0 0 572 892" fill="none" xmlns="http://www.w3.org/2000/svg">
<ellipse cx="289.5" cy="710.554" rx="172.5" ry="71.4459" fill="#E9DDB9" fill-opacity="0.05"/>
<g filter="url(#filter0_d_852_7)">
<ellipse cx="286" cy="711" rx="169" ry="64" stroke="#7FD71B" stroke-opacity="0.01" stroke-width="82.5686"/>
</g>
<path d="M387.239 594.315L392.773 303.091C394.018 283.342 392.207 272.138 331.896 249.16C256.389 228.781 234.483 246.506 212.91 303.091C212.91 303.091 201.534 287.428 196 309C190.466 330.572 204.608 615.887 204.608 615.887C209.668 657.786 226.972 694.986 268.479 694.986C309.986 694.986 383.436 698.529 387.239 594.315Z" fill="url(#paint0_linear_852_7)"/>
<path d="M303.201 341.675L336.5 350L332.187 564.343L304.438 619.842L293.338 694.765L276.689 664.241L307.213 553.243L303.201 341.675Z" fill="#837A61"/>
<path d="M198.993 316.5H212.312L215.642 655.168L205.652 572.438L212.312 566.074L198.993 316.5Z" fill="#A09881"/>
<path d="M379.362 327.771L393.009 288.922C394.257 273.68 392.442 265.033 331.96 247.298C256.24 231.569 234.272 245.25 212.638 288.922C212.638 288.922 201.538 288.922 195.988 305.572C190.439 322.221 212.638 316.672 212.638 316.672C217.712 349.009 235.065 336.096 276.689 336.096C318.313 336.096 331.96 366.62 379.362 327.771Z" fill="url(#paint1_linear_852_7)"/>
<path d="M239.066 303.82L232 266.133C236.231 259.326 239.551 256.455 246.133 252L253.199 284.977L281.465 310.887L335.641 348.574C329.97 348.805 323.086 347.398 302.664 341.508L239.066 303.82Z" fill="#928A74"/>
<path d="M329.414 483.87L304.44 478.32L298.89 492.195L301.665 531.044L332.189 536.594L365.488 528.269V553.243L404.338 544.919L420.987 519.944V439.471L393.238 408.947V431.146L404.338 445.021L390.463 461.671L371.909 468.726L365.488 464.446L348.839 472.77L346.064 492.195L329.414 497.745V483.87Z" fill="url(#paint2_linear_852_7)"/>
<path d="M298.89 492.195L304.44 478.32L329.414 483.87V494.97L346.064 492.195L348.839 472.771L365.489 464.446L373.813 469.996L357.164 475.546L351.614 494.97L323.865 500.52V492.195H298.89Z" fill="#837B63"/>
<path d="M438.169 682.798L413.195 605.1L399.32 594L371.57 607.875L360.471 646.724L266.123 663.373L255.023 627.299L230.049 624.524L218.949 635.624L205.074 616.199L202.299 594L171.775 605.1L169 657.824L182.875 699.448L171.775 713.322L202.299 749.396H260.573L266.123 732.747L379.895 699.448L393.77 707.772L438.169 682.798Z" fill="url(#paint3_linear_852_7)"/>
<path d="M361.911 689.74C364.196 697.883 363.962 704.861 361.903 713.659C356.073 708.389 352.14 701.39 349.38 695.709C346.619 690.028 344.085 677.127 350.266 673.692C356.445 670.258 359.623 681.585 361.908 689.728L361.911 689.74Z" fill="#A0B479"/>
<path d="M376.151 698.603C372.793 706.09 368.264 710.76 361.224 715.242C360.119 706.932 361.523 698.93 362.986 692.778C364.45 686.626 370.588 675.63 377.388 678.162C384.185 680.693 379.514 691.107 376.156 698.593L376.151 698.603Z" fill="#A0B479"/>
<path d="M351.332 697.891C357.4 702.805 360.233 707.968 361.901 715.246C353.278 713.957 345.939 710.588 340.446 707.668C334.954 704.747 326.514 696.489 331.666 691.311C336.816 686.135 345.256 692.971 351.323 697.884L351.332 697.891Z" fill="#A0B479"/>
<path d="M384.288 708.819C377.058 713.208 370.274 714.858 361.246 715.239C364.755 708.208 370.44 702.539 375.17 698.352C379.9 694.166 391.645 688.259 396.616 693.289C401.583 698.318 391.527 704.423 384.298 708.813L384.288 708.819Z" fill="#A0B479"/>
<path d="M393.076 431.199V409L420.826 439.524L404.176 458.949L398.626 464.499L373.652 475.598V470.049H368.102L390.301 461.724V453.399L404.176 445.074L393.076 431.199Z" fill="#837B63"/>
<path d="M365.325 528.322V553.297L357 544.972V531.097L365.325 528.322Z" fill="#837B63"/>
<path d="M393.076 431.2L404.176 445.075L393.076 453.399V431.2Z" fill="#8D866F"/>
<path d="M415.277 660.771L412.502 635.796L401.402 633.021L381.978 644.121L387.527 663.546L409.727 674.645L415.277 660.771Z" fill="url(#paint4_linear_852_7)"/>
<path d="M408.701 512.998L412.501 497.049L398.492 483.701L383.348 487.874L380.825 512.199L395.851 522.024L408.701 512.998Z" fill="url(#paint5_linear_852_7)"/>
<path d="M179.567 370H196.217L193.442 394.974L232.291 417.174L229.516 472.673L212.867 478.222L204.542 428.274L168.468 397.749L179.567 370Z" fill="#837B63"/>
<path d="M204.542 508.747L193.442 514.297L198.992 478.222L185.117 458.798L201.767 469.898L207.317 478.222L204.542 508.747Z" fill="#837B63"/>
<path d="M168.468 397.749L204.543 428.273L212.867 478.222L185.118 458.798L198.993 478.222L193.443 514.296L179.568 475.447L168.468 397.749Z" fill="#948A6C"/>
<path d="M376.586 613.544L412.66 605.219L398.785 594.119L371.036 607.994L359.936 646.843L265.588 663.492L254.488 627.418L229.514 624.643L226.739 627.418L248.939 635.743L265.588 674.592L362.711 649.618L376.586 613.544Z" fill="#837B63"/>
<path d="M187.892 599.669L201.767 594.119L204.542 616.319L218.416 635.743L193.442 613.544L187.892 599.669Z" fill="#837B63"/>
<path d="M246.167 696.792L237.842 674.592L226.742 671.817L207.318 682.917L212.868 716.216L235.067 713.441L246.167 696.792Z" fill="url(#paint6_linear_852_7)"/>
<path d="M182.627 445.55L186.427 429.602L172.418 416.253L165.692 419.949L171.242 444.924L176.792 450.474L182.627 445.55Z" fill="url(#paint7_linear_852_7)"/>
<path opacity="0.55" d="M259.279 149.516C328.946 143.46 365.72 169.65 366.604 174.832C368.868 177.968 331.025 184.696 331.025 184.696C331.025 184.696 307.636 245.387 313.633 247.589C336.601 256.023 348.514 272.931 348.514 272.931C348.514 272.931 317.846 281.744 223.99 249.187C222.275 243.344 269.758 240.861 272.268 237.061C274.778 233.262 295.812 186.736 291.65 178.658C287.488 170.581 259.279 149.516 259.279 149.516Z" fill="url(#paint8_linear_852_7)"/>
<path d="M273.838 155.342C350.794 153.096 358.753 175.385 358.753 175.385C358.753 175.385 325.314 182.431 322.565 185.287C319.197 188.516 304.715 243.884 306.794 247.012C309.399 250.22 330.052 258.069 332.815 263.175C335.578 268.281 289.654 267.325 276.025 259.617C262.83 252.444 261.857 243.867 261.857 243.867C261.857 243.867 279.458 240.011 281.681 237.074C283.904 234.138 299.136 183.099 298.504 175.511C297.872 167.923 273.838 155.342 273.838 155.342Z" fill="url(#paint9_linear_852_7)"/>
<g filter="url(#filter1_d_852_7)">
<circle cx="297" cy="211" r="94" stroke="#7FD71B" stroke-opacity="0.01" stroke-width="82.5686"/>
</g>
<defs>
<filter id="filter0_d_852_7" x="0.715714" y="530.716" width="570.569" height="360.569" filterUnits="userSpaceOnUse" color-interpolation-filters="sRGB">
<feFlood flood-opacity="0" result="BackgroundImageFix"/>
<feColorMatrix in="SourceAlpha" type="matrix" values="0 0 0 0 0 0 0 0 0 0 0 0 0 0 0 0 0 0 127 0" result="hardAlpha"/>
<feOffset/>
<feGaussianBlur stdDeviation="37.5"/>
<feColorMatrix type="matrix" values="0 0 0 0 0.064031 0 0 0 0 0.555973 0 0 0 0 0.378874 0 0 0 0.3 0"/>
<feBlend mode="normal" in2="BackgroundImageFix" result="effect1_dropShadow_852_7"/>
<feBlend mode="normal" in="SourceGraphic" in2="effect1_dropShadow_852_7" result="shape"/>
</filter>
<filter id="filter1_d_852_7" x="86.7157" y="0.715714" width="420.569" height="420.569" filterUnits="userSpaceOnUse" color-interpolation-filters="sRGB">
<feFlood flood-opacity="0" result="BackgroundImageFix"/>
<feColorMatrix in="SourceAlpha" type="matrix" values="0 0 0 0 0 0 0 0 0 0 0 0 0 0 0 0 0 0 127 0" result="hardAlpha"/>
<feOffset/>
<feGaussianBlur stdDeviation="37.5"/>
<feColorMatrix type="matrix" values="0 0 0 0 0.064031 0 0 0 0 0.555973 0 0 0 0 0.378874 0 0 0 0.3 0"/>
<feBlend mode="normal" in2="BackgroundImageFix" result="effect1_dropShadow_852_7"/>
<feBlend mode="normal" in="SourceGraphic" in2="effect1_dropShadow_852_7" result="shape"/>
</filter>
<linearGradient id="paint0_linear_852_7" x1="287.849" y1="396.57" x2="298.228" y2="694.853" gradientUnits="userSpaceOnUse">
<stop offset="0.307345" stop-color="#948A6C"/>
<stop offset="0.745124" stop-color="#948A6C"/>
</linearGradient>
<linearGradient id="paint1_linear_852_7" x1="282.937" y1="261.173" x2="334.963" y2="333.321" gradientUnits="userSpaceOnUse">
<stop stop-color="#948A6C"/>
<stop offset="1" stop-color="#AAA082"/>
</linearGradient>
<linearGradient id="paint2_linear_852_7" x1="351.614" y1="492.195" x2="359.939" y2="553.243" gradientUnits="userSpaceOnUse">
<stop stop-color="#948B6D"/>
<stop offset="1" stop-color="#A69D80"/>
</linearGradient>
<linearGradient id="paint3_linear_852_7" x1="303.585" y1="594" x2="303.585" y2="749.396" gradientUnits="userSpaceOnUse">
<stop stop-color="#908564"/>
<stop offset="1" stop-color="#9D967F"/>
</linearGradient>
<linearGradient id="paint4_linear_852_7" x1="400.336" y1="633.021" x2="400.336" y2="672.643" gradientUnits="userSpaceOnUse">
<stop stop-color="#186E72"/>
<stop offset="1" stop-color="#125257"/>
</linearGradient>
<linearGradient id="paint5_linear_852_7" x1="400.577" y1="483.97" x2="395.906" y2="520.17" gradientUnits="userSpaceOnUse">
<stop stop-color="#186E72"/>
<stop offset="1" stop-color="#125257"/>
</linearGradient>
<linearGradient id="paint6_linear_852_7" x1="228.736" y1="671.817" x2="228.736" y2="714.08" gradientUnits="userSpaceOnUse">
<stop stop-color="#186E72"/>
<stop offset="1" stop-color="#125257"/>
</linearGradient>
<linearGradient id="paint7_linear_852_7" x1="178.191" y1="416.998" x2="174.125" y2="448.51" gradientUnits="userSpaceOnUse">
<stop stop-color="#186E72"/>
<stop offset="1" stop-color="#125257"/>
</linearGradient>
<linearGradient id="paint8_linear_852_7" x1="302.136" y1="149.639" x2="284.878" y2="262.185" gradientUnits="userSpaceOnUse">
<stop stop-color="#186E72"/>
<stop offset="1" stop-color="#125257"/>
</linearGradient>
<linearGradient id="paint9_linear_852_7" x1="313.507" y1="156.596" x2="297.675" y2="259.85" gradientUnits="userSpaceOnUse">
<stop stop-color="#186E72"/>
<stop offset="1" stop-color="#125257"/>
</linearGradient>
</defs>
</svg>
