<svg width="406" height="71" viewBox="0 0 406 71" fill="none" xmlns="http://www.w3.org/2000/svg">
<path d="M37.6562 3.3125C41.6562 3.25 44.9375 3.96875 47.5 5.46875C50.125 6.96875 52.25 8.75 53.875 10.8125C55.5 12.875 56.75 14.9688 57.625 17.0938C58.5 19.1562 59.1875 20.7812 59.6875 21.9688C59.8125 22.2812 60.0625 22.6875 60.4375 23.1875C60.75 23.625 61.1875 24.1562 61.75 24.7812C62.375 25.3438 63.1562 26 64.0938 26.75C62.1562 26.8125 60.4375 26.875 58.9375 26.9375C57.4375 26.9375 56.1562 26.9688 55.0938 27.0312C53.9062 27.0938 52.8438 27.1562 51.9062 27.2188C50.9688 27.2812 49.8125 27.375 48.4375 27.5C47.1875 27.625 45.6562 27.75 43.8438 27.875C42.0312 28 39.8125 28.1875 37.1875 28.4375C38.75 26.5625 39.9688 24.9062 40.8438 23.4688C41.7812 21.9688 42.4688 20.6562 42.9062 19.5312C43.4062 18.3438 43.6875 17.3125 43.75 16.4375C43.875 15.5625 43.8438 14.8125 43.6562 14.1875C43.2812 12.75 42.3125 11.7188 40.75 11.0938C36.25 9.84375 32.3125 10.8438 28.9375 14.0938C25.625 17.2812 23.25 22.5312 21.8125 29.8438C21.125 33.4688 20.4688 37.25 19.8438 41.1875C19.2812 45.0625 19.0625 48.625 19.1875 51.875C19.3125 55.0625 19.9375 57.6562 21.0625 59.6562C22.1875 61.6562 24.125 62.5938 26.875 62.4688C29.5625 62.3438 31.8438 61.9062 33.7188 61.1562C35.5938 60.3438 37.0938 59.4062 38.2188 58.3438C39.3438 57.2188 40.125 56.0312 40.5625 54.7812C41.0625 53.4688 41.25 52.25 41.125 51.125C40.875 50.25 40.2188 49.3125 39.1562 48.3125C38.2188 47.4375 36.8125 46.4688 34.9375 45.4062C33.0625 44.2812 30.375 43.125 26.875 41.9375C30.1875 41.75 32.9062 41.625 35.0312 41.5625C37.2188 41.4375 38.9375 41.3125 40.1875 41.1875C41.6875 41.0625 42.8438 40.9688 43.6562 40.9062C44.4062 40.8438 45.5 40.7812 46.9375 40.7188C48.1875 40.6562 49.7812 40.625 51.7188 40.625C53.7188 40.625 56.2188 40.5938 59.2188 40.5312C58.0938 41.6562 57.2188 42.6875 56.5938 43.625C56.2812 44.125 56 44.5625 55.75 44.9375C55.5 45.5625 55.4062 46.8438 55.4688 48.7812C55.4688 50.4062 55.5938 52.8125 55.8438 56C56.0938 59.125 56.5625 63.4062 57.25 68.8438L44.7812 70.5312L45.3438 57.875C43.9062 61.3125 42.0938 63.875 39.9062 65.5625C37.7812 67.25 35.75 68.4375 33.8125 69.125C31.5 69.9375 29.0938 70.3125 26.5938 70.25C23.3438 69.9375 20.0938 69.1875 16.8438 68C13.5938 66.8125 10.7188 65 8.21875 62.5625C5.71875 60.0625 3.78125 56.8438 2.40625 52.9062C1.09375 48.9688 0.6875 44.0938 1.1875 38.2812C1.75 32.4688 3.125 27.4062 5.3125 23.0938C7.5625 18.7188 10.3438 15.0938 13.6562 12.2188C16.9688 9.34375 20.6875 7.1875 24.8125 5.75C29 4.25 33.2812 3.4375 37.6562 3.3125ZM64.0938 29.0938L81.3438 29.2812C80.3438 33.0938 79.5938 36.3438 79.0938 39.0312C78.6562 41.7188 78.375 43.9688 78.25 45.7812C78 47.8438 77.9375 49.5938 78.0625 51.0312C78.25 52.3438 78.5625 53.75 79 55.25C79.375 56.5 79.9375 57.9375 80.6875 59.5625C81.4375 61.1875 82.4375 62.8125 83.6875 64.4375C82.9375 64.1875 82.125 64 81.25 63.875C80.375 63.75 79.5625 63.6562 78.8125 63.5938C77.9375 63.5312 77.0625 63.5312 76.1875 63.5938C75.3125 63.6562 74.3438 63.75 73.2812 63.875C72.4062 64 71.3438 64.1562 70.0938 64.3438C68.8438 64.5312 67.5312 64.7812 66.1562 65.0938C67.0938 62.2812 67.8125 59.8438 68.3125 57.7812C68.875 55.7188 69.2812 54 69.5312 52.625C69.7812 51 69.9375 49.6875 70 48.6875C70 47.4375 70 46.0312 70 44.4688C70 42.8438 70 41.2812 70 39.7812C70 38.2812 69.9688 36.9688 69.9062 35.8438C69.8438 34.6562 69.7188 33.9062 69.5312 33.5938L68.5938 32.6562C68.2188 32.3438 67.6562 31.9062 66.9062 31.3438C66.2188 30.7188 65.2812 29.9688 64.0938 29.0938ZM70.75 14.6562C72.0625 13.9688 73.375 13.7812 74.6875 14.0938C76.0625 14.4062 77.125 15 77.875 15.875C78.625 16.75 78.875 17.7812 78.625 18.9688C78.4375 20.1562 77.4375 21.3125 75.625 22.4375C73.8125 23.5 72.2188 23.875 70.8438 23.5625C69.4688 23.25 68.5 22.5938 67.9375 21.5938C67.375 20.5938 67.2812 19.4375 67.6562 18.125C68.0312 16.75 69.0625 15.5938 70.75 14.6562ZM94.0938 33.0312C94.4062 32.6562 94.5938 31.9688 94.6562 30.9688C94.7812 29.9062 95.0312 28.7188 95.4062 27.4062C95.8438 26.0938 96.5625 24.7188 97.5625 23.2812C98.5625 21.8438 100.188 20.5 102.438 19.25C104.625 18 106.75 17.25 108.812 17C110.875 16.75 112.844 16.8438 114.719 17.2812C116.594 17.7188 118.344 18.4062 119.969 19.3438C121.656 20.2812 123.188 21.3125 124.562 22.4375C125.5 23.1875 126.25 24.2812 126.812 25.7188C127.375 27.0938 127.812 28.6562 128.125 30.4062C128.438 32.1562 128.656 34 128.781 35.9375C128.969 37.8125 129.094 39.6562 129.156 41.4688C129.219 43.2188 129.25 44.8438 129.25 46.3438C129.312 47.7812 129.438 48.9688 129.625 49.9062C129.875 51.2812 130.312 52.4688 130.938 53.4688C131.562 54.4062 132.25 55.2188 133 55.9062C133.75 56.5312 134.5 57.0312 135.25 57.4062C136 57.7812 136.656 58.0625 137.219 58.25C137.594 58.4375 137.938 58.5625 138.25 58.625C138.875 58.875 139.312 58.875 139.562 58.625C139.188 59.5 138.844 60.25 138.531 60.875C138.219 61.5 137.969 62.0312 137.781 62.4688C137.531 62.9688 137.312 63.375 137.125 63.6875C136.938 64.0625 136.719 64.4062 136.469 64.7188C136.281 65.0312 136.031 65.375 135.719 65.75C135.406 66.125 135.094 66.5312 134.781 66.9688C133.969 66.6562 133.188 66.2812 132.438 65.8438C131.75 65.4062 131.125 65 130.562 64.625C129.875 64.1875 129.25 63.75 128.688 63.3125C128.125 62.875 127.594 62.375 127.094 61.8125C126.656 61.3125 126.188 60.7812 125.688 60.2188C125.25 59.6562 124.875 59.0312 124.562 58.3438C124.188 59.1562 123.281 60.3125 121.844 61.8125C120.469 63.3125 118.656 64.6875 116.406 65.9375C114.156 67.125 111.531 67.9688 108.531 68.4688C105.594 68.9688 102.344 68.625 98.7812 67.4375C97.2188 66.9375 95.75 66.2188 94.375 65.2812C93 64.2812 91.8125 63.0938 90.8125 61.7188C89.875 60.3438 89.1875 58.7812 88.75 57.0312C88.375 55.2188 88.4062 53.2188 88.8438 51.0312C89.2812 48.8438 90.0625 47 91.1875 45.5C92.3125 44 93.6562 42.7812 95.2188 41.8438C96.7812 40.9062 98.5312 40.1875 100.469 39.6875C102.406 39.1875 104.406 38.8438 106.469 38.6562C108.094 38.5938 109.719 38.6875 111.344 38.9375C112.719 39.1875 114.156 39.6562 115.656 40.3438C117.156 40.9688 118.438 41.9375 119.5 43.25C119.438 39.9375 119.312 37.3125 119.125 35.375C119 33.375 118.875 31.8438 118.75 30.7812C118.5 29.5312 118.281 28.6562 118.094 28.1562C117.781 27.7188 117.438 27.2188 117.062 26.6562C116.75 26.0938 116.344 25.5938 115.844 25.1562C115.344 24.6562 114.719 24.25 113.969 23.9375C113.219 23.625 112.344 23.5 111.344 23.5625C110.281 23.625 109.438 23.9062 108.812 24.4062C108.188 24.9062 107.688 25.5 107.312 26.1875C107 26.8125 106.812 27.5 106.75 28.25C106.688 29 106.719 29.6562 106.844 30.2188C106.969 30.5938 107.156 31 107.406 31.4375C107.656 31.8125 108 32.2188 108.438 32.6562C108.875 33.0938 109.469 33.4688 110.219 33.7812C108.781 33.9688 107.5 34.125 106.375 34.25C105.25 34.3125 104.281 34.4062 103.469 34.5312C102.531 34.6562 101.719 34.75 101.031 34.8125C100.344 34.875 99.5312 35 98.5938 35.1875C97.7812 35.3125 96.7812 35.4688 95.5938 35.6562C94.4062 35.8438 93.0312 36.0938 91.4688 36.4062C91.8438 35.9688 92.1875 35.5625 92.5 35.1875C92.8125 34.75 93.0938 34.375 93.3438 34.0625C93.5938 33.6875 93.8438 33.3438 94.0938 33.0312ZM108.156 44.1875C107.031 44.25 105.906 44.5312 104.781 45.0312C103.656 45.4688 102.656 46.125 101.781 47C100.906 47.8125 100.156 48.7812 99.5312 49.9062C98.9688 50.9688 98.6875 52.1562 98.6875 53.4688C98.6875 54.7812 99 55.9375 99.625 56.9375C100.312 57.875 101.188 58.6562 102.25 59.2812C103.375 59.9062 104.562 60.2812 105.812 60.4062C107.125 60.5312 108.406 60.4062 109.656 60.0312C110.844 59.5938 111.969 58.9062 113.031 57.9688C114.094 56.9688 115 55.9062 115.75 54.7812C116.5 53.5938 117.031 52.4375 117.344 51.3125C117.656 50.125 117.688 49.1562 117.438 48.4062C116.938 46.7812 115.812 45.6562 114.062 45.0312C112.312 44.3438 110.344 44.0625 108.156 44.1875ZM141.531 60.6875C141.969 58.625 142.281 56.8125 142.469 55.25C142.719 53.625 142.906 52.2812 143.031 51.2188C143.156 49.9688 143.219 48.9062 143.219 48.0312C143.156 46.9688 143.094 45.7188 143.031 44.2812C143.031 42.7812 142.969 41.3125 142.844 39.875C142.781 38.375 142.688 37.0625 142.562 35.9375C142.438 34.75 142.281 33.9062 142.094 33.4062C141.844 32.9062 141.5 32.375 141.062 31.8125C140.188 30.75 138.906 29.7188 137.219 28.7188C138.656 28.4062 139.875 28.1562 140.875 27.9688C141.938 27.7188 142.812 27.5 143.5 27.3125C144.25 27.0625 144.906 26.8438 145.469 26.6562C145.969 26.4688 146.562 26.2812 147.25 26.0938C147.812 25.9688 148.5 25.8125 149.312 25.625C150.125 25.4375 151.062 25.2188 152.125 24.9688L151.844 33.5C153.844 31.125 155.875 29.3438 157.938 28.1562C160 26.9688 161.938 26.125 163.75 25.625C165.812 25 167.844 24.6875 169.844 24.6875C172.344 24.8125 174.656 25.2188 176.781 25.9062C178.969 26.5938 180.844 27.4062 182.406 28.3438C184.031 29.2188 185.344 30.1562 186.344 31.1562C187.344 32.1562 187.938 33.0312 188.125 33.7812C188.875 36.2188 189.062 38.4688 188.688 40.5312C188.312 42.5312 187.812 44.5 187.188 46.4375C186.625 48.3125 186.125 50.1875 185.688 52.0625C185.312 53.9375 185.469 55.9688 186.156 58.1562C186.406 58.7188 186.656 59.2812 186.906 59.8438C187.156 60.3438 187.469 60.8438 187.844 61.3438C188.219 61.8438 188.656 62.25 189.156 62.5625C188.469 62.5 187.781 62.4688 187.094 62.4688C186.406 62.4062 185.781 62.3438 185.219 62.2812C184.531 62.2188 183.906 62.1562 183.344 62.0938C182.719 62.0312 181.875 62 180.812 62C179 62 176.188 62.0938 172.375 62.2812C172.938 60.9688 173.375 59.875 173.688 59C174.062 58.0625 174.375 57.3125 174.625 56.75C174.875 56.0625 175.062 55.5312 175.188 55.1562C175.938 53.3438 176.375 51.2812 176.5 48.9688C176.688 46.6562 176.531 44.3125 176.031 41.9375C175.844 41.125 175.531 40.1562 175.094 39.0312C174.656 37.9062 174.062 36.8125 173.312 35.75C172.625 34.6875 171.781 33.7812 170.781 33.0312C169.844 32.2812 168.75 31.8438 167.5 31.7188C166.25 31.5938 164.844 31.9062 163.281 32.6562C161.781 33.4062 160.156 34.7812 158.406 36.7812C157.094 38.4688 156.062 40.5312 155.312 42.9688C154.625 45.0312 154.156 47.625 153.906 50.75C153.656 53.8125 154.031 57.4062 155.031 61.5312C154.156 61.4062 153.344 61.3438 152.594 61.3438C151.844 61.2812 151.219 61.2188 150.719 61.1562C150.094 61.0938 149.531 61.0312 149.031 60.9688C148.469 60.9688 147.844 60.9375 147.156 60.875C146.531 60.875 145.75 60.875 144.812 60.875C143.875 60.8125 142.781 60.75 141.531 60.6875ZM193.75 11.9375C195.625 12.125 197.188 12.2812 198.438 12.4062C199.75 12.5312 200.812 12.625 201.625 12.6875C202.562 12.75 203.312 12.7812 203.875 12.7812C204.438 12.8438 205.188 12.8438 206.125 12.7812C206.938 12.7188 208 12.6562 209.312 12.5938C210.625 12.4688 212.281 12.2812 214.281 12.0312C213.844 12.6562 213.5 13.2188 213.25 13.7188C213 14.1562 212.781 14.5625 212.594 14.9375L212.031 16.0625C211.906 16.4375 211.781 16.8125 211.656 17.1875C211.531 17.5 211.406 17.875 211.281 18.3125C211.219 18.75 211.156 19.2188 211.094 19.7188H225.531L224.219 27.3125L211 26.5625C210.688 29.75 210.469 32.2188 210.344 33.9688C210.219 35.7188 210.094 37 209.969 37.8125L209.781 39.5C209.594 41.875 209.406 44.4688 209.219 47.2812C209.031 50.0312 208.969 52.5938 209.031 54.9688C209.094 57.3438 209.312 59.3438 209.688 60.9688C210.062 62.5312 210.719 63.3125 211.656 63.3125C212.594 63.3125 213.469 63.0625 214.281 62.5625C215.094 62.0625 215.781 61.4688 216.344 60.7812C216.969 60.0938 217.438 59.4062 217.75 58.7188C218.062 57.9688 218.219 57.4062 218.219 57.0312C218.219 56.6562 218.125 56.2188 217.938 55.7188C217.625 54.7812 217.062 53.5938 216.25 52.1562C218.062 52.5938 219.656 53.0312 221.031 53.4688C221.719 53.7188 222.344 53.9688 222.906 54.2188C223.531 54.4688 224.25 54.75 225.062 55.0625C225.75 55.375 226.625 55.75 227.688 56.1875C228.75 56.625 230 57.1562 231.438 57.7812C230.062 58.0312 229.062 58.4375 228.438 59C228.062 59.25 227.781 59.5312 227.594 59.8438C227.156 60.5312 226.656 61.4688 226.094 62.6562C225.531 63.7812 224.688 64.9062 223.562 66.0312C222.438 67.1562 220.906 68.1562 218.969 69.0312C217.094 69.9062 214.562 70.4062 211.375 70.5312C208.062 70.6562 205.531 70.0938 203.781 68.8438C202.094 67.5938 200.844 66.1562 200.031 64.5312C199.281 62.8438 198.844 61.1875 198.719 59.5625C198.594 57.9375 198.5 56.8438 198.438 56.2812C198.375 55.7188 198.375 54.3125 198.438 52.0625C198.5 49.8125 198.594 47.3438 198.719 44.6562C198.844 41.9062 198.969 39.2812 199.094 36.7812C199.219 34.2188 199.281 32.3438 199.281 31.1562C199.281 30.5312 199.312 29.875 199.375 29.1875C199.375 28.625 199.375 28.0312 199.375 27.4062C199.438 26.7188 199.469 26.0625 199.469 25.4375L185.875 25.3438L185.312 20L199 20.375C198.875 19.6875 198.719 19.0625 198.531 18.5C198.406 17.875 198.281 17.375 198.156 17C197.969 16.5625 197.781 16.1875 197.594 15.875C197.344 15.5625 197.062 15.2188 196.75 14.8438C196.438 14.5312 196.031 14.125 195.531 13.625C195.031 13.125 194.438 12.5625 193.75 11.9375ZM253.562 2.5625C255.562 2.875 257.375 3.15625 259 3.40625C260.625 3.59375 262.031 3.75 263.219 3.875C264.594 4.0625 265.812 4.21875 266.875 4.34375C268.188 4.53125 270.156 4.3125 272.781 3.6875C275.406 3 278.281 2.375 281.406 1.8125C284.594 1.1875 287.844 0.84375 291.156 0.78125C294.469 0.65625 297.5 1.25 300.25 2.5625C303 3.875 305.25 5.1875 307 6.5C308.75 7.8125 310.125 9.21875 311.125 10.7188C312.188 12.1562 312.938 13.6875 313.375 15.3125C313.812 16.9375 314.062 18.7188 314.125 20.6562C314.062 23.5312 313.375 26.3125 312.062 29C311.5 30.125 310.75 31.3125 309.812 32.5625C308.938 33.75 307.844 34.9062 306.531 36.0312C305.219 37.1562 303.656 38.2188 301.844 39.2188C300.094 40.2188 298.031 41.0938 295.656 41.8438C297.969 42.5312 299.875 43.3438 301.375 44.2812C302.938 45.2188 304.188 46.0938 305.125 46.9062C306.25 47.9062 307.094 48.875 307.656 49.8125C308.344 51.125 308.812 52.25 309.062 53.1875C309.312 54.125 309.469 55.0312 309.531 55.9062C309.656 56.7188 309.812 57.5625 310 58.4375C310.188 59.3125 310.594 60.3125 311.219 61.4375C311.719 62.3125 312.312 63.2188 313 64.1562C313.625 64.9688 314.344 65.8438 315.156 66.7812C316.031 67.7188 317.094 68.625 318.344 69.5C316.594 69.5625 314.969 69.5938 313.469 69.5938C312.031 69.5938 310.781 69.5938 309.719 69.5938C308.469 69.5938 307.281 69.5625 306.156 69.5C305.031 69.4375 303.625 69.4062 301.938 69.4062C300.5 69.4062 298.656 69.4062 296.406 69.4062C294.219 69.4062 291.562 69.4375 288.438 69.5C289.812 68.4375 290.938 67.375 291.812 66.3125C292.688 65.25 293.375 64.2812 293.875 63.4062C294.438 62.4062 294.844 61.4375 295.094 60.5C295.406 58.8125 295.438 57.0625 295.188 55.25C295 53.6875 294.5 51.9688 293.688 50.0938C292.875 48.1562 291.562 46.2188 289.75 44.2812C287.938 44.5938 286.406 44.8438 285.156 45.0312C283.969 45.1562 282.938 45.2812 282.062 45.4062C281.062 45.5312 280.25 45.625 279.625 45.6875C279.062 45.75 278.438 45.8125 277.75 45.875C277.188 45.9375 276.562 46.0312 275.875 46.1562C275.25 46.2188 274.656 46.3125 274.094 46.4375C273.969 49.125 273.969 51.4688 274.094 53.4688C274.219 55.4062 274.375 57.0312 274.562 58.3438C274.812 59.9062 275.094 61.25 275.406 62.375C275.719 63.5 276.156 64.5938 276.719 65.6562C277.156 66.5312 277.719 67.4688 278.406 68.4688C279.094 69.4062 279.875 70.1875 280.75 70.8125C279.125 70.8125 277.562 70.8125 276.062 70.8125C274.625 70.8125 273.312 70.7812 272.125 70.7188C270.75 70.7188 269.438 70.6875 268.188 70.625C266.938 70.5625 265.531 70.5312 263.969 70.5312C262.656 70.5312 261.094 70.5312 259.281 70.5312C257.531 70.5312 255.625 70.5625 253.562 70.625C255.188 68.9375 256.469 67.5 257.406 66.3125C258.344 65.125 259.062 64.125 259.562 63.3125C260.125 62.4375 260.469 61.6875 260.594 61.0625C260.719 60.0625 260.812 58.2812 260.875 55.7188C261 53.0938 261.094 50.0938 261.156 46.7188C261.219 43.3438 261.25 39.8125 261.25 36.125C261.25 32.4375 261.219 29 261.156 25.8125C261.094 22.5625 261.031 19.7812 260.969 17.4688C260.906 15.1562 260.844 13.6875 260.781 13.0625C260.594 11.9375 260.188 10.8125 259.562 9.6875C259.062 8.6875 258.344 7.5625 257.406 6.3125C256.469 5.0625 255.188 3.8125 253.562 2.5625ZM289 35.5625C289.625 35.1875 290.156 34.8125 290.594 34.4375C291.031 34.0625 291.406 33.4688 291.719 32.6562C292.031 31.7812 292.281 30.5625 292.469 29C292.719 27.4375 293 25.3125 293.312 22.625C293.562 19.9375 293.375 17.7188 292.75 15.9688C292.188 14.2188 291.406 12.8438 290.406 11.8438C289.469 10.7812 288.406 10.0625 287.219 9.6875C286.094 9.25 285.094 9.03125 284.219 9.03125C282.469 9.03125 280.75 9.5625 279.062 10.625C277.375 11.6875 276.094 13.125 275.219 14.9375C274.906 15.75 274.625 17.0938 274.375 18.9688C274.188 20.5938 274.062 22.8438 274 25.7188C273.938 28.5938 274.031 32.375 274.281 37.0625C276.656 37.4375 278.75 37.5938 280.562 37.5312C282.375 37.4062 283.906 37.1875 285.156 36.875C286.656 36.5625 287.938 36.125 289 35.5625ZM324.906 33.0312C325.219 32.6562 325.406 31.9688 325.469 30.9688C325.594 29.9062 325.844 28.7188 326.219 27.4062C326.656 26.0938 327.375 24.7188 328.375 23.2812C329.375 21.8438 331 20.5 333.25 19.25C335.438 18 337.562 17.25 339.625 17C341.688 16.75 343.656 16.8438 345.531 17.2812C347.406 17.7188 349.156 18.4062 350.781 19.3438C352.469 20.2812 354 21.3125 355.375 22.4375C356.312 23.1875 357.062 24.2812 357.625 25.7188C358.188 27.0938 358.625 28.6562 358.938 30.4062C359.25 32.1562 359.469 34 359.594 35.9375C359.781 37.8125 359.906 39.6562 359.969 41.4688C360.031 43.2188 360.062 44.8438 360.062 46.3438C360.125 47.7812 360.25 48.9688 360.438 49.9062C360.688 51.2812 361.125 52.4688 361.75 53.4688C362.375 54.4062 363.062 55.2188 363.812 55.9062C364.562 56.5312 365.312 57.0312 366.062 57.4062C366.812 57.7812 367.469 58.0625 368.031 58.25C368.406 58.4375 368.75 58.5625 369.062 58.625C369.688 58.875 370.125 58.875 370.375 58.625C370 59.5 369.656 60.25 369.344 60.875C369.031 61.5 368.781 62.0312 368.594 62.4688C368.344 62.9688 368.125 63.375 367.938 63.6875C367.75 64.0625 367.531 64.4062 367.281 64.7188C367.094 65.0312 366.844 65.375 366.531 65.75C366.219 66.125 365.906 66.5312 365.594 66.9688C364.781 66.6562 364 66.2812 363.25 65.8438C362.562 65.4062 361.938 65 361.375 64.625C360.688 64.1875 360.062 63.75 359.5 63.3125C358.938 62.875 358.406 62.375 357.906 61.8125C357.469 61.3125 357 60.7812 356.5 60.2188C356.062 59.6562 355.688 59.0312 355.375 58.3438C355 59.1562 354.094 60.3125 352.656 61.8125C351.281 63.3125 349.469 64.6875 347.219 65.9375C344.969 67.125 342.344 67.9688 339.344 68.4688C336.406 68.9688 333.156 68.625 329.594 67.4375C328.031 66.9375 326.562 66.2188 325.188 65.2812C323.812 64.2812 322.625 63.0938 321.625 61.7188C320.688 60.3438 320 58.7812 319.562 57.0312C319.188 55.2188 319.219 53.2188 319.656 51.0312C320.094 48.8438 320.875 47 322 45.5C323.125 44 324.469 42.7812 326.031 41.8438C327.594 40.9062 329.344 40.1875 331.281 39.6875C333.219 39.1875 335.219 38.8438 337.281 38.6562C338.906 38.5938 340.531 38.6875 342.156 38.9375C343.531 39.1875 344.969 39.6562 346.469 40.3438C347.969 40.9688 349.25 41.9375 350.312 43.25C350.25 39.9375 350.125 37.3125 349.938 35.375C349.812 33.375 349.688 31.8438 349.562 30.7812C349.312 29.5312 349.094 28.6562 348.906 28.1562C348.594 27.7188 348.25 27.2188 347.875 26.6562C347.562 26.0938 347.156 25.5938 346.656 25.1562C346.156 24.6562 345.531 24.25 344.781 23.9375C344.031 23.625 343.156 23.5 342.156 23.5625C341.094 23.625 340.25 23.9062 339.625 24.4062C339 24.9062 338.5 25.5 338.125 26.1875C337.812 26.8125 337.625 27.5 337.562 28.25C337.5 29 337.531 29.6562 337.656 30.2188C337.781 30.5938 337.969 31 338.219 31.4375C338.469 31.8125 338.812 32.2188 339.25 32.6562C339.688 33.0938 340.281 33.4688 341.031 33.7812C339.594 33.9688 338.312 34.125 337.188 34.25C336.062 34.3125 335.094 34.4062 334.281 34.5312C333.344 34.6562 332.531 34.75 331.844 34.8125C331.156 34.875 330.344 35 329.406 35.1875C328.594 35.3125 327.594 35.4688 326.406 35.6562C325.219 35.8438 323.844 36.0938 322.281 36.4062C322.656 35.9688 323 35.5625 323.312 35.1875C323.625 34.75 323.906 34.375 324.156 34.0625C324.406 33.6875 324.656 33.3438 324.906 33.0312ZM338.969 44.1875C337.844 44.25 336.719 44.5312 335.594 45.0312C334.469 45.4688 333.469 46.125 332.594 47C331.719 47.8125 330.969 48.7812 330.344 49.9062C329.781 50.9688 329.5 52.1562 329.5 53.4688C329.5 54.7812 329.812 55.9375 330.438 56.9375C331.125 57.875 332 58.6562 333.062 59.2812C334.188 59.9062 335.375 60.2812 336.625 60.4062C337.938 60.5312 339.219 60.4062 340.469 60.0312C341.656 59.5938 342.781 58.9062 343.844 57.9688C344.906 56.9688 345.812 55.9062 346.562 54.7812C347.312 53.5938 347.844 52.4375 348.156 51.3125C348.469 50.125 348.5 49.1562 348.25 48.4062C347.75 46.7812 346.625 45.6562 344.875 45.0312C343.125 44.3438 341.156 44.0625 338.969 44.1875ZM368.312 11.9375C370.188 12.125 371.75 12.2812 373 12.4062C374.312 12.5312 375.375 12.625 376.188 12.6875C377.125 12.75 377.875 12.7812 378.438 12.7812C379 12.8438 379.75 12.8438 380.688 12.7812C381.5 12.7188 382.562 12.6562 383.875 12.5938C385.188 12.4688 386.844 12.2812 388.844 12.0312C388.406 12.6562 388.062 13.2188 387.812 13.7188C387.562 14.1562 387.344 14.5625 387.156 14.9375L386.594 16.0625C386.469 16.4375 386.344 16.8125 386.219 17.1875C386.094 17.5 385.969 17.875 385.844 18.3125C385.781 18.75 385.719 19.2188 385.656 19.7188H400.094L398.781 27.3125L385.562 26.5625C385.25 29.75 385.031 32.2188 384.906 33.9688C384.781 35.7188 384.656 37 384.531 37.8125L384.344 39.5C384.156 41.875 383.969 44.4688 383.781 47.2812C383.594 50.0312 383.531 52.5938 383.594 54.9688C383.656 57.3438 383.875 59.3438 384.25 60.9688C384.625 62.5312 385.281 63.3125 386.219 63.3125C387.156 63.3125 388.031 63.0625 388.844 62.5625C389.656 62.0625 390.344 61.4688 390.906 60.7812C391.531 60.0938 392 59.4062 392.312 58.7188C392.625 57.9688 392.781 57.4062 392.781 57.0312C392.781 56.6562 392.688 56.2188 392.5 55.7188C392.188 54.7812 391.625 53.5938 390.812 52.1562C392.625 52.5938 394.219 53.0312 395.594 53.4688C396.281 53.7188 396.906 53.9688 397.469 54.2188C398.094 54.4688 398.812 54.75 399.625 55.0625C400.312 55.375 401.188 55.75 402.25 56.1875C403.312 56.625 404.562 57.1562 406 57.7812C404.625 58.0312 403.625 58.4375 403 59C402.625 59.25 402.344 59.5312 402.156 59.8438C401.719 60.5312 401.219 61.4688 400.656 62.6562C400.094 63.7812 399.25 64.9062 398.125 66.0312C397 67.1562 395.469 68.1562 393.531 69.0312C391.656 69.9062 389.125 70.4062 385.938 70.5312C382.625 70.6562 380.094 70.0938 378.344 68.8438C376.656 67.5938 375.406 66.1562 374.594 64.5312C373.844 62.8438 373.406 61.1875 373.281 59.5625C373.156 57.9375 373.062 56.8438 373 56.2812C372.938 55.7188 372.938 54.3125 373 52.0625C373.062 49.8125 373.156 47.3438 373.281 44.6562C373.406 41.9062 373.531 39.2812 373.656 36.7812C373.781 34.2188 373.844 32.3438 373.844 31.1562C373.844 30.5312 373.875 29.875 373.938 29.1875C373.938 28.625 373.938 28.0312 373.938 27.4062C374 26.7188 374.031 26.0625 374.031 25.4375L360.438 25.3438L359.875 20L373.562 20.375C373.438 19.6875 373.281 19.0625 373.094 18.5C372.969 17.875 372.844 17.375 372.719 17C372.531 16.5625 372.344 16.1875 372.156 15.875C371.906 15.5625 371.625 15.2188 371.312 14.8438C371 14.5312 370.594 14.125 370.094 13.625C369.594 13.125 369 12.5625 368.312 11.9375Z" fill="#C4C4C4"/>
</svg>
