<svg width="520" height="560" viewBox="0 0 520 560" fill="none" xmlns="http://www.w3.org/2000/svg">
<g clip-path="url(#clip0_864_379)">
<ellipse cx="215.924" cy="500.474" rx="126" ry="59.5" fill="url(#paint0_radial_864_379)"/>
<path d="M127.417 218.073C127.147 217.066 125.859 216.552 124.563 217.086C123.304 217.545 122.428 218.786 122.698 219.793L122.728 219.905C123.193 222.07 122.932 224.316 121.883 226.418C119.562 231.073 114.184 232.91 109.935 230.588C108.789 229.962 107.792 229.035 107.073 228.068C106.556 227.212 105.252 227.073 104.084 227.868C102.915 228.662 102.346 229.975 102.826 230.906C102.826 230.906 102.826 230.906 102.893 230.943C104.063 232.729 105.621 234.25 107.577 235.318C114.253 238.968 122.568 236.06 126.162 228.852C127.959 225.248 128.28 221.506 127.417 218.073Z" fill="#8E8B97"/>
<path opacity="0.25" d="M122.766 219.83C123.171 221.771 123.021 223.792 122.22 225.742C122.333 225.517 122.445 225.292 122.52 225.142C123.418 223.34 123.755 220.084 123.147 218.032C122.825 218.334 122.481 219.197 122.766 219.83Z" fill="#46395B"/>
<path opacity="0.25" d="M108.138 234.192C106.318 233.197 105.059 231.935 103.807 230.487C103.477 230.116 103.118 229.632 102.893 229.223C102.706 229.598 102.609 230.31 102.863 230.831C104.032 232.617 105.659 234.174 107.614 235.243C114.29 238.892 122.605 235.985 126.199 228.777C126.386 228.401 126.573 228.026 126.656 227.689C122.889 234.038 115.623 238.283 108.138 234.192Z" fill="#46395B"/>
<path opacity="0.3" d="M125.936 224.143C125.524 224.109 125.029 224.412 124.91 224.824C124.752 225.311 124.595 225.799 124.371 226.249C122.941 229.289 120.409 231.441 117.585 232.286C117.165 232.438 116.873 232.852 116.956 233.375C117.001 233.973 117.54 234.268 118.027 234.152C121.376 233.116 124.402 230.661 126.026 227.059C126.288 226.533 126.483 225.971 126.678 225.408C126.872 224.846 126.483 224.251 125.936 224.143Z" fill="#9C8C9A"/>
<path d="M180.061 466.776C181.02 467.055 181.529 468.418 181.212 469.822C180.895 471.227 179.816 472.25 178.856 471.971C178.784 471.944 178.784 471.944 178.712 471.916C176.739 471.518 174.593 471.862 172.777 473.14C168.679 475.877 167.401 481.763 169.832 486.288C170.467 487.52 171.353 488.489 172.393 489.247C173.2 489.736 173.439 491.175 172.763 492.442C172.159 493.737 170.946 494.439 170.067 493.922C170.067 493.922 170.067 493.922 169.996 493.895C168.293 492.702 166.753 491.033 165.662 488.998C161.817 481.955 163.892 472.783 170.301 468.508C173.401 466.555 176.813 466.068 180.061 466.776Z" fill="url(#paint1_linear_864_379)"/>
<path opacity="0.25" d="M178.713 471.916C176.954 471.6 175.006 471.84 173.299 472.801C173.496 472.698 173.649 472.487 173.847 472.383C175.438 471.288 178.437 470.822 180.356 471.38C180.05 471.801 179.331 472.243 178.713 471.916Z" fill="#46395B"/>
<path opacity="0.25" d="M166.579 488.452C167.625 490.38 168.861 491.752 170.321 492.941C170.769 493.293 171.145 493.617 171.549 493.862C171.225 494.097 170.615 494.222 170.068 493.922C168.365 492.729 166.825 491.06 165.662 488.998C161.818 481.954 163.892 472.783 170.301 468.507C170.625 468.272 170.921 468.117 171.316 467.909C165.697 472.488 162.278 480.604 166.579 488.452Z" fill="#46395B"/>
<path opacity="0.3" d="M174.537 468.696C174.617 469.176 174.382 469.625 173.987 469.832C173.592 470.04 173.125 470.22 172.729 470.427C170.051 472.093 168.277 474.914 167.678 478.097C167.587 478.601 167.165 478.888 166.752 478.909C166.195 478.875 165.873 478.392 165.991 477.809C166.681 474.122 168.717 470.773 171.916 468.768C172.41 468.509 172.904 468.249 173.399 467.99C173.821 467.703 174.413 468.11 174.537 468.696Z" fill="#575878"/>
<path opacity="0.45" d="M180.061 466.776C181.02 467.055 181.529 468.418 181.212 469.822C180.895 471.227 179.816 472.25 178.856 471.971C178.784 471.944 178.784 471.944 178.712 471.916C176.739 471.518 174.593 471.862 172.777 473.14C168.679 475.877 167.401 481.763 169.832 486.288C170.467 487.52 171.353 488.489 172.393 489.247C173.2 489.736 173.439 491.175 172.763 492.442C172.159 493.737 170.946 494.439 170.067 493.922C170.067 493.922 170.067 493.922 169.996 493.895C168.293 492.702 166.753 491.033 165.662 488.998C161.817 481.955 163.892 472.783 170.301 468.508C173.401 466.555 176.813 466.068 180.061 466.776Z" fill="#BEBEBE"/>
<path d="M100.597 271.346C96.2665 270.221 93.7706 265.417 95.0279 260.658L98.0216 249.491C99.279 244.732 103.841 241.78 108.171 242.905C110.216 243.449 111.955 244.782 113.011 246.793C114.136 248.84 114.384 251.269 113.74 253.592L110.746 264.759C109.556 269.555 104.995 272.507 100.597 271.346ZM106.876 247.739C104.966 247.268 102.951 248.555 102.419 250.653L99.4258 261.82C98.8944 263.918 99.9812 266.041 101.892 266.512C103.802 266.983 105.817 265.695 106.348 263.597L109.342 252.43C109.589 251.419 109.529 250.335 109.012 249.479C108.532 248.548 107.798 247.956 106.876 247.739Z" fill="url(#paint2_linear_864_379)"/>
<g opacity="0.35">
<path d="M107.589 262.653L110.583 251.486C110.83 250.474 110.769 249.39 110.252 248.534C109.803 247.715 109.001 247.086 108.117 246.794C106.821 246.468 105.562 246.926 104.626 247.943C105.293 247.639 106.124 247.52 106.873 247.739C107.795 247.956 108.529 248.548 109.009 249.479C109.489 250.41 109.586 251.419 109.339 252.431L106.346 263.597C106.181 264.272 105.814 264.835 105.38 265.362C106.398 264.868 107.297 263.926 107.589 262.653Z" fill="#26366F"/>
<path d="M101.905 270.438C97.5743 269.313 95.0784 264.509 96.3357 259.75L99.3294 248.583C99.8534 246.672 100.917 245.056 102.205 243.849C100.228 245.061 98.6698 246.981 98.0187 249.491L95.025 260.658C93.7676 265.417 96.2635 270.221 100.594 271.346C103.186 271.998 105.868 271.267 107.868 269.493C106.137 270.554 103.95 270.983 101.905 270.438Z" fill="#26366F"/>
</g>
<path opacity="0.3" d="M108.951 245.815C110.27 246.441 111.289 247.666 111.709 249.234C111.979 250.241 111.867 251.326 111.62 252.338L111.051 254.511C111.051 254.511 110.849 255.261 110.692 255.748C110.572 256.16 110.797 256.57 111.134 256.754C111.576 256.9 112.033 256.672 112.19 256.185C112.953 253.449 113.126 252.588 113.126 252.588C113.649 250.677 113.417 248.734 112.555 247.021C111.82 245.568 110.509 244.756 109.632 244.277C109.228 244.056 108.733 244.359 108.614 244.771C108.389 245.221 108.576 245.706 108.951 245.815Z" fill="#575878"/>
<path opacity="0.3" d="M101.615 267.412C100.296 266.786 99.2769 265.561 98.857 263.993C98.587 262.986 98.6991 261.901 98.9461 260.889L99.0733 260.29C99.0733 260.29 99.2753 259.54 99.4325 259.053C99.5523 258.641 99.3274 258.231 98.9903 258.047C98.5482 257.901 98.0913 258.129 97.9341 258.616C97.1707 261.352 97.4402 260.639 97.4402 260.639C96.9163 262.55 97.149 264.493 98.011 266.206C98.7456 267.659 100.057 268.471 100.933 268.95C101.338 269.171 101.832 268.868 101.952 268.456C102.109 267.969 101.989 267.521 101.615 267.412Z" fill="#575878"/>
<path d="M95.6472 308.291C91.1521 307.84 88.087 303.489 88.7299 298.586L90.2178 287.169C90.8608 282.266 95.0326 278.718 99.5277 279.168C101.655 279.376 103.573 280.52 104.847 282.267C106.151 284.127 106.781 286.477 106.445 288.873L104.957 300.29C104.284 305.081 100.075 308.704 95.6472 308.291ZM98.8472 284.147C96.8919 283.938 95.0719 285.523 94.7803 287.657L93.2924 299.073C93.0008 301.207 94.3722 303.103 96.3276 303.312C98.2829 303.521 100.103 301.936 100.395 299.802L101.882 288.386C102.062 287.337 101.792 286.33 101.17 285.512C100.548 284.694 99.7762 284.177 98.8472 284.147Z" fill="url(#paint3_linear_864_379)"/>
<g opacity="0.35">
<path d="M101.473 298.672L102.961 287.255C103.141 286.207 102.871 285.199 102.249 284.382C101.694 283.601 100.818 283.122 99.9262 283.017C98.6226 282.877 97.3567 283.523 96.6228 284.651C97.2595 284.234 98.0236 284.079 98.7802 284.11C99.6718 284.215 100.548 284.694 101.103 285.475C101.725 286.293 101.927 287.263 101.815 288.349L100.328 299.765C100.23 300.476 99.9308 301.077 99.5639 301.641C100.59 300.96 101.354 299.944 101.473 298.672Z" fill="#26366F"/>
<path d="M96.7934 307.197C92.2983 306.746 89.2332 302.396 89.8762 297.492L91.364 286.076C91.6482 284.129 92.4418 282.365 93.6326 281.01C91.85 282.52 90.5246 284.661 90.2181 287.169L88.7303 298.586C88.0873 303.489 91.1524 307.84 95.6475 308.29C98.322 308.606 100.921 307.351 102.689 305.356C101.018 306.64 98.921 307.405 96.7934 307.197Z" fill="#26366F"/>
</g>
<path opacity="0.3" d="M100.622 281.964C102.053 282.364 103.185 283.365 103.777 284.93C104.152 285.9 104.249 286.908 104.137 287.994L103.876 290.239C103.876 290.239 103.779 290.951 103.719 291.587C103.666 292.036 103.929 292.37 104.303 292.48C104.745 292.626 105.172 292.286 105.262 291.762C105.651 288.917 105.756 288.018 105.756 288.018C106.04 286.072 105.53 284.169 104.488 282.644C103.574 281.38 102.12 280.681 101.236 280.389C100.794 280.243 100.3 280.546 100.21 281.07C100.023 281.445 100.248 281.855 100.622 281.964Z" fill="#575878"/>
<path opacity="0.3" d="M96.1182 304.249C94.6872 303.849 93.5557 302.848 92.9635 301.282C92.5886 300.313 92.491 299.304 92.6031 298.219L92.6628 297.583C92.6628 297.583 92.76 296.871 92.8198 296.235C92.8721 295.786 92.6098 295.452 92.2352 295.342C91.7932 295.196 91.3663 295.536 91.2765 296.061C90.8877 298.905 91.0223 298.119 91.0223 298.119C90.7382 300.066 91.2481 301.969 92.2898 303.494C93.2041 304.758 94.6576 305.457 95.5417 305.749C95.9837 305.895 96.4781 305.592 96.5679 305.068C96.6502 304.731 96.4928 304.358 96.1182 304.249Z" fill="#575878"/>
<path d="M95.9494 344.859C91.4246 345.157 87.7528 341.334 87.7065 336.436L87.6811 324.957C87.6349 320.059 91.3496 315.879 95.8744 315.581C98.0169 315.415 100.085 316.258 101.643 317.779C103.232 319.412 104.109 321.611 104.117 324.004L104.143 335.484C104.151 340.457 100.437 344.637 95.9494 344.859ZM95.9132 320.666C93.9804 320.756 92.3552 322.639 92.3408 324.733L92.3662 336.212C92.3518 338.306 94.0078 339.976 95.9406 339.886C97.8734 339.796 99.4986 337.913 99.513 335.819L99.4876 324.34C99.4948 323.293 99.12 322.324 98.4231 321.656C97.7262 320.989 96.8121 320.584 95.9132 320.666Z" fill="url(#paint4_linear_864_379)"/>
<g opacity="0.35">
<path d="M100.494 334.54L100.469 323.061C100.476 322.014 100.101 321.045 99.4045 320.377C98.7077 319.71 97.861 319.343 96.8946 319.388C95.5836 319.435 94.4451 320.342 93.7787 321.506C94.3854 320.978 95.052 320.673 95.8461 320.63C96.8125 320.585 97.6592 320.952 98.3561 321.62C99.0529 322.287 99.4278 323.256 99.4205 324.303L99.446 335.783C99.4537 336.456 99.289 337.13 98.9895 337.731C99.8808 336.976 100.48 335.775 100.494 334.54Z" fill="#26366F"/>
<path d="M96.9311 343.58C92.4063 343.877 88.7344 340.055 88.6882 335.157L88.6627 323.678C88.7072 321.695 89.2611 319.896 90.287 318.355C88.6693 320.05 87.681 322.377 87.6817 324.957L87.7071 336.436C87.7533 341.334 91.3578 345.12 95.95 344.859C98.6769 344.725 101.014 343.136 102.586 340.843C101.074 342.5 99.1036 343.525 96.9311 343.58Z" fill="#26366F"/>
</g>
<path opacity="0.3" d="M97.3886 318.224C98.827 318.437 100.138 319.249 100.91 320.627C101.427 321.483 101.66 322.565 101.653 323.612L101.668 325.818C101.668 325.818 101.638 326.567 101.684 327.164C101.669 327.538 101.998 327.91 102.343 327.907C102.822 327.978 103.219 327.526 103.204 327.04C103.249 324.198 103.181 323.301 103.181 323.301C103.188 321.394 102.468 319.568 101.142 318.269C100.085 317.118 98.5494 316.757 97.6279 316.54C97.1484 316.469 96.7889 316.845 96.6992 317.37C96.7143 317.856 96.9766 318.19 97.3886 318.224Z" fill="#575878"/>
<path opacity="0.3" d="M95.9037 340.821C94.4653 340.608 93.1541 339.796 92.3821 338.419C91.865 337.563 91.6324 336.48 91.6397 335.433L91.5946 334.835C91.5946 334.835 91.6243 334.087 91.5792 333.489C91.5941 333.115 91.2644 332.744 90.9198 332.747C90.4403 332.676 90.0434 333.127 90.0585 333.613C90.0143 336.456 90.044 335.708 90.044 335.708C90.037 337.615 90.7567 339.441 92.083 340.739C93.1396 341.89 94.6755 342.252 95.597 342.469C96.0765 342.54 96.436 342.163 96.5258 341.639C96.5406 341.265 96.2109 340.894 95.9037 340.821Z" fill="#575878"/>
<path d="M100.506 380.121C96.0263 381.016 91.8827 377.796 91.2821 372.977L89.8708 361.696C89.2702 356.877 92.4529 352.215 96.9326 351.32C99.0526 350.854 101.203 351.361 102.941 352.693C104.747 354.062 105.871 356.11 106.157 358.463L107.568 369.745C108.168 374.564 104.986 379.226 100.506 380.121ZM97.5631 356.25C95.5855 356.603 94.23 358.633 94.4553 360.762L95.8667 372.044C96.092 374.173 97.8978 375.542 99.8755 375.19C101.853 374.838 103.209 372.808 102.983 370.679L101.572 359.397C101.407 358.351 100.927 357.42 100.155 356.903C99.4211 356.311 98.4995 356.093 97.5631 356.25Z" fill="url(#paint5_linear_864_379)"/>
<g opacity="0.35">
<path d="M103.867 369.25L102.455 357.969C102.29 356.923 101.81 355.992 101.039 355.475C100.304 354.882 99.3828 354.665 98.409 354.897C97.0905 355.132 96.0495 356.187 95.5853 357.462C96.1246 356.897 96.7613 356.481 97.5254 356.325C98.4618 356.168 99.3833 356.385 100.155 356.902C100.889 357.495 101.474 358.388 101.572 359.397L102.983 370.678C103.058 371.388 102.998 372.024 102.766 372.662C103.56 371.758 103.987 370.558 103.867 369.25Z" fill="#26366F"/>
<path d="M101.389 378.693C96.9097 379.588 92.7661 376.368 92.1655 371.549L90.7542 360.268C90.5214 358.325 90.873 356.415 91.6967 354.764C90.3112 356.682 89.5927 359.155 89.908 361.621L91.3193 372.902C91.9199 377.721 96.0636 380.941 100.543 380.046C103.218 379.501 105.427 377.651 106.663 375.174C105.315 377.017 103.472 378.303 101.389 378.693Z" fill="#26366F"/>
</g>
<path opacity="0.3" d="M98.7689 353.661C100.252 353.612 101.638 354.274 102.658 355.5C103.28 356.317 103.654 357.287 103.752 358.295L104.045 360.462C104.045 360.462 104.12 361.172 104.165 361.77C104.217 362.181 104.517 362.44 104.929 362.474C105.379 362.433 105.776 361.981 105.693 361.458C105.393 358.619 105.288 357.797 105.288 357.797C105.055 355.855 104.051 354.255 102.649 353.107C101.413 352.144 99.8698 351.969 98.8734 351.902C98.4239 351.943 98.0644 352.32 98.0795 352.806C98.0572 353.367 98.4243 353.663 98.7689 353.661Z" fill="#575878"/>
<path opacity="0.3" d="M100.011 376.123C98.5273 376.173 97.1412 375.51 96.1221 374.285C95.5001 373.467 95.1252 372.498 95.0276 371.489L94.915 370.854C94.915 370.854 94.8399 370.144 94.7948 369.546C94.7423 369.135 94.4426 368.876 94.0305 368.842C93.581 368.883 93.1841 369.335 93.2667 369.857C93.567 372.697 93.5294 371.912 93.5294 371.912C93.7621 373.854 94.7664 375.454 96.1676 376.602C97.404 377.565 98.9473 377.74 99.9437 377.807C100.393 377.766 100.753 377.389 100.738 376.903C100.722 376.417 100.355 376.121 100.011 376.123Z" fill="#575878"/>
<path d="M111.714 415.294C107.467 417.272 102.762 415.178 101.15 410.666L97.4691 400.15C95.8573 395.638 98.0285 390.424 102.276 388.446C104.276 387.532 106.516 387.515 108.449 388.285C110.517 389.128 112.068 390.836 112.84 393.074L116.521 403.589C118.133 408.101 115.924 413.391 111.714 415.294ZM103.85 393.033C101.992 393.832 101.072 396.195 101.754 398.097L105.435 408.613C106.08 410.589 108.215 411.47 110.005 410.633C111.863 409.833 112.784 407.47 112.101 405.569L108.42 395.053C108.046 394.084 107.386 393.341 106.54 392.974C105.693 392.607 104.726 392.652 103.85 393.033Z" fill="url(#paint6_linear_864_379)"/>
<g opacity="0.35">
<path d="M112.677 404.068L108.996 393.552C108.621 392.583 107.962 391.84 107.115 391.473C106.269 391.106 105.302 391.151 104.426 391.532C103.197 392.102 102.321 393.343 102.164 394.69C102.569 394.052 103.145 393.411 103.917 393.069C104.793 392.688 105.76 392.643 106.606 393.01C107.52 393.414 108.18 394.157 108.487 395.089L112.168 405.605C112.386 406.201 112.461 406.911 112.296 407.586C112.925 406.496 113.112 405.261 112.677 404.068Z" fill="#26366F"/>
<path d="M112.223 413.756C107.976 415.734 103.271 413.64 101.659 409.128L97.9776 398.612C97.3254 396.823 97.3324 394.916 97.8188 393.08C96.838 395.219 96.6664 397.8 97.4686 400.15L101.15 410.665C102.762 415.177 107.467 417.271 111.714 415.293C114.276 414.114 116.021 411.819 116.747 409.158C115.773 411.11 114.223 412.843 112.223 413.756Z" fill="#26366F"/>
</g>
<path opacity="0.3" d="M104.479 390.223C105.872 389.838 107.446 390.125 108.682 391.087C109.416 391.68 110.001 392.572 110.376 393.542L111.155 395.592C111.155 395.592 111.403 396.301 111.59 396.785C111.748 397.158 112.085 397.342 112.467 397.264C112.886 397.112 113.148 396.586 113.028 396.138C112.099 393.528 111.821 392.708 111.821 392.708C111.169 390.918 109.948 389.581 108.254 388.847C106.868 388.185 105.31 388.384 104.336 388.616C103.849 388.732 103.587 389.258 103.707 389.706C103.76 390.117 104.164 390.338 104.479 390.223Z" fill="#575878"/>
<path opacity="0.3" d="M110.312 411.566C108.919 411.951 107.346 411.664 106.109 410.702C105.375 410.109 104.79 409.216 104.415 408.247L104.198 407.651C104.198 407.651 103.951 406.942 103.763 406.457C103.606 406.085 103.269 405.9 102.887 405.978C102.467 406.131 102.205 406.657 102.325 407.104C103.255 409.715 103.007 409.006 103.007 409.006C103.659 410.796 104.881 412.132 106.574 412.867C107.96 413.529 109.519 413.33 110.492 413.097C110.979 412.981 111.241 412.456 111.121 412.008C111.099 411.709 110.694 411.488 110.312 411.566Z" fill="#575878"/>
<path d="M130.654 444.946C126.789 447.706 121.732 446.662 119.378 442.605L113.9 433.113C111.546 429.056 112.766 423.512 116.631 420.752C118.473 419.466 120.631 418.925 122.751 419.32C124.939 419.751 126.782 421.045 127.906 423.093L133.385 432.585C135.738 436.642 134.451 442.149 130.654 444.946ZM118.947 424.884C117.246 426.057 116.7 428.529 117.734 430.241L123.281 439.769C124.278 441.556 126.533 442.025 128.165 440.815C129.866 439.643 130.412 437.17 129.378 435.458L123.899 425.967C123.382 425.111 122.58 424.481 121.621 424.339C120.7 424.122 119.763 424.279 118.947 424.884Z" fill="url(#paint7_linear_864_379)"/>
<g opacity="0.35">
<path d="M129.685 433.811L124.206 424.319C123.689 423.463 122.887 422.833 121.928 422.691C121.006 422.474 120.1 422.743 119.216 423.311C118.048 424.106 117.441 425.494 117.524 426.877C117.793 426.164 118.303 425.487 118.977 424.996C119.793 424.391 120.73 424.234 121.689 424.376C122.61 424.593 123.449 425.147 123.966 426.003L129.445 435.495C129.768 436.053 129.947 436.725 129.955 437.398C130.314 436.161 130.299 434.815 129.685 433.811Z" fill="#26366F"/>
<path d="M130.856 443.336C126.991 446.096 121.934 445.052 119.581 440.995L114.102 431.503C113.135 429.828 112.76 427.999 112.969 426.202C112.393 428.562 112.603 431.066 113.863 433.188L119.341 442.679C121.695 446.737 126.752 447.781 130.617 445.021C132.924 443.32 134.301 440.729 134.48 437.96C133.949 440.059 132.736 441.975 130.856 443.336Z" fill="#26366F"/>
</g>
<path opacity="0.3" d="M119.059 422.079C120.429 421.395 121.98 421.383 123.366 422.045C124.28 422.449 124.94 423.191 125.457 424.047L126.589 425.908C126.589 425.908 126.978 426.503 127.233 427.025C127.391 427.397 127.87 427.468 128.222 427.279C128.679 427.051 128.806 426.451 128.581 426.042C127.195 423.66 126.775 422.953 126.775 422.953C125.876 421.314 124.332 420.28 122.557 419.882C121.088 419.557 119.553 420.056 118.571 420.475C118.114 420.703 117.957 421.19 118.145 421.675C118.37 422.084 118.744 422.193 119.059 422.079Z" fill="#575878"/>
<path opacity="0.3" d="M128.615 441.634C127.245 442.318 125.694 442.33 124.308 441.668C123.394 441.264 122.734 440.521 122.217 439.665L121.857 439.182C121.857 439.182 121.468 438.587 121.213 438.065C121.055 437.693 120.576 437.622 120.224 437.812C119.767 438.04 119.64 438.639 119.865 439.048C121.251 441.431 120.899 440.76 120.899 440.76C121.798 442.398 123.342 443.433 125.117 443.83C126.586 444.155 128.121 443.657 129.103 443.238C129.56 443.01 129.717 442.523 129.529 442.038C129.41 441.59 128.967 441.444 128.615 441.634Z" fill="#575878"/>
<path d="M157.442 468.665C154.364 472.429 149.142 472.919 145.823 469.766L138.09 462.386C134.77 459.234 134.581 453.589 137.659 449.826C139.142 448.057 141.082 446.92 143.262 446.678C145.51 446.473 147.652 447.167 149.279 448.724L157.012 456.104C160.331 459.257 160.52 464.901 157.442 468.665ZM141.009 453.09C139.668 454.746 139.744 457.176 141.205 458.548L148.938 465.928C150.4 467.3 152.647 467.095 153.988 465.439C155.328 463.783 155.253 461.353 153.791 459.981L146.058 452.601C145.361 451.934 144.41 451.605 143.406 451.725C142.507 451.807 141.661 452.3 141.009 453.09Z" fill="url(#paint8_linear_864_379)"/>
<g opacity="0.35">
<path d="M153.648 458.374L145.915 450.994C145.218 450.327 144.267 449.998 143.263 450.118C142.364 450.2 141.413 450.731 140.798 451.446C139.892 452.575 139.698 453.997 139.99 455.304C140.058 454.481 140.365 453.693 140.941 453.053C141.593 452.262 142.439 451.77 143.406 451.725C144.409 451.604 145.294 451.897 146.058 452.601L153.791 459.981C154.256 460.426 154.578 460.984 154.758 461.656C154.945 460.421 154.547 459.152 153.648 458.374Z" fill="#26366F"/>
<path d="M157.299 467.058C154.221 470.821 148.999 471.311 145.68 468.159L137.947 460.779C136.62 459.481 135.788 457.88 135.481 456.087C135.489 458.48 136.396 460.791 138.089 462.386L145.823 469.766C149.142 472.918 154.364 472.428 157.442 468.665C159.254 466.407 159.92 463.522 159.44 460.871C159.493 463.002 158.714 465.252 157.299 467.058Z" fill="#26366F"/>
</g>
<path opacity="0.3" d="M140.394 450.365C141.502 449.346 143.038 448.848 144.544 449.098C145.503 449.24 146.379 449.719 147.076 450.387L148.605 451.796C148.605 451.796 149.069 452.241 149.467 452.649C149.766 452.908 150.178 452.942 150.5 452.641C150.86 452.264 150.882 451.703 150.515 451.407C148.589 449.59 148.027 448.996 148.027 448.996C146.701 447.697 144.963 447.225 143.165 447.389C141.644 447.513 140.228 448.459 139.479 449.101C139.09 449.365 139.03 450.002 139.36 450.373C139.697 450.557 140.177 450.628 140.394 450.365Z" fill="#575878"/>
<path opacity="0.3" d="M154.685 466.107C153.576 467.125 152.04 467.623 150.535 467.374C149.576 467.232 148.699 466.752 148.002 466.085L147.567 465.752C147.567 465.752 147.103 465.307 146.706 464.898C146.406 464.639 145.994 464.605 145.672 464.907C145.312 465.283 145.29 465.845 145.657 466.141C147.583 467.958 147.051 467.476 147.051 467.476C148.377 468.774 150.116 469.246 151.913 469.083C153.434 468.958 154.85 468.012 155.599 467.371C155.988 467.106 156.048 466.47 155.718 466.099C155.419 465.839 154.902 465.843 154.685 466.107Z" fill="#575878"/>
<path d="M104.481 255.123C102.915 254.649 102.053 252.936 102.569 251.212L109.134 229.098C109.65 227.374 111.276 226.352 112.841 226.825C113.591 227.044 114.19 227.563 114.505 228.308C114.857 228.978 114.925 229.875 114.685 230.7L108.256 252.887C107.739 254.611 106.047 255.597 104.481 255.123Z" fill="url(#paint9_linear_864_379)"/>
<path opacity="0.3" d="M107.385 246.201C106.501 245.908 106.081 244.341 106.598 242.617L108.828 235.046C109.345 233.322 110.491 232.229 111.412 232.446C111.854 232.592 112.214 233.075 112.326 233.71C112.439 234.345 112.439 235.205 112.2 236.029L109.969 243.6C109.52 245.361 108.374 246.455 107.385 246.201Z" fill="#575878"/>
<path opacity="0.35" d="M106.022 250.137C105.205 249.882 104.576 249.251 104.261 248.506L110.549 227.292C109.912 227.708 109.44 228.311 109.201 229.135L104.111 246.226L102.951 250.274L102.636 251.249C102.12 252.973 102.982 254.686 104.548 255.16C106.113 255.633 107.739 254.611 108.255 252.887L109.73 247.865C109.213 249.589 107.52 250.574 106.022 250.137Z" fill="#26366F"/>
<path d="M97.6803 290.102C96.107 289.815 95.1027 288.215 95.4843 286.418L100.071 263.796C100.415 262.073 101.943 260.902 103.584 261.226C104.37 261.369 105.007 261.813 105.427 262.52C105.779 263.19 105.952 264.049 105.78 264.91L101.193 287.532C100.849 289.254 99.2536 290.389 97.6803 290.102Z" fill="url(#paint10_linear_864_379)"/>
<path opacity="0.3" d="M99.7678 280.924C98.8089 280.782 98.3215 279.178 98.6657 277.455L100.214 269.703C100.559 267.98 101.607 266.738 102.566 266.88C103.046 266.951 103.405 267.434 103.623 268.031C103.84 268.627 103.84 269.487 103.668 270.349L102.119 278.101C101.805 279.936 100.757 281.178 99.7678 280.924Z" fill="#575878"/>
<path opacity="0.35" d="M98.7425 285.045C97.8884 284.865 97.289 284.347 96.8692 283.639L101.246 261.954C100.677 262.408 100.235 263.122 100.1 263.908L96.5465 281.361L95.6935 285.481L95.4466 286.492C95.1024 288.215 96.0693 289.89 97.6426 290.177C99.2159 290.464 100.811 289.329 101.155 287.606L102.188 282.438C101.844 284.161 100.316 285.332 98.7425 285.045Z" fill="#26366F"/>
<path d="M103.04 273.158C102.516 274.209 101.43 274.666 100.62 274.224C99.8112 273.782 99.5487 272.587 100.073 271.536C100.597 270.485 101.683 270.028 102.492 270.47C103.302 270.912 103.527 272.182 103.04 273.158Z" fill="#575878"/>
<path d="M95.8468 327.509C94.2286 327.484 92.9771 326.036 93.0441 324.352L94.0945 301.422C94.1989 299.664 95.5994 298.232 97.1502 298.22C97.9443 298.176 98.686 298.582 99.1806 299.139C99.6752 299.696 99.9526 300.516 99.9528 301.376L98.9025 324.306C98.8655 326.101 97.5024 327.458 95.8468 327.509Z" fill="url(#paint11_linear_864_379)"/>
<path opacity="0.3" d="M96.564 318.155C95.5976 318.2 94.8631 316.747 94.9675 314.989L95.3475 307.171C95.452 305.413 96.3356 303.985 97.2645 304.015C97.7815 304.011 98.2161 304.344 98.4335 304.94C98.7557 305.499 98.8608 306.321 98.8611 307.181L98.481 314.999C98.3766 316.757 97.5304 318.11 96.564 318.155Z" fill="#575878"/>
<path opacity="0.35" d="M96.1235 322.309C95.262 322.316 94.5202 321.91 93.9956 321.241L95.0087 299.246C94.4695 299.812 94.1625 300.599 94.1328 301.347L93.2908 319.041L93.0896 323.23L93.015 324.24C92.9106 325.999 94.162 327.447 95.8176 327.397C97.4358 327.421 98.8364 325.989 98.8734 324.194L99.1492 318.994C99.0748 320.865 97.7791 322.258 96.1235 322.309Z" fill="#26366F"/>
<path d="M98.0064 363.276C96.3808 363.439 95.017 362.216 94.9491 360.459L93.7895 337.658C93.7216 335.902 94.9198 334.359 96.5455 334.197C97.377 334.078 98.0888 334.371 98.6882 334.89C99.2202 335.372 99.6025 336.154 99.6702 337.051L100.83 359.851C100.83 361.571 99.632 363.114 98.0064 363.276Z" fill="url(#paint12_linear_864_379)"/>
<path opacity="0.5" d="M97.7569 353.967C96.7531 354.087 95.8762 352.748 95.8083 350.991L95.4317 343.142C95.3638 341.385 96.0452 339.846 97.0116 339.801C97.4611 339.76 98.0005 340.055 98.3228 340.614C98.6451 341.172 98.8925 341.88 98.9601 342.777L99.3368 350.627C99.4046 352.384 98.7233 353.922 97.7569 353.967Z" fill="#575878"/>
<path opacity="0.35" d="M97.7279 358.156C96.8963 358.274 96.1171 357.944 95.5551 357.35L94.4257 335.522C93.9539 336.124 93.7144 336.948 93.752 337.733L94.6031 355.301L94.8514 359.45L94.8817 360.422C94.9495 362.179 96.3808 363.439 97.9389 363.239C99.5646 363.077 100.8 361.459 100.695 359.778L100.454 354.582C100.589 356.376 99.3535 357.993 97.7279 358.156Z" fill="#26366F"/>
<path d="M105.454 398.591C103.851 399.052 102.308 398.018 101.963 396.3L97.6417 374.161C97.2966 372.443 98.33 370.715 99.9331 370.254C100.735 370.023 101.521 370.166 102.158 370.61C102.795 371.054 103.252 371.686 103.425 372.544L107.746 394.684C108.053 396.476 107.02 398.205 105.454 398.591Z" fill="url(#paint13_linear_864_379)"/>
<path opacity="0.3" d="M103.887 389.517C102.913 389.749 101.856 388.598 101.579 386.918L100.056 379.301C99.7107 377.584 100.22 376.047 101.231 375.74C101.718 375.624 102.227 375.807 102.655 376.327C103.119 376.772 103.434 377.517 103.607 378.376L105.129 385.992C105.407 387.673 104.86 389.285 103.887 389.517Z" fill="#575878"/>
<path opacity="0.35" d="M104.449 393.551C103.648 393.782 102.794 393.602 102.157 393.158L98.0083 371.877C97.6714 372.553 97.5367 373.339 97.6418 374.161L101.025 391.297L101.828 395.367L102.03 396.337C102.375 398.055 103.919 399.089 105.522 398.628C107.125 398.167 108.158 396.438 107.813 394.721L106.808 389.681C107.048 391.437 106.015 393.165 104.449 393.551Z" fill="#26366F"/>
<path opacity="0.8" d="M103.284 378.678C102.76 379.729 101.607 380.149 100.73 379.67C99.8533 379.191 99.5233 377.959 100.047 376.908C100.572 375.857 101.725 375.437 102.602 375.916C103.441 376.47 103.771 377.701 103.284 378.678Z" fill="#575878"/>
<path d="M121.944 430.057C120.529 431.003 118.753 430.606 117.914 429.192L107.061 410.17C106.259 408.68 106.715 406.732 108.064 405.749C108.738 405.258 109.569 405.139 110.288 405.246C110.97 405.427 111.674 405.908 112.094 406.615L122.947 425.637C123.854 427.088 123.397 429.036 121.944 430.057Z" fill="url(#paint14_linear_864_379)"/>
<path opacity="0.3" d="M117.747 422.126C116.931 422.73 115.582 421.993 114.743 420.579L111.04 414.064C110.238 412.575 110.2 410.93 111.084 410.362C111.473 410.097 112.058 410.13 112.597 410.425C113.137 410.72 113.736 411.239 114.118 412.021L117.821 418.535C118.593 419.913 118.631 421.558 117.747 422.126Z" fill="#575878"/>
<path opacity="0.35" d="M119.568 425.701C118.789 426.23 117.958 426.349 117.208 426.131L106.775 407.816C106.641 408.602 106.746 409.424 107.098 410.094L115.47 424.798L117.434 428.26L117.883 429.079C118.685 430.569 120.498 430.891 121.914 429.945C123.33 428.999 123.719 427.014 122.917 425.525L120.436 421.207C121.373 422.77 120.916 424.718 119.568 425.701Z" fill="#26366F"/>
<path d="M145.564 456.345C144.478 457.663 142.575 457.865 141.451 456.677L126.022 441.842C124.861 440.729 124.77 438.673 125.924 437.393C126.501 436.753 127.205 436.373 127.931 436.293C128.658 436.212 129.475 436.467 130.037 437.061L145.466 451.896C146.56 452.972 146.65 455.028 145.564 456.345Z" fill="url(#paint15_linear_864_379)"/>
<path opacity="0.3" d="M139.405 450.112C138.753 450.902 137.247 450.652 136.086 449.54L130.81 444.459C129.649 443.346 129.229 441.779 129.918 440.913C130.277 440.537 130.802 440.346 131.416 440.49C132.031 440.635 132.742 440.928 133.304 441.522L138.58 446.603C139.674 447.679 140.056 449.321 139.405 450.112Z" fill="#575878"/>
<path opacity="0.35" d="M142.012 452.971C141.398 453.686 140.627 454.029 139.833 454.072L125.071 439.793C125.108 440.578 125.423 441.323 125.955 441.805L137.832 453.266L140.687 455.973L141.384 456.64C142.546 457.753 144.411 457.626 145.497 456.309C146.583 454.991 146.56 452.972 145.398 451.86L141.914 448.522C143.075 449.634 143.166 451.69 142.012 452.971Z" fill="#26366F"/>
<path opacity="0.8" d="M137.613 447.509C137.089 448.56 135.935 448.98 135.059 448.501C134.182 448.022 133.852 446.79 134.376 445.739C134.9 444.688 136.054 444.268 136.93 444.747C137.807 445.226 138.1 446.533 137.613 447.509Z" fill="#575878"/>
<path d="M172.121 479.842C171.065 481.271 169.297 481.547 167.993 480.547L151.583 466.991C150.317 465.917 150.151 464.011 151.14 462.545C151.649 461.868 152.391 461.414 153.117 461.333C153.881 461.177 154.631 461.396 155.23 461.915L171.64 475.471C172.981 476.395 173.177 478.412 172.121 479.842Z" fill="url(#paint16_linear_864_379)"/>
<path opacity="0.45" d="M172.121 479.842C171.065 481.271 169.297 481.547 167.993 480.547L151.583 466.991C150.317 465.917 150.151 464.011 151.14 462.545C151.649 461.868 152.391 461.414 153.117 461.333C153.881 461.177 154.631 461.396 155.23 461.915L171.64 475.471C172.981 476.395 173.177 478.412 172.121 479.842Z" fill="#AEA8B4"/>
<path opacity="0.3" d="M165.631 474.098C165.01 475 163.466 474.825 162.268 473.788L156.595 469.158C155.329 468.084 154.804 466.555 155.456 465.765C155.748 465.351 156.272 465.16 156.924 465.23C157.508 465.262 158.22 465.556 158.887 466.112L164.559 470.741C165.691 471.741 166.215 473.27 165.631 474.098Z" fill="#575878"/>
<path opacity="0.35" d="M168.419 476.767C167.872 477.519 167.13 477.974 166.336 478.018L150.593 465.017C150.736 465.764 151.051 466.509 151.62 466.916L164.328 477.398L167.296 479.88L168.03 480.472C169.296 481.547 171.102 481.196 172.158 479.766C173.214 478.337 172.981 476.395 171.714 475.32L168.013 472.246C169.242 473.395 169.475 475.338 168.419 476.767Z" fill="#26366F"/>
<path d="M197.2 344.828C197.618 342.436 199.696 340.69 202.125 340.69H227.774C230.18 340.69 232.245 342.404 232.689 344.768L260.814 494.769C261.391 497.846 259.03 500.69 255.899 500.69H175.875C172.769 500.69 170.414 497.888 170.95 494.828L197.2 344.828Z" fill="url(#paint17_linear_864_379)"/>
<path d="M232.124 369.974L212.924 374.359V434.282L228.924 463.513L235.324 502.974L244.924 486.897L227.324 428.436L232.124 369.974Z" fill="#A39875"/>
<path d="M333.5 19C393.26 37.2803 416.517 57.1647 443 112L420 167L377 215.5L295.059 338.092L143.923 211.274L244 112L288 57.0001L333.5 19Z" fill="url(#paint18_linear_864_379)"/>
<path d="M422.452 76.519L430.792 90.996L384.779 161.875L348.8 187.901L312.975 231.315L317.332 206.98L377.214 147.084L422.452 76.519Z" fill="#A4997C"/>
<path d="M257.071 206.117L257.071 206.117L257.07 206.118L257.071 206.117L265.83 220.643L292.868 183.173L322.212 148.756L324.851 122.431L291.676 173.443L257.071 206.117Z" fill="#AC9F7C"/>
<path d="M359.317 29.6972L367.217 32.3867L319.924 70.4742L332.351 53.4333L359.317 29.6972Z" fill="#A49976"/>
<path d="M315.579 89.7256L311.258 101.24L298.353 117.176L286 124.005L315.579 89.7256Z" fill="#ADA281"/>
<path d="M158.375 495.14L166.338 462.709L171.677 457.782L183.386 462.655L189.02 478.198L227.958 482.306L231.453 467.262L241.556 465.417L246.397 469.632L251.499 461.307L251.997 452.165L264.757 455.826L267.394 477.271L262.926 494.659L267.847 500.007L256.433 515.604L232.676 517.265L229.939 510.626L182.606 500.276L177.188 504.07L158.375 495.14Z" fill="url(#paint19_linear_864_379)"/>
<path d="M181.315 465.01L166.442 462.663L171.757 457.776L177.424 456.975L176.924 459.975L183.41 462.606L189.013 478.017L227.768 482.08L231.251 467.162L241.306 465.33L242.511 466.375L233.738 470.375L228.082 486.574L187.966 479.219L181.315 465.01Z" fill="#837B63"/>
<path d="M347.424 274.474C347.424 350.137 288.811 415.69 213.424 415.69C138.037 415.69 76.9238 354.353 76.9238 278.69C76.9238 203.027 138.037 141.69 213.424 141.69C255.424 153.474 271.363 162.974 304.424 198.974C326.924 223.474 338.924 240.474 347.424 274.474Z" fill="url(#paint20_radial_864_379)"/>
<path d="M206.653 254.165C188.946 281.432 150.808 288.467 124.535 271.405C98.2614 254.343 102.976 226.564 120.683 199.297C138.39 172.031 175.444 156.716 201.717 173.778C227.99 190.84 224.36 226.898 206.653 254.165Z" fill="#4E3B21"/>
<path d="M231.408 306.812C231.101 305.829 231.788 304.348 233.005 303.642C234.158 302.912 235.422 303.092 235.729 304.074L235.763 304.184C236.507 306.197 237.825 307.651 239.646 308.328C243.681 309.827 248.543 306.615 250.492 301.259C251.018 299.814 251.284 298.273 251.327 296.937C251.276 295.857 252.162 294.642 253.416 294.24C254.671 293.837 255.746 294.333 255.861 295.437C255.861 295.437 255.861 295.437 255.83 295.522C255.868 297.853 255.489 300.317 254.591 302.782C251.528 311.198 243.978 316.113 237.731 313.793C234.608 312.633 232.497 310.111 231.408 306.812Z" fill="url(#paint21_linear_864_379)"/>
<path opacity="0.45" d="M231.408 306.812C231.101 305.829 231.788 304.348 233.005 303.642C234.158 302.912 235.422 303.092 235.729 304.074L235.763 304.184C236.507 306.197 237.825 307.651 239.646 308.328C243.681 309.827 248.543 306.615 250.492 301.259C251.018 299.814 251.284 298.273 251.327 296.937C251.276 295.857 252.162 294.642 253.416 294.24C254.671 293.837 255.746 294.333 255.861 295.437C255.861 295.437 255.861 295.437 255.83 295.522C255.868 297.853 255.489 300.317 254.591 302.782C251.528 311.198 243.978 316.113 237.731 313.793C234.608 312.633 232.497 310.111 231.408 306.812Z" fill="#BEBED0"/>
<path opacity="0.25" d="M235.698 304.159C236.374 305.954 237.496 307.336 239.061 308.11C238.866 308.038 238.671 307.965 238.541 307.917C236.979 307.337 235.101 305.192 234.517 303.142C234.874 303.177 235.589 303.443 235.698 304.159Z" fill="#46395B"/>
<path opacity="0.25" d="M253.615 302.42C254.451 300.125 254.741 298.11 254.932 295.961C254.988 295.403 255.009 294.735 254.968 294.238C255.294 294.359 255.721 294.807 255.796 295.414C255.834 297.744 255.423 300.293 254.526 302.759C251.463 311.174 243.913 316.089 237.666 313.769C237.341 313.648 237.016 313.527 236.786 313.346C242.729 314.878 250.181 311.856 253.615 302.42Z" fill="#46395B"/>
<path opacity="0.3" d="M235.536 310.082C235.821 309.705 236.27 309.486 236.63 309.716C236.989 309.946 237.349 310.176 237.739 310.321C240.311 311.373 243.244 310.822 245.737 309.046C246.121 308.803 246.543 308.863 246.744 309.324C247.011 309.809 246.763 310.489 246.348 310.817C243.375 312.897 239.928 313.643 236.931 312.337C236.476 312.168 236.051 311.914 235.627 311.66C235.202 311.405 235.19 310.629 235.536 310.082Z" fill="#575878"/>
<path d="M234.615 488.298C233.956 489.291 234.166 490.699 235.073 491.457C235.98 492.215 237.337 492.068 237.996 491.076C238.042 490.997 238.042 490.997 238.088 490.918C239.524 489.003 241.443 487.486 243.521 486.918C248.144 485.529 251.903 488.748 251.992 494.034C252.039 495.45 251.758 496.883 251.254 498.29C250.818 499.309 251.284 500.55 252.422 500.913C253.514 501.355 254.832 500.865 255.315 499.767C255.315 499.767 255.315 499.767 255.361 499.688C256.209 497.42 256.704 494.941 256.662 492.566C256.572 484.289 250.646 479.343 243.419 481.518C239.976 482.654 236.953 485.11 234.615 488.298Z" fill="url(#paint22_linear_864_379)"/>
<path opacity="0.25" d="M238.042 490.997C239.34 489.32 241.048 487.89 242.892 487.181C242.682 487.269 242.459 487.242 242.249 487.329C240.439 487.845 237.765 489.976 236.447 491.961C236.938 491.936 237.732 491.665 238.042 490.997Z" fill="#46395B"/>
<path opacity="0.25" d="M255.658 492.925C255.7 495.3 255.306 497.199 254.668 499.379C254.462 500.003 254.303 500.548 254.085 501.057C254.458 500.961 255.017 500.549 255.327 499.881C256.175 497.614 256.67 495.135 256.674 492.681C256.584 484.404 250.658 479.457 243.432 481.632C243.058 481.728 242.743 481.859 242.323 482.034C249.029 480.615 255.572 483.689 255.658 492.925Z" fill="#46395B"/>
<path opacity="0.3" d="M240.031 485.143C240.187 485.557 240.586 485.69 241.006 485.515C241.426 485.34 241.892 485.086 242.312 484.911C245.276 483.914 248.031 484.5 249.988 486.316C250.295 486.607 250.773 486.467 251.122 486.143C251.563 485.66 251.605 485.044 251.239 484.718C248.975 482.611 245.763 481.857 242.215 483.037C241.69 483.256 241.165 483.474 240.64 483.693C240.115 483.912 239.863 484.615 240.031 485.143Z" fill="#575878"/>
<path d="M248.887 337.806L244.792 329.08C243.919 327.274 243.965 324.984 244.958 322.653C245.884 320.385 247.58 318.43 249.665 317.048C254.08 314.147 259.093 314.809 260.818 318.535L264.913 327.261C266.639 330.987 264.457 336.393 260.041 339.293C255.625 342.194 250.613 341.532 248.887 337.806ZM249.429 323.259C249.01 324.304 248.996 325.253 249.342 326.054L253.437 334.78C254.174 336.433 256.386 336.71 258.337 335.453C260.287 334.196 261.235 331.815 260.498 330.162L256.403 321.436C255.666 319.783 253.453 319.506 251.503 320.763C250.561 321.36 249.781 322.275 249.429 323.259Z" fill="url(#paint23_linear_864_379)"/>
<g opacity="0.35">
<path d="M251.992 334.537L247.897 325.811C247.551 325.01 247.52 324.01 247.984 323.015C248.381 322.083 249.162 321.168 250.058 320.52C251.381 319.661 252.732 319.524 253.797 320.029C253.075 320.046 252.198 320.302 251.436 320.826C250.495 321.423 249.781 322.276 249.362 323.321C248.944 324.367 248.93 325.316 249.275 326.117L253.37 334.843C253.601 335.377 254.033 335.723 254.531 336.007C253.426 336.008 252.474 335.491 251.992 334.537Z" fill="#26366F"/>
<path d="M258.663 338.987C263.079 336.087 265.261 330.681 263.535 326.955L259.441 318.229C258.728 316.741 257.478 315.753 256.03 315.231C258.197 315.457 259.988 316.502 260.886 318.473L264.981 327.198C266.707 330.925 264.524 336.33 260.109 339.231C257.464 340.949 254.604 341.462 252.365 340.741C254.261 340.939 256.579 340.369 258.663 338.987Z" fill="#26366F"/>
</g>
<path opacity="0.3" d="M249.174 319.94C247.854 321.077 246.898 322.623 246.597 324.214C246.404 325.237 246.615 326.163 246.961 326.964L247.744 328.669C247.744 328.669 248.02 329.254 248.226 329.623C248.387 329.941 248.188 330.407 247.853 330.72C247.405 331.044 246.909 331.039 246.702 330.67C245.668 328.545 245.413 327.846 245.413 327.846C244.7 326.358 244.774 324.511 245.522 322.596C246.161 320.97 247.457 319.668 248.329 318.855C248.732 318.48 249.273 318.536 249.434 318.854C249.641 319.223 249.555 319.678 249.174 319.94Z" fill="#575878"/>
<path opacity="0.3" d="M258.704 336.141C260.024 335.003 260.979 333.457 261.28 331.866C261.474 330.843 261.262 329.917 260.917 329.116L260.732 328.633C260.732 328.633 260.456 328.048 260.249 327.679C260.088 327.36 260.287 326.894 260.622 326.582C261.07 326.257 261.567 326.263 261.773 326.632C262.808 328.757 262.464 328.234 262.464 328.234C263.177 329.722 263.104 331.569 262.355 333.485C261.716 335.11 260.42 336.412 259.548 337.225C259.146 337.601 258.604 337.544 258.443 337.226C258.237 336.857 258.323 336.402 258.704 336.141Z" fill="#575878"/>
<path opacity="0.45" d="M249.686 316.934C247.601 318.316 245.906 320.271 244.98 322.539C244.163 324.517 243.978 326.375 244.489 328.051C245.973 327.511 247.703 326.833 249.479 326.207L249.409 325.991C249.063 325.19 249.031 324.19 249.496 323.196C249.893 322.264 250.674 321.348 251.57 320.7C253.52 319.443 255.733 319.72 256.47 321.373L257.689 323.981C259.513 323.684 261.382 323.438 263.367 323.46L261.065 318.398C259.16 314.746 254.102 314.033 249.686 316.934Z" fill="#9A9A9A"/>
<path d="M258.494 367.041L255.7 357.57C255.14 355.565 255.412 353.252 256.676 350.949C257.806 348.772 259.705 346.907 261.859 345.741C266.46 343.323 271.185 344.628 272.417 348.627L275.211 358.098C276.376 362.16 273.607 367.458 269.052 369.927C264.384 372.407 259.659 371.103 258.494 367.041ZM260.814 352.146C260.304 353.09 260.156 354.164 260.435 355.027L263.228 364.498C263.719 366.288 265.821 366.854 267.795 365.762C269.815 364.721 271.034 362.368 270.477 360.641L267.683 351.17C267.193 349.38 265.09 348.813 263.116 349.906C262.129 350.452 261.324 351.202 260.814 352.146Z" fill="url(#paint24_linear_864_379)"/>
<g opacity="0.35">
<path d="M261.873 364.078L259.079 354.608C258.8 353.744 258.994 352.721 259.458 351.727C259.968 350.783 260.794 349.919 261.714 349.435C263.061 348.741 264.437 348.769 265.367 349.399C264.667 349.303 263.857 349.496 263.004 349.917C262.084 350.401 261.212 351.214 260.748 352.209C260.238 353.152 260.09 354.226 260.369 355.09L263.162 364.561C263.326 365.157 263.69 365.566 264.122 365.912C263.106 365.737 262.221 365.158 261.873 364.078Z" fill="#26366F"/>
<path d="M267.696 369.507C272.297 367.09 275.066 361.792 273.856 357.679L271.062 348.208C270.596 346.583 269.548 345.407 268.121 344.772C270.132 345.237 271.746 346.633 272.352 348.69L275.146 358.161C276.311 362.223 273.541 367.521 268.986 369.99C266.226 371.44 263.431 371.612 261.369 370.54C263.268 371.016 265.496 370.622 267.696 369.507Z" fill="#26366F"/>
</g>
<path opacity="0.3" d="M261.008 348.782C259.597 349.817 258.505 351.21 258.024 352.875C257.718 353.909 257.75 354.909 258.028 355.773L258.564 357.614C258.564 357.614 258.727 358.21 258.912 358.693C259.006 359.074 258.762 359.489 258.448 359.688C258 360.012 257.525 359.893 257.386 359.461C256.665 357.137 256.478 356.376 256.478 356.376C256.012 354.751 256.31 352.882 257.217 351.006C258.014 349.42 259.469 348.158 260.365 347.509C260.813 347.185 261.354 347.242 261.448 347.622C261.587 348.054 261.389 348.52 261.008 348.782Z" fill="#575878"/>
<path opacity="0.3" d="M268.141 366.563C269.552 365.527 270.645 364.135 271.125 362.469C271.431 361.435 271.4 360.435 271.121 359.571L271.003 359.026C271.003 359.026 270.84 358.429 270.655 357.947C270.561 357.566 270.805 357.151 271.119 356.952C271.567 356.628 272.042 356.747 272.181 357.179C272.902 359.502 272.738 358.906 272.738 358.906C273.205 360.53 272.906 362.4 271.999 364.276C271.202 365.862 269.748 367.124 268.852 367.772C268.404 368.097 267.862 368.04 267.768 367.659C267.562 367.29 267.76 366.824 268.141 366.563Z" fill="#575878"/>
<path d="M263.112 398.121L261.89 387.933C261.644 385.728 262.299 383.432 263.813 381.272C265.259 379.174 267.274 377.576 269.543 376.677C274.261 374.805 278.565 376.876 279.057 381.285L280.279 391.473C280.838 395.82 277.39 400.908 272.626 402.729C267.974 404.539 263.671 402.467 263.112 398.121ZM267.551 383.122C266.928 384.077 266.622 385.112 266.721 386.049L267.943 396.237C268.186 398.163 270.066 399.031 272.088 398.268C274.178 397.443 275.646 395.232 275.448 393.357L274.226 383.169C273.983 381.243 272.103 380.375 270.08 381.137C269.069 381.519 268.219 382.218 267.551 383.122Z" fill="url(#paint25_linear_864_379)"/>
<g opacity="0.35">
<path d="M266.809 395.516L265.587 385.328C265.488 384.39 265.794 383.356 266.416 382.401C267.085 381.497 267.935 380.798 268.946 380.416C270.317 379.887 271.604 380.091 272.379 380.96C271.701 380.75 270.912 380.83 270.081 381.137C269.069 381.519 268.219 382.218 267.551 383.122C266.928 384.077 266.622 385.111 266.721 386.049L267.943 396.237C267.994 396.845 268.291 397.316 268.656 397.725C267.661 397.436 266.977 396.669 266.809 395.516Z" fill="#26366F"/>
<path d="M271.492 402.008C276.211 400.135 279.637 395.161 279.146 390.752L277.924 380.564C277.704 378.803 276.857 377.44 275.699 376.554C277.533 377.371 278.833 378.967 279.125 381.223L280.347 391.41C280.906 395.757 277.457 400.845 272.694 402.666C269.885 403.787 267.243 403.442 265.45 402.119C267.08 402.846 269.223 402.907 271.492 402.008Z" fill="#26366F"/>
</g>
<path opacity="0.3" d="M268.263 379.65C266.782 380.469 265.532 381.822 264.847 383.397C264.383 384.391 264.302 385.403 264.401 386.34L264.623 388.38C264.623 388.38 264.719 389.039 264.791 389.534C264.839 389.863 264.528 390.341 264.214 390.54C263.721 390.813 263.267 390.58 263.241 390.137C262.947 387.603 262.872 386.83 262.872 386.83C262.653 385.069 263.289 383.165 264.446 381.431C265.447 379.936 266.97 378.889 267.912 378.292C268.405 378.019 268.88 378.138 268.952 378.632C268.888 378.973 268.689 379.439 268.263 379.65Z" fill="#575878"/>
<path opacity="0.3" d="M272.321 399.081C273.802 398.261 275.052 396.908 275.737 395.334C276.201 394.339 276.282 393.328 276.183 392.39L276.178 391.833C276.178 391.833 276.082 391.174 276.009 390.68C275.961 390.35 276.273 389.873 276.586 389.674C277.08 389.401 277.533 389.633 277.56 390.077C277.854 392.611 277.758 391.952 277.758 391.952C277.977 393.713 277.341 395.617 276.184 397.351C275.183 398.846 273.659 399.892 272.718 400.49C272.224 400.763 271.749 400.644 271.677 400.149C271.65 399.706 271.895 399.291 272.321 399.081Z" fill="#575878"/>
<path d="M263.228 430.214L263.423 419.548C263.469 417.258 264.462 414.928 266.113 412.921C267.808 410.965 269.893 409.583 272.165 408.962C276.934 407.698 280.725 410.434 280.587 414.963L280.392 425.629C280.299 430.209 276.307 434.962 271.605 436.164C266.948 437.417 263.157 434.68 263.228 430.214ZM269.472 415.311C268.759 416.164 268.34 417.209 268.259 418.221L268.065 428.887C268.016 430.898 269.673 432.068 271.765 431.521C273.857 430.974 275.574 428.905 275.623 426.893L275.818 416.228C275.867 414.216 274.21 413.046 272.117 413.593C271.195 413.798 270.232 414.509 269.472 415.311Z" fill="url(#paint26_linear_864_379)"/>
<g opacity="0.35">
<path d="M267.065 428.04L267.259 417.374C267.273 416.425 267.692 415.379 268.472 414.464C269.186 413.611 270.128 413.014 271.117 412.746C272.512 412.382 273.711 412.762 274.306 413.705C273.695 413.432 272.928 413.399 272.118 413.592C271.128 413.86 270.186 414.457 269.472 415.31C268.759 416.163 268.34 417.209 268.259 418.22L268.065 428.886C268.048 429.556 268.233 430.039 268.531 430.511C267.67 430.097 267.008 429.216 267.065 428.04Z" fill="#26366F"/>
<path d="M270.718 435.306C275.487 434.042 279.413 429.351 279.505 424.771L279.7 414.105C279.773 412.259 279.173 410.759 278.103 409.697C279.782 410.753 280.746 412.661 280.745 415.003L280.551 425.668C280.458 430.248 276.466 435.001 271.764 436.203C268.907 436.995 266.442 436.297 264.871 434.673C266.346 435.638 268.401 435.876 270.718 435.306Z" fill="#26366F"/>
</g>
<path opacity="0.3" d="M270.635 411.793C269.13 412.447 267.743 413.647 266.833 415.244C266.256 416.25 266.017 417.222 265.982 418.285L265.911 420.41C265.911 420.41 265.895 421.081 265.9 421.638C265.881 422.03 265.591 422.393 265.165 422.604C264.693 422.763 264.24 422.531 264.258 422.139C264.324 419.456 264.362 418.672 264.362 418.672C264.435 416.825 265.229 414.961 266.59 413.318C267.749 411.863 269.342 411.032 270.375 410.537C270.802 410.327 271.322 410.497 271.281 411.003C271.351 411.218 271.107 411.633 270.635 411.793Z" fill="#575878"/>
<path opacity="0.3" d="M271.819 432.408C273.324 431.754 274.711 430.554 275.62 428.957C276.197 427.951 276.437 426.979 276.472 425.916L276.534 425.297C276.534 425.297 276.55 424.626 276.545 424.069C276.564 423.677 276.854 423.313 277.28 423.103C277.752 422.943 278.205 423.176 278.186 423.568C278.121 426.25 278.159 425.466 278.159 425.466C278.086 427.313 277.291 429.177 275.931 430.82C274.772 432.276 273.178 433.106 272.146 433.601C271.719 433.812 271.199 433.642 271.239 433.136C271.102 432.983 271.459 432.556 271.819 432.408Z" fill="#575878"/>
<path d="M254.43 463.881L258.184 452.798C258.951 450.491 260.578 448.319 262.683 446.823C264.789 445.327 267.083 444.593 269.159 444.717C273.581 444.992 275.964 449.043 274.34 453.834L270.586 464.917C268.983 469.594 264.033 473.274 259.498 473.009C255.143 472.671 252.873 468.61 254.43 463.881ZM264.814 450.453C263.918 451.101 263.183 452.068 262.831 453.051L259.078 464.134C258.353 466.214 259.406 467.947 261.369 468.082C263.333 468.217 265.46 466.607 266.185 464.527L269.939 453.444C270.663 451.364 269.61 449.632 267.647 449.497C266.655 449.486 265.71 449.805 264.814 450.453Z" fill="url(#paint27_linear_864_379)"/>
<g opacity="0.35">
<path d="M258.481 462.913L262.234 451.83C262.586 450.847 263.321 449.881 264.217 449.232C265.113 448.584 266.17 448.254 267.05 448.276C268.359 448.366 269.246 449.224 269.482 450.314C269.026 449.803 268.415 449.531 267.648 449.497C266.722 449.424 265.711 449.805 264.815 450.454C263.919 451.102 263.184 452.068 262.832 453.052L259.079 464.135C258.837 464.828 258.775 465.447 258.938 466.044C258.255 465.277 258.019 464.186 258.481 462.913Z" fill="#26366F"/>
<path d="M259.081 471.715C263.504 471.991 268.499 468.362 270.169 463.622L273.923 452.539C274.559 450.635 274.565 448.851 274.077 447.34C275.085 449.021 275.377 451.277 274.52 453.76L270.767 464.843C269.164 469.521 264.214 473.2 259.679 472.936C256.994 472.818 255.085 471.229 254.343 469.019C255.327 470.535 256.96 471.54 259.081 471.715Z" fill="#26366F"/>
</g>
<path opacity="0.3" d="M266.926 447.173C265.462 447.322 263.823 448.101 262.573 449.455C261.746 450.319 261.236 451.262 260.817 452.308L260.071 454.502C260.071 454.502 259.829 455.195 259.609 455.775C259.478 456.179 259.075 456.554 258.692 456.537C258.241 456.583 257.922 456.225 258.075 455.708C259.042 452.934 259.305 452.127 259.305 452.127C259.941 450.223 261.256 448.529 262.981 447.295C264.459 446.197 266.079 445.81 267.16 445.645C267.611 445.599 267.93 445.957 267.844 446.411C267.712 446.815 267.377 447.128 266.926 447.173Z" fill="#575878"/>
<path opacity="0.3" d="M261.085 469.003C262.549 468.855 264.188 468.075 265.438 466.722C266.265 465.858 266.775 464.914 267.193 463.868L267.414 463.289C267.414 463.289 267.655 462.595 267.875 462.016C268.007 461.612 268.455 461.288 268.793 461.254C269.243 461.208 269.563 461.566 269.409 462.083C268.443 464.856 268.752 464.1 268.752 464.1C268.115 466.004 266.8 467.699 265.075 468.933C263.597 470.03 261.977 470.418 260.896 470.583C260.446 470.629 260.127 470.271 260.213 469.816C260.232 469.424 260.634 469.049 261.085 469.003Z" fill="#575878"/>
<g opacity="0.45">
<path d="M253.941 467.051C255.281 468.141 257.225 468.669 259.454 468.275L260.715 468.036C259.133 467.639 258.329 466.048 259.011 464.196L259.185 463.565C257.538 463.509 256.445 462.282 256.676 460.475C256.802 459.515 257.267 458.52 258.026 457.718C258.852 456.854 259.84 456.308 260.808 456.154L261.776 456L262.697 453.175C263.027 452.306 263.561 451.527 264.299 450.839L261.26 451.426C260.225 451.642 259.281 451.961 258.248 452.456C258.159 452.632 258.138 452.746 258.049 452.922L254.296 464.005C254.057 464.977 253.909 466.051 253.941 467.051Z" fill="#575878"/>
<path d="M270.72 464.791L271.949 461.21C271.657 461.296 271.41 461.432 271.072 461.466L266.907 462.168L266.139 464.475C265.744 465.686 264.762 466.789 263.662 467.347L270.057 466.252C270.301 465.837 270.5 465.371 270.72 464.791Z" fill="#575878"/>
<path d="M272.426 449.345L268.937 449.978C269.98 450.597 270.376 452.006 269.871 453.506L269.52 454.49L271.861 454.085C272.784 453.88 273.575 454.078 274.143 454.578L274.407 453.771C274.933 452.157 275.009 450.588 274.703 449.281C274.07 449.123 273.282 449.203 272.426 449.345Z" fill="#575878"/>
</g>
<path d="M254.577 326.414C256.168 325.305 256.917 323.39 256.228 322.066L247.456 305.064C246.768 303.741 244.984 303.531 243.393 304.64C242.631 305.164 242.052 305.891 241.789 306.698C241.48 307.454 241.488 308.29 241.809 308.926L250.514 325.99C251.203 327.314 253.054 327.46 254.577 326.414Z" fill="url(#paint28_linear_864_379)"/>
<path opacity="0.45" d="M254.577 326.414C256.168 325.305 256.917 323.39 256.228 322.066L247.456 305.064C246.768 303.741 244.984 303.531 243.393 304.64C242.631 305.164 242.052 305.891 241.789 306.698C241.48 307.454 241.488 308.29 241.809 308.926L250.514 325.99C251.203 327.314 253.054 327.46 254.577 326.414Z" fill="#9A9A9A"/>
<path opacity="0.3" d="M250.839 319.602C251.735 318.954 252.036 317.363 251.347 316.039L248.362 310.211C247.673 308.887 246.383 308.405 245.441 309.002C244.993 309.326 244.661 309.918 244.599 310.537C244.537 311.156 244.612 311.929 244.933 312.565L247.919 318.394C248.541 319.78 249.83 320.262 250.839 319.602Z" fill="#575878"/>
<path opacity="0.35" d="M252.602 322.545C253.431 321.959 254.032 321.118 254.295 320.311L245.891 303.997C246.59 304.093 247.135 304.428 247.456 305.064L254.253 318.197L255.816 321.327L256.228 322.066C256.917 323.389 256.168 325.305 254.577 326.414C252.986 327.523 251.203 327.314 250.514 325.99L248.539 322.122C249.228 323.445 251.078 323.592 252.602 322.545Z" fill="#26366F"/>
<path d="M264.718 354.871C266.333 353.927 267.24 352.051 266.686 350.602L259.931 332.281C259.422 330.883 257.727 330.498 256.045 331.505C255.238 331.977 254.612 332.654 254.237 333.472C253.861 334.291 253.823 335.075 254.078 335.773L260.832 354.095C261.408 355.43 263.103 355.815 264.718 354.871Z" fill="url(#paint29_linear_864_379)"/>
<path opacity="0.3" d="M261.742 347.537C262.729 346.991 263.097 345.337 262.588 343.939L260.297 337.651C259.788 336.253 258.587 335.595 257.599 336.141C257.106 336.414 256.773 337.005 256.599 337.636C256.424 338.267 256.499 339.039 256.753 339.738L259.044 346.027C259.599 347.476 260.8 348.134 261.742 347.537Z" fill="#575878"/>
<path opacity="0.35" d="M263.237 350.73C264.111 350.195 264.758 349.405 265.067 348.649L258.612 331.078C259.245 331.236 259.768 331.685 259.977 332.333L265.204 346.462L266.453 349.791L266.799 350.592C267.308 351.989 266.446 353.916 264.831 354.86C263.216 355.805 261.454 355.482 260.945 354.084L259.418 349.892C259.927 351.289 261.622 351.674 263.237 350.73Z" fill="#26366F"/>
<path d="M270.814 387.194C272.498 386.466 273.676 384.618 273.347 383.147L269.712 363.227C269.45 361.693 267.865 361.018 266.226 361.797C265.373 362.218 264.657 362.792 264.235 363.56C263.768 364.276 263.551 365.134 263.738 365.895L267.373 385.816C267.59 387.299 269.129 387.923 270.814 387.194Z" fill="url(#paint30_linear_864_379)"/>
<path opacity="0.8" d="M269.183 379.166C270.216 378.671 270.788 377.108 270.525 375.574L269.495 369.046C269.233 367.512 267.366 368.036 267.366 368.036C266.58 368.394 265.531 369.56 265.606 370.333L266.797 377.179C267.105 378.764 268.105 379.61 269.183 379.166Z" fill="#575878"/>
<path opacity="0.35" d="M270.005 382.705C270.903 382.335 271.596 381.596 272.084 380.766L268.637 361.607C269.248 361.88 269.658 362.34 269.733 363.113L272.514 378.493L273.156 382.107L273.322 382.982C273.585 384.516 272.474 386.301 270.789 387.029C269.105 387.757 267.565 387.133 267.303 385.599L266.495 381.111C266.735 382.758 268.32 383.434 270.005 382.705Z" fill="#26366F"/>
<path opacity="0.8" d="M269.153 368.523C269.791 369.238 269.554 370.488 268.682 371.302C267.811 372.115 266.571 372.24 265.933 371.525C265.295 370.809 265.532 369.559 266.404 368.746C267.276 367.933 268.515 367.807 269.153 368.523Z" fill="#575878"/>
<path d="M272.492 420.077C274.201 419.513 275.47 417.768 275.388 416.16L274.135 395.329C274.052 393.721 272.602 392.921 270.893 393.485C270.062 393.792 269.3 394.315 268.766 395.094C268.253 395.759 267.923 396.629 267.998 397.401L269.251 418.232C269.4 419.778 270.784 420.641 272.492 420.077Z" fill="url(#paint31_linear_864_379)"/>
<path opacity="0.3" d="M271.76 411.679C272.817 411.349 273.502 409.774 273.419 408.166L272.947 401.024C272.864 399.416 271.953 398.394 270.942 398.775C270.47 398.934 269.933 399.435 269.646 400.077C269.359 400.719 269.208 401.515 269.216 402.35L269.688 409.493C269.792 410.987 270.703 412.009 271.76 411.679Z" fill="#575878"/>
<path opacity="0.35" d="M272.223 415.366C273.167 415.047 273.884 414.473 274.418 413.694L273.218 393.75C273.762 394.085 274.151 394.658 274.113 395.443L275.097 411.563L275.313 415.387L275.366 416.273C275.449 417.881 274.179 419.627 272.471 420.19C270.762 420.754 269.311 419.953 269.229 418.345L268.96 413.635C269.085 415.016 270.515 415.93 272.223 415.366Z" fill="#26366F"/>
<path d="M266.051 455.289C267.741 455.118 269.351 453.617 269.673 451.912L274.002 429.901C274.325 428.197 273.231 426.97 271.541 427.141C270.753 427.221 269.9 427.642 269.229 428.268C268.558 428.893 268.137 429.661 267.919 430.519L263.59 452.529C263.268 454.234 264.362 455.461 266.051 455.289Z" fill="url(#paint32_linear_864_379)"/>
<path opacity="0.3" d="M267.525 446.334C268.539 446.231 269.585 444.787 269.954 443.133L271.439 435.569C271.762 433.864 271.231 432.58 270.218 432.683C269.721 432.678 269.139 433.127 268.761 433.667C268.315 434.27 268.007 435.026 267.789 435.884L266.303 443.448C265.981 445.153 266.511 446.437 267.525 446.334Z" fill="#575878"/>
<path opacity="0.35" d="M266.997 450.288C267.898 450.197 268.751 449.776 269.376 449.099L273.488 427.947C273.898 428.407 274.04 429.117 273.889 429.913L270.552 446.973L269.733 451.014L269.493 451.986C269.171 453.691 267.561 455.192 265.871 455.363C264.182 455.535 263.088 454.308 263.41 452.603L264.356 447.602C264.281 449.171 265.307 450.46 266.997 450.288Z" fill="#26366F"/>
<path d="M248.992 490.297C250.461 490.705 252.369 489.675 253.233 488.027L264.422 466.546C265.286 464.898 264.775 463.222 263.305 462.814C262.559 462.667 261.771 462.747 260.963 463.219C260.223 463.628 259.485 464.316 259.109 465.135L247.92 486.615C247.01 488.213 247.522 489.889 248.992 490.297Z" fill="url(#paint33_linear_864_379)"/>
<path opacity="0.3" d="M253.375 481.435C254.211 481.684 255.644 480.535 256.508 478.887L260.341 471.475C261.205 469.826 261.168 468.269 260.264 468.083C259.79 467.963 259.25 468.185 258.668 468.635C258.086 469.084 257.507 469.812 257.131 470.63L253.298 478.042C252.434 479.691 252.425 481.196 253.375 481.435Z" fill="#575878"/>
<path opacity="0.35" d="M251.517 485.413C252.308 485.612 253.163 485.469 253.971 484.997L264.672 464.346C264.835 464.943 264.73 465.79 264.309 466.557L255.645 483.155L253.629 487.094L253.119 488.037C252.255 489.686 250.348 490.716 248.878 490.307C247.409 489.899 246.897 488.223 247.761 486.575L250.287 481.692C249.535 483.329 250.047 485.005 251.517 485.413Z" fill="#26366F"/>
<path d="M248.424 276.974L171.924 313.474L172.424 309.974L139.924 312.474L106.924 304.474L97.4238 286.474L95.4238 268.974L80.9238 247.474L85.9238 307.474L113.424 315.474L109.424 319.474L147.424 330.474L193.924 318.474L177.424 330.474L211.424 315.474L260.924 290.474L280.924 243.474L264.424 177.974L236.924 150.974L188.924 143.974L236.924 159.474L248.424 181.474L250.924 175.974L264.424 222.974L257.424 254.974L256.424 228.974L248.424 276.974Z" fill="url(#paint34_linear_864_379)"/>
<path d="M236.778 495.28L239.456 486.048L243.786 484.614L251.816 488.575L250.556 502.232L241.659 501.723L236.778 495.28Z" fill="url(#paint35_linear_864_379)"/>
<path d="M167.148 485.091L167.5 474.729L171.707 473.286L179.528 477.334L177.944 485.485L169.691 490.656L167.148 485.091Z" fill="url(#paint36_linear_864_379)"/>
<path d="M128.491 259.373C128.369 260.46 128.974 266.336 130.293 267.423C131.513 267.138 131.961 267.541 132.587 267.408C133.127 267.293 133.68 267.205 134.212 267.063C135.66 266.674 137.021 265.836 138.448 265.363C139.389 265.051 140.149 263.524 140.92 262.883C141.506 262.395 141.71 261.647 142.262 261.154C142.734 260.733 144.554 257.508 144.8 256.932C146.266 253.5 147.291 252.357 147.838 248.62C148.325 245.289 150.305 242.063 149.745 238.576C149.605 237.709 149.769 236.812 149.581 235.924L149.052 233.438C148.721 231.879 148.463 230.281 148.054 228.742C147.668 227.287 146.937 225.91 146.214 224.58C145.369 223.022 144.962 221.114 143.96 219.618C143.327 218.671 142.946 217.182 142.487 216.133C141.892 214.773 141.424 213.25 140.91 211.849C140.068 209.553 139.264 207.14 138.24 204.932C137.375 203.064 136.707 200.866 136.114 198.899C135.453 196.704 132.822 191.502 132.091 189.393C132.305 190.616 131.874 197.723 131.884 198.954C131.905 201.739 131.792 204.316 131.257 207.082C130.945 208.7 130.966 210.355 130.699 211.976C130.484 213.277 130.347 214.736 130.322 216.054C130.261 219.247 130.131 222.47 130.803 225.634C132.419 233.236 133.801 241.829 131.294 249.36C130.708 251.121 130.226 253.011 129.719 254.803C129.286 256.335 128.671 257.782 128.491 259.373Z" fill="#C34FBC"/>
<path d="M158.295 277.732C158.323 277.735 158.35 277.737 158.377 277.74C158.365 277.758 158.337 277.755 158.295 277.732C156.979 277.606 154.828 276.882 153.761 276.189C153.207 275.829 152.367 275.585 151.705 275.449C150.288 275.157 148.924 274.986 147.515 274.541C145.343 273.854 143.199 273.272 141.128 272.289C139.903 271.707 138.755 271.055 137.451 270.661C136.371 270.335 135.283 270.302 134.224 269.848C132.769 269.223 131.006 268.843 130.294 267.424C131.513 267.138 131.824 267.373 132.45 267.24C132.989 267.125 133.592 267.225 134.125 267.082C135.573 266.694 136.933 265.855 138.361 265.382C139.301 265.07 140.062 263.543 140.832 262.902C141.419 262.414 141.623 261.666 142.175 261.173C142.647 260.752 144.467 257.527 144.713 256.951C145.449 258.091 146.93 260.085 147.481 261.322C148.442 263.479 149.911 265.36 151.014 267.445C152.256 269.792 153.407 272.236 155.123 274.289C155.392 274.611 157.8 277.471 158.295 277.732Z" fill="#832FA0"/>
<path d="M166.73 272.232C167.448 271.368 168.561 270.456 168.981 269.4C168.625 268.33 168 266.507 167.881 265.947C167.668 264.946 166.947 264.123 166.688 263.158C166.541 262.61 166.142 262.022 165.844 261.538C165.538 261.041 165.526 260.432 165.243 259.911C164.795 259.086 164.498 257.902 164.19 256.993C163.54 255.075 163.292 253.023 162.528 251.161C161.927 249.694 161.891 248.11 161.581 246.654C161.173 244.731 161.367 242.825 160.967 240.943C160.544 238.952 160.317 236.944 159.889 234.932C159.383 232.55 159.08 230.186 158.576 227.815C158.32 226.609 157.591 225.485 157.217 224.295C157.005 223.618 156.067 222.348 155.956 221.635C155.014 222.339 153.196 224.155 152.278 224.934C151.519 225.578 150.953 226.443 150.264 227.161C150.074 227.359 147.382 228.769 147.792 228.797C148.201 230.337 148.459 231.935 148.79 233.493L149.319 235.979C149.507 236.868 149.343 237.765 149.483 238.632C150.043 242.119 148.063 245.345 147.576 248.676C147.029 252.412 146.004 253.556 144.538 256.987C145.275 258.128 146.755 260.122 147.306 261.358C148.267 263.515 149.737 265.397 150.84 267.481C152.082 269.829 153.232 272.272 154.948 274.325C155.24 274.674 158.05 278.012 158.203 277.776C159.267 277.86 162.1 278.176 162.817 276.862C163.142 276.266 163.942 275.58 164.407 275.047C165.211 274.127 165.944 273.178 166.73 272.232Z" fill="#9440A2"/>
<path d="M160.018 223.655C159.715 222.226 159.687 221.116 159.352 219.541C158.811 218.284 156.03 221.107 155.634 221.403C155.745 222.116 156.683 223.386 156.896 224.063C157.269 225.253 157.998 226.376 158.254 227.583C158.758 229.953 159.061 232.317 159.567 234.699C159.995 236.711 160.222 238.72 160.645 240.711C161.045 242.592 160.851 244.498 161.259 246.421C161.569 247.878 161.605 249.462 162.206 250.928C162.97 252.791 163.218 254.843 163.868 256.76C164.176 257.67 164.473 258.853 164.921 259.679C165.204 260.2 165.216 260.809 165.522 261.306C165.821 261.789 166.219 262.378 166.366 262.925C166.625 263.89 167.346 264.714 167.559 265.715C167.678 266.275 168.547 268.573 168.904 269.642C169.761 267.489 170.189 264.81 170.995 262.652C171.397 261.576 171.464 260.337 171.823 259.234C172.146 258.24 172.482 257.069 172.653 256.037C172.949 254.262 173.516 252.365 173.137 250.582C172.664 248.354 171.408 246.401 170.459 244.355C169.558 242.412 168.711 240.446 167.739 238.559C166.939 237.006 166.469 235.299 165.606 233.749C164.57 231.888 163.533 230.051 162.434 228.227C161.52 226.712 160.399 225.445 160.018 223.655Z" fill="#8A3B96"/>
<path d="M138.178 193.863C137.187 193.309 132.971 190.162 132.09 189.393C132.822 191.502 135.19 196.76 135.851 198.955C136.444 200.922 137.112 203.12 137.977 204.988C139.001 207.196 139.805 209.609 140.647 211.905C141.161 213.306 141.629 214.829 142.224 216.189C142.683 217.238 143.064 218.727 143.697 219.674C144.699 221.17 145.106 223.078 145.951 224.636C146.674 225.966 147.405 227.343 147.791 228.797C149.307 229.085 150.073 227.359 150.264 227.161C150.952 226.443 151.518 225.578 152.278 224.934C153.196 224.156 155.014 222.339 155.955 221.635C156.351 221.34 159.138 220.341 159.407 219.804C158.827 218.735 158.728 217.048 157.871 216.139C157.01 215.226 156.175 214.362 155.398 213.389C154.048 211.695 152.658 210.077 151.512 208.218C150.455 206.503 149.009 205.403 147.705 203.942C146.352 202.426 144.97 200.893 143.534 199.42C142.323 198.178 141.343 196.687 140.018 195.57C139.344 195.003 138.968 194.304 138.178 193.863Z" fill="#C667BC"/>
<path d="M171.64 244.53C173.311 246.35 178.852 251.916 180.581 253.676L180.539 252.463L177.302 247.577C177.302 247.577 176.612 245.099 176.198 243.496C175.642 241.347 175.427 239.104 174.936 236.931C174.397 234.547 175.065 232.199 175.234 229.827C175.369 227.936 175.522 226.016 175.713 224.139C175.859 222.707 175.687 221.079 176.077 219.702C176.448 218.394 176.293 212.708 176.55 211.331C175.809 212.54 173.594 217.321 172.586 218.323C169.952 220.939 167.482 221.32 165.419 224.355C164.657 225.476 163.194 225.934 162.896 227.223C163.888 231.429 164.646 236.194 167.592 239.621C168.338 240.489 168.817 241.514 169.597 242.363C170.269 243.095 170.969 243.8 171.64 244.53Z" fill="#5A2373"/>
<path d="M187.955 245.869C188.877 242.503 189.035 238.973 189.876 235.57C190.203 235.631 189.295 228.51 189.051 227.661C188.889 227.096 188.901 226.467 188.499 225.88C187.347 224.199 186.341 222.379 185.262 220.648C184.693 219.736 184.119 218.822 183.573 217.906C182.996 216.94 182.014 216.229 181.398 215.28C180.771 214.314 179.64 213.149 178.672 212.542C177.658 211.905 177.006 211.578 175.974 210.924C175.717 212.301 176.112 218.166 175.741 219.475C175.351 220.852 175.523 222.48 175.377 223.912C175.187 225.789 175.033 227.708 174.899 229.6C174.73 231.972 174.062 234.32 174.6 236.703C175.091 238.877 175.307 241.12 175.862 243.269C176.276 244.872 177.197 248.279 177.197 248.279L177.203 248.289C177.89 249.409 180.221 252.42 180.581 253.675C181.588 254.559 183.344 255.516 183.83 256.823C183.992 257.259 185.767 259.773 185.962 259.46C186.394 258.77 186.039 257.755 186.163 257.011C186.304 256.162 186.401 255.311 186.56 254.46C187.095 251.589 187.18 248.696 187.955 245.869Z" fill="#772D81"/>
<path d="M159.817 214.72C160.736 218.932 161.911 223.047 162.896 227.222C163.195 225.933 164.758 225.755 165.52 224.633C167.583 221.598 169.732 221.503 172.366 218.886C173.374 217.885 174.371 216.374 175.112 215.165C175.905 213.871 176.134 212.74 176.389 211.279C176.658 209.74 176.43 208.161 176.32 206.628C176.187 204.779 175.188 202.976 175.005 201.138C174.796 199.04 173.989 197.074 173.649 194.994C173.349 193.156 173.161 191.206 172.65 189.425C171.665 185.99 171.247 182.408 170.251 178.932C168.244 171.932 164.615 163.571 162.617 156.602C162.234 160.418 162.171 164.392 161.417 168.206C160.578 172.452 160.83 176.747 160.14 180.983C159.617 184.188 160.238 187.774 160.241 191.018C160.244 194.112 159.921 197.188 159.827 200.276C159.75 202.807 159.528 205.372 159.647 207.909C159.752 210.154 159.331 212.491 159.817 214.72Z" fill="#903A8B"/>
<path d="M162.61 156.604C162.801 156.973 163.907 158.404 164.089 158.662C164.576 159.356 165.064 160.013 165.497 160.741C166.654 162.685 168.959 163.982 170.046 165.98C172.548 170.583 174.8 175.25 177.093 179.935C179.228 184.296 180.682 189.029 182.782 193.4C183.937 195.803 184.479 198.451 185.638 200.84C186.76 203.155 186.736 205.991 187.867 208.302C188.908 210.428 189.525 212.824 190.18 215.108C190.419 215.94 190.846 216.723 191.091 217.577C191.396 218.638 191.386 219.654 191.437 220.75C191.671 225.767 191.099 230.418 189.914 235.334C189.905 235.588 189.875 235.735 189.818 235.724C189.85 235.594 189.882 235.464 189.914 235.334C189.957 234.119 189.529 230.445 189.328 229.743C189.165 229.178 189.059 226.897 188.657 226.31C187.504 224.629 186.498 222.809 185.419 221.078C184.85 220.166 184.277 219.252 183.73 218.336C183.154 217.37 182.171 216.659 181.556 215.71C180.929 214.744 179.798 213.579 178.83 212.971C177.816 212.335 177.415 211.936 176.382 211.281C176.651 209.743 176.422 208.163 176.312 206.631C176.179 204.781 175.181 202.978 174.998 201.141C174.788 199.042 173.982 197.077 173.642 194.997C173.341 193.158 173.154 191.209 172.643 189.428C171.658 185.993 171.24 182.41 170.243 178.935C168.236 171.935 164.608 163.573 162.61 156.604Z" fill="#A5569D"/>
<path d="M179.014 267.872C177.982 268.881 175.172 270.859 173.949 271.634C173.555 271.831 172.034 265.946 171.623 265.288C171.236 264.669 171.306 263.721 171.117 263.035C170.922 262.328 170.621 261.472 170.6 260.74C170.578 259.983 170.608 258.73 170.373 258.052C170.148 257.406 170.44 256.609 170.186 256.006C169.697 254.843 170.042 253.065 170.042 251.809C170.042 249.702 170.653 248.122 171.065 246.145C172.798 243.979 184.576 232.303 186.445 230.214C187.721 230.214 188.972 229.953 190.212 229.953C191.627 229.953 193.429 229.618 194.677 228.905C195.095 229.208 195.685 230.019 196.102 230.55C196.778 231.41 196.948 231.356 197.586 232.251C199.818 235.375 205.163 237.296 204.828 241.994C203.344 244.153 201.127 246.131 199.293 247.964C197.508 249.75 195.654 251.417 193.857 253.215C190.887 256.185 188.065 259.192 185.112 262.146C184.002 263.256 182.687 264.171 181.701 265.412C180.908 266.41 179.913 266.992 179.014 267.872Z" fill="#7838AA"/>
<path d="M177.861 220.523C179.194 218.301 181.469 215.481 183.348 214.138C183.483 214.474 185.02 217.781 185.362 218.166L186.369 230.583C184.5 232.672 172.664 244.527 170.931 246.693C171.26 245.113 171.473 243.678 171.846 242.095C172.061 241.179 172.325 240.277 172.507 239.345C172.738 238.168 172.692 236.806 173.065 235.686C173.44 234.564 173.241 233.046 173.386 231.862C173.524 230.726 173.538 229.523 173.944 228.441C174.978 225.683 176.342 223.055 177.861 220.523Z" fill="#C34FBC"/>
<path d="M189.787 230.464C188.547 230.464 187.645 230.584 186.369 230.584L185.362 218.189C186.279 218.308 187.392 218.029 187.685 217.949C188.532 217.721 189.474 217.425 190.362 217.509C190.905 217.561 193.417 217.495 194.455 217.955C194.424 218.837 194.135 219.503 194.135 220.253C194.135 223.409 194.252 226.271 194.252 229.417C193.004 230.13 191.202 230.464 189.787 230.464Z" fill="#9440A2"/>
<path d="M206.519 240.065C205.785 240.834 205.432 241.115 204.828 241.994C202.109 239.275 199.395 235.766 197.163 232.641C196.524 231.747 196.354 231.801 195.678 230.941C195.261 230.41 194.505 229.879 194.088 229.576C194.088 226.431 194.137 223.288 194.137 220.132C194.137 219.383 193.903 218.388 194.457 217.834C195.366 216.925 196.202 215.759 196.871 214.663C197.776 213.182 198.759 211.901 199.504 210.329C200.234 208.787 200.903 207.456 201.875 206.052C202.939 204.515 204.968 201.228 204.968 199.371C205.727 202.595 207.405 206.188 209.62 208.663C210.272 209.393 210.296 211.03 210.457 211.93C210.682 213.193 210.922 214.479 210.922 215.764C210.922 217.497 210.954 219.252 210.726 220.964C210.232 224.663 210.123 228.478 209.289 232.127C208.813 234.208 209.037 236.27 208.121 238.256C207.829 238.888 207.007 239.554 206.519 240.065Z" fill="#8A3B96"/>
<path d="M203.476 194.383C203.852 196.188 204.639 197.908 205.058 199.685C205.058 201.542 203.029 204.829 201.964 206.366C200.993 207.77 200.324 209.101 199.594 210.643C198.849 212.215 197.866 213.496 196.961 214.977C196.291 216.073 195.455 217.239 194.546 218.148C194.546 218.668 190.996 217.754 190.453 217.703C189.565 217.618 188.623 217.914 187.776 218.143C187.483 218.222 186.37 218.501 185.453 218.382C185.111 217.998 183.295 214.166 183.35 214.138C185.526 212.255 187.265 209.806 189.533 208.006C191.232 206.657 192.529 204.612 193.719 202.827C194.942 200.993 196.332 199.288 197.533 197.432C198.634 195.73 199.502 193.855 200.406 192.047C200.576 191.708 201.446 189.411 201.853 190.103C202.534 191.261 203.204 193.078 203.476 194.383Z" fill="#C667BC"/>
<path d="M124.924 271.474C151.197 288.536 188.832 282.299 206.54 255.032C215.401 241.387 220.737 225.54 220.564 210.974C218.781 192.278 215.279 186.178 206.924 178.974C209.662 190.481 209.367 230.182 201.604 240.925C163.309 287.69 98.6504 254.412 124.924 271.474Z" fill="#4E3B21"/>
<path d="M197 376.262L156 380.762L125 375.262L132 380.762L161 387.762L197 376.262Z" fill="url(#paint37_linear_864_379)"/>
<path d="M302.663 342.327L313.849 302.627L330.562 275.945L322.84 280.375L305.486 304.641L302.663 342.327Z" fill="url(#paint38_linear_864_379)"/>
</g>
<defs>
<radialGradient id="paint0_radial_864_379" cx="0" cy="0" r="1" gradientUnits="userSpaceOnUse" gradientTransform="translate(186.487 487.747) rotate(67.0387) scale(78.4424 147.721)">
<stop stop-color="#A08464"/>
<stop offset="1" stop-color="#645143"/>
</radialGradient>
<linearGradient id="paint1_linear_864_379" x1="179.056" y1="488.894" x2="166.978" y2="470.839" gradientUnits="userSpaceOnUse">
<stop stop-color="#493A48"/>
<stop offset="1" stop-color="#706D75"/>
</linearGradient>
<linearGradient id="paint2_linear_864_379" x1="100.586" y1="271.332" x2="108.134" y2="242.849" gradientUnits="userSpaceOnUse">
<stop stop-color="#706D75"/>
<stop offset="1" stop-color="#B8B2BF"/>
</linearGradient>
<linearGradient id="paint3_linear_864_379" x1="95.5927" y1="308.252" x2="98.6748" y2="279.023" gradientUnits="userSpaceOnUse">
<stop stop-color="#706D75"/>
<stop offset="1" stop-color="#B8B2BF"/>
</linearGradient>
<linearGradient id="paint4_linear_864_379" x1="86.485" y1="325.104" x2="105.698" y2="334.684" gradientUnits="userSpaceOnUse">
<stop stop-color="#706D75"/>
<stop offset="1" stop-color="#B8B2BF"/>
</linearGradient>
<linearGradient id="paint5_linear_864_379" x1="100.49" y1="380.118" x2="94.9418" y2="351.72" gradientUnits="userSpaceOnUse">
<stop stop-color="#706D75"/>
<stop offset="1" stop-color="#B8B2BF"/>
</linearGradient>
<linearGradient id="paint6_linear_864_379" x1="111.643" y1="415.319" x2="99.9047" y2="389.489" gradientUnits="userSpaceOnUse">
<stop stop-color="#706D75"/>
<stop offset="1" stop-color="#B8B2BF"/>
</linearGradient>
<linearGradient id="paint7_linear_864_379" x1="130.579" y1="444.967" x2="114.436" y2="422.259" gradientUnits="userSpaceOnUse">
<stop stop-color="#706D75"/>
<stop offset="1" stop-color="#B8B2BF"/>
</linearGradient>
<linearGradient id="paint8_linear_864_379" x1="157.398" y1="468.691" x2="136.37" y2="451.395" gradientUnits="userSpaceOnUse">
<stop stop-color="#706D75"/>
<stop offset="1" stop-color="#B8B2BF"/>
</linearGradient>
<linearGradient id="paint9_linear_864_379" x1="104.519" y1="255.125" x2="112.967" y2="226.895" gradientUnits="userSpaceOnUse">
<stop stop-color="#706D75"/>
<stop offset="1" stop-color="#B8B2BF"/>
</linearGradient>
<linearGradient id="paint10_linear_864_379" x1="97.6946" y1="290.131" x2="103.045" y2="261.178" gradientUnits="userSpaceOnUse">
<stop stop-color="#706D75"/>
<stop offset="1" stop-color="#B8B2BF"/>
</linearGradient>
<linearGradient id="paint11_linear_864_379" x1="95.8779" y1="327.481" x2="95.9051" y2="298.206" gradientUnits="userSpaceOnUse">
<stop stop-color="#706D75"/>
<stop offset="1" stop-color="#B8B2BF"/>
</linearGradient>
<linearGradient id="paint12_linear_864_379" x1="97.9874" y1="363.304" x2="94.6619" y2="334.405" gradientUnits="userSpaceOnUse">
<stop stop-color="#706D75"/>
<stop offset="1" stop-color="#B8B2BF"/>
</linearGradient>
<linearGradient id="paint13_linear_864_379" x1="105.447" y1="398.622" x2="97.6488" y2="370.948" gradientUnits="userSpaceOnUse">
<stop stop-color="#706D75"/>
<stop offset="1" stop-color="#B8B2BF"/>
</linearGradient>
<linearGradient id="paint14_linear_864_379" x1="121.985" y1="430.038" x2="105.969" y2="407.221" gradientUnits="userSpaceOnUse">
<stop stop-color="#706D75"/>
<stop offset="1" stop-color="#B8B2BF"/>
</linearGradient>
<linearGradient id="paint15_linear_864_379" x1="145.531" y1="456.345" x2="124.569" y2="438.956" gradientUnits="userSpaceOnUse">
<stop stop-color="#706D75"/>
<stop offset="1" stop-color="#B8B2BF"/>
</linearGradient>
<linearGradient id="paint16_linear_864_379" x1="172.16" y1="479.842" x2="150.176" y2="463.984" gradientUnits="userSpaceOnUse">
<stop stop-color="#706D75"/>
<stop offset="1" stop-color="#B8B2BF"/>
</linearGradient>
<linearGradient id="paint17_linear_864_379" x1="214.924" y1="340.69" x2="214.924" y2="500.69" gradientUnits="userSpaceOnUse">
<stop offset="0.275" stop-color="#C1B58F"/>
<stop offset="1" stop-color="#A59870"/>
</linearGradient>
<linearGradient id="paint18_linear_864_379" x1="269.425" y1="67.9741" x2="392.066" y2="191.835" gradientUnits="userSpaceOnUse">
<stop stop-color="#A59870"/>
<stop offset="0.264157" stop-color="#C1B58F"/>
<stop offset="1" stop-color="#A59870"/>
</linearGradient>
<linearGradient id="paint19_linear_864_379" x1="210.706" y1="455.053" x2="215.142" y2="518.491" gradientUnits="userSpaceOnUse">
<stop stop-color="#908564"/>
<stop offset="1" stop-color="#9D967F"/>
</linearGradient>
<radialGradient id="paint20_radial_864_379" cx="0" cy="0" r="1" gradientUnits="userSpaceOnUse" gradientTransform="translate(180.576 249.385) rotate(78.8271) scale(169.518 168.946)">
<stop stop-color="#A08464"/>
<stop offset="1" stop-color="#645143"/>
</radialGradient>
<linearGradient id="paint21_linear_864_379" x1="247.55" y1="291.531" x2="239.086" y2="314.316" gradientUnits="userSpaceOnUse">
<stop stop-color="#493A48"/>
<stop offset="1" stop-color="#706D75"/>
</linearGradient>
<linearGradient id="paint22_linear_864_379" x1="245.617" y1="503.534" x2="242.414" y2="481.36" gradientUnits="userSpaceOnUse">
<stop stop-color="#878A9C"/>
<stop offset="1" stop-color="#706D75"/>
</linearGradient>
<linearGradient id="paint23_linear_864_379" x1="260.107" y1="339.225" x2="246.693" y2="318.956" gradientUnits="userSpaceOnUse">
<stop stop-color="#706D75"/>
<stop offset="1" stop-color="#B8B2BF"/>
</linearGradient>
<linearGradient id="paint24_linear_864_379" x1="269.061" y1="369.924" x2="257.39" y2="348.15" gradientUnits="userSpaceOnUse">
<stop stop-color="#706D75"/>
<stop offset="1" stop-color="#B8B2BF"/>
</linearGradient>
<linearGradient id="paint25_linear_864_379" x1="272.707" y1="402.675" x2="263.439" y2="379.035" gradientUnits="userSpaceOnUse">
<stop stop-color="#706D75"/>
<stop offset="1" stop-color="#B8B2BF"/>
</linearGradient>
<linearGradient id="paint26_linear_864_379" x1="271.732" y1="436.159" x2="264.982" y2="410.856" gradientUnits="userSpaceOnUse">
<stop stop-color="#706D75"/>
<stop offset="1" stop-color="#B8B2BF"/>
</linearGradient>
<linearGradient id="paint27_linear_864_379" x1="259.707" y1="472.929" x2="261.336" y2="444.25" gradientUnits="userSpaceOnUse">
<stop stop-color="#706D75"/>
<stop offset="1" stop-color="#B8B2BF"/>
</linearGradient>
<linearGradient id="paint28_linear_864_379" x1="254.593" y1="326.38" x2="240.777" y2="306.473" gradientUnits="userSpaceOnUse">
<stop stop-color="#706D75"/>
<stop offset="1" stop-color="#B8B2BF"/>
</linearGradient>
<linearGradient id="paint29_linear_864_379" x1="264.762" y1="354.851" x2="252.347" y2="333.705" gradientUnits="userSpaceOnUse">
<stop stop-color="#706D75"/>
<stop offset="1" stop-color="#B8B2BF"/>
</linearGradient>
<linearGradient id="paint30_linear_864_379" x1="270.84" y1="387.179" x2="260.709" y2="364.179" gradientUnits="userSpaceOnUse">
<stop stop-color="#706D75"/>
<stop offset="1" stop-color="#B8B2BF"/>
</linearGradient>
<linearGradient id="paint31_linear_864_379" x1="272.515" y1="420.043" x2="264.302" y2="395.67" gradientUnits="userSpaceOnUse">
<stop stop-color="#706D75"/>
<stop offset="1" stop-color="#B8B2BF"/>
</linearGradient>
<linearGradient id="paint32_linear_864_379" x1="266.036" y1="455.276" x2="263.445" y2="427.896" gradientUnits="userSpaceOnUse">
<stop stop-color="#706D75"/>
<stop offset="1" stop-color="#B8B2BF"/>
</linearGradient>
<linearGradient id="paint33_linear_864_379" x1="249" y1="490.25" x2="256.96" y2="461.056" gradientUnits="userSpaceOnUse">
<stop stop-color="#706D75"/>
<stop offset="1" stop-color="#B8B2BF"/>
</linearGradient>
<linearGradient id="paint34_linear_864_379" x1="109.424" y1="132.474" x2="257.424" y2="330.974" gradientUnits="userSpaceOnUse">
<stop stop-color="#79634C"/>
<stop offset="1" stop-color="#77604B"/>
</linearGradient>
<linearGradient id="paint35_linear_864_379" x1="243.786" y1="484.614" x2="245.045" y2="502.617" gradientUnits="userSpaceOnUse">
<stop stop-color="#A35CAB"/>
<stop offset="1" stop-color="#77457D"/>
</linearGradient>
<linearGradient id="paint36_linear_864_379" x1="172.778" y1="473.211" x2="173.977" y2="490.357" gradientUnits="userSpaceOnUse">
<stop stop-color="#A35CAB"/>
<stop offset="1" stop-color="#77457D"/>
</linearGradient>
<linearGradient id="paint37_linear_864_379" x1="159.5" y1="376.262" x2="162" y2="401.262" gradientUnits="userSpaceOnUse">
<stop stop-color="#665343"/>
<stop offset="1" stop-color="#624F40"/>
</linearGradient>
<linearGradient id="paint38_linear_864_379" x1="316.71" y1="307.558" x2="295.5" y2="300.762" gradientUnits="userSpaceOnUse">
<stop stop-color="#5C4A3D"/>
<stop offset="1" stop-color="#5C4A3C"/>
</linearGradient>
<clipPath id="clip0_864_379">
<rect width="520" height="560" fill="white"/>
</clipPath>
</defs>
</svg>
