<svg width="520" height="560" viewBox="0 0 520 560" fill="none" xmlns="http://www.w3.org/2000/svg">
<g clip-path="url(#clip0_864_1267)">
<ellipse cx="126" cy="59.5" rx="126" ry="59.5" transform="matrix(-1 0 0 1 430.076 440.712)" fill="url(#paint0_radial_864_1267)"/>
<path d="M392.583 217.811C392.853 216.803 394.141 216.29 395.437 216.824C396.696 217.282 397.572 218.523 397.302 219.531L397.272 219.643C396.807 221.808 397.068 224.053 398.117 226.156C400.438 230.811 405.816 232.648 410.065 230.326C411.211 229.699 412.208 228.772 412.927 227.806C413.444 226.95 414.748 226.811 415.916 227.605C417.085 228.4 417.654 229.713 417.174 230.644C417.174 230.644 417.174 230.644 417.107 230.681C415.937 232.466 414.379 233.987 412.423 235.056C405.747 238.705 397.432 235.797 393.838 228.59C392.041 224.986 391.72 221.244 392.583 217.811Z" fill="#8E8B97"/>
<path opacity="0.25" d="M397.234 219.567C396.829 221.509 396.979 223.529 397.78 225.48C397.667 225.255 397.555 225.029 397.48 224.879C396.582 223.077 396.245 219.821 396.853 217.77C397.175 218.071 397.519 218.934 397.234 219.567Z" fill="#46395B"/>
<path opacity="0.25" d="M411.862 233.929C413.682 232.934 414.941 231.673 416.193 230.224C416.523 229.853 416.882 229.37 417.107 228.96C417.294 229.336 417.391 230.047 417.137 230.568C415.968 232.354 414.341 233.912 412.386 234.98C405.71 238.63 397.395 235.722 393.801 228.514C393.614 228.139 393.427 227.763 393.344 227.426C397.111 233.775 404.377 238.021 411.862 233.929Z" fill="#46395B"/>
<path opacity="0.3" d="M394.064 223.88C394.476 223.846 394.971 224.149 395.09 224.561C395.248 225.049 395.405 225.536 395.629 225.986C397.059 229.026 399.591 231.178 402.415 232.023C402.835 232.176 403.127 232.589 403.044 233.112C402.999 233.71 402.46 234.005 401.973 233.889C398.624 232.853 395.598 230.398 393.974 226.796C393.712 226.27 393.517 225.708 393.322 225.146C393.128 224.583 393.517 223.988 394.064 223.88Z" fill="#9C8C9A"/>
<path d="M339.939 466.514C338.98 466.792 338.471 468.155 338.788 469.56C339.105 470.965 340.184 471.988 341.144 471.709C341.216 471.681 341.216 471.681 341.288 471.654C343.261 471.255 345.407 471.599 347.223 472.878C351.321 475.615 352.599 481.5 350.168 486.026C349.533 487.257 348.647 488.226 347.607 488.985C346.8 489.474 346.561 490.913 347.237 492.18C347.841 493.475 349.054 494.176 349.933 493.66C349.933 493.66 349.933 493.66 350.004 493.632C351.707 492.44 353.247 490.771 354.338 488.736C358.183 481.692 356.108 472.52 349.699 468.245C346.599 466.292 343.187 465.806 339.939 466.514Z" fill="url(#paint1_linear_864_1267)"/>
<path opacity="0.25" d="M341.287 471.654C343.046 471.338 344.994 471.578 346.701 472.539C346.504 472.435 346.351 472.224 346.153 472.121C344.562 471.025 341.563 470.56 339.644 471.117C339.95 471.538 340.669 471.981 341.287 471.654Z" fill="#46395B"/>
<path opacity="0.25" d="M353.421 488.189C352.375 490.117 351.139 491.49 349.679 492.679C349.231 493.031 348.855 493.355 348.451 493.599C348.775 493.834 349.385 493.959 349.932 493.659C351.635 492.467 353.175 490.798 354.338 488.735C358.182 481.692 356.108 472.52 349.699 468.245C349.375 468.01 349.079 467.854 348.684 467.647C354.303 472.225 357.722 480.342 353.421 488.189Z" fill="#46395B"/>
<path opacity="0.3" d="M345.463 468.434C345.383 468.914 345.618 469.363 346.013 469.57C346.408 469.777 346.875 469.957 347.271 470.165C349.949 471.831 351.723 474.652 352.322 477.835C352.413 478.339 352.835 478.625 353.248 478.647C353.805 478.613 354.127 478.13 354.009 477.546C353.319 473.86 351.283 470.51 348.084 468.506C347.59 468.246 347.096 467.987 346.601 467.728C346.179 467.441 345.587 467.848 345.463 468.434Z" fill="#575878"/>
<path opacity="0.45" d="M339.939 466.514C338.98 466.792 338.471 468.155 338.788 469.56C339.105 470.965 340.184 471.988 341.144 471.709C341.216 471.681 341.216 471.681 341.288 471.654C343.261 471.255 345.407 471.599 347.223 472.878C351.321 475.615 352.599 481.5 350.168 486.026C349.533 487.257 348.647 488.226 347.607 488.985C346.8 489.474 346.561 490.913 347.237 492.18C347.841 493.475 349.054 494.176 349.933 493.66C349.933 493.66 349.933 493.66 350.004 493.632C351.707 492.44 353.247 490.771 354.338 488.736C358.183 481.692 356.108 472.52 349.699 468.245C346.599 466.292 343.187 465.806 339.939 466.514Z" fill="#BEBEBE"/>
<path d="M419.403 271.083C423.733 269.958 426.229 265.154 424.972 260.395L421.978 249.229C420.721 244.47 416.159 241.517 411.829 242.642C409.784 243.187 408.045 244.519 406.989 246.53C405.864 248.578 405.616 251.006 406.26 253.33L409.254 264.497C410.444 269.292 415.005 272.245 419.403 271.083ZM413.124 247.476C415.034 247.005 417.049 248.292 417.581 250.391L420.574 261.557C421.106 263.655 420.019 265.778 418.108 266.249C416.198 266.72 414.183 265.433 413.652 263.335L410.658 252.168C410.411 251.156 410.471 250.073 410.988 249.217C411.468 248.286 412.202 247.693 413.124 247.476Z" fill="url(#paint2_linear_864_1267)"/>
<g opacity="0.35">
<path d="M412.411 262.39L409.417 251.223C409.17 250.212 409.231 249.128 409.748 248.272C410.197 247.453 410.999 246.823 411.883 246.531C413.179 246.205 414.438 246.664 415.374 247.681C414.707 247.376 413.876 247.257 413.127 247.476C412.205 247.693 411.471 248.285 410.991 249.216C410.511 250.147 410.414 251.156 410.661 252.168L413.654 263.335C413.819 264.009 414.186 264.573 414.62 265.1C413.602 264.605 412.703 263.664 412.411 262.39Z" fill="#26366F"/>
<path d="M418.095 270.175C422.426 269.05 424.922 264.247 423.664 259.488L420.671 248.321C420.147 246.41 419.083 244.794 417.795 243.587C419.772 244.799 421.33 246.718 421.981 249.229L424.975 260.395C426.232 265.154 423.736 269.958 419.406 271.083C416.814 271.736 414.132 271.004 412.132 269.231C413.863 270.291 416.05 270.72 418.095 270.175Z" fill="#26366F"/>
</g>
<path opacity="0.3" d="M411.049 245.553C409.73 246.178 408.711 247.404 408.291 248.971C408.021 249.978 408.133 251.064 408.38 252.075L408.949 254.249C408.949 254.249 409.151 254.998 409.308 255.485C409.428 255.898 409.203 256.307 408.866 256.491C408.424 256.637 407.967 256.41 407.81 255.922C407.047 253.186 406.874 252.325 406.874 252.325C406.351 250.414 406.583 248.471 407.445 246.758C408.18 245.306 409.491 244.493 410.368 244.014C410.772 243.793 411.267 244.096 411.386 244.508C411.611 244.959 411.424 245.443 411.049 245.553Z" fill="#575878"/>
<path opacity="0.3" d="M418.385 267.149C419.704 266.524 420.723 265.298 421.143 263.731C421.413 262.723 421.301 261.638 421.054 260.626L420.927 260.027C420.927 260.027 420.725 259.278 420.567 258.79C420.448 258.378 420.673 257.968 421.01 257.784C421.452 257.638 421.909 257.866 422.066 258.353C422.829 261.089 422.56 260.377 422.56 260.377C423.084 262.288 422.851 264.23 421.989 265.943C421.254 267.396 419.943 268.208 419.067 268.687C418.662 268.909 418.168 268.606 418.048 268.193C417.891 267.706 418.011 267.258 418.385 267.149Z" fill="#575878"/>
<path d="M424.353 308.028C428.848 307.577 431.913 303.227 431.27 298.323L429.782 286.907C429.139 282.003 424.967 278.455 420.472 278.906C418.345 279.113 416.427 280.257 415.153 282.005C413.849 283.864 413.219 286.215 413.555 288.611L415.043 300.027C415.716 304.819 419.925 308.442 424.353 308.028ZM421.153 283.885C423.108 283.676 424.928 285.26 425.22 287.394L426.708 298.811C426.999 300.944 425.628 302.841 423.672 303.049C421.717 303.258 419.897 301.673 419.605 299.54L418.118 288.123C417.938 287.075 418.208 286.067 418.83 285.25C419.452 284.432 420.224 283.915 421.153 283.885Z" fill="url(#paint3_linear_864_1267)"/>
<g opacity="0.35">
<path d="M418.527 298.41L417.039 286.993C416.859 285.945 417.129 284.937 417.751 284.119C418.306 283.339 419.182 282.859 420.074 282.754C421.377 282.615 422.643 283.261 423.377 284.388C422.741 283.972 421.976 283.816 421.22 283.848C420.328 283.953 419.452 284.432 418.897 285.213C418.275 286.031 418.073 287.001 418.185 288.087L419.672 299.503C419.77 300.214 420.069 300.815 420.436 301.379C419.41 300.698 418.646 299.682 418.527 298.41Z" fill="#26366F"/>
<path d="M423.207 306.935C427.702 306.484 430.767 302.133 430.124 297.23L428.636 285.813C428.352 283.867 427.558 282.103 426.367 280.747C428.15 282.257 429.475 284.399 429.782 286.907L431.27 298.323C431.913 303.227 428.848 307.577 424.353 308.028C421.678 308.343 419.079 307.089 417.311 305.093C418.982 306.378 421.079 307.142 423.207 306.935Z" fill="#26366F"/>
</g>
<path opacity="0.3" d="M419.378 281.701C417.947 282.102 416.815 283.102 416.223 284.668C415.848 285.637 415.751 286.646 415.863 287.731L416.124 289.977C416.124 289.977 416.221 290.688 416.281 291.324C416.334 291.773 416.071 292.108 415.697 292.217C415.255 292.363 414.828 292.023 414.738 291.499C414.349 288.654 414.244 287.756 414.244 287.756C413.96 285.809 414.47 283.906 415.512 282.381C416.426 281.117 417.88 280.418 418.764 280.126C419.206 279.98 419.7 280.283 419.79 280.807C419.977 281.183 419.752 281.592 419.378 281.701Z" fill="#575878"/>
<path opacity="0.3" d="M423.882 303.986C425.313 303.586 426.444 302.585 427.037 301.019C427.411 300.05 427.509 299.041 427.397 297.956L427.337 297.32C427.337 297.32 427.24 296.609 427.18 295.973C427.128 295.523 427.39 295.189 427.765 295.08C428.207 294.934 428.634 295.274 428.723 295.798C429.112 298.643 428.978 297.856 428.978 297.856C429.262 299.803 428.752 301.706 427.71 303.231C426.796 304.495 425.342 305.194 424.458 305.486C424.016 305.632 423.522 305.329 423.432 304.805C423.35 304.468 423.507 304.095 423.882 303.986Z" fill="#575878"/>
<path d="M424.051 344.597C428.575 344.894 432.247 341.072 432.293 336.174L432.319 324.694C432.365 319.796 428.65 315.616 424.126 315.319C421.983 315.152 419.915 315.996 418.357 317.517C416.768 319.149 415.891 321.349 415.883 323.742L415.857 335.221C415.849 340.194 419.563 344.374 424.051 344.597ZM424.087 320.404C426.02 320.494 427.645 322.376 427.659 324.471L427.634 335.95C427.648 338.044 425.992 339.714 424.059 339.624C422.127 339.533 420.501 337.651 420.487 335.557L420.512 324.078C420.505 323.03 420.88 322.061 421.577 321.394C422.274 320.726 423.188 320.322 424.087 320.404Z" fill="url(#paint4_linear_864_1267)"/>
<g opacity="0.35">
<path d="M419.506 334.278L419.531 322.798C419.524 321.751 419.899 320.782 420.595 320.115C421.292 319.447 422.139 319.08 423.105 319.125C424.416 319.173 425.555 320.079 426.221 321.243C425.615 320.715 424.948 320.411 424.154 320.367C423.187 320.322 422.341 320.689 421.644 321.357C420.947 322.024 420.572 322.994 420.579 324.041L420.554 335.52C420.546 336.193 420.711 336.867 421.01 337.468C420.119 336.713 419.52 335.512 419.506 334.278Z" fill="#26366F"/>
<path d="M423.069 343.317C427.594 343.615 431.266 339.793 431.312 334.895L431.337 323.415C431.293 321.433 430.739 319.634 429.713 318.093C431.331 319.788 432.319 322.114 432.318 324.694L432.293 336.174C432.247 341.072 428.642 344.857 424.05 344.597C421.323 344.463 418.986 342.874 417.414 340.58C418.926 342.238 420.896 343.263 423.069 343.317Z" fill="#26366F"/>
</g>
<path opacity="0.3" d="M422.611 317.961C421.173 318.174 419.862 318.987 419.09 320.364C418.573 321.22 418.34 322.303 418.347 323.35L418.332 325.556C418.332 325.556 418.362 326.304 418.316 326.902C418.331 327.276 418.002 327.647 417.657 327.644C417.178 327.715 416.781 327.264 416.796 326.778C416.751 323.935 416.819 323.038 416.819 323.038C416.812 321.131 417.532 319.305 418.858 318.007C419.915 316.856 421.451 316.494 422.372 316.277C422.852 316.206 423.211 316.583 423.301 317.107C423.286 317.593 423.023 317.927 422.611 317.961Z" fill="#575878"/>
<path opacity="0.3" d="M424.096 340.559C425.535 340.346 426.846 339.534 427.618 338.156C428.135 337.3 428.368 336.218 428.36 335.171L428.405 334.573C428.405 334.573 428.376 333.825 428.421 333.227C428.406 332.853 428.736 332.481 429.08 332.484C429.56 332.413 429.957 332.865 429.942 333.351C429.986 336.193 429.956 335.445 429.956 335.445C429.963 337.352 429.243 339.179 427.917 340.477C426.86 341.628 425.324 341.989 424.403 342.206C423.924 342.277 423.564 341.901 423.474 341.376C423.459 341.002 423.789 340.631 424.096 340.559Z" fill="#575878"/>
<path d="M419.494 379.859C423.974 380.754 428.117 377.534 428.718 372.715L430.129 361.434C430.73 356.615 427.547 351.953 423.067 351.057C420.947 350.592 418.797 351.098 417.059 352.431C415.253 353.8 414.129 355.848 413.843 358.201L412.432 369.483C411.832 374.302 415.014 378.963 419.494 379.859ZM422.437 355.988C424.415 356.34 425.77 358.37 425.545 360.5L424.133 371.781C423.908 373.911 422.102 375.28 420.125 374.928C418.147 374.576 416.791 372.546 417.017 370.416L418.428 359.135C418.593 358.089 419.073 357.158 419.845 356.641C420.579 356.048 421.5 355.831 422.437 355.988Z" fill="url(#paint5_linear_864_1267)"/>
<g opacity="0.35">
<path d="M416.133 368.988L417.545 357.706C417.71 356.661 418.19 355.73 418.961 355.212C419.696 354.62 420.617 354.403 421.591 354.635C422.909 354.869 423.951 355.925 424.415 357.2C423.875 356.635 423.239 356.218 422.475 356.063C421.538 355.906 420.617 356.123 419.845 356.64C419.111 357.233 418.526 358.125 418.428 359.134L417.017 370.416C416.942 371.125 417.002 371.762 417.234 372.399C416.44 371.495 416.013 370.295 416.133 368.988Z" fill="#26366F"/>
<path d="M418.611 378.431C423.09 379.326 427.234 376.106 427.834 371.287L429.246 360.005C429.479 358.063 429.127 356.153 428.303 354.501C429.689 356.419 430.407 358.893 430.092 361.358L428.681 372.64C428.08 377.458 423.936 380.679 419.457 379.783C416.782 379.239 414.573 377.389 413.337 374.911C414.685 376.754 416.528 378.04 418.611 378.431Z" fill="#26366F"/>
</g>
<path opacity="0.3" d="M421.231 353.398C419.748 353.349 418.362 354.011 417.342 355.237C416.72 356.055 416.346 357.024 416.248 358.033L415.955 360.199C415.955 360.199 415.88 360.909 415.835 361.507C415.783 361.918 415.483 362.178 415.071 362.212C414.621 362.171 414.224 361.719 414.307 361.196C414.607 358.357 414.712 357.535 414.712 357.535C414.945 355.592 415.949 353.992 417.351 352.844C418.587 351.882 420.13 351.707 421.127 351.64C421.576 351.681 421.936 352.058 421.921 352.544C421.943 353.105 421.576 353.401 421.231 353.398Z" fill="#575878"/>
<path opacity="0.3" d="M419.989 375.861C421.473 375.911 422.859 375.248 423.878 374.023C424.5 373.205 424.875 372.236 424.972 371.227L425.085 370.592C425.085 370.592 425.16 369.882 425.205 369.284C425.258 368.873 425.557 368.614 425.969 368.58C426.419 368.621 426.816 369.073 426.733 369.595C426.433 372.435 426.471 371.65 426.471 371.65C426.238 373.593 425.234 375.192 423.832 376.341C422.596 377.303 421.053 377.478 420.056 377.545C419.607 377.504 419.247 377.127 419.262 376.641C419.278 376.155 419.645 375.859 419.989 375.861Z" fill="#575878"/>
<path d="M408.286 415.031C412.533 417.009 417.238 414.915 418.85 410.403L422.531 399.888C424.143 395.376 421.972 390.161 417.724 388.183C415.724 387.27 413.484 387.252 411.551 388.022C409.483 388.866 407.932 390.574 407.16 392.811L403.479 403.327C401.867 407.839 404.076 413.128 408.286 415.031ZM416.15 392.77C418.008 393.57 418.928 395.933 418.246 397.835L414.565 408.35C413.92 410.327 411.785 411.208 409.995 410.371C408.137 409.571 407.216 407.208 407.899 405.306L411.58 394.791C411.954 393.821 412.614 393.079 413.46 392.711C414.307 392.344 415.274 392.389 416.15 392.77Z" fill="url(#paint6_linear_864_1267)"/>
<g opacity="0.35">
<path d="M407.323 403.805L411.004 393.29C411.379 392.321 412.038 391.578 412.885 391.211C413.731 390.844 414.698 390.889 415.574 391.269C416.803 391.84 417.679 393.081 417.836 394.428C417.431 393.789 416.855 393.149 416.083 392.807C415.207 392.426 414.24 392.381 413.394 392.748C412.48 393.152 411.82 393.895 411.513 394.827L407.832 405.343C407.614 405.939 407.539 406.649 407.704 407.323C407.075 406.234 406.888 404.999 407.323 403.805Z" fill="#26366F"/>
<path d="M407.777 413.494C412.024 415.472 416.729 413.378 418.341 408.866L422.022 398.35C422.675 396.561 422.668 394.653 422.181 392.817C423.162 394.957 423.334 397.538 422.531 399.887L418.85 410.403C417.238 414.915 412.533 417.009 408.286 415.031C405.724 413.852 403.979 411.557 403.253 408.896C404.227 410.848 405.777 412.581 407.777 413.494Z" fill="#26366F"/>
</g>
<path opacity="0.3" d="M415.521 389.961C414.128 389.576 412.554 389.863 411.318 390.825C410.584 391.417 409.999 392.31 409.624 393.28L408.845 395.33C408.845 395.33 408.597 396.038 408.41 396.523C408.252 396.896 407.915 397.08 407.533 397.002C407.114 396.849 406.852 396.324 406.972 395.876C407.901 393.266 408.179 392.445 408.179 392.445C408.831 390.656 410.052 389.319 411.746 388.585C413.132 387.923 414.69 388.122 415.664 388.354C416.151 388.47 416.413 388.996 416.293 389.443C416.24 389.854 415.836 390.075 415.521 389.961Z" fill="#575878"/>
<path opacity="0.3" d="M409.688 411.303C411.081 411.688 412.654 411.401 413.891 410.439C414.625 409.846 415.21 408.954 415.585 407.984L415.802 407.388C415.802 407.388 416.049 406.679 416.237 406.195C416.394 405.822 416.731 405.638 417.113 405.716C417.533 405.868 417.795 406.394 417.675 406.842C416.745 409.452 416.993 408.743 416.993 408.743C416.341 410.533 415.119 411.87 413.426 412.604C412.04 413.266 410.481 413.067 409.508 412.835C409.021 412.719 408.759 412.193 408.879 411.745C408.901 411.446 409.306 411.225 409.688 411.303Z" fill="#575878"/>
<path d="M389.346 444.684C393.211 447.444 398.268 446.399 400.622 442.342L406.1 432.85C408.454 428.793 407.234 423.25 403.369 420.489C401.527 419.203 399.369 418.663 397.249 419.057C395.061 419.489 393.218 420.783 392.094 422.831L386.615 432.322C384.262 436.38 385.549 441.887 389.346 444.684ZM401.053 424.622C402.754 425.794 403.3 428.266 402.266 429.978L396.719 439.507C395.722 441.294 393.467 441.762 391.835 440.553C390.134 439.38 389.588 436.908 390.622 435.196L396.101 425.704C396.618 424.848 397.42 424.219 398.379 424.077C399.3 423.86 400.237 424.017 401.053 424.622Z" fill="url(#paint7_linear_864_1267)"/>
<g opacity="0.35">
<path d="M390.315 433.548L395.794 424.056C396.311 423.2 397.113 422.571 398.072 422.429C398.994 422.212 399.9 422.481 400.784 423.049C401.952 423.843 402.559 425.232 402.476 426.614C402.207 425.902 401.697 425.225 401.023 424.733C400.207 424.129 399.27 423.972 398.311 424.114C397.39 424.331 396.551 424.885 396.034 425.741L390.555 435.233C390.232 435.791 390.053 436.463 390.045 437.136C389.686 435.899 389.701 434.553 390.315 433.548Z" fill="#26366F"/>
<path d="M389.144 443.074C393.009 445.834 398.066 444.789 400.419 440.732L405.898 431.241C406.865 429.565 407.24 427.736 407.031 425.94C407.607 428.3 407.397 430.804 406.137 432.925L400.659 442.417C398.305 446.474 393.248 447.518 389.383 444.758C387.076 443.057 385.699 440.466 385.52 437.698C386.051 439.796 387.264 441.713 389.144 443.074Z" fill="#26366F"/>
</g>
<path opacity="0.3" d="M400.941 421.816C399.571 421.132 398.02 421.12 396.634 421.782C395.72 422.186 395.06 422.929 394.543 423.785L393.411 425.646C393.411 425.646 393.022 426.241 392.767 426.762C392.609 427.135 392.13 427.206 391.778 427.016C391.321 426.788 391.194 426.189 391.419 425.779C392.805 423.397 393.225 422.69 393.225 422.69C394.124 421.052 395.668 420.017 397.443 419.62C398.912 419.295 400.447 419.793 401.429 420.212C401.886 420.44 402.043 420.928 401.855 421.412C401.63 421.822 401.256 421.931 400.941 421.816Z" fill="#575878"/>
<path opacity="0.3" d="M391.385 441.372C392.755 442.056 394.306 442.068 395.692 441.406C396.606 441.002 397.266 440.259 397.783 439.403L398.143 438.92C398.143 438.92 398.532 438.325 398.787 437.803C398.945 437.431 399.424 437.36 399.776 437.549C400.233 437.777 400.36 438.377 400.135 438.786C398.749 441.168 399.101 440.498 399.101 440.498C398.202 442.136 396.658 443.171 394.883 443.568C393.414 443.893 391.879 443.395 390.897 442.976C390.44 442.748 390.283 442.261 390.471 441.776C390.59 441.328 391.033 441.182 391.385 441.372Z" fill="#575878"/>
<path d="M362.558 468.402C365.636 472.166 370.858 472.656 374.177 469.504L381.91 462.124C385.23 458.972 385.419 453.327 382.341 449.563C380.858 447.794 378.918 446.657 376.738 446.416C374.49 446.211 372.348 446.904 370.721 448.462L362.988 455.842C359.669 458.994 359.48 464.639 362.558 468.402ZM378.991 452.827C380.332 454.483 380.256 456.913 378.795 458.285L371.062 465.665C369.6 467.037 367.353 466.833 366.012 465.177C364.672 463.521 364.747 461.091 366.209 459.719L373.942 452.339C374.639 451.671 375.59 451.342 376.594 451.462C377.493 451.544 378.339 452.037 378.991 452.827Z" fill="url(#paint8_linear_864_1267)"/>
<g opacity="0.35">
<path d="M366.352 458.112L374.085 450.732C374.782 450.065 375.733 449.736 376.737 449.856C377.636 449.938 378.587 450.469 379.202 451.184C380.108 452.313 380.302 453.735 380.01 455.042C379.942 454.219 379.635 453.431 379.059 452.791C378.407 452 377.561 451.508 376.594 451.463C375.591 451.342 374.706 451.635 373.942 452.339L366.209 459.719C365.744 460.164 365.422 460.722 365.242 461.394C365.055 460.159 365.453 458.89 366.352 458.112Z" fill="#26366F"/>
<path d="M362.701 466.796C365.779 470.559 371.001 471.049 374.32 467.897L382.053 460.517C383.38 459.219 384.212 457.617 384.519 455.825C384.511 458.218 383.604 460.529 381.911 462.124L374.177 469.504C370.858 472.656 365.636 472.166 362.558 468.402C360.746 466.144 360.08 463.26 360.56 460.609C360.507 462.74 361.286 464.99 362.701 466.796Z" fill="#26366F"/>
</g>
<path opacity="0.3" d="M379.606 450.103C378.498 449.084 376.962 448.586 375.456 448.836C374.497 448.978 373.621 449.457 372.924 450.124L371.395 451.533C371.395 451.533 370.931 451.978 370.533 452.387C370.234 452.646 369.822 452.68 369.5 452.378C369.14 452.002 369.118 451.441 369.485 451.144C371.411 449.327 371.973 448.733 371.973 448.733C373.299 447.435 375.037 446.963 376.835 447.127C378.356 447.251 379.772 448.197 380.521 448.838C380.91 449.103 380.97 449.739 380.64 450.111C380.303 450.295 379.823 450.366 379.606 450.103Z" fill="#575878"/>
<path opacity="0.3" d="M365.315 465.844C366.424 466.863 367.96 467.361 369.465 467.111C370.424 466.969 371.301 466.49 371.998 465.822L372.433 465.489C372.433 465.489 372.897 465.044 373.294 464.636C373.594 464.377 374.006 464.343 374.328 464.644C374.688 465.021 374.71 465.582 374.343 465.878C372.417 467.695 372.949 467.213 372.949 467.213C371.623 468.512 369.884 468.984 368.087 468.82C366.566 468.696 365.15 467.75 364.401 467.108C364.012 466.844 363.952 466.207 364.282 465.836C364.581 465.577 365.098 465.581 365.315 465.844Z" fill="#575878"/>
<path d="M415.519 254.861C417.085 254.387 417.947 252.674 417.431 250.95L410.866 228.836C410.35 227.112 408.724 226.089 407.159 226.563C406.409 226.782 405.81 227.3 405.495 228.046C405.143 228.716 405.075 229.613 405.315 230.437L411.744 252.625C412.261 254.349 413.953 255.334 415.519 254.861Z" fill="url(#paint9_linear_864_1267)"/>
<path opacity="0.3" d="M412.615 245.939C413.499 245.647 413.919 244.079 413.402 242.355L411.172 234.784C410.655 233.06 409.509 231.967 408.588 232.184C408.146 232.33 407.786 232.813 407.674 233.448C407.561 234.083 407.561 234.943 407.8 235.767L410.031 243.338C410.48 245.099 411.626 246.193 412.615 245.939Z" fill="#575878"/>
<path opacity="0.35" d="M413.978 249.875C414.795 249.62 415.424 248.989 415.739 248.244L409.451 227.03C410.088 227.446 410.56 228.048 410.799 228.873L415.889 245.964L417.049 250.012L417.364 250.986C417.88 252.711 417.018 254.424 415.452 254.898C413.887 255.371 412.261 254.349 411.745 252.625L410.27 247.602C410.787 249.327 412.48 250.312 413.978 249.875Z" fill="#26366F"/>
<path d="M422.32 289.839C423.893 289.553 424.897 287.953 424.516 286.155L419.929 263.533C419.585 261.811 418.057 260.639 416.416 260.963C415.63 261.106 414.993 261.55 414.573 262.257C414.221 262.927 414.048 263.786 414.22 264.647L418.807 287.269C419.151 288.992 420.746 290.126 422.32 289.839Z" fill="url(#paint10_linear_864_1267)"/>
<path opacity="0.3" d="M420.232 280.661C421.191 280.519 421.678 278.915 421.334 277.193L419.786 269.44C419.441 267.717 418.393 266.475 417.434 266.617C416.954 266.688 416.595 267.171 416.377 267.768C416.16 268.364 416.16 269.224 416.332 270.086L417.881 277.838C418.195 279.673 419.243 280.915 420.232 280.661Z" fill="#575878"/>
<path opacity="0.35" d="M421.258 284.783C422.112 284.603 422.711 284.084 423.131 283.377L418.754 261.692C419.323 262.145 419.765 262.859 419.9 263.645L423.453 281.098L424.306 285.218L424.553 286.23C424.898 287.953 423.931 289.628 422.357 289.914C420.784 290.201 419.189 289.067 418.845 287.344L417.812 282.175C418.156 283.898 419.684 285.069 421.258 284.783Z" fill="#26366F"/>
<path d="M416.96 272.896C417.484 273.947 418.57 274.404 419.38 273.962C420.189 273.519 420.451 272.325 419.927 271.274C419.403 270.223 418.317 269.765 417.508 270.208C416.698 270.65 416.473 271.92 416.96 272.896Z" fill="#575878"/>
<path d="M424.153 327.246C425.771 327.221 427.023 325.773 426.956 324.09L425.906 301.16C425.801 299.402 424.401 297.97 422.85 297.957C422.056 297.914 421.314 298.319 420.819 298.876C420.325 299.433 420.047 300.254 420.047 301.114L421.098 324.044C421.135 325.839 422.498 327.196 424.153 327.246Z" fill="url(#paint11_linear_864_1267)"/>
<path opacity="0.3" d="M423.436 317.892C424.402 317.937 425.137 316.485 425.033 314.727L424.652 306.908C424.548 305.15 423.664 303.722 422.735 303.752C422.219 303.748 421.784 304.081 421.567 304.678C421.244 305.236 421.139 306.058 421.139 306.918L421.519 314.736C421.623 316.494 422.47 317.847 423.436 317.892Z" fill="#575878"/>
<path opacity="0.35" d="M423.877 322.046C424.738 322.053 425.48 321.648 426.004 320.979L424.991 298.984C425.531 299.549 425.837 300.337 425.867 301.085L426.709 318.778L426.91 322.968L426.985 323.978C427.089 325.736 425.838 327.185 424.182 327.134C422.564 327.159 421.164 325.727 421.127 323.932L420.851 318.732C420.925 320.602 422.221 321.996 423.877 322.046Z" fill="#26366F"/>
<path d="M421.994 363.014C423.619 363.177 424.983 361.953 425.051 360.197L426.211 337.396C426.278 335.639 425.08 334.097 423.455 333.934C422.623 333.816 421.911 334.109 421.312 334.628C420.78 335.11 420.397 335.892 420.33 336.789L419.17 359.589C419.17 361.309 420.368 362.852 421.994 363.014Z" fill="url(#paint12_linear_864_1267)"/>
<path opacity="0.5" d="M422.243 353.705C423.247 353.825 424.124 352.486 424.192 350.729L424.568 342.88C424.636 341.123 423.955 339.584 422.988 339.539C422.539 339.498 421.999 339.793 421.677 340.351C421.355 340.91 421.108 341.618 421.04 342.515L420.663 350.365C420.595 352.122 421.277 353.66 422.243 353.705Z" fill="#575878"/>
<path opacity="0.35" d="M422.272 357.893C423.104 358.012 423.883 357.682 424.445 357.088L425.574 335.259C426.046 335.861 426.286 336.686 426.248 337.471L425.397 355.039L425.149 359.187L425.118 360.159C425.05 361.916 423.619 363.176 422.061 362.977C420.435 362.815 419.2 361.197 419.305 359.515L419.546 354.319C419.411 356.113 420.647 357.731 422.272 357.893Z" fill="#26366F"/>
<path d="M414.546 398.329C416.149 398.79 417.692 397.755 418.037 396.038L422.358 373.898C422.703 372.181 421.67 370.453 420.067 369.991C419.265 369.761 418.479 369.904 417.842 370.348C417.205 370.791 416.748 371.423 416.575 372.282L412.254 394.422C411.947 396.214 412.98 397.942 414.546 398.329Z" fill="url(#paint13_linear_864_1267)"/>
<path opacity="0.3" d="M416.113 389.255C417.087 389.487 418.144 388.336 418.421 386.656L419.944 379.04C420.289 377.322 419.78 375.785 418.769 375.478C418.282 375.362 417.773 375.545 417.345 376.065C416.881 376.51 416.566 377.255 416.393 378.114L414.871 385.73C414.593 387.411 415.14 389.023 416.113 389.255Z" fill="#575878"/>
<path opacity="0.35" d="M415.551 393.289C416.352 393.519 417.206 393.339 417.843 392.896L421.992 371.615C422.329 372.29 422.463 373.077 422.358 373.898L418.975 391.035L418.172 395.104L417.97 396.075C417.625 397.792 416.081 398.827 414.478 398.366C412.875 397.904 411.842 396.176 412.187 394.459L413.192 389.419C412.952 391.174 413.985 392.902 415.551 393.289Z" fill="#26366F"/>
<path opacity="0.8" d="M416.716 378.415C417.24 379.466 418.393 379.887 419.27 379.408C420.147 378.929 420.477 377.697 419.953 376.646C419.428 375.595 418.275 375.174 417.398 375.654C416.559 376.208 416.229 377.439 416.716 378.415Z" fill="#575878"/>
<path d="M398.056 429.795C399.471 430.741 401.247 430.343 402.086 428.929L412.939 409.907C413.741 408.418 413.285 406.47 411.936 405.487C411.262 404.996 410.431 404.877 409.712 404.983C409.03 405.165 408.326 405.645 407.906 406.353L397.053 425.374C396.146 426.826 396.603 428.774 398.056 429.795Z" fill="url(#paint14_linear_864_1267)"/>
<path opacity="0.3" d="M402.253 421.863C403.069 422.468 404.418 421.731 405.257 420.316L408.96 413.802C409.762 412.313 409.8 410.668 408.916 410.1C408.527 409.835 407.942 409.868 407.403 410.163C406.863 410.457 406.264 410.976 405.882 411.758L402.179 418.273C401.407 419.65 401.369 421.295 402.253 421.863Z" fill="#575878"/>
<path opacity="0.35" d="M400.432 425.438C401.211 425.968 402.042 426.087 402.792 425.868L413.225 407.553C413.359 408.34 413.254 409.162 412.902 409.832L404.53 424.536L402.566 427.998L402.117 428.817C401.315 430.306 399.502 430.628 398.086 429.682C396.67 428.736 396.281 426.752 397.083 425.262L399.564 420.944C398.627 422.507 399.084 424.455 400.432 425.438Z" fill="#26366F"/>
<path d="M374.436 456.083C375.522 457.4 377.425 457.602 378.549 456.414L393.978 441.579C395.139 440.467 395.23 438.411 394.076 437.13C393.499 436.49 392.795 436.111 392.069 436.03C391.342 435.95 390.525 436.205 389.963 436.799L374.534 451.634C373.44 452.71 373.35 454.765 374.436 456.083Z" fill="url(#paint15_linear_864_1267)"/>
<path opacity="0.3" d="M380.595 449.849C381.247 450.64 382.753 450.39 383.914 449.277L389.19 444.196C390.351 443.084 390.771 441.516 390.082 440.651C389.723 440.274 389.198 440.083 388.584 440.228C387.969 440.373 387.258 440.666 386.696 441.26L381.42 446.341C380.326 447.417 379.944 449.059 380.595 449.849Z" fill="#575878"/>
<path opacity="0.35" d="M377.988 452.708C378.602 453.423 379.373 453.766 380.167 453.81L394.929 439.53C394.892 440.315 394.577 441.061 394.045 441.542L382.168 453.003L379.313 455.71L378.616 456.377C377.454 457.49 375.589 457.363 374.503 456.046C373.417 454.728 373.44 452.709 374.602 451.597L378.086 448.259C376.925 449.372 376.834 451.428 377.988 452.708Z" fill="#26366F"/>
<path opacity="0.8" d="M382.387 447.246C382.911 448.297 384.065 448.717 384.941 448.238C385.818 447.759 386.148 446.528 385.624 445.477C385.1 444.426 383.946 444.005 383.07 444.484C382.193 444.963 381.9 446.27 382.387 447.246Z" fill="#575878"/>
<path d="M347.879 479.58C348.935 481.009 350.703 481.285 352.007 480.285L368.417 466.729C369.683 465.655 369.849 463.749 368.86 462.283C368.351 461.606 367.609 461.151 366.883 461.071C366.119 460.915 365.369 461.134 364.77 461.652L348.36 475.208C347.019 476.133 346.823 478.15 347.879 479.58Z" fill="url(#paint16_linear_864_1267)"/>
<path opacity="0.45" d="M347.879 479.58C348.935 481.009 350.703 481.285 352.007 480.285L368.417 466.729C369.683 465.655 369.849 463.749 368.86 462.283C368.351 461.606 367.609 461.151 366.883 461.071C366.119 460.915 365.369 461.134 364.77 461.652L348.36 475.208C347.019 476.133 346.823 478.15 347.879 479.58Z" fill="#AEA8B4"/>
<path opacity="0.3" d="M354.369 473.835C354.99 474.737 356.534 474.563 357.732 473.525L363.405 468.896C364.671 467.822 365.196 466.293 364.544 465.502C364.252 465.089 363.728 464.898 363.076 464.967C362.492 465 361.78 465.293 361.113 465.849L355.441 470.478C354.309 471.479 353.785 473.008 354.369 473.835Z" fill="#575878"/>
<path opacity="0.35" d="M351.581 476.505C352.128 477.257 352.87 477.712 353.664 477.755L369.407 464.755C369.264 465.502 368.949 466.247 368.38 466.654L355.672 477.136L352.704 479.617L351.97 480.21C350.704 481.284 348.898 480.934 347.842 479.504C346.786 478.075 347.019 476.132 348.286 475.058L351.987 471.984C350.758 473.133 350.525 475.076 351.581 476.505Z" fill="#26366F"/>
<path d="M322.8 344.566C322.382 342.173 320.304 340.428 317.875 340.428H292.226C289.82 340.428 287.755 342.141 287.311 344.506L259.186 494.506C258.609 497.583 260.97 500.428 264.101 500.428H344.125C347.231 500.428 349.586 497.625 349.05 494.566L322.8 344.566Z" fill="url(#paint17_linear_864_1267)"/>
<path d="M287.876 369.712L307.076 374.097V434.02L291.076 463.25L284.676 502.712L275.076 486.635L292.676 428.173L287.876 369.712Z" fill="#A39875"/>
<path d="M160.836 20.4317C101.076 38.7119 99.996 38.8692 73.513 93.7046L106.576 153.712L152.076 211.712L224.94 337.829L376.076 211.011L265.076 116.712L214.576 63.212L160.836 20.4317Z" fill="url(#paint18_linear_864_1267)"/>
<path d="M89.0762 63.2119L81.0759 78.2122L130.868 154.91L168.7 183.789L207.025 231.053L201.649 205.148L138.062 139.549L89.0762 63.2119Z" fill="#A4997C"/>
<path d="M256.005 200.567L256.005 200.567L256.006 200.567L256.005 200.567L247.246 215.093L220.208 177.623L190.864 143.206L188.226 116.881L221.4 167.893L256.005 200.567Z" fill="#AC9F7C"/>
<path d="M156.576 21.7114L148.576 24.2119L200.076 70.2119L186.076 50.2119L156.576 21.7114Z" fill="#A49976"/>
<path d="M200.498 85.1751L204.818 96.6893L217.723 112.626L230.076 119.455L200.498 85.1751Z" fill="#ADA281"/>
<path d="M361.625 494.878L353.662 462.446L348.323 457.519L336.614 462.393L330.98 477.936L292.042 482.043L288.547 467L278.444 465.155L273.603 469.37L268.501 461.045L268.003 451.903L255.243 455.564L252.606 477.009L257.074 494.397L252.153 499.745L263.567 515.342L287.324 517.003L290.061 510.364L337.394 500.014L342.812 503.808L361.625 494.878Z" fill="url(#paint19_linear_864_1267)"/>
<path d="M338.685 464.747L353.558 462.401L348.243 457.514L342.576 456.713L343.076 459.712L336.59 462.343L330.987 477.755L292.232 481.818L288.749 466.9L278.694 465.068L277.489 466.112L286.262 470.112L291.918 486.311L332.034 478.957L338.685 464.747Z" fill="#837B63"/>
<path d="M172.576 274.212C172.576 349.875 231.189 415.428 306.576 415.428C381.963 415.428 443.076 354.091 443.076 278.428C443.076 202.765 381.963 141.428 306.576 141.428C264.576 153.212 248.637 162.712 215.576 198.712C193.076 223.212 181.076 240.212 172.576 274.212Z" fill="url(#paint20_radial_864_1267)"/>
<path d="M313.347 253.903C331.054 281.17 369.192 288.204 395.465 271.142C421.739 254.081 417.024 226.302 399.317 199.035C381.61 171.768 344.556 156.454 318.283 173.516C292.01 190.578 295.639 226.636 313.347 253.903Z" fill="#4E3B21"/>
<path d="M288.592 306.549C288.899 305.566 288.212 304.085 286.995 303.379C285.842 302.649 284.578 302.829 284.271 303.811L284.237 303.921C283.493 305.934 282.175 307.388 280.354 308.065C276.319 309.564 271.457 306.352 269.508 300.996C268.982 299.551 268.716 298.01 268.673 296.674C268.724 295.594 267.838 294.379 266.584 293.977C265.329 293.574 264.254 294.07 264.139 295.174C264.139 295.174 264.139 295.174 264.17 295.259C264.132 297.59 264.511 300.054 265.409 302.519C268.472 310.935 276.022 315.85 282.269 313.53C285.392 312.37 287.503 309.848 288.592 306.549Z" fill="url(#paint21_linear_864_1267)"/>
<path opacity="0.45" d="M288.592 306.549C288.899 305.566 288.212 304.085 286.995 303.379C285.842 302.649 284.578 302.829 284.271 303.811L284.237 303.921C283.493 305.934 282.175 307.388 280.354 308.065C276.319 309.564 271.457 306.352 269.508 300.996C268.982 299.551 268.716 298.01 268.673 296.674C268.724 295.594 267.838 294.379 266.584 293.977C265.329 293.574 264.254 294.07 264.139 295.174C264.139 295.174 264.139 295.174 264.17 295.259C264.132 297.59 264.511 300.054 265.409 302.519C268.472 310.935 276.022 315.85 282.269 313.53C285.392 312.37 287.503 309.848 288.592 306.549Z" fill="#BEBED0"/>
<path opacity="0.25" d="M284.302 303.896C283.626 305.691 282.504 307.073 280.939 307.847C281.134 307.775 281.329 307.702 281.459 307.654C283.021 307.074 284.899 304.929 285.483 302.878C285.126 302.914 284.411 303.18 284.302 303.896Z" fill="#46395B"/>
<path opacity="0.25" d="M266.385 302.157C265.549 299.862 265.259 297.847 265.068 295.698C265.012 295.14 264.991 294.472 265.032 293.975C264.706 294.096 264.279 294.544 264.204 295.151C264.166 297.481 264.577 300.03 265.474 302.495C268.537 310.911 276.087 315.826 282.334 313.506C282.659 313.385 282.984 313.264 283.214 313.082C277.271 314.614 269.819 311.593 266.385 302.157Z" fill="#46395B"/>
<path opacity="0.3" d="M284.464 309.819C284.179 309.442 283.73 309.223 283.37 309.453C283.011 309.683 282.651 309.913 282.261 310.058C279.689 311.11 276.756 310.559 274.263 308.783C273.879 308.54 273.457 308.6 273.256 309.061C272.989 309.546 273.237 310.226 273.652 310.554C276.625 312.634 280.072 313.38 283.069 312.074C283.524 311.905 283.949 311.651 284.373 311.397C284.798 311.143 284.81 310.366 284.464 309.819Z" fill="#575878"/>
<path d="M285.385 488.035C286.044 489.028 285.834 490.436 284.927 491.194C284.02 491.952 282.663 491.806 282.004 490.813C281.958 490.734 281.958 490.734 281.912 490.655C280.476 488.74 278.557 487.223 276.479 486.655C271.856 485.266 268.097 488.485 268.008 493.771C267.961 495.187 268.242 496.62 268.746 498.027C269.182 499.046 268.716 500.287 267.578 500.65C266.486 501.092 265.168 500.602 264.685 499.504C264.685 499.504 264.685 499.504 264.639 499.425C263.791 497.157 263.296 494.678 263.338 492.303C263.428 484.026 269.354 479.08 276.581 481.255C280.024 482.391 283.047 484.847 285.385 488.035Z" fill="url(#paint22_linear_864_1267)"/>
<path opacity="0.25" d="M281.958 490.734C280.66 489.057 278.952 487.627 277.108 486.918C277.318 487.006 277.541 486.979 277.751 487.066C279.561 487.581 282.235 489.713 283.553 491.698C283.062 491.673 282.268 491.402 281.958 490.734Z" fill="#46395B"/>
<path opacity="0.25" d="M264.342 492.662C264.3 495.037 264.694 496.936 265.332 499.116C265.538 499.74 265.697 500.285 265.915 500.795C265.542 500.699 264.983 500.286 264.673 499.618C263.825 497.351 263.33 494.872 263.326 492.418C263.416 484.141 269.342 479.194 276.568 481.369C276.942 481.465 277.257 481.596 277.677 481.771C270.971 480.352 264.428 483.426 264.342 492.662Z" fill="#46395B"/>
<path opacity="0.3" d="M279.969 484.88C279.813 485.294 279.414 485.427 278.994 485.252C278.574 485.076 278.108 484.822 277.688 484.647C274.724 483.651 271.969 484.237 270.012 486.053C269.705 486.344 269.227 486.204 268.878 485.879C268.437 485.397 268.395 484.781 268.761 484.455C271.025 482.348 274.237 481.594 277.785 482.774C278.31 482.992 278.835 483.211 279.36 483.43C279.885 483.649 280.137 484.352 279.969 484.88Z" fill="#575878"/>
<path d="M271.113 337.543L275.208 328.817C276.081 327.011 276.035 324.721 275.042 322.39C274.116 320.123 272.42 318.167 270.335 316.785C265.92 313.884 260.907 314.546 259.182 318.272L255.087 326.998C253.361 330.724 255.543 336.13 259.959 339.03C264.375 341.931 269.387 341.269 271.113 337.543ZM270.571 322.996C270.99 324.041 271.004 324.99 270.658 325.791L266.563 334.517C265.826 336.17 263.614 336.447 261.663 335.19C259.713 333.933 258.765 331.552 259.502 329.899L263.597 321.173C264.334 319.52 266.547 319.243 268.497 320.5C269.439 321.097 270.219 322.012 270.571 322.996Z" fill="url(#paint23_linear_864_1267)"/>
<g opacity="0.35">
<path d="M268.008 334.274L272.103 325.548C272.449 324.747 272.48 323.747 272.016 322.753C271.619 321.821 270.838 320.905 269.942 320.257C268.619 319.398 267.268 319.261 266.203 319.766C266.925 319.783 267.802 320.04 268.564 320.563C269.505 321.16 270.219 322.013 270.638 323.059C271.056 324.105 271.07 325.053 270.725 325.854L266.63 334.58C266.399 335.114 265.967 335.46 265.469 335.744C266.574 335.745 267.526 335.228 268.008 334.274Z" fill="#26366F"/>
<path d="M261.337 338.725C256.921 335.824 254.739 330.419 256.465 326.692L260.559 317.967C261.272 316.478 262.522 315.49 263.97 314.968C261.803 315.194 260.012 316.239 259.114 318.21L255.019 326.936C253.293 330.662 255.476 336.067 259.891 338.968C262.536 340.686 265.396 341.199 267.635 340.479C265.739 340.676 263.421 340.107 261.337 338.725Z" fill="#26366F"/>
</g>
<path opacity="0.3" d="M270.826 319.677C272.146 320.814 273.102 322.36 273.403 323.952C273.596 324.975 273.385 325.901 273.039 326.702L272.256 328.406C272.256 328.406 271.98 328.991 271.774 329.36C271.613 329.678 271.812 330.145 272.147 330.457C272.595 330.781 273.091 330.776 273.298 330.407C274.332 328.282 274.587 327.583 274.587 327.583C275.3 326.095 275.226 324.248 274.478 322.333C273.839 320.707 272.543 319.405 271.671 318.592C271.268 318.217 270.727 318.273 270.566 318.592C270.359 318.961 270.445 319.415 270.826 319.677Z" fill="#575878"/>
<path opacity="0.3" d="M261.296 335.878C259.976 334.741 259.021 333.195 258.72 331.603C258.526 330.58 258.738 329.654 259.083 328.853L259.268 328.37C259.268 328.37 259.544 327.785 259.751 327.416C259.912 327.098 259.713 326.632 259.378 326.319C258.93 325.995 258.433 326 258.227 326.37C257.192 328.494 257.536 327.972 257.536 327.972C256.823 329.46 256.896 331.307 257.645 333.222C258.284 334.848 259.58 336.15 260.452 336.963C260.854 337.338 261.396 337.282 261.557 336.964C261.763 336.594 261.677 336.14 261.296 335.878Z" fill="#575878"/>
<path opacity="0.45" d="M270.314 316.671C272.399 318.053 274.094 320.009 275.02 322.277C275.837 324.255 276.022 326.113 275.511 327.789C274.027 327.248 272.297 326.571 270.521 325.945L270.591 325.729C270.937 324.928 270.969 323.928 270.504 322.933C270.107 322.001 269.326 321.086 268.43 320.437C266.48 319.18 264.267 319.457 263.53 321.11L262.311 323.718C260.487 323.421 258.618 323.176 256.633 323.197L258.935 318.136C260.84 314.483 265.898 313.77 270.314 316.671Z" fill="#9A9A9A"/>
<path d="M261.506 366.778L264.3 357.307C264.86 355.301 264.588 352.988 263.324 350.686C262.194 348.509 260.295 346.644 258.141 345.478C253.54 343.06 248.815 344.364 247.583 348.364L244.789 357.835C243.624 361.897 246.393 367.195 250.948 369.663C255.616 372.144 260.341 370.84 261.506 366.778ZM259.186 351.883C259.696 352.826 259.844 353.9 259.565 354.764L256.772 364.235C256.281 366.024 254.179 366.591 252.205 365.499C250.185 364.458 248.966 362.105 249.523 360.378L252.317 350.907C252.807 349.117 254.91 348.55 256.884 349.642C257.871 350.189 258.676 350.939 259.186 351.883Z" fill="url(#paint24_linear_864_1267)"/>
<g opacity="0.35">
<path d="M258.127 363.815L260.921 354.345C261.2 353.481 261.006 352.458 260.542 351.463C260.032 350.52 259.206 349.656 258.286 349.172C256.939 348.478 255.563 348.505 254.633 349.136C255.333 349.039 256.143 349.233 256.996 349.654C257.916 350.138 258.788 350.951 259.252 351.946C259.762 352.889 259.91 353.963 259.631 354.827L256.838 364.298C256.674 364.894 256.31 365.303 255.878 365.649C256.894 365.474 257.779 364.895 258.127 363.815Z" fill="#26366F"/>
<path d="M252.304 369.244C247.703 366.827 244.934 361.529 246.144 357.416L248.938 347.945C249.404 346.32 250.452 345.144 251.879 344.509C249.868 344.974 248.254 346.37 247.648 348.427L244.854 357.898C243.689 361.96 246.459 367.258 251.014 369.727C253.774 371.177 256.569 371.35 258.631 370.277C256.732 370.753 254.504 370.36 252.304 369.244Z" fill="#26366F"/>
</g>
<path opacity="0.3" d="M258.992 348.519C260.403 349.554 261.495 350.946 261.976 352.612C262.282 353.646 262.25 354.646 261.972 355.51L261.436 357.35C261.436 357.35 261.273 357.947 261.088 358.43C260.994 358.81 261.238 359.225 261.552 359.425C262 359.749 262.475 359.63 262.614 359.198C263.335 356.874 263.522 356.113 263.522 356.113C263.988 354.488 263.69 352.618 262.783 350.743C261.986 349.157 260.531 347.894 259.635 347.246C259.187 346.922 258.646 346.978 258.552 347.359C258.413 347.791 258.611 348.257 258.992 348.519Z" fill="#575878"/>
<path opacity="0.3" d="M251.859 366.299C250.448 365.264 249.355 363.871 248.875 362.206C248.569 361.172 248.6 360.172 248.879 359.308L248.997 358.763C248.997 358.763 249.16 358.166 249.345 357.683C249.439 357.303 249.195 356.888 248.881 356.689C248.433 356.365 247.958 356.484 247.819 356.915C247.098 359.239 247.262 358.642 247.262 358.642C246.795 360.267 247.094 362.137 248.001 364.013C248.798 365.599 250.252 366.861 251.148 367.509C251.596 367.833 252.138 367.777 252.232 367.396C252.438 367.027 252.24 366.561 251.859 366.299Z" fill="#575878"/>
<path d="M256.888 397.858L258.11 387.67C258.356 385.465 257.701 383.169 256.187 381.009C254.741 378.911 252.726 377.313 250.457 376.414C245.739 374.542 241.435 376.613 240.943 381.022L239.721 391.21C239.162 395.557 242.61 400.645 247.374 402.466C252.026 404.276 256.329 402.204 256.888 397.858ZM252.449 382.859C253.072 383.814 253.378 384.849 253.279 385.786L252.057 395.974C251.814 397.9 249.934 398.768 247.912 398.006C245.822 397.18 244.354 394.969 244.552 393.094L245.774 382.906C246.017 380.98 247.897 380.112 249.92 380.874C250.931 381.256 251.781 381.955 252.449 382.859Z" fill="url(#paint25_linear_864_1267)"/>
<g opacity="0.35">
<path d="M253.191 395.252L254.413 385.064C254.512 384.127 254.206 383.093 253.584 382.138C252.915 381.234 252.065 380.534 251.054 380.153C249.683 379.624 248.396 379.827 247.621 380.696C248.299 380.486 249.088 380.566 249.919 380.874C250.931 381.255 251.781 381.955 252.449 382.859C253.072 383.814 253.378 384.848 253.279 385.785L252.057 395.973C252.006 396.581 251.709 397.053 251.344 397.461C252.339 397.172 253.023 396.406 253.191 395.252Z" fill="#26366F"/>
<path d="M248.508 401.745C243.789 399.872 240.363 394.898 240.854 390.489L242.076 380.301C242.296 378.54 243.143 377.177 244.301 376.291C242.467 377.108 241.167 378.704 240.875 380.96L239.653 391.147C239.094 395.494 242.543 400.582 247.306 402.403C250.115 403.524 252.757 403.179 254.55 401.856C252.92 402.583 250.777 402.644 248.508 401.745Z" fill="#26366F"/>
</g>
<path opacity="0.3" d="M251.737 379.387C253.218 380.206 254.468 381.559 255.153 383.133C255.617 384.128 255.698 385.14 255.599 386.077L255.377 388.117C255.377 388.117 255.281 388.776 255.209 389.27C255.161 389.6 255.472 390.077 255.786 390.277C256.279 390.55 256.733 390.317 256.759 389.874C257.053 387.34 257.128 386.567 257.128 386.567C257.347 384.805 256.711 382.901 255.554 381.168C254.553 379.672 253.03 378.626 252.088 378.029C251.595 377.756 251.12 377.875 251.048 378.369C251.112 378.71 251.311 379.176 251.737 379.387Z" fill="#575878"/>
<path opacity="0.3" d="M247.679 398.818C246.198 397.999 244.948 396.645 244.263 395.071C243.799 394.076 243.718 393.065 243.817 392.127L243.822 391.57C243.822 391.57 243.918 390.911 243.991 390.417C244.039 390.087 243.727 389.61 243.414 389.411C242.92 389.138 242.467 389.37 242.44 389.814C242.146 392.348 242.242 391.689 242.242 391.689C242.023 393.45 242.659 395.354 243.816 397.088C244.817 398.583 246.341 399.629 247.282 400.227C247.776 400.5 248.251 400.381 248.323 399.886C248.35 399.443 248.105 399.028 247.679 398.818Z" fill="#575878"/>
<path d="M256.772 429.951L256.577 419.285C256.531 416.995 255.538 414.665 253.887 412.658C252.192 410.702 250.107 409.32 247.835 408.699C243.066 407.435 239.275 410.171 239.413 414.7L239.608 425.366C239.701 429.946 243.693 434.699 248.395 435.901C253.052 437.154 256.843 434.417 256.772 429.951ZM250.528 415.048C251.241 415.901 251.66 416.947 251.741 417.958L251.935 428.624C251.984 430.635 250.327 431.805 248.235 431.258C246.143 430.711 244.426 428.642 244.377 426.63L244.182 415.965C244.133 413.953 245.79 412.783 247.883 413.33C248.805 413.535 249.768 414.246 250.528 415.048Z" fill="url(#paint26_linear_864_1267)"/>
<g opacity="0.35">
<path d="M252.935 427.777L252.741 417.112C252.727 416.163 252.308 415.117 251.528 414.201C250.814 413.349 249.872 412.751 248.883 412.484C247.488 412.119 246.289 412.499 245.694 413.442C246.305 413.17 247.072 413.136 247.882 413.33C248.872 413.598 249.814 414.195 250.528 415.048C251.241 415.9 251.66 416.946 251.741 417.958L251.935 428.624C251.952 429.294 251.767 429.777 251.469 430.248C252.33 429.834 252.992 428.954 252.935 427.777Z" fill="#26366F"/>
<path d="M249.282 435.043C244.513 433.779 240.587 429.089 240.495 424.509L240.3 413.843C240.227 411.996 240.827 410.496 241.897 409.434C240.218 410.49 239.254 412.399 239.255 414.74L239.449 425.406C239.542 429.986 243.534 434.739 248.236 435.941C251.093 436.732 253.558 436.035 255.129 434.411C253.654 435.376 251.599 435.613 249.282 435.043Z" fill="#26366F"/>
</g>
<path opacity="0.3" d="M249.365 411.53C250.87 412.184 252.257 413.384 253.167 414.982C253.744 415.988 253.983 416.96 254.018 418.022L254.089 420.147C254.089 420.147 254.105 420.818 254.1 421.375C254.119 421.767 254.409 422.131 254.835 422.341C255.307 422.501 255.76 422.268 255.742 421.876C255.676 419.194 255.638 418.41 255.638 418.41C255.565 416.563 254.771 414.698 253.41 413.055C252.251 411.6 250.658 410.769 249.625 410.274C249.198 410.064 248.678 410.234 248.719 410.74C248.649 410.956 248.893 411.371 249.365 411.53Z" fill="#575878"/>
<path opacity="0.3" d="M248.181 432.145C246.676 431.491 245.289 430.291 244.38 428.694C243.803 427.688 243.563 426.716 243.528 425.653L243.466 425.034C243.466 425.034 243.45 424.363 243.455 423.806C243.436 423.414 243.146 423.05 242.72 422.84C242.248 422.68 241.795 422.913 241.814 423.305C241.879 425.987 241.841 425.203 241.841 425.203C241.914 427.05 242.709 428.914 244.069 430.557C245.228 432.013 246.822 432.843 247.854 433.338C248.281 433.549 248.801 433.379 248.761 432.873C248.898 432.72 248.541 432.293 248.181 432.145Z" fill="#575878"/>
<path d="M265.57 463.618L261.816 452.535C261.049 450.228 259.422 448.056 257.317 446.561C255.211 445.065 252.917 444.33 250.841 444.454C246.419 444.73 244.036 448.78 245.66 453.571L249.414 464.654C251.017 469.332 255.967 473.011 260.502 472.747C264.857 472.408 267.127 468.347 265.57 463.618ZM255.186 450.19C256.082 450.839 256.817 451.805 257.169 452.788L260.922 463.871C261.647 465.951 260.594 467.684 258.631 467.819C256.667 467.954 254.54 466.345 253.815 464.265L250.061 453.182C249.337 451.101 250.39 449.369 252.353 449.234C253.345 449.223 254.29 449.542 255.186 450.19Z" fill="url(#paint27_linear_864_1267)"/>
<g opacity="0.35">
<path d="M261.519 462.651L257.766 451.568C257.414 450.585 256.679 449.618 255.783 448.97C254.887 448.322 253.83 447.992 252.95 448.014C251.641 448.104 250.754 448.961 250.518 450.052C250.974 449.541 251.585 449.269 252.352 449.235C253.278 449.162 254.289 449.543 255.185 450.191C256.081 450.84 256.816 451.806 257.168 452.79L260.921 463.872C261.163 464.566 261.225 465.185 261.062 465.782C261.745 465.015 261.981 463.924 261.519 462.651Z" fill="#26366F"/>
<path d="M260.919 471.452C256.496 471.728 251.501 468.099 249.831 463.359L246.077 452.276C245.441 450.372 245.435 448.588 245.923 447.077C244.915 448.758 244.623 451.014 245.48 453.498L249.233 464.581C250.836 469.258 255.786 472.938 260.321 472.673C263.006 472.556 264.915 470.966 265.657 468.756C264.673 470.273 263.04 471.277 260.919 471.452Z" fill="#26366F"/>
</g>
<path opacity="0.3" d="M253.074 446.91C254.538 447.059 256.177 447.838 257.427 449.192C258.254 450.056 258.764 450.999 259.183 452.045L259.929 454.239C259.929 454.239 260.171 454.932 260.391 455.512C260.522 455.916 260.925 456.291 261.308 456.274C261.759 456.32 262.078 455.962 261.925 455.445C260.958 452.671 260.695 451.864 260.695 451.864C260.059 449.96 258.744 448.266 257.019 447.032C255.541 445.934 253.921 445.547 252.84 445.382C252.389 445.336 252.07 445.694 252.156 446.148C252.288 446.552 252.623 446.865 253.074 446.91Z" fill="#575878"/>
<path opacity="0.3" d="M258.915 468.74C257.451 468.592 255.812 467.812 254.562 466.459C253.735 465.595 253.225 464.651 252.807 463.605L252.586 463.026C252.586 463.026 252.345 462.332 252.125 461.753C251.993 461.349 251.545 461.025 251.207 460.991C250.757 460.945 250.437 461.303 250.591 461.82C251.557 464.593 251.248 463.838 251.248 463.838C251.885 465.741 253.2 467.436 254.925 468.67C256.403 469.767 258.023 470.155 259.104 470.32C259.554 470.366 259.873 470.008 259.787 469.554C259.768 469.161 259.366 468.786 258.915 468.74Z" fill="#575878"/>
<g opacity="0.45">
<path d="M266.059 466.789C264.719 467.879 262.775 468.406 260.546 468.013L259.285 467.773C260.867 467.377 261.671 465.786 260.989 463.933L260.815 463.302C262.462 463.246 263.555 462.02 263.324 460.213C263.198 459.252 262.733 458.257 261.974 457.456C261.148 456.592 260.16 456.045 259.192 455.891L258.224 455.737L257.303 452.913C256.973 452.043 256.439 451.264 255.701 450.576L258.74 451.163C259.775 451.38 260.719 451.699 261.752 452.194C261.841 452.37 261.862 452.484 261.951 452.66L265.704 463.743C265.943 464.715 266.091 465.789 266.059 466.789Z" fill="#575878"/>
<path d="M249.28 464.529L248.051 460.948C248.343 461.033 248.59 461.17 248.928 461.204L253.093 461.906L253.861 464.213C254.256 465.424 255.238 466.527 256.338 467.084L249.943 465.989C249.699 465.574 249.5 465.108 249.28 464.529Z" fill="#575878"/>
<path d="M247.574 449.083L251.063 449.716C250.02 450.334 249.624 451.743 250.129 453.244L250.48 454.227L248.139 453.822C247.216 453.617 246.425 453.816 245.857 454.315L245.593 453.508C245.067 451.894 244.991 450.326 245.297 449.019C245.93 448.86 246.718 448.94 247.574 449.083Z" fill="#575878"/>
</g>
<path d="M265.423 326.151C263.832 325.042 263.083 323.126 263.772 321.803L272.544 304.801C273.232 303.477 275.016 303.268 276.607 304.377C277.369 304.9 277.948 305.628 278.211 306.435C278.52 307.191 278.512 308.026 278.191 308.663L269.486 325.727C268.797 327.051 266.946 327.197 265.423 326.151Z" fill="url(#paint28_linear_864_1267)"/>
<path opacity="0.45" d="M265.423 326.151C263.832 325.042 263.083 323.126 263.772 321.803L272.544 304.801C273.232 303.477 275.016 303.268 276.607 304.377C277.369 304.9 277.948 305.628 278.211 306.435C278.52 307.191 278.512 308.026 278.191 308.663L269.486 325.727C268.797 327.051 266.946 327.197 265.423 326.151Z" fill="#9A9A9A"/>
<path opacity="0.3" d="M269.161 319.339C268.265 318.691 267.964 317.1 268.653 315.776L271.638 309.948C272.327 308.624 273.617 308.142 274.559 308.739C275.007 309.063 275.339 309.655 275.401 310.274C275.463 310.893 275.388 311.666 275.067 312.302L272.081 318.131C271.459 319.517 270.17 319.999 269.161 319.339Z" fill="#575878"/>
<path opacity="0.35" d="M267.398 322.282C266.569 321.697 265.968 320.855 265.705 320.048L274.109 303.734C273.41 303.83 272.865 304.165 272.544 304.801L265.747 317.934L264.184 321.064L263.772 321.803C263.083 323.126 263.832 325.042 265.423 326.151C267.014 327.26 268.797 327.051 269.486 325.727L271.461 321.859C270.772 323.182 268.922 323.329 267.398 322.282Z" fill="#26366F"/>
<path d="M255.282 354.608C253.667 353.664 252.76 351.788 253.314 350.339L260.069 332.018C260.578 330.62 262.273 330.235 263.955 331.242C264.762 331.714 265.388 332.391 265.763 333.209C266.139 334.028 266.177 334.812 265.922 335.511L259.168 353.832C258.592 355.167 256.897 355.552 255.282 354.608Z" fill="url(#paint29_linear_864_1267)"/>
<path opacity="0.3" d="M258.258 347.274C257.271 346.728 256.903 345.074 257.412 343.677L259.703 337.388C260.212 335.99 261.413 335.332 262.401 335.878C262.894 336.151 263.227 336.742 263.401 337.373C263.576 338.004 263.501 338.777 263.247 339.475L260.956 345.764C260.401 347.213 259.2 347.871 258.258 347.274Z" fill="#575878"/>
<path opacity="0.35" d="M256.763 350.467C255.889 349.932 255.242 349.142 254.933 348.386L261.388 330.815C260.755 330.973 260.232 331.422 260.023 332.07L254.796 346.198L253.547 349.527L253.201 350.328C252.692 351.726 253.554 353.653 255.169 354.597C256.784 355.541 258.546 355.219 259.055 353.821L260.582 349.628C260.073 351.026 258.378 351.411 256.763 350.467Z" fill="#26366F"/>
<path d="M249.186 386.931C247.502 386.203 246.324 384.355 246.653 382.884L250.288 362.964C250.55 361.43 252.135 360.754 253.774 361.534C254.627 361.955 255.343 362.529 255.765 363.297C256.232 364.013 256.449 364.871 256.262 365.632L252.627 385.552C252.41 387.035 250.871 387.659 249.186 386.931Z" fill="url(#paint30_linear_864_1267)"/>
<path opacity="0.8" d="M250.817 378.903C249.784 378.408 249.212 376.845 249.475 375.311L250.505 368.783C250.767 367.249 252.634 367.773 252.634 367.773C253.42 368.131 254.469 369.297 254.394 370.07L253.203 376.916C252.895 378.501 251.895 379.347 250.817 378.903Z" fill="#575878"/>
<path opacity="0.35" d="M249.995 382.442C249.097 382.072 248.404 381.333 247.916 380.503L251.363 361.344C250.752 361.616 250.342 362.076 250.267 362.849L247.486 378.23L246.844 381.843L246.678 382.718C246.415 384.252 247.526 386.037 249.211 386.766C250.895 387.494 252.435 386.87 252.697 385.336L253.505 380.847C253.265 382.495 251.68 383.17 249.995 382.442Z" fill="#26366F"/>
<path opacity="0.8" d="M250.847 368.259C250.209 368.975 250.446 370.225 251.318 371.038C252.189 371.852 253.429 371.977 254.067 371.262C254.705 370.546 254.468 369.296 253.596 368.483C252.724 367.67 251.485 367.544 250.847 368.259Z" fill="#575878"/>
<path d="M247.508 419.814C245.799 419.25 244.53 417.505 244.612 415.897L245.865 395.066C245.948 393.458 247.398 392.658 249.107 393.222C249.938 393.529 250.7 394.052 251.234 394.831C251.747 395.496 252.077 396.366 252.002 397.139L250.749 417.969C250.6 419.515 249.216 420.378 247.508 419.814Z" fill="url(#paint31_linear_864_1267)"/>
<path opacity="0.3" d="M248.24 411.416C247.183 411.086 246.498 409.511 246.581 407.903L247.053 400.761C247.136 399.153 248.047 398.131 249.058 398.512C249.53 398.671 250.067 399.172 250.354 399.814C250.641 400.456 250.792 401.252 250.784 402.087L250.312 409.23C250.208 410.724 249.297 411.746 248.24 411.416Z" fill="#575878"/>
<path opacity="0.35" d="M247.777 415.103C246.833 414.784 246.116 414.21 245.582 413.431L246.782 393.487C246.238 393.822 245.849 394.395 245.887 395.18L244.903 411.3L244.687 415.124L244.634 416.01C244.551 417.618 245.821 419.364 247.529 419.927C249.238 420.491 250.689 419.691 250.771 418.082L251.04 413.372C250.915 414.753 249.485 415.667 247.777 415.103Z" fill="#26366F"/>
<path d="M253.949 455.027C252.259 454.855 250.649 453.354 250.327 451.649L245.998 429.639C245.675 427.934 246.769 426.707 248.459 426.879C249.247 426.959 250.1 427.38 250.771 428.005C251.442 428.631 251.863 429.398 252.081 430.256L256.41 452.267C256.732 453.971 255.638 455.198 253.949 455.027Z" fill="url(#paint32_linear_864_1267)"/>
<path opacity="0.3" d="M252.475 446.071C251.461 445.968 250.415 444.524 250.046 442.87L248.561 435.306C248.238 433.601 248.769 432.317 249.782 432.42C250.279 432.415 250.861 432.864 251.239 433.404C251.685 434.007 251.993 434.763 252.211 435.621L253.697 443.185C254.019 444.89 253.489 446.174 252.475 446.071Z" fill="#575878"/>
<path opacity="0.35" d="M253.003 450.026C252.102 449.934 251.249 449.513 250.624 448.836L246.512 427.684C246.102 428.144 245.96 428.854 246.111 429.65L249.448 446.711L250.267 450.751L250.507 451.723C250.829 453.428 252.439 454.929 254.129 455.101C255.818 455.272 256.912 454.045 256.59 452.34L255.644 447.339C255.719 448.908 254.693 450.197 253.003 450.026Z" fill="#26366F"/>
<path d="M271.008 490.034C269.539 490.442 267.631 489.412 266.767 487.764L255.578 466.283C254.714 464.635 255.225 462.959 256.695 462.551C257.441 462.403 258.229 462.483 259.037 462.956C259.777 463.365 260.515 464.053 260.891 464.872L272.08 486.352C272.99 487.949 272.478 489.625 271.008 490.034Z" fill="url(#paint33_linear_864_1267)"/>
<path opacity="0.3" d="M266.625 481.171C265.789 481.421 264.356 480.272 263.492 478.624L259.659 471.212C258.795 469.563 258.832 468.006 259.736 467.819C260.21 467.7 260.75 467.922 261.332 468.371C261.914 468.821 262.493 469.548 262.869 470.367L266.702 477.779C267.566 479.427 267.575 480.933 266.625 481.171Z" fill="#575878"/>
<path opacity="0.35" d="M268.483 485.15C267.692 485.348 266.837 485.206 266.029 484.734L255.328 464.083C255.165 464.68 255.27 465.526 255.691 466.294L264.355 482.892L266.371 486.831L266.881 487.774C267.745 489.423 269.652 490.452 271.122 490.044C272.591 489.636 273.103 487.96 272.239 486.312L269.713 481.429C270.465 483.066 269.953 484.742 268.483 485.15Z" fill="#26366F"/>
<path d="M271.576 276.712L348.076 313.212L347.576 309.712L380.076 312.212L413.076 304.212L422.576 286.212L424.576 268.712L439.076 247.212L434.076 307.212L406.576 315.212L410.576 319.212L372.576 330.212L326.076 318.212L342.576 330.212L308.576 315.212L259.076 290.212L239.076 243.212L255.576 177.712L283.076 150.712L331.076 143.712L283.076 159.212L271.576 181.212L269.076 175.712L255.576 222.712L262.576 254.712L263.576 228.712L271.576 276.712Z" fill="url(#paint34_linear_864_1267)"/>
<path d="M283.222 495.018L280.544 485.786L276.214 484.352L268.184 488.313L269.444 501.97L278.341 501.461L283.222 495.018Z" fill="url(#paint35_linear_864_1267)"/>
<path d="M352.852 484.829L352.5 474.467L348.293 473.024L340.472 477.071L342.056 485.223L350.309 490.394L352.852 484.829Z" fill="url(#paint36_linear_864_1267)"/>
<path d="M391.509 259.11C391.631 260.198 391.026 266.074 389.707 267.161C388.487 266.876 388.039 267.279 387.413 267.146C386.873 267.031 386.32 266.943 385.788 266.8C384.34 266.412 382.979 265.574 381.552 265.1C380.611 264.789 379.851 263.262 379.08 262.621C378.494 262.133 378.29 261.385 377.738 260.892C377.266 260.47 375.446 257.246 375.2 256.669C373.734 253.238 372.709 252.094 372.162 248.358C371.675 245.027 369.695 241.801 370.255 238.314C370.395 237.447 370.231 236.55 370.419 235.661L370.948 233.175C371.279 231.617 371.537 230.019 371.946 228.479C372.332 227.024 373.063 225.648 373.786 224.317C374.631 222.76 375.038 220.852 376.04 219.355C376.673 218.409 377.054 216.919 377.513 215.871C378.108 214.511 378.576 212.988 379.09 211.587C379.932 209.291 380.736 206.878 381.76 204.67C382.625 202.802 383.293 200.604 383.886 198.636C384.547 196.442 387.178 191.24 387.909 189.131C387.695 190.354 388.126 197.461 388.116 198.692C388.095 201.477 388.208 204.053 388.743 206.82C389.055 208.437 389.034 210.092 389.301 211.714C389.516 213.014 389.653 214.474 389.678 215.791C389.739 218.985 389.869 222.208 389.197 225.372C387.581 232.974 386.199 241.567 388.706 249.098C389.292 250.859 389.774 252.749 390.281 254.541C390.714 256.073 391.329 257.52 391.509 259.11Z" fill="#C34FBC"/>
<path d="M361.705 277.47C361.677 277.473 361.65 277.475 361.623 277.477C361.635 277.496 361.663 277.492 361.705 277.47C363.021 277.344 365.172 276.619 366.239 275.926C366.793 275.566 367.633 275.323 368.295 275.186C369.712 274.895 371.076 274.724 372.485 274.278C374.657 273.592 376.801 273.01 378.872 272.027C380.097 271.445 381.245 270.793 382.549 270.399C383.629 270.072 384.717 270.039 385.776 269.585C387.231 268.961 388.994 268.58 389.706 267.161C388.487 266.876 388.176 267.111 387.55 266.978C387.011 266.863 386.408 266.962 385.875 266.819C384.427 266.431 383.067 265.593 381.639 265.119C380.699 264.808 379.938 263.281 379.168 262.64C378.581 262.152 378.377 261.404 377.825 260.911C377.353 260.49 375.533 257.265 375.287 256.688C374.551 257.829 373.07 259.823 372.519 261.06C371.558 263.216 370.089 265.098 368.986 267.182C367.744 269.53 366.593 271.973 364.877 274.027C364.608 274.348 362.2 277.209 361.705 277.47Z" fill="#832FA0"/>
<path d="M353.27 271.97C352.552 271.106 351.439 270.194 351.019 269.137C351.375 268.068 352 266.245 352.119 265.685C352.332 264.684 353.053 263.861 353.312 262.896C353.459 262.348 353.858 261.759 354.156 261.276C354.462 260.779 354.474 260.17 354.757 259.649C355.205 258.823 355.502 257.64 355.81 256.731C356.46 254.813 356.708 252.761 357.472 250.899C358.073 249.432 358.109 247.848 358.419 246.392C358.827 244.469 358.633 242.562 359.033 240.681C359.456 238.69 359.683 236.682 360.111 234.669C360.617 232.288 360.92 229.923 361.424 227.553C361.68 226.346 362.409 225.223 362.783 224.033C362.995 223.356 363.933 222.086 364.044 221.373C364.986 222.077 366.804 223.893 367.722 224.672C368.481 225.316 369.047 226.181 369.736 226.899C369.926 227.097 372.618 228.507 372.208 228.535C371.799 230.075 371.541 231.673 371.21 233.231L370.681 235.717C370.493 236.606 370.657 237.502 370.517 238.37C369.957 241.856 371.937 245.083 372.424 248.414C372.971 252.15 373.996 253.294 375.462 256.725C374.725 257.865 373.245 259.86 372.694 261.096C371.733 263.253 370.263 265.134 369.16 267.219C367.918 269.566 366.768 272.01 365.052 274.063C364.76 274.412 361.95 277.749 361.797 277.514C360.733 277.598 357.9 277.913 357.183 276.6C356.858 276.004 356.058 275.318 355.593 274.785C354.789 273.865 354.056 272.916 353.27 271.97Z" fill="#9440A2"/>
<path d="M359.982 223.392C360.285 221.964 360.313 220.854 360.648 219.279C361.189 218.022 363.97 220.845 364.366 221.141C364.255 221.854 363.317 223.123 363.104 223.801C362.731 224.99 362.002 226.114 361.746 227.321C361.242 229.691 360.939 232.055 360.433 234.437C360.005 236.449 359.778 238.458 359.355 240.449C358.955 242.33 359.149 244.236 358.741 246.159C358.431 247.616 358.395 249.2 357.794 250.666C357.03 252.529 356.782 254.581 356.132 256.498C355.824 257.407 355.527 258.591 355.079 259.417C354.796 259.938 354.784 260.546 354.478 261.044C354.179 261.527 353.781 262.115 353.634 262.663C353.375 263.628 352.654 264.452 352.441 265.452C352.322 266.012 351.453 268.311 351.096 269.38C350.239 267.226 349.811 264.548 349.005 262.39C348.603 261.314 348.536 260.075 348.177 258.972C347.854 257.978 347.518 256.807 347.347 255.775C347.051 254 346.484 252.102 346.863 250.319C347.336 248.092 348.592 246.139 349.541 244.093C350.442 242.15 351.289 240.184 352.261 238.297C353.061 236.744 353.531 235.037 354.394 233.487C355.43 231.625 356.467 229.788 357.566 227.965C358.48 226.449 359.601 225.183 359.982 223.392Z" fill="#8A3B96"/>
<path d="M381.822 193.601C382.813 193.047 387.029 189.9 387.91 189.131C387.178 191.24 384.81 196.498 384.149 198.692C383.556 200.66 382.888 202.858 382.023 204.726C380.999 206.934 380.195 209.346 379.353 211.643C378.839 213.044 378.371 214.567 377.776 215.927C377.317 216.975 376.936 218.465 376.303 219.411C375.301 220.908 374.894 222.816 374.049 224.373C373.326 225.704 372.595 227.08 372.209 228.535C370.693 228.823 369.927 227.097 369.736 226.899C369.048 226.181 368.482 225.316 367.722 224.672C366.804 223.893 364.986 222.077 364.045 221.373C363.649 221.077 360.862 220.079 360.593 219.542C361.173 218.473 361.272 216.786 362.129 215.877C362.99 214.964 363.825 214.1 364.602 213.126C365.952 211.433 367.342 209.815 368.488 207.956C369.545 206.241 370.991 205.141 372.295 203.679C373.648 202.164 375.03 200.631 376.466 199.158C377.677 197.916 378.657 196.425 379.982 195.308C380.656 194.74 381.032 194.042 381.822 193.601Z" fill="#C667BC"/>
<path d="M348.36 244.268C346.689 246.088 341.148 251.654 339.419 253.414L339.461 252.201L342.698 247.315C342.698 247.315 343.388 244.837 343.802 243.234C344.358 241.085 344.573 238.842 345.064 236.669C345.603 234.285 344.935 231.937 344.766 229.565C344.631 227.674 344.478 225.754 344.287 223.877C344.141 222.445 344.313 220.817 343.923 219.44C343.552 218.132 343.707 212.446 343.45 211.069C344.191 212.278 346.406 217.059 347.414 218.061C350.048 220.677 352.518 221.058 354.581 224.093C355.343 225.214 356.806 225.672 357.104 226.961C356.112 231.167 355.354 235.932 352.408 239.359C351.662 240.227 351.183 241.252 350.403 242.101C349.731 242.833 349.031 243.538 348.36 244.268Z" fill="#5A2373"/>
<path d="M332.045 245.607C331.123 242.241 330.965 238.711 330.124 235.308C329.797 235.369 330.705 228.248 330.949 227.399C331.111 226.834 331.099 226.205 331.501 225.618C332.653 223.937 333.659 222.117 334.738 220.387C335.307 219.474 335.881 218.56 336.427 217.644C337.004 216.678 337.986 215.967 338.602 215.018C339.229 214.052 340.36 212.887 341.328 212.28C342.342 211.643 342.994 211.316 344.026 210.662C344.283 212.039 343.888 217.904 344.259 219.213C344.649 220.59 344.477 222.218 344.623 223.65C344.813 225.527 344.967 227.446 345.101 229.338C345.27 231.71 345.938 234.058 345.4 236.441C344.909 238.615 344.693 240.858 344.138 243.007C343.724 244.61 342.803 248.017 342.803 248.017L342.797 248.027C342.11 249.147 339.779 252.158 339.419 253.413C338.412 254.297 336.656 255.254 336.17 256.561C336.008 256.997 334.233 259.511 334.038 259.198C333.606 258.508 333.961 257.493 333.837 256.749C333.696 255.901 333.599 255.049 333.44 254.198C332.905 251.327 332.82 248.434 332.045 245.607Z" fill="#772D81"/>
<path d="M360.183 214.458C359.264 218.67 358.089 222.785 357.104 226.96C356.805 225.671 355.242 225.493 354.48 224.371C352.417 221.336 350.268 221.241 347.634 218.625C346.626 217.623 345.629 216.112 344.888 214.904C344.095 213.609 343.866 212.478 343.611 211.017C343.342 209.478 343.57 207.899 343.68 206.366C343.813 204.517 344.812 202.714 344.995 200.876C345.204 198.778 346.011 196.812 346.351 194.732C346.651 192.894 346.839 190.944 347.35 189.163C348.335 185.728 348.753 182.146 349.749 178.67C351.756 171.67 355.385 163.309 357.383 156.34C357.766 160.156 357.829 164.13 358.583 167.944C359.422 172.19 359.17 176.485 359.86 180.721C360.383 183.926 359.762 187.512 359.759 190.756C359.756 193.85 360.079 196.926 360.173 200.014C360.25 202.545 360.472 205.11 360.353 207.647C360.248 209.892 360.669 212.229 360.183 214.458Z" fill="#903A8B"/>
<path d="M357.39 156.342C357.199 156.711 356.093 158.141 355.911 158.4C355.424 159.094 354.936 159.75 354.503 160.479C353.346 162.423 351.041 163.719 349.954 165.718C347.452 170.321 345.2 174.988 342.907 179.673C340.772 184.034 339.318 188.767 337.218 193.138C336.063 195.541 335.521 198.189 334.362 200.578C333.24 202.893 333.264 205.729 332.133 208.04C331.092 210.166 330.475 212.562 329.82 214.846C329.581 215.678 329.154 216.461 328.909 217.315C328.604 218.376 328.614 219.392 328.563 220.487C328.329 225.504 328.901 230.155 330.086 235.072C330.095 235.326 330.125 235.472 330.182 235.462C330.15 235.332 330.118 235.202 330.086 235.072C330.043 233.857 330.471 230.183 330.672 229.481C330.835 228.916 330.941 226.634 331.343 226.048C332.496 224.366 333.502 222.547 334.581 220.816C335.15 219.904 335.723 218.99 336.27 218.074C336.846 217.108 337.829 216.396 338.444 215.448C339.071 214.482 340.202 213.317 341.17 212.709C342.184 212.072 342.585 211.674 343.618 211.019C343.349 209.48 343.578 207.901 343.688 206.368C343.821 204.519 344.819 202.716 345.002 200.878C345.212 198.78 346.018 196.814 346.358 194.734C346.659 192.896 346.846 190.946 347.357 189.165C348.342 185.73 348.76 182.148 349.757 178.672C351.764 171.673 355.392 163.311 357.39 156.342Z" fill="#A5569D"/>
<path d="M340.986 267.61C342.018 268.619 344.828 270.597 346.051 271.372C346.445 271.569 347.966 265.683 348.377 265.026C348.764 264.407 348.694 263.458 348.883 262.772C349.078 262.066 349.379 261.209 349.4 260.478C349.422 259.721 349.392 258.468 349.627 257.79C349.852 257.144 349.56 256.347 349.814 255.744C350.303 254.581 349.958 252.803 349.958 251.547C349.958 249.439 349.347 247.86 348.935 245.883C347.202 243.717 335.424 232.041 333.555 229.952C332.279 229.952 331.028 229.69 329.788 229.69C328.373 229.69 326.571 229.356 325.323 228.643C324.905 228.945 324.315 229.757 323.898 230.288C323.222 231.148 323.052 231.094 322.414 231.988C320.182 235.113 314.837 237.033 315.172 241.732C316.656 243.891 318.873 245.868 320.707 247.702C322.492 249.488 324.346 251.155 326.143 252.953C329.113 255.923 331.935 258.93 334.888 261.883C335.998 262.994 337.313 263.909 338.299 265.15C339.092 266.148 340.087 266.73 340.986 267.61Z" fill="#7838AA"/>
<path d="M342.139 220.261C340.806 218.04 338.531 215.219 336.652 213.876C336.517 214.212 334.98 217.519 334.638 217.904L333.631 230.321C335.5 232.41 347.336 244.265 349.069 246.431C348.74 244.851 348.527 243.416 348.154 241.833C347.939 240.917 347.675 240.015 347.493 239.083C347.262 237.906 347.308 236.544 346.935 235.424C346.56 234.302 346.759 232.784 346.614 231.6C346.476 230.464 346.462 229.261 346.056 228.179C345.022 225.422 343.658 222.793 342.139 220.261Z" fill="#C34FBC"/>
<path d="M330.213 230.201C331.453 230.201 332.355 230.321 333.631 230.321L334.638 217.927C333.721 218.046 332.608 217.766 332.315 217.687C331.468 217.459 330.526 217.162 329.638 217.247C329.095 217.299 326.583 217.232 325.545 217.692C325.576 218.575 325.865 219.241 325.865 219.99C325.865 223.147 325.748 226.008 325.748 229.154C326.996 229.867 328.798 230.201 330.213 230.201Z" fill="#9440A2"/>
<path d="M313.481 239.803C314.215 240.572 314.568 240.853 315.172 241.732C317.891 239.013 320.605 235.504 322.837 232.379C323.476 231.485 323.646 231.539 324.322 230.679C324.739 230.148 325.495 229.617 325.912 229.314C325.912 226.169 325.863 223.026 325.863 219.87C325.863 219.121 326.097 218.126 325.543 217.572C324.634 216.663 323.798 215.497 323.129 214.401C322.224 212.92 321.241 211.639 320.496 210.067C319.766 208.525 319.097 207.194 318.125 205.79C317.061 204.253 315.032 200.966 315.032 199.109C314.273 202.333 312.595 205.926 310.38 208.401C309.728 209.131 309.704 210.768 309.543 211.668C309.318 212.932 309.078 214.217 309.078 215.502C309.078 217.235 309.046 218.99 309.274 220.702C309.768 224.401 309.877 228.216 310.711 231.865C311.187 233.946 310.963 236.008 311.879 237.994C312.171 238.626 312.993 239.292 313.481 239.803Z" fill="#8A3B96"/>
<path d="M316.524 194.12C316.148 195.926 315.361 197.646 314.942 199.423C314.942 201.28 316.971 204.567 318.036 206.104C319.007 207.508 319.676 208.839 320.406 210.38C321.151 211.953 322.134 213.234 323.039 214.715C323.709 215.811 324.545 216.977 325.454 217.886C325.454 218.405 329.004 217.492 329.547 217.44C330.435 217.356 331.377 217.652 332.224 217.881C332.517 217.96 333.63 218.239 334.547 218.12C334.889 217.735 336.705 213.904 336.65 213.876C334.474 211.993 332.735 209.544 330.467 207.744C328.768 206.394 327.471 204.349 326.281 202.565C325.058 200.731 323.668 199.026 322.467 197.17C321.366 195.468 320.498 193.593 319.594 191.784C319.424 191.446 318.554 189.149 318.147 189.841C317.466 190.998 316.796 192.816 316.524 194.12Z" fill="#C667BC"/>
<path d="M395.076 271.212C368.803 288.274 331.168 282.037 313.46 254.77C304.599 241.125 299.263 225.278 299.436 210.712C301.219 192.015 304.721 185.916 313.076 178.712C310.338 190.219 310.633 229.92 318.396 240.662C356.691 287.428 421.35 254.15 395.076 271.212Z" fill="#4E3B21"/>
<path d="M323 376L364 380.5L395 375L388 380.5L359 387.5L323 376Z" fill="url(#paint37_linear_864_1267)"/>
<path d="M217.337 342.065L206.151 302.365L189.438 275.683L197.16 280.113L214.514 304.379L217.337 342.065Z" fill="url(#paint38_linear_864_1267)"/>
</g>
<defs>
<radialGradient id="paint0_radial_864_1267" cx="0" cy="0" r="1" gradientUnits="userSpaceOnUse" gradientTransform="translate(96.5634 46.7727) rotate(67.0387) scale(78.4424 147.721)">
<stop stop-color="#A08464"/>
<stop offset="1" stop-color="#645143"/>
</radialGradient>
<linearGradient id="paint1_linear_864_1267" x1="340.944" y1="488.631" x2="353.022" y2="470.576" gradientUnits="userSpaceOnUse">
<stop stop-color="#493A48"/>
<stop offset="1" stop-color="#706D75"/>
</linearGradient>
<linearGradient id="paint2_linear_864_1267" x1="419.414" y1="271.07" x2="411.866" y2="242.587" gradientUnits="userSpaceOnUse">
<stop stop-color="#706D75"/>
<stop offset="1" stop-color="#B8B2BF"/>
</linearGradient>
<linearGradient id="paint3_linear_864_1267" x1="424.407" y1="307.99" x2="421.325" y2="278.761" gradientUnits="userSpaceOnUse">
<stop stop-color="#706D75"/>
<stop offset="1" stop-color="#B8B2BF"/>
</linearGradient>
<linearGradient id="paint4_linear_864_1267" x1="433.515" y1="324.842" x2="414.302" y2="334.422" gradientUnits="userSpaceOnUse">
<stop stop-color="#706D75"/>
<stop offset="1" stop-color="#B8B2BF"/>
</linearGradient>
<linearGradient id="paint5_linear_864_1267" x1="419.51" y1="379.856" x2="425.058" y2="351.458" gradientUnits="userSpaceOnUse">
<stop stop-color="#706D75"/>
<stop offset="1" stop-color="#B8B2BF"/>
</linearGradient>
<linearGradient id="paint6_linear_864_1267" x1="408.357" y1="415.056" x2="420.095" y2="389.227" gradientUnits="userSpaceOnUse">
<stop stop-color="#706D75"/>
<stop offset="1" stop-color="#B8B2BF"/>
</linearGradient>
<linearGradient id="paint7_linear_864_1267" x1="389.421" y1="444.704" x2="405.564" y2="421.997" gradientUnits="userSpaceOnUse">
<stop stop-color="#706D75"/>
<stop offset="1" stop-color="#B8B2BF"/>
</linearGradient>
<linearGradient id="paint8_linear_864_1267" x1="362.602" y1="468.428" x2="383.63" y2="451.132" gradientUnits="userSpaceOnUse">
<stop stop-color="#706D75"/>
<stop offset="1" stop-color="#B8B2BF"/>
</linearGradient>
<linearGradient id="paint9_linear_864_1267" x1="415.481" y1="254.862" x2="407.033" y2="226.633" gradientUnits="userSpaceOnUse">
<stop stop-color="#706D75"/>
<stop offset="1" stop-color="#B8B2BF"/>
</linearGradient>
<linearGradient id="paint10_linear_864_1267" x1="422.305" y1="289.869" x2="416.955" y2="260.915" gradientUnits="userSpaceOnUse">
<stop stop-color="#706D75"/>
<stop offset="1" stop-color="#B8B2BF"/>
</linearGradient>
<linearGradient id="paint11_linear_864_1267" x1="424.122" y1="327.218" x2="424.095" y2="297.944" gradientUnits="userSpaceOnUse">
<stop stop-color="#706D75"/>
<stop offset="1" stop-color="#B8B2BF"/>
</linearGradient>
<linearGradient id="paint12_linear_864_1267" x1="422.013" y1="363.041" x2="425.338" y2="334.143" gradientUnits="userSpaceOnUse">
<stop stop-color="#706D75"/>
<stop offset="1" stop-color="#B8B2BF"/>
</linearGradient>
<linearGradient id="paint13_linear_864_1267" x1="414.553" y1="398.36" x2="422.351" y2="370.685" gradientUnits="userSpaceOnUse">
<stop stop-color="#706D75"/>
<stop offset="1" stop-color="#B8B2BF"/>
</linearGradient>
<linearGradient id="paint14_linear_864_1267" x1="398.015" y1="429.776" x2="414.031" y2="406.959" gradientUnits="userSpaceOnUse">
<stop stop-color="#706D75"/>
<stop offset="1" stop-color="#B8B2BF"/>
</linearGradient>
<linearGradient id="paint15_linear_864_1267" x1="374.469" y1="456.082" x2="395.431" y2="438.694" gradientUnits="userSpaceOnUse">
<stop stop-color="#706D75"/>
<stop offset="1" stop-color="#B8B2BF"/>
</linearGradient>
<linearGradient id="paint16_linear_864_1267" x1="347.84" y1="479.58" x2="369.824" y2="463.722" gradientUnits="userSpaceOnUse">
<stop stop-color="#706D75"/>
<stop offset="1" stop-color="#B8B2BF"/>
</linearGradient>
<linearGradient id="paint17_linear_864_1267" x1="305.076" y1="340.428" x2="305.076" y2="500.428" gradientUnits="userSpaceOnUse">
<stop offset="0.275" stop-color="#C1B58F"/>
<stop offset="1" stop-color="#A59870"/>
</linearGradient>
<linearGradient id="paint18_linear_864_1267" x1="250.576" y1="67.7119" x2="127.935" y2="191.572" gradientUnits="userSpaceOnUse">
<stop stop-color="#A59870"/>
<stop offset="0.264157" stop-color="#C1B58F"/>
<stop offset="1" stop-color="#A59870"/>
</linearGradient>
<linearGradient id="paint19_linear_864_1267" x1="309.294" y1="454.79" x2="304.858" y2="518.229" gradientUnits="userSpaceOnUse">
<stop stop-color="#908564"/>
<stop offset="1" stop-color="#9D967F"/>
</linearGradient>
<radialGradient id="paint20_radial_864_1267" cx="0" cy="0" r="1" gradientUnits="userSpaceOnUse" gradientTransform="translate(339.424 249.123) rotate(101.173) scale(169.518 168.946)">
<stop stop-color="#A08464"/>
<stop offset="1" stop-color="#645143"/>
</radialGradient>
<linearGradient id="paint21_linear_864_1267" x1="272.45" y1="291.268" x2="280.914" y2="314.053" gradientUnits="userSpaceOnUse">
<stop stop-color="#493A48"/>
<stop offset="1" stop-color="#706D75"/>
</linearGradient>
<linearGradient id="paint22_linear_864_1267" x1="274.383" y1="503.271" x2="277.586" y2="481.097" gradientUnits="userSpaceOnUse">
<stop stop-color="#878A9C"/>
<stop offset="1" stop-color="#706D75"/>
</linearGradient>
<linearGradient id="paint23_linear_864_1267" x1="259.893" y1="338.962" x2="273.307" y2="318.693" gradientUnits="userSpaceOnUse">
<stop stop-color="#706D75"/>
<stop offset="1" stop-color="#B8B2BF"/>
</linearGradient>
<linearGradient id="paint24_linear_864_1267" x1="250.939" y1="369.661" x2="262.61" y2="347.887" gradientUnits="userSpaceOnUse">
<stop stop-color="#706D75"/>
<stop offset="1" stop-color="#B8B2BF"/>
</linearGradient>
<linearGradient id="paint25_linear_864_1267" x1="247.293" y1="402.412" x2="256.561" y2="378.772" gradientUnits="userSpaceOnUse">
<stop stop-color="#706D75"/>
<stop offset="1" stop-color="#B8B2BF"/>
</linearGradient>
<linearGradient id="paint26_linear_864_1267" x1="248.268" y1="435.896" x2="255.018" y2="410.593" gradientUnits="userSpaceOnUse">
<stop stop-color="#706D75"/>
<stop offset="1" stop-color="#B8B2BF"/>
</linearGradient>
<linearGradient id="paint27_linear_864_1267" x1="260.293" y1="472.666" x2="258.664" y2="443.987" gradientUnits="userSpaceOnUse">
<stop stop-color="#706D75"/>
<stop offset="1" stop-color="#B8B2BF"/>
</linearGradient>
<linearGradient id="paint28_linear_864_1267" x1="265.407" y1="326.117" x2="279.223" y2="306.21" gradientUnits="userSpaceOnUse">
<stop stop-color="#706D75"/>
<stop offset="1" stop-color="#B8B2BF"/>
</linearGradient>
<linearGradient id="paint29_linear_864_1267" x1="255.238" y1="354.589" x2="267.653" y2="333.442" gradientUnits="userSpaceOnUse">
<stop stop-color="#706D75"/>
<stop offset="1" stop-color="#B8B2BF"/>
</linearGradient>
<linearGradient id="paint30_linear_864_1267" x1="249.16" y1="386.916" x2="259.291" y2="363.916" gradientUnits="userSpaceOnUse">
<stop stop-color="#706D75"/>
<stop offset="1" stop-color="#B8B2BF"/>
</linearGradient>
<linearGradient id="paint31_linear_864_1267" x1="247.485" y1="419.781" x2="255.698" y2="395.407" gradientUnits="userSpaceOnUse">
<stop stop-color="#706D75"/>
<stop offset="1" stop-color="#B8B2BF"/>
</linearGradient>
<linearGradient id="paint32_linear_864_1267" x1="253.964" y1="455.014" x2="256.555" y2="427.633" gradientUnits="userSpaceOnUse">
<stop stop-color="#706D75"/>
<stop offset="1" stop-color="#B8B2BF"/>
</linearGradient>
<linearGradient id="paint33_linear_864_1267" x1="271" y1="489.987" x2="263.04" y2="460.793" gradientUnits="userSpaceOnUse">
<stop stop-color="#706D75"/>
<stop offset="1" stop-color="#B8B2BF"/>
</linearGradient>
<linearGradient id="paint34_linear_864_1267" x1="410.576" y1="132.212" x2="262.576" y2="330.712" gradientUnits="userSpaceOnUse">
<stop stop-color="#79634C"/>
<stop offset="1" stop-color="#77604B"/>
</linearGradient>
<linearGradient id="paint35_linear_864_1267" x1="276.214" y1="484.352" x2="274.955" y2="502.355" gradientUnits="userSpaceOnUse">
<stop stop-color="#A35CAB"/>
<stop offset="1" stop-color="#77457D"/>
</linearGradient>
<linearGradient id="paint36_linear_864_1267" x1="347.222" y1="472.949" x2="346.023" y2="490.094" gradientUnits="userSpaceOnUse">
<stop stop-color="#A35CAB"/>
<stop offset="1" stop-color="#77457D"/>
</linearGradient>
<linearGradient id="paint37_linear_864_1267" x1="360.5" y1="376" x2="358" y2="401" gradientUnits="userSpaceOnUse">
<stop stop-color="#665343"/>
<stop offset="1" stop-color="#624F40"/>
</linearGradient>
<linearGradient id="paint38_linear_864_1267" x1="203.29" y1="307.296" x2="224.5" y2="300.5" gradientUnits="userSpaceOnUse">
<stop stop-color="#5C4A3D"/>
<stop offset="1" stop-color="#5C4A3C"/>
</linearGradient>
<clipPath id="clip0_864_1267">
<rect width="520" height="560" fill="white" transform="matrix(-1 0 0 1 520 0)"/>
</clipPath>
</defs>
</svg>
