<svg width="1185" height="1011" viewBox="0 0 1185 1011" fill="none" xmlns="http://www.w3.org/2000/svg">
<path d="M457.098 892.97C458.846 844.128 484.781 811.583 511.611 802.369C536.223 775.496 457.098 705.627 430.225 724.054C390.338 747.576 367.223 773.193 364.962 802.369C362.701 831.546 373.751 888.072 386.46 921.378C340.328 942.688 331.95 955.929 346.535 970.517C361.12 985.105 401.988 969.791 457.098 939.805V892.97Z" fill="url(#paint0_linear_1037_1543)"/>
<path d="M756.643 712.755C700.594 702.005 685.28 809.497 700.594 818.711C715.907 827.924 731.452 894.307 720.556 946.933C785.022 993.542 811.16 977.645 827.28 977.645C843.401 977.645 833.324 951.161 795.033 919.292C818.39 881.115 833.465 818.711 827.28 793.373C821.095 768.036 777.416 723.504 756.643 712.755Z" fill="url(#paint1_linear_1037_1543)"/>
<path d="M792.967 347.642C666.911 395.326 810.339 577.05 826.135 599.627L962 599.628C959.26 572.708 918.382 469.645 898.494 445.769C905.048 448.102 902.354 446.447 895.88 442.088C894.125 439.64 893.819 439.895 892.023 437.492C898.58 428.726 903.416 431.527 884.473 426.857C882.409 424.218 881.954 423.509 879.853 420.943C896.974 426.811 895.12 427.714 874.068 414.049C846.821 381.776 817.239 356.469 792.967 347.642Z" fill="url(#paint2_linear_1037_1543)"/>
<path d="M801.444 352.577C693.516 285.69 619.026 265.345 420.671 309.3C310.783 361.317 459.063 471.405 399.072 552.55C339.081 633.696 353.927 727.658 416.071 740.108C478.214 752.558 496.13 787.819 510.057 803.275C523.983 818.732 675.221 852.983 699.031 817.366C722.84 781.75 720.528 783.273 786.518 734.763C852.509 686.253 820.21 582.517 800.516 565.67C780.822 548.822 860.159 388.965 801.444 352.577Z" fill="url(#paint3_linear_1037_1543)"/>
<path d="M681 314.948C664.96 327.756 655.499 352.889 655.499 352.889C687.5 320.299 732.619 341.268 747.197 348.096C761.775 354.924 767.957 345.045 758.449 335.597C737.384 318.761 697.04 302.141 681 314.948Z" fill="#6C5C43"/>
<ellipse cx="9.87573" cy="6.10235" rx="9.87573" ry="6.10235" transform="matrix(0.847583 0.530663 -0.55173 0.834023 771.734 345.593)" fill="#6C5C43"/>
<ellipse cx="6.7607" cy="4.17753" rx="6.7607" ry="4.17753" transform="matrix(0.847583 0.530663 -0.55173 0.834023 791.609 360.187)" fill="#6C5C43"/>
<path d="M402.102 552.156C379.602 567.721 371.6 602.256 371.6 602.256C396.102 530.266 501.577 553.919 517.149 558.191C532.721 562.462 537.053 551.692 526.008 543.986C502.267 530.95 424.601 536.591 402.102 552.156Z" fill="#AFABA4" fill-opacity="0.3"/>
<ellipse cx="9.91401" cy="6.07806" rx="9.91401" ry="6.07806" transform="matrix(0.925587 0.378534 -0.396666 0.917963 540.871 551.596)" fill="#7E776C"/>
<ellipse cx="6.7869" cy="4.16091" rx="6.7869" ry="4.16091" transform="matrix(0.925587 0.378534 -0.396666 0.917963 563.043 562.623)" fill="#7E776C"/>
<ellipse cx="12.4994" cy="6.81026" rx="12.4994" ry="6.81026" transform="matrix(0.999166 0.0408336 -0.0431408 0.999069 656.588 529.461)" fill="#615546"/>
<ellipse cx="12.4994" cy="6.81026" rx="12.4994" ry="6.81026" transform="matrix(0.999166 0.0408336 -0.0431408 0.999069 447.816 506.193)" fill="#615546"/>
<path d="M781.862 464.997C775.498 454.631 769.479 451.536 752.454 452.916C733.244 458.246 733.952 463.002 734.019 471.3C741.495 509.516 769.572 523.825 781.862 520.148C794.152 516.471 803.936 488.59 781.862 464.997Z" fill="#736B5E"/>
<path d="M414.719 641.583C418.543 633.615 418.02 628.304 410.287 616.639C399.234 604.729 396.586 606.81 391.493 609.607C370.935 627.599 373.453 652.333 380.689 659.865C387.925 667.397 409.084 665.121 414.719 641.583Z" fill="#6A6358"/>
<path d="M769.908 529.729C767.925 527.064 766.051 526.268 760.748 526.623C754.764 527.993 754.985 529.216 755.006 531.35C757.335 541.177 766.08 544.856 769.908 543.911C773.736 542.965 776.783 535.796 769.908 529.729Z" fill="#6E6557"/>
<path d="M439.019 651.94C438.478 646.88 436.597 644.405 429.209 640.898C420.104 638.241 419.429 640.046 417.764 642.92C413.086 657.838 421.885 669.336 427.765 670.944C433.645 672.553 443.418 665.234 439.019 651.94Z" fill="#6A6358"/>
<path d="M652.812 747.119C620.789 743.245 588.472 719.402 595.848 693.473C603.225 667.545 611.739 663.469 630.026 654.842C660.272 652.667 665.704 660.609 668.053 680.595C739.034 675.987 810.291 646.057 835.268 634.421C888.539 668.894 957.587 655.317 943.81 686.393C941.93 696.138 887.427 762.025 841.509 769.645C835.84 786.826 835.505 781.246 831.607 770.494C829.183 770.667 831.227 770.55 828.822 770.671C821.27 801.589 823.078 785.321 816.449 771.24C765.692 772.613 717.832 762.613 652.812 747.119Z" fill="url(#paint4_linear_1037_1543)"/>
<path d="M771.374 764.772C778.885 769.801 784.36 770.118 797.39 764.306C811.177 755.251 809.467 752.308 807.402 746.835C792.263 723.695 766.753 722.303 757.997 728.273C749.241 734.242 748.323 755.509 771.374 764.772Z" fill="#6A6358"/>
<path d="M774.082 718.603C779.306 718.862 782.107 717.392 786.797 710.641C790.886 702.059 789.156 701.109 786.49 699.012C772.05 692.048 759.026 698.94 756.495 704.499C753.963 710.058 759.906 720.865 774.082 718.603Z" fill="#6A6358"/>
<path d="M945.591 682.955C966.674 638.95 961.074 624.612 963.175 597.095C922.35 554.993 847.169 579.138 816.286 581.84C812.089 631.394 814.901 643.516 816.439 643.883C817.977 644.251 918.551 660.727 945.591 682.955Z" fill="url(#paint5_linear_1037_1543)"/>
<path d="M814.912 600.531C814.376 611.62 814.071 611.906 813.884 623.208C858.783 615.42 909.321 629.764 958.656 648.688C962.876 636.297 961.941 623.131 962.317 610.221C900.427 595.929 853.139 588.23 814.912 600.531Z" fill="#8B877E"/>
<path d="M814.139 614.654C813.445 626.644 813.665 620.718 813.782 631.826C853.985 642.98 908.036 652.342 947.69 678.256C953.294 667.728 953.941 663.655 954.719 661.079C910.328 638.924 858.106 626.048 814.139 614.654Z" fill="#8B877E"/>
<path d="M214.997 605.499C208.205 535.293 310.729 311.638 412.815 311.019C469.516 329.257 375.927 534.21 349.499 545C319.266 541.677 266.301 660.782 247.499 651C228.98 641.364 222.219 630.398 214.997 605.499Z" fill="url(#paint6_linear_1037_1543)"/>
<path d="M277.168 447.506C269.587 450.002 265.946 453.903 260.976 467.265C257.354 483.208 260.092 483.757 264.479 485.612C287.079 488.658 303.997 470.431 306.174 460.169C308.352 449.908 296.96 436.009 277.168 447.506Z" fill="#81786C"/>
<path d="M300.393 478.263C297.206 481.779 296.516 484.795 298.073 492.861C301.136 501.789 302.739 501.232 305.608 500.819C318.372 495.492 321.549 481.428 319.496 475.728C317.444 470.028 307.166 466.638 300.393 478.263Z" fill="#81786C"/>
<path d="M479.659 717.398C387.377 705.183 345.076 703.388 277.655 660.865L353.537 546.591C393.082 599.165 424.559 620.146 489.204 649.821C498.542 631.995 506.453 626.519 533.924 639.362C547.919 653.956 554.413 660.805 552.035 687.658C549.656 714.51 510.951 725.226 479.659 717.398Z" fill="url(#paint7_linear_1037_1543)"/>
<path d="M479.659 717.398C386.73 706.041 298.655 691.698 234.966 644.201C228.956 585.864 346.089 518.662 354.535 545.93C394.079 598.504 424.559 620.145 489.204 649.821C486.825 676.673 471.05 688.797 479.659 717.398Z" fill="url(#paint8_linear_1037_1543)"/>
<path d="M371.703 568.943C379.021 577.201 378.9 577.58 386.895 585.569C348.777 611.652 331.524 634.731 308.751 683.139C297.061 677.212 289.176 675.732 278.198 669.033C313.338 615.096 335.305 587.075 371.703 568.943Z" fill="#8B877E"/>
<path d="M380.894 579.551C389.758 587.634 384.801 584.112 393.305 591.146C372.502 626.499 362.965 651.818 352.856 697.327C339.967 695.172 340.306 693.038 328.144 688.957C344.245 642.902 357.582 617.639 380.894 579.551Z" fill="#8B877E"/>
<path d="M418.921 612.265C428.986 618.423 423.679 615.248 433.234 621.241C416.891 648.887 409.304 667.578 403.488 707.146C390.603 704.981 390.134 706.24 377.674 703.151C388.791 663.808 400.028 643.852 418.921 612.265Z" fill="#868278"/>
<path d="M465.394 639.3C475.451 645.474 466.808 638.593 476.354 644.603C461.209 675.045 455.571 691.058 458.322 714.959C445.401 712.865 445.353 714.46 432.866 711.424C436.374 691.756 436.062 682.82 465.394 639.3Z" fill="#868278"/>
<path d="M433.574 621.623C443.837 627.599 438.259 625.671 448.789 629.713C438.026 661.967 431.822 680.067 436.331 710.797C423.263 711.192 425.932 709.782 413.104 709.181C411.617 683.44 419.561 660.333 433.574 621.623Z" fill="#868278"/>
<path d="M643.724 249.56L640.544 190.147L588.89 217.686L587.139 188.172L548.031 212.617L531.434 168.816L482.759 240.661C475.418 230.253 470.118 234.324 462.895 240.661C460.782 242.515 458.504 244.563 455.962 246.5C450.356 250.771 443.465 254.497 434.225 254.397C448.157 276.91 444.999 263.079 454.592 278.324C440.787 291.804 433.566 280.455 424.899 272C421.335 263.588 420.145 263.627 420 267.855C417.656 266.245 415.135 265.121 412.313 264.905C411.719 278.268 407.373 297.172 413.569 315C402.675 311.029 404 311 417.157 323C418.301 325.042 419.62 327.055 421.139 329.028C416.137 333.648 405.402 333.006 394.5 332.52C378.5 325 380.5 326 387.65 332.284C384.204 332.225 380.861 332.301 377.806 332.689C379.042 342.82 387.865 354.014 396.5 365.238C384.754 367.377 383.875 370.104 403 373.897C405.536 377.429 407.854 380.937 409.707 384.388C401.014 390.237 395.562 395.559 392.127 404C380.225 418.458 377.351 423.58 389.448 413C388.68 416.61 388.096 420.7 387.65 425.408C402.131 416.907 413.856 420.376 438.751 435.557L423.422 479.674L477.632 475.69C488.357 481.365 495.327 485.472 492.717 497.837C483.513 511.036 475.757 516.543 489.955 506.324C488.723 509.289 487.125 512.603 485.123 516.326C506.064 512.087 518.345 506.972 527.404 497.426C519.093 513.547 528.888 503.874 533.585 489.523C535.753 486.205 537.776 482.477 539.769 478.264C543.098 480.301 545.834 482.357 548.079 484.47C552.316 496.488 553.31 502.975 553.479 505.558C553.604 507.462 553.281 507.245 553.479 505.558C553.666 503.969 554.315 501.076 556.238 497.423C558.576 505.288 557.858 514.47 557.329 526.202C560.525 522.343 563.49 518.898 566.203 515.618C567.435 531.909 565.108 524.593 573.983 505.388C579.331 497.38 582.961 488.73 584.53 475.56C589.421 476.295 584.231 468.89 597.476 477.263C610.721 485.637 611.927 498.77 611.461 484.567C615.386 488 619.805 492.988 625.15 500.324C626.951 495.883 628.41 491.772 629.572 487.958C633.075 495.4 635.87 500.937 631.814 479.359C638.532 447.832 622.2 440.405 619.864 431.375C633.227 434.08 647.217 425.834 655.535 423.536C663.854 421.238 677.334 418.821 663.945 417.061C666.131 415.058 668.015 413.031 669.545 411.104C652.413 395.653 648.888 377.622 656.879 376.126L664.87 374.63C692.159 377.907 691.024 377.119 672.861 373.134L692.169 369.52C674.965 362.538 672.275 349.639 665.24 334.872C670.228 323.267 704.485 319.155 710.5 317C716.516 314.845 746.724 314.643 722.499 308C725.932 306.77 731.094 302.31 733.617 301.181C723.535 290.66 691.454 286.024 674.826 283.06C687.35 271.298 693.888 268.286 706.463 269.169C686.819 245.018 671.279 246.848 643.724 249.56Z" fill="url(#paint9_radial_1037_1543)"/>
<path d="M736.135 147.692C722.283 151.179 679.192 181.662 638.199 183.803L679.719 251.249C693.957 251.138 706.072 250.518 716.573 249.375C720.263 241.337 725.891 242.718 731.929 247.124C734.719 248.142 737.284 247.904 739.607 245.454C740.961 234.585 747.677 234.256 757.266 239.548C760.225 239.75 762.949 240.103 766.48 234.895C769.315 225.123 773.466 224.8 777.997 227.165C780.601 225.171 783.163 223.05 785.738 220.799C800.166 201.056 800.531 173.267 793.441 158.203C786.352 143.139 749.986 144.206 736.135 147.692Z" fill="#746C5F"/>
<path d="M535.399 65.4698C544.118 76.7837 559.084 127.401 589.949 154.462L514.526 178.65C467.047 140.614 456.828 122.358 451.184 92.1686C452.077 67.7317 468.996 45.6838 483.89 38.2437C498.783 30.8036 526.681 54.1559 535.399 65.4698Z" fill="#7C7467"/>
<path d="M733.384 160.537C719.374 164.313 678.832 189.824 640.041 191.9L680.45 247.586C694.302 247.399 702.048 245.302 711.967 244.34C711.967 213.611 732.582 262.767 737.247 237.43C741.911 212.092 757.267 235.458 760.338 234.524C763.409 233.591 763.409 199.807 778.689 222.507C792.752 205.601 794.465 180.753 787.321 169.139C780.176 157.524 747.395 156.762 733.384 160.537Z" fill="url(#paint10_linear_1037_1543)"/>
<path d="M529.606 77.2599C538.27 88.8995 554.312 134.034 583.489 159.68L517.28 178.392C472.601 142.176 462.418 125.308 455.66 97.8744C455.084 75.8911 469.123 55.3181 481.925 50.6207C494.726 45.9232 520.941 65.6204 529.606 77.2599Z" fill="url(#paint11_linear_1037_1543)"/>
<path d="M513.716 156.587C506.394 157.663 512.292 197.776 512.292 197.776L466.531 204.505C466.531 204.505 489.286 231.94 471.893 240.97C454.5 250.001 458.129 245.679 476.5 255.492C477.782 258.433 479.198 261.325 480.595 264.001C463.939 260.529 463 261.501 488.505 277.645L482.502 283.501C467.659 286.45 466.531 288.001 475 290.817L466.531 299.078C459.528 273.501 463.196 291.88 459.528 305.908C443 299.078 430.5 264.001 445 319.001C445 319.001 435.827 326.37 418.911 351.21C401.996 376.05 414.461 462.019 437.497 472C460.532 481.982 559.556 468.371 582.773 448.193C605.991 428.014 637.271 322.828 637.271 322.828C637.271 322.828 640.249 322.633 645 322.235C648.5 330.501 637.271 340.001 653 321.513C663 359.001 657.174 340.586 666.5 320.051C686 339.001 679.077 329.966 680.5 318.501C697.084 316.139 708.006 313.077 709.953 308.416C711.677 304.291 707.058 296.59 701.074 289.001C705.106 280.583 719.5 281.001 692.933 279.501C692.033 278.519 691.093 277.509 690.145 276.501C694.207 266.401 697.245 264.847 687 273.191C682.711 268.719 679 265.001 679 265.001C689.683 269.275 698.824 271.891 681.413 260.501C701.074 257.001 696 267.887 680.578 246.501C679.627 235.704 677.75 223.511 674.047 216.834C666.405 203.056 654.047 182.521 643.013 171.104C631.978 159.688 617.567 150.63 602.918 152.784C588.269 154.938 566.269 145.134 555.816 150.397C545.364 155.659 540.683 161.935 540.683 161.935C540.683 161.935 521.038 155.51 513.716 156.587Z" fill="url(#paint12_linear_1037_1543)"/>
<path d="M615.174 219.681C598.62 218.458 558.271 231.218 543.334 263.153C576.961 290.926 614.427 276.468 624.262 256.739C634.096 237.01 659.493 224.134 659.493 224.134C659.493 224.134 631.728 220.903 615.174 219.681Z" fill="url(#paint13_linear_1037_1543)"/>
<path d="M526.413 185.196C538.151 190.784 534.126 239.581 533.903 260.883C517.272 252.461 508.121 246.391 504.761 235.916C501.401 225.44 503.024 190.83 510.587 176.554C510.587 176.554 514.675 179.609 526.413 185.196Z" fill="url(#paint14_linear_1037_1543)"/>
<path d="M568.641 185.03C557.944 189.842 544.615 198.81 548.502 226.722C576.739 228.815 587.896 211.198 587.367 195.63C586.837 180.062 585.6 176.904 585.6 176.904C585.6 176.904 579.338 180.218 568.641 185.03Z" fill="url(#paint15_linear_1037_1543)"/>
<path d="M561.501 190.5C547.002 193.998 547.442 209.057 547.443 217.89C547.444 226.722 554.351 231.824 572.175 222.483C590 213.141 576 187.003 561.501 190.5Z" fill="#872D43"/>
<path d="M575.3 232.102C558.811 236.079 550.835 250.445 553.493 263.247C556.152 276.049 582.024 283.11 596.434 275.558C610.845 268.007 591.788 228.125 575.3 232.102Z" fill="#872D43"/>
<path d="M530.147 210.027C533.99 220.327 537.117 241.597 530.638 250.31C524.158 259.024 506.994 244.305 503.627 230.224C498.935 198.32 526.304 199.728 530.147 210.027Z" fill="#872D43"/>
<path d="M450.643 475.118C464.994 477.369 503.906 457.038 537.679 429.596C445.003 419.965 448.72 418.848 412.373 371C406.361 395.364 414.644 452.707 424.681 462.717C434.718 472.727 436.293 472.868 450.643 475.118Z" fill="#754E53"/>
<path d="M536.93 430.191C445.8 419.76 446.55 419.012 412.373 371C412.373 371 424.057 440.055 437.172 448.888C450.287 457.721 536.93 430.191 536.93 430.191Z" fill="#9D6774"/>
<path d="M586.818 343.385C586.05 354.134 595.026 419.081 578.5 451.5C581.5 449 582.853 450.779 588.5 442.5C593.407 435.306 602.442 417.02 606.012 410.952C614.198 390.699 641.331 334.172 636.724 320.351C632.117 306.531 639.027 301.924 636.724 298.085C634.421 294.246 587.585 332.636 586.818 343.385Z" fill="#9D6774"/>
<path d="M620.162 329.145L634.417 298.085C626.276 302.001 615.91 310.644 607.546 317.28C594.803 326.754 588.35 338.01 586.815 342.211L589.895 342.211L593.531 336.036L600.745 337.908L600.333 330.537L605.214 326.283L612.791 329.557L611.34 323.95L616.898 316.531L620.162 329.145Z" fill="#ECD66E"/>
<path d="M594.31 377.657L602.94 416.325C610.93 402.466 612.779 395.74 619.925 380.778L620.236 379.991C629.77 355.819 637.918 335.159 637.296 325.669L627.636 338.793L626.772 349.888L615.429 352.194L621.029 362.198L617.118 371.461L604.314 372.058L610.16 378.892L607.464 393.034L594.31 377.657Z" fill="#ECD66E"/>
<defs>
<linearGradient id="paint0_linear_1037_1543" x1="383.312" y1="976.1" x2="472.982" y2="721" gradientUnits="userSpaceOnUse">
<stop stop-color="#898072"/>
<stop offset="1" stop-color="#6F6659"/>
</linearGradient>
<linearGradient id="paint1_linear_1037_1543" x1="795.976" y1="980.259" x2="751.225" y2="751.913" gradientUnits="userSpaceOnUse">
<stop stop-color="#898072"/>
<stop offset="1" stop-color="#6F6659"/>
</linearGradient>
<linearGradient id="paint2_linear_1037_1543" x1="816.715" y1="349.466" x2="890.706" y2="550.706" gradientUnits="userSpaceOnUse">
<stop stop-color="#898072"/>
<stop offset="1" stop-color="#6F6659"/>
</linearGradient>
<linearGradient id="paint3_linear_1037_1543" x1="585.535" y1="286" x2="595.462" y2="588.04" gradientUnits="userSpaceOnUse">
<stop stop-color="#8A8173"/>
<stop offset="1" stop-color="#635A4E"/>
</linearGradient>
<linearGradient id="paint4_linear_1037_1543" x1="1074.56" y1="670.623" x2="863.527" y2="708.546" gradientUnits="userSpaceOnUse">
<stop stop-color="#898072"/>
<stop offset="1" stop-color="#6F6659"/>
</linearGradient>
<linearGradient id="paint5_linear_1037_1543" x1="883.767" y1="540.359" x2="825.767" y2="783.841" gradientUnits="userSpaceOnUse">
<stop stop-color="#989590"/>
<stop offset="1" stop-color="#8E8982"/>
</linearGradient>
<linearGradient id="paint6_linear_1037_1543" x1="375.871" y1="320.495" x2="296.664" y2="562.723" gradientUnits="userSpaceOnUse">
<stop stop-color="#898072"/>
<stop offset="1" stop-color="#6F6659"/>
</linearGradient>
<linearGradient id="paint7_linear_1037_1543" x1="113.109" y1="495.206" x2="347.512" y2="595.223" gradientUnits="userSpaceOnUse">
<stop stop-color="#898072"/>
<stop offset="1" stop-color="#6F6659"/>
</linearGradient>
<linearGradient id="paint8_linear_1037_1543" x1="285.079" y1="564.349" x2="508.879" y2="676.425" gradientUnits="userSpaceOnUse">
<stop stop-color="#989590"/>
<stop offset="1" stop-color="#8E8982"/>
</linearGradient>
<radialGradient id="paint9_radial_1037_1543" cx="0" cy="0" r="1" gradientUnits="userSpaceOnUse" gradientTransform="translate(455.5 319.5) rotate(27.887) scale(366.19 387.15)">
<stop stop-color="#7E6B51"/>
<stop offset="0.415" stop-color="#867358"/>
<stop offset="1" stop-color="#A39889"/>
</radialGradient>
<linearGradient id="paint10_linear_1037_1543" x1="795.229" y1="198.2" x2="649.064" y2="231.501" gradientUnits="userSpaceOnUse">
<stop stop-color="#754E53"/>
<stop offset="1" stop-color="#90686D"/>
</linearGradient>
<linearGradient id="paint11_linear_1037_1543" x1="457.728" y1="68.5403" x2="551.892" y2="185.187" gradientUnits="userSpaceOnUse">
<stop stop-color="#754E53"/>
<stop offset="1" stop-color="#90686D"/>
</linearGradient>
<linearGradient id="paint12_linear_1037_1543" x1="508" y1="223.001" x2="613.998" y2="394.5" gradientUnits="userSpaceOnUse">
<stop stop-color="#968E81"/>
<stop offset="1" stop-color="#5C5547"/>
</linearGradient>
<linearGradient id="paint13_linear_1037_1543" x1="599.998" y1="197.5" x2="572.998" y2="251.5" gradientUnits="userSpaceOnUse">
<stop stop-color="#ECD66E"/>
<stop offset="1" stop-color="#C3AD46"/>
</linearGradient>
<linearGradient id="paint14_linear_1037_1543" x1="599.998" y1="197.5" x2="572.998" y2="251.5" gradientUnits="userSpaceOnUse">
<stop stop-color="#ECD66E"/>
<stop offset="1" stop-color="#C3AD46"/>
</linearGradient>
<linearGradient id="paint15_linear_1037_1543" x1="560.227" y1="161.938" x2="561.626" y2="204.578" gradientUnits="userSpaceOnUse">
<stop stop-color="#ECD66E"/>
<stop offset="1" stop-color="#C3AD46"/>
</linearGradient>
</defs>
</svg>
