<svg width="1185" height="1011" viewBox="0 0 1185 1011" fill="none" xmlns="http://www.w3.org/2000/svg">
<g clip-path="url(#clip0_1037_1168)">
<path d="M457.098 892.97C458.846 844.128 484.781 811.583 511.611 802.369C536.223 775.496 457.098 705.627 430.225 724.054C390.338 747.576 367.223 773.193 364.962 802.369C362.701 831.546 373.751 888.072 386.46 921.378C340.328 942.688 331.95 955.929 346.535 970.517C361.12 985.105 401.988 969.791 457.098 939.805V892.97Z" fill="url(#paint0_linear_1037_1168)"/>
<path d="M756.643 712.755C700.594 702.005 685.28 809.497 700.594 818.711C715.907 827.924 731.452 894.307 720.556 946.933C785.022 993.542 811.16 977.645 827.28 977.645C843.401 977.645 833.324 951.161 795.033 919.292C818.39 881.115 833.465 818.711 827.28 793.373C821.095 768.036 777.416 723.504 756.643 712.755Z" fill="url(#paint1_linear_1037_1168)"/>
<path d="M1014.04 728.106C1010.17 760.128 986.327 792.446 960.399 785.069C934.47 777.692 930.395 769.179 921.768 750.892C919.593 720.646 927.535 715.214 947.521 712.865C942.938 642.276 911.589 574.988 899.799 549.68L899.604 549.262C947.015 502.822 968.788 450.852 993 461.001C1003.17 469.419 1026.74 503.477 1036.57 539.409C1053.75 545.077 1048.17 545.412 1037.42 549.311C1037.59 551.735 1037.48 549.691 1037.6 552.095C1068.52 559.648 1052.25 557.839 1038.17 564.468C1039.54 615.226 1029.54 663.085 1014.04 728.106Z" fill="url(#paint2_linear_1037_1168)"/>
<path d="M1031.7 609.543C1036.73 602.032 1037.04 596.557 1031.23 583.527C1022.18 569.74 1019.23 571.45 1013.76 573.515C990.621 588.654 989.229 614.164 995.198 622.92C1001.17 631.676 1022.44 632.594 1031.7 609.543Z" fill="#6A6358"/>
<path d="M985.528 606.836C985.788 601.612 984.317 598.811 977.566 594.121C968.985 590.032 968.035 591.762 965.937 594.428C958.974 608.868 965.866 621.892 971.425 624.423C976.983 626.955 987.791 621.012 985.528 606.836Z" fill="#6A6358"/>
<path d="M756.573 336.154C662.479 432.644 880.973 545.109 904.831 558.895L992.006 458.313C972.126 436.268 921.798 393.723 893.683 380.49C900.609 379.834 897.467 379.473 889.758 378.258C887.133 376.782 886.963 377.142 884.32 375.723C886.559 365.007 892.124 365.502 872.983 369.276C869.996 367.756 869.285 367.306 866.296 365.868C884.293 363.951 882.994 365.552 858.14 362.065C819.807 344.331 782.301 333.897 756.573 336.154Z" fill="url(#paint3_linear_1037_1168)"/>
<path d="M994.09 460.94C966.522 420.679 951.305 418.36 928.526 402.782C871.652 417.086 854.971 494.267 841.87 522.364C882.686 550.775 904.649 560.465 905.736 559.317C906.823 558.169 961.32 473.243 994.09 460.94Z" fill="url(#paint4_linear_1037_1168)"/>
<path d="M857.368 532.902C866.704 538.91 866.799 539.317 876.493 545.13C892.198 502.352 929.889 465.757 970.945 432.494C962.325 422.644 950.455 416.871 939.463 410.09C896.141 456.543 865.829 493.646 857.368 532.902Z" fill="#8B877E"/>
<path d="M869.214 540.63C879.251 547.226 874.229 544.072 883.907 549.525C913.668 520.285 948.802 478.157 991.071 456.773C984.755 446.656 981.551 444.058 979.71 442.096C938.327 469.463 901.066 508.25 869.214 540.63Z" fill="#8B877E"/>
<path d="M801.428 343.744C693.485 275.684 618.984 254.983 420.601 299.709C310.698 352.638 458.998 464.654 398.999 547.222C339 629.79 353.848 725.399 416 738.067C478.153 750.735 496.071 786.614 509.999 802.341C523.928 818.069 675.187 852.92 699 816.68C722.813 780.439 720.501 781.989 786.5 732.629C852.5 683.268 820.197 577.714 800.5 560.571C780.803 543.429 860.151 380.77 801.428 343.744Z" fill="url(#paint5_linear_1037_1168)"/>
<path d="M681 306.44C664.96 319.458 655.499 345.005 655.499 345.005C687.5 311.879 732.619 333.193 747.197 340.133C761.775 347.074 767.957 337.032 758.449 327.428C737.384 310.316 697.04 293.422 681 306.44Z" fill="#6C5C43"/>
<ellipse cx="9.92171" cy="6.17229" rx="9.92171" ry="6.17229" transform="matrix(0.843655 0.536885 -0.545479 0.838125 771.734 337.589)" fill="#6C5C43"/>
<ellipse cx="6.79218" cy="4.22541" rx="6.79218" ry="4.22541" transform="matrix(0.843655 0.536885 -0.545479 0.838125 791.609 352.422)" fill="#6C5C43"/>
<path d="M402.102 547.546C379.602 563.367 371.6 598.471 371.6 598.471C396.102 525.297 501.577 549.339 517.149 553.681C532.721 558.022 537.053 547.075 526.008 539.242C502.267 525.992 424.601 531.725 402.102 547.546Z" fill="#AFABA4" fill-opacity="0.3"/>
<ellipse cx="9.93752" cy="6.16235" rx="9.93752" ry="6.16235" transform="matrix(0.923397 0.383845 -0.391241 0.920288 540.871 546.978)" fill="#7E776C"/>
<ellipse cx="6.803" cy="4.21861" rx="6.803" ry="4.21861" transform="matrix(0.923397 0.383845 -0.391241 0.920288 563.043 558.186)" fill="#7E776C"/>
<ellipse cx="12.4998" cy="6.92198" rx="12.4998" ry="6.92198" transform="matrix(0.999138 0.0415036 -0.0424444 0.999099 656.588 524.479)" fill="#615546"/>
<ellipse cx="12.4998" cy="6.92198" rx="12.4998" ry="6.92198" transform="matrix(0.999138 0.0415036 -0.0424444 0.999099 447.816 500.829)" fill="#615546"/>
<path d="M781.862 458.955C775.498 448.419 769.479 445.273 752.454 446.676C733.244 452.094 733.952 456.928 734.019 465.362C741.495 504.206 769.572 518.75 781.862 515.013C794.152 511.276 803.936 482.936 781.862 458.955Z" fill="#736B5E"/>
<path d="M414.719 638.444C418.543 630.345 418.02 624.946 410.287 613.09C399.234 600.984 396.586 603.099 391.493 605.943C370.935 624.23 373.453 649.37 380.689 657.026C387.925 664.682 409.084 662.369 414.719 638.444Z" fill="#6A6358"/>
<path d="M769.908 524.751C767.925 522.042 766.051 521.233 760.748 521.594C754.764 522.987 754.985 524.23 755.006 526.399C757.335 536.387 766.08 540.127 769.908 539.166C773.736 538.205 776.783 530.918 769.908 524.751Z" fill="#6E6557"/>
<path d="M439.019 648.971C438.478 643.827 436.597 641.312 429.209 637.747C420.104 635.046 419.429 636.881 417.764 639.803C413.086 654.965 421.885 666.653 427.765 668.287C433.645 669.922 443.418 662.483 439.019 648.971Z" fill="#6A6358"/>
<path d="M191.5 385.5C240.802 337.986 412.335 253.169 483.632 289.855C523.618 334 311.904 483.161 283.623 479.291C259.101 461.296 257.337 442.659 245.945 424.787C234.725 407.182 194.203 413.828 191.5 385.5Z" fill="url(#paint6_linear_1037_1168)"/>
<path d="M292.982 333.686C284.363 330.965 279.018 332.197 268.141 341.43C257.447 353.987 259.914 356.333 263.43 361.007C284.451 378.973 309.328 373.155 316.059 364.969C322.789 356.784 317.706 336.113 292.982 333.686Z" fill="#81786C"/>
<path d="M303.331 378.763C298.245 379.979 295.969 382.176 293.36 389.971C291.841 399.355 293.769 399.782 296.916 401.047C312.729 403.682 323.298 393.414 324.169 387.368C325.039 381.323 316.304 372.616 303.331 378.763Z" fill="#81786C"/>
<path d="M128.273 600.313C140.489 508.03 142.284 465.73 184.806 398.309L299.081 474.19C246.507 513.735 225.526 545.212 195.85 609.857C213.677 619.195 219.152 627.107 206.31 654.577C191.716 668.572 184.866 675.066 158.014 672.688C131.162 670.309 120.446 631.604 128.273 600.313Z" fill="url(#paint7_linear_1037_1168)"/>
<path d="M128.276 600.312C139.633 507.382 144.264 448.822 191.761 385.133C250.098 379.123 327.011 466.742 299.743 475.188C247.169 514.732 225.528 545.212 195.853 609.857C169 607.478 156.876 591.703 128.276 600.312Z" fill="url(#paint8_linear_1037_1168)"/>
<path d="M276.729 492.356C268.477 499.68 268.101 499.563 260.112 507.558C234.475 469.885 211.675 452.912 163.762 430.633C169.728 418.982 173.533 412.581 180.262 401.633C233.581 436.154 258.975 456.336 276.729 492.356Z" fill="#8B877E"/>
<path d="M266.122 501.547C258.039 510.411 261.561 505.454 254.526 513.958C219.174 493.155 193.855 483.618 148.346 473.51C150.5 460.62 152.635 460.959 156.716 448.797C202.771 464.898 228.034 478.235 266.122 501.547Z" fill="#8B877E"/>
<path d="M233.409 539.573C227.251 549.638 230.425 544.331 224.433 553.886C196.787 537.543 178.095 529.956 138.528 524.14C140.693 511.255 139.434 510.786 142.522 498.326C181.866 509.443 201.822 520.681 233.409 539.573Z" fill="#868278"/>
<path d="M206.373 586.046C200.198 596.103 207.08 587.461 201.07 597.007C170.628 581.861 154.614 576.223 130.714 578.975C132.808 566.054 131.213 566.005 134.249 553.519C153.917 557.026 162.853 556.714 206.373 586.046Z" fill="#868278"/>
<path d="M224.051 554.227C218.075 564.49 220.003 558.911 215.961 569.442C183.707 558.679 165.607 552.475 134.877 556.984C134.482 543.915 135.892 546.584 136.492 533.756C162.233 532.269 185.341 540.213 224.051 554.227Z" fill="#868278"/>
<path d="M643.724 241.56L640.544 182.147L588.89 209.686L587.139 180.172L548.031 204.617L531.434 160.816L482.759 232.661C475.418 222.253 470.118 226.324 462.895 232.661C460.782 234.515 458.504 236.563 455.962 238.5C450.356 242.771 443.465 246.497 434.225 246.397C448.157 268.91 444.999 255.079 454.592 270.324C440.787 283.804 433.566 272.455 424.899 264C421.335 255.588 420.145 255.627 420 259.855C417.656 258.245 415.135 257.121 412.313 256.905C411.719 270.268 407.373 289.172 413.569 307C402.675 303.029 404 303 417.157 315C418.301 317.042 419.62 319.055 421.139 321.028C416.137 325.648 405.402 325.006 394.5 324.52C378.5 317 380.5 318 387.65 324.284C384.204 324.225 380.861 324.301 377.806 324.689C379.042 334.82 387.865 346.014 396.5 357.238C384.754 359.377 383.875 362.104 403 365.897C405.536 369.429 407.854 372.937 409.707 376.388C401.014 382.237 395.562 387.559 392.127 396C380.225 410.458 377.351 415.58 389.448 405C388.68 408.61 388.096 412.7 387.65 417.408C402.131 408.907 413.856 412.376 438.751 427.557L423.422 471.674L477.632 467.69C488.357 473.365 495.327 477.472 492.717 489.837C483.513 503.036 475.757 508.543 489.955 498.324C488.723 501.289 487.125 504.603 485.123 508.326C506.064 504.087 518.345 498.972 527.404 489.426C519.093 505.547 528.888 495.874 533.585 481.523C535.753 478.205 537.776 474.477 539.769 470.264C543.098 472.301 545.834 474.357 548.079 476.47C552.316 488.488 553.31 494.975 553.479 497.558C553.604 499.462 553.281 499.245 553.479 497.558C553.666 495.969 554.315 493.076 556.238 489.423C558.576 497.288 557.858 506.47 557.329 518.202C560.525 514.343 563.49 510.898 566.203 507.618C567.435 523.909 565.108 516.593 573.983 497.388C579.331 489.38 582.961 480.73 584.53 467.56C589.421 468.295 584.231 460.89 597.476 469.263C610.721 477.637 611.927 490.77 611.461 476.567C615.386 480 619.805 484.988 625.15 492.324C626.951 487.883 628.41 483.772 629.572 479.958C633.075 487.4 635.87 492.937 631.814 471.359C638.532 439.832 622.2 432.405 619.864 423.375C633.227 426.08 647.217 417.834 655.535 415.536C663.854 413.238 677.334 410.821 663.945 409.061C666.131 407.058 668.015 405.031 669.545 403.104C652.413 387.653 648.888 369.622 656.879 368.126L664.87 366.63C692.159 369.907 691.024 369.119 672.861 365.134L692.169 361.52C674.965 354.538 672.275 341.639 665.24 326.872C670.228 315.267 704.485 311.155 710.5 309C716.516 306.845 746.724 306.643 722.499 300C725.932 298.77 731.094 294.31 733.617 293.181C723.535 282.66 691.454 278.024 674.826 275.06C687.35 263.298 693.888 260.286 706.463 261.169C686.819 237.018 671.279 238.848 643.724 241.56Z" fill="url(#paint9_radial_1037_1168)"/>
<path d="M736.135 139.692C722.283 143.179 679.192 173.662 638.199 175.803L679.719 243.249C693.957 243.138 706.072 242.518 716.573 241.375C720.263 233.337 725.891 234.718 731.929 239.124C734.719 240.142 737.284 239.904 739.607 237.454C740.961 226.585 747.677 226.256 757.266 231.548C760.225 231.75 762.949 232.103 766.48 226.895C769.315 217.123 773.466 216.8 777.997 219.165C780.601 217.171 783.163 215.05 785.738 212.799C800.166 193.056 800.531 165.267 793.441 150.203C786.352 135.139 749.986 136.206 736.135 139.692Z" fill="#746C5F"/>
<path d="M535.399 57.4698C544.118 68.7837 559.084 119.401 589.949 146.462L514.526 170.65C467.047 132.614 456.828 114.358 451.184 84.1686C452.077 59.7317 468.996 37.6838 483.89 30.2437C498.783 22.8036 526.681 46.1559 535.399 57.4698Z" fill="#7C7467"/>
<path d="M733.384 152.537C719.374 156.313 678.832 181.824 640.041 183.9L680.45 239.586C694.302 239.399 702.048 237.302 711.967 236.34C711.967 205.611 732.582 254.767 737.247 229.43C741.911 204.092 757.267 227.458 760.338 226.524C763.409 225.591 763.409 191.807 778.689 214.507C792.752 197.601 794.465 172.753 787.321 161.139C780.176 149.524 747.395 148.762 733.384 152.537Z" fill="url(#paint10_linear_1037_1168)"/>
<path d="M529.606 69.2599C538.27 80.8995 554.312 126.034 583.489 151.68L517.28 170.392C472.601 134.176 462.418 117.308 455.66 89.8744C455.084 67.8911 469.123 47.3181 481.925 42.6207C494.726 37.9232 520.941 57.6204 529.606 69.2599Z" fill="url(#paint11_linear_1037_1168)"/>
<path d="M513.716 148.587C506.394 149.663 512.292 189.776 512.292 189.776L466.531 196.505C466.531 196.505 489.286 223.94 471.893 232.97C454.5 242.001 458.129 237.679 476.5 247.492C477.782 250.433 479.198 253.325 480.595 256.001C463.939 252.529 463 253.501 488.505 269.645L482.502 275.501C467.659 278.45 466.531 280.001 475 282.817L466.531 291.078C459.528 265.501 463.196 283.88 459.528 297.908C443 291.078 430.5 256.001 445 311.001C445 311.001 435.827 318.37 418.911 343.21C401.996 368.05 414.461 454.019 437.497 464C460.532 473.982 559.556 460.371 582.773 440.193C605.991 420.014 637.271 314.828 637.271 314.828C637.271 314.828 640.249 314.633 645 314.235C648.5 322.501 637.271 332.001 653 313.513C663 351.001 657.174 332.586 666.5 312.051C686 331.001 679.077 321.966 680.5 310.501C697.084 308.139 708.006 305.077 709.953 300.416C711.677 296.291 707.058 288.59 701.074 281.001C705.106 272.583 719.5 273.001 692.933 271.501C692.033 270.519 691.093 269.509 690.145 268.501C694.207 258.401 697.245 256.847 687 265.191C682.711 260.719 679 257.001 679 257.001C689.683 261.275 698.824 263.891 681.413 252.501C701.074 249.001 696 259.887 680.578 238.501C679.627 227.704 677.75 215.511 674.047 208.834C666.405 195.056 654.047 174.521 643.013 163.104C631.978 151.688 617.567 142.63 602.918 144.784C588.269 146.938 566.269 137.134 555.816 142.397C545.364 147.659 540.683 153.935 540.683 153.935C540.683 153.935 521.038 147.51 513.716 148.587Z" fill="url(#paint12_linear_1037_1168)"/>
<path d="M615.174 211.681C598.62 210.458 558.271 223.218 543.334 255.153C576.961 282.926 614.427 268.468 624.262 248.739C634.096 229.01 659.493 216.134 659.493 216.134C659.493 216.134 631.728 212.903 615.174 211.681Z" fill="url(#paint13_linear_1037_1168)"/>
<path d="M526.413 177.196C538.151 182.784 534.126 231.581 533.903 252.883C517.272 244.461 508.121 238.391 504.761 227.916C501.401 217.44 503.024 182.83 510.587 168.554C510.587 168.554 514.675 171.609 526.413 177.196Z" fill="url(#paint14_linear_1037_1168)"/>
<path d="M568.641 177.03C557.944 181.842 544.615 190.81 548.502 218.722C576.739 220.815 587.896 203.198 587.367 187.63C586.837 172.062 585.6 168.904 585.6 168.904C585.6 168.904 579.338 172.218 568.641 177.03Z" fill="url(#paint15_linear_1037_1168)"/>
<path d="M561.501 182.5C547.002 185.998 547.442 201.057 547.443 209.89C547.444 218.722 554.351 223.824 572.175 214.483C590 205.141 576 179.003 561.501 182.5Z" fill="#872D43"/>
<path d="M575.3 224.102C558.811 228.079 550.835 242.445 553.493 255.247C556.152 268.049 582.024 275.11 596.434 267.558C610.845 260.007 591.788 220.125 575.3 224.102Z" fill="#872D43"/>
<path d="M530.147 202.027C533.99 212.327 537.117 233.597 530.638 242.31C524.158 251.024 506.994 236.305 503.627 222.224C498.935 190.32 526.304 191.728 530.147 202.027Z" fill="#872D43"/>
<path d="M450.643 467.118C464.994 469.369 503.906 449.038 537.679 421.596C445.003 411.965 448.72 410.848 412.373 363C406.361 387.364 414.644 444.707 424.681 454.717C434.718 464.727 436.293 464.868 450.643 467.118Z" fill="#754E53"/>
<path d="M536.93 422.191C445.8 411.76 446.55 411.012 412.373 363C412.373 363 424.057 432.055 437.172 440.888C450.287 449.721 536.93 422.191 536.93 422.191Z" fill="#9D6774"/>
<path d="M586.818 335.385C586.05 346.134 595.026 411.081 578.5 443.5C581.5 441 582.853 442.779 588.5 434.5C593.407 427.306 602.442 409.02 606.012 402.952C614.198 382.699 641.331 326.172 636.724 312.351C632.117 298.531 639.027 293.924 636.724 290.085C634.421 286.246 587.585 324.636 586.818 335.385Z" fill="#9D6774"/>
<path d="M620.162 321.145L634.417 290.085C626.276 294.001 615.91 302.644 607.546 309.28C594.803 318.754 588.35 330.01 586.815 334.211L589.895 334.211L593.531 328.036L600.745 329.908L600.333 322.537L605.214 318.283L612.791 321.557L611.34 315.95L616.898 308.531L620.162 321.145Z" fill="#ECD66E"/>
<path d="M594.31 369.657L602.94 408.325C610.93 394.466 612.779 387.74 619.925 372.778L620.236 371.991C629.77 347.819 637.918 327.159 637.296 317.669L627.636 330.793L626.772 341.888L615.429 344.194L621.029 354.198L617.118 363.461L604.314 364.058L610.16 370.892L607.464 385.034L594.31 369.657Z" fill="#ECD66E"/>
</g>
<defs>
<linearGradient id="paint0_linear_1037_1168" x1="383.312" y1="976.1" x2="472.982" y2="721" gradientUnits="userSpaceOnUse">
<stop stop-color="#898072"/>
<stop offset="1" stop-color="#6F6659"/>
</linearGradient>
<linearGradient id="paint1_linear_1037_1168" x1="795.976" y1="980.259" x2="751.225" y2="751.913" gradientUnits="userSpaceOnUse">
<stop stop-color="#898072"/>
<stop offset="1" stop-color="#6F6659"/>
</linearGradient>
<linearGradient id="paint2_linear_1037_1168" x1="937.536" y1="306.358" x2="975.459" y2="517.39" gradientUnits="userSpaceOnUse">
<stop stop-color="#898072"/>
<stop offset="1" stop-color="#6F6659"/>
</linearGradient>
<linearGradient id="paint3_linear_1037_1168" x1="778.863" y1="327.773" x2="930.971" y2="478.889" gradientUnits="userSpaceOnUse">
<stop stop-color="#898072"/>
<stop offset="1" stop-color="#6F6659"/>
</linearGradient>
<linearGradient id="paint4_linear_1037_1168" x1="839.687" y1="443.184" x2="1021.55" y2="615.154" gradientUnits="userSpaceOnUse">
<stop stop-color="#989590"/>
<stop offset="1" stop-color="#8E8982"/>
</linearGradient>
<linearGradient id="paint5_linear_1037_1168" x1="585.489" y1="276" x2="595.765" y2="583.322" gradientUnits="userSpaceOnUse">
<stop stop-color="#8A8173"/>
<stop offset="1" stop-color="#635A4E"/>
</linearGradient>
<linearGradient id="paint6_linear_1037_1168" x1="446.898" y1="279.587" x2="257.189" y2="449.759" gradientUnits="userSpaceOnUse">
<stop stop-color="#898072"/>
<stop offset="1" stop-color="#6F6659"/>
</linearGradient>
<linearGradient id="paint7_linear_1037_1168" x1="350.466" y1="233.762" x2="250.449" y2="468.165" gradientUnits="userSpaceOnUse">
<stop stop-color="#898072"/>
<stop offset="1" stop-color="#6F6659"/>
</linearGradient>
<linearGradient id="paint8_linear_1037_1168" x1="281.326" y1="405.736" x2="169.25" y2="629.535" gradientUnits="userSpaceOnUse">
<stop stop-color="#989590"/>
<stop offset="1" stop-color="#8E8982"/>
</linearGradient>
<radialGradient id="paint9_radial_1037_1168" cx="0" cy="0" r="1" gradientUnits="userSpaceOnUse" gradientTransform="translate(455.5 311.5) rotate(27.887) scale(366.19 387.15)">
<stop stop-color="#7E6B51"/>
<stop offset="0.415" stop-color="#867358"/>
<stop offset="1" stop-color="#A39889"/>
</radialGradient>
<linearGradient id="paint10_linear_1037_1168" x1="795.229" y1="190.2" x2="649.064" y2="223.501" gradientUnits="userSpaceOnUse">
<stop stop-color="#754E53"/>
<stop offset="1" stop-color="#90686D"/>
</linearGradient>
<linearGradient id="paint11_linear_1037_1168" x1="457.728" y1="60.5403" x2="551.892" y2="177.187" gradientUnits="userSpaceOnUse">
<stop stop-color="#754E53"/>
<stop offset="1" stop-color="#90686D"/>
</linearGradient>
<linearGradient id="paint12_linear_1037_1168" x1="508" y1="215.001" x2="613.998" y2="386.5" gradientUnits="userSpaceOnUse">
<stop stop-color="#968E81"/>
<stop offset="1" stop-color="#5C5547"/>
</linearGradient>
<linearGradient id="paint13_linear_1037_1168" x1="599.998" y1="189.5" x2="572.998" y2="243.5" gradientUnits="userSpaceOnUse">
<stop stop-color="#ECD66E"/>
<stop offset="1" stop-color="#C3AD46"/>
</linearGradient>
<linearGradient id="paint14_linear_1037_1168" x1="599.998" y1="189.5" x2="572.998" y2="243.5" gradientUnits="userSpaceOnUse">
<stop stop-color="#ECD66E"/>
<stop offset="1" stop-color="#C3AD46"/>
</linearGradient>
<linearGradient id="paint15_linear_1037_1168" x1="560.227" y1="153.938" x2="561.626" y2="196.578" gradientUnits="userSpaceOnUse">
<stop stop-color="#ECD66E"/>
<stop offset="1" stop-color="#C3AD46"/>
</linearGradient>
<clipPath id="clip0_1037_1168">
<rect width="1185" height="1011" fill="white"/>
</clipPath>
</defs>
</svg>
