<svg width="157" height="157" viewBox="0 0 157 157" fill="none" xmlns="http://www.w3.org/2000/svg">
<g opacity="0.5" filter="url(#filter0_f_864_1507)">
<ellipse cx="81" cy="78.5" rx="61" ry="63.5" fill="#832FA0"/>
</g>
<mask id="mask0_864_1507" style="mask-type:alpha" maskUnits="userSpaceOnUse" x="22" y="16" width="119" height="125">
<ellipse cx="81.3035" cy="78.5001" rx="58.875" ry="61.6786" fill="#D9D9D9"/>
</mask>
<g mask="url(#mask0_864_1507)">
<circle cx="81.3036" cy="75.6964" r="81.3036" fill="#C667BC"/>
<path d="M101.218 86.9492C94.1712 85.6785 91.2106 97.8172 83.9593 97.9899C79.4735 98.0967 71.597 86.1222 67.2515 87.7582C62.3181 89.6155 62.9913 99.6309 58.0504 101.458C52.8018 103.398 47.0432 96.6665 44.4638 102.053C41.0584 109.164 43.9379 109.756 45.3041 117.222C45.7522 119.671 30.6565 110.509 30.6565 110.509C13.7819 123.014 25.6478 157.813 40.8781 157.872C49.3521 157.904 102.948 168.099 111.41 157.724C117.591 150.145 126.11 135.883 130.263 127.477C150.319 86.8806 116.959 110.608 119.021 98.7863C121.239 86.072 102.504 108.945 101.218 86.9492Z" fill="#9440A2"/>
<path fill-rule="evenodd" clip-rule="evenodd" d="M49.2917 49.9304C46.6422 45.318 38.3711 45.5941 36.5042 40.6132C34.6216 35.5907 40.2324 30.3949 39.9614 25.038C39.6771 19.4173 35.0892 14.7038 34.9091 9.07885C34.7117 2.91288 33.1673 -6.50076 38.877 -8.83684C46.5517 -11.9769 54.5067 -0.719332 62.6523 -2.27204C67.9772 -3.28708 67.8148 -12.1341 72.2822 -15.2045C77.0069 -18.4517 85.8813 -25.1549 88.6126 -20.1143C93.6073 -10.8964 80.2257 2.58266 86.4796 10.9973C90.8229 16.8411 100.216 3.33385 107.298 5.02637C111.746 6.08946 113.742 12.8277 113.058 17.3496C112.289 22.4369 105.761 24.7156 103.612 29.3908C102.065 32.7584 102.95 36.6798 102.486 40.3567C101.841 45.4683 105.425 54.8692 100.315 55.5267C92.8853 56.4828 89.1762 44.7161 81.8825 43.0081C78.6504 42.2513 76.7513 47.1085 74.4086 49.4603C67.3596 56.5365 63.9599 70.8382 53.9736 71.0251C46.7104 71.161 52.9102 56.2296 49.2917 49.9304Z" fill="#9440A2"/>
<path d="M106.536 58.8751C106.536 60.4235 105.28 61.6787 103.732 61.6787C102.184 61.6787 100.929 60.4235 100.929 58.8751C100.929 57.3267 102.184 56.0715 103.732 56.0715C105.28 56.0715 106.536 57.3267 106.536 58.8751Z" fill="#9440A2"/>
<path d="M145.786 95.3215C145.786 98.4182 143.275 100.929 140.179 100.929C137.082 100.929 134.571 98.4182 134.571 95.3215C134.571 92.2248 137.082 89.7144 140.179 89.7144C143.275 89.7144 145.786 92.2248 145.786 95.3215Z" fill="#9440A2"/>
<path d="M67.2857 81.3036C67.2857 82.8519 66.0305 84.1071 64.4821 84.1071C62.9337 84.1071 61.6785 82.8519 61.6785 81.3036C61.6785 79.7552 62.9337 78.5 64.4821 78.5C66.0305 78.5 67.2857 79.7552 67.2857 81.3036Z" fill="#9440A2"/>
<path d="M117.75 36.4464C117.75 37.9948 116.495 39.25 114.946 39.25C113.398 39.25 112.143 37.9948 112.143 36.4464C112.143 34.898 113.398 33.6428 114.946 33.6428C116.495 33.6428 117.75 34.898 117.75 36.4464Z" fill="#9440A2"/>
<path d="M39.25 100.929C39.25 104.025 36.7396 106.536 33.6428 106.536C30.5461 106.536 28.0357 104.025 28.0357 100.929C28.0357 97.8319 30.5461 95.3215 33.6428 95.3215C36.7396 95.3215 39.25 97.8319 39.25 100.929Z" fill="#9440A2"/>
<path d="M33.6428 44.8571C33.6428 47.9539 31.1324 50.4643 28.0357 50.4643C24.9389 50.4643 22.4285 47.9539 22.4285 44.8571C22.4285 41.7604 24.9389 39.25 28.0357 39.25C31.1324 39.25 33.6428 41.7604 33.6428 44.8571Z" fill="#9440A2"/>
</g>
<defs>
<filter id="filter0_f_864_1507" x="12" y="7" width="138" height="143" filterUnits="userSpaceOnUse" color-interpolation-filters="sRGB">
<feFlood flood-opacity="0" result="BackgroundImageFix"/>
<feBlend mode="normal" in="SourceGraphic" in2="BackgroundImageFix" result="shape"/>
<feGaussianBlur stdDeviation="4" result="effect1_foregroundBlur_864_1507"/>
</filter>
</defs>
</svg>
