<svg width="781" height="212" viewBox="0 0 781 212" fill="none" xmlns="http://www.w3.org/2000/svg">
<path d="M0.772598 201.045L1.75 116.5L769.427 121.987C770.46 121.994 771.317 122.787 771.405 123.817L778.071 201.9C778.168 203.042 777.263 204.033 776.118 204.07C476.329 213.928 302.514 213.355 2.72756 203.068C1.64141 203.031 0.760035 202.132 0.772598 201.045Z" fill="#A0915F"/>
<path d="M1.25 75.0047V7.6533C1.25 6.56721 2.1213 5.67951 3.20708 5.65378C124.192 2.78594 234.419 0.475583 330.268 1.68321C342.582 1.83836 344.012 7.7591 356.243 7.82295C367.797 7.88328 369.591 1.57326 381.136 1.68321C499.674 -4.07964 620.911 6.27342 768.461 12.9093C769.53 12.9574 770.381 13.8382 770.381 14.908V75.9227C770.381 76.3312 770.506 76.73 770.74 77.0654L779.409 89.5175C779.909 90.2364 779.883 91.1973 779.345 91.8886L765.159 110.118C764.675 110.74 764.601 111.588 764.971 112.284L770.172 122.087C770.31 122.346 770.388 122.632 770.403 122.925L773.908 193.344C773.963 194.461 773.068 195.407 771.951 195.443C472.131 205.309 303.01 205.727 3.20573 195.443C2.12855 195.406 1.25 194.521 1.25 193.443V115.128L26.6458 96.8903L1.25 75.0047Z" fill="#BBAE85"/>
<path d="M192.434 26.4648L156.701 27.0874L121.381 31.4419L147.134 35.5998L216.118 33.4865L178.881 29.9305L192.434 26.4648Z" fill="#A0915F"/>
<path d="M29.7498 178.931L38.75 174.501L1.24986 180L1.24974 185L45.75 183.5L39.75 188.5L95.25 178.5L65.25 174.501L29.7498 178.931Z" fill="#A0915F"/>
<path d="M507.121 31.3728L498.121 26.942L535.621 37.4414L491.121 35.9414L497.121 40.9414L441.621 30.9414L471.621 26.942L507.121 31.3728Z" fill="#A0915F"/>
<path d="M359.75 171.5L295.25 166.5L359.75 161L433.25 166.5L359.75 171.5Z" fill="#A0915F"/>
<path d="M673.268 68.4468L618.701 72.748L672.659 63.484L734.829 58.4892L673.268 68.4468Z" fill="#A0915F"/>
<path d="M671.952 177.056L628.952 174.056L645.452 178.987L598.952 189.056L678.452 184.556L706.452 172.056L671.952 177.056Z" fill="#A0915F"/>
<path d="M742.75 122L779.25 92L765.334 110.235C764.965 110.719 764.836 111.344 764.983 111.933L765.25 113L735.25 144L756.25 118.5L742.75 122Z" fill="#A0915F"/>
<path d="M36.75 94.5L1.25 72V75L26.25 97L1.25 115L30.75 101L62.25 106.5L53.75 101L101.75 97L36.75 94.5Z" fill="#A0915F"/>
<path d="M140.734 155.776C136.766 155.776 127.038 156.032 124.606 152.832C122.814 150.528 123.07 147.2 122.942 144.256C121.918 126.592 121.406 108.928 120.894 91.136C120.766 87.04 119.87 68.096 120.766 64C121.15 62.208 122.942 60.8 124.734 60.032C131.262 57.216 138.43 56.064 145.598 55.04C155.326 53.76 165.694 53.248 175.166 55.808C181.31 57.472 187.326 60.544 191.806 65.024C196.158 69.504 199.23 75.392 200.254 81.536C201.278 87.296 200.382 93.568 197.822 98.688C194.622 105.216 188.222 110.464 181.438 113.024C186.942 121.984 195.262 129.024 201.918 137.088C202.174 137.344 202.43 137.472 202.558 137.728C202.814 138.88 201.022 141.056 200.126 142.08C195.39 147.456 188.862 151.296 181.822 152.576C179.902 152.96 177.854 153.088 176.062 152.448C174.654 151.936 173.63 150.912 172.734 149.76C170.046 146.304 158.398 127.616 156.35 123.648C156.606 131.072 156.99 138.496 157.758 145.792C157.886 147.328 158.526 148.864 157.886 150.272C155.966 155.136 145.982 155.776 140.734 155.776ZM152.254 97.408C155.454 97.408 158.782 97.792 161.982 97.152C164.67 96.64 167.486 95.232 168.894 92.928C170.814 89.472 170.686 84.608 169.022 81.024C166.718 76.032 157.758 77.056 152.254 78.08C151.998 84.48 151.998 91.008 152.254 97.408ZM272.7 145.408C265.788 147.712 235.964 146.304 228.54 145.92C226.364 145.92 224.188 146.176 222.012 145.792C220.988 145.664 219.836 145.408 219.196 144.64C218.684 144.128 218.428 143.36 218.428 142.72C217.66 132.736 214.204 76.672 212.668 66.816C212.412 65.024 211.9 61.952 213.564 61.184C217.404 59.136 222.012 59.008 226.236 58.368C242.748 56.448 259.26 55.68 275.772 55.04C276.54 55.04 277.308 55.04 277.948 55.424C279.74 56.448 279.356 60.8 279.356 62.848C279.228 67.712 278.844 72.448 278.588 77.312C278.46 79.232 277.564 81.408 275.516 81.408C265.788 81.408 256.188 81.92 246.46 82.304C246.46 84.608 246.588 87.04 246.716 89.472C248.764 89.344 260.412 89.216 262.332 89.088C264.892 88.96 268.476 88.448 268.476 91.008C268.604 92.8 268.348 103.808 268.22 105.6C268.22 108.288 268.22 111.744 265.532 111.744C259.132 111.744 252.732 111.488 246.46 112C246.076 113.536 246.588 120.704 246.716 122.368C255.932 121.6 265.148 121.856 274.364 121.728C276.924 121.728 276.924 124.928 276.796 127.488C276.668 129.28 276.156 139.52 276.028 141.312C275.9 143.104 274.492 144.768 272.7 145.408ZM335.412 150.528C326.452 152.064 316.724 151.296 308.276 148.224C304.436 146.816 300.852 144.896 297.78 142.464C292.02 137.856 291.124 126.72 294.068 120.064C295.348 117.248 297.396 114.304 300.34 113.28C303.796 112 307.764 113.152 311.348 113.792C313.268 114.048 315.188 114.304 316.98 114.688C318.644 115.2 320.436 115.968 321.204 117.376C322.228 119.04 322.228 121.216 321.972 123.136C321.716 124.672 322.1 126.72 323.252 127.744C325.94 130.048 331.316 129.792 334.132 127.744C335.668 126.72 336.308 124.672 336.308 122.88C336.308 120.32 334.9 117.76 332.98 116.224C327.988 112.512 321.332 112.128 315.316 110.336C308.276 108.288 301.108 104.832 296.116 99.456C292.916 95.872 290.868 91.008 290.1 86.144C288.948 78.848 290.356 70.656 293.812 64C295.476 60.8 297.78 57.728 300.468 55.296C304.052 52.096 308.276 49.664 312.628 48C320.692 45.184 329.652 44.544 338.1 45.44C344.756 46.08 351.54 48.512 356.788 52.736C361.396 56.448 364.852 62.08 365.748 67.84C366.516 72.448 366.388 77.44 365.364 82.048C364.852 84.608 363.956 87.168 362.292 89.088C360.884 90.624 358.708 91.392 356.788 91.904C353.844 92.544 350.772 92.8 347.7 92.8C345.012 92.8 342.196 92.544 339.636 91.648C338.1 91.136 336.564 90.24 335.668 88.96C334.772 87.936 334.388 86.528 334.132 85.248C333.492 82.176 334.004 78.976 333.748 75.904C333.62 74.24 332.98 72.576 331.828 71.424C330.548 70.272 328.628 69.888 326.964 70.272C320.692 71.552 316.852 79.36 319.54 84.992C321.46 88.96 325.428 91.776 329.396 93.696C335.412 96.64 342.068 97.792 348.34 100.352C352.18 101.888 356.148 104.192 358.836 107.52C364.34 114.432 365.492 123.392 362.036 131.584C359.604 137.344 354.868 142.336 349.492 145.536C345.14 148.096 340.276 149.632 335.412 150.528ZM425.922 146.176C416.578 147.328 406.21 145.536 398.146 140.672C392.386 137.344 387.394 131.968 384.45 125.952C379.714 116.48 378.434 105.344 377.922 94.72C377.282 81.792 377.794 68.224 382.018 55.936C382.402 55.04 382.914 53.888 383.81 53.504C384.706 52.992 385.858 53.248 386.882 53.376C393.922 54.528 401.09 54.912 408.258 55.296C409.154 55.296 410.306 55.424 411.202 55.936C412.226 56.704 412.61 58.24 412.482 59.52C411.33 68.992 410.946 78.592 411.586 88.064C412.098 93.568 412.866 99.328 415.298 104.32C416.45 106.496 418.114 108.672 420.29 109.952C421.698 110.72 423.49 111.232 425.154 110.976C426.69 110.72 428.226 109.568 429.25 108.416C431.426 105.472 431.938 101.504 432.322 97.792C433.73 83.84 430.402 69.504 425.794 56.064C425.026 53.76 424.642 50.944 426.946 50.176C435.01 47.616 443.33 45.312 451.778 43.904C453.57 43.648 455.874 44.544 456.514 46.208C460.482 55.68 462.786 65.92 463.938 76.16C465.346 89.216 464.45 102.912 460.482 115.456C457.794 123.904 452.93 132.224 446.018 137.856C440.386 142.464 433.09 145.28 425.922 146.176ZM583.237 145.92C578.117 146.688 572.869 146.816 567.749 146.304C564.549 145.92 557.893 146.176 556.741 143.232C556.485 142.592 556.485 141.696 556.613 140.928C557.637 134.4 558.405 127.744 559.045 121.088C559.941 111.488 560.965 101.888 560.709 92.16C557.509 99.84 555.205 107.776 551.877 115.2C550.469 118.4 546.501 126.464 543.173 127.616C541.253 128.384 533.061 128.128 531.013 128C528.837 127.744 523.077 127.36 521.669 125.696C517.829 120.832 510.149 94.976 507.845 89.216C507.589 103.424 507.589 117.632 508.613 131.84C508.741 132.992 509.509 138.112 509.253 139.264C508.357 142.592 502.469 142.336 499.013 142.336C493.125 142.464 487.109 142.208 481.221 141.312C479.173 140.928 477.893 139.904 477.381 137.856C476.357 134.656 477.125 131.2 477.125 127.872C476.869 112 477.381 96.128 479.045 80.384C479.685 73.344 480.709 66.304 482.885 59.52C483.781 56.832 484.933 54.144 486.597 51.84C487.621 50.304 489.157 48.896 490.821 48.128C492.997 47.104 495.301 46.72 497.605 46.336C503.877 45.44 518.725 44.8 523.333 49.152C524.485 50.304 525.125 52.096 525.637 53.76C526.917 58.88 532.037 88.192 532.805 93.44C534.981 84.736 542.277 54.4 548.421 48C551.109 45.184 555.589 44.928 559.301 44.8C565.701 44.672 572.229 45.184 577.989 47.488C581.573 48.896 585.029 51.328 586.821 54.656C588.997 58.752 589.893 63.488 590.661 68.096C592.325 78.976 593.093 90.112 593.477 101.12C593.733 113.024 593.349 124.928 591.685 136.704C591.557 137.856 591.301 142.208 590.533 143.232C589.509 144.64 585.029 145.664 583.237 145.92ZM666.315 145.408C659.403 147.712 629.579 146.304 622.155 145.92C619.979 145.92 617.803 146.176 615.627 145.792C614.603 145.664 613.451 145.408 612.811 144.64C612.299 144.128 612.043 143.36 612.043 142.72C611.275 132.736 607.819 76.672 606.283 66.816C606.027 65.024 605.515 61.952 607.179 61.184C611.019 59.136 615.627 59.008 619.851 58.368C636.363 56.448 652.875 55.68 669.387 55.04C670.155 55.04 670.923 55.04 671.563 55.424C673.355 56.448 672.971 60.8 672.971 62.848C672.843 67.712 672.459 72.448 672.203 77.312C672.075 79.232 671.179 81.408 669.131 81.408C659.403 81.408 649.803 81.92 640.075 82.304C640.075 84.608 640.203 87.04 640.331 89.472C642.379 89.344 654.027 89.216 655.947 89.088C658.507 88.96 662.091 88.448 662.091 91.008C662.219 92.8 661.963 103.808 661.835 105.6C661.835 108.288 661.835 111.744 659.147 111.744C652.747 111.744 646.347 111.488 640.075 112C639.691 113.536 640.203 120.704 640.331 122.368C649.547 121.6 658.763 121.856 667.979 121.728C670.539 121.728 670.539 124.928 670.411 127.488C670.283 129.28 669.771 139.52 669.643 141.312C669.515 143.104 668.107 144.768 666.315 145.408Z" fill="#FFF4D6"/>
</svg>
