<svg width="2880" height="1864" viewBox="0 0 2880 1864" fill="none" xmlns="http://www.w3.org/2000/svg">
<g clip-path="url(#clip0_664_559)">
<path d="M291.072 825.275L363.95 730.748L459.994 730.748L629.001 707.602L631.113 746.05L670.68 731.578L1239.81 855.884L1249.6 894.897L1273.79 863.768L1358.97 883.426L1480.95 966.965L1536.75 896.766L2336.34 1186.63L2492.49 1180.33L2671.68 1323.23L2815.82 1497.52L2629.6 1624.12L2527.76 1746.76L2595.4 1779.88L2517.35 1872.08L2.69492 1872.08L2.6945 966.965L159 894.897L186.296 995.705L186.296 883.426L291.072 825.275Z" fill="url(#paint0_linear_664_559)"/>
<g clip-path="url(#clip1_664_559)">
<path fill-rule="evenodd" clip-rule="evenodd" d="M2269.7 1970.92C2147.32 1807.75 1801.86 1717.22 1813.3 1708.74C1830.26 1695.98 1864.25 1690.43 1855.58 1672.42C1847.11 1654.44 1796.75 1642.33 1796.75 1642.33C1796.75 1642.33 1891.65 1669.01 1821.08 1694.31C1736.4 1724.66 1901.6 1736.57 2076.27 1830.02C2240.78 1918.11 2269.7 1970.92 2269.7 1970.92Z" fill="#3A4461" fill-opacity="0.8"/>
<path fill-rule="evenodd" clip-rule="evenodd" d="M978.843 1678.45C831.593 1734.81 923.702 1802.56 783.442 1765.24C643.183 1727.93 299.091 1699.64 299.091 1699.64C299.091 1699.64 589.137 1743.78 664.901 1766.29C740.665 1788.81 862.407 1807.07 891.295 1769.21C920.183 1731.35 973.998 1705.88 973.998 1705.88L978.991 1678.47L978.843 1678.45Z" fill="#3A4461" fill-opacity="0.8"/>
<path fill-rule="evenodd" clip-rule="evenodd" d="M884.964 1775.46C884.964 1775.46 886.865 1745.75 891.806 1737.07C891.806 1737.07 898.084 1727.76 903.44 1723.51C924.124 1706.37 946.931 1692.67 949.456 1691.39C951.98 1690.1 940.573 1725.05 937.227 1727.49C933.881 1729.93 920.763 1733.2 904.791 1753.81C888.966 1774.45 884.964 1775.46 884.964 1775.46Z" fill="#3A4461" fill-opacity="0.8"/>
<path fill-rule="evenodd" clip-rule="evenodd" d="M779.825 1764.15C779.625 1782.84 771.006 1788.24 771.006 1788.24C771.006 1788.24 704.265 1777.39 673.173 1768.67C673.173 1768.67 682.949 1745.19 689.305 1746.35C695.589 1747.06 779.825 1764.15 779.825 1764.15Z" fill="#3A4461" fill-opacity="0.8"/>
<path fill-rule="evenodd" clip-rule="evenodd" d="M821.277 1927.21C821.277 1927.21 841.046 1925.15 868.442 1922.3C928.342 1916.22 1024.75 1905.91 1028.9 1904.05C1034.92 1901.23 1055.39 1826.56 1082 1831.4C1095.15 1833.8 1178.65 1828.98 1263.18 1823.47C1268.14 1823.07 1266.4 1828.41 1271.51 1828.04C1352.05 1822.68 1436.4 1811.47 1436.4 1811.47L1447.77 1816.16C1447.77 1816.16 1338.05 1836.68 1266.52 1843.68C1264.53 1843.75 1268.85 1827.55 1263.3 1827.85C1173.43 1834.99 1081.38 1845.67 1067.54 1857.95C1039.33 1882.87 1023.55 1963.63 1016.9 1962.41C1010.24 1961.2 821.277 1927.21 821.277 1927.21Z" fill="#3A4461" fill-opacity="0.8"/>
<path fill-rule="evenodd" clip-rule="evenodd" d="M1079.78 1831C1079.78 1831 1073.56 1854.26 1075.63 1853.76C1108.11 1844 1156.24 1838.83 1156.24 1838.83L1157.85 1829.98L1079.78 1831Z" fill="#3A4461" fill-opacity="0.8"/>
<path fill-rule="evenodd" clip-rule="evenodd" d="M1231.65 1621.76C1128.08 1629.46 1222.83 1634.09 1261.63 1652.49C1300.57 1670.91 1328.88 1686.52 1364.81 1636L1231.65 1621.76Z" fill="#3A4461" fill-opacity="0.8"/>
<path fill-rule="evenodd" clip-rule="evenodd" d="M909.765 1718.13C899.289 1724.5 893.839 1731.78 890.736 1742.1C887.633 1752.43 883.255 1776.46 884.963 1775.46C886.672 1774.47 901.882 1757.2 903.312 1753.54C904.819 1749.46 912.661 1716.48 909.765 1718.13Z" fill="#3A4461" fill-opacity="0.8"/>
<path fill-rule="evenodd" clip-rule="evenodd" d="M1060.39 1843.58C1046.8 1862.01 1046.05 1885.4 1047.98 1884.01C1049.84 1882.17 1060.24 1865.33 1063.82 1861.63C1067.54 1857.95 1065.98 1836.32 1060.39 1843.58Z" fill="#3A4461" fill-opacity="0.8"/>
<path fill-rule="evenodd" clip-rule="evenodd" d="M1268.7 1827.53C1268.49 1837.94 1267.03 1845.08 1266.52 1843.68C1266.02 1842.28 1266.88 1835.03 1266.16 1832.29C1265.29 1829.52 1264.51 1823.71 1265.25 1823.85C1265.77 1824.38 1268.7 1827.53 1268.7 1827.53Z" fill="#3A4461" fill-opacity="0.8"/>
<path fill-rule="evenodd" clip-rule="evenodd" d="M845.334 1870.61C850.235 1878.9 866.759 1875.38 866.191 1871.79C865.623 1868.2 865.12 1865.94 865.936 1865.65C866.604 1865.33 852.485 1852.31 840.407 1854.9C828.406 1857.07 845.334 1870.61 845.334 1870.61Z" fill="#3A4461" fill-opacity="0.8"/>
<path fill-rule="evenodd" clip-rule="evenodd" d="M920.158 1834.58C912.526 1836.24 910.439 1838.47 919.466 1838.38C928.269 1838.67 925.792 1833 920.158 1834.58Z" fill="#3A4461" fill-opacity="0.8"/>
<path fill-rule="evenodd" clip-rule="evenodd" d="M845.658 1810.99C838.901 1814.55 838.162 1814.42 834.941 1820.36C831.719 1826.31 836.195 1831.92 848.758 1834.21C861.322 1836.49 902.992 1801.4 893.923 1796.7C884.629 1792.39 845.658 1810.99 845.658 1810.99Z" fill="#3A4461" fill-opacity="0.8"/>
<path fill-rule="evenodd" clip-rule="evenodd" d="M646.623 1362.57C571.621 1365.28 626.118 1348.3 579.5 1347.84C506.43 1347.17 340.455 1239.21 340.455 1239.21C340.455 1239.21 498.91 1259.89 636.282 1350.39C646.799 1357.32 653.411 1349.96 667.044 1328.03C673.243 1318.21 651.763 1362.17 646.623 1362.57Z" fill="#3A4461" fill-opacity="0.8"/>
<path fill-rule="evenodd" clip-rule="evenodd" d="M1508.72 1647.42C1372.61 1631.76 1141.02 1608.73 1141.02 1608.73C1141.02 1608.73 1169.56 1611.32 1307.74 1639.11C1445.99 1666.48 1508.72 1647.42 1508.72 1647.42Z" fill="#3A4461" fill-opacity="0.8"/>
<path fill-rule="evenodd" clip-rule="evenodd" d="M978.843 1678.45C978.843 1678.45 959.091 1677.9 956.27 1657.34L978.843 1678.45Z" fill="#3A4461" fill-opacity="0.8"/>
</g>
<g style="mix-blend-mode:multiply" opacity="0.5">
<path opacity="0.42" d="M1525.58 1239.85C1626.11 1262.49 1689.44 1287.1 1694.16 1294.99C1697.08 1299.88 1706.2 1308.52 1669.85 1307.87C1665.29 1307.34 1660.58 1306.78 1655.84 1306.32C1660.14 1305.5 1663.66 1303.53 1664.71 1299.61C1668.31 1286.21 1608.55 1260.39 1525.58 1239.85Z" fill="#150A41"/>
</g>
<g style="mix-blend-mode:multiply" opacity="0.5" clip-path="url(#clip2_664_559)">
<path opacity="0.42" d="M1830.08 1453.96C1752.03 1446.9 1674.81 1433.59 1598.78 1408.78C1551.25 1393.29 1497.84 1349.84 1450.03 1335.05C1418.25 1325.25 1375.02 1305.44 1338.88 1296.15C1279.14 1280.71 1229.06 1275.05 1203.67 1268.69C1181.64 1263.16 1177.17 1260.07 1181.43 1258.46C1255.71 1267.77 1354.54 1293.91 1453.77 1324.56C1509.82 1341.83 1562.22 1375.77 1614.32 1393.83C1705.61 1425.32 1787.91 1439.23 1830.08 1453.96Z" fill="#150A41"/>
</g>
<g style="mix-blend-mode:multiply" opacity="0.5" clip-path="url(#clip3_664_559)">
<path opacity="0.42" d="M1986.84 1146.24C2031.41 1174.85 2078.38 1199.16 2129.95 1215.68C2162.17 1226.02 2210.23 1221.14 2242.28 1232.04C2263.57 1239.31 2295.48 1245.09 2318.86 1254.52C2357.53 1270.07 2386.64 1287.72 2402.99 1294.45C2417.18 1300.29 2420.95 1300.23 2419.43 1297.4C2375.83 1271.8 2311.58 1246.46 2245.06 1223.82C2207.51 1210.99 2164.32 1210.27 2128.51 1199.62C2065.82 1180.87 2015.88 1154.79 1986.84 1146.24Z" fill="#150A41"/>
</g>
<g style="mix-blend-mode:multiply" opacity="0.5" clip-path="url(#clip4_664_559)">
<path opacity="0.42" d="M573.533 1043.71C543.157 1036.54 475.276 1023.62 563.617 1024.47C548.465 1027.96 541.47 1033.8 573.533 1043.71Z" fill="#150A41"/>
<path opacity="0.42" d="M1175.02 1170.75C1108.54 1158.5 698.676 1083.42 665.978 1076C645.564 1071.35 525.845 1051.93 591.299 1048.69C602.476 1052.46 617.177 1056.34 636.022 1060.3C718.958 1077.81 967.198 1125.83 1185.16 1172.6C1181.73 1171.97 1178.3 1171.35 1175.02 1170.75Z" fill="#150A41"/>
</g>
<path d="M175.689 1010.66L186.296 995.705L186.296 884.329L212.061 992.539L161.81 1059.58L201.159 1143.02L141.23 1057.48L175.689 1010.66Z" fill="#3A4461"/>
<path d="M1221.12 932.525L1249.54 895.987L1240.2 856.192L1196.97 914.721L1232.29 973.673L1178.69 1056.5L1248.02 979.377L1221.12 932.525Z" fill="#55617D"/>
<path d="M610.008 737.395L631.114 746.051L629.002 707.603L600.241 717.136L609.267 763.626L568.058 781.342L616.571 773.805L610.008 737.395Z" fill="#55617D"/>
<path d="M107.77 1780.01L7.89912 1871.99L75.6696 1871.99L132.548 1817.66L119.406 1718.12L197.955 1642.28L99.1828 1710.79L107.77 1780.01Z" fill="#3A4461" fill-opacity="0.8"/>
<path d="M2547.37 1713.65L2628.11 1625.02L2815.43 1497.9L2795.36 1872.08L2513.36 1872.08L2595.4 1779.88L2528.5 1746.76L2514.64 1682.31L2526.25 1651.19L2547.37 1713.65Z" fill="url(#paint1_linear_664_559)"/>
<path d="M2378.62 1202.23L2334.4 1187.03L2371.05 1184.78L2389.86 1184.29L2378.92 1231.37L2424.03 1253.88L2370.67 1242.14L2378.62 1202.23Z" fill="#55617D"/>
<path d="M990.45 1224.2L1034.37 1249.93L984.759 1303.37L971.959 1252.14L990.45 1224.2Z" fill="#425387"/>
<path d="M1035.66 1300.55L984.634 1303.33L1034.4 1249.81L1035.66 1300.55Z" fill="#4D5B85"/>
<path d="M2127.58 1748.94L2080.05 1720.27L2134.82 1662.89L2148.1 1718.83L2127.58 1748.94Z" fill="#55617D"/>
<path d="M2079.3 1665.17L2134.95 1662.94L2080.01 1720.41L2079.3 1665.17Z" fill="#324476"/>
<path d="M1642.52 1590.28L1594.99 1561.61L1649.76 1504.23L1663.04 1560.17L1642.52 1590.28Z" fill="#4D5B85"/>
<path d="M1594.23 1506.52L1649.89 1504.28L1594.95 1561.75L1594.23 1506.52Z" fill="#324476"/>
<path d="M223.286 1249.72L177.172 1270.48L202.23 1309.07L247.102 1339.09L223.286 1249.72Z" fill="#4D5B85"/>
<path d="M289.824 1298.88L271.285 1261.32L248.327 1241.36L223.23 1249.81L247.308 1339.62L289.824 1298.88Z" fill="#425387"/>
<path d="M2526.54 1266.41L2364.98 1330.22L2502.82 1307.14L2528.8 1413.04L2562.7 1429.34L2558.18 1361.45L2526.54 1266.41Z" fill="#4A546B"/>
<path d="M2595.41 1444.8L2512.9 1536.76L2599.12 1536.76L2595.41 1444.8Z" fill="#55617E"/>
<path d="M2630.34 1287.9L2621.42 1296.85L2627.37 1506.32L2630.34 1287.9Z" fill="#454F66"/>
<path d="M2766.37 1194.8L2749.27 1207.33L2758.94 1338.92L2766.37 1194.8Z" fill="#454F66"/>
<path d="M2705.42 1535.86L2715.82 1535.86L2722.51 1452.61L2717.31 1415.91L2715.82 1465.14L2705.42 1535.86Z" fill="#434C60"/>
</g>
<defs>
<linearGradient id="paint0_linear_664_559" x1="1527.62" y1="1033.92" x2="1243.53" y2="1804.32" gradientUnits="userSpaceOnUse">
<stop stop-color="#3B4460"/>
<stop offset="0.4" stop-color="#374160"/>
<stop offset="1" stop-color="#273153"/>
</linearGradient>
<linearGradient id="paint1_linear_664_559" x1="2654.13" y1="1686.78" x2="2710.66" y2="1872.69" gradientUnits="userSpaceOnUse">
<stop stop-color="#55617D"/>
<stop offset="1" stop-color="#485063"/>
</linearGradient>
<clipPath id="clip0_664_559">
<rect width="2880" height="1864" fill="white"/>
</clipPath>
<clipPath id="clip1_664_559">
<rect width="1823.41" height="440.959" fill="white" transform="translate(284.045 1238.33) rotate(10.3264)"/>
</clipPath>
<clipPath id="clip2_664_559">
<rect width="674.391" height="82.358" fill="white" transform="translate(1180.44 1257.19) rotate(10.3264)"/>
</clipPath>
<clipPath id="clip3_664_559">
<rect width="455.163" height="64.4533" fill="white" transform="matrix(-0.893175 -0.449709 -0.449709 0.893175 2420.53 1297.02)"/>
</clipPath>
<clipPath id="clip4_664_559">
<rect width="671.387" height="41.179" fill="white" transform="translate(522.858 1011.81) rotate(10.3264)"/>
</clipPath>
</defs>
</svg>
