<svg width="460" height="356" viewBox="0 0 460 356" fill="none" xmlns="http://www.w3.org/2000/svg">
<ellipse cx="231" cy="212.5" rx="134" ry="55.5" fill="#E9DDB9" fill-opacity="0.05"/>
<g filter="url(#filter0_d_695_1076)">
<ellipse cx="230" cy="201" rx="133" ry="61" stroke="#7FD71B" stroke-opacity="0.01" stroke-width="82.5686"/>
</g>
<path d="M181.42 145.276L185.302 34C184.573 20.0281 185.402 22.0303 220.738 5.77325C235.947 0.816091 247.945 -0.937414 256.999 0.500557C259.499 0.897624 253.623 17.3931 258.999 25.0005C259.175 27.9931 256.45 47.1664 258.999 61C259.744 65.0469 260.658 69.1194 261.671 73.1434C262.799 69.8146 265.494 68.0801 270.498 68.9999L275.998 122C275.998 134 281.5 165.5 281.5 165.5C278.535 195.143 275.318 216.5 251 216.5C226.681 216.5 183.649 219.007 181.42 145.276Z" fill="url(#paint0_linear_695_1076)"/>
<path d="M255.5 61L220.802 69.2003V90.7718L214.5 93.2528L209 104.5L208 111.722L214.5 101L219.5 97.1121L222 129.365L213 160L194 178.709L205.5 174L213 169L222 156.931V178.709L227.5 192.216L263 206L252.802 187.694L254.5 128.538L262 136L265.5 147L277.5 151L269 144.5L263 124.954L253.999 111.722L251.5 86.9125L255.5 79.7452V61Z" fill="#7D6E90"/>
<path d="M283.204 147.11C281.5 144.569 274.581 96.8503 275.604 95.4422C275.604 95.4422 280.914 99.5668 281.263 92.2066C289.768 94.5398 297.935 88.9925 301.67 91.8577C306.686 102.892 312.994 134.202 312.992 134.834C312.987 136.177 315.258 140.012 306.618 146.477C297.978 152.941 284.908 149.651 283.204 147.11Z" fill="url(#paint1_linear_695_1076)"/>
<path d="M313.886 136.586C313.886 136.586 314.196 135.703 314.361 141.333C314.527 146.963 296.093 155.617 284.245 148.022C279.721 144.533 291.677 138.382 289.73 135.563C288.121 133.232 291.469 125.149 291.28 122.855C297.226 130.016 308.201 123.175 313.886 136.586Z" fill="url(#paint2_linear_695_1076)"/>
<path d="M315.835 136.543C316.686 144.474 313.781 142.128 313.781 142.128C310.009 138.281 291.736 137.473 291.736 137.473C290.457 132.197 288.674 130.669 287.941 119.824C284.696 108.662 284.309 98.8635 281.403 92.3105C281.403 92.3105 281.605 92.2922 283.991 91.2837C284.859 90.9169 285.722 87.4012 286.549 87.104C287.688 86.6953 289.113 89.2428 289.749 89.2094C289.809 89.3001 292.679 90.5413 294.921 88.928L294.684 82.3563L300.258 88.8911C301.987 87.7438 303.803 85.9877 305.096 84.0503C305.752 82.5711 306.385 81.5937 306.385 81.5937L303.785 91.4852C306.25 105.12 315.198 130.61 315.835 136.543Z" fill="#8C7E9E"/>
<path d="M192.925 61.1091L184.935 33.7493C184.204 23.0151 185.267 16.9253 220.676 4.43543C235.356 0.767173 246.585 -0.629753 255.499 0.259554C262.867 0.994645 248.189 63.1042 253.034 66.9719C228.666 66.9718 220.676 88.4687 192.925 61.1091Z" fill="url(#paint3_linear_695_1076)"/>
<path d="M220.802 75.9998L257.498 89C256.63 88.1297 262.499 76.5 270.498 69.5C272.998 69.5 259.231 61.3197 259.499 60C259.499 48.5 260.499 31.0005 259.499 27.0003C258.374 22.5004 258.999 5.00049 257.499 0.500488L247.999 14.9998V30.4998L220.802 75.9998Z" fill="#7D6E90"/>
<path d="M148 203.274L162.59 157.881L170.697 151.396L186.909 159.502L193.393 182.199L248.515 191.926L254.999 170.85L269.59 169.229L276.075 175.714L284.181 164.365L285.802 151.396L303.636 157.881L305.257 188.684L297.151 213.002L303.636 221.108L285.802 242.183H251.757L248.515 232.456L182.045 213.002L173.939 217.865L148 203.274Z" fill="url(#paint4_linear_695_1076)"/>
<path d="M183.666 162.744L162.59 157.881L170.696 151.396L186.909 159.502L193.393 182.199L248.514 191.926L254.999 170.85L269.59 169.229L271.211 170.85L258.242 175.714L248.514 198.411L191.772 183.82L183.666 162.744Z" fill="#60546D"/>
<path d="M293.908 154.638L285.802 151.396L284.181 164.365L276.075 175.714L290.666 162.744L293.908 154.638Z" fill="#60546D"/>
<path d="M259.862 211.381L264.726 198.411L271.21 196.79L282.559 203.275L279.316 222.729L266.347 221.108L259.862 211.381Z" fill="#7D6E90"/>
<path d="M160.967 190.305L162.589 175.714L169.073 174.093L180.422 180.578L177.179 191.926L164.21 198.411L160.967 190.305Z" fill="#7D6E90"/>
<path d="M310.288 142.761L301.671 147.273L309.875 159.447L295.784 181.465L312.261 209.438L322.383 207.798L313.155 179.69L323.553 154.115L310.288 142.761Z" fill="#60546D"/>
<path d="M334.964 221.341L342.213 221.205L329.564 204.038L331.481 190.224L325.871 200.481L325.255 206.294L334.964 221.341Z" fill="#60546D"/>
<path d="M323.553 154.115L313.154 179.69L322.382 207.799L331.48 190.225L329.563 204.038L342.212 221.205L338.865 197.338L323.553 154.115Z" fill="#847992"/>
<path d="M329.179 182.693L322.89 175.468L326.523 164.763L331.006 164.853L334.902 179.283L333.534 183.66L329.179 182.693Z" fill="#7D6E90"/>
<path d="M164.423 199.878L179.059 202.912L178.687 211.635L167.89 231.665L150.298 227.3L134.556 214.878L128.565 228.182L109.866 214.429L106.987 197.131L126.29 154.261L148.395 144.656L143.07 156.482L133.829 161.211L137.226 173.409L145.418 181.618L149.865 180.878L156.738 189.306L153.557 200.32L161.095 207.27L164.423 199.878Z" fill="url(#paint5_linear_695_1076)"/>
<path d="M178.688 211.635L179.059 202.913L164.424 199.879L161.761 205.792L153.557 200.32L156.738 189.306L149.865 180.878L144.099 181.838L151.638 188.788L149.935 200.467L163.386 210.08L165.383 205.645L178.688 211.635Z" fill="#60546D"/>
<path d="M143.07 156.482L148.395 144.656L126.29 154.261L130.5 168.603L132.126 172.89L142.768 184.794L144.099 181.837L147.056 183.169L137.226 173.409L139.223 168.974L133.829 161.211L143.07 156.482Z" fill="#60546D"/>
<path d="M134.557 214.878L128.566 228.183L134.998 225.745L138.326 218.354L134.557 214.878Z" fill="#60546D"/>
<path d="M143.07 156.483L133.829 161.212L137.745 168.309L143.07 156.483Z" fill="#7E738D"/>
<path d="M115.126 196.31L116.928 186.903L127.592 183.152L134.659 189.007L130.168 202.571L119.807 204.201L115.126 196.31Z" fill="#7D6E90"/>
<defs>
<filter id="filter0_d_695_1076" x="0.665699" y="43.6657" width="458.669" height="314.668" filterUnits="userSpaceOnUse" color-interpolation-filters="sRGB">
<feFlood flood-opacity="0" result="BackgroundImageFix"/>
<feColorMatrix in="SourceAlpha" type="matrix" values="0 0 0 0 0 0 0 0 0 0 0 0 0 0 0 0 0 0 127 0" result="hardAlpha"/>
<feOffset/>
<feGaussianBlur stdDeviation="27.525"/>
<feColorMatrix type="matrix" values="0 0 0 0 0.490196 0 0 0 0 0.427451 0 0 0 0 0.556863 0 0 0 0.3 0"/>
<feBlend mode="normal" in2="BackgroundImageFix" result="effect1_dropShadow_695_1076"/>
<feBlend mode="normal" in="SourceGraphic" in2="effect1_dropShadow_695_1076" result="shape"/>
</filter>
<linearGradient id="paint0_linear_695_1076" x1="246.546" y1="110.065" x2="237.683" y2="320.982" gradientUnits="userSpaceOnUse">
<stop offset="0.307345" stop-color="#A190B9"/>
<stop offset="0.745124" stop-color="#9180AA"/>
</linearGradient>
<linearGradient id="paint1_linear_695_1076" x1="276.119" y1="91.6122" x2="186.061" y2="147.191" gradientUnits="userSpaceOnUse">
<stop offset="0.307345" stop-color="#A190B9"/>
<stop offset="0.745124" stop-color="#9180AA"/>
</linearGradient>
<linearGradient id="paint2_linear_695_1076" x1="278.625" y1="135.797" x2="299.172" y2="134.902" gradientUnits="userSpaceOnUse">
<stop stop-color="#9C8AB4"/>
<stop offset="1" stop-color="#9987B1"/>
</linearGradient>
<linearGradient id="paint3_linear_695_1076" x1="249.376" y1="14.2068" x2="211.148" y2="58.2778" gradientUnits="userSpaceOnUse">
<stop stop-color="#9C8AB4"/>
<stop offset="1" stop-color="#9987B1"/>
</linearGradient>
<linearGradient id="paint4_linear_695_1076" x1="226.628" y1="151.396" x2="226.628" y2="242.183" gradientUnits="userSpaceOnUse">
<stop stop-color="#8E849B"/>
<stop offset="1" stop-color="#7F738D"/>
</linearGradient>
<linearGradient id="paint5_linear_695_1076" x1="150.6" y1="198.988" x2="131.522" y2="229.513" gradientUnits="userSpaceOnUse">
<stop stop-color="#8D839A"/>
<stop offset="1" stop-color="#7D728C"/>
</linearGradient>
</defs>
</svg>
