<svg width="579" height="894" viewBox="0 0 579 894" fill="none" xmlns="http://www.w3.org/2000/svg">
<ellipse cx="289.5" cy="698.554" rx="172.5" ry="71.4459" fill="#E9DDB9" fill-opacity="0.05"/>
<g filter="url(#filter0_d_852_43)">
<ellipse cx="289.5" cy="696.5" rx="172.5" ry="80.5" stroke="#7FD71B" stroke-opacity="0.01" stroke-width="82.5686"/>
</g>
<path d="M366.239 582.315L371.773 291.091C373.018 271.342 371.207 260.138 310.896 237.16C235.389 216.781 213.483 234.506 191.909 291.091C191.909 291.091 180.534 275.428 175 297C169.466 318.572 183.608 603.887 183.608 603.887C188.668 645.786 205.972 682.986 247.479 682.986C288.986 682.986 362.436 686.529 366.239 582.315Z" fill="url(#paint0_linear_852_43)"/>
<path d="M282.201 329.675L315.5 338L311.187 552.343L283.438 607.842L272.338 682.765L255.689 652.241L286.213 541.243L282.201 329.675Z" fill="#837A61"/>
<path d="M177.993 304.5H191.312L194.642 643.168L184.652 560.438L191.312 554.074L177.993 304.5Z" fill="#A09881"/>
<path d="M358.362 315.771L372.009 276.922C373.257 261.68 371.442 253.033 310.96 235.298C235.24 219.569 213.272 233.25 191.638 276.922C191.638 276.922 180.538 276.922 174.988 293.572C169.439 310.221 191.638 304.672 191.638 304.672C196.712 337.009 214.065 324.096 255.689 324.096C297.313 324.096 310.96 354.62 358.362 315.771Z" fill="url(#paint1_linear_852_43)"/>
<path d="M218.066 291.82L211 254.133C215.231 247.326 218.551 244.455 225.133 240L232.199 272.977L260.465 298.887L314.641 336.574C308.97 336.805 302.086 335.398 281.664 329.508L218.066 291.82Z" fill="#928A74"/>
<path d="M308.414 471.87L283.44 466.32L277.89 480.195L280.665 519.044L311.189 524.594L344.488 516.269V541.243L383.338 532.919L399.987 507.944V427.471L372.238 396.947V419.146L383.338 433.021L369.463 449.671L350.909 456.726L344.488 452.446L327.839 460.77L325.064 480.195L308.414 485.745V471.87Z" fill="url(#paint2_linear_852_43)"/>
<path d="M277.89 480.195L283.44 466.321L308.414 471.87V482.97L325.064 480.195L327.839 460.771L344.489 452.446L352.813 457.996L336.164 463.546L330.614 482.97L302.865 488.52V480.195H277.89Z" fill="#837B63"/>
<path d="M372.238 419.146V396.947L399.987 427.471L383.338 446.896L377.788 452.446L352.813 463.545V457.995H347.263L369.463 449.671V441.346L383.338 433.021L372.238 419.146Z" fill="#837B63"/>
<path d="M344.486 516.269V541.243L336.162 532.919V519.044L344.486 516.269Z" fill="#837B63"/>
<path d="M372.238 419.147L383.338 433.021L372.238 441.346V419.147Z" fill="#8D866F"/>
<path d="M158.567 358H175.217L172.442 382.974L211.291 405.174L208.516 460.673L191.866 466.222L183.542 416.274L147.468 385.749L158.567 358Z" fill="#837B63"/>
<path d="M183.542 496.747L172.442 502.297L177.992 466.222L164.117 446.798L180.767 457.898L186.317 466.222L183.542 496.747Z" fill="#837B63"/>
<path d="M147.468 385.749L183.542 416.273L191.867 466.222L164.118 446.798L177.993 466.222L172.443 502.296L158.568 463.447L147.468 385.749Z" fill="#948A6C"/>
<path d="M416.636 670.917L391.662 593.219L377.787 582.119L350.037 595.994L338.938 634.843L244.59 651.492L233.49 615.418L208.516 612.643L197.416 623.743L183.541 604.319L180.766 582.119L150.242 593.219L147.467 645.943L161.342 687.567L150.242 701.441L180.766 737.515H239.04L244.59 720.866L358.362 687.567L372.237 695.891L416.636 670.917Z" fill="url(#paint3_linear_852_43)"/>
<path d="M355.586 601.544L391.66 593.219L377.785 582.119L350.036 595.994L338.936 634.843L244.588 651.492L233.488 615.418L208.514 612.643L205.739 615.418L227.938 623.743L244.588 662.592L341.711 637.618L355.586 601.544Z" fill="#837B63"/>
<path d="M166.892 587.669L180.767 582.119L183.542 604.319L197.416 623.743L172.442 601.544L166.892 587.669Z" fill="#837B63"/>
<path d="M225.167 684.792L216.842 662.592L205.742 659.817L186.318 670.917L191.868 704.216L214.067 701.441L225.167 684.792Z" fill="url(#paint4_linear_852_43)"/>
<path d="M394.438 648.717L391.663 623.743L380.564 620.968L361.139 632.068L366.689 651.492L388.889 662.592L394.438 648.717Z" fill="url(#paint5_linear_852_43)"/>
<path d="M387.863 500.945L391.663 484.996L377.653 471.648L362.51 475.82L359.986 500.145L375.013 509.971L387.863 500.945Z" fill="url(#paint6_linear_852_43)"/>
<path d="M161.627 433.55L165.427 417.602L151.418 404.253L144.692 407.949L150.242 432.924L155.792 438.474L161.627 433.55Z" fill="url(#paint7_linear_852_43)"/>
<path d="M306.996 683.714C310.05 694.601 309.738 703.928 306.985 715.69C299.191 708.645 293.934 699.288 290.243 691.694C286.552 684.1 283.166 666.854 291.429 662.261C299.688 657.671 303.937 672.814 306.991 683.699L306.996 683.714Z" fill="#A0B479"/>
<path d="M326.032 695.563C321.543 705.571 315.489 711.814 306.078 717.806C304.601 706.697 306.477 696 308.433 687.776C310.389 679.552 318.596 664.853 327.686 668.238C336.772 671.621 330.527 685.542 326.038 695.549L326.032 695.563Z" fill="#A0B479"/>
<path d="M292.853 694.611C300.964 701.18 304.752 708.082 306.982 717.811C295.455 716.087 285.644 711.585 278.302 707.68C270.96 703.776 259.677 692.737 266.565 685.815C273.449 678.896 284.731 688.033 292.842 694.602L292.853 694.611Z" fill="#A0B479"/>
<path d="M336.909 709.219C327.244 715.087 318.176 717.293 306.107 717.802C310.798 708.402 318.398 700.824 324.72 695.228C331.043 689.632 346.745 681.734 353.389 688.459C360.03 695.181 346.586 703.343 336.922 709.211L336.909 709.219Z" fill="#A0B479"/>
<path opacity="0.55" d="M199.291 162.229C213.452 155.328 275.346 140.013 282.128 147.965C288.91 155.917 329.619 246.966 314.105 252.594C298.258 258.697 231.754 271.516 220.171 265.087C208.588 258.659 201.96 224.58 206.093 214.642C208.695 208.385 270.432 198.36 270.325 205.408C269.822 238.675 282.039 214.33 280.875 232.026C277.096 235.299 238.301 247.408 243.46 248.584C248.619 249.759 289.943 236.529 293.736 234.844C297.413 232.789 275.057 173.083 273.92 170.964C272.783 168.845 215.539 191.42 210.57 186.224C204.823 181.607 199.291 162.229 199.291 162.229Z" fill="url(#paint8_linear_852_43)"/>
<path d="M255.812 207.954C278.288 215.518 251.621 227.609 272.939 229.999C278.505 230.638 226.536 242.052 233.092 252.952C236.787 259.097 291.423 242 298.287 239.612C305.15 237.224 280.714 167.102 277.313 164.788C273.911 162.474 223.126 183.335 217.977 182.598C213.245 181.763 209.508 167.161 209.508 167.161C209.508 167.161 228.867 152.813 274.898 149.795C286.39 162.659 319.135 234.721 312.483 246.775C301.774 255.511 232.524 265.543 223.795 259.032C215.066 252.522 209.403 222.731 215.366 217.442C220.383 211.986 255.812 207.954 255.812 207.954Z" fill="url(#paint9_linear_852_43)"/>
<g filter="url(#filter1_d_852_43)">
<circle cx="248" cy="211" r="94" stroke="#7FD71B" stroke-opacity="0.01" stroke-width="82.5686"/>
</g>
<defs>
<filter id="filter0_d_852_43" x="0.715698" y="499.716" width="577.569" height="393.569" filterUnits="userSpaceOnUse" color-interpolation-filters="sRGB">
<feFlood flood-opacity="0" result="BackgroundImageFix"/>
<feColorMatrix in="SourceAlpha" type="matrix" values="0 0 0 0 0 0 0 0 0 0 0 0 0 0 0 0 0 0 127 0" result="hardAlpha"/>
<feOffset/>
<feGaussianBlur stdDeviation="37.5"/>
<feColorMatrix type="matrix" values="0 0 0 0 0.827835 0 0 0 0 0.190508 0 0 0 0 0.904753 0 0 0 0.3 0"/>
<feBlend mode="normal" in2="BackgroundImageFix" result="effect1_dropShadow_852_43"/>
<feBlend mode="normal" in="SourceGraphic" in2="effect1_dropShadow_852_43" result="shape"/>
</filter>
<filter id="filter1_d_852_43" x="37.7157" y="0.715714" width="420.569" height="420.569" filterUnits="userSpaceOnUse" color-interpolation-filters="sRGB">
<feFlood flood-opacity="0" result="BackgroundImageFix"/>
<feColorMatrix in="SourceAlpha" type="matrix" values="0 0 0 0 0 0 0 0 0 0 0 0 0 0 0 0 0 0 127 0" result="hardAlpha"/>
<feOffset/>
<feGaussianBlur stdDeviation="37.5"/>
<feColorMatrix type="matrix" values="0 0 0 0 0.827835 0 0 0 0 0.190508 0 0 0 0 0.904753 0 0 0 0.3 0"/>
<feBlend mode="normal" in2="BackgroundImageFix" result="effect1_dropShadow_852_43"/>
<feBlend mode="normal" in="SourceGraphic" in2="effect1_dropShadow_852_43" result="shape"/>
</filter>
<linearGradient id="paint0_linear_852_43" x1="266.849" y1="384.57" x2="277.228" y2="682.853" gradientUnits="userSpaceOnUse">
<stop offset="0.307345" stop-color="#948A6C"/>
<stop offset="0.745124" stop-color="#948A6C"/>
</linearGradient>
<linearGradient id="paint1_linear_852_43" x1="261.937" y1="249.173" x2="313.963" y2="321.321" gradientUnits="userSpaceOnUse">
<stop stop-color="#948A6C"/>
<stop offset="1" stop-color="#AAA082"/>
</linearGradient>
<linearGradient id="paint2_linear_852_43" x1="330.614" y1="480.195" x2="338.939" y2="541.243" gradientUnits="userSpaceOnUse">
<stop stop-color="#948B6D"/>
<stop offset="1" stop-color="#A69D80"/>
</linearGradient>
<linearGradient id="paint3_linear_852_43" x1="282.052" y1="582.119" x2="282.052" y2="737.515" gradientUnits="userSpaceOnUse">
<stop stop-color="#908564"/>
<stop offset="1" stop-color="#9D967F"/>
</linearGradient>
<linearGradient id="paint4_linear_852_43" x1="225.167" y1="664.115" x2="209.885" y2="703.756" gradientUnits="userSpaceOnUse">
<stop stop-color="#982981"/>
<stop offset="0.404912" stop-color="#862472"/>
<stop offset="1" stop-color="#65185B"/>
</linearGradient>
<linearGradient id="paint5_linear_852_43" x1="394.438" y1="624.997" x2="379.157" y2="661.241" gradientUnits="userSpaceOnUse">
<stop stop-color="#982981"/>
<stop offset="0.404912" stop-color="#862472"/>
<stop offset="1" stop-color="#65185B"/>
</linearGradient>
<linearGradient id="paint6_linear_852_43" x1="392.652" y1="477.326" x2="374.254" y2="508.417" gradientUnits="userSpaceOnUse">
<stop stop-color="#982981"/>
<stop offset="0.404912" stop-color="#862472"/>
<stop offset="1" stop-color="#65185B"/>
</linearGradient>
<linearGradient id="paint7_linear_852_43" x1="166.478" y1="409.454" x2="149.178" y2="434.469" gradientUnits="userSpaceOnUse">
<stop stop-color="#982981"/>
<stop offset="0.404912" stop-color="#862472"/>
<stop offset="1" stop-color="#65185B"/>
</linearGradient>
<linearGradient id="paint8_linear_852_43" x1="235.373" y1="151.287" x2="262.187" y2="265.585" gradientUnits="userSpaceOnUse">
<stop stop-color="#A35CAB"/>
<stop offset="1" stop-color="#77457D"/>
</linearGradient>
<linearGradient id="paint9_linear_852_43" x1="238.306" y1="155.378" x2="263.06" y2="260.894" gradientUnits="userSpaceOnUse">
<stop stop-color="#A35CAB"/>
<stop offset="1" stop-color="#77457D"/>
</linearGradient>
</defs>
</svg>
