<svg width="520" height="560" viewBox="0 0 520 560" fill="none" xmlns="http://www.w3.org/2000/svg">
<g clip-path="url(#clip0_864_1267)">
<ellipse cx="215.924" cy="500.212" rx="126" ry="59.5" fill="url(#paint0_radial_864_1267)"/>
<path d="M127.417 217.811C127.147 216.803 125.859 216.29 124.563 216.824C123.304 217.282 122.428 218.523 122.698 219.531L122.728 219.643C123.193 221.808 122.932 224.053 121.883 226.156C119.562 230.811 114.184 232.648 109.935 230.326C108.789 229.699 107.792 228.772 107.073 227.806C106.556 226.95 105.252 226.811 104.084 227.605C102.915 228.4 102.346 229.713 102.826 230.644C102.826 230.644 102.826 230.644 102.893 230.681C104.063 232.466 105.621 233.987 107.577 235.056C114.253 238.705 122.568 235.797 126.162 228.59C127.959 224.986 128.28 221.244 127.417 217.811Z" fill="#8E8B97"/>
<path opacity="0.25" d="M122.766 219.567C123.171 221.509 123.021 223.529 122.22 225.48C122.333 225.255 122.445 225.029 122.52 224.879C123.418 223.077 123.755 219.821 123.147 217.77C122.825 218.071 122.481 218.934 122.766 219.567Z" fill="#46395B"/>
<path opacity="0.25" d="M108.138 233.929C106.318 232.934 105.059 231.673 103.807 230.224C103.477 229.853 103.118 229.37 102.893 228.96C102.706 229.336 102.609 230.047 102.863 230.568C104.032 232.354 105.659 233.912 107.614 234.98C114.29 238.63 122.605 235.722 126.199 228.514C126.386 228.139 126.573 227.763 126.656 227.426C122.889 233.775 115.623 238.021 108.138 233.929Z" fill="#46395B"/>
<path opacity="0.3" d="M125.936 223.88C125.524 223.846 125.029 224.149 124.91 224.561C124.752 225.049 124.595 225.536 124.371 225.986C122.941 229.026 120.409 231.178 117.585 232.023C117.165 232.176 116.873 232.589 116.956 233.112C117.001 233.71 117.54 234.005 118.027 233.889C121.376 232.853 124.402 230.398 126.026 226.796C126.288 226.27 126.483 225.708 126.678 225.146C126.872 224.583 126.483 223.988 125.936 223.88Z" fill="#9C8C9A"/>
<path d="M180.061 466.514C181.02 466.792 181.529 468.155 181.212 469.56C180.895 470.965 179.816 471.988 178.856 471.709C178.784 471.681 178.784 471.681 178.712 471.654C176.739 471.255 174.593 471.599 172.777 472.878C168.679 475.615 167.401 481.5 169.832 486.026C170.467 487.257 171.353 488.226 172.393 488.985C173.2 489.474 173.439 490.913 172.763 492.18C172.159 493.475 170.946 494.176 170.067 493.66C170.067 493.66 170.067 493.66 169.996 493.632C168.293 492.44 166.753 490.771 165.662 488.736C161.817 481.692 163.892 472.52 170.301 468.245C173.401 466.292 176.813 465.806 180.061 466.514Z" fill="url(#paint1_linear_864_1267)"/>
<path opacity="0.25" d="M178.713 471.654C176.954 471.338 175.006 471.578 173.299 472.539C173.496 472.435 173.649 472.224 173.847 472.121C175.438 471.025 178.437 470.56 180.356 471.117C180.05 471.538 179.331 471.981 178.713 471.654Z" fill="#46395B"/>
<path opacity="0.25" d="M166.579 488.189C167.625 490.117 168.861 491.49 170.321 492.679C170.769 493.031 171.145 493.355 171.549 493.599C171.225 493.834 170.615 493.959 170.068 493.659C168.365 492.467 166.825 490.798 165.662 488.735C161.818 481.692 163.892 472.52 170.301 468.245C170.625 468.01 170.921 467.854 171.316 467.647C165.697 472.225 162.278 480.342 166.579 488.189Z" fill="#46395B"/>
<path opacity="0.3" d="M174.537 468.434C174.617 468.914 174.382 469.363 173.987 469.57C173.592 469.777 173.125 469.957 172.729 470.165C170.051 471.831 168.277 474.652 167.678 477.835C167.587 478.339 167.165 478.625 166.752 478.647C166.195 478.613 165.873 478.13 165.991 477.546C166.681 473.86 168.717 470.51 171.916 468.506C172.41 468.246 172.904 467.987 173.399 467.728C173.821 467.441 174.413 467.848 174.537 468.434Z" fill="#575878"/>
<path opacity="0.45" d="M180.061 466.514C181.02 466.792 181.529 468.155 181.212 469.56C180.895 470.965 179.816 471.988 178.856 471.709C178.784 471.681 178.784 471.681 178.712 471.654C176.739 471.255 174.593 471.599 172.777 472.878C168.679 475.615 167.401 481.5 169.832 486.026C170.467 487.257 171.353 488.226 172.393 488.985C173.2 489.474 173.439 490.913 172.763 492.18C172.159 493.475 170.946 494.176 170.067 493.66C170.067 493.66 170.067 493.66 169.996 493.632C168.293 492.44 166.753 490.771 165.662 488.736C161.817 481.692 163.892 472.52 170.301 468.245C173.401 466.292 176.813 465.806 180.061 466.514Z" fill="#BEBEBE"/>
<path d="M100.597 271.083C96.2665 269.958 93.7706 265.154 95.0279 260.395L98.0216 249.229C99.279 244.47 103.841 241.517 108.171 242.642C110.216 243.187 111.955 244.519 113.011 246.53C114.136 248.578 114.384 251.006 113.74 253.33L110.746 264.497C109.556 269.292 104.995 272.245 100.597 271.083ZM106.876 247.476C104.966 247.005 102.951 248.292 102.419 250.391L99.4258 261.557C98.8944 263.655 99.9812 265.778 101.892 266.249C103.802 266.72 105.817 265.433 106.348 263.335L109.342 252.168C109.589 251.156 109.529 250.073 109.012 249.217C108.532 248.286 107.798 247.693 106.876 247.476Z" fill="url(#paint2_linear_864_1267)"/>
<g opacity="0.35">
<path d="M107.589 262.39L110.583 251.223C110.83 250.212 110.769 249.128 110.252 248.272C109.803 247.453 109.001 246.823 108.117 246.531C106.821 246.205 105.562 246.664 104.626 247.681C105.293 247.376 106.124 247.257 106.873 247.476C107.795 247.693 108.529 248.285 109.009 249.216C109.489 250.147 109.586 251.156 109.339 252.168L106.346 263.335C106.181 264.009 105.814 264.573 105.38 265.1C106.398 264.605 107.297 263.664 107.589 262.39Z" fill="#26366F"/>
<path d="M101.905 270.175C97.5743 269.05 95.0784 264.247 96.3357 259.488L99.3294 248.321C99.8534 246.41 100.917 244.794 102.205 243.587C100.228 244.799 98.6698 246.718 98.0187 249.229L95.025 260.395C93.7676 265.154 96.2635 269.958 100.594 271.083C103.186 271.736 105.868 271.004 107.868 269.231C106.137 270.291 103.95 270.72 101.905 270.175Z" fill="#26366F"/>
</g>
<path opacity="0.3" d="M108.951 245.553C110.27 246.178 111.289 247.404 111.709 248.971C111.979 249.978 111.867 251.064 111.62 252.075L111.051 254.249C111.051 254.249 110.849 254.998 110.692 255.485C110.572 255.898 110.797 256.307 111.134 256.491C111.576 256.637 112.033 256.41 112.19 255.922C112.953 253.186 113.126 252.325 113.126 252.325C113.649 250.414 113.417 248.471 112.555 246.758C111.82 245.306 110.509 244.493 109.632 244.014C109.228 243.793 108.733 244.096 108.614 244.508C108.389 244.959 108.576 245.443 108.951 245.553Z" fill="#575878"/>
<path opacity="0.3" d="M101.615 267.149C100.296 266.524 99.2769 265.298 98.857 263.731C98.587 262.723 98.6991 261.638 98.9461 260.626L99.0733 260.027C99.0733 260.027 99.2753 259.278 99.4325 258.79C99.5523 258.378 99.3274 257.968 98.9903 257.784C98.5482 257.638 98.0913 257.866 97.9341 258.353C97.1707 261.089 97.4402 260.377 97.4402 260.377C96.9163 262.288 97.149 264.23 98.011 265.943C98.7456 267.396 100.057 268.208 100.933 268.687C101.338 268.909 101.832 268.606 101.952 268.193C102.109 267.706 101.989 267.258 101.615 267.149Z" fill="#575878"/>
<path d="M95.6472 308.028C91.1521 307.577 88.087 303.227 88.7299 298.323L90.2178 286.907C90.8608 282.003 95.0326 278.455 99.5277 278.906C101.655 279.113 103.573 280.257 104.847 282.005C106.151 283.864 106.781 286.215 106.445 288.611L104.957 300.027C104.284 304.819 100.075 308.442 95.6472 308.028ZM98.8472 283.885C96.8919 283.676 95.0719 285.26 94.7803 287.394L93.2924 298.811C93.0008 300.944 94.3722 302.841 96.3276 303.049C98.2829 303.258 100.103 301.673 100.395 299.54L101.882 288.123C102.062 287.075 101.792 286.067 101.17 285.25C100.548 284.432 99.7762 283.915 98.8472 283.885Z" fill="url(#paint3_linear_864_1267)"/>
<g opacity="0.35">
<path d="M101.473 298.41L102.961 286.993C103.141 285.945 102.871 284.937 102.249 284.119C101.694 283.339 100.818 282.859 99.9262 282.754C98.6226 282.615 97.3567 283.261 96.6228 284.388C97.2595 283.972 98.0236 283.816 98.7802 283.848C99.6718 283.953 100.548 284.432 101.103 285.213C101.725 286.031 101.927 287.001 101.815 288.087L100.328 299.503C100.23 300.214 99.9308 300.815 99.5639 301.379C100.59 300.698 101.354 299.682 101.473 298.41Z" fill="#26366F"/>
<path d="M96.7934 306.935C92.2983 306.484 89.2332 302.133 89.8762 297.23L91.364 285.813C91.6482 283.867 92.4418 282.103 93.6326 280.747C91.85 282.257 90.5246 284.399 90.2181 286.907L88.7303 298.323C88.0873 303.227 91.1524 307.577 95.6475 308.028C98.322 308.343 100.921 307.089 102.689 305.093C101.018 306.378 98.921 307.142 96.7934 306.935Z" fill="#26366F"/>
</g>
<path opacity="0.3" d="M100.622 281.701C102.053 282.102 103.185 283.102 103.777 284.668C104.152 285.637 104.249 286.646 104.137 287.731L103.876 289.977C103.876 289.977 103.779 290.688 103.719 291.324C103.666 291.773 103.929 292.108 104.303 292.217C104.745 292.363 105.172 292.023 105.262 291.499C105.651 288.654 105.756 287.756 105.756 287.756C106.04 285.809 105.53 283.906 104.488 282.381C103.574 281.117 102.12 280.418 101.236 280.126C100.794 279.98 100.3 280.283 100.21 280.807C100.023 281.183 100.248 281.592 100.622 281.701Z" fill="#575878"/>
<path opacity="0.3" d="M96.1182 303.986C94.6872 303.586 93.5557 302.585 92.9635 301.019C92.5886 300.05 92.491 299.041 92.6031 297.956L92.6628 297.32C92.6628 297.32 92.76 296.609 92.8198 295.973C92.8721 295.523 92.6098 295.189 92.2352 295.08C91.7932 294.934 91.3663 295.274 91.2765 295.798C90.8877 298.643 91.0223 297.856 91.0223 297.856C90.7382 299.803 91.2481 301.706 92.2898 303.231C93.2041 304.495 94.6576 305.194 95.5417 305.486C95.9837 305.632 96.4781 305.329 96.5679 304.805C96.6502 304.468 96.4928 304.095 96.1182 303.986Z" fill="#575878"/>
<path d="M95.9494 344.597C91.4246 344.894 87.7528 341.072 87.7065 336.174L87.6811 324.694C87.6349 319.796 91.3496 315.616 95.8744 315.319C98.0169 315.152 100.085 315.996 101.643 317.517C103.232 319.149 104.109 321.349 104.117 323.742L104.143 335.221C104.151 340.194 100.437 344.374 95.9494 344.597ZM95.9132 320.404C93.9804 320.494 92.3552 322.376 92.3408 324.471L92.3662 335.95C92.3518 338.044 94.0078 339.714 95.9406 339.624C97.8734 339.533 99.4986 337.651 99.513 335.557L99.4876 324.078C99.4948 323.03 99.12 322.061 98.4231 321.394C97.7262 320.726 96.8121 320.322 95.9132 320.404Z" fill="url(#paint4_linear_864_1267)"/>
<g opacity="0.35">
<path d="M100.494 334.278L100.469 322.798C100.476 321.751 100.101 320.782 99.4045 320.115C98.7077 319.447 97.861 319.08 96.8946 319.125C95.5836 319.173 94.4451 320.079 93.7787 321.243C94.3854 320.715 95.052 320.411 95.8461 320.367C96.8125 320.322 97.6592 320.689 98.3561 321.357C99.0529 322.024 99.4278 322.994 99.4205 324.041L99.446 335.52C99.4537 336.193 99.289 336.867 98.9895 337.468C99.8808 336.713 100.48 335.512 100.494 334.278Z" fill="#26366F"/>
<path d="M96.9311 343.317C92.4063 343.615 88.7344 339.793 88.6882 334.895L88.6627 323.415C88.7072 321.433 89.2611 319.634 90.287 318.093C88.6693 319.788 87.681 322.114 87.6817 324.694L87.7071 336.174C87.7533 341.072 91.3578 344.857 95.95 344.597C98.6769 344.463 101.014 342.874 102.586 340.58C101.074 342.238 99.1036 343.263 96.9311 343.317Z" fill="#26366F"/>
</g>
<path opacity="0.3" d="M97.3886 317.961C98.827 318.174 100.138 318.987 100.91 320.364C101.427 321.22 101.66 322.303 101.653 323.35L101.668 325.556C101.668 325.556 101.638 326.304 101.684 326.902C101.669 327.276 101.998 327.647 102.343 327.644C102.822 327.715 103.219 327.264 103.204 326.778C103.249 323.935 103.181 323.038 103.181 323.038C103.188 321.131 102.468 319.305 101.142 318.007C100.085 316.856 98.5494 316.494 97.6279 316.277C97.1484 316.206 96.7889 316.583 96.6992 317.107C96.7143 317.593 96.9766 317.927 97.3886 317.961Z" fill="#575878"/>
<path opacity="0.3" d="M95.9037 340.559C94.4653 340.346 93.1541 339.534 92.3821 338.156C91.865 337.3 91.6324 336.218 91.6397 335.171L91.5946 334.573C91.5946 334.573 91.6243 333.825 91.5792 333.227C91.5941 332.853 91.2644 332.481 90.9198 332.484C90.4403 332.413 90.0434 332.865 90.0585 333.351C90.0143 336.193 90.044 335.445 90.044 335.445C90.037 337.352 90.7567 339.179 92.083 340.477C93.1396 341.628 94.6755 341.989 95.597 342.206C96.0765 342.277 96.436 341.901 96.5258 341.376C96.5406 341.002 96.2109 340.631 95.9037 340.559Z" fill="#575878"/>
<path d="M100.506 379.859C96.0263 380.754 91.8827 377.534 91.2821 372.715L89.8708 361.434C89.2702 356.615 92.4529 351.953 96.9326 351.057C99.0526 350.592 101.203 351.098 102.941 352.431C104.747 353.8 105.871 355.848 106.157 358.201L107.568 369.483C108.168 374.302 104.986 378.963 100.506 379.859ZM97.5631 355.988C95.5855 356.34 94.23 358.37 94.4553 360.5L95.8667 371.781C96.092 373.911 97.8978 375.28 99.8755 374.928C101.853 374.576 103.209 372.546 102.983 370.416L101.572 359.135C101.407 358.089 100.927 357.158 100.155 356.641C99.4211 356.048 98.4995 355.831 97.5631 355.988Z" fill="url(#paint5_linear_864_1267)"/>
<g opacity="0.35">
<path d="M103.867 368.988L102.455 357.706C102.29 356.661 101.81 355.73 101.039 355.212C100.304 354.62 99.3828 354.403 98.409 354.635C97.0905 354.869 96.0495 355.925 95.5853 357.2C96.1246 356.635 96.7613 356.218 97.5254 356.063C98.4618 355.906 99.3833 356.123 100.155 356.64C100.889 357.233 101.474 358.125 101.572 359.134L102.983 370.416C103.058 371.125 102.998 371.762 102.766 372.399C103.56 371.495 103.987 370.295 103.867 368.988Z" fill="#26366F"/>
<path d="M101.389 378.431C96.9097 379.326 92.7661 376.106 92.1655 371.287L90.7542 360.005C90.5214 358.063 90.873 356.153 91.6967 354.501C90.3112 356.419 89.5927 358.893 89.908 361.358L91.3193 372.64C91.9199 377.458 96.0636 380.679 100.543 379.783C103.218 379.239 105.427 377.389 106.663 374.911C105.315 376.754 103.472 378.04 101.389 378.431Z" fill="#26366F"/>
</g>
<path opacity="0.3" d="M98.7689 353.398C100.252 353.349 101.638 354.011 102.658 355.237C103.28 356.055 103.654 357.024 103.752 358.033L104.045 360.199C104.045 360.199 104.12 360.909 104.165 361.507C104.217 361.918 104.517 362.178 104.929 362.212C105.379 362.171 105.776 361.719 105.693 361.196C105.393 358.357 105.288 357.535 105.288 357.535C105.055 355.592 104.051 353.992 102.649 352.844C101.413 351.882 99.8698 351.707 98.8734 351.64C98.4239 351.681 98.0644 352.058 98.0795 352.544C98.0572 353.105 98.4243 353.401 98.7689 353.398Z" fill="#575878"/>
<path opacity="0.3" d="M100.011 375.861C98.5273 375.911 97.1412 375.248 96.1221 374.023C95.5001 373.205 95.1252 372.236 95.0276 371.227L94.915 370.592C94.915 370.592 94.8399 369.882 94.7948 369.284C94.7423 368.873 94.4426 368.614 94.0305 368.58C93.581 368.621 93.1841 369.073 93.2667 369.595C93.567 372.435 93.5294 371.65 93.5294 371.65C93.7621 373.593 94.7664 375.192 96.1676 376.341C97.404 377.303 98.9473 377.478 99.9437 377.545C100.393 377.504 100.753 377.127 100.738 376.641C100.722 376.155 100.355 375.859 100.011 375.861Z" fill="#575878"/>
<path d="M111.714 415.031C107.467 417.009 102.762 414.915 101.15 410.403L97.4691 399.888C95.8573 395.376 98.0285 390.161 102.276 388.183C104.276 387.27 106.516 387.252 108.449 388.022C110.517 388.866 112.068 390.574 112.84 392.811L116.521 403.327C118.133 407.839 115.924 413.128 111.714 415.031ZM103.85 392.77C101.992 393.57 101.072 395.933 101.754 397.835L105.435 408.35C106.08 410.327 108.215 411.208 110.005 410.371C111.863 409.571 112.784 407.208 112.101 405.306L108.42 394.791C108.046 393.821 107.386 393.079 106.54 392.711C105.693 392.344 104.726 392.389 103.85 392.77Z" fill="url(#paint6_linear_864_1267)"/>
<g opacity="0.35">
<path d="M112.677 403.805L108.996 393.29C108.621 392.321 107.962 391.578 107.115 391.211C106.269 390.844 105.302 390.889 104.426 391.269C103.197 391.84 102.321 393.081 102.164 394.428C102.569 393.789 103.145 393.149 103.917 392.807C104.793 392.426 105.76 392.381 106.606 392.748C107.52 393.152 108.18 393.895 108.487 394.827L112.168 405.343C112.386 405.939 112.461 406.649 112.296 407.323C112.925 406.234 113.112 404.999 112.677 403.805Z" fill="#26366F"/>
<path d="M112.223 413.494C107.976 415.472 103.271 413.378 101.659 408.866L97.9776 398.35C97.3254 396.561 97.3324 394.653 97.8188 392.817C96.838 394.957 96.6664 397.538 97.4686 399.887L101.15 410.403C102.762 414.915 107.467 417.009 111.714 415.031C114.276 413.852 116.021 411.557 116.747 408.896C115.773 410.848 114.223 412.581 112.223 413.494Z" fill="#26366F"/>
</g>
<path opacity="0.3" d="M104.479 389.961C105.872 389.576 107.446 389.863 108.682 390.825C109.416 391.417 110.001 392.31 110.376 393.28L111.155 395.33C111.155 395.33 111.403 396.038 111.59 396.523C111.748 396.896 112.085 397.08 112.467 397.002C112.886 396.849 113.148 396.324 113.028 395.876C112.099 393.266 111.821 392.445 111.821 392.445C111.169 390.656 109.948 389.319 108.254 388.585C106.868 387.923 105.31 388.122 104.336 388.354C103.849 388.47 103.587 388.996 103.707 389.443C103.76 389.854 104.164 390.075 104.479 389.961Z" fill="#575878"/>
<path opacity="0.3" d="M110.312 411.303C108.919 411.688 107.346 411.401 106.109 410.439C105.375 409.846 104.79 408.954 104.415 407.984L104.198 407.388C104.198 407.388 103.951 406.679 103.763 406.195C103.606 405.822 103.269 405.638 102.887 405.716C102.467 405.868 102.205 406.394 102.325 406.842C103.255 409.452 103.007 408.743 103.007 408.743C103.659 410.533 104.881 411.87 106.574 412.604C107.96 413.266 109.519 413.067 110.492 412.835C110.979 412.719 111.241 412.193 111.121 411.745C111.099 411.446 110.694 411.225 110.312 411.303Z" fill="#575878"/>
<path d="M130.654 444.684C126.789 447.444 121.732 446.399 119.378 442.342L113.9 432.85C111.546 428.793 112.766 423.25 116.631 420.489C118.473 419.203 120.631 418.663 122.751 419.057C124.939 419.489 126.782 420.783 127.906 422.831L133.385 432.322C135.738 436.38 134.451 441.887 130.654 444.684ZM118.947 424.622C117.246 425.794 116.7 428.266 117.734 429.978L123.281 439.507C124.278 441.294 126.533 441.762 128.165 440.553C129.866 439.38 130.412 436.908 129.378 435.196L123.899 425.704C123.382 424.848 122.58 424.219 121.621 424.077C120.7 423.86 119.763 424.017 118.947 424.622Z" fill="url(#paint7_linear_864_1267)"/>
<g opacity="0.35">
<path d="M129.685 433.548L124.206 424.056C123.689 423.2 122.887 422.571 121.928 422.429C121.006 422.212 120.1 422.481 119.216 423.049C118.048 423.843 117.441 425.232 117.524 426.614C117.793 425.902 118.303 425.225 118.977 424.733C119.793 424.129 120.73 423.972 121.689 424.114C122.61 424.331 123.449 424.885 123.966 425.741L129.445 435.233C129.768 435.791 129.947 436.463 129.955 437.136C130.314 435.899 130.299 434.553 129.685 433.548Z" fill="#26366F"/>
<path d="M130.856 443.074C126.991 445.834 121.934 444.789 119.581 440.732L114.102 431.241C113.135 429.565 112.76 427.736 112.969 425.94C112.393 428.3 112.603 430.804 113.863 432.925L119.341 442.417C121.695 446.474 126.752 447.518 130.617 444.758C132.924 443.057 134.301 440.466 134.48 437.698C133.949 439.796 132.736 441.713 130.856 443.074Z" fill="#26366F"/>
</g>
<path opacity="0.3" d="M119.059 421.816C120.429 421.132 121.98 421.12 123.366 421.782C124.28 422.186 124.94 422.929 125.457 423.785L126.589 425.646C126.589 425.646 126.978 426.241 127.233 426.762C127.391 427.135 127.87 427.206 128.222 427.016C128.679 426.788 128.806 426.189 128.581 425.779C127.195 423.397 126.775 422.69 126.775 422.69C125.876 421.052 124.332 420.017 122.557 419.62C121.088 419.295 119.553 419.793 118.571 420.212C118.114 420.44 117.957 420.928 118.145 421.412C118.37 421.822 118.744 421.931 119.059 421.816Z" fill="#575878"/>
<path opacity="0.3" d="M128.615 441.372C127.245 442.056 125.694 442.068 124.308 441.406C123.394 441.002 122.734 440.259 122.217 439.403L121.857 438.92C121.857 438.92 121.468 438.325 121.213 437.803C121.055 437.431 120.576 437.36 120.224 437.549C119.767 437.777 119.64 438.377 119.865 438.786C121.251 441.168 120.899 440.498 120.899 440.498C121.798 442.136 123.342 443.171 125.117 443.568C126.586 443.893 128.121 443.395 129.103 442.976C129.56 442.748 129.717 442.261 129.529 441.776C129.41 441.328 128.967 441.182 128.615 441.372Z" fill="#575878"/>
<path d="M157.442 468.402C154.364 472.166 149.142 472.656 145.823 469.504L138.09 462.124C134.77 458.972 134.581 453.327 137.659 449.563C139.142 447.794 141.082 446.657 143.262 446.416C145.51 446.211 147.652 446.904 149.279 448.462L157.012 455.842C160.331 458.994 160.52 464.639 157.442 468.402ZM141.009 452.827C139.668 454.483 139.744 456.913 141.205 458.285L148.938 465.665C150.4 467.037 152.647 466.833 153.988 465.177C155.328 463.521 155.253 461.091 153.791 459.719L146.058 452.339C145.361 451.671 144.41 451.342 143.406 451.462C142.507 451.544 141.661 452.037 141.009 452.827Z" fill="url(#paint8_linear_864_1267)"/>
<g opacity="0.35">
<path d="M153.648 458.112L145.915 450.732C145.218 450.065 144.267 449.736 143.263 449.856C142.364 449.938 141.413 450.469 140.798 451.184C139.892 452.313 139.698 453.735 139.99 455.042C140.058 454.219 140.365 453.431 140.941 452.791C141.593 452 142.439 451.508 143.406 451.463C144.409 451.342 145.294 451.635 146.058 452.339L153.791 459.719C154.256 460.164 154.578 460.722 154.758 461.394C154.945 460.159 154.547 458.89 153.648 458.112Z" fill="#26366F"/>
<path d="M157.299 466.796C154.221 470.559 148.999 471.049 145.68 467.897L137.947 460.517C136.62 459.219 135.788 457.617 135.481 455.825C135.489 458.218 136.396 460.529 138.089 462.124L145.823 469.504C149.142 472.656 154.364 472.166 157.442 468.402C159.254 466.144 159.92 463.26 159.44 460.609C159.493 462.74 158.714 464.99 157.299 466.796Z" fill="#26366F"/>
</g>
<path opacity="0.3" d="M140.394 450.103C141.502 449.084 143.038 448.586 144.544 448.836C145.503 448.978 146.379 449.457 147.076 450.124L148.605 451.533C148.605 451.533 149.069 451.978 149.467 452.387C149.766 452.646 150.178 452.68 150.5 452.378C150.86 452.002 150.882 451.441 150.515 451.144C148.589 449.327 148.027 448.733 148.027 448.733C146.701 447.435 144.963 446.963 143.165 447.127C141.644 447.251 140.228 448.197 139.479 448.838C139.09 449.103 139.03 449.739 139.36 450.111C139.697 450.295 140.177 450.366 140.394 450.103Z" fill="#575878"/>
<path opacity="0.3" d="M154.685 465.844C153.576 466.863 152.04 467.361 150.535 467.111C149.576 466.969 148.699 466.49 148.002 465.822L147.567 465.489C147.567 465.489 147.103 465.044 146.706 464.636C146.406 464.377 145.994 464.343 145.672 464.644C145.312 465.021 145.29 465.582 145.657 465.878C147.583 467.695 147.051 467.213 147.051 467.213C148.377 468.512 150.116 468.984 151.913 468.82C153.434 468.696 154.85 467.75 155.599 467.108C155.988 466.844 156.048 466.207 155.718 465.836C155.419 465.577 154.902 465.581 154.685 465.844Z" fill="#575878"/>
<path d="M104.481 254.861C102.915 254.387 102.053 252.674 102.569 250.95L109.134 228.836C109.65 227.112 111.276 226.089 112.841 226.563C113.591 226.782 114.19 227.3 114.505 228.046C114.857 228.716 114.925 229.613 114.685 230.437L108.256 252.625C107.739 254.349 106.047 255.334 104.481 254.861Z" fill="url(#paint9_linear_864_1267)"/>
<path opacity="0.3" d="M107.385 245.939C106.501 245.647 106.081 244.079 106.598 242.355L108.828 234.784C109.345 233.06 110.491 231.967 111.412 232.184C111.854 232.33 112.214 232.813 112.326 233.448C112.439 234.083 112.439 234.943 112.2 235.767L109.969 243.338C109.52 245.099 108.374 246.193 107.385 245.939Z" fill="#575878"/>
<path opacity="0.35" d="M106.022 249.875C105.205 249.62 104.576 248.989 104.261 248.244L110.549 227.03C109.912 227.446 109.44 228.048 109.201 228.873L104.111 245.964L102.951 250.012L102.636 250.986C102.12 252.711 102.982 254.424 104.548 254.898C106.113 255.371 107.739 254.349 108.255 252.625L109.73 247.602C109.213 249.327 107.52 250.312 106.022 249.875Z" fill="#26366F"/>
<path d="M97.6803 289.839C96.107 289.553 95.1027 287.953 95.4843 286.155L100.071 263.533C100.415 261.811 101.943 260.639 103.584 260.963C104.37 261.106 105.007 261.55 105.427 262.257C105.779 262.927 105.952 263.786 105.78 264.647L101.193 287.269C100.849 288.992 99.2536 290.126 97.6803 289.839Z" fill="url(#paint10_linear_864_1267)"/>
<path opacity="0.3" d="M99.7678 280.661C98.8089 280.519 98.3215 278.915 98.6657 277.193L100.214 269.44C100.559 267.717 101.607 266.475 102.566 266.617C103.046 266.688 103.405 267.171 103.623 267.768C103.84 268.364 103.84 269.224 103.668 270.086L102.119 277.838C101.805 279.673 100.757 280.915 99.7678 280.661Z" fill="#575878"/>
<path opacity="0.35" d="M98.7425 284.783C97.8884 284.603 97.289 284.084 96.8692 283.377L101.246 261.692C100.677 262.145 100.235 262.859 100.1 263.645L96.5465 281.098L95.6935 285.218L95.4466 286.23C95.1024 287.953 96.0693 289.628 97.6426 289.914C99.2159 290.201 100.811 289.067 101.155 287.344L102.188 282.175C101.844 283.898 100.316 285.069 98.7425 284.783Z" fill="#26366F"/>
<path d="M103.04 272.896C102.516 273.947 101.43 274.404 100.62 273.962C99.8112 273.519 99.5487 272.325 100.073 271.274C100.597 270.223 101.683 269.765 102.492 270.208C103.302 270.65 103.527 271.92 103.04 272.896Z" fill="#575878"/>
<path d="M95.8468 327.246C94.2286 327.221 92.9771 325.773 93.0441 324.09L94.0945 301.16C94.1989 299.402 95.5994 297.97 97.1502 297.957C97.9443 297.914 98.686 298.319 99.1806 298.876C99.6752 299.433 99.9526 300.254 99.9528 301.114L98.9025 324.044C98.8655 325.839 97.5024 327.196 95.8468 327.246Z" fill="url(#paint11_linear_864_1267)"/>
<path opacity="0.3" d="M96.564 317.892C95.5976 317.937 94.8631 316.485 94.9675 314.727L95.3475 306.908C95.452 305.15 96.3356 303.722 97.2645 303.752C97.7815 303.748 98.2161 304.081 98.4335 304.678C98.7557 305.236 98.8608 306.058 98.8611 306.918L98.481 314.736C98.3766 316.494 97.5304 317.847 96.564 317.892Z" fill="#575878"/>
<path opacity="0.35" d="M96.1235 322.046C95.262 322.053 94.5202 321.648 93.9956 320.979L95.0087 298.984C94.4695 299.549 94.1625 300.337 94.1328 301.085L93.2908 318.778L93.0896 322.968L93.015 323.978C92.9106 325.736 94.162 327.185 95.8176 327.134C97.4358 327.159 98.8364 325.727 98.8734 323.932L99.1492 318.732C99.0748 320.602 97.7791 321.996 96.1235 322.046Z" fill="#26366F"/>
<path d="M98.0064 363.014C96.3808 363.177 95.017 361.953 94.9491 360.197L93.7895 337.396C93.7216 335.639 94.9198 334.097 96.5455 333.934C97.377 333.816 98.0888 334.109 98.6882 334.628C99.2202 335.11 99.6025 335.892 99.6702 336.789L100.83 359.589C100.83 361.309 99.632 362.852 98.0064 363.014Z" fill="url(#paint12_linear_864_1267)"/>
<path opacity="0.5" d="M97.7569 353.705C96.7531 353.825 95.8762 352.486 95.8083 350.729L95.4317 342.88C95.3638 341.123 96.0452 339.584 97.0116 339.539C97.4611 339.498 98.0005 339.793 98.3228 340.351C98.6451 340.91 98.8925 341.618 98.9601 342.515L99.3368 350.365C99.4046 352.122 98.7233 353.66 97.7569 353.705Z" fill="#575878"/>
<path opacity="0.35" d="M97.7279 357.893C96.8963 358.012 96.1171 357.682 95.5551 357.088L94.4257 335.259C93.9539 335.861 93.7144 336.686 93.752 337.471L94.6031 355.039L94.8514 359.187L94.8817 360.159C94.9495 361.916 96.3808 363.176 97.9389 362.977C99.5646 362.815 100.8 361.197 100.695 359.515L100.454 354.319C100.589 356.113 99.3535 357.731 97.7279 357.893Z" fill="#26366F"/>
<path d="M105.454 398.329C103.851 398.79 102.308 397.755 101.963 396.038L97.6417 373.898C97.2966 372.181 98.33 370.453 99.9331 369.991C100.735 369.761 101.521 369.904 102.158 370.348C102.795 370.791 103.252 371.423 103.425 372.282L107.746 394.422C108.053 396.214 107.02 397.942 105.454 398.329Z" fill="url(#paint13_linear_864_1267)"/>
<path opacity="0.3" d="M103.887 389.255C102.913 389.487 101.856 388.336 101.579 386.656L100.056 379.04C99.7107 377.322 100.22 375.785 101.231 375.478C101.718 375.362 102.227 375.545 102.655 376.065C103.119 376.51 103.434 377.255 103.607 378.114L105.129 385.73C105.407 387.411 104.86 389.023 103.887 389.255Z" fill="#575878"/>
<path opacity="0.35" d="M104.449 393.289C103.648 393.519 102.794 393.339 102.157 392.896L98.0083 371.615C97.6714 372.29 97.5367 373.077 97.6418 373.898L101.025 391.035L101.828 395.104L102.03 396.075C102.375 397.792 103.919 398.827 105.522 398.366C107.125 397.904 108.158 396.176 107.813 394.459L106.808 389.419C107.048 391.174 106.015 392.902 104.449 393.289Z" fill="#26366F"/>
<path opacity="0.8" d="M103.284 378.415C102.76 379.466 101.607 379.887 100.73 379.408C99.8533 378.929 99.5233 377.697 100.047 376.646C100.572 375.595 101.725 375.174 102.602 375.654C103.441 376.208 103.771 377.439 103.284 378.415Z" fill="#575878"/>
<path d="M121.944 429.795C120.529 430.741 118.753 430.343 117.914 428.929L107.061 409.907C106.259 408.418 106.715 406.47 108.064 405.487C108.738 404.996 109.569 404.877 110.288 404.983C110.97 405.165 111.674 405.645 112.094 406.353L122.947 425.374C123.854 426.826 123.397 428.774 121.944 429.795Z" fill="url(#paint14_linear_864_1267)"/>
<path opacity="0.3" d="M117.747 421.863C116.931 422.468 115.582 421.731 114.743 420.316L111.04 413.802C110.238 412.313 110.2 410.668 111.084 410.1C111.473 409.835 112.058 409.868 112.597 410.163C113.137 410.457 113.736 410.976 114.118 411.758L117.821 418.273C118.593 419.65 118.631 421.295 117.747 421.863Z" fill="#575878"/>
<path opacity="0.35" d="M119.568 425.438C118.789 425.968 117.958 426.087 117.208 425.868L106.775 407.553C106.641 408.34 106.746 409.162 107.098 409.832L115.47 424.536L117.434 427.998L117.883 428.817C118.685 430.306 120.498 430.628 121.914 429.682C123.33 428.736 123.719 426.752 122.917 425.262L120.436 420.944C121.373 422.507 120.916 424.455 119.568 425.438Z" fill="#26366F"/>
<path d="M145.564 456.083C144.478 457.4 142.575 457.602 141.451 456.414L126.022 441.579C124.861 440.467 124.77 438.411 125.924 437.13C126.501 436.49 127.205 436.111 127.931 436.03C128.658 435.95 129.475 436.205 130.037 436.799L145.466 451.634C146.56 452.71 146.65 454.765 145.564 456.083Z" fill="url(#paint15_linear_864_1267)"/>
<path opacity="0.3" d="M139.405 449.849C138.753 450.64 137.247 450.39 136.086 449.277L130.81 444.196C129.649 443.084 129.229 441.516 129.918 440.651C130.277 440.274 130.802 440.083 131.416 440.228C132.031 440.373 132.742 440.666 133.304 441.26L138.58 446.341C139.674 447.417 140.056 449.059 139.405 449.849Z" fill="#575878"/>
<path opacity="0.35" d="M142.012 452.708C141.398 453.423 140.627 453.766 139.833 453.81L125.071 439.53C125.108 440.315 125.423 441.061 125.955 441.542L137.832 453.003L140.687 455.71L141.384 456.377C142.546 457.49 144.411 457.363 145.497 456.046C146.583 454.728 146.56 452.709 145.398 451.597L141.914 448.259C143.075 449.372 143.166 451.428 142.012 452.708Z" fill="#26366F"/>
<path opacity="0.8" d="M137.613 447.246C137.089 448.297 135.935 448.717 135.059 448.238C134.182 447.759 133.852 446.528 134.376 445.477C134.9 444.426 136.054 444.005 136.93 444.484C137.807 444.963 138.1 446.27 137.613 447.246Z" fill="#575878"/>
<path d="M172.121 479.58C171.065 481.009 169.297 481.285 167.993 480.285L151.583 466.729C150.317 465.655 150.151 463.749 151.14 462.283C151.649 461.606 152.391 461.151 153.117 461.071C153.881 460.915 154.631 461.134 155.23 461.652L171.64 475.208C172.981 476.133 173.177 478.15 172.121 479.58Z" fill="url(#paint16_linear_864_1267)"/>
<path opacity="0.45" d="M172.121 479.58C171.065 481.009 169.297 481.285 167.993 480.285L151.583 466.729C150.317 465.655 150.151 463.749 151.14 462.283C151.649 461.606 152.391 461.151 153.117 461.071C153.881 460.915 154.631 461.134 155.23 461.652L171.64 475.208C172.981 476.133 173.177 478.15 172.121 479.58Z" fill="#AEA8B4"/>
<path opacity="0.3" d="M165.631 473.835C165.01 474.737 163.466 474.563 162.268 473.525L156.595 468.896C155.329 467.822 154.804 466.293 155.456 465.502C155.748 465.089 156.272 464.898 156.924 464.967C157.508 465 158.22 465.293 158.887 465.849L164.559 470.478C165.691 471.479 166.215 473.008 165.631 473.835Z" fill="#575878"/>
<path opacity="0.35" d="M168.419 476.505C167.872 477.257 167.13 477.712 166.336 477.755L150.593 464.755C150.736 465.502 151.051 466.247 151.62 466.654L164.328 477.136L167.296 479.617L168.03 480.21C169.296 481.284 171.102 480.934 172.158 479.504C173.214 478.075 172.981 476.132 171.714 475.058L168.013 471.984C169.242 473.133 169.475 475.076 168.419 476.505Z" fill="#26366F"/>
<path d="M197.2 344.566C197.618 342.173 199.696 340.428 202.125 340.428H227.774C230.18 340.428 232.245 342.141 232.689 344.506L260.814 494.506C261.391 497.583 259.03 500.428 255.899 500.428H175.875C172.769 500.428 170.414 497.625 170.95 494.566L197.2 344.566Z" fill="url(#paint17_linear_864_1267)"/>
<path d="M232.124 369.712L212.924 374.097V434.02L228.924 463.25L235.324 502.712L244.924 486.635L227.324 428.173L232.124 369.712Z" fill="#A39875"/>
<path d="M359.164 20.4317C418.924 38.7119 420.004 38.8692 446.487 93.7046L413.424 153.712L367.924 211.712L295.06 337.829L143.924 211.011L254.924 116.712L305.424 63.212L359.164 20.4317Z" fill="url(#paint18_linear_864_1267)"/>
<path d="M430.924 63.2119L438.924 78.2122L389.132 154.91L351.3 183.789L312.975 231.053L318.351 205.148L381.938 139.549L430.924 63.2119Z" fill="#A4997C"/>
<path d="M263.995 200.567L263.995 200.567L263.994 200.567L263.995 200.567L272.754 215.093L299.792 177.623L329.136 143.206L331.774 116.881L298.6 167.893L263.995 200.567Z" fill="#AC9F7C"/>
<path d="M363.424 21.7114L371.424 24.2119L319.924 70.2119L333.924 50.2119L363.424 21.7114Z" fill="#A49976"/>
<path d="M319.502 85.1751L315.182 96.6893L302.277 112.626L289.924 119.455L319.502 85.1751Z" fill="#ADA281"/>
<path d="M158.375 494.878L166.338 462.446L171.677 457.519L183.386 462.393L189.02 477.936L227.958 482.043L231.453 467L241.556 465.155L246.397 469.37L251.499 461.045L251.997 451.903L264.757 455.564L267.394 477.009L262.926 494.397L267.847 499.745L256.433 515.342L232.676 517.003L229.939 510.364L182.606 500.014L177.188 503.808L158.375 494.878Z" fill="url(#paint19_linear_864_1267)"/>
<path d="M181.315 464.747L166.442 462.401L171.757 457.514L177.424 456.713L176.924 459.712L183.41 462.343L189.013 477.755L227.768 481.818L231.251 466.9L241.306 465.068L242.511 466.112L233.738 470.112L228.082 486.311L187.966 478.957L181.315 464.747Z" fill="#837B63"/>
<path d="M347.424 274.212C347.424 349.875 288.811 415.428 213.424 415.428C138.037 415.428 76.9238 354.091 76.9238 278.428C76.9238 202.765 138.037 141.428 213.424 141.428C255.424 153.212 271.363 162.712 304.424 198.712C326.924 223.212 338.924 240.212 347.424 274.212Z" fill="url(#paint20_radial_864_1267)"/>
<path d="M206.653 253.903C188.946 281.17 150.808 288.204 124.535 271.142C98.2614 254.081 102.976 226.302 120.683 199.035C138.39 171.768 175.444 156.454 201.717 173.516C227.99 190.578 224.36 226.636 206.653 253.903Z" fill="#4E3B21"/>
<path d="M231.408 306.549C231.101 305.566 231.788 304.085 233.005 303.379C234.158 302.649 235.422 302.829 235.729 303.811L235.763 303.921C236.507 305.934 237.825 307.388 239.646 308.065C243.681 309.564 248.543 306.352 250.492 300.996C251.018 299.551 251.284 298.01 251.327 296.674C251.276 295.594 252.162 294.379 253.416 293.977C254.671 293.574 255.746 294.07 255.861 295.174C255.861 295.174 255.861 295.174 255.83 295.259C255.868 297.59 255.489 300.054 254.591 302.519C251.528 310.935 243.978 315.85 237.731 313.53C234.608 312.37 232.497 309.848 231.408 306.549Z" fill="url(#paint21_linear_864_1267)"/>
<path opacity="0.45" d="M231.408 306.549C231.101 305.566 231.788 304.085 233.005 303.379C234.158 302.649 235.422 302.829 235.729 303.811L235.763 303.921C236.507 305.934 237.825 307.388 239.646 308.065C243.681 309.564 248.543 306.352 250.492 300.996C251.018 299.551 251.284 298.01 251.327 296.674C251.276 295.594 252.162 294.379 253.416 293.977C254.671 293.574 255.746 294.07 255.861 295.174C255.861 295.174 255.861 295.174 255.83 295.259C255.868 297.59 255.489 300.054 254.591 302.519C251.528 310.935 243.978 315.85 237.731 313.53C234.608 312.37 232.497 309.848 231.408 306.549Z" fill="#BEBED0"/>
<path opacity="0.25" d="M235.698 303.896C236.374 305.691 237.496 307.073 239.061 307.847C238.866 307.775 238.671 307.702 238.541 307.654C236.979 307.074 235.101 304.929 234.517 302.878C234.874 302.914 235.589 303.18 235.698 303.896Z" fill="#46395B"/>
<path opacity="0.25" d="M253.615 302.157C254.451 299.862 254.741 297.847 254.932 295.698C254.988 295.14 255.009 294.472 254.968 293.975C255.294 294.096 255.721 294.544 255.796 295.151C255.834 297.481 255.423 300.03 254.526 302.495C251.463 310.911 243.913 315.826 237.666 313.506C237.341 313.385 237.016 313.264 236.786 313.082C242.729 314.614 250.181 311.593 253.615 302.157Z" fill="#46395B"/>
<path opacity="0.3" d="M235.536 309.819C235.821 309.442 236.27 309.223 236.63 309.453C236.989 309.683 237.349 309.913 237.739 310.058C240.311 311.11 243.244 310.559 245.737 308.783C246.121 308.54 246.543 308.6 246.744 309.061C247.011 309.546 246.763 310.226 246.348 310.554C243.375 312.634 239.928 313.38 236.931 312.074C236.476 311.905 236.051 311.651 235.627 311.397C235.202 311.143 235.19 310.366 235.536 309.819Z" fill="#575878"/>
<path d="M234.615 488.035C233.956 489.028 234.166 490.436 235.073 491.194C235.98 491.952 237.337 491.806 237.996 490.813C238.042 490.734 238.042 490.734 238.088 490.655C239.524 488.74 241.443 487.223 243.521 486.655C248.144 485.266 251.903 488.485 251.992 493.771C252.039 495.187 251.758 496.62 251.254 498.027C250.818 499.046 251.284 500.287 252.422 500.65C253.514 501.092 254.832 500.602 255.315 499.504C255.315 499.504 255.315 499.504 255.361 499.425C256.209 497.157 256.704 494.678 256.662 492.303C256.572 484.026 250.646 479.08 243.419 481.255C239.976 482.391 236.953 484.847 234.615 488.035Z" fill="url(#paint22_linear_864_1267)"/>
<path opacity="0.25" d="M238.042 490.734C239.34 489.057 241.048 487.627 242.892 486.918C242.682 487.006 242.459 486.979 242.249 487.066C240.439 487.581 237.765 489.713 236.447 491.698C236.938 491.673 237.732 491.402 238.042 490.734Z" fill="#46395B"/>
<path opacity="0.25" d="M255.658 492.662C255.7 495.037 255.306 496.936 254.668 499.116C254.462 499.74 254.303 500.285 254.085 500.795C254.458 500.699 255.017 500.286 255.327 499.618C256.175 497.351 256.67 494.872 256.674 492.418C256.584 484.141 250.658 479.194 243.432 481.369C243.058 481.465 242.743 481.596 242.323 481.771C249.029 480.352 255.572 483.426 255.658 492.662Z" fill="#46395B"/>
<path opacity="0.3" d="M240.031 484.88C240.187 485.294 240.586 485.427 241.006 485.252C241.426 485.076 241.892 484.822 242.312 484.647C245.276 483.651 248.031 484.237 249.988 486.053C250.295 486.344 250.773 486.204 251.122 485.879C251.563 485.397 251.605 484.781 251.239 484.455C248.975 482.348 245.763 481.594 242.215 482.774C241.69 482.992 241.165 483.211 240.64 483.43C240.115 483.649 239.863 484.352 240.031 484.88Z" fill="#575878"/>
<path d="M248.887 337.543L244.792 328.817C243.919 327.011 243.965 324.721 244.958 322.39C245.884 320.123 247.58 318.167 249.665 316.785C254.08 313.884 259.093 314.546 260.818 318.272L264.913 326.998C266.639 330.724 264.457 336.13 260.041 339.03C255.625 341.931 250.613 341.269 248.887 337.543ZM249.429 322.996C249.01 324.041 248.996 324.99 249.342 325.791L253.437 334.517C254.174 336.17 256.386 336.447 258.337 335.19C260.287 333.933 261.235 331.552 260.498 329.899L256.403 321.173C255.666 319.52 253.453 319.243 251.503 320.5C250.561 321.097 249.781 322.012 249.429 322.996Z" fill="url(#paint23_linear_864_1267)"/>
<g opacity="0.35">
<path d="M251.992 334.274L247.897 325.548C247.551 324.747 247.52 323.747 247.984 322.753C248.381 321.821 249.162 320.905 250.058 320.257C251.381 319.398 252.732 319.261 253.797 319.766C253.075 319.783 252.198 320.04 251.436 320.563C250.495 321.16 249.781 322.013 249.362 323.059C248.944 324.105 248.93 325.053 249.275 325.854L253.37 334.58C253.601 335.114 254.033 335.46 254.531 335.744C253.426 335.745 252.474 335.228 251.992 334.274Z" fill="#26366F"/>
<path d="M258.663 338.725C263.079 335.824 265.261 330.419 263.535 326.692L259.441 317.967C258.728 316.478 257.478 315.49 256.03 314.968C258.197 315.194 259.988 316.239 260.886 318.21L264.981 326.936C266.707 330.662 264.524 336.067 260.109 338.968C257.464 340.686 254.604 341.199 252.365 340.479C254.261 340.676 256.579 340.107 258.663 338.725Z" fill="#26366F"/>
</g>
<path opacity="0.3" d="M249.174 319.677C247.854 320.814 246.898 322.36 246.597 323.952C246.404 324.975 246.615 325.901 246.961 326.702L247.744 328.406C247.744 328.406 248.02 328.991 248.226 329.36C248.387 329.678 248.188 330.145 247.853 330.457C247.405 330.781 246.909 330.776 246.702 330.407C245.668 328.282 245.413 327.583 245.413 327.583C244.7 326.095 244.774 324.248 245.522 322.333C246.161 320.707 247.457 319.405 248.329 318.592C248.732 318.217 249.273 318.273 249.434 318.592C249.641 318.961 249.555 319.415 249.174 319.677Z" fill="#575878"/>
<path opacity="0.3" d="M258.704 335.878C260.024 334.741 260.979 333.195 261.28 331.603C261.474 330.58 261.262 329.654 260.917 328.853L260.732 328.37C260.732 328.37 260.456 327.785 260.249 327.416C260.088 327.098 260.287 326.632 260.622 326.319C261.07 325.995 261.567 326 261.773 326.37C262.808 328.494 262.464 327.972 262.464 327.972C263.177 329.46 263.104 331.307 262.355 333.222C261.716 334.848 260.42 336.15 259.548 336.963C259.146 337.338 258.604 337.282 258.443 336.964C258.237 336.594 258.323 336.14 258.704 335.878Z" fill="#575878"/>
<path opacity="0.45" d="M249.686 316.671C247.601 318.053 245.906 320.009 244.98 322.277C244.163 324.255 243.978 326.113 244.489 327.789C245.973 327.248 247.703 326.571 249.479 325.945L249.409 325.729C249.063 324.928 249.031 323.928 249.496 322.933C249.893 322.001 250.674 321.086 251.57 320.437C253.52 319.18 255.733 319.457 256.47 321.11L257.689 323.718C259.513 323.421 261.382 323.176 263.367 323.197L261.065 318.136C259.16 314.483 254.102 313.77 249.686 316.671Z" fill="#9A9A9A"/>
<path d="M258.494 366.778L255.7 357.307C255.14 355.301 255.412 352.988 256.676 350.686C257.806 348.509 259.705 346.644 261.859 345.478C266.46 343.06 271.185 344.364 272.417 348.364L275.211 357.835C276.376 361.897 273.607 367.195 269.052 369.663C264.384 372.144 259.659 370.84 258.494 366.778ZM260.814 351.883C260.304 352.826 260.156 353.9 260.435 354.764L263.228 364.235C263.719 366.024 265.821 366.591 267.795 365.499C269.815 364.458 271.034 362.105 270.477 360.378L267.683 350.907C267.193 349.117 265.09 348.55 263.116 349.642C262.129 350.189 261.324 350.939 260.814 351.883Z" fill="url(#paint24_linear_864_1267)"/>
<g opacity="0.35">
<path d="M261.873 363.815L259.079 354.345C258.8 353.481 258.994 352.458 259.458 351.463C259.968 350.52 260.794 349.656 261.714 349.172C263.061 348.478 264.437 348.505 265.367 349.136C264.667 349.039 263.857 349.233 263.004 349.654C262.084 350.138 261.212 350.951 260.748 351.946C260.238 352.889 260.09 353.963 260.369 354.827L263.162 364.298C263.326 364.894 263.69 365.303 264.122 365.649C263.106 365.474 262.221 364.895 261.873 363.815Z" fill="#26366F"/>
<path d="M267.696 369.244C272.297 366.827 275.066 361.529 273.856 357.416L271.062 347.945C270.596 346.32 269.548 345.144 268.121 344.509C270.132 344.974 271.746 346.37 272.352 348.427L275.146 357.898C276.311 361.96 273.541 367.258 268.986 369.727C266.226 371.177 263.431 371.35 261.369 370.277C263.268 370.753 265.496 370.36 267.696 369.244Z" fill="#26366F"/>
</g>
<path opacity="0.3" d="M261.008 348.519C259.597 349.554 258.505 350.946 258.024 352.612C257.718 353.646 257.75 354.646 258.028 355.51L258.564 357.35C258.564 357.35 258.727 357.947 258.912 358.43C259.006 358.81 258.762 359.225 258.448 359.425C258 359.749 257.525 359.63 257.386 359.198C256.665 356.874 256.478 356.113 256.478 356.113C256.012 354.488 256.31 352.618 257.217 350.743C258.014 349.157 259.469 347.894 260.365 347.246C260.813 346.922 261.354 346.978 261.448 347.359C261.587 347.791 261.389 348.257 261.008 348.519Z" fill="#575878"/>
<path opacity="0.3" d="M268.141 366.299C269.552 365.264 270.645 363.871 271.125 362.206C271.431 361.172 271.4 360.172 271.121 359.308L271.003 358.763C271.003 358.763 270.84 358.166 270.655 357.683C270.561 357.303 270.805 356.888 271.119 356.689C271.567 356.365 272.042 356.484 272.181 356.915C272.902 359.239 272.738 358.642 272.738 358.642C273.205 360.267 272.906 362.137 271.999 364.013C271.202 365.599 269.748 366.861 268.852 367.509C268.404 367.833 267.862 367.777 267.768 367.396C267.562 367.027 267.76 366.561 268.141 366.299Z" fill="#575878"/>
<path d="M263.112 397.858L261.89 387.67C261.644 385.465 262.299 383.169 263.813 381.009C265.259 378.911 267.274 377.313 269.543 376.414C274.261 374.542 278.565 376.613 279.057 381.022L280.279 391.21C280.838 395.557 277.39 400.645 272.626 402.466C267.974 404.276 263.671 402.204 263.112 397.858ZM267.551 382.859C266.928 383.814 266.622 384.849 266.721 385.786L267.943 395.974C268.186 397.9 270.066 398.768 272.088 398.006C274.178 397.18 275.646 394.969 275.448 393.094L274.226 382.906C273.983 380.98 272.103 380.112 270.08 380.874C269.069 381.256 268.219 381.955 267.551 382.859Z" fill="url(#paint25_linear_864_1267)"/>
<g opacity="0.35">
<path d="M266.809 395.252L265.587 385.064C265.488 384.127 265.794 383.093 266.416 382.138C267.085 381.234 267.935 380.534 268.946 380.153C270.317 379.624 271.604 379.827 272.379 380.696C271.701 380.486 270.912 380.566 270.081 380.874C269.069 381.255 268.219 381.955 267.551 382.859C266.928 383.814 266.622 384.848 266.721 385.785L267.943 395.973C267.994 396.581 268.291 397.053 268.656 397.461C267.661 397.172 266.977 396.406 266.809 395.252Z" fill="#26366F"/>
<path d="M271.492 401.745C276.211 399.872 279.637 394.898 279.146 390.489L277.924 380.301C277.704 378.54 276.857 377.177 275.699 376.291C277.533 377.108 278.833 378.704 279.125 380.96L280.347 391.147C280.906 395.494 277.457 400.582 272.694 402.403C269.885 403.524 267.243 403.179 265.45 401.856C267.08 402.583 269.223 402.644 271.492 401.745Z" fill="#26366F"/>
</g>
<path opacity="0.3" d="M268.263 379.387C266.782 380.206 265.532 381.559 264.847 383.133C264.383 384.128 264.302 385.14 264.401 386.077L264.623 388.117C264.623 388.117 264.719 388.776 264.791 389.27C264.839 389.6 264.528 390.077 264.214 390.277C263.721 390.55 263.267 390.317 263.241 389.874C262.947 387.34 262.872 386.567 262.872 386.567C262.653 384.805 263.289 382.901 264.446 381.168C265.447 379.672 266.97 378.626 267.912 378.029C268.405 377.756 268.88 377.875 268.952 378.369C268.888 378.71 268.689 379.176 268.263 379.387Z" fill="#575878"/>
<path opacity="0.3" d="M272.321 398.818C273.802 397.999 275.052 396.645 275.737 395.071C276.201 394.076 276.282 393.065 276.183 392.127L276.178 391.57C276.178 391.57 276.082 390.911 276.009 390.417C275.961 390.087 276.273 389.61 276.586 389.411C277.08 389.138 277.533 389.37 277.56 389.814C277.854 392.348 277.758 391.689 277.758 391.689C277.977 393.45 277.341 395.354 276.184 397.088C275.183 398.583 273.659 399.629 272.718 400.227C272.224 400.5 271.749 400.381 271.677 399.886C271.65 399.443 271.895 399.028 272.321 398.818Z" fill="#575878"/>
<path d="M263.228 429.951L263.423 419.285C263.469 416.995 264.462 414.665 266.113 412.658C267.808 410.702 269.893 409.32 272.165 408.699C276.934 407.435 280.725 410.171 280.587 414.7L280.392 425.366C280.299 429.946 276.307 434.699 271.605 435.901C266.948 437.154 263.157 434.417 263.228 429.951ZM269.472 415.048C268.759 415.901 268.34 416.947 268.259 417.958L268.065 428.624C268.016 430.635 269.673 431.805 271.765 431.258C273.857 430.711 275.574 428.642 275.623 426.63L275.818 415.965C275.867 413.953 274.21 412.783 272.117 413.33C271.195 413.535 270.232 414.246 269.472 415.048Z" fill="url(#paint26_linear_864_1267)"/>
<g opacity="0.35">
<path d="M267.065 427.777L267.259 417.112C267.273 416.163 267.692 415.117 268.472 414.201C269.186 413.349 270.128 412.751 271.117 412.484C272.512 412.119 273.711 412.499 274.306 413.442C273.695 413.17 272.928 413.136 272.118 413.33C271.128 413.598 270.186 414.195 269.472 415.048C268.759 415.9 268.34 416.946 268.259 417.958L268.065 428.624C268.048 429.294 268.233 429.777 268.531 430.248C267.67 429.834 267.008 428.954 267.065 427.777Z" fill="#26366F"/>
<path d="M270.718 435.043C275.487 433.779 279.413 429.089 279.505 424.509L279.7 413.843C279.773 411.996 279.173 410.496 278.103 409.434C279.782 410.49 280.746 412.399 280.745 414.74L280.551 425.406C280.458 429.986 276.466 434.739 271.764 435.941C268.907 436.732 266.442 436.035 264.871 434.411C266.346 435.376 268.401 435.613 270.718 435.043Z" fill="#26366F"/>
</g>
<path opacity="0.3" d="M270.635 411.53C269.13 412.184 267.743 413.384 266.833 414.982C266.256 415.988 266.017 416.96 265.982 418.022L265.911 420.147C265.911 420.147 265.895 420.818 265.9 421.375C265.881 421.767 265.591 422.131 265.165 422.341C264.693 422.501 264.24 422.268 264.258 421.876C264.324 419.194 264.362 418.41 264.362 418.41C264.435 416.563 265.229 414.698 266.59 413.055C267.749 411.6 269.342 410.769 270.375 410.274C270.802 410.064 271.322 410.234 271.281 410.74C271.351 410.956 271.107 411.371 270.635 411.53Z" fill="#575878"/>
<path opacity="0.3" d="M271.819 432.145C273.324 431.491 274.711 430.291 275.62 428.694C276.197 427.688 276.437 426.716 276.472 425.653L276.534 425.034C276.534 425.034 276.55 424.363 276.545 423.806C276.564 423.414 276.854 423.05 277.28 422.84C277.752 422.68 278.205 422.913 278.186 423.305C278.121 425.987 278.159 425.203 278.159 425.203C278.086 427.05 277.291 428.914 275.931 430.557C274.772 432.013 273.178 432.843 272.146 433.338C271.719 433.549 271.199 433.379 271.239 432.873C271.102 432.72 271.459 432.293 271.819 432.145Z" fill="#575878"/>
<path d="M254.43 463.618L258.184 452.535C258.951 450.228 260.578 448.056 262.683 446.561C264.789 445.065 267.083 444.33 269.159 444.454C273.581 444.73 275.964 448.78 274.34 453.571L270.586 464.654C268.983 469.332 264.033 473.011 259.498 472.747C255.143 472.408 252.873 468.347 254.43 463.618ZM264.814 450.19C263.918 450.839 263.183 451.805 262.831 452.788L259.078 463.871C258.353 465.951 259.406 467.684 261.369 467.819C263.333 467.954 265.46 466.345 266.185 464.265L269.939 453.182C270.663 451.102 269.61 449.369 267.647 449.234C266.655 449.223 265.71 449.542 264.814 450.19Z" fill="url(#paint27_linear_864_1267)"/>
<g opacity="0.35">
<path d="M258.481 462.651L262.234 451.568C262.586 450.585 263.321 449.618 264.217 448.97C265.113 448.322 266.17 447.992 267.05 448.014C268.359 448.104 269.246 448.961 269.482 450.052C269.026 449.541 268.415 449.269 267.648 449.235C266.722 449.162 265.711 449.543 264.815 450.191C263.919 450.84 263.184 451.806 262.832 452.79L259.079 463.872C258.837 464.566 258.775 465.185 258.938 465.782C258.255 465.015 258.019 463.924 258.481 462.651Z" fill="#26366F"/>
<path d="M259.081 471.452C263.504 471.728 268.499 468.099 270.169 463.359L273.923 452.276C274.559 450.372 274.565 448.588 274.077 447.077C275.085 448.758 275.377 451.014 274.52 453.498L270.767 464.581C269.164 469.258 264.214 472.938 259.679 472.673C256.994 472.556 255.085 470.966 254.343 468.756C255.327 470.273 256.96 471.277 259.081 471.452Z" fill="#26366F"/>
</g>
<path opacity="0.3" d="M266.926 446.91C265.462 447.059 263.823 447.838 262.573 449.192C261.746 450.056 261.236 450.999 260.817 452.045L260.071 454.239C260.071 454.239 259.829 454.932 259.609 455.512C259.478 455.916 259.075 456.291 258.692 456.274C258.241 456.32 257.922 455.962 258.075 455.445C259.042 452.671 259.305 451.864 259.305 451.864C259.941 449.96 261.256 448.266 262.981 447.032C264.459 445.934 266.079 445.547 267.16 445.382C267.611 445.336 267.93 445.694 267.844 446.148C267.712 446.552 267.377 446.865 266.926 446.91Z" fill="#575878"/>
<path opacity="0.3" d="M261.085 468.74C262.549 468.592 264.188 467.812 265.438 466.459C266.265 465.595 266.775 464.651 267.193 463.605L267.414 463.026C267.414 463.026 267.655 462.332 267.875 461.753C268.007 461.349 268.455 461.025 268.793 460.991C269.243 460.945 269.563 461.303 269.409 461.82C268.443 464.593 268.752 463.838 268.752 463.838C268.115 465.741 266.8 467.436 265.075 468.67C263.597 469.767 261.977 470.155 260.896 470.32C260.446 470.366 260.127 470.008 260.213 469.554C260.232 469.161 260.634 468.786 261.085 468.74Z" fill="#575878"/>
<g opacity="0.45">
<path d="M253.941 466.789C255.281 467.879 257.225 468.406 259.454 468.013L260.715 467.773C259.133 467.377 258.329 465.786 259.011 463.933L259.185 463.302C257.538 463.246 256.445 462.02 256.676 460.213C256.802 459.252 257.267 458.257 258.026 457.456C258.852 456.592 259.84 456.045 260.808 455.891L261.776 455.737L262.697 452.913C263.027 452.043 263.561 451.264 264.299 450.576L261.26 451.163C260.225 451.38 259.281 451.699 258.248 452.194C258.159 452.37 258.138 452.484 258.049 452.66L254.296 463.743C254.057 464.715 253.909 465.789 253.941 466.789Z" fill="#575878"/>
<path d="M270.72 464.529L271.949 460.948C271.657 461.033 271.41 461.17 271.072 461.204L266.907 461.906L266.139 464.213C265.744 465.424 264.762 466.527 263.662 467.084L270.057 465.989C270.301 465.574 270.5 465.108 270.72 464.529Z" fill="#575878"/>
<path d="M272.426 449.083L268.937 449.716C269.98 450.334 270.376 451.743 269.871 453.244L269.52 454.227L271.861 453.822C272.784 453.617 273.575 453.816 274.143 454.315L274.407 453.508C274.933 451.894 275.009 450.326 274.703 449.019C274.07 448.86 273.282 448.94 272.426 449.083Z" fill="#575878"/>
</g>
<path d="M254.577 326.151C256.168 325.042 256.917 323.126 256.228 321.803L247.456 304.801C246.768 303.477 244.984 303.268 243.393 304.377C242.631 304.9 242.052 305.628 241.789 306.435C241.48 307.191 241.488 308.026 241.809 308.663L250.514 325.727C251.203 327.051 253.054 327.197 254.577 326.151Z" fill="url(#paint28_linear_864_1267)"/>
<path opacity="0.45" d="M254.577 326.151C256.168 325.042 256.917 323.126 256.228 321.803L247.456 304.801C246.768 303.477 244.984 303.268 243.393 304.377C242.631 304.9 242.052 305.628 241.789 306.435C241.48 307.191 241.488 308.026 241.809 308.663L250.514 325.727C251.203 327.051 253.054 327.197 254.577 326.151Z" fill="#9A9A9A"/>
<path opacity="0.3" d="M250.839 319.339C251.735 318.691 252.036 317.1 251.347 315.776L248.362 309.948C247.673 308.624 246.383 308.142 245.441 308.739C244.993 309.063 244.661 309.655 244.599 310.274C244.537 310.893 244.612 311.666 244.933 312.302L247.919 318.131C248.541 319.517 249.83 319.999 250.839 319.339Z" fill="#575878"/>
<path opacity="0.35" d="M252.602 322.282C253.431 321.697 254.032 320.855 254.295 320.048L245.891 303.734C246.59 303.83 247.135 304.165 247.456 304.801L254.253 317.934L255.816 321.064L256.228 321.803C256.917 323.126 256.168 325.042 254.577 326.151C252.986 327.26 251.203 327.051 250.514 325.727L248.539 321.859C249.228 323.182 251.078 323.329 252.602 322.282Z" fill="#26366F"/>
<path d="M264.718 354.608C266.333 353.664 267.24 351.788 266.686 350.339L259.931 332.018C259.422 330.62 257.727 330.235 256.045 331.242C255.238 331.714 254.612 332.391 254.237 333.209C253.861 334.028 253.823 334.812 254.078 335.511L260.832 353.832C261.408 355.167 263.103 355.552 264.718 354.608Z" fill="url(#paint29_linear_864_1267)"/>
<path opacity="0.3" d="M261.742 347.274C262.729 346.728 263.097 345.074 262.588 343.677L260.297 337.388C259.788 335.99 258.587 335.332 257.599 335.878C257.106 336.151 256.773 336.742 256.599 337.373C256.424 338.004 256.499 338.777 256.753 339.475L259.044 345.764C259.599 347.213 260.8 347.871 261.742 347.274Z" fill="#575878"/>
<path opacity="0.35" d="M263.237 350.467C264.111 349.932 264.758 349.142 265.067 348.386L258.612 330.815C259.245 330.973 259.768 331.422 259.977 332.07L265.204 346.198L266.453 349.527L266.799 350.328C267.308 351.726 266.446 353.653 264.831 354.597C263.216 355.541 261.454 355.219 260.945 353.821L259.418 349.628C259.927 351.026 261.622 351.411 263.237 350.467Z" fill="#26366F"/>
<path d="M270.814 386.931C272.498 386.203 273.676 384.355 273.347 382.884L269.712 362.964C269.45 361.43 267.865 360.754 266.226 361.534C265.373 361.955 264.657 362.529 264.235 363.297C263.768 364.013 263.551 364.871 263.738 365.632L267.373 385.552C267.59 387.035 269.129 387.659 270.814 386.931Z" fill="url(#paint30_linear_864_1267)"/>
<path opacity="0.8" d="M269.183 378.903C270.216 378.408 270.788 376.845 270.525 375.311L269.495 368.783C269.233 367.249 267.366 367.773 267.366 367.773C266.58 368.131 265.531 369.297 265.606 370.07L266.797 376.916C267.105 378.501 268.105 379.347 269.183 378.903Z" fill="#575878"/>
<path opacity="0.35" d="M270.005 382.442C270.903 382.072 271.596 381.333 272.084 380.503L268.637 361.344C269.248 361.616 269.658 362.076 269.733 362.849L272.514 378.23L273.156 381.843L273.322 382.718C273.585 384.252 272.474 386.037 270.789 386.766C269.105 387.494 267.565 386.87 267.303 385.336L266.495 380.847C266.735 382.495 268.32 383.17 270.005 382.442Z" fill="#26366F"/>
<path opacity="0.8" d="M269.153 368.259C269.791 368.975 269.554 370.225 268.682 371.038C267.811 371.852 266.571 371.977 265.933 371.262C265.295 370.546 265.532 369.296 266.404 368.483C267.276 367.67 268.515 367.544 269.153 368.259Z" fill="#575878"/>
<path d="M272.492 419.814C274.201 419.25 275.47 417.505 275.388 415.897L274.135 395.066C274.052 393.458 272.602 392.658 270.893 393.222C270.062 393.529 269.3 394.052 268.766 394.831C268.253 395.496 267.923 396.366 267.998 397.139L269.251 417.969C269.4 419.515 270.784 420.378 272.492 419.814Z" fill="url(#paint31_linear_864_1267)"/>
<path opacity="0.3" d="M271.76 411.416C272.817 411.086 273.502 409.511 273.419 407.903L272.947 400.761C272.864 399.153 271.953 398.131 270.942 398.512C270.47 398.671 269.933 399.172 269.646 399.814C269.359 400.456 269.208 401.252 269.216 402.087L269.688 409.23C269.792 410.724 270.703 411.746 271.76 411.416Z" fill="#575878"/>
<path opacity="0.35" d="M272.223 415.103C273.167 414.784 273.884 414.21 274.418 413.431L273.218 393.487C273.762 393.822 274.151 394.395 274.113 395.18L275.097 411.3L275.313 415.124L275.366 416.01C275.449 417.618 274.179 419.364 272.471 419.927C270.762 420.491 269.311 419.691 269.229 418.082L268.96 413.372C269.085 414.753 270.515 415.667 272.223 415.103Z" fill="#26366F"/>
<path d="M266.051 455.027C267.741 454.855 269.351 453.354 269.673 451.649L274.002 429.639C274.325 427.934 273.231 426.707 271.541 426.879C270.753 426.959 269.9 427.38 269.229 428.005C268.558 428.631 268.137 429.398 267.919 430.256L263.59 452.267C263.268 453.971 264.362 455.198 266.051 455.027Z" fill="url(#paint32_linear_864_1267)"/>
<path opacity="0.3" d="M267.525 446.071C268.539 445.968 269.585 444.524 269.954 442.87L271.439 435.306C271.762 433.601 271.231 432.317 270.218 432.42C269.721 432.415 269.139 432.864 268.761 433.404C268.315 434.007 268.007 434.763 267.789 435.621L266.303 443.185C265.981 444.89 266.511 446.174 267.525 446.071Z" fill="#575878"/>
<path opacity="0.35" d="M266.997 450.026C267.898 449.934 268.751 449.513 269.376 448.836L273.488 427.684C273.898 428.144 274.04 428.854 273.889 429.65L270.552 446.711L269.733 450.751L269.493 451.723C269.171 453.428 267.561 454.929 265.871 455.101C264.182 455.272 263.088 454.045 263.41 452.34L264.356 447.339C264.281 448.908 265.307 450.197 266.997 450.026Z" fill="#26366F"/>
<path d="M248.992 490.034C250.461 490.442 252.369 489.412 253.233 487.764L264.422 466.283C265.286 464.635 264.775 462.959 263.305 462.551C262.559 462.403 261.771 462.483 260.963 462.956C260.223 463.365 259.485 464.053 259.109 464.872L247.92 486.352C247.01 487.949 247.522 489.625 248.992 490.034Z" fill="url(#paint33_linear_864_1267)"/>
<path opacity="0.3" d="M253.375 481.171C254.211 481.421 255.644 480.272 256.508 478.624L260.341 471.212C261.205 469.563 261.168 468.006 260.264 467.819C259.79 467.7 259.25 467.922 258.668 468.371C258.086 468.821 257.507 469.548 257.131 470.367L253.298 477.779C252.434 479.427 252.425 480.933 253.375 481.171Z" fill="#575878"/>
<path opacity="0.35" d="M251.517 485.15C252.308 485.348 253.163 485.206 253.971 484.734L264.672 464.083C264.835 464.68 264.73 465.526 264.309 466.294L255.645 482.892L253.629 486.831L253.119 487.774C252.255 489.423 250.348 490.452 248.878 490.044C247.409 489.636 246.897 487.96 247.761 486.312L250.287 481.429C249.535 483.066 250.047 484.742 251.517 485.15Z" fill="#26366F"/>
<path d="M248.424 276.712L171.924 313.212L172.424 309.712L139.924 312.212L106.924 304.212L97.4238 286.212L95.4238 268.712L80.9238 247.212L85.9238 307.212L113.424 315.212L109.424 319.212L147.424 330.212L193.924 318.212L177.424 330.212L211.424 315.212L260.924 290.212L280.924 243.212L264.424 177.712L236.924 150.712L188.924 143.712L236.924 159.212L248.424 181.212L250.924 175.712L264.424 222.712L257.424 254.712L256.424 228.712L248.424 276.712Z" fill="url(#paint34_linear_864_1267)"/>
<path d="M236.778 495.018L239.456 485.786L243.786 484.352L251.816 488.313L250.556 501.97L241.659 501.461L236.778 495.018Z" fill="url(#paint35_linear_864_1267)"/>
<path d="M167.148 484.829L167.5 474.467L171.707 473.024L179.528 477.071L177.944 485.223L169.691 490.394L167.148 484.829Z" fill="url(#paint36_linear_864_1267)"/>
<path d="M128.491 259.11C128.369 260.198 128.974 266.074 130.293 267.161C131.513 266.876 131.961 267.279 132.587 267.146C133.127 267.031 133.68 266.943 134.212 266.8C135.66 266.412 137.021 265.574 138.448 265.1C139.389 264.789 140.149 263.262 140.92 262.621C141.506 262.133 141.71 261.385 142.262 260.892C142.734 260.47 144.554 257.246 144.8 256.669C146.266 253.238 147.291 252.094 147.838 248.358C148.325 245.027 150.305 241.801 149.745 238.314C149.605 237.447 149.769 236.55 149.581 235.661L149.052 233.175C148.721 231.617 148.463 230.019 148.054 228.479C147.668 227.024 146.937 225.648 146.214 224.317C145.369 222.76 144.962 220.852 143.96 219.355C143.327 218.409 142.946 216.919 142.487 215.871C141.892 214.511 141.424 212.988 140.91 211.587C140.068 209.291 139.264 206.878 138.24 204.67C137.375 202.802 136.707 200.604 136.114 198.636C135.453 196.442 132.822 191.24 132.091 189.131C132.305 190.354 131.874 197.461 131.884 198.692C131.905 201.477 131.792 204.053 131.257 206.82C130.945 208.437 130.966 210.092 130.699 211.714C130.484 213.014 130.347 214.474 130.322 215.791C130.261 218.985 130.131 222.208 130.803 225.372C132.419 232.974 133.801 241.567 131.294 249.098C130.708 250.859 130.226 252.749 129.719 254.541C129.286 256.073 128.671 257.52 128.491 259.11Z" fill="#C34FBC"/>
<path d="M158.295 277.47C158.323 277.473 158.35 277.475 158.377 277.477C158.365 277.496 158.337 277.492 158.295 277.47C156.979 277.344 154.828 276.619 153.761 275.926C153.207 275.566 152.367 275.323 151.705 275.186C150.288 274.895 148.924 274.724 147.515 274.278C145.343 273.592 143.199 273.01 141.128 272.027C139.903 271.445 138.755 270.793 137.451 270.399C136.371 270.072 135.283 270.039 134.224 269.585C132.769 268.961 131.006 268.58 130.294 267.161C131.513 266.876 131.824 267.111 132.45 266.978C132.989 266.863 133.592 266.962 134.125 266.819C135.573 266.431 136.933 265.593 138.361 265.119C139.301 264.808 140.062 263.281 140.832 262.64C141.419 262.152 141.623 261.404 142.175 260.911C142.647 260.49 144.467 257.265 144.713 256.688C145.449 257.829 146.93 259.823 147.481 261.06C148.442 263.216 149.911 265.098 151.014 267.182C152.256 269.53 153.407 271.973 155.123 274.027C155.392 274.348 157.8 277.209 158.295 277.47Z" fill="#832FA0"/>
<path d="M166.73 271.97C167.448 271.106 168.561 270.194 168.981 269.137C168.625 268.068 168 266.245 167.881 265.685C167.668 264.684 166.947 263.861 166.688 262.896C166.541 262.348 166.142 261.759 165.844 261.276C165.538 260.779 165.526 260.17 165.243 259.649C164.795 258.823 164.498 257.64 164.19 256.731C163.54 254.813 163.292 252.761 162.528 250.899C161.927 249.432 161.891 247.848 161.581 246.392C161.173 244.469 161.367 242.562 160.967 240.681C160.544 238.69 160.317 236.682 159.889 234.669C159.383 232.288 159.08 229.923 158.576 227.553C158.32 226.346 157.591 225.223 157.217 224.033C157.005 223.356 156.067 222.086 155.956 221.373C155.014 222.077 153.196 223.893 152.278 224.672C151.519 225.316 150.953 226.181 150.264 226.899C150.074 227.097 147.382 228.507 147.792 228.535C148.201 230.075 148.459 231.673 148.79 233.231L149.319 235.717C149.507 236.606 149.343 237.502 149.483 238.37C150.043 241.856 148.063 245.083 147.576 248.414C147.029 252.15 146.004 253.294 144.538 256.725C145.275 257.865 146.755 259.86 147.306 261.096C148.267 263.253 149.737 265.134 150.84 267.219C152.082 269.566 153.232 272.01 154.948 274.063C155.24 274.412 158.05 277.749 158.203 277.514C159.267 277.598 162.1 277.913 162.817 276.6C163.142 276.004 163.942 275.318 164.407 274.785C165.211 273.865 165.944 272.916 166.73 271.97Z" fill="#9440A2"/>
<path d="M160.018 223.392C159.715 221.964 159.687 220.854 159.352 219.279C158.811 218.022 156.03 220.845 155.634 221.141C155.745 221.854 156.683 223.123 156.896 223.801C157.269 224.99 157.998 226.114 158.254 227.321C158.758 229.691 159.061 232.055 159.567 234.437C159.995 236.449 160.222 238.458 160.645 240.449C161.045 242.33 160.851 244.236 161.259 246.159C161.569 247.616 161.605 249.2 162.206 250.666C162.97 252.529 163.218 254.581 163.868 256.498C164.176 257.407 164.473 258.591 164.921 259.417C165.204 259.938 165.216 260.546 165.522 261.044C165.821 261.527 166.219 262.115 166.366 262.663C166.625 263.628 167.346 264.452 167.559 265.452C167.678 266.012 168.547 268.311 168.904 269.38C169.761 267.226 170.189 264.548 170.995 262.39C171.397 261.314 171.464 260.075 171.823 258.972C172.146 257.978 172.482 256.807 172.653 255.775C172.949 254 173.516 252.102 173.137 250.319C172.664 248.092 171.408 246.139 170.459 244.093C169.558 242.15 168.711 240.184 167.739 238.297C166.939 236.744 166.469 235.037 165.606 233.487C164.57 231.625 163.533 229.788 162.434 227.965C161.52 226.449 160.399 225.183 160.018 223.392Z" fill="#8A3B96"/>
<path d="M138.178 193.601C137.187 193.047 132.971 189.9 132.09 189.131C132.822 191.24 135.19 196.498 135.851 198.692C136.444 200.66 137.112 202.858 137.977 204.726C139.001 206.934 139.805 209.346 140.647 211.643C141.161 213.044 141.629 214.567 142.224 215.927C142.683 216.975 143.064 218.465 143.697 219.411C144.699 220.908 145.106 222.816 145.951 224.373C146.674 225.704 147.405 227.08 147.791 228.535C149.307 228.823 150.073 227.097 150.264 226.899C150.952 226.181 151.518 225.316 152.278 224.672C153.196 223.893 155.014 222.077 155.955 221.373C156.351 221.077 159.138 220.079 159.407 219.542C158.827 218.473 158.728 216.786 157.871 215.877C157.01 214.964 156.175 214.1 155.398 213.126C154.048 211.433 152.658 209.815 151.512 207.956C150.455 206.241 149.009 205.141 147.705 203.679C146.352 202.164 144.97 200.631 143.534 199.158C142.323 197.916 141.343 196.425 140.018 195.308C139.344 194.74 138.968 194.042 138.178 193.601Z" fill="#C667BC"/>
<path d="M171.64 244.268C173.311 246.088 178.852 251.654 180.581 253.414L180.539 252.201L177.302 247.315C177.302 247.315 176.612 244.837 176.198 243.234C175.642 241.085 175.427 238.842 174.936 236.669C174.397 234.285 175.065 231.937 175.234 229.565C175.369 227.674 175.522 225.754 175.713 223.877C175.859 222.445 175.687 220.817 176.077 219.44C176.448 218.132 176.293 212.446 176.55 211.069C175.809 212.278 173.594 217.059 172.586 218.061C169.952 220.677 167.482 221.058 165.419 224.093C164.657 225.214 163.194 225.672 162.896 226.961C163.888 231.167 164.646 235.932 167.592 239.359C168.338 240.227 168.817 241.252 169.597 242.101C170.269 242.833 170.969 243.538 171.64 244.268Z" fill="#5A2373"/>
<path d="M187.955 245.607C188.877 242.241 189.035 238.711 189.876 235.308C190.203 235.369 189.295 228.248 189.051 227.399C188.889 226.834 188.901 226.205 188.499 225.618C187.347 223.937 186.341 222.117 185.262 220.387C184.693 219.474 184.119 218.56 183.573 217.644C182.996 216.678 182.014 215.967 181.398 215.018C180.771 214.052 179.64 212.887 178.672 212.28C177.658 211.643 177.006 211.316 175.974 210.662C175.717 212.039 176.112 217.904 175.741 219.213C175.351 220.59 175.523 222.218 175.377 223.65C175.187 225.527 175.033 227.446 174.899 229.338C174.73 231.71 174.062 234.058 174.6 236.441C175.091 238.615 175.307 240.858 175.862 243.007C176.276 244.61 177.197 248.017 177.197 248.017L177.203 248.027C177.89 249.147 180.221 252.158 180.581 253.413C181.588 254.297 183.344 255.254 183.83 256.561C183.992 256.997 185.767 259.511 185.962 259.198C186.394 258.508 186.039 257.493 186.163 256.749C186.304 255.901 186.401 255.049 186.56 254.198C187.095 251.327 187.18 248.434 187.955 245.607Z" fill="#772D81"/>
<path d="M159.817 214.458C160.736 218.67 161.911 222.785 162.896 226.96C163.195 225.671 164.758 225.493 165.52 224.371C167.583 221.336 169.732 221.241 172.366 218.625C173.374 217.623 174.371 216.112 175.112 214.904C175.905 213.609 176.134 212.478 176.389 211.017C176.658 209.478 176.43 207.899 176.32 206.366C176.187 204.517 175.188 202.714 175.005 200.876C174.796 198.778 173.989 196.812 173.649 194.732C173.349 192.894 173.161 190.944 172.65 189.163C171.665 185.728 171.247 182.146 170.251 178.67C168.244 171.67 164.615 163.309 162.617 156.34C162.234 160.156 162.171 164.13 161.417 167.944C160.578 172.19 160.83 176.485 160.14 180.721C159.617 183.926 160.238 187.512 160.241 190.756C160.244 193.85 159.921 196.926 159.827 200.014C159.75 202.545 159.528 205.11 159.647 207.647C159.752 209.892 159.331 212.229 159.817 214.458Z" fill="#903A8B"/>
<path d="M162.61 156.342C162.801 156.711 163.907 158.141 164.089 158.4C164.576 159.094 165.064 159.75 165.497 160.479C166.654 162.423 168.959 163.719 170.046 165.718C172.548 170.321 174.8 174.988 177.093 179.673C179.228 184.034 180.682 188.767 182.782 193.138C183.937 195.541 184.479 198.189 185.638 200.578C186.76 202.893 186.736 205.729 187.867 208.04C188.908 210.166 189.525 212.562 190.18 214.846C190.419 215.678 190.846 216.461 191.091 217.315C191.396 218.376 191.386 219.392 191.437 220.487C191.671 225.504 191.099 230.155 189.914 235.072C189.905 235.326 189.875 235.472 189.818 235.462C189.85 235.332 189.882 235.202 189.914 235.072C189.957 233.857 189.529 230.183 189.328 229.481C189.165 228.916 189.059 226.634 188.657 226.048C187.504 224.366 186.498 222.547 185.419 220.816C184.85 219.904 184.277 218.99 183.73 218.074C183.154 217.108 182.171 216.396 181.556 215.448C180.929 214.482 179.798 213.317 178.83 212.709C177.816 212.072 177.415 211.674 176.382 211.019C176.651 209.48 176.422 207.901 176.312 206.368C176.179 204.519 175.181 202.716 174.998 200.878C174.788 198.78 173.982 196.814 173.642 194.734C173.341 192.896 173.154 190.946 172.643 189.165C171.658 185.73 171.24 182.148 170.243 178.672C168.236 171.673 164.608 163.311 162.61 156.342Z" fill="#A5569D"/>
<path d="M179.014 267.61C177.982 268.619 175.172 270.597 173.949 271.372C173.555 271.569 172.034 265.683 171.623 265.026C171.236 264.407 171.306 263.458 171.117 262.772C170.922 262.066 170.621 261.209 170.6 260.478C170.578 259.721 170.608 258.468 170.373 257.79C170.148 257.144 170.44 256.347 170.186 255.744C169.697 254.581 170.042 252.803 170.042 251.547C170.042 249.439 170.653 247.86 171.065 245.883C172.798 243.717 184.576 232.041 186.445 229.952C187.721 229.952 188.972 229.69 190.212 229.69C191.627 229.69 193.429 229.356 194.677 228.643C195.095 228.945 195.685 229.757 196.102 230.288C196.778 231.148 196.948 231.094 197.586 231.988C199.818 235.113 205.163 237.033 204.828 241.732C203.344 243.891 201.127 245.868 199.293 247.702C197.508 249.488 195.654 251.155 193.857 252.953C190.887 255.923 188.065 258.93 185.112 261.883C184.002 262.994 182.687 263.909 181.701 265.15C180.908 266.148 179.913 266.73 179.014 267.61Z" fill="#7838AA"/>
<path d="M177.861 220.261C179.194 218.04 181.469 215.219 183.348 213.876C183.483 214.212 185.02 217.519 185.362 217.904L186.369 230.321C184.5 232.41 172.664 244.265 170.931 246.431C171.26 244.851 171.473 243.416 171.846 241.833C172.061 240.917 172.325 240.015 172.507 239.083C172.738 237.906 172.692 236.544 173.065 235.424C173.44 234.302 173.241 232.784 173.386 231.6C173.524 230.464 173.538 229.261 173.944 228.179C174.978 225.422 176.342 222.793 177.861 220.261Z" fill="#C34FBC"/>
<path d="M189.787 230.201C188.547 230.201 187.645 230.321 186.369 230.321L185.362 217.927C186.279 218.046 187.392 217.766 187.685 217.687C188.532 217.459 189.474 217.162 190.362 217.247C190.905 217.299 193.417 217.232 194.455 217.692C194.424 218.575 194.135 219.241 194.135 219.99C194.135 223.147 194.252 226.008 194.252 229.154C193.004 229.867 191.202 230.201 189.787 230.201Z" fill="#9440A2"/>
<path d="M206.519 239.803C205.785 240.572 205.432 240.853 204.828 241.732C202.109 239.013 199.395 235.504 197.163 232.379C196.524 231.485 196.354 231.539 195.678 230.679C195.261 230.148 194.505 229.617 194.088 229.314C194.088 226.169 194.137 223.026 194.137 219.87C194.137 219.121 193.903 218.126 194.457 217.572C195.366 216.663 196.202 215.497 196.871 214.401C197.776 212.92 198.759 211.639 199.504 210.067C200.234 208.525 200.903 207.194 201.875 205.79C202.939 204.253 204.968 200.966 204.968 199.109C205.727 202.333 207.405 205.926 209.62 208.401C210.272 209.131 210.296 210.768 210.457 211.668C210.682 212.932 210.922 214.217 210.922 215.502C210.922 217.235 210.954 218.99 210.726 220.702C210.232 224.401 210.123 228.216 209.289 231.865C208.813 233.946 209.037 236.008 208.121 237.994C207.829 238.626 207.007 239.292 206.519 239.803Z" fill="#8A3B96"/>
<path d="M203.476 194.12C203.852 195.926 204.639 197.646 205.058 199.423C205.058 201.28 203.029 204.567 201.964 206.104C200.993 207.508 200.324 208.839 199.594 210.38C198.849 211.953 197.866 213.234 196.961 214.715C196.291 215.811 195.455 216.977 194.546 217.886C194.546 218.405 190.996 217.492 190.453 217.44C189.565 217.356 188.623 217.652 187.776 217.881C187.483 217.96 186.37 218.239 185.453 218.12C185.111 217.735 183.295 213.904 183.35 213.876C185.526 211.993 187.265 209.544 189.533 207.744C191.232 206.394 192.529 204.349 193.719 202.565C194.942 200.731 196.332 199.026 197.533 197.17C198.634 195.468 199.502 193.593 200.406 191.784C200.576 191.446 201.446 189.149 201.853 189.841C202.534 190.998 203.204 192.816 203.476 194.12Z" fill="#C667BC"/>
<path d="M124.924 271.212C151.197 288.274 188.832 282.037 206.54 254.77C215.401 241.125 220.737 225.278 220.564 210.712C218.781 192.015 215.279 185.916 206.924 178.712C209.662 190.219 209.367 229.92 201.604 240.662C163.309 287.428 98.6504 254.15 124.924 271.212Z" fill="#4E3B21"/>
<path d="M197 376L156 380.5L125 375L132 380.5L161 387.5L197 376Z" fill="url(#paint37_linear_864_1267)"/>
<path d="M302.663 342.065L313.849 302.365L330.562 275.683L322.84 280.113L305.486 304.379L302.663 342.065Z" fill="url(#paint38_linear_864_1267)"/>
</g>
<defs>
<radialGradient id="paint0_radial_864_1267" cx="0" cy="0" r="1" gradientUnits="userSpaceOnUse" gradientTransform="translate(186.487 487.485) rotate(67.0387) scale(78.4424 147.721)">
<stop stop-color="#A08464"/>
<stop offset="1" stop-color="#645143"/>
</radialGradient>
<linearGradient id="paint1_linear_864_1267" x1="179.056" y1="488.631" x2="166.978" y2="470.576" gradientUnits="userSpaceOnUse">
<stop stop-color="#493A48"/>
<stop offset="1" stop-color="#706D75"/>
</linearGradient>
<linearGradient id="paint2_linear_864_1267" x1="100.586" y1="271.07" x2="108.134" y2="242.587" gradientUnits="userSpaceOnUse">
<stop stop-color="#706D75"/>
<stop offset="1" stop-color="#B8B2BF"/>
</linearGradient>
<linearGradient id="paint3_linear_864_1267" x1="95.5927" y1="307.99" x2="98.6748" y2="278.761" gradientUnits="userSpaceOnUse">
<stop stop-color="#706D75"/>
<stop offset="1" stop-color="#B8B2BF"/>
</linearGradient>
<linearGradient id="paint4_linear_864_1267" x1="86.485" y1="324.842" x2="105.698" y2="334.422" gradientUnits="userSpaceOnUse">
<stop stop-color="#706D75"/>
<stop offset="1" stop-color="#B8B2BF"/>
</linearGradient>
<linearGradient id="paint5_linear_864_1267" x1="100.49" y1="379.856" x2="94.9418" y2="351.458" gradientUnits="userSpaceOnUse">
<stop stop-color="#706D75"/>
<stop offset="1" stop-color="#B8B2BF"/>
</linearGradient>
<linearGradient id="paint6_linear_864_1267" x1="111.643" y1="415.056" x2="99.9047" y2="389.227" gradientUnits="userSpaceOnUse">
<stop stop-color="#706D75"/>
<stop offset="1" stop-color="#B8B2BF"/>
</linearGradient>
<linearGradient id="paint7_linear_864_1267" x1="130.579" y1="444.704" x2="114.436" y2="421.997" gradientUnits="userSpaceOnUse">
<stop stop-color="#706D75"/>
<stop offset="1" stop-color="#B8B2BF"/>
</linearGradient>
<linearGradient id="paint8_linear_864_1267" x1="157.398" y1="468.428" x2="136.37" y2="451.132" gradientUnits="userSpaceOnUse">
<stop stop-color="#706D75"/>
<stop offset="1" stop-color="#B8B2BF"/>
</linearGradient>
<linearGradient id="paint9_linear_864_1267" x1="104.519" y1="254.862" x2="112.967" y2="226.633" gradientUnits="userSpaceOnUse">
<stop stop-color="#706D75"/>
<stop offset="1" stop-color="#B8B2BF"/>
</linearGradient>
<linearGradient id="paint10_linear_864_1267" x1="97.6946" y1="289.869" x2="103.045" y2="260.915" gradientUnits="userSpaceOnUse">
<stop stop-color="#706D75"/>
<stop offset="1" stop-color="#B8B2BF"/>
</linearGradient>
<linearGradient id="paint11_linear_864_1267" x1="95.8779" y1="327.218" x2="95.9051" y2="297.944" gradientUnits="userSpaceOnUse">
<stop stop-color="#706D75"/>
<stop offset="1" stop-color="#B8B2BF"/>
</linearGradient>
<linearGradient id="paint12_linear_864_1267" x1="97.9874" y1="363.041" x2="94.6619" y2="334.143" gradientUnits="userSpaceOnUse">
<stop stop-color="#706D75"/>
<stop offset="1" stop-color="#B8B2BF"/>
</linearGradient>
<linearGradient id="paint13_linear_864_1267" x1="105.447" y1="398.36" x2="97.6488" y2="370.685" gradientUnits="userSpaceOnUse">
<stop stop-color="#706D75"/>
<stop offset="1" stop-color="#B8B2BF"/>
</linearGradient>
<linearGradient id="paint14_linear_864_1267" x1="121.985" y1="429.776" x2="105.969" y2="406.959" gradientUnits="userSpaceOnUse">
<stop stop-color="#706D75"/>
<stop offset="1" stop-color="#B8B2BF"/>
</linearGradient>
<linearGradient id="paint15_linear_864_1267" x1="145.531" y1="456.082" x2="124.569" y2="438.694" gradientUnits="userSpaceOnUse">
<stop stop-color="#706D75"/>
<stop offset="1" stop-color="#B8B2BF"/>
</linearGradient>
<linearGradient id="paint16_linear_864_1267" x1="172.16" y1="479.58" x2="150.176" y2="463.722" gradientUnits="userSpaceOnUse">
<stop stop-color="#706D75"/>
<stop offset="1" stop-color="#B8B2BF"/>
</linearGradient>
<linearGradient id="paint17_linear_864_1267" x1="214.924" y1="340.428" x2="214.924" y2="500.428" gradientUnits="userSpaceOnUse">
<stop offset="0.275" stop-color="#C1B58F"/>
<stop offset="1" stop-color="#A59870"/>
</linearGradient>
<linearGradient id="paint18_linear_864_1267" x1="269.424" y1="67.7119" x2="392.065" y2="191.572" gradientUnits="userSpaceOnUse">
<stop stop-color="#A59870"/>
<stop offset="0.264157" stop-color="#C1B58F"/>
<stop offset="1" stop-color="#A59870"/>
</linearGradient>
<linearGradient id="paint19_linear_864_1267" x1="210.706" y1="454.79" x2="215.142" y2="518.229" gradientUnits="userSpaceOnUse">
<stop stop-color="#908564"/>
<stop offset="1" stop-color="#9D967F"/>
</linearGradient>
<radialGradient id="paint20_radial_864_1267" cx="0" cy="0" r="1" gradientUnits="userSpaceOnUse" gradientTransform="translate(180.576 249.123) rotate(78.8271) scale(169.518 168.946)">
<stop stop-color="#A08464"/>
<stop offset="1" stop-color="#645143"/>
</radialGradient>
<linearGradient id="paint21_linear_864_1267" x1="247.55" y1="291.268" x2="239.086" y2="314.053" gradientUnits="userSpaceOnUse">
<stop stop-color="#493A48"/>
<stop offset="1" stop-color="#706D75"/>
</linearGradient>
<linearGradient id="paint22_linear_864_1267" x1="245.617" y1="503.271" x2="242.414" y2="481.097" gradientUnits="userSpaceOnUse">
<stop stop-color="#878A9C"/>
<stop offset="1" stop-color="#706D75"/>
</linearGradient>
<linearGradient id="paint23_linear_864_1267" x1="260.107" y1="338.962" x2="246.693" y2="318.693" gradientUnits="userSpaceOnUse">
<stop stop-color="#706D75"/>
<stop offset="1" stop-color="#B8B2BF"/>
</linearGradient>
<linearGradient id="paint24_linear_864_1267" x1="269.061" y1="369.661" x2="257.39" y2="347.887" gradientUnits="userSpaceOnUse">
<stop stop-color="#706D75"/>
<stop offset="1" stop-color="#B8B2BF"/>
</linearGradient>
<linearGradient id="paint25_linear_864_1267" x1="272.707" y1="402.412" x2="263.439" y2="378.772" gradientUnits="userSpaceOnUse">
<stop stop-color="#706D75"/>
<stop offset="1" stop-color="#B8B2BF"/>
</linearGradient>
<linearGradient id="paint26_linear_864_1267" x1="271.732" y1="435.896" x2="264.982" y2="410.593" gradientUnits="userSpaceOnUse">
<stop stop-color="#706D75"/>
<stop offset="1" stop-color="#B8B2BF"/>
</linearGradient>
<linearGradient id="paint27_linear_864_1267" x1="259.707" y1="472.666" x2="261.336" y2="443.987" gradientUnits="userSpaceOnUse">
<stop stop-color="#706D75"/>
<stop offset="1" stop-color="#B8B2BF"/>
</linearGradient>
<linearGradient id="paint28_linear_864_1267" x1="254.593" y1="326.117" x2="240.777" y2="306.21" gradientUnits="userSpaceOnUse">
<stop stop-color="#706D75"/>
<stop offset="1" stop-color="#B8B2BF"/>
</linearGradient>
<linearGradient id="paint29_linear_864_1267" x1="264.762" y1="354.589" x2="252.347" y2="333.442" gradientUnits="userSpaceOnUse">
<stop stop-color="#706D75"/>
<stop offset="1" stop-color="#B8B2BF"/>
</linearGradient>
<linearGradient id="paint30_linear_864_1267" x1="270.84" y1="386.916" x2="260.709" y2="363.916" gradientUnits="userSpaceOnUse">
<stop stop-color="#706D75"/>
<stop offset="1" stop-color="#B8B2BF"/>
</linearGradient>
<linearGradient id="paint31_linear_864_1267" x1="272.515" y1="419.781" x2="264.302" y2="395.407" gradientUnits="userSpaceOnUse">
<stop stop-color="#706D75"/>
<stop offset="1" stop-color="#B8B2BF"/>
</linearGradient>
<linearGradient id="paint32_linear_864_1267" x1="266.036" y1="455.014" x2="263.445" y2="427.633" gradientUnits="userSpaceOnUse">
<stop stop-color="#706D75"/>
<stop offset="1" stop-color="#B8B2BF"/>
</linearGradient>
<linearGradient id="paint33_linear_864_1267" x1="249" y1="489.987" x2="256.96" y2="460.793" gradientUnits="userSpaceOnUse">
<stop stop-color="#706D75"/>
<stop offset="1" stop-color="#B8B2BF"/>
</linearGradient>
<linearGradient id="paint34_linear_864_1267" x1="109.424" y1="132.212" x2="257.424" y2="330.712" gradientUnits="userSpaceOnUse">
<stop stop-color="#79634C"/>
<stop offset="1" stop-color="#77604B"/>
</linearGradient>
<linearGradient id="paint35_linear_864_1267" x1="243.786" y1="484.352" x2="245.045" y2="502.355" gradientUnits="userSpaceOnUse">
<stop stop-color="#A35CAB"/>
<stop offset="1" stop-color="#77457D"/>
</linearGradient>
<linearGradient id="paint36_linear_864_1267" x1="172.778" y1="472.949" x2="173.977" y2="490.094" gradientUnits="userSpaceOnUse">
<stop stop-color="#A35CAB"/>
<stop offset="1" stop-color="#77457D"/>
</linearGradient>
<linearGradient id="paint37_linear_864_1267" x1="159.5" y1="376" x2="162" y2="401" gradientUnits="userSpaceOnUse">
<stop stop-color="#665343"/>
<stop offset="1" stop-color="#624F40"/>
</linearGradient>
<linearGradient id="paint38_linear_864_1267" x1="316.71" y1="307.296" x2="295.5" y2="300.5" gradientUnits="userSpaceOnUse">
<stop stop-color="#5C4A3D"/>
<stop offset="1" stop-color="#5C4A3C"/>
</linearGradient>
<clipPath id="clip0_864_1267">
<rect width="520" height="560" fill="white"/>
</clipPath>
</defs>
</svg>
