<svg width="520" height="560" viewBox="0 0 520 560" fill="none" xmlns="http://www.w3.org/2000/svg">
<g clip-path="url(#clip0_864_837)">
<rect width="520" height="560" fill="white"/>
<ellipse cx="212.924" cy="500.474" rx="126" ry="59.5" fill="url(#paint0_radial_864_837)"/>
<path d="M124.417 218.073C124.147 217.066 122.859 216.552 121.563 217.086C120.304 217.545 119.428 218.786 119.698 219.793L119.728 219.905C120.193 222.07 119.932 224.316 118.883 226.418C116.562 231.073 111.184 232.91 106.935 230.588C105.789 229.962 104.792 229.035 104.073 228.068C103.556 227.212 102.252 227.073 101.084 227.868C99.9153 228.662 99.3463 229.975 99.826 230.906C99.826 230.906 99.826 230.906 99.8935 230.943C101.063 232.729 102.621 234.25 104.577 235.318C111.253 238.968 119.568 236.06 123.162 228.852C124.959 225.248 125.28 221.506 124.417 218.073Z" fill="#8E8B97"/>
<path opacity="0.25" d="M119.766 219.83C120.171 221.771 120.021 223.792 119.22 225.742C119.333 225.517 119.445 225.292 119.52 225.142C120.418 223.34 120.755 220.084 120.147 218.032C119.825 218.334 119.481 219.197 119.766 219.83Z" fill="#46395B"/>
<path opacity="0.25" d="M105.138 234.192C103.318 233.197 102.059 231.935 100.807 230.487C100.477 230.116 100.118 229.632 99.8929 229.223C99.7057 229.598 99.6085 230.31 99.8634 230.831C101.032 232.617 102.659 234.174 104.614 235.243C111.29 238.892 119.605 235.985 123.199 228.777C123.386 228.401 123.573 228.026 123.656 227.689C119.889 234.038 112.623 238.283 105.138 234.192Z" fill="#46395B"/>
<path opacity="0.3" d="M122.936 224.143C122.524 224.109 122.029 224.412 121.91 224.824C121.752 225.311 121.595 225.799 121.371 226.249C119.941 229.289 117.409 231.441 114.585 232.286C114.165 232.438 113.873 232.852 113.956 233.375C114.001 233.973 114.54 234.268 115.027 234.152C118.376 233.116 121.402 230.661 123.026 227.059C123.288 226.533 123.483 225.971 123.678 225.408C123.872 224.846 123.483 224.251 122.936 224.143Z" fill="#9C8C9A"/>
<path d="M177.061 466.776C178.02 467.055 178.529 468.418 178.212 469.822C177.895 471.227 176.816 472.25 175.856 471.971C175.784 471.944 175.784 471.944 175.712 471.916C173.739 471.518 171.593 471.862 169.777 473.14C165.679 475.877 164.401 481.763 166.832 486.288C167.467 487.52 168.353 488.489 169.393 489.247C170.2 489.736 170.439 491.175 169.763 492.442C169.159 493.737 167.946 494.439 167.067 493.922C167.067 493.922 167.067 493.922 166.996 493.895C165.293 492.702 163.753 491.033 162.662 488.998C158.817 481.955 160.892 472.783 167.301 468.508C170.401 466.555 173.813 466.068 177.061 466.776Z" fill="url(#paint1_linear_864_837)"/>
<path opacity="0.25" d="M175.713 471.916C173.954 471.6 172.006 471.84 170.299 472.801C170.496 472.698 170.649 472.487 170.847 472.383C172.438 471.288 175.437 470.822 177.356 471.38C177.05 471.801 176.331 472.243 175.713 471.916Z" fill="#46395B"/>
<path opacity="0.25" d="M163.579 488.452C164.625 490.38 165.861 491.752 167.321 492.941C167.769 493.293 168.145 493.617 168.549 493.862C168.225 494.097 167.615 494.222 167.068 493.922C165.365 492.729 163.825 491.06 162.662 488.998C158.818 481.954 160.892 472.783 167.301 468.507C167.625 468.272 167.921 468.117 168.316 467.909C162.697 472.488 159.278 480.604 163.579 488.452Z" fill="#46395B"/>
<path opacity="0.3" d="M171.537 468.696C171.617 469.176 171.382 469.625 170.987 469.832C170.592 470.04 170.125 470.22 169.729 470.427C167.051 472.093 165.277 474.914 164.678 478.097C164.587 478.601 164.165 478.888 163.752 478.909C163.195 478.875 162.873 478.392 162.991 477.809C163.681 474.122 165.717 470.773 168.916 468.768C169.41 468.509 169.904 468.249 170.399 467.99C170.821 467.703 171.413 468.11 171.537 468.696Z" fill="#575878"/>
<path opacity="0.45" d="M177.061 466.776C178.02 467.055 178.529 468.418 178.212 469.822C177.895 471.227 176.816 472.25 175.856 471.971C175.784 471.944 175.784 471.944 175.712 471.916C173.739 471.518 171.593 471.862 169.777 473.14C165.679 475.877 164.401 481.763 166.832 486.288C167.467 487.52 168.353 488.489 169.393 489.247C170.2 489.736 170.439 491.175 169.763 492.442C169.159 493.737 167.946 494.439 167.067 493.922C167.067 493.922 167.067 493.922 166.996 493.895C165.293 492.702 163.753 491.033 162.662 488.998C158.817 481.955 160.892 472.783 167.301 468.508C170.401 466.555 173.813 466.068 177.061 466.776Z" fill="#BEBEBE"/>
<path d="M97.5969 271.346C93.2665 270.221 90.7706 265.417 92.0279 260.658L95.0216 249.491C96.279 244.732 100.841 241.78 105.171 242.905C107.216 243.449 108.955 244.782 110.011 246.793C111.136 248.84 111.384 251.269 110.74 253.592L107.746 264.759C106.556 269.555 101.995 272.507 97.5969 271.346ZM103.876 247.739C101.966 247.268 99.9508 248.555 99.4195 250.653L96.4258 261.82C95.8944 263.918 96.9812 266.041 98.8917 266.512C100.802 266.983 102.817 265.695 103.348 263.597L106.342 252.43C106.589 251.419 106.529 250.335 106.012 249.479C105.532 248.548 104.798 247.956 103.876 247.739Z" fill="url(#paint2_linear_864_837)"/>
<g opacity="0.35">
<path d="M104.589 262.653L107.583 251.486C107.83 250.474 107.769 249.39 107.252 248.534C106.803 247.715 106.001 247.086 105.117 246.794C103.821 246.468 102.562 246.926 101.626 247.943C102.293 247.639 103.124 247.52 103.873 247.739C104.795 247.956 105.529 248.548 106.009 249.479C106.489 250.41 106.586 251.419 106.339 252.431L103.346 263.597C103.181 264.272 102.814 264.835 102.38 265.362C103.398 264.868 104.297 263.926 104.589 262.653Z" fill="#26366F"/>
<path d="M98.9047 270.438C94.5743 269.313 92.0784 264.509 93.3357 259.75L96.3294 248.583C96.8534 246.672 97.9167 245.056 99.205 243.849C97.2275 245.061 95.6698 246.981 95.0187 249.491L92.025 260.658C90.7676 265.417 93.2635 270.221 97.5939 271.346C100.186 271.998 102.868 271.267 104.868 269.493C103.137 270.554 100.95 270.983 98.9047 270.438Z" fill="#26366F"/>
</g>
<path opacity="0.3" d="M105.951 245.815C107.27 246.441 108.289 247.666 108.709 249.234C108.979 250.241 108.867 251.326 108.62 252.338L108.051 254.511C108.051 254.511 107.849 255.261 107.692 255.748C107.572 256.16 107.797 256.57 108.134 256.754C108.576 256.9 109.033 256.672 109.19 256.185C109.953 253.449 110.126 252.588 110.126 252.588C110.649 250.677 110.417 248.734 109.555 247.021C108.82 245.568 107.509 244.756 106.632 244.277C106.228 244.056 105.733 244.359 105.614 244.771C105.389 245.221 105.576 245.706 105.951 245.815Z" fill="#575878"/>
<path opacity="0.3" d="M98.6147 267.412C97.2961 266.786 96.2769 265.561 95.857 263.993C95.587 262.986 95.6991 261.901 95.9461 260.889L96.0733 260.29C96.0733 260.29 96.2753 259.54 96.4325 259.053C96.5523 258.641 96.3274 258.231 95.9903 258.047C95.5482 257.901 95.0913 258.129 94.9341 258.616C94.1707 261.352 94.4402 260.639 94.4402 260.639C93.9163 262.55 94.149 264.493 95.011 266.206C95.7456 267.659 97.0568 268.471 97.9334 268.95C98.338 269.171 98.8324 268.868 98.9521 268.456C99.1093 267.969 98.9893 267.521 98.6147 267.412Z" fill="#575878"/>
<path d="M92.6472 308.291C88.1521 307.84 85.087 303.489 85.7299 298.586L87.2178 287.169C87.8608 282.266 92.0326 278.718 96.5277 279.168C98.6553 279.376 100.573 280.52 101.847 282.267C103.151 284.127 103.781 286.477 103.445 288.873L101.957 300.29C101.284 305.081 97.0748 308.704 92.6472 308.291ZM95.8472 284.147C93.8919 283.938 92.0719 285.523 91.7803 287.657L90.2924 299.073C90.0008 301.207 91.3722 303.103 93.3276 303.312C95.2829 303.521 97.103 301.936 97.3946 299.802L98.8824 288.386C99.0619 287.337 98.792 286.33 98.17 285.512C97.548 284.694 96.7762 284.177 95.8472 284.147Z" fill="url(#paint3_linear_864_837)"/>
<g opacity="0.35">
<path d="M98.4735 298.672L99.9613 287.255C100.141 286.207 99.8709 285.199 99.2489 284.382C98.6943 283.601 97.8177 283.122 96.9262 283.017C95.6226 282.877 94.3567 283.523 93.6228 284.651C94.2595 284.234 95.0236 284.079 95.7802 284.11C96.6718 284.215 97.5484 284.694 98.103 285.475C98.725 286.293 98.9275 287.263 98.8154 288.349L97.3276 299.765C97.2304 300.476 96.9308 301.077 96.5639 301.641C97.5901 300.96 98.3539 299.944 98.4735 298.672Z" fill="#26366F"/>
<path d="M93.7934 307.197C89.2983 306.746 86.2332 302.396 86.8762 297.492L88.364 286.076C88.6482 284.129 89.4418 282.365 90.6326 281.01C88.85 282.52 87.5246 284.661 87.2181 287.169L85.7303 298.586C85.0873 303.489 88.1524 307.84 92.6475 308.29C95.322 308.606 97.9212 307.351 99.6887 305.356C98.0185 306.64 95.921 307.405 93.7934 307.197Z" fill="#26366F"/>
</g>
<path opacity="0.3" d="M97.6223 281.964C99.0532 282.364 100.185 283.365 100.777 284.93C101.152 285.9 101.249 286.908 101.137 287.994L100.876 290.239C100.876 290.239 100.779 290.951 100.719 291.587C100.666 292.036 100.929 292.37 101.303 292.48C101.745 292.626 102.172 292.286 102.262 291.762C102.651 288.917 102.756 288.018 102.756 288.018C103.04 286.072 102.53 284.169 101.488 282.644C100.574 281.38 99.1202 280.681 98.2361 280.389C97.7941 280.243 97.2998 280.546 97.21 281.07C97.0228 281.445 97.2476 281.855 97.6223 281.964Z" fill="#575878"/>
<path opacity="0.3" d="M93.1182 304.249C91.6872 303.849 90.5557 302.848 89.9635 301.282C89.5886 300.313 89.491 299.304 89.6031 298.219L89.6628 297.583C89.6628 297.583 89.76 296.871 89.8198 296.235C89.8721 295.786 89.6098 295.452 89.2352 295.342C88.7932 295.196 88.3663 295.536 88.2765 296.061C87.8877 298.905 88.0223 298.119 88.0223 298.119C87.7382 300.066 88.2481 301.969 89.2898 303.494C90.2041 304.758 91.6576 305.457 92.5417 305.749C92.9837 305.895 93.4781 305.592 93.5679 305.068C93.6502 304.731 93.4928 304.358 93.1182 304.249Z" fill="#575878"/>
<path d="M92.9494 344.859C88.4246 345.157 84.7528 341.334 84.7065 336.436L84.6811 324.957C84.6349 320.059 88.3496 315.879 92.8744 315.581C95.0169 315.415 97.0848 316.258 98.6434 317.779C100.232 319.412 101.109 321.611 101.117 324.004L101.143 335.484C101.151 340.457 97.4368 344.637 92.9494 344.859ZM92.9132 320.666C90.9804 320.756 89.3552 322.639 89.3408 324.733L89.3662 336.212C89.3518 338.306 91.0078 339.976 92.9406 339.886C94.8734 339.796 96.4986 337.913 96.513 335.819L96.4876 324.34C96.4948 323.293 96.12 322.324 95.4231 321.656C94.7262 320.989 93.8121 320.584 92.9132 320.666Z" fill="url(#paint4_linear_864_837)"/>
<g opacity="0.35">
<path d="M97.4945 334.54L97.469 323.061C97.4763 322.014 97.1014 321.045 96.4045 320.377C95.7077 319.71 94.861 319.343 93.8946 319.388C92.5836 319.435 91.4451 320.342 90.7787 321.506C91.3854 320.978 92.052 320.673 92.8461 320.63C93.8125 320.585 94.6592 320.952 95.3561 321.62C96.0529 322.287 96.4278 323.256 96.4205 324.303L96.446 335.783C96.4537 336.456 96.289 337.13 95.9895 337.731C96.8808 336.976 97.4798 335.775 97.4945 334.54Z" fill="#26366F"/>
<path d="M93.9311 343.58C89.4063 343.877 85.7344 340.055 85.6882 335.157L85.6627 323.678C85.7072 321.695 86.2611 319.896 87.287 318.355C85.6693 320.05 84.681 322.377 84.6817 324.957L84.7071 336.436C84.7533 341.334 88.3578 345.12 92.95 344.859C95.6769 344.725 98.0138 343.136 99.5864 340.843C98.0736 342.5 96.1036 343.525 93.9311 343.58Z" fill="#26366F"/>
</g>
<path opacity="0.3" d="M94.3886 318.224C95.827 318.437 97.1383 319.249 97.9102 320.627C98.4274 321.483 98.6599 322.565 98.6527 323.612L98.6682 325.818C98.6682 325.818 98.6385 326.567 98.6836 327.164C98.6687 327.538 98.9984 327.91 99.343 327.907C99.8225 327.978 100.219 327.526 100.204 327.04C100.249 324.198 100.181 323.301 100.181 323.301C100.188 321.394 99.4682 319.568 98.1419 318.269C97.0853 317.118 95.5494 316.757 94.6279 316.54C94.1484 316.469 93.7889 316.845 93.6992 317.37C93.7143 317.856 93.9766 318.19 94.3886 318.224Z" fill="#575878"/>
<path opacity="0.3" d="M92.9037 340.821C91.4653 340.608 90.1541 339.796 89.3821 338.419C88.865 337.563 88.6324 336.48 88.6397 335.433L88.5946 334.835C88.5946 334.835 88.6243 334.087 88.5792 333.489C88.5941 333.115 88.2644 332.744 87.9198 332.747C87.4403 332.676 87.0434 333.127 87.0585 333.613C87.0143 336.456 87.044 335.708 87.044 335.708C87.037 337.615 87.7567 339.441 89.083 340.739C90.1396 341.89 91.6755 342.252 92.597 342.469C93.0765 342.54 93.436 342.163 93.5258 341.639C93.5406 341.265 93.2109 340.894 92.9037 340.821Z" fill="#575878"/>
<path d="M97.506 380.121C93.0263 381.016 88.8827 377.796 88.2821 372.977L86.8708 361.696C86.2702 356.877 89.4529 352.215 93.9326 351.32C96.0526 350.854 98.2028 351.361 99.9411 352.693C101.747 354.062 102.871 356.11 103.157 358.463L104.568 369.745C105.168 374.564 101.986 379.226 97.506 380.121ZM94.5631 356.25C92.5855 356.603 91.23 358.633 91.4553 360.762L92.8667 372.044C93.092 374.173 94.8978 375.542 96.8755 375.19C98.8531 374.838 100.209 372.808 99.9833 370.679L98.5719 359.397C98.4068 358.351 97.9271 357.42 97.1554 356.903C96.4211 356.311 95.4995 356.093 94.5631 356.25Z" fill="url(#paint5_linear_864_837)"/>
<g opacity="0.35">
<path d="M100.867 369.25L99.4552 357.969C99.2901 356.923 98.8104 355.992 98.0387 355.475C97.3043 354.882 96.3828 354.665 95.409 354.897C94.0905 355.132 93.0495 356.187 92.5853 357.462C93.1246 356.897 93.7613 356.481 94.5254 356.325C95.4618 356.168 96.3833 356.385 97.155 356.902C97.8893 357.495 98.4739 358.388 98.5716 359.397L99.9829 370.678C100.058 371.388 99.9982 372.024 99.7662 372.662C100.56 371.758 100.987 370.558 100.867 369.25Z" fill="#26366F"/>
<path d="M98.3894 378.693C93.9097 379.588 89.7661 376.368 89.1655 371.549L87.7542 360.268C87.5214 358.325 87.873 356.415 88.6967 354.764C87.3112 356.682 86.5927 359.155 86.908 361.621L88.3193 372.902C88.9199 377.721 93.0636 380.941 97.5433 380.046C100.218 379.501 102.427 377.651 103.663 375.174C102.315 377.017 100.472 378.303 98.3894 378.693Z" fill="#26366F"/>
</g>
<path opacity="0.3" d="M95.7689 353.661C97.2523 353.612 98.6383 354.274 99.6575 355.5C100.28 356.317 100.654 357.287 100.752 358.295L101.045 360.462C101.045 360.462 101.12 361.172 101.165 361.77C101.217 362.181 101.517 362.44 101.929 362.474C102.379 362.433 102.776 361.981 102.693 361.458C102.393 358.619 102.288 357.797 102.288 357.797C102.055 355.855 101.051 354.255 99.6494 353.107C98.413 352.144 96.8698 351.969 95.8734 351.902C95.4239 351.943 95.0644 352.32 95.0795 352.806C95.0572 353.367 95.4243 353.663 95.7689 353.661Z" fill="#575878"/>
<path opacity="0.3" d="M97.0107 376.123C95.5273 376.173 94.1412 375.51 93.1221 374.285C92.5001 373.467 92.1252 372.498 92.0276 371.489L91.915 370.854C91.915 370.854 91.8399 370.144 91.7948 369.546C91.7423 369.135 91.4426 368.876 91.0305 368.842C90.581 368.883 90.1841 369.335 90.2667 369.857C90.567 372.697 90.5294 371.912 90.5294 371.912C90.7621 373.854 91.7664 375.454 93.1676 376.602C94.404 377.565 95.9473 377.74 96.9437 377.807C97.3931 377.766 97.7526 377.389 97.7375 376.903C97.7224 376.417 97.3553 376.121 97.0107 376.123Z" fill="#575878"/>
<path d="M108.714 415.294C104.467 417.272 99.7621 415.178 98.1502 410.666L94.4691 400.15C92.8573 395.638 95.0285 390.424 99.2756 388.446C101.276 387.532 103.516 387.515 105.449 388.285C107.517 389.128 109.068 390.836 109.84 393.074L113.521 403.589C115.133 408.101 112.924 413.391 108.714 415.294ZM100.85 393.033C98.9924 393.832 98.0715 396.195 98.7538 398.097L102.435 408.613C103.08 410.589 105.215 411.47 107.005 410.633C108.863 409.833 109.784 407.47 109.101 405.569L105.42 395.053C105.046 394.084 104.386 393.341 103.54 392.974C102.693 392.607 101.726 392.652 100.85 393.033Z" fill="url(#paint6_linear_864_837)"/>
<g opacity="0.35">
<path d="M109.677 404.068L105.996 393.552C105.621 392.583 104.962 391.84 104.115 391.473C103.269 391.106 102.302 391.151 101.426 391.532C100.197 392.102 99.3212 393.343 99.1642 394.69C99.5686 394.052 100.145 393.411 100.917 393.069C101.793 392.688 102.76 392.643 103.606 393.01C104.52 393.414 105.18 394.157 105.487 395.089L109.168 405.605C109.386 406.201 109.461 406.911 109.296 407.586C109.925 406.496 110.112 405.261 109.677 404.068Z" fill="#26366F"/>
<path d="M109.223 413.756C104.976 415.734 100.271 413.64 98.6587 409.128L94.9776 398.612C94.3254 396.823 94.3324 394.916 94.8188 393.08C93.838 395.219 93.6664 397.8 94.4686 400.15L98.1497 410.665C99.7615 415.177 104.467 417.271 108.714 415.293C111.276 414.114 113.021 411.819 113.747 409.158C112.773 411.11 111.223 412.843 109.223 413.756Z" fill="#26366F"/>
</g>
<path opacity="0.3" d="M101.479 390.223C102.872 389.838 104.446 390.125 105.682 391.087C106.416 391.68 107.001 392.572 107.376 393.542L108.155 395.592C108.155 395.592 108.403 396.301 108.59 396.785C108.748 397.158 109.085 397.342 109.467 397.264C109.886 397.112 110.148 396.586 110.028 396.138C109.099 393.528 108.821 392.708 108.821 392.708C108.169 390.918 106.948 389.581 105.254 388.847C103.868 388.185 102.31 388.384 101.336 388.616C100.849 388.732 100.587 389.258 100.707 389.706C100.76 390.117 101.164 390.338 101.479 390.223Z" fill="#575878"/>
<path opacity="0.3" d="M107.312 411.566C105.919 411.951 104.346 411.664 103.109 410.702C102.375 410.109 101.79 409.216 101.415 408.247L101.198 407.651C101.198 407.651 100.951 406.942 100.763 406.457C100.606 406.085 100.269 405.9 99.8866 405.978C99.4671 406.131 99.2051 406.657 99.325 407.104C100.255 409.715 100.007 409.006 100.007 409.006C100.659 410.796 101.881 412.132 103.574 412.867C104.96 413.529 106.519 413.33 107.492 413.097C107.979 412.981 108.241 412.456 108.121 412.008C108.099 411.709 107.694 411.488 107.312 411.566Z" fill="#575878"/>
<path d="M127.654 444.946C123.789 447.706 118.732 446.662 116.378 442.605L110.9 433.113C108.546 429.056 109.766 423.512 113.631 420.752C115.473 419.466 117.631 418.925 119.751 419.32C121.939 419.751 123.782 421.045 124.906 423.093L130.385 432.585C132.738 436.642 131.451 442.149 127.654 444.946ZM115.947 424.884C114.246 426.057 113.7 428.529 114.734 430.241L120.281 439.769C121.278 441.556 123.533 442.025 125.165 440.815C126.866 439.643 127.412 437.17 126.378 435.458L120.899 425.967C120.382 425.111 119.58 424.481 118.621 424.339C117.7 424.122 116.763 424.279 115.947 424.884Z" fill="url(#paint7_linear_864_837)"/>
<g opacity="0.35">
<path d="M126.685 433.811L121.206 424.319C120.689 423.463 119.887 422.833 118.928 422.691C118.006 422.474 117.1 422.743 116.216 423.311C115.048 424.106 114.441 425.494 114.524 426.877C114.793 426.164 115.303 425.487 115.977 424.996C116.793 424.391 117.73 424.234 118.689 424.376C119.61 424.593 120.449 425.147 120.966 426.003L126.445 435.495C126.768 436.053 126.947 436.725 126.955 437.398C127.314 436.161 127.299 434.815 126.685 433.811Z" fill="#26366F"/>
<path d="M127.856 443.336C123.991 446.096 118.934 445.052 116.581 440.995L111.102 431.503C110.135 429.828 109.76 427.999 109.969 426.202C109.393 428.562 109.603 431.066 110.863 433.188L116.341 442.679C118.695 446.737 123.752 447.781 127.617 445.021C129.924 443.32 131.301 440.729 131.48 437.96C130.949 440.059 129.736 441.975 127.856 443.336Z" fill="#26366F"/>
</g>
<path opacity="0.3" d="M116.059 422.079C117.429 421.395 118.98 421.383 120.366 422.045C121.28 422.449 121.94 423.191 122.457 424.047L123.589 425.908C123.589 425.908 123.978 426.503 124.233 427.025C124.391 427.397 124.87 427.468 125.222 427.279C125.679 427.051 125.806 426.451 125.581 426.042C124.195 423.66 123.775 422.953 123.775 422.953C122.876 421.314 121.332 420.28 119.557 419.882C118.088 419.557 116.553 420.056 115.571 420.475C115.114 420.703 114.957 421.19 115.145 421.675C115.37 422.084 115.744 422.193 116.059 422.079Z" fill="#575878"/>
<path opacity="0.3" d="M125.615 441.634C124.245 442.318 122.694 442.33 121.308 441.668C120.394 441.264 119.734 440.521 119.217 439.665L118.857 439.182C118.857 439.182 118.468 438.587 118.213 438.065C118.055 437.693 117.576 437.622 117.224 437.812C116.767 438.04 116.64 438.639 116.865 439.048C118.251 441.431 117.899 440.76 117.899 440.76C118.798 442.398 120.342 443.433 122.117 443.83C123.586 444.155 125.121 443.657 126.103 443.238C126.56 443.01 126.717 442.523 126.529 442.038C126.41 441.59 125.967 441.444 125.615 441.634Z" fill="#575878"/>
<path d="M154.442 468.665C151.364 472.429 146.142 472.919 142.823 469.766L135.09 462.386C131.77 459.234 131.581 453.589 134.659 449.826C136.142 448.057 138.082 446.92 140.262 446.678C142.51 446.473 144.652 447.167 146.279 448.724L154.012 456.104C157.331 459.257 157.52 464.901 154.442 468.665ZM138.009 453.09C136.668 454.746 136.744 457.176 138.205 458.548L145.938 465.928C147.4 467.3 149.647 467.095 150.988 465.439C152.328 463.783 152.253 461.353 150.791 459.981L143.058 452.601C142.361 451.934 141.41 451.605 140.406 451.725C139.507 451.807 138.661 452.3 138.009 453.09Z" fill="url(#paint8_linear_864_837)"/>
<g opacity="0.35">
<path d="M150.648 458.374L142.915 450.994C142.218 450.327 141.267 449.998 140.263 450.118C139.364 450.2 138.413 450.731 137.798 451.446C136.892 452.575 136.698 453.997 136.99 455.304C137.058 454.481 137.365 453.693 137.941 453.053C138.593 452.262 139.439 451.77 140.406 451.725C141.409 451.604 142.294 451.897 143.058 452.601L150.791 459.981C151.256 460.426 151.578 460.984 151.758 461.656C151.945 460.421 151.547 459.152 150.648 458.374Z" fill="#26366F"/>
<path d="M154.299 467.058C151.221 470.821 145.999 471.311 142.68 468.159L134.947 460.779C133.62 459.481 132.788 457.88 132.481 456.087C132.489 458.48 133.396 460.791 135.089 462.386L142.823 469.766C146.142 472.918 151.364 472.428 154.442 468.665C156.254 466.407 156.92 463.522 156.44 460.871C156.493 463.002 155.714 465.252 154.299 467.058Z" fill="#26366F"/>
</g>
<path opacity="0.3" d="M137.394 450.365C138.502 449.346 140.038 448.848 141.544 449.098C142.503 449.24 143.379 449.719 144.076 450.387L145.605 451.796C145.605 451.796 146.069 452.241 146.467 452.649C146.766 452.908 147.178 452.942 147.5 452.641C147.86 452.264 147.882 451.703 147.515 451.407C145.589 449.59 145.027 448.996 145.027 448.996C143.701 447.697 141.963 447.225 140.165 447.389C138.644 447.513 137.228 448.459 136.479 449.101C136.09 449.365 136.03 450.002 136.36 450.373C136.697 450.557 137.177 450.628 137.394 450.365Z" fill="#575878"/>
<path opacity="0.3" d="M151.685 466.107C150.576 467.125 149.04 467.623 147.535 467.374C146.576 467.232 145.699 466.752 145.002 466.085L144.567 465.752C144.567 465.752 144.103 465.307 143.706 464.898C143.406 464.639 142.994 464.605 142.672 464.907C142.312 465.283 142.29 465.845 142.657 466.141C144.583 467.958 144.051 467.476 144.051 467.476C145.377 468.774 147.116 469.246 148.913 469.083C150.434 468.958 151.85 468.012 152.599 467.371C152.988 467.106 153.048 466.47 152.718 466.099C152.419 465.839 151.902 465.843 151.685 466.107Z" fill="#575878"/>
<path d="M101.481 255.123C99.9149 254.649 99.0529 252.936 99.5694 251.212L106.134 229.098C106.65 227.374 108.276 226.352 109.841 226.825C110.591 227.044 111.19 227.563 111.505 228.308C111.857 228.978 111.925 229.875 111.685 230.7L105.256 252.887C104.739 254.611 103.047 255.597 101.481 255.123Z" fill="url(#paint9_linear_864_837)"/>
<path opacity="0.3" d="M104.385 246.201C103.501 245.908 103.081 244.341 103.598 242.617L105.828 235.046C106.345 233.322 107.491 232.229 108.412 232.446C108.854 232.592 109.214 233.075 109.326 233.71C109.439 234.345 109.439 235.205 109.2 236.029L106.969 243.6C106.52 245.361 105.374 246.455 104.385 246.201Z" fill="#575878"/>
<path opacity="0.35" d="M103.022 250.137C102.205 249.882 101.576 249.251 101.261 248.506L107.549 227.292C106.912 227.708 106.44 228.311 106.201 229.135L101.111 246.226L99.9506 250.274L99.6362 251.249C99.1197 252.973 99.9817 254.686 101.548 255.16C103.113 255.633 104.739 254.611 105.255 252.887L106.73 247.865C106.213 249.589 104.52 250.574 103.022 250.137Z" fill="#26366F"/>
<path d="M94.6803 290.102C93.107 289.815 92.1027 288.215 92.4843 286.418L97.0708 263.796C97.4149 262.073 98.9429 260.902 100.584 261.226C101.37 261.369 102.007 261.813 102.427 262.52C102.779 263.19 102.952 264.049 102.78 264.91L98.1932 287.532C97.849 289.254 96.2536 290.389 94.6803 290.102Z" fill="url(#paint10_linear_864_837)"/>
<path opacity="0.3" d="M96.7678 280.924C95.8089 280.782 95.3215 279.178 95.6657 277.455L97.2144 269.703C97.5586 267.98 98.6071 266.738 99.566 266.88C100.046 266.951 100.405 267.434 100.623 268.031C100.84 268.627 100.84 269.487 100.668 270.349L99.1195 278.101C98.8053 279.936 97.7568 281.178 96.7678 280.924Z" fill="#575878"/>
<path opacity="0.35" d="M95.7425 285.045C94.8884 284.865 94.289 284.347 93.8692 283.639L98.2461 261.954C97.6769 262.408 97.2351 263.122 97.1005 263.908L93.5465 281.361L92.6935 285.481L92.4466 286.492C92.1024 288.215 93.0693 289.89 94.6426 290.177C96.2159 290.464 97.8113 289.329 98.1554 287.606L99.1879 282.438C98.8437 284.161 97.3158 285.332 95.7425 285.045Z" fill="#26366F"/>
<path d="M100.04 273.158C99.5158 274.209 98.4296 274.666 97.6204 274.224C96.8112 273.782 96.5487 272.587 97.0728 271.536C97.597 270.485 98.6831 270.028 99.4923 270.47C100.302 270.912 100.527 272.182 100.04 273.158Z" fill="#575878"/>
<path d="M92.8468 327.509C91.2286 327.484 89.9771 326.036 90.0441 324.352L91.0945 301.422C91.1989 299.664 92.5994 298.232 94.1502 298.22C94.9443 298.176 95.686 298.582 96.1806 299.139C96.6752 299.696 96.9526 300.516 96.9528 301.376L95.9025 324.306C95.8655 326.101 94.5024 327.458 92.8468 327.509Z" fill="url(#paint11_linear_864_837)"/>
<path opacity="0.3" d="M93.564 318.155C92.5976 318.2 91.8631 316.747 91.9675 314.989L92.3475 307.171C92.452 305.413 93.3356 303.985 94.2645 304.015C94.7815 304.011 95.2161 304.344 95.4335 304.94C95.7557 305.499 95.8608 306.321 95.8611 307.181L95.481 314.999C95.3766 316.757 94.5304 318.11 93.564 318.155Z" fill="#575878"/>
<path opacity="0.35" d="M93.1235 322.309C92.262 322.316 91.5202 321.91 90.9956 321.241L92.0087 299.246C91.4695 299.812 91.1625 300.599 91.1328 301.347L90.2908 319.041L90.0896 323.23L90.015 324.24C89.9106 325.999 91.162 327.447 92.8176 327.397C94.4358 327.421 95.8364 325.989 95.8734 324.194L96.1492 318.994C96.0748 320.865 94.7791 322.258 93.1235 322.309Z" fill="#26366F"/>
<path d="M95.0064 363.276C93.3808 363.439 92.017 362.216 91.9491 360.459L90.7895 337.658C90.7216 335.902 91.9198 334.359 93.5455 334.197C94.377 334.078 95.0888 334.371 95.6882 334.89C96.2202 335.372 96.6025 336.154 96.6702 337.051L97.8298 359.851C97.8302 361.571 96.632 363.114 95.0064 363.276Z" fill="url(#paint12_linear_864_837)"/>
<path opacity="0.5" d="M94.7569 353.967C93.7531 354.087 92.8762 352.748 92.8083 350.991L92.4317 343.142C92.3638 341.385 93.0452 339.846 94.0116 339.801C94.4611 339.76 95.0005 340.055 95.3228 340.614C95.6451 341.172 95.8925 341.88 95.9601 342.777L96.3368 350.627C96.4046 352.384 95.7233 353.922 94.7569 353.967Z" fill="#575878"/>
<path opacity="0.35" d="M94.7279 358.156C93.8963 358.274 93.1171 357.944 92.5551 357.35L91.4257 335.522C90.9539 336.124 90.7144 336.948 90.752 337.733L91.6031 355.301L91.8514 359.45L91.8817 360.422C91.9495 362.179 93.3808 363.439 94.9389 363.239C96.5646 363.077 97.8002 361.459 97.6949 359.778L97.4538 354.582C97.5892 356.376 96.3535 357.993 94.7279 358.156Z" fill="#26366F"/>
<path d="M102.454 398.591C100.851 399.052 99.3076 398.018 98.9626 396.3L94.6417 374.161C94.2966 372.443 95.33 370.715 96.9331 370.254C97.7346 370.023 98.5213 370.166 99.1581 370.61C99.795 371.054 100.252 371.686 100.425 372.544L104.746 394.684C105.053 396.476 104.02 398.205 102.454 398.591Z" fill="url(#paint13_linear_864_837)"/>
<path opacity="0.3" d="M100.887 389.517C99.9128 389.749 98.8561 388.598 98.5785 386.918L97.0558 379.301C96.7107 377.584 97.2197 376.047 98.231 375.74C98.7179 375.624 99.2274 375.807 99.6546 376.327C100.119 376.772 100.434 377.517 100.607 378.376L102.129 385.992C102.407 387.673 101.86 389.285 100.887 389.517Z" fill="#575878"/>
<path opacity="0.35" d="M101.449 393.551C100.648 393.782 99.7935 393.602 99.1566 393.158L95.0083 371.877C94.6714 372.553 94.5367 373.339 94.6418 374.161L98.0249 391.297L98.8276 395.367L99.0301 396.337C99.3752 398.055 100.919 399.089 102.522 398.628C104.125 398.167 105.158 396.438 104.813 394.721L103.808 389.681C104.048 391.437 103.015 393.165 101.449 393.551Z" fill="#26366F"/>
<path opacity="0.8" d="M100.284 378.678C99.7601 379.729 98.6065 380.149 97.7299 379.67C96.8533 379.191 96.5233 377.959 97.0474 376.908C97.5716 375.857 98.7252 375.437 99.6018 375.916C100.441 376.47 100.771 377.701 100.284 378.678Z" fill="#575878"/>
<path d="M118.944 430.057C117.529 431.003 115.753 430.606 114.914 429.192L104.061 410.17C103.259 408.68 103.715 406.732 105.064 405.749C105.738 405.258 106.569 405.139 107.288 405.246C107.97 405.427 108.674 405.908 109.094 406.615L119.947 425.637C120.854 427.088 120.397 429.036 118.944 430.057Z" fill="url(#paint14_linear_864_837)"/>
<path opacity="0.3" d="M114.747 422.126C113.931 422.73 112.582 421.993 111.743 420.579L108.04 414.064C107.238 412.575 107.2 410.93 108.084 410.362C108.473 410.097 109.058 410.13 109.597 410.425C110.137 410.72 110.736 411.239 111.118 412.021L114.821 418.535C115.593 419.913 115.631 421.558 114.747 422.126Z" fill="#575878"/>
<path opacity="0.35" d="M116.568 425.701C115.789 426.23 114.958 426.349 114.208 426.131L103.775 407.816C103.641 408.602 103.746 409.424 104.098 410.094L112.47 424.798L114.434 428.26L114.883 429.079C115.685 430.569 117.498 430.891 118.914 429.945C120.33 428.999 120.719 427.014 119.917 425.525L117.436 421.207C118.373 422.77 117.916 424.718 116.568 425.701Z" fill="#26366F"/>
<path d="M142.564 456.345C141.478 457.663 139.575 457.865 138.451 456.677L123.022 441.842C121.861 440.729 121.77 438.673 122.924 437.393C123.501 436.753 124.205 436.373 124.931 436.293C125.658 436.212 126.475 436.467 127.037 437.061L142.466 451.896C143.56 452.972 143.65 455.028 142.564 456.345Z" fill="url(#paint15_linear_864_837)"/>
<path opacity="0.3" d="M136.405 450.112C135.753 450.902 134.247 450.652 133.086 449.54L127.81 444.459C126.649 443.346 126.229 441.779 126.918 440.913C127.277 440.537 127.802 440.346 128.416 440.49C129.031 440.635 129.742 440.928 130.304 441.522L135.58 446.603C136.674 447.679 137.056 449.321 136.405 450.112Z" fill="#575878"/>
<path opacity="0.35" d="M139.012 452.971C138.398 453.686 137.627 454.029 136.833 454.072L122.071 439.793C122.108 440.578 122.423 441.323 122.955 441.805L134.832 453.266L137.687 455.973L138.384 456.64C139.546 457.753 141.411 457.626 142.497 456.309C143.583 454.991 143.56 452.972 142.398 451.86L138.914 448.522C140.075 449.634 140.166 451.69 139.012 452.971Z" fill="#26366F"/>
<path opacity="0.8" d="M134.613 447.509C134.089 448.56 132.935 448.98 132.059 448.501C131.182 448.022 130.852 446.79 131.376 445.739C131.9 444.688 133.054 444.268 133.93 444.747C134.807 445.226 135.1 446.533 134.613 447.509Z" fill="#575878"/>
<path d="M169.121 479.842C168.065 481.271 166.297 481.547 164.993 480.547L148.583 466.991C147.317 465.917 147.151 464.011 148.14 462.545C148.649 461.868 149.391 461.414 150.117 461.333C150.881 461.177 151.631 461.396 152.23 461.915L168.64 475.471C169.981 476.395 170.177 478.412 169.121 479.842Z" fill="url(#paint16_linear_864_837)"/>
<path opacity="0.45" d="M169.121 479.842C168.065 481.271 166.297 481.547 164.993 480.547L148.583 466.991C147.317 465.917 147.151 464.011 148.14 462.545C148.649 461.868 149.391 461.414 150.117 461.333C150.881 461.177 151.631 461.396 152.23 461.915L168.64 475.471C169.981 476.395 170.177 478.412 169.121 479.842Z" fill="#AEA8B4"/>
<path opacity="0.3" d="M162.631 474.098C162.01 475 160.466 474.825 159.268 473.788L153.595 469.158C152.329 468.084 151.804 466.555 152.456 465.765C152.748 465.351 153.272 465.16 153.924 465.23C154.508 465.262 155.22 465.556 155.887 466.112L161.559 470.741C162.691 471.741 163.215 473.27 162.631 474.098Z" fill="#575878"/>
<path opacity="0.35" d="M165.419 476.767C164.872 477.519 164.13 477.974 163.336 478.018L147.593 465.017C147.736 465.764 148.051 466.509 148.62 466.916L161.328 477.398L164.296 479.88L165.03 480.472C166.296 481.547 168.102 481.196 169.158 479.766C170.214 478.337 169.981 476.395 168.714 475.32L165.013 472.246C166.242 473.395 166.475 475.338 165.419 476.767Z" fill="#26366F"/>
<path d="M194.2 344.828C194.618 342.436 196.696 340.69 199.125 340.69H224.774C227.18 340.69 229.245 342.404 229.689 344.768L257.814 494.769C258.391 497.846 256.03 500.69 252.899 500.69H172.875C169.769 500.69 167.414 497.888 167.95 494.828L194.2 344.828Z" fill="url(#paint17_linear_864_837)"/>
<path d="M229.124 369.974L209.924 374.359V434.282L225.924 463.513L232.324 502.974L241.924 486.897L224.324 428.436L229.124 369.974Z" fill="#A39875"/>
<path d="M327.999 30.5001C387.76 48.7804 411.517 76.665 438 131.5L424.5 188.5L403 220L371.5 245L282.136 351.092L131 224.274L215.5 126.5L230 91.4999L262.5 57.0001L327.999 30.5001Z" fill="url(#paint18_linear_864_837)"/>
<path d="M412.442 85.0337L420.666 99.6906L373.353 172.571L336.737 199.578L300.052 244.315L304.76 219.44L365.916 157.584L412.442 85.0337Z" fill="#A4997C"/>
<path d="M244.148 219.117L244.148 219.117L244.147 219.118L244.148 219.117L252.907 233.643L279.945 196.173L309.289 161.756L311.927 135.431L278.753 186.443L244.148 219.117Z" fill="#AC9F7C"/>
<path d="M346.394 42.6972L354.293 45.3867L307.001 83.4742L319.427 66.4333L346.394 42.6972Z" fill="#A49976"/>
<path d="M302.655 102.726L298.335 114.24L285.43 130.176L273.076 137.005L302.655 102.726Z" fill="#ADA281"/>
<path d="M155.375 495.14L163.338 462.709L168.677 457.782L180.386 462.655L186.02 478.198L224.958 482.306L228.453 467.262L238.556 465.417L243.397 469.632L248.499 461.307L248.997 452.165L261.757 455.826L264.394 477.271L259.926 494.659L264.847 500.007L253.433 515.604L229.676 517.265L226.939 510.626L179.606 500.276L174.188 504.07L155.375 495.14Z" fill="url(#paint19_linear_864_837)"/>
<path d="M178.315 465.01L163.442 462.663L168.757 457.776L174.424 456.975L173.924 459.975L180.41 462.606L186.013 478.017L224.768 482.08L228.251 467.162L238.306 465.33L239.511 466.375L230.738 470.375L225.082 486.574L184.966 479.219L178.315 465.01Z" fill="#837B63"/>
<path d="M344.424 274.474C344.424 350.137 285.811 415.69 210.424 415.69C135.037 415.69 73.9238 354.353 73.9238 278.69C73.9238 203.027 135.037 141.69 210.424 141.69C252.424 153.474 268.363 162.974 301.424 198.974C323.924 223.474 335.924 240.474 344.424 274.474Z" fill="url(#paint20_radial_864_837)"/>
<path d="M203.653 254.165C185.946 281.432 147.808 288.467 121.535 271.405C95.2614 254.343 99.9756 226.564 117.683 199.297C135.39 172.031 172.444 156.716 198.717 173.778C224.99 190.84 221.36 226.898 203.653 254.165Z" fill="#4E3B21"/>
<path d="M228.408 306.812C228.101 305.829 228.788 304.348 230.005 303.642C231.158 302.912 232.422 303.092 232.729 304.074L232.763 304.184C233.507 306.197 234.825 307.651 236.646 308.328C240.681 309.827 245.543 306.615 247.492 301.259C248.018 299.814 248.284 298.273 248.327 296.937C248.276 295.857 249.162 294.642 250.416 294.24C251.671 293.837 252.746 294.333 252.861 295.437C252.861 295.437 252.861 295.437 252.83 295.522C252.868 297.853 252.489 300.317 251.591 302.782C248.528 311.198 240.978 316.113 234.731 313.793C231.608 312.633 229.497 310.111 228.408 306.812Z" fill="url(#paint21_linear_864_837)"/>
<path opacity="0.45" d="M228.408 306.812C228.101 305.829 228.788 304.348 230.005 303.642C231.158 302.912 232.422 303.092 232.729 304.074L232.763 304.184C233.507 306.197 234.825 307.651 236.646 308.328C240.681 309.827 245.543 306.615 247.492 301.259C248.018 299.814 248.284 298.273 248.327 296.937C248.276 295.857 249.162 294.642 250.416 294.24C251.671 293.837 252.746 294.333 252.861 295.437C252.861 295.437 252.861 295.437 252.83 295.522C252.868 297.853 252.489 300.317 251.591 302.782C248.528 311.198 240.978 316.113 234.731 313.793C231.608 312.633 229.497 310.111 228.408 306.812Z" fill="#BEBED0"/>
<path opacity="0.25" d="M232.698 304.159C233.374 305.954 234.496 307.336 236.061 308.11C235.866 308.038 235.671 307.965 235.541 307.917C233.979 307.337 232.101 305.192 231.517 303.142C231.874 303.177 232.589 303.443 232.698 304.159Z" fill="#46395B"/>
<path opacity="0.25" d="M250.615 302.42C251.451 300.125 251.741 298.11 251.932 295.961C251.988 295.403 252.009 294.735 251.968 294.238C252.294 294.359 252.721 294.807 252.796 295.414C252.834 297.744 252.423 300.293 251.526 302.759C248.463 311.174 240.913 316.089 234.666 313.769C234.341 313.648 234.016 313.527 233.786 313.346C239.729 314.878 247.181 311.856 250.615 302.42Z" fill="#46395B"/>
<path opacity="0.3" d="M232.536 310.082C232.821 309.705 233.27 309.486 233.63 309.716C233.989 309.946 234.349 310.176 234.739 310.321C237.311 311.373 240.244 310.822 242.737 309.046C243.121 308.803 243.543 308.863 243.744 309.324C244.011 309.809 243.763 310.489 243.348 310.817C240.375 312.897 236.928 313.643 233.931 312.337C233.476 312.168 233.051 311.914 232.627 311.66C232.202 311.405 232.19 310.629 232.536 310.082Z" fill="#575878"/>
<path d="M231.615 488.298C230.956 489.291 231.166 490.699 232.073 491.457C232.98 492.215 234.337 492.068 234.996 491.076C235.042 490.997 235.042 490.997 235.088 490.918C236.524 489.003 238.443 487.486 240.521 486.918C245.144 485.529 248.903 488.748 248.992 494.034C249.039 495.45 248.758 496.883 248.254 498.29C247.818 499.309 248.284 500.55 249.422 500.913C250.514 501.355 251.832 500.865 252.315 499.767C252.315 499.767 252.315 499.767 252.361 499.688C253.209 497.42 253.704 494.941 253.662 492.566C253.572 484.289 247.646 479.343 240.419 481.518C236.976 482.654 233.953 485.11 231.615 488.298Z" fill="url(#paint22_linear_864_837)"/>
<path opacity="0.25" d="M235.042 490.997C236.34 489.32 238.048 487.89 239.892 487.181C239.682 487.269 239.459 487.242 239.249 487.329C237.439 487.845 234.765 489.976 233.447 491.961C233.938 491.936 234.732 491.665 235.042 490.997Z" fill="#46395B"/>
<path opacity="0.25" d="M252.658 492.925C252.7 495.3 252.306 497.199 251.668 499.379C251.462 500.003 251.303 500.548 251.085 501.057C251.458 500.961 252.017 500.549 252.327 499.881C253.175 497.614 253.67 495.135 253.674 492.681C253.584 484.404 247.658 479.457 240.432 481.632C240.058 481.728 239.743 481.859 239.323 482.034C246.029 480.615 252.572 483.689 252.658 492.925Z" fill="#46395B"/>
<path opacity="0.3" d="M237.031 485.143C237.187 485.557 237.586 485.69 238.006 485.515C238.426 485.34 238.892 485.086 239.312 484.911C242.276 483.914 245.031 484.5 246.988 486.316C247.295 486.607 247.773 486.467 248.122 486.143C248.563 485.66 248.605 485.044 248.239 484.718C245.975 482.611 242.763 481.857 239.215 483.037C238.69 483.256 238.165 483.474 237.64 483.693C237.115 483.912 236.863 484.615 237.031 485.143Z" fill="#575878"/>
<path d="M245.887 337.806L241.792 329.08C240.919 327.274 240.965 324.984 241.958 322.653C242.884 320.385 244.58 318.43 246.665 317.048C251.08 314.147 256.093 314.809 257.818 318.535L261.913 327.261C263.639 330.987 261.457 336.393 257.041 339.293C252.625 342.194 247.613 341.532 245.887 337.806ZM246.429 323.259C246.01 324.304 245.996 325.253 246.342 326.054L250.437 334.78C251.174 336.433 253.386 336.71 255.337 335.453C257.287 334.196 258.235 331.815 257.498 330.162L253.403 321.436C252.666 319.783 250.453 319.506 248.503 320.763C247.561 321.36 246.781 322.275 246.429 323.259Z" fill="url(#paint23_linear_864_837)"/>
<g opacity="0.35">
<path d="M248.992 334.537L244.897 325.811C244.551 325.01 244.52 324.01 244.984 323.015C245.381 322.083 246.162 321.168 247.058 320.52C248.381 319.661 249.732 319.524 250.797 320.029C250.075 320.046 249.198 320.302 248.436 320.826C247.495 321.423 246.781 322.276 246.362 323.321C245.944 324.367 245.93 325.316 246.275 326.117L250.37 334.843C250.601 335.377 251.033 335.723 251.531 336.007C250.426 336.008 249.474 335.491 248.992 334.537Z" fill="#26366F"/>
<path d="M255.663 338.987C260.079 336.087 262.261 330.681 260.535 326.955L256.441 318.229C255.728 316.741 254.478 315.753 253.03 315.231C255.197 315.457 256.988 316.502 257.886 318.473L261.981 327.198C263.707 330.925 261.524 336.33 257.109 339.231C254.464 340.949 251.604 341.462 249.365 340.741C251.261 340.939 253.579 340.369 255.663 338.987Z" fill="#26366F"/>
</g>
<path opacity="0.3" d="M246.174 319.94C244.854 321.077 243.898 322.623 243.597 324.214C243.404 325.237 243.615 326.163 243.961 326.964L244.744 328.669C244.744 328.669 245.02 329.254 245.226 329.623C245.387 329.941 245.188 330.407 244.853 330.72C244.405 331.044 243.909 331.039 243.702 330.67C242.668 328.545 242.413 327.846 242.413 327.846C241.7 326.358 241.774 324.511 242.522 322.596C243.161 320.97 244.457 319.668 245.329 318.855C245.732 318.48 246.273 318.536 246.434 318.854C246.641 319.223 246.555 319.678 246.174 319.94Z" fill="#575878"/>
<path opacity="0.3" d="M255.704 336.141C257.024 335.003 257.979 333.457 258.28 331.866C258.474 330.843 258.262 329.917 257.917 329.116L257.732 328.633C257.732 328.633 257.456 328.048 257.249 327.679C257.088 327.36 257.287 326.894 257.622 326.582C258.07 326.257 258.567 326.263 258.773 326.632C259.808 328.757 259.464 328.234 259.464 328.234C260.177 329.722 260.104 331.569 259.355 333.485C258.716 335.11 257.42 336.412 256.548 337.225C256.146 337.601 255.604 337.544 255.443 337.226C255.237 336.857 255.323 336.402 255.704 336.141Z" fill="#575878"/>
<path opacity="0.45" d="M246.686 316.934C244.601 318.316 242.906 320.271 241.98 322.539C241.163 324.517 240.978 326.375 241.489 328.051C242.973 327.511 244.703 326.833 246.479 326.207L246.409 325.991C246.063 325.19 246.031 324.19 246.496 323.196C246.893 322.264 247.674 321.348 248.57 320.7C250.52 319.443 252.733 319.72 253.47 321.373L254.689 323.981C256.513 323.684 258.382 323.438 260.367 323.46L258.065 318.398C256.16 314.746 251.102 314.033 246.686 316.934Z" fill="#9A9A9A"/>
<path d="M255.494 367.041L252.7 357.57C252.14 355.565 252.412 353.252 253.676 350.949C254.806 348.772 256.705 346.907 258.859 345.741C263.46 343.323 268.185 344.628 269.417 348.627L272.211 358.098C273.376 362.16 270.607 367.458 266.052 369.927C261.384 372.407 256.659 371.103 255.494 367.041ZM257.814 352.146C257.304 353.09 257.156 354.164 257.435 355.027L260.228 364.498C260.719 366.288 262.821 366.854 264.795 365.762C266.815 364.721 268.034 362.368 267.477 360.641L264.683 351.17C264.193 349.38 262.09 348.813 260.116 349.906C259.129 350.452 258.324 351.202 257.814 352.146Z" fill="url(#paint24_linear_864_837)"/>
<g opacity="0.35">
<path d="M258.873 364.078L256.079 354.608C255.8 353.744 255.994 352.721 256.458 351.727C256.968 350.783 257.794 349.919 258.714 349.435C260.061 348.741 261.437 348.769 262.367 349.399C261.667 349.303 260.857 349.496 260.004 349.917C259.084 350.401 258.212 351.214 257.748 352.209C257.238 353.152 257.09 354.226 257.369 355.09L260.162 364.561C260.326 365.157 260.69 365.566 261.122 365.912C260.106 365.737 259.221 365.158 258.873 364.078Z" fill="#26366F"/>
<path d="M264.696 369.507C269.297 367.09 272.066 361.792 270.856 357.679L268.062 348.208C267.596 346.583 266.548 345.407 265.121 344.772C267.132 345.237 268.746 346.633 269.352 348.69L272.146 358.161C273.311 362.223 270.541 367.521 265.986 369.99C263.226 371.44 260.431 371.612 258.369 370.54C260.268 371.016 262.496 370.622 264.696 369.507Z" fill="#26366F"/>
</g>
<path opacity="0.3" d="M258.008 348.782C256.597 349.817 255.505 351.21 255.024 352.875C254.718 353.909 254.75 354.909 255.028 355.773L255.564 357.614C255.564 357.614 255.727 358.21 255.912 358.693C256.006 359.074 255.762 359.489 255.448 359.688C255 360.012 254.525 359.893 254.386 359.461C253.665 357.137 253.478 356.376 253.478 356.376C253.012 354.751 253.31 352.882 254.217 351.006C255.014 349.42 256.469 348.158 257.365 347.509C257.813 347.185 258.354 347.242 258.448 347.622C258.587 348.054 258.389 348.52 258.008 348.782Z" fill="#575878"/>
<path opacity="0.3" d="M265.141 366.563C266.552 365.527 267.645 364.135 268.125 362.469C268.431 361.435 268.4 360.435 268.121 359.571L268.003 359.026C268.003 359.026 267.84 358.429 267.655 357.947C267.561 357.566 267.805 357.151 268.119 356.952C268.567 356.628 269.042 356.747 269.181 357.179C269.902 359.502 269.738 358.906 269.738 358.906C270.205 360.53 269.906 362.4 268.999 364.276C268.202 365.862 266.748 367.124 265.852 367.772C265.404 368.097 264.862 368.04 264.768 367.659C264.562 367.29 264.76 366.824 265.141 366.563Z" fill="#575878"/>
<path d="M260.112 398.121L258.89 387.933C258.644 385.728 259.299 383.432 260.813 381.272C262.259 379.174 264.274 377.576 266.543 376.677C271.261 374.805 275.565 376.876 276.057 381.285L277.279 391.473C277.838 395.82 274.39 400.908 269.626 402.729C264.974 404.539 260.671 402.467 260.112 398.121ZM264.551 383.122C263.928 384.077 263.622 385.112 263.721 386.049L264.943 396.237C265.186 398.163 267.066 399.031 269.088 398.268C271.178 397.443 272.646 395.232 272.448 393.357L271.226 383.169C270.983 381.243 269.103 380.375 267.08 381.137C266.069 381.519 265.219 382.218 264.551 383.122Z" fill="url(#paint25_linear_864_837)"/>
<g opacity="0.35">
<path d="M263.809 395.516L262.587 385.328C262.488 384.39 262.794 383.356 263.416 382.401C264.085 381.497 264.935 380.798 265.946 380.416C267.317 379.887 268.604 380.091 269.379 380.96C268.701 380.75 267.912 380.83 267.081 381.137C266.069 381.519 265.219 382.218 264.551 383.122C263.928 384.077 263.622 385.111 263.721 386.049L264.943 396.237C264.994 396.845 265.291 397.316 265.656 397.725C264.661 397.436 263.977 396.669 263.809 395.516Z" fill="#26366F"/>
<path d="M268.492 402.008C273.211 400.135 276.637 395.161 276.146 390.752L274.924 380.564C274.704 378.803 273.857 377.44 272.699 376.554C274.533 377.371 275.833 378.967 276.125 381.223L277.347 391.41C277.906 395.757 274.457 400.845 269.694 402.666C266.885 403.787 264.243 403.442 262.45 402.119C264.08 402.846 266.223 402.907 268.492 402.008Z" fill="#26366F"/>
</g>
<path opacity="0.3" d="M265.263 379.65C263.782 380.469 262.532 381.822 261.847 383.397C261.383 384.391 261.302 385.403 261.401 386.34L261.623 388.38C261.623 388.38 261.719 389.039 261.791 389.534C261.839 389.863 261.528 390.341 261.214 390.54C260.721 390.813 260.267 390.58 260.241 390.137C259.947 387.603 259.872 386.83 259.872 386.83C259.653 385.069 260.289 383.165 261.446 381.431C262.447 379.936 263.97 378.889 264.912 378.292C265.405 378.019 265.88 378.138 265.952 378.632C265.888 378.973 265.689 379.439 265.263 379.65Z" fill="#575878"/>
<path opacity="0.3" d="M269.321 399.081C270.802 398.261 272.052 396.908 272.737 395.334C273.201 394.339 273.282 393.328 273.183 392.39L273.178 391.833C273.178 391.833 273.082 391.174 273.009 390.68C272.961 390.35 273.273 389.873 273.586 389.674C274.08 389.401 274.533 389.633 274.56 390.077C274.854 392.611 274.758 391.952 274.758 391.952C274.977 393.713 274.341 395.617 273.184 397.351C272.183 398.846 270.659 399.892 269.718 400.49C269.224 400.763 268.749 400.644 268.677 400.149C268.65 399.706 268.895 399.291 269.321 399.081Z" fill="#575878"/>
<path d="M260.228 430.214L260.423 419.548C260.469 417.258 261.462 414.928 263.113 412.921C264.808 410.965 266.893 409.583 269.165 408.962C273.934 407.698 277.725 410.434 277.587 414.963L277.392 425.629C277.299 430.209 273.307 434.962 268.605 436.164C263.948 437.417 260.157 434.68 260.228 430.214ZM266.472 415.311C265.759 416.164 265.34 417.209 265.259 418.221L265.065 428.887C265.016 430.898 266.673 432.068 268.765 431.521C270.857 430.974 272.574 428.905 272.623 426.893L272.818 416.228C272.867 414.216 271.21 413.046 269.117 413.593C268.195 413.798 267.232 414.509 266.472 415.311Z" fill="url(#paint26_linear_864_837)"/>
<g opacity="0.35">
<path d="M264.065 428.04L264.259 417.374C264.273 416.425 264.692 415.379 265.472 414.464C266.186 413.611 267.128 413.014 268.117 412.746C269.512 412.382 270.711 412.762 271.306 413.705C270.695 413.432 269.928 413.399 269.118 413.592C268.128 413.86 267.186 414.457 266.472 415.31C265.759 416.163 265.34 417.209 265.259 418.22L265.065 428.886C265.048 429.556 265.233 430.039 265.531 430.511C264.67 430.097 264.008 429.216 264.065 428.04Z" fill="#26366F"/>
<path d="M267.718 435.306C272.487 434.042 276.413 429.351 276.505 424.771L276.7 414.105C276.773 412.259 276.173 410.759 275.103 409.697C276.782 410.753 277.746 412.661 277.745 415.003L277.551 425.668C277.458 430.248 273.466 435.001 268.764 436.203C265.907 436.995 263.442 436.297 261.871 434.673C263.346 435.638 265.401 435.876 267.718 435.306Z" fill="#26366F"/>
</g>
<path opacity="0.3" d="M267.635 411.793C266.13 412.447 264.743 413.647 263.833 415.244C263.256 416.25 263.017 417.222 262.982 418.285L262.911 420.41C262.911 420.41 262.895 421.081 262.9 421.638C262.881 422.03 262.591 422.393 262.165 422.604C261.693 422.763 261.24 422.531 261.258 422.139C261.324 419.456 261.362 418.672 261.362 418.672C261.435 416.825 262.229 414.961 263.59 413.318C264.749 411.863 266.342 411.032 267.375 410.537C267.802 410.327 268.322 410.497 268.281 411.003C268.351 411.218 268.107 411.633 267.635 411.793Z" fill="#575878"/>
<path opacity="0.3" d="M268.819 432.408C270.324 431.754 271.711 430.554 272.62 428.957C273.197 427.951 273.437 426.979 273.472 425.916L273.534 425.297C273.534 425.297 273.55 424.626 273.545 424.069C273.564 423.677 273.854 423.313 274.28 423.103C274.752 422.943 275.205 423.176 275.186 423.568C275.121 426.25 275.159 425.466 275.159 425.466C275.086 427.313 274.291 429.177 272.931 430.82C271.772 432.276 270.178 433.106 269.146 433.601C268.719 433.812 268.199 433.642 268.239 433.136C268.102 432.983 268.459 432.556 268.819 432.408Z" fill="#575878"/>
<path d="M251.43 463.881L255.184 452.798C255.951 450.491 257.578 448.319 259.683 446.823C261.789 445.327 264.083 444.593 266.159 444.717C270.581 444.992 272.964 449.043 271.34 453.834L267.586 464.917C265.983 469.594 261.033 473.274 256.498 473.009C252.143 472.671 249.873 468.61 251.43 463.881ZM261.814 450.453C260.918 451.101 260.183 452.068 259.831 453.051L256.078 464.134C255.353 466.214 256.406 467.947 258.369 468.082C260.333 468.217 262.46 466.607 263.185 464.527L266.939 453.444C267.663 451.364 266.61 449.632 264.647 449.497C263.655 449.486 262.71 449.805 261.814 450.453Z" fill="url(#paint27_linear_864_837)"/>
<g opacity="0.35">
<path d="M255.481 462.913L259.234 451.83C259.586 450.847 260.321 449.881 261.217 449.232C262.113 448.584 263.17 448.254 264.05 448.276C265.359 448.366 266.246 449.224 266.482 450.314C266.026 449.803 265.415 449.531 264.648 449.497C263.722 449.424 262.711 449.805 261.815 450.454C260.919 451.102 260.184 452.068 259.832 453.052L256.079 464.135C255.837 464.828 255.775 465.447 255.938 466.044C255.255 465.277 255.019 464.186 255.481 462.913Z" fill="#26366F"/>
<path d="M256.081 471.715C260.504 471.991 265.499 468.362 267.169 463.622L270.923 452.539C271.559 450.635 271.565 448.851 271.077 447.34C272.085 449.021 272.377 451.277 271.52 453.76L267.767 464.843C266.164 469.521 261.214 473.2 256.679 472.936C253.994 472.818 252.085 471.229 251.343 469.019C252.327 470.535 253.96 471.54 256.081 471.715Z" fill="#26366F"/>
</g>
<path opacity="0.3" d="M263.926 447.173C262.462 447.322 260.823 448.101 259.573 449.455C258.746 450.319 258.236 451.262 257.817 452.308L257.071 454.502C257.071 454.502 256.829 455.195 256.609 455.775C256.478 456.179 256.075 456.554 255.692 456.537C255.241 456.583 254.922 456.225 255.075 455.708C256.042 452.934 256.305 452.127 256.305 452.127C256.941 450.223 258.256 448.529 259.981 447.295C261.459 446.197 263.079 445.81 264.16 445.645C264.611 445.599 264.93 445.957 264.844 446.411C264.712 446.815 264.377 447.128 263.926 447.173Z" fill="#575878"/>
<path opacity="0.3" d="M258.085 469.003C259.549 468.855 261.188 468.075 262.438 466.722C263.265 465.858 263.775 464.914 264.193 463.868L264.414 463.289C264.414 463.289 264.655 462.595 264.875 462.016C265.007 461.612 265.455 461.288 265.793 461.254C266.243 461.208 266.563 461.566 266.409 462.083C265.443 464.856 265.752 464.1 265.752 464.1C265.115 466.004 263.8 467.699 262.075 468.933C260.597 470.03 258.977 470.418 257.896 470.583C257.446 470.629 257.127 470.271 257.213 469.816C257.232 469.424 257.634 469.049 258.085 469.003Z" fill="#575878"/>
<g opacity="0.45">
<path d="M250.941 467.051C252.281 468.141 254.225 468.669 256.454 468.275L257.715 468.036C256.133 467.639 255.329 466.048 256.011 464.196L256.185 463.565C254.538 463.509 253.445 462.282 253.676 460.475C253.802 459.515 254.267 458.52 255.026 457.718C255.852 456.854 256.84 456.308 257.808 456.154L258.776 456L259.697 453.175C260.027 452.306 260.561 451.527 261.299 450.839L258.26 451.426C257.225 451.642 256.281 451.961 255.248 452.456C255.159 452.632 255.138 452.746 255.049 452.922L251.296 464.005C251.057 464.977 250.909 466.051 250.941 467.051Z" fill="#575878"/>
<path d="M267.72 464.791L268.949 461.21C268.657 461.296 268.41 461.432 268.072 461.466L263.907 462.168L263.139 464.475C262.744 465.686 261.762 466.789 260.662 467.347L267.057 466.252C267.301 465.837 267.5 465.371 267.72 464.791Z" fill="#575878"/>
<path d="M269.426 449.345L265.937 449.978C266.98 450.597 267.376 452.006 266.871 453.506L266.52 454.49L268.861 454.085C269.784 453.88 270.575 454.078 271.143 454.578L271.407 453.771C271.933 452.157 272.009 450.588 271.703 449.281C271.07 449.123 270.282 449.203 269.426 449.345Z" fill="#575878"/>
</g>
<path d="M251.577 326.414C253.168 325.305 253.917 323.39 253.228 322.066L244.456 305.064C243.768 303.741 241.984 303.531 240.393 304.64C239.631 305.164 239.052 305.891 238.789 306.698C238.48 307.454 238.488 308.29 238.809 308.926L247.514 325.99C248.203 327.314 250.054 327.46 251.577 326.414Z" fill="url(#paint28_linear_864_837)"/>
<path opacity="0.45" d="M251.577 326.414C253.168 325.305 253.917 323.39 253.228 322.066L244.456 305.064C243.768 303.741 241.984 303.531 240.393 304.64C239.631 305.164 239.052 305.891 238.789 306.698C238.48 307.454 238.488 308.29 238.809 308.926L247.514 325.99C248.203 327.314 250.054 327.46 251.577 326.414Z" fill="#9A9A9A"/>
<path opacity="0.3" d="M247.839 319.602C248.735 318.954 249.036 317.363 248.347 316.039L245.362 310.211C244.673 308.887 243.383 308.405 242.441 309.002C241.993 309.326 241.661 309.918 241.599 310.537C241.537 311.156 241.612 311.929 241.933 312.565L244.919 318.394C245.541 319.78 246.83 320.262 247.839 319.602Z" fill="#575878"/>
<path opacity="0.35" d="M249.602 322.545C250.431 321.959 251.032 321.118 251.295 320.311L242.891 303.997C243.59 304.093 244.135 304.428 244.456 305.064L251.253 318.197L252.816 321.327L253.228 322.066C253.917 323.389 253.168 325.305 251.577 326.414C249.986 327.523 248.203 327.314 247.514 325.99L245.539 322.122C246.228 323.445 248.078 323.592 249.602 322.545Z" fill="#26366F"/>
<path d="M261.718 354.871C263.333 353.927 264.24 352.051 263.686 350.602L256.931 332.281C256.422 330.883 254.727 330.498 253.045 331.505C252.238 331.977 251.612 332.654 251.237 333.472C250.861 334.291 250.823 335.075 251.078 335.773L257.832 354.095C258.408 355.43 260.103 355.815 261.718 354.871Z" fill="url(#paint29_linear_864_837)"/>
<path opacity="0.3" d="M258.742 347.537C259.729 346.991 260.097 345.337 259.588 343.939L257.297 337.651C256.788 336.253 255.587 335.595 254.599 336.141C254.106 336.414 253.773 337.005 253.599 337.636C253.424 338.267 253.499 339.039 253.753 339.738L256.044 346.027C256.599 347.476 257.8 348.134 258.742 347.537Z" fill="#575878"/>
<path opacity="0.35" d="M260.237 350.73C261.111 350.195 261.758 349.405 262.067 348.649L255.612 331.078C256.245 331.236 256.768 331.685 256.977 332.333L262.204 346.462L263.453 349.791L263.799 350.592C264.308 351.989 263.446 353.916 261.831 354.86C260.216 355.805 258.454 355.482 257.945 354.084L256.418 349.892C256.927 351.289 258.622 351.674 260.237 350.73Z" fill="#26366F"/>
<path d="M267.814 387.194C269.498 386.466 270.676 384.618 270.347 383.147L266.712 363.227C266.45 361.693 264.865 361.018 263.226 361.797C262.373 362.218 261.657 362.792 261.235 363.56C260.768 364.276 260.551 365.134 260.738 365.895L264.373 385.816C264.59 387.299 266.129 387.923 267.814 387.194Z" fill="url(#paint30_linear_864_837)"/>
<path opacity="0.8" d="M266.183 379.166C267.216 378.671 267.788 377.108 267.525 375.574L266.495 369.046C266.233 367.512 264.366 368.036 264.366 368.036C263.58 368.394 262.531 369.56 262.606 370.333L263.797 377.179C264.105 378.764 265.105 379.61 266.183 379.166Z" fill="#575878"/>
<path opacity="0.35" d="M267.005 382.705C267.903 382.335 268.596 381.596 269.084 380.766L265.637 361.607C266.248 361.88 266.658 362.34 266.733 363.113L269.514 378.493L270.156 382.107L270.322 382.982C270.585 384.516 269.474 386.301 267.789 387.029C266.105 387.757 264.565 387.133 264.303 385.599L263.495 381.111C263.735 382.758 265.32 383.434 267.005 382.705Z" fill="#26366F"/>
<path opacity="0.8" d="M266.153 368.523C266.791 369.238 266.554 370.488 265.682 371.302C264.811 372.115 263.571 372.24 262.933 371.525C262.295 370.809 262.532 369.559 263.404 368.746C264.276 367.933 265.515 367.807 266.153 368.523Z" fill="#575878"/>
<path d="M269.492 420.077C271.201 419.513 272.47 417.768 272.388 416.16L271.135 395.329C271.052 393.721 269.602 392.921 267.893 393.485C267.062 393.792 266.3 394.315 265.766 395.094C265.253 395.759 264.923 396.629 264.998 397.401L266.251 418.232C266.4 419.778 267.784 420.641 269.492 420.077Z" fill="url(#paint31_linear_864_837)"/>
<path opacity="0.3" d="M268.76 411.679C269.817 411.349 270.502 409.774 270.419 408.166L269.947 401.024C269.864 399.416 268.953 398.394 267.942 398.775C267.47 398.934 266.933 399.435 266.646 400.077C266.359 400.719 266.208 401.515 266.216 402.35L266.688 409.493C266.792 410.987 267.703 412.009 268.76 411.679Z" fill="#575878"/>
<path opacity="0.35" d="M269.223 415.366C270.167 415.047 270.884 414.473 271.418 413.694L270.218 393.75C270.762 394.085 271.151 394.658 271.113 395.443L272.097 411.563L272.313 415.387L272.366 416.273C272.449 417.881 271.179 419.627 269.471 420.19C267.762 420.754 266.311 419.953 266.229 418.345L265.96 413.635C266.085 415.016 267.515 415.93 269.223 415.366Z" fill="#26366F"/>
<path d="M263.051 455.289C264.741 455.118 266.351 453.617 266.673 451.912L271.002 429.901C271.325 428.197 270.231 426.97 268.541 427.141C267.753 427.221 266.9 427.642 266.229 428.268C265.558 428.893 265.137 429.661 264.919 430.519L260.59 452.529C260.268 454.234 261.362 455.461 263.051 455.289Z" fill="url(#paint32_linear_864_837)"/>
<path opacity="0.3" d="M264.525 446.334C265.539 446.231 266.585 444.787 266.954 443.133L268.439 435.569C268.762 433.864 268.231 432.58 267.218 432.683C266.721 432.678 266.139 433.127 265.761 433.667C265.315 434.27 265.007 435.026 264.789 435.884L263.303 443.448C262.981 445.153 263.511 446.437 264.525 446.334Z" fill="#575878"/>
<path opacity="0.35" d="M263.997 450.288C264.898 450.197 265.751 449.776 266.376 449.099L270.488 427.947C270.898 428.407 271.04 429.117 270.889 429.913L267.552 446.973L266.733 451.014L266.493 451.986C266.171 453.691 264.561 455.192 262.871 455.363C261.182 455.535 260.088 454.308 260.41 452.603L261.356 447.602C261.281 449.171 262.307 450.46 263.997 450.288Z" fill="#26366F"/>
<path d="M245.992 490.297C247.461 490.705 249.369 489.675 250.233 488.027L261.422 466.546C262.286 464.898 261.775 463.222 260.305 462.814C259.559 462.667 258.771 462.747 257.963 463.219C257.223 463.628 256.485 464.316 256.109 465.135L244.92 486.615C244.01 488.213 244.522 489.889 245.992 490.297Z" fill="url(#paint33_linear_864_837)"/>
<path opacity="0.3" d="M250.375 481.435C251.211 481.684 252.644 480.535 253.508 478.887L257.341 471.475C258.205 469.826 258.168 468.269 257.264 468.083C256.79 467.963 256.25 468.185 255.668 468.635C255.086 469.084 254.507 469.812 254.131 470.63L250.298 478.042C249.434 479.691 249.425 481.196 250.375 481.435Z" fill="#575878"/>
<path opacity="0.35" d="M248.517 485.413C249.308 485.612 250.163 485.469 250.971 484.997L261.672 464.346C261.835 464.943 261.73 465.79 261.309 466.557L252.645 483.155L250.629 487.094L250.119 488.037C249.255 489.686 247.348 490.716 245.878 490.307C244.409 489.899 243.897 488.223 244.761 486.575L247.287 481.692C246.535 483.329 247.047 485.005 248.517 485.413Z" fill="#26366F"/>
<path d="M245.424 276.974L168.924 313.474L169.424 309.974L136.924 312.474L103.924 304.474L94.4238 286.474L92.4238 268.974L77.9238 247.474L82.9238 307.474L110.424 315.474L106.424 319.474L144.424 330.474L190.924 318.474L174.424 330.474L208.424 315.474L257.924 290.474L277.924 243.474L261.424 177.974L233.924 150.974L185.924 143.974L233.924 159.474L245.424 181.474L247.924 175.974L261.424 222.974L254.424 254.974L253.424 228.974L245.424 276.974Z" fill="url(#paint34_linear_864_837)"/>
<path d="M233.778 495.28L236.456 486.048L240.786 484.614L248.816 488.575L247.556 502.232L238.659 501.723L233.778 495.28Z" fill="url(#paint35_linear_864_837)"/>
<path d="M164.148 485.091L164.5 474.729L168.707 473.286L176.528 477.334L174.944 485.485L166.691 490.656L164.148 485.091Z" fill="url(#paint36_linear_864_837)"/>
<path d="M125.491 259.373C125.369 260.46 125.974 266.336 127.293 267.423C128.513 267.138 128.961 267.541 129.587 267.408C130.127 267.293 130.68 267.205 131.212 267.063C132.66 266.674 134.021 265.836 135.448 265.363C136.389 265.051 137.149 263.524 137.92 262.883C138.506 262.395 138.71 261.647 139.262 261.154C139.734 260.733 141.554 257.508 141.8 256.932C143.266 253.5 144.291 252.357 144.838 248.62C145.325 245.289 147.305 242.063 146.745 238.576C146.605 237.709 146.769 236.812 146.581 235.924L146.052 233.438C145.721 231.879 145.463 230.281 145.054 228.742C144.668 227.287 143.937 225.91 143.214 224.58C142.369 223.022 141.962 221.114 140.96 219.618C140.327 218.671 139.946 217.182 139.487 216.133C138.892 214.773 138.424 213.25 137.91 211.849C137.068 209.553 136.264 207.14 135.24 204.932C134.375 203.064 133.707 200.866 133.114 198.899C132.453 196.704 129.822 191.502 129.091 189.393C129.305 190.616 128.874 197.723 128.884 198.954C128.905 201.739 128.792 204.316 128.257 207.082C127.945 208.7 127.966 210.355 127.699 211.976C127.484 213.277 127.347 214.736 127.322 216.054C127.261 219.247 127.131 222.47 127.803 225.634C129.419 233.236 130.801 241.829 128.294 249.36C127.708 251.121 127.226 253.011 126.719 254.803C126.286 256.335 125.671 257.782 125.491 259.373Z" fill="#C34FBC"/>
<path d="M155.295 277.732C155.323 277.735 155.35 277.737 155.377 277.74C155.365 277.758 155.337 277.755 155.295 277.732C153.979 277.606 151.828 276.882 150.761 276.189C150.207 275.829 149.367 275.585 148.705 275.449C147.288 275.157 145.924 274.986 144.515 274.541C142.343 273.854 140.199 273.272 138.128 272.289C136.903 271.707 135.755 271.055 134.451 270.661C133.371 270.335 132.283 270.302 131.224 269.848C129.769 269.223 128.006 268.843 127.294 267.424C128.513 267.138 128.824 267.373 129.45 267.24C129.989 267.125 130.592 267.225 131.125 267.082C132.573 266.694 133.933 265.855 135.361 265.382C136.301 265.07 137.062 263.543 137.832 262.902C138.419 262.414 138.623 261.666 139.175 261.173C139.647 260.752 141.467 257.527 141.713 256.951C142.449 258.091 143.93 260.085 144.481 261.322C145.442 263.479 146.911 265.36 148.014 267.445C149.256 269.792 150.407 272.236 152.123 274.289C152.392 274.611 154.8 277.471 155.295 277.732Z" fill="#832FA0"/>
<path d="M163.73 272.232C164.448 271.368 165.561 270.456 165.981 269.4C165.625 268.33 165 266.507 164.881 265.947C164.668 264.946 163.947 264.123 163.688 263.158C163.541 262.61 163.142 262.022 162.844 261.538C162.538 261.041 162.526 260.432 162.243 259.911C161.795 259.086 161.498 257.902 161.19 256.993C160.54 255.075 160.292 253.023 159.528 251.161C158.927 249.694 158.891 248.11 158.581 246.654C158.173 244.731 158.367 242.825 157.967 240.943C157.544 238.952 157.317 236.944 156.889 234.932C156.383 232.55 156.08 230.186 155.576 227.815C155.32 226.609 154.591 225.485 154.217 224.295C154.005 223.618 153.067 222.348 152.956 221.635C152.014 222.339 150.196 224.155 149.278 224.934C148.519 225.578 147.953 226.443 147.264 227.161C147.074 227.359 144.382 228.769 144.792 228.797C145.201 230.337 145.459 231.935 145.79 233.493L146.319 235.979C146.507 236.868 146.343 237.765 146.483 238.632C147.043 242.119 145.063 245.345 144.576 248.676C144.029 252.412 143.004 253.556 141.538 256.987C142.275 258.128 143.755 260.122 144.306 261.358C145.267 263.515 146.737 265.397 147.84 267.481C149.082 269.829 150.232 272.272 151.948 274.325C152.24 274.674 155.05 278.012 155.203 277.776C156.267 277.86 159.1 278.176 159.817 276.862C160.142 276.266 160.942 275.58 161.407 275.047C162.211 274.127 162.944 273.178 163.73 272.232Z" fill="#9440A2"/>
<path d="M157.018 223.655C156.715 222.226 156.687 221.116 156.352 219.541C155.811 218.284 153.03 221.107 152.634 221.403C152.745 222.116 153.683 223.386 153.896 224.063C154.269 225.253 154.998 226.376 155.254 227.583C155.758 229.953 156.061 232.317 156.567 234.699C156.995 236.711 157.222 238.72 157.645 240.711C158.045 242.592 157.851 244.498 158.259 246.421C158.569 247.878 158.605 249.462 159.206 250.928C159.97 252.791 160.218 254.843 160.868 256.76C161.176 257.67 161.473 258.853 161.921 259.679C162.204 260.2 162.216 260.809 162.522 261.306C162.821 261.789 163.219 262.378 163.366 262.925C163.625 263.89 164.346 264.714 164.559 265.715C164.678 266.275 165.547 268.573 165.904 269.642C166.761 267.489 167.189 264.81 167.995 262.652C168.397 261.576 168.464 260.337 168.823 259.234C169.146 258.24 169.482 257.069 169.653 256.037C169.949 254.262 170.516 252.365 170.137 250.582C169.664 248.354 168.408 246.401 167.459 244.355C166.558 242.412 165.711 240.446 164.739 238.559C163.939 237.006 163.469 235.299 162.606 233.749C161.57 231.888 160.533 230.051 159.434 228.227C158.52 226.712 157.399 225.445 157.018 223.655Z" fill="#8A3B96"/>
<path d="M135.178 193.863C134.187 193.309 129.971 190.162 129.09 189.393C129.822 191.502 132.19 196.76 132.851 198.955C133.444 200.922 134.112 203.12 134.977 204.988C136.001 207.196 136.805 209.609 137.647 211.905C138.161 213.306 138.629 214.829 139.224 216.189C139.683 217.238 140.064 218.727 140.697 219.674C141.699 221.17 142.106 223.078 142.951 224.636C143.674 225.966 144.405 227.343 144.791 228.797C146.307 229.085 147.073 227.359 147.264 227.161C147.952 226.443 148.518 225.578 149.278 224.934C150.196 224.156 152.014 222.339 152.955 221.635C153.351 221.34 156.138 220.341 156.407 219.804C155.827 218.735 155.728 217.048 154.871 216.139C154.01 215.226 153.175 214.362 152.398 213.389C151.048 211.695 149.658 210.077 148.512 208.218C147.455 206.503 146.009 205.403 144.705 203.942C143.352 202.426 141.97 200.893 140.534 199.42C139.323 198.178 138.343 196.687 137.018 195.57C136.344 195.003 135.968 194.304 135.178 193.863Z" fill="#C667BC"/>
<path d="M168.64 244.53C170.311 246.35 175.852 251.916 177.581 253.676L177.539 252.463L174.302 247.577C174.302 247.577 173.612 245.099 173.198 243.496C172.642 241.347 172.427 239.104 171.936 236.931C171.397 234.547 172.065 232.199 172.234 229.827C172.369 227.936 172.522 226.016 172.713 224.139C172.859 222.707 172.687 221.079 173.077 219.702C173.448 218.394 173.293 212.708 173.55 211.331C172.809 212.54 170.594 217.321 169.586 218.323C166.952 220.939 164.482 221.32 162.419 224.355C161.657 225.476 160.194 225.934 159.896 227.223C160.888 231.429 161.646 236.194 164.592 239.621C165.338 240.489 165.817 241.514 166.597 242.363C167.269 243.095 167.969 243.8 168.64 244.53Z" fill="#5A2373"/>
<path d="M184.955 245.869C185.877 242.503 186.035 238.973 186.876 235.57C187.203 235.631 186.295 228.51 186.051 227.661C185.889 227.096 185.901 226.467 185.499 225.88C184.347 224.199 183.341 222.379 182.262 220.648C181.693 219.736 181.119 218.822 180.573 217.906C179.996 216.94 179.014 216.229 178.398 215.28C177.771 214.314 176.64 213.149 175.672 212.542C174.658 211.905 174.006 211.578 172.974 210.924C172.717 212.301 173.112 218.166 172.741 219.475C172.351 220.852 172.523 222.48 172.377 223.912C172.187 225.789 172.033 227.708 171.899 229.6C171.73 231.972 171.062 234.32 171.6 236.703C172.091 238.877 172.307 241.12 172.862 243.269C173.276 244.872 174.197 248.279 174.197 248.279L174.203 248.289C174.89 249.409 177.221 252.42 177.581 253.675C178.588 254.559 180.344 255.516 180.83 256.823C180.992 257.259 182.767 259.773 182.962 259.46C183.394 258.77 183.039 257.755 183.163 257.011C183.304 256.162 183.401 255.311 183.56 254.46C184.095 251.589 184.18 248.696 184.955 245.869Z" fill="#772D81"/>
<path d="M156.817 214.72C157.736 218.932 158.911 223.047 159.896 227.222C160.195 225.933 161.758 225.755 162.52 224.633C164.583 221.598 166.732 221.503 169.366 218.886C170.374 217.885 171.371 216.374 172.112 215.165C172.905 213.871 173.134 212.74 173.389 211.279C173.658 209.74 173.43 208.161 173.32 206.628C173.187 204.779 172.188 202.976 172.005 201.138C171.796 199.04 170.989 197.074 170.649 194.994C170.349 193.156 170.161 191.206 169.65 189.425C168.665 185.99 168.247 182.408 167.251 178.932C165.244 171.932 161.615 163.571 159.617 156.602C159.234 160.418 159.171 164.392 158.417 168.206C157.578 172.452 157.83 176.747 157.14 180.983C156.617 184.188 157.238 187.774 157.241 191.018C157.244 194.112 156.921 197.188 156.827 200.276C156.75 202.807 156.528 205.372 156.647 207.909C156.752 210.154 156.331 212.491 156.817 214.72Z" fill="#903A8B"/>
<path d="M159.61 156.604C159.801 156.973 160.907 158.404 161.089 158.662C161.576 159.356 162.064 160.013 162.497 160.741C163.654 162.685 165.959 163.982 167.046 165.98C169.548 170.583 171.8 175.25 174.093 179.935C176.228 184.296 177.682 189.029 179.782 193.4C180.937 195.803 181.479 198.451 182.638 200.84C183.76 203.155 183.736 205.991 184.867 208.302C185.908 210.428 186.525 212.824 187.18 215.108C187.419 215.94 187.846 216.723 188.091 217.577C188.396 218.638 188.386 219.654 188.437 220.75C188.671 225.767 188.099 230.418 186.914 235.334C186.905 235.588 186.875 235.735 186.818 235.724C186.85 235.594 186.882 235.464 186.914 235.334C186.957 234.119 186.529 230.445 186.328 229.743C186.165 229.178 186.059 226.897 185.657 226.31C184.504 224.629 183.498 222.809 182.419 221.078C181.85 220.166 181.277 219.252 180.73 218.336C180.154 217.37 179.171 216.659 178.556 215.71C177.929 214.744 176.798 213.579 175.83 212.971C174.816 212.335 174.415 211.936 173.382 211.281C173.651 209.743 173.422 208.163 173.312 206.631C173.179 204.781 172.181 202.978 171.998 201.141C171.788 199.042 170.982 197.077 170.642 194.997C170.341 193.158 170.154 191.209 169.643 189.428C168.658 185.993 168.24 182.41 167.243 178.935C165.236 171.935 161.608 163.573 159.61 156.604Z" fill="#A5569D"/>
<path d="M176.014 267.872C174.982 268.881 172.172 270.859 170.949 271.634C170.555 271.831 169.034 265.946 168.623 265.288C168.236 264.669 168.306 263.721 168.117 263.035C167.922 262.328 167.621 261.472 167.6 260.74C167.578 259.983 167.608 258.73 167.373 258.052C167.148 257.406 167.44 256.609 167.186 256.006C166.697 254.843 167.042 253.065 167.042 251.809C167.042 249.702 167.653 248.122 168.065 246.145C169.798 243.979 181.576 232.303 183.445 230.214C184.721 230.214 185.972 229.953 187.212 229.953C188.627 229.953 190.429 229.618 191.677 228.905C192.095 229.208 192.685 230.019 193.102 230.55C193.778 231.41 193.948 231.356 194.586 232.251C196.818 235.375 202.163 237.296 201.828 241.994C200.344 244.153 198.127 246.131 196.293 247.964C194.508 249.75 192.654 251.417 190.857 253.215C187.887 256.185 185.065 259.192 182.112 262.146C181.002 263.256 179.687 264.171 178.701 265.412C177.908 266.41 176.913 266.992 176.014 267.872Z" fill="#7838AA"/>
<path d="M174.861 220.523C176.194 218.301 178.469 215.481 180.348 214.138C180.483 214.474 182.02 217.781 182.362 218.166L183.369 230.583C181.5 232.672 169.664 244.527 167.931 246.693C168.26 245.113 168.473 243.678 168.846 242.095C169.061 241.179 169.325 240.277 169.507 239.345C169.738 238.168 169.692 236.806 170.065 235.686C170.44 234.564 170.241 233.046 170.386 231.862C170.524 230.726 170.538 229.523 170.944 228.441C171.978 225.683 173.342 223.055 174.861 220.523Z" fill="#C34FBC"/>
<path d="M186.787 230.464C185.547 230.464 184.645 230.584 183.369 230.584L182.362 218.189C183.279 218.308 184.392 218.029 184.685 217.949C185.532 217.721 186.474 217.425 187.362 217.509C187.905 217.561 190.417 217.495 191.455 217.955C191.424 218.837 191.135 219.503 191.135 220.253C191.135 223.409 191.252 226.271 191.252 229.417C190.004 230.13 188.202 230.464 186.787 230.464Z" fill="#9440A2"/>
<path d="M203.519 240.065C202.785 240.834 202.432 241.115 201.828 241.994C199.109 239.275 196.395 235.766 194.163 232.641C193.524 231.747 193.354 231.801 192.678 230.941C192.261 230.41 191.505 229.879 191.088 229.576C191.088 226.431 191.137 223.288 191.137 220.132C191.137 219.383 190.903 218.388 191.457 217.834C192.366 216.925 193.202 215.759 193.871 214.663C194.776 213.182 195.759 211.901 196.504 210.329C197.234 208.787 197.903 207.456 198.875 206.052C199.939 204.515 201.968 201.228 201.968 199.371C202.727 202.595 204.405 206.188 206.62 208.663C207.272 209.393 207.296 211.03 207.457 211.93C207.682 213.193 207.922 214.479 207.922 215.764C207.922 217.497 207.954 219.252 207.726 220.964C207.232 224.663 207.123 228.478 206.289 232.127C205.813 234.208 206.037 236.27 205.121 238.256C204.829 238.888 204.007 239.554 203.519 240.065Z" fill="#8A3B96"/>
<path d="M200.476 194.383C200.852 196.188 201.639 197.908 202.058 199.685C202.058 201.542 200.029 204.829 198.964 206.366C197.993 207.77 197.324 209.101 196.594 210.643C195.849 212.215 194.866 213.496 193.961 214.977C193.291 216.073 192.455 217.239 191.546 218.148C191.546 218.668 187.996 217.754 187.453 217.703C186.565 217.618 185.623 217.914 184.776 218.143C184.483 218.222 183.37 218.501 182.453 218.382C182.111 217.998 180.295 214.166 180.35 214.138C182.526 212.255 184.265 209.806 186.533 208.006C188.232 206.657 189.529 204.612 190.719 202.827C191.942 200.993 193.332 199.288 194.533 197.432C195.634 195.73 196.502 193.855 197.406 192.047C197.576 191.708 198.446 189.411 198.853 190.103C199.534 191.261 200.204 193.078 200.476 194.383Z" fill="#C667BC"/>
<path d="M121.924 271.474C148.197 288.536 185.832 282.299 203.54 255.032C212.401 241.387 217.737 225.54 217.564 210.974C215.781 192.278 212.279 186.178 203.924 178.974C206.662 190.481 206.367 230.182 198.604 240.925C160.309 287.69 95.6504 254.412 121.924 271.474Z" fill="#4E3B21"/>
<path d="M194 376.262L153 380.762L122 375.262L129 380.762L158 387.762L194 376.262Z" fill="url(#paint37_linear_864_837)"/>
<path d="M299.663 342.327L310.849 302.627L327.562 275.945L319.84 280.375L302.486 304.641L299.663 342.327Z" fill="url(#paint38_linear_864_837)"/>
</g>
<defs>
<radialGradient id="paint0_radial_864_837" cx="0" cy="0" r="1" gradientUnits="userSpaceOnUse" gradientTransform="translate(183.487 487.747) rotate(67.0387) scale(78.4424 147.721)">
<stop stop-color="#A08464"/>
<stop offset="1" stop-color="#645143"/>
</radialGradient>
<linearGradient id="paint1_linear_864_837" x1="176.056" y1="488.894" x2="163.978" y2="470.839" gradientUnits="userSpaceOnUse">
<stop stop-color="#493A48"/>
<stop offset="1" stop-color="#706D75"/>
</linearGradient>
<linearGradient id="paint2_linear_864_837" x1="97.5859" y1="271.332" x2="105.134" y2="242.849" gradientUnits="userSpaceOnUse">
<stop stop-color="#706D75"/>
<stop offset="1" stop-color="#B8B2BF"/>
</linearGradient>
<linearGradient id="paint3_linear_864_837" x1="92.5927" y1="308.252" x2="95.6748" y2="279.023" gradientUnits="userSpaceOnUse">
<stop stop-color="#706D75"/>
<stop offset="1" stop-color="#B8B2BF"/>
</linearGradient>
<linearGradient id="paint4_linear_864_837" x1="83.485" y1="325.104" x2="102.698" y2="334.684" gradientUnits="userSpaceOnUse">
<stop stop-color="#706D75"/>
<stop offset="1" stop-color="#B8B2BF"/>
</linearGradient>
<linearGradient id="paint5_linear_864_837" x1="97.4904" y1="380.118" x2="91.9418" y2="351.72" gradientUnits="userSpaceOnUse">
<stop stop-color="#706D75"/>
<stop offset="1" stop-color="#B8B2BF"/>
</linearGradient>
<linearGradient id="paint6_linear_864_837" x1="108.643" y1="415.319" x2="96.9047" y2="389.489" gradientUnits="userSpaceOnUse">
<stop stop-color="#706D75"/>
<stop offset="1" stop-color="#B8B2BF"/>
</linearGradient>
<linearGradient id="paint7_linear_864_837" x1="127.579" y1="444.967" x2="111.436" y2="422.259" gradientUnits="userSpaceOnUse">
<stop stop-color="#706D75"/>
<stop offset="1" stop-color="#B8B2BF"/>
</linearGradient>
<linearGradient id="paint8_linear_864_837" x1="154.398" y1="468.691" x2="133.37" y2="451.395" gradientUnits="userSpaceOnUse">
<stop stop-color="#706D75"/>
<stop offset="1" stop-color="#B8B2BF"/>
</linearGradient>
<linearGradient id="paint9_linear_864_837" x1="101.519" y1="255.125" x2="109.967" y2="226.895" gradientUnits="userSpaceOnUse">
<stop stop-color="#706D75"/>
<stop offset="1" stop-color="#B8B2BF"/>
</linearGradient>
<linearGradient id="paint10_linear_864_837" x1="94.6946" y1="290.131" x2="100.045" y2="261.178" gradientUnits="userSpaceOnUse">
<stop stop-color="#706D75"/>
<stop offset="1" stop-color="#B8B2BF"/>
</linearGradient>
<linearGradient id="paint11_linear_864_837" x1="92.8779" y1="327.481" x2="92.9051" y2="298.206" gradientUnits="userSpaceOnUse">
<stop stop-color="#706D75"/>
<stop offset="1" stop-color="#B8B2BF"/>
</linearGradient>
<linearGradient id="paint12_linear_864_837" x1="94.9874" y1="363.304" x2="91.6619" y2="334.405" gradientUnits="userSpaceOnUse">
<stop stop-color="#706D75"/>
<stop offset="1" stop-color="#B8B2BF"/>
</linearGradient>
<linearGradient id="paint13_linear_864_837" x1="102.447" y1="398.622" x2="94.6488" y2="370.948" gradientUnits="userSpaceOnUse">
<stop stop-color="#706D75"/>
<stop offset="1" stop-color="#B8B2BF"/>
</linearGradient>
<linearGradient id="paint14_linear_864_837" x1="118.985" y1="430.038" x2="102.969" y2="407.221" gradientUnits="userSpaceOnUse">
<stop stop-color="#706D75"/>
<stop offset="1" stop-color="#B8B2BF"/>
</linearGradient>
<linearGradient id="paint15_linear_864_837" x1="142.531" y1="456.345" x2="121.569" y2="438.956" gradientUnits="userSpaceOnUse">
<stop stop-color="#706D75"/>
<stop offset="1" stop-color="#B8B2BF"/>
</linearGradient>
<linearGradient id="paint16_linear_864_837" x1="169.16" y1="479.842" x2="147.176" y2="463.984" gradientUnits="userSpaceOnUse">
<stop stop-color="#706D75"/>
<stop offset="1" stop-color="#B8B2BF"/>
</linearGradient>
<linearGradient id="paint17_linear_864_837" x1="211.924" y1="340.69" x2="211.924" y2="500.69" gradientUnits="userSpaceOnUse">
<stop offset="0.275" stop-color="#C1B58F"/>
<stop offset="1" stop-color="#A59870"/>
</linearGradient>
<linearGradient id="paint18_linear_864_837" x1="256.503" y1="80.9736" x2="379.144" y2="204.834" gradientUnits="userSpaceOnUse">
<stop stop-color="#A59870"/>
<stop offset="0.264157" stop-color="#C1B58F"/>
<stop offset="1" stop-color="#A59870"/>
</linearGradient>
<linearGradient id="paint19_linear_864_837" x1="207.706" y1="455.053" x2="212.142" y2="518.491" gradientUnits="userSpaceOnUse">
<stop stop-color="#908564"/>
<stop offset="1" stop-color="#9D967F"/>
</linearGradient>
<radialGradient id="paint20_radial_864_837" cx="0" cy="0" r="1" gradientUnits="userSpaceOnUse" gradientTransform="translate(177.576 249.385) rotate(78.8271) scale(169.518 168.946)">
<stop stop-color="#A08464"/>
<stop offset="1" stop-color="#645143"/>
</radialGradient>
<linearGradient id="paint21_linear_864_837" x1="244.55" y1="291.531" x2="236.086" y2="314.316" gradientUnits="userSpaceOnUse">
<stop stop-color="#493A48"/>
<stop offset="1" stop-color="#706D75"/>
</linearGradient>
<linearGradient id="paint22_linear_864_837" x1="242.617" y1="503.534" x2="239.414" y2="481.36" gradientUnits="userSpaceOnUse">
<stop stop-color="#878A9C"/>
<stop offset="1" stop-color="#706D75"/>
</linearGradient>
<linearGradient id="paint23_linear_864_837" x1="257.107" y1="339.225" x2="243.693" y2="318.956" gradientUnits="userSpaceOnUse">
<stop stop-color="#706D75"/>
<stop offset="1" stop-color="#B8B2BF"/>
</linearGradient>
<linearGradient id="paint24_linear_864_837" x1="266.061" y1="369.924" x2="254.39" y2="348.15" gradientUnits="userSpaceOnUse">
<stop stop-color="#706D75"/>
<stop offset="1" stop-color="#B8B2BF"/>
</linearGradient>
<linearGradient id="paint25_linear_864_837" x1="269.707" y1="402.675" x2="260.439" y2="379.035" gradientUnits="userSpaceOnUse">
<stop stop-color="#706D75"/>
<stop offset="1" stop-color="#B8B2BF"/>
</linearGradient>
<linearGradient id="paint26_linear_864_837" x1="268.732" y1="436.159" x2="261.982" y2="410.856" gradientUnits="userSpaceOnUse">
<stop stop-color="#706D75"/>
<stop offset="1" stop-color="#B8B2BF"/>
</linearGradient>
<linearGradient id="paint27_linear_864_837" x1="256.707" y1="472.929" x2="258.336" y2="444.25" gradientUnits="userSpaceOnUse">
<stop stop-color="#706D75"/>
<stop offset="1" stop-color="#B8B2BF"/>
</linearGradient>
<linearGradient id="paint28_linear_864_837" x1="251.593" y1="326.38" x2="237.777" y2="306.473" gradientUnits="userSpaceOnUse">
<stop stop-color="#706D75"/>
<stop offset="1" stop-color="#B8B2BF"/>
</linearGradient>
<linearGradient id="paint29_linear_864_837" x1="261.762" y1="354.851" x2="249.347" y2="333.705" gradientUnits="userSpaceOnUse">
<stop stop-color="#706D75"/>
<stop offset="1" stop-color="#B8B2BF"/>
</linearGradient>
<linearGradient id="paint30_linear_864_837" x1="267.84" y1="387.179" x2="257.709" y2="364.179" gradientUnits="userSpaceOnUse">
<stop stop-color="#706D75"/>
<stop offset="1" stop-color="#B8B2BF"/>
</linearGradient>
<linearGradient id="paint31_linear_864_837" x1="269.515" y1="420.043" x2="261.302" y2="395.67" gradientUnits="userSpaceOnUse">
<stop stop-color="#706D75"/>
<stop offset="1" stop-color="#B8B2BF"/>
</linearGradient>
<linearGradient id="paint32_linear_864_837" x1="263.036" y1="455.276" x2="260.445" y2="427.896" gradientUnits="userSpaceOnUse">
<stop stop-color="#706D75"/>
<stop offset="1" stop-color="#B8B2BF"/>
</linearGradient>
<linearGradient id="paint33_linear_864_837" x1="246" y1="490.25" x2="253.96" y2="461.056" gradientUnits="userSpaceOnUse">
<stop stop-color="#706D75"/>
<stop offset="1" stop-color="#B8B2BF"/>
</linearGradient>
<linearGradient id="paint34_linear_864_837" x1="106.424" y1="132.474" x2="254.424" y2="330.974" gradientUnits="userSpaceOnUse">
<stop stop-color="#79634C"/>
<stop offset="1" stop-color="#77604B"/>
</linearGradient>
<linearGradient id="paint35_linear_864_837" x1="240.786" y1="484.614" x2="242.045" y2="502.617" gradientUnits="userSpaceOnUse">
<stop stop-color="#A35CAB"/>
<stop offset="1" stop-color="#77457D"/>
</linearGradient>
<linearGradient id="paint36_linear_864_837" x1="169.778" y1="473.211" x2="170.977" y2="490.357" gradientUnits="userSpaceOnUse">
<stop stop-color="#A35CAB"/>
<stop offset="1" stop-color="#77457D"/>
</linearGradient>
<linearGradient id="paint37_linear_864_837" x1="156.5" y1="376.262" x2="159" y2="401.262" gradientUnits="userSpaceOnUse">
<stop stop-color="#665343"/>
<stop offset="1" stop-color="#624F40"/>
</linearGradient>
<linearGradient id="paint38_linear_864_837" x1="313.71" y1="307.558" x2="292.5" y2="300.762" gradientUnits="userSpaceOnUse">
<stop stop-color="#5C4A3D"/>
<stop offset="1" stop-color="#5C4A3C"/>
</linearGradient>
<clipPath id="clip0_864_837">
<rect width="520" height="560" fill="white"/>
</clipPath>
</defs>
</svg>
