<svg width="547" height="884" viewBox="0 0 547 884" fill="none" xmlns="http://www.w3.org/2000/svg">
<g filter="url(#filter0_d_852_121)">
<ellipse cx="293" cy="692" rx="176" ry="75" stroke="#7FD71B" stroke-opacity="0.01" stroke-width="82.5686"/>
</g>
<ellipse cx="301.453" cy="688.554" rx="172.5" ry="71.4459" fill="#E9DDB9" fill-opacity="0.05"/>
<path d="M188.397 564.315L182.863 273.091C181.618 253.342 183.429 242.138 243.74 219.16C319.247 198.781 341.153 216.506 362.726 273.091C362.726 273.091 374.102 257.428 379.636 279C385.17 300.572 371.028 585.887 371.028 585.887C365.968 627.786 348.664 664.986 307.157 664.986C265.65 664.986 192.2 668.529 188.397 564.315Z" fill="url(#paint0_linear_852_121)"/>
<path d="M272.435 311.675L239.136 320L243.449 534.343L271.198 589.842L282.298 664.765L298.947 634.241L268.423 523.243L272.435 311.675Z" fill="#837A61"/>
<path d="M376.643 286.5H363.324L359.994 625.168L369.984 542.438L363.324 536.074L376.643 286.5Z" fill="#A09881"/>
<path d="M196.274 297.771L182.627 258.922C181.379 243.68 183.194 235.033 243.676 217.298C319.396 201.569 341.364 215.25 362.998 258.922C362.998 258.922 374.098 258.922 379.647 275.572C385.197 292.221 362.998 286.672 362.998 286.672C357.924 319.009 340.571 306.096 298.947 306.096C257.323 306.096 243.676 336.62 196.274 297.771Z" fill="url(#paint1_linear_852_121)"/>
<path d="M336.57 273.82L343.636 236.133C339.405 229.326 336.085 226.455 329.503 222L322.437 254.977L294.171 280.887L239.995 318.574C245.666 318.805 252.55 317.398 272.972 311.508L336.57 273.82Z" fill="#928A74"/>
<path d="M246.222 453.87L271.196 448.32L276.746 462.195L273.971 501.044L243.447 506.594L210.148 498.269V523.243L171.298 514.919L154.649 489.944V409.471L182.398 378.947V401.146L171.298 415.021L185.173 431.671L203.727 438.726L210.148 434.446L226.797 442.77L229.572 462.195L246.222 467.745V453.87Z" fill="url(#paint2_linear_852_121)"/>
<path d="M276.746 462.195L271.196 448.321L246.222 453.87V464.97L229.572 462.195L226.797 442.771L210.147 434.446L201.823 439.996L218.472 445.546L224.022 464.97L251.771 470.52V462.195H276.746Z" fill="#837B63"/>
<path d="M182.398 401.146V378.947L154.649 409.471L171.298 428.896L176.848 434.446L201.823 445.545V439.995H207.373L185.173 431.671V423.346L171.298 415.021L182.398 401.146Z" fill="#837B63"/>
<path d="M210.15 498.269V523.243L218.474 514.919V501.044L210.15 498.269Z" fill="#837B63"/>
<path d="M182.398 401.147L171.298 415.021L182.398 423.346V401.147Z" fill="#8D866F"/>
<path d="M396.069 340H379.419L382.194 364.974L343.345 387.174L346.12 442.673L362.769 448.222L371.094 398.274L407.168 367.749L396.069 340Z" fill="#837B63"/>
<path d="M371.094 478.747L382.194 484.297L376.644 448.222L390.519 428.798L373.869 439.898L368.319 448.222L371.094 478.747Z" fill="#837B63"/>
<path d="M407.168 367.749L371.093 398.273L362.769 448.222L390.518 428.798L376.643 448.222L382.193 484.296L396.068 445.447L407.168 367.749Z" fill="#948A6C"/>
<path d="M138 652.917L162.974 575.219L176.849 564.119L204.598 577.994L215.698 616.843L310.046 633.492L321.146 597.418L346.12 594.643L357.22 605.743L371.095 586.319L373.87 564.119L404.394 575.219L407.169 627.943L393.294 669.567L404.394 683.441L373.87 719.515H315.596L310.046 702.866L196.274 669.567L182.399 677.891L138 652.917Z" fill="url(#paint3_linear_852_121)"/>
<path d="M239.911 671.74C242.196 679.883 241.962 686.861 239.903 695.659C234.073 690.389 230.14 683.39 227.38 677.709C224.619 672.028 222.085 659.127 228.266 655.692C234.445 652.258 237.623 663.585 239.908 671.728L239.911 671.74Z" fill="#A0B479"/>
<path d="M254.151 680.603C250.793 688.09 246.264 692.76 239.224 697.242C238.119 688.932 239.523 680.93 240.986 674.778C242.449 668.626 248.588 657.63 255.388 660.162C262.185 662.693 257.514 673.107 254.156 680.593L254.151 680.603Z" fill="#A0B479"/>
<path d="M229.332 679.891C235.4 684.805 238.233 689.968 239.901 697.246C231.278 695.957 223.939 692.588 218.446 689.668C212.954 686.747 204.514 678.489 209.666 673.311C214.816 668.135 223.256 674.971 229.323 679.884L229.332 679.891Z" fill="#A0B479"/>
<path d="M262.288 690.819C255.058 695.208 248.274 696.858 239.246 697.239C242.755 690.208 248.44 684.539 253.17 680.352C257.9 676.166 269.645 670.259 274.616 675.289C279.583 680.318 269.527 686.423 262.298 690.813L262.288 690.819Z" fill="#A0B479"/>
<path d="M199.05 583.544L162.976 575.219L176.851 564.119L204.6 577.994L215.7 616.843L310.048 633.492L321.148 597.418L346.122 594.643L348.897 597.418L326.697 605.743L310.048 644.592L212.925 619.618L199.05 583.544Z" fill="#837B63"/>
<path d="M387.744 569.669L373.869 564.119L371.094 586.319L357.22 605.743L382.194 583.544L387.744 569.669Z" fill="#837B63"/>
<path d="M329.469 666.792L337.794 644.592L348.894 641.817L368.318 652.917L362.768 686.216L340.569 683.441L329.469 666.792Z" fill="url(#paint4_linear_852_121)"/>
<path d="M160.198 630.717L162.972 605.743L174.072 602.968L193.497 614.068L187.947 633.492L165.747 644.592L160.198 630.717Z" fill="url(#paint5_linear_852_121)"/>
<path d="M166.773 482.945L162.973 466.996L176.983 453.648L192.126 457.82L194.65 482.145L179.623 491.971L166.773 482.945Z" fill="url(#paint6_linear_852_121)"/>
<path d="M393.009 415.55L389.209 399.602L403.218 386.253L409.944 389.949L404.394 414.924L398.844 420.474L393.009 415.55Z" fill="url(#paint7_linear_852_121)"/>
<path opacity="0.55" d="M281.669 137.773C271.527 158.35 255.761 172.232 211.423 197.377C235.732 222.15 249.213 237.165 271.026 267.623C294.191 240.811 310.433 230.185 341.272 208.02C313.624 184.749 301.271 168.29 281.669 137.773Z" fill="url(#paint8_linear_852_121)"/>
<path d="M285.146 162.8C266.416 164.872 267.797 191.465 234.926 201.536C255.564 209.407 252.741 228.903 275.224 244.474C282.399 218.511 313.988 230.704 318.68 208.857C297.306 197.821 298.924 180.235 285.146 162.8Z" fill="url(#paint9_linear_852_121)"/>
<g filter="url(#filter1_d_852_121)">
<circle cx="274" cy="211" r="94" stroke="#7FD71B" stroke-opacity="0.01" stroke-width="82.5686"/>
</g>
<defs>
<filter id="filter0_d_852_121" x="0.715698" y="500.716" width="584.569" height="382.569" filterUnits="userSpaceOnUse" color-interpolation-filters="sRGB">
<feFlood flood-opacity="0" result="BackgroundImageFix"/>
<feColorMatrix in="SourceAlpha" type="matrix" values="0 0 0 0 0 0 0 0 0 0 0 0 0 0 0 0 0 0 127 0" result="hardAlpha"/>
<feOffset/>
<feGaussianBlur stdDeviation="37.5"/>
<feColorMatrix type="matrix" values="0 0 0 0 0.662745 0 0 0 0 0.290196 0 0 0 0 0.360784 0 0 0 0.3 0"/>
<feBlend mode="normal" in2="BackgroundImageFix" result="effect1_dropShadow_852_121"/>
<feBlend mode="normal" in="SourceGraphic" in2="effect1_dropShadow_852_121" result="shape"/>
</filter>
<filter id="filter1_d_852_121" x="63.7157" y="0.715714" width="420.569" height="420.569" filterUnits="userSpaceOnUse" color-interpolation-filters="sRGB">
<feFlood flood-opacity="0" result="BackgroundImageFix"/>
<feColorMatrix in="SourceAlpha" type="matrix" values="0 0 0 0 0 0 0 0 0 0 0 0 0 0 0 0 0 0 127 0" result="hardAlpha"/>
<feOffset/>
<feGaussianBlur stdDeviation="37.5"/>
<feColorMatrix type="matrix" values="0 0 0 0 0.662745 0 0 0 0 0.290196 0 0 0 0 0.360784 0 0 0 0.3 0"/>
<feBlend mode="normal" in2="BackgroundImageFix" result="effect1_dropShadow_852_121"/>
<feBlend mode="normal" in="SourceGraphic" in2="effect1_dropShadow_852_121" result="shape"/>
</filter>
<linearGradient id="paint0_linear_852_121" x1="287.787" y1="366.57" x2="277.408" y2="664.853" gradientUnits="userSpaceOnUse">
<stop offset="0.307345" stop-color="#948A6C"/>
<stop offset="0.745124" stop-color="#948A6C"/>
</linearGradient>
<linearGradient id="paint1_linear_852_121" x1="292.699" y1="231.173" x2="240.673" y2="303.321" gradientUnits="userSpaceOnUse">
<stop stop-color="#948A6C"/>
<stop offset="1" stop-color="#AAA082"/>
</linearGradient>
<linearGradient id="paint2_linear_852_121" x1="224.022" y1="462.195" x2="215.697" y2="523.243" gradientUnits="userSpaceOnUse">
<stop stop-color="#948B6D"/>
<stop offset="1" stop-color="#A69D80"/>
</linearGradient>
<linearGradient id="paint3_linear_852_121" x1="272.584" y1="564.119" x2="272.584" y2="719.515" gradientUnits="userSpaceOnUse">
<stop stop-color="#908564"/>
<stop offset="1" stop-color="#9D967F"/>
</linearGradient>
<linearGradient id="paint4_linear_852_121" x1="348.894" y1="641.817" x2="348.894" y2="686.216" gradientUnits="userSpaceOnUse">
<stop stop-color="#BC525F"/>
<stop offset="1" stop-color="#752743"/>
</linearGradient>
<linearGradient id="paint5_linear_852_121" x1="176.847" y1="602.968" x2="176.847" y2="644.592" gradientUnits="userSpaceOnUse">
<stop stop-color="#BC525F"/>
<stop offset="1" stop-color="#752743"/>
</linearGradient>
<linearGradient id="paint6_linear_852_121" x1="176.429" y1="453.719" x2="181.336" y2="491.75" gradientUnits="userSpaceOnUse">
<stop stop-color="#BC525F"/>
<stop offset="1" stop-color="#752743"/>
</linearGradient>
<linearGradient id="paint7_linear_852_121" x1="398.554" y1="386.855" x2="402.826" y2="419.96" gradientUnits="userSpaceOnUse">
<stop stop-color="#BC525F"/>
<stop offset="1" stop-color="#752743"/>
</linearGradient>
<linearGradient id="paint8_linear_852_121" x1="246.546" y1="167.575" x2="306.149" y2="237.821" gradientUnits="userSpaceOnUse">
<stop stop-color="#BC525F"/>
<stop offset="1" stop-color="#752743"/>
</linearGradient>
<linearGradient id="paint9_linear_852_121" x1="259.012" y1="180.961" x2="300.13" y2="229.421" gradientUnits="userSpaceOnUse">
<stop stop-color="#BC525F"/>
<stop offset="1" stop-color="#752743"/>
</linearGradient>
</defs>
</svg>
