<svg width="1185" height="1011" viewBox="0 0 1185 1011" fill="none" xmlns="http://www.w3.org/2000/svg">
<g clip-path="url(#clip0_1037_925)">
<path d="M457.098 892.97C458.846 844.128 484.781 811.583 511.611 802.369C536.223 775.496 457.098 705.627 430.225 724.054C390.338 747.576 367.223 773.193 364.962 802.369C362.701 831.546 373.751 888.072 386.46 921.378C340.328 942.688 331.95 955.929 346.535 970.517C361.12 985.105 401.988 969.791 457.098 939.805V892.97Z" fill="url(#paint0_linear_1037_925)"/>
<path d="M756.643 712.755C700.594 702.005 685.28 809.497 700.594 818.711C715.907 827.924 731.452 894.307 720.556 946.933C785.022 993.542 811.16 977.645 827.28 977.645C843.401 977.645 833.324 951.161 795.033 919.292C818.39 881.115 833.465 818.711 827.28 793.373C821.095 768.036 777.416 723.504 756.643 712.755Z" fill="url(#paint1_linear_1037_925)"/>
<path d="M1112.65 463.902C1138.45 483.268 1154.52 520.076 1135.16 538.842C1115.81 557.609 1106.4 556.881 1086.25 555.209C1058.97 541.97 1058.23 532.376 1066.19 513.893C1002.77 482.567 928.822 476.072 901.01 473.629L900.55 473.588C873.101 471.177 648 463.5 692.499 336.285C714.863 323.366 753.264 316.971 795.5 316.844C819.5 309.5 820 307.5 804.5 316.844C807.816 316.883 808.651 316.991 812 317.106C827.753 305.596 822.5 307.5 825 318.158C827.995 318.327 827.996 317.929 831 318.158C838.5 316 841.5 315 835.5 318.522C866.983 321.226 898.494 327.179 925.389 336.285C937.867 340.509 949.488 345.076 960.5 350.045C974 338 971.5 343 969.5 354.261C971.686 355.323 969.857 354.403 972 355.5C994 332.5 984.3 345.684 983 361.193C1027.64 385.383 1064.09 417.973 1112.65 463.902Z" fill="url(#paint2_linear_1037_925)"/>
<path d="M960.5 349C918.5 324.162 903.728 328.491 876.5 324C831 361 848.499 438 848.5 469C897.499 477.5 921.5 477 922 475.5C922.5 474 936 374 960.5 349Z" fill="url(#paint3_linear_1037_925)"/>
<path d="M867 472C878 473.5 878.259 473.829 889.501 475C885.656 429.593 904.349 380.498 927.501 333C915.526 327.716 902.328 327.5 889.5 326C869.869 386.409 858.077 432.847 867 472Z" fill="#8B877E"/>
<path d="M881.001 474C892.885 475.735 887.001 475 898.076 475.852C912.692 436.773 926.73 383.744 956.001 346.5C946.001 340 942 339 939.502 338C913.562 380.291 896.184 431.192 881.001 474Z" fill="#8B877E"/>
<path d="M265.16 277.823C342.902 260.217 470.998 255 512.998 305.5C535.474 360.659 300.901 430.27 275.648 416.961C210.51 407.748 173.417 415.17 106.723 439.897C112.725 459.105 111.002 468.571 82.4965 478.915C62.2811 478.491 52.8456 478.24 35.54 457.571C18.2344 436.901 38.0258 401.955 65.6872 385.364C139.579 328.748 187.418 295.429 265.16 277.823Z" fill="url(#paint4_linear_1037_925)"/>
<path d="M65.6889 385.364C139.58 328.748 170.259 299.607 248 282.001C293.5 319 300.903 430.271 275.65 416.961C210.512 407.748 173.419 415.17 106.724 439.897C89.4186 419.228 92 399.5 65.6889 385.364Z" fill="url(#paint5_linear_1037_925)"/>
<path d="M247 414C235.985 413.344 235.803 412.996 224.5 413C233.011 368.232 229.626 341.634 211.5 292C223.957 287.98 231.001 285.984 243.5 283C256.792 345.113 259.916 375.976 247 414Z" fill="#8B877E"/>
<path d="M233 413C221 413.5 227 412.5 216 413.5C205.495 373.122 195.77 350.566 170.499 310.5C181.116 302.844 181.5 305 192.975 299.255C214.412 343.997 222.316 368.854 233 413Z" fill="#8B877E"/>
<path d="M182.978 416.755C171.501 419.501 177.501 418.001 166.501 420.501C158.31 388.781 151.101 370.818 127.001 338.001C137.618 330.345 137.524 330.183 148.5 323.501C168.538 359.644 173.688 380.013 182.747 415.841L182.978 416.755Z" fill="#868278"/>
<path d="M131 430.5C119.523 433.245 130.5 432 119.5 434.5C108.684 402.265 101.347 386.955 82.5012 372C93.1183 364.345 92.0251 363.183 103.001 356.5C114.429 372.888 120.968 378.986 131 430.5Z" fill="#868278"/>
<path d="M166 420.5C154.5 423.5 159.81 420.922 149.5 425.5C134.105 394.725 125.582 377.339 100.498 358.5C109.437 348.938 109.52 352.678 118.998 344.001C138.169 361.206 148.067 382.294 165.39 419.201L166 420.5Z" fill="#868278"/>
<path d="M801.428 338.224C693.485 269.395 618.984 248.461 420.601 293.691C310.698 347.218 458.998 460.5 398.999 544C339 627.5 353.848 724.188 416 737C478.153 749.811 496.071 786.095 509.999 802C523.928 817.904 675.187 853.149 699 816.5C722.813 779.85 720.501 781.417 786.5 731.5C852.5 681.582 820.197 574.836 800.5 557.5C780.803 540.163 860.151 375.667 801.428 338.224Z" fill="url(#paint6_linear_1037_925)"/>
<path d="M681 300.5C664.96 313.664 655.499 339.5 655.499 339.5C687.5 306 732.619 327.554 747.197 334.573C761.775 341.592 767.957 331.437 758.449 321.725C737.384 304.419 697.04 287.335 681 300.5Z" fill="#6C5C43"/>
<ellipse cx="776.738" cy="342.619" rx="9.95413" ry="6.22133" transform="rotate(32.7639 776.738 342.619)" fill="#6C5C43"/>
<ellipse cx="795.035" cy="354.269" rx="6.81437" ry="4.25898" transform="rotate(32.7639 795.035 354.269)" fill="#6C5C43"/>
<path d="M402.102 544.328C379.602 560.327 371.6 595.827 371.6 595.827C396.102 521.827 501.577 546.14 517.149 550.531C532.721 554.922 537.053 543.851 526.008 535.93C502.267 522.53 424.601 528.328 402.102 544.328Z" fill="#AFABA4" fill-opacity="0.3"/>
<ellipse cx="547.636" cy="553.345" rx="9.95413" ry="6.22133" transform="rotate(22.801 547.636 553.345)" fill="#7E776C"/>
<ellipse cx="567.674" cy="561.654" rx="6.81437" ry="4.25898" transform="rotate(22.801 567.674 561.654)" fill="#7E776C"/>
<ellipse cx="668.783" cy="528.518" rx="12.5" ry="7" transform="rotate(2.40549 668.783 528.518)" fill="#615546"/>
<ellipse cx="460.012" cy="504.601" rx="12.5" ry="7" transform="rotate(2.40549 460.012 504.601)" fill="#615546"/>
<path d="M781.862 454.736C775.498 444.081 769.479 440.9 752.454 442.318C733.244 447.797 733.952 452.686 734.019 461.215C741.495 500.498 769.572 515.206 781.862 511.427C794.152 507.648 803.936 478.987 781.862 454.736Z" fill="#736B5E"/>
<path d="M414.719 636.251C418.543 628.061 418.02 622.601 410.287 610.611C399.234 598.368 396.586 600.507 391.493 603.383C370.935 621.877 373.453 647.301 380.689 655.043C387.925 662.786 409.084 660.446 414.719 636.251Z" fill="#6A6358"/>
<path d="M1020.25 397.711C1016.98 389.283 1012.68 385.883 998.672 383.171C982.185 382.68 981.897 386.072 980.45 391.739C979.578 419.377 999.677 435.15 1010.27 435.282C1020.87 435.415 1033.82 418.52 1020.25 397.711Z" fill="#6A6358"/>
<path d="M318.853 281.481C311.684 275.976 306.24 275.306 292.861 280.261C278.517 288.404 280.033 291.452 281.739 297.047C295.347 321.119 320.714 324.16 329.838 318.77C338.962 313.38 341.255 292.217 318.853 281.481Z" fill="#81786C"/>
<path d="M769.908 521.275C767.925 518.535 766.051 517.717 760.748 518.082C754.764 519.491 754.985 520.748 755.006 522.941C757.335 533.042 766.08 536.824 769.908 535.853C773.736 534.881 776.783 527.511 769.908 521.275Z" fill="#6E6557"/>
<path d="M439.019 646.898C438.478 641.696 436.597 639.152 429.209 635.547C420.104 632.816 419.429 634.671 417.764 637.626C413.086 652.959 421.885 664.779 427.765 666.432C433.645 668.085 443.418 660.562 439.019 646.898Z" fill="#6A6358"/>
<path d="M991.551 433.978C987.42 430.769 984.283 430.367 976.568 433.207C968.296 437.891 969.169 439.662 970.15 442.909C977.984 456.895 992.606 458.721 997.868 455.619C1003.13 452.517 1004.46 440.256 991.551 433.978Z" fill="#6A6358"/>
<path d="M313.161 327.378C307.965 326.781 305.075 328.067 299.957 334.5C295.321 342.799 296.986 343.859 299.511 346.125C313.469 354.009 326.912 347.975 329.798 342.592C332.684 337.208 327.454 326.039 313.161 327.378Z" fill="#81786C"/>
<path d="M505.429 259.908C499.736 260.961 496.2 262.77 488.537 270.657" stroke="#5D5548" stroke-width="3.07119"/>
<path d="M656.655 284.424C650.89 283.903 646.996 284.693 637.491 290.222" stroke="#5D5548" stroke-width="3.07119"/>
<path d="M643.724 240.56L640.544 181.147L588.89 208.686L587.139 179.172L548.031 203.617L531.434 159.816L482.759 231.661C475.418 221.253 470.118 225.324 462.895 231.661C460.782 233.515 458.504 235.563 455.962 237.5C450.356 241.771 443.465 245.497 434.225 245.397C448.157 267.91 444.999 254.079 454.592 269.324C440.787 282.804 433.566 271.455 424.899 263C421.335 254.588 420.145 254.627 420 258.855C417.656 257.245 415.135 256.121 412.313 255.905C411.719 269.268 407.373 288.172 413.569 306C402.675 302.029 404 302 417.157 314C418.301 316.042 419.62 318.055 421.139 320.028C416.137 324.648 405.402 324.006 394.5 323.52C378.5 316 380.5 317 387.65 323.284C384.204 323.225 380.861 323.301 377.806 323.689C379.042 333.82 387.865 345.014 396.5 356.238C384.754 358.377 383.875 361.104 403 364.897C405.536 368.429 407.854 371.937 409.707 375.388C401.014 381.237 395.562 386.559 392.127 395C380.225 409.458 377.351 414.58 389.448 404C388.68 407.61 388.096 411.7 387.65 416.408C402.131 407.907 413.856 411.376 438.751 426.557L423.422 470.674L477.632 466.69C488.357 472.365 495.327 476.472 492.717 488.837C483.513 502.036 475.757 507.543 489.955 497.324C488.723 500.289 487.125 503.603 485.123 507.326C506.064 503.087 518.345 497.972 527.404 488.426C519.093 504.547 528.888 494.874 533.585 480.523C535.753 477.205 537.776 473.477 539.769 469.264C543.098 471.301 545.834 473.357 548.079 475.47C552.316 487.488 553.31 493.975 553.479 496.558C553.604 498.462 553.281 498.245 553.479 496.558C553.666 494.969 554.315 492.076 556.238 488.423C558.576 496.288 557.858 505.47 557.329 517.202C560.525 513.343 563.49 509.898 566.203 506.618C567.435 522.909 565.108 515.593 573.983 496.388C579.331 488.38 582.961 479.73 584.53 466.56C589.421 467.295 584.231 459.89 597.476 468.263C610.721 476.637 611.927 489.77 611.461 475.567C615.386 479 619.805 483.988 625.15 491.324C626.951 486.883 628.41 482.772 629.572 478.958C633.075 486.4 635.87 491.937 631.814 470.359C638.532 438.832 622.2 431.405 619.864 422.375C633.227 425.08 647.217 416.834 655.535 414.536C663.854 412.238 677.334 409.821 663.945 408.061C666.131 406.058 668.015 404.031 669.545 402.104C652.413 386.653 648.888 368.622 656.879 367.126L664.87 365.63C692.159 368.907 691.024 368.119 672.861 364.134L692.169 360.52C674.965 353.538 672.275 340.639 665.24 325.872C670.228 314.267 704.485 310.155 710.5 308C716.516 305.845 746.724 305.643 722.499 299C725.932 297.77 731.094 293.31 733.617 292.181C723.535 281.66 691.454 277.024 674.826 274.06C687.35 262.298 693.888 259.286 706.463 260.169C686.819 236.018 671.279 237.848 643.724 240.56Z" fill="url(#paint7_radial_1037_925)"/>
<path d="M736.135 138.692C722.283 142.179 679.192 172.662 638.199 174.803L679.719 242.249C693.957 242.138 706.072 241.518 716.573 240.375C720.263 232.337 725.891 233.718 731.929 238.124C734.719 239.142 737.284 238.904 739.607 236.454C740.961 225.585 747.677 225.256 757.266 230.548C760.225 230.75 762.949 231.103 766.48 225.895C769.315 216.123 773.466 215.8 777.997 218.165C780.601 216.171 783.163 214.05 785.738 211.799C800.166 192.056 800.531 164.267 793.441 149.203C786.352 134.139 749.986 135.206 736.135 138.692Z" fill="#746C5F"/>
<path d="M535.399 56.4698C544.118 67.7837 559.084 118.401 589.949 145.462L514.526 169.65C467.047 131.614 456.828 113.358 451.184 83.1686C452.077 58.7317 468.996 36.6838 483.89 29.2437C498.783 21.8036 526.681 45.1559 535.399 56.4698Z" fill="#7C7467"/>
<path d="M733.384 151.537C719.374 155.313 678.832 180.824 640.041 182.9L680.45 238.586C694.302 238.399 702.048 236.302 711.967 235.34C711.967 204.611 732.582 253.767 737.247 228.43C741.911 203.092 757.267 226.458 760.338 225.524C763.409 224.591 763.409 190.807 778.689 213.507C792.752 196.601 794.465 171.753 787.321 160.139C780.176 148.524 747.395 147.762 733.384 151.537Z" fill="url(#paint8_linear_1037_925)"/>
<path d="M529.606 68.2599C538.27 79.8995 554.312 125.034 583.489 150.68L517.28 169.392C472.601 133.176 462.418 116.308 455.66 88.8744C455.084 66.8911 469.123 46.3181 481.925 41.6207C494.726 36.9232 520.941 56.6204 529.606 68.2599Z" fill="url(#paint9_linear_1037_925)"/>
<path d="M513.716 147.587C506.394 148.663 512.292 188.776 512.292 188.776L466.531 195.505C466.531 195.505 489.286 222.94 471.893 231.97C454.5 241.001 458.129 236.679 476.5 246.492C477.782 249.433 479.198 252.325 480.595 255.001C463.939 251.529 463 252.501 488.505 268.645L482.502 274.501C467.659 277.45 466.531 279.001 475 281.817L466.531 290.078C459.528 264.501 463.196 282.88 459.528 296.908C443 290.078 430.5 255.001 445 310.001C445 310.001 435.827 317.37 418.911 342.21C401.996 367.05 414.461 453.019 437.497 463C460.532 472.982 559.556 459.371 582.773 439.193C605.991 419.014 637.271 313.828 637.271 313.828C637.271 313.828 640.249 313.633 645 313.235C648.5 321.501 637.271 331.001 653 312.513C663 350.001 657.174 331.586 666.5 311.051C686 330.001 679.077 320.966 680.5 309.501C697.084 307.139 708.006 304.077 709.953 299.416C711.677 295.291 707.058 287.59 701.074 280.001C705.106 271.583 719.5 272.001 692.933 270.501C692.033 269.519 691.093 268.509 690.145 267.501C694.207 257.401 697.245 255.847 687 264.191C682.711 259.719 679 256.001 679 256.001C689.683 260.275 698.824 262.891 681.413 251.501C701.074 248.001 696 258.887 680.578 237.501C679.627 226.704 677.75 214.511 674.047 207.834C666.405 194.056 654.047 173.521 643.013 162.104C631.978 150.688 617.567 141.63 602.918 143.784C588.269 145.938 566.269 136.134 555.816 141.397C545.364 146.659 540.683 152.935 540.683 152.935C540.683 152.935 521.038 146.51 513.716 147.587Z" fill="url(#paint10_linear_1037_925)"/>
<path d="M615.174 210.681C598.62 209.458 558.271 222.218 543.334 254.153C576.961 281.926 614.427 267.468 624.262 247.739C634.096 228.01 659.493 215.134 659.493 215.134C659.493 215.134 631.728 211.903 615.174 210.681Z" fill="url(#paint11_linear_1037_925)"/>
<path d="M526.413 176.196C538.151 181.784 534.126 230.581 533.903 251.883C517.272 243.461 508.121 237.391 504.761 226.916C501.401 216.44 503.024 181.83 510.587 167.554C510.587 167.554 514.675 170.609 526.413 176.196Z" fill="url(#paint12_linear_1037_925)"/>
<path d="M568.641 176.03C557.944 180.842 544.615 189.81 548.502 217.722C576.739 219.815 587.896 202.198 587.367 186.63C586.837 171.062 585.6 167.904 585.6 167.904C585.6 167.904 579.338 171.218 568.641 176.03Z" fill="url(#paint13_linear_1037_925)"/>
<path d="M561.501 181.5C547.002 184.998 547.442 200.057 547.443 208.89C547.444 217.722 554.351 222.824 572.175 213.483C590 204.141 576 178.003 561.501 181.5Z" fill="#872D43"/>
<path d="M575.3 223.102C558.811 227.079 550.835 241.445 553.493 254.247C556.152 267.049 582.024 274.11 596.434 266.558C610.845 259.007 591.788 219.125 575.3 223.102Z" fill="#872D43"/>
<path d="M530.147 201.027C533.99 211.327 537.117 232.597 530.638 241.31C524.158 250.024 506.994 235.305 503.627 221.224C498.935 189.32 526.304 190.728 530.147 201.027Z" fill="#872D43"/>
<path d="M450.643 466.118C464.994 468.369 503.906 448.038 537.679 420.596C445.003 410.965 448.72 409.848 412.373 362C406.361 386.364 414.644 443.707 424.681 453.717C434.718 463.727 436.293 463.868 450.643 466.118Z" fill="#754E53"/>
<path d="M536.93 421.191C445.8 410.76 446.55 410.012 412.373 362C412.373 362 424.057 431.055 437.172 439.888C450.287 448.721 536.93 421.191 536.93 421.191Z" fill="#9D6774"/>
<path d="M586.818 334.385C586.05 345.134 595.026 410.081 578.5 442.5C581.5 440 582.853 441.779 588.5 433.5C593.407 426.306 602.442 408.02 606.012 401.952C614.198 381.699 641.331 325.172 636.724 311.351C632.117 297.531 639.027 292.924 636.724 289.085C634.421 285.246 587.585 323.636 586.818 334.385Z" fill="#9D6774"/>
<path d="M620.162 320.145L634.417 289.085C626.276 293.001 615.91 301.644 607.546 308.28C594.803 317.754 588.35 329.01 586.815 333.211L589.895 333.211L593.531 327.036L600.745 328.908L600.333 321.537L605.214 317.283L612.791 320.557L611.34 314.95L616.898 307.531L620.162 320.145Z" fill="#ECD66E"/>
<path d="M594.31 368.657L602.94 407.325C610.93 393.466 612.779 386.74 619.925 371.778L620.236 370.991C629.77 346.819 637.918 326.159 637.296 316.669L627.636 329.793L626.772 340.888L615.429 343.194L621.029 353.198L617.118 362.461L604.314 363.058L610.16 369.892L607.464 384.034L594.31 368.657Z" fill="#ECD66E"/>
</g>
<defs>
<linearGradient id="paint0_linear_1037_925" x1="383.312" y1="976.1" x2="472.982" y2="721" gradientUnits="userSpaceOnUse">
<stop stop-color="#898072"/>
<stop offset="1" stop-color="#6F6659"/>
</linearGradient>
<linearGradient id="paint1_linear_1037_925" x1="795.976" y1="980.259" x2="751.225" y2="751.913" gradientUnits="userSpaceOnUse">
<stop stop-color="#898072"/>
<stop offset="1" stop-color="#6F6659"/>
</linearGradient>
<linearGradient id="paint2_linear_1037_925" x1="709.161" y1="319.268" x2="910.88" y2="391.942" gradientUnits="userSpaceOnUse">
<stop stop-color="#898072"/>
<stop offset="1" stop-color="#6F6659"/>
</linearGradient>
<linearGradient id="paint3_linear_1037_925" x1="813.059" y1="398.161" x2="1050.56" y2="477.161" gradientUnits="userSpaceOnUse">
<stop stop-color="#989590"/>
<stop offset="1" stop-color="#8E8982"/>
</linearGradient>
<linearGradient id="paint4_linear_1037_925" x1="481.99" y1="283.288" x2="245.52" y2="378.313" gradientUnits="userSpaceOnUse">
<stop stop-color="#898072"/>
<stop offset="1" stop-color="#6F6659"/>
</linearGradient>
<linearGradient id="paint5_linear_1037_925" x1="311.5" y1="356.001" x2="74.0002" y2="435" gradientUnits="userSpaceOnUse">
<stop stop-color="#989590"/>
<stop offset="1" stop-color="#8E8982"/>
</linearGradient>
<linearGradient id="paint6_linear_1037_925" x1="585.489" y1="269.715" x2="595.998" y2="580.499" gradientUnits="userSpaceOnUse">
<stop stop-color="#8A8173"/>
<stop offset="1" stop-color="#635A4E"/>
</linearGradient>
<radialGradient id="paint7_radial_1037_925" cx="0" cy="0" r="1" gradientUnits="userSpaceOnUse" gradientTransform="translate(455.5 310.5) rotate(27.887) scale(366.19 387.15)">
<stop stop-color="#7E6B51"/>
<stop offset="0.415" stop-color="#867358"/>
<stop offset="1" stop-color="#A39889"/>
</radialGradient>
<linearGradient id="paint8_linear_1037_925" x1="795.229" y1="189.2" x2="649.064" y2="222.501" gradientUnits="userSpaceOnUse">
<stop stop-color="#754E53"/>
<stop offset="1" stop-color="#90686D"/>
</linearGradient>
<linearGradient id="paint9_linear_1037_925" x1="457.728" y1="59.5403" x2="551.892" y2="176.187" gradientUnits="userSpaceOnUse">
<stop stop-color="#754E53"/>
<stop offset="1" stop-color="#90686D"/>
</linearGradient>
<linearGradient id="paint10_linear_1037_925" x1="508" y1="214.001" x2="613.998" y2="385.5" gradientUnits="userSpaceOnUse">
<stop stop-color="#968E81"/>
<stop offset="1" stop-color="#5C5547"/>
</linearGradient>
<linearGradient id="paint11_linear_1037_925" x1="599.998" y1="188.5" x2="572.998" y2="242.5" gradientUnits="userSpaceOnUse">
<stop stop-color="#ECD66E"/>
<stop offset="1" stop-color="#C3AD46"/>
</linearGradient>
<linearGradient id="paint12_linear_1037_925" x1="599.998" y1="188.5" x2="572.998" y2="242.5" gradientUnits="userSpaceOnUse">
<stop stop-color="#ECD66E"/>
<stop offset="1" stop-color="#C3AD46"/>
</linearGradient>
<linearGradient id="paint13_linear_1037_925" x1="560.227" y1="152.938" x2="561.626" y2="195.578" gradientUnits="userSpaceOnUse">
<stop stop-color="#ECD66E"/>
<stop offset="1" stop-color="#C3AD46"/>
</linearGradient>
<clipPath id="clip0_1037_925">
<rect width="1185" height="1011" fill="white"/>
</clipPath>
</defs>
</svg>
