<svg width="1185" height="1011" viewBox="0 0 1185 1011" fill="none" xmlns="http://www.w3.org/2000/svg">
<g clip-path="url(#clip0_1015_388)">
<path d="M457.098 892.97C458.846 844.128 484.781 811.583 511.611 802.369C536.223 775.496 457.098 705.627 430.225 724.054C390.338 747.576 367.223 773.193 364.962 802.369C362.701 831.546 373.751 888.072 386.46 921.378C340.328 942.688 331.95 955.929 346.535 970.517C361.12 985.105 401.988 969.791 457.098 939.805V892.97Z" fill="url(#paint0_linear_1015_388)"/>
<path d="M756.643 712.755C700.594 702.005 685.28 809.497 700.594 818.711C715.907 827.924 731.452 894.307 720.556 946.933C785.022 993.542 811.16 977.645 827.28 977.645C843.401 977.645 833.324 951.161 795.033 919.292C818.39 881.115 833.465 818.711 827.28 793.373C821.095 768.036 777.416 723.504 756.643 712.755Z" fill="url(#paint1_linear_1015_388)"/>
<path d="M1107.9 499.256C1131.9 520.797 1144.7 558.864 1123.79 575.873C1102.87 592.881 1093.56 591.336 1073.63 587.914C1047.61 572.347 1047.72 562.726 1057.25 545.007C996.803 508.273 923.703 495.357 896.209 490.5L895.755 490.419C868.621 485.624 645.045 458.358 700.462 335.505C723.867 324.585 762.68 321.561 804.766 325.115C829.315 319.892 829.987 317.943 813.732 325.9C817.031 326.228 817.854 326.408 821.18 326.815C837.877 316.722 832.478 318.161 834.039 328.995C837.008 329.425 837.044 329.029 840.016 329.518C847.676 328.023 850.752 327.288 844.467 330.273C875.595 335.711 906.468 344.388 932.466 355.803C944.528 361.099 955.707 366.661 966.244 372.571C980.743 361.749 977.817 366.512 974.843 377.555C976.927 378.804 975.186 377.728 977.225 379.008C1001.15 358.013 990.333 370.301 987.687 385.638C1030.05 413.627 1063.52 449.27 1107.9 499.256Z" fill="url(#paint2_linear_1015_388)"/>
<path d="M966.335 371.53C926.66 343.126 911.568 346.152 884.834 339.304C836.282 372.198 847.005 450.43 844.303 481.312C892.375 494.05 916.328 495.644 916.957 494.193C917.586 492.743 939.75 394.3 966.335 371.53Z" fill="url(#paint3_linear_1015_388)"/>
<path d="M862.472 485.913C873.299 488.366 873.528 488.716 884.625 490.863C884.752 445.294 907.654 398.015 934.857 352.715C923.388 346.408 910.26 345.042 897.611 342.43C872.789 400.898 856.996 446.131 862.472 485.913Z" fill="#8B877E"/>
<path d="M876.245 489.125C887.933 491.89 882.135 490.644 893.094 492.459C911.06 454.803 929.666 403.199 962.072 368.647C952.677 361.301 948.778 359.956 946.376 358.742C916.85 398.611 895.101 447.804 876.245 489.125Z" fill="#8B877E"/>
<path d="M1021.61 425.263C1019.09 416.583 1015.1 412.821 1001.38 408.898C985.003 406.972 984.421 410.326 982.485 415.845C979.208 443.303 997.856 460.767 1008.4 461.822C1018.94 462.878 1033.32 447.176 1021.61 425.263Z" fill="#6A6358"/>
<path d="M989.862 458.891C986.027 455.334 982.937 454.661 975.004 456.817C966.355 460.763 967.07 462.603 967.764 465.923C974.35 480.539 988.757 483.631 994.269 481C999.781 478.369 1002.18 466.27 989.862 458.891Z" fill="#6A6358"/>
<path d="M801.444 346.429C693.516 278.686 619.026 258.081 420.671 302.599C310.783 355.281 459.063 466.778 399.072 548.961C339.081 631.145 353.927 726.31 416.07 738.919C478.214 751.529 496.13 787.241 510.057 802.895C523.983 818.549 675.221 853.238 699.031 817.166C722.84 781.094 720.528 782.637 786.518 733.506C852.509 684.375 820.21 579.312 800.516 562.249C780.822 545.186 860.159 383.283 801.444 346.429Z" fill="url(#paint4_linear_1015_388)"/>
<path d="M679.197 309.673C663.157 322.838 653.696 348.674 653.696 348.674C685.697 315.173 730.817 336.728 745.394 343.747C759.972 350.766 766.154 340.611 756.646 330.898C735.582 313.593 695.237 296.508 679.197 309.673Z" fill="#6C5C43"/>
<ellipse cx="774.935" cy="351.792" rx="9.95413" ry="6.22133" transform="rotate(32.7639 774.935 351.792)" fill="#6C5C43"/>
<ellipse cx="793.232" cy="363.443" rx="6.81437" ry="4.25898" transform="rotate(32.7639 793.232 363.443)" fill="#6C5C43"/>
<path d="M402.102 553.327C379.602 569.327 371.6 604.826 371.6 604.826C396.102 530.826 501.577 555.14 517.149 559.531C532.721 563.922 537.053 552.85 526.008 544.929C502.267 531.529 424.601 537.328 402.102 553.327Z" fill="#AFABA4" fill-opacity="0.3"/>
<ellipse cx="547.636" cy="562.345" rx="9.95413" ry="6.22133" transform="rotate(22.801 547.636 562.345)" fill="#7E776C"/>
<ellipse cx="567.674" cy="570.654" rx="6.81437" ry="4.25898" transform="rotate(22.801 567.674 570.654)" fill="#7E776C"/>
<ellipse cx="668.555" cy="533.435" rx="12.5" ry="7" transform="rotate(2.40549 668.555 533.435)" fill="#615546"/>
<ellipse cx="459.783" cy="509.518" rx="12.5" ry="7" transform="rotate(2.40549 459.783 509.518)" fill="#615546"/>
<path d="M781.862 465.736C775.498 455.081 769.479 451.9 752.454 453.318C733.244 458.797 733.952 463.686 734.019 472.215C741.495 511.498 769.572 526.206 781.862 522.427C794.152 518.648 803.936 489.987 781.862 465.736Z" fill="#736B5E"/>
<path d="M414.719 644.251C418.543 636.061 418.02 630.601 410.287 618.611C399.234 606.368 396.586 608.507 391.493 611.383C370.935 629.877 373.453 655.301 380.689 663.043C387.925 670.786 409.084 668.446 414.719 644.251Z" fill="#6A6358"/>
<path d="M769.908 532.275C767.925 529.535 766.051 528.717 760.748 529.082C754.764 530.491 754.985 531.748 755.006 533.941C757.335 544.042 766.08 547.824 769.908 546.853C773.736 545.881 776.783 538.511 769.908 532.275Z" fill="#6E6557"/>
<path d="M439.019 654.898C438.478 649.696 436.597 647.152 429.209 643.547C420.104 640.816 419.429 642.671 417.764 645.626C413.086 660.959 421.885 672.779 427.765 674.432C433.645 676.085 443.418 668.562 439.019 654.898Z" fill="#6A6358"/>
<path d="M258.822 295.745C334.733 271.43 461.887 255.069 508.129 301.716C535.327 354.706 307.713 444.497 281.397 433.439C215.704 429.938 179.399 440.565 115.113 471.011C122.766 489.622 121.875 499.203 94.3797 511.991C74.2043 513.332 64.7828 513.904 45.7416 494.821C26.7005 475.739 43.3708 439.201 69.4809 420.262C138.157 357.421 182.911 320.06 258.822 295.745Z" fill="url(#paint5_linear_1015_388)"/>
<path d="M69.4812 420.262C138.157 357.421 166.179 325.717 242.09 301.402C290.642 334.296 307.714 444.497 281.397 433.44C215.704 429.939 179.399 440.566 115.113 471.011C96.072 451.929 96.9242 432.051 69.4812 420.262Z" fill="url(#paint6_linear_1015_388)"/>
<path d="M252.597 432.987C241.567 433.293 241.355 432.962 230.095 433.951C234.672 388.612 228.982 362.41 206.599 314.545C218.658 309.455 225.501 306.852 237.693 302.79C256.347 363.508 262.149 393.982 252.597 432.987Z" fill="#8B877E"/>
<path d="M238.564 433.211C226.653 434.755 232.543 433.236 221.672 435.191C207.688 395.882 196.034 374.26 167.367 336.548C177.277 327.996 177.847 330.11 188.778 323.387C214.032 366.091 224.073 390.164 238.564 433.211Z" fill="#8B877E"/>
<path d="M189.059 441.311C177.864 445.046 183.71 443.029 172.97 446.478C162.046 415.593 153.299 398.327 126.43 367.735C136.34 359.183 136.232 359.03 146.584 351.416C169.695 385.675 176.601 405.518 188.748 440.42L189.059 441.311Z" fill="#868278"/>
<path d="M138.478 459.534C127.283 463.269 138.11 461.072 127.37 464.521C113.786 433.351 105.142 418.739 85.0647 405.484C94.9742 396.932 93.7839 395.87 104.136 388.256C116.948 403.585 123.993 409.09 138.478 459.534Z" fill="#868278"/>
<path d="M172.472 446.522C161.277 450.513 166.342 447.482 156.471 452.941C138.452 423.625 128.446 407.047 101.816 390.466C109.887 380.162 110.296 383.88 118.982 374.41C139.579 389.879 151.277 410.023 171.751 445.281L172.472 446.522Z" fill="#868278"/>
<path d="M312.627 294.711C305.006 289.851 299.525 289.658 286.628 295.761C273.048 305.122 274.824 308.027 277.011 313.452C292.666 336.246 318.201 337.065 326.821 330.9C335.441 324.736 335.881 303.453 312.627 294.711Z" fill="#81786C"/>
<path d="M310.957 340.929C305.729 340.787 302.962 342.32 298.424 349.174C294.529 357.846 296.28 358.757 298.993 360.794C313.585 367.431 326.451 360.249 328.857 354.634C331.263 349.02 325.079 338.349 310.957 340.929Z" fill="#81786C"/>
<path d="M505.429 259.909C499.736 260.961 496.2 262.771 488.537 270.658" stroke="#5D5548" stroke-width="3.07119"/>
<path d="M656.655 284.425C650.89 283.904 646.996 284.693 637.491 290.223" stroke="#5D5548" stroke-width="3.07119"/>
<path d="M643.724 240.56L640.544 181.147L588.89 208.686L587.139 179.172L548.031 203.617L531.434 159.816L482.759 231.661C475.418 221.253 470.118 225.324 462.895 231.661C460.782 233.515 458.504 235.563 455.962 237.5C450.356 241.771 443.465 245.497 434.225 245.397C448.157 267.91 444.999 254.079 454.592 269.324C440.787 282.804 433.566 271.455 424.899 263C421.335 254.588 420.145 254.627 420 258.855C417.656 257.245 415.135 256.121 412.313 255.905C411.719 269.268 407.373 288.172 413.569 306C402.675 302.029 404 302 417.157 314C418.301 316.042 419.62 318.055 421.139 320.028C416.137 324.648 405.402 324.006 394.5 323.52C378.5 316 380.5 317 387.65 323.284C384.204 323.225 380.861 323.301 377.806 323.689C379.042 333.82 387.865 345.014 396.5 356.238C384.754 358.377 383.875 361.104 403 364.897C405.536 368.429 407.854 371.937 409.707 375.388C401.014 381.237 395.562 386.559 392.127 395C380.225 409.458 377.351 414.58 389.448 404C388.68 407.61 388.096 411.7 387.65 416.408C402.131 407.907 413.856 411.376 438.751 426.557L423.422 470.674L477.632 466.69C488.357 472.365 495.327 476.472 492.717 488.837C483.513 502.036 475.757 507.543 489.955 497.324C488.723 500.289 487.125 503.603 485.123 507.326C506.064 503.087 518.345 497.972 527.404 488.426C519.093 504.547 528.888 494.874 533.585 480.523C535.753 477.205 537.776 473.477 539.769 469.264C543.098 471.301 545.834 473.357 548.079 475.47C552.316 487.488 553.31 493.975 553.479 496.558C553.604 498.462 553.281 498.245 553.479 496.558C553.666 494.969 554.315 492.076 556.238 488.423C558.576 496.288 557.858 505.47 557.329 517.202C560.525 513.343 563.49 509.898 566.203 506.618C567.435 522.909 565.108 515.593 573.983 496.388C579.331 488.38 582.961 479.73 584.53 466.56C589.421 467.295 584.231 459.89 597.476 468.263C610.721 476.637 611.927 489.77 611.461 475.567C615.386 479 619.805 483.988 625.15 491.324C626.951 486.883 628.41 482.772 629.572 478.958C633.075 486.4 635.87 491.937 631.814 470.359C638.532 438.832 622.2 431.405 619.864 422.375C633.227 425.08 647.217 416.834 655.535 414.536C663.854 412.238 677.334 409.821 663.945 408.061C666.131 406.058 668.015 404.031 669.545 402.104C652.413 386.653 648.888 368.622 656.879 367.126L664.87 365.63C692.159 368.907 691.024 368.119 672.861 364.134L692.169 360.52C674.965 353.538 672.275 340.639 665.24 325.872C670.228 314.267 704.485 310.155 710.5 308C716.516 305.845 746.724 305.643 722.499 299C725.932 297.77 731.094 293.31 733.617 292.181C723.535 281.66 691.454 277.024 674.826 274.06C687.35 262.298 693.888 259.286 706.463 260.169C686.819 236.018 671.279 237.848 643.724 240.56Z" fill="url(#paint7_radial_1015_388)"/>
<path d="M733.325 134.398C719.604 138.366 677.603 170.334 636.71 173.904L680.558 239.861C694.784 239.253 706.869 238.211 717.324 236.701C720.731 228.54 726.404 229.723 732.592 233.916C735.416 234.836 737.971 234.509 740.207 231.979C741.181 221.07 747.882 220.506 757.65 225.46C760.614 225.559 763.348 225.817 766.695 220.488C769.187 210.623 773.325 210.156 777.935 212.361C780.468 210.278 782.954 208.068 785.449 205.729C799.18 185.495 798.574 157.71 790.963 142.903C783.352 128.095 747.046 130.43 733.325 134.398Z" fill="#746C5F"/>
<path d="M529.844 59.2309C538.952 70.2336 555.675 120.298 587.466 146.265L512.933 173.071C464.156 136.715 453.306 118.826 446.611 88.8525C446.651 64.3993 462.79 41.7744 477.415 33.819C492.04 25.8636 520.736 48.2281 529.844 59.2309Z" fill="#7C7467"/>
<path d="M731.025 147.331C717.155 151.593 677.528 178.504 638.834 181.931L681.161 236.174C694.998 235.503 702.667 233.137 712.546 231.829C711.473 201.12 733.791 249.526 737.569 224.041C741.346 198.557 757.508 221.372 760.545 220.332C763.582 219.291 762.403 185.529 778.465 207.682C791.93 190.295 792.774 165.403 785.229 154.044C777.684 142.686 744.895 143.068 731.025 147.331Z" fill="url(#paint8_linear_1015_388)"/>
<path d="M524.463 71.2162C533.529 82.5463 551.136 127.093 581.19 151.705L515.674 172.717C469.759 138.083 458.993 121.58 451.283 94.3988C449.94 72.449 463.252 51.3985 475.882 46.2572C488.511 41.1159 515.398 59.8861 524.463 71.2162Z" fill="url(#paint9_linear_1015_388)"/>
<path d="M511.353 151.049C504.074 152.381 511.368 192.263 511.368 192.263L465.869 200.584C465.869 200.584 489.568 227.209 472.501 236.841C455.433 246.473 458.91 242.027 477.612 251.193C478.995 254.087 480.512 256.928 482.001 259.553C465.235 256.665 464.33 257.669 490.383 272.913L484.587 278.975C469.856 282.44 468.783 284.03 477.346 286.549L469.17 295.1C461.279 269.783 465.586 288.023 462.41 302.171C445.653 295.921 431.937 261.302 448.347 315.762C448.347 315.762 439.437 323.447 423.399 348.862C407.36 374.277 422.819 459.759 446.188 468.931C469.558 478.102 568.046 461.043 590.546 440.067C613.045 419.091 640.635 312.877 640.635 312.877C640.635 312.877 643.604 312.579 648.338 312.014C652.125 320.153 641.234 330.039 656.308 311.014C667.611 348.13 661.146 329.93 669.749 309.081C689.899 327.339 682.664 318.552 683.686 307.044C700.178 304.105 710.987 300.663 712.77 295.937C714.348 291.754 709.464 284.22 703.218 276.844C706.955 268.291 721.354 268.205 694.751 267.633C693.817 266.684 692.842 265.707 691.86 264.733C695.566 254.498 698.549 252.838 688.601 261.535C684.159 257.216 680.32 253.629 680.32 253.629C691.146 257.527 700.373 259.822 682.575 249.047C702.101 244.863 697.411 255.919 681.251 235.085C679.924 224.328 677.623 212.208 673.689 205.664C665.571 192.161 652.504 172.07 641.078 161.045C629.652 150.021 614.934 141.472 600.369 144.136C585.804 146.8 563.474 137.769 553.212 143.393C542.95 149.017 538.49 155.453 538.49 155.453C538.49 155.453 518.633 149.718 511.353 151.049Z" fill="url(#paint10_linear_1015_388)"/>
<path d="M614.952 210.564C598.365 209.92 558.486 224.08 544.673 256.517C579.248 283.099 616.187 267.342 625.327 247.282C634.467 227.222 659.4 213.468 659.4 213.468C659.4 213.468 631.538 211.208 614.952 210.564Z" fill="url(#paint11_linear_1015_388)"/>
<path d="M525.042 179.198C536.967 184.372 534.648 233.281 535.169 254.578C518.253 246.741 508.896 240.994 505.173 230.642C501.45 220.29 501.864 185.645 508.924 171.113C508.924 171.113 513.116 174.024 525.042 179.198Z" fill="url(#paint12_linear_1015_388)"/>
<path d="M567.239 177.559C556.716 182.742 543.708 192.169 548.567 219.928C576.86 221.035 587.395 203.039 586.323 187.499C585.25 171.959 583.904 168.846 583.904 168.846C583.904 168.846 577.761 172.377 567.239 177.559Z" fill="url(#paint13_linear_1015_388)"/>
<path d="M560.293 183.274C545.924 187.275 546.89 202.31 547.199 211.137C547.508 219.965 554.589 224.822 572.077 214.864C589.565 204.907 574.661 179.273 560.293 183.274Z" fill="#872D43"/>
<path d="M575.535 224.37C559.195 228.92 551.725 243.555 554.828 256.256C557.932 268.958 584.035 275.112 598.173 267.062C612.311 259.011 591.874 219.82 575.535 224.37Z" fill="#872D43"/>
<path d="M529.639 203.884C533.839 214.043 537.706 235.191 531.535 244.125C525.364 253.059 507.696 238.949 503.84 224.994C498.038 193.273 525.439 193.725 529.639 203.884Z" fill="#872D43"/>
<path d="M459.435 471.588C473.855 473.336 512.034 451.66 544.829 423.055C451.874 416.665 455.549 415.419 417.555 368.869C412.397 393.427 422.676 450.446 433.056 460.1C443.436 469.754 445.015 469.84 459.435 471.588Z" fill="#754E53"/>
<path d="M544.101 423.676C452.663 416.432 453.386 415.659 417.555 368.869C417.555 368.869 431.642 437.474 445.057 445.844C458.472 454.213 544.101 423.676 544.101 423.676Z" fill="#9D6774"/>
<path d="M590.93 335.183C590.538 345.952 601.776 410.546 586.391 443.522C589.302 440.919 590.716 442.65 596.071 434.179C600.723 426.818 609.115 408.228 612.471 402.038C619.946 381.512 645.089 324.072 640.002 310.421C634.916 296.77 641.661 291.925 639.225 288.169C636.789 284.412 591.322 324.413 590.93 335.183Z" fill="#9D6774"/>
<path d="M623.757 319.788L636.92 288.249C628.921 292.447 618.862 301.446 610.735 308.37C598.33 318.283 592.274 329.758 590.886 334.009L593.964 333.902L597.383 327.604L604.658 329.223L603.989 321.871L608.719 317.449L616.405 320.457L614.76 314.904L620.055 307.295L623.757 319.788Z" fill="#ECD66E"/>
<path d="M599.613 369.173L609.588 407.517C617.089 393.387 618.702 386.6 625.322 371.398L625.605 370.6C634.289 346.111 641.712 325.179 640.759 315.717L631.562 329.169L631.086 340.288L619.831 342.988L625.776 352.791L622.191 362.185L609.416 363.228L615.497 369.854L613.296 384.081L599.613 369.173Z" fill="#ECD66E"/>
</g>
<defs>
<linearGradient id="paint0_linear_1015_388" x1="383.312" y1="976.1" x2="472.982" y2="721" gradientUnits="userSpaceOnUse">
<stop stop-color="#898072"/>
<stop offset="1" stop-color="#6F6659"/>
</linearGradient>
<linearGradient id="paint1_linear_1015_388" x1="795.976" y1="980.259" x2="751.225" y2="751.913" gradientUnits="userSpaceOnUse">
<stop stop-color="#898072"/>
<stop offset="1" stop-color="#6F6659"/>
</linearGradient>
<linearGradient id="paint2_linear_1015_388" x1="718.544" y1="320.006" x2="913.162" y2="409.984" gradientUnits="userSpaceOnUse">
<stop stop-color="#898072"/>
<stop offset="1" stop-color="#6F6659"/>
</linearGradient>
<linearGradient id="paint3_linear_1015_388" x1="815.171" y1="407.654" x2="1044.88" y2="507.053" gradientUnits="userSpaceOnUse">
<stop stop-color="#989590"/>
<stop offset="1" stop-color="#8E8982"/>
</linearGradient>
<linearGradient id="paint4_linear_1015_388" x1="585.535" y1="279" x2="595.718" y2="584.897" gradientUnits="userSpaceOnUse">
<stop stop-color="#8A8173"/>
<stop offset="1" stop-color="#635A4E"/>
</linearGradient>
<linearGradient id="paint5_linear_1015_388" x1="475.303" y1="282.291" x2="248.014" y2="397.564" gradientUnits="userSpaceOnUse">
<stop stop-color="#898072"/>
<stop offset="1" stop-color="#6F6659"/>
</linearGradient>
<linearGradient id="paint6_linear_1015_388" x1="311.798" y1="369.586" x2="82.0869" y2="468.985" gradientUnits="userSpaceOnUse">
<stop stop-color="#989590"/>
<stop offset="1" stop-color="#8E8982"/>
</linearGradient>
<radialGradient id="paint7_radial_1015_388" cx="0" cy="0" r="1" gradientUnits="userSpaceOnUse" gradientTransform="translate(455.5 310.5) rotate(27.887) scale(366.19 387.15)">
<stop stop-color="#7E6B51"/>
<stop offset="0.415" stop-color="#867358"/>
<stop offset="1" stop-color="#A39889"/>
</radialGradient>
<linearGradient id="paint8_linear_1015_388" x1="794.147" y1="182.812" x2="649.233" y2="221.194" gradientUnits="userSpaceOnUse">
<stop stop-color="#754E53"/>
<stop offset="1" stop-color="#90686D"/>
</linearGradient>
<linearGradient id="paint9_linear_1015_388" x1="452.325" y1="65.0104" x2="550.502" y2="178.3" gradientUnits="userSpaceOnUse">
<stop stop-color="#754E53"/>
<stop offset="1" stop-color="#90686D"/>
</linearGradient>
<linearGradient id="paint10_linear_1015_388" x1="507.959" y1="217.622" x2="619.877" y2="385.318" gradientUnits="userSpaceOnUse">
<stop stop-color="#968E81"/>
<stop offset="1" stop-color="#5C5547"/>
</linearGradient>
<linearGradient id="paint11_linear_1015_388" x1="599.011" y1="188.926" x2="573.912" y2="243.836" gradientUnits="userSpaceOnUse">
<stop stop-color="#ECD66E"/>
<stop offset="1" stop-color="#C3AD46"/>
</linearGradient>
<linearGradient id="paint12_linear_1015_388" x1="599.011" y1="188.926" x2="573.912" y2="243.836" gradientUnits="userSpaceOnUse">
<stop stop-color="#ECD66E"/>
<stop offset="1" stop-color="#C3AD46"/>
</linearGradient>
<linearGradient id="paint13_linear_1015_388" x1="558.024" y1="154.775" x2="560.91" y2="197.339" gradientUnits="userSpaceOnUse">
<stop stop-color="#ECD66E"/>
<stop offset="1" stop-color="#C3AD46"/>
</linearGradient>
<clipPath id="clip0_1015_388">
<rect width="1185" height="1011" fill="white"/>
</clipPath>
</defs>
</svg>
