<svg width="1185" height="1011" viewBox="0 0 1185 1011" fill="none" xmlns="http://www.w3.org/2000/svg">
<g clip-path="url(#clip0_1015_447)">
<path d="M457.098 892.97C458.846 844.128 484.781 811.583 511.611 802.369C536.223 775.496 457.098 705.627 430.225 724.054C390.338 747.576 367.223 773.193 364.962 802.369C362.701 831.546 373.751 888.072 386.46 921.378C340.328 942.688 331.95 955.929 346.535 970.517C361.12 985.105 401.988 969.791 457.098 939.805V892.97Z" fill="url(#paint0_linear_1015_447)"/>
<path d="M756.643 712.755C700.594 702.005 685.28 809.497 700.594 818.711C715.907 827.924 731.452 894.307 720.556 946.933C785.022 993.542 811.16 977.645 827.28 977.645C843.401 977.645 833.324 951.161 795.033 919.292C818.39 881.115 833.465 818.711 827.28 793.373C821.095 768.036 777.416 723.504 756.643 712.755Z" fill="url(#paint1_linear_1015_447)"/>
<path d="M1101.99 535.164C1124.03 558.716 1133.46 597.754 1111.14 612.875C1088.82 627.995 1079.68 625.645 1060.13 620.499C1035.56 602.724 1036.5 593.148 1047.55 576.328C990.53 534.465 918.833 515.227 891.868 507.992L891.422 507.872C864.809 500.731 644.46 454.082 710.374 336.527C734.642 327.688 773.57 328.059 815.186 335.267C840.097 332.203 840.937 330.32 824.05 336.83C827.308 337.445 828.112 337.695 831.39 338.391C848.903 329.792 843.399 330.754 844.01 341.684C846.93 342.37 847.001 341.979 849.919 342.726C857.68 341.903 860.808 341.44 854.287 343.866C884.823 351.996 914.821 363.331 939.726 376.968C951.281 383.295 961.932 389.81 971.914 396.616C987.301 387.099 983.971 391.588 980.046 402.331C982.014 403.756 980.373 402.532 982.292 403.985C1007.95 385.155 996.11 396.454 992.137 411.502C1031.9 443.077 1062.14 481.501 1101.99 535.164Z" fill="url(#paint2_linear_1015_447)"/>
<path d="M972.096 395.587C935.047 363.833 919.748 365.532 893.713 356.38C842.479 384.917 846.342 463.786 840.96 494.315C887.739 511.195 911.461 514.87 912.214 513.48C912.967 512.089 943.627 415.953 972.096 395.587Z" fill="url(#paint3_linear_1015_447)"/>
<path d="M858.657 500.482C869.229 503.869 869.427 504.238 880.295 507.344C884.393 461.959 911.328 416.856 942.376 374.1C931.5 366.817 918.541 364.312 906.168 360.607C876.345 416.69 856.669 460.374 858.657 500.482Z" fill="#8B877E"/>
<path d="M872.099 504.883C883.501 508.656 877.834 506.91 888.593 509.672C909.773 473.725 932.806 423.939 968.1 392.344C959.38 384.206 955.614 382.526 953.327 381.108C920.438 418.252 894.485 465.362 872.099 504.883Z" fill="#8B877E"/>
<path d="M1022.48 453.933C1020.72 445.067 1017.08 440.971 1003.75 435.867C987.602 432.521 986.73 435.811 984.32 441.141C978.662 468.208 995.717 487.231 1006.13 489.202C1016.54 491.172 1032.23 476.783 1022.48 453.933Z" fill="#6A6358"/>
<path d="M987.918 484.666C984.407 480.789 981.387 479.848 973.297 481.305C964.337 484.482 964.889 486.377 965.291 489.745C970.578 504.88 984.661 509.216 990.381 507.075C996.102 504.934 999.541 493.09 987.918 484.666Z" fill="#6A6358"/>
<path d="M801.444 352.577C693.516 285.69 619.026 265.345 420.671 309.3C310.783 361.317 459.063 471.405 399.072 552.55C339.081 633.696 353.927 727.658 416.07 740.108C478.214 752.558 496.13 787.819 510.057 803.275C523.983 818.732 675.221 852.983 699.031 817.366C722.84 781.75 720.528 783.273 786.518 734.763C852.509 686.253 820.21 582.517 800.516 565.67C780.822 548.822 860.159 388.965 801.444 352.577Z" fill="url(#paint4_linear_1015_447)"/>
<path d="M677.197 320.673C661.157 333.838 651.696 359.674 651.696 359.674C683.697 326.173 728.817 347.728 743.394 354.747C757.972 361.766 764.154 351.611 754.646 341.898C733.582 324.593 693.237 307.508 677.197 320.673Z" fill="#6C5C43"/>
<ellipse cx="772.935" cy="362.792" rx="9.95413" ry="6.22133" transform="rotate(32.7639 772.935 362.792)" fill="#6C5C43"/>
<ellipse cx="791.232" cy="374.443" rx="6.81437" ry="4.25898" transform="rotate(32.7639 791.232 374.443)" fill="#6C5C43"/>
<path d="M397.102 560.327C374.602 576.327 366.6 611.826 366.6 611.826C391.102 537.826 496.577 562.14 512.149 566.531C527.721 570.922 532.053 559.85 521.008 551.929C497.267 538.529 419.601 544.328 397.102 560.327Z" fill="#AFABA4" fill-opacity="0.3"/>
<ellipse cx="542.636" cy="569.345" rx="9.95413" ry="6.22133" transform="rotate(22.801 542.636 569.345)" fill="#7E776C"/>
<ellipse cx="562.674" cy="577.654" rx="6.81437" ry="4.25898" transform="rotate(22.801 562.674 577.654)" fill="#7E776C"/>
<ellipse cx="668.555" cy="540.435" rx="12.5" ry="7" transform="rotate(2.40549 668.555 540.435)" fill="#615546"/>
<ellipse cx="459.783" cy="516.518" rx="12.5" ry="7" transform="rotate(2.40549 459.783 516.518)" fill="#615546"/>
<path d="M781.862 466.736C775.498 456.081 769.479 452.9 752.454 454.318C733.244 459.797 733.952 464.686 734.019 473.215C741.495 512.498 769.572 527.206 781.862 523.427C794.152 519.648 803.936 490.987 781.862 466.736Z" fill="#736B5E"/>
<path d="M414.719 648.251C418.543 640.061 418.02 634.601 410.287 622.611C399.234 610.368 396.586 612.507 391.493 615.383C370.935 633.877 373.453 659.301 380.689 667.043C387.925 674.786 409.084 672.446 414.719 648.251Z" fill="#6A6358"/>
<path d="M769.908 533.275C767.925 530.535 766.051 529.717 760.748 530.082C754.764 531.491 754.985 532.748 755.006 534.941C757.335 545.042 766.08 548.824 769.908 547.853C773.736 546.881 776.783 539.511 769.908 533.275Z" fill="#6E6557"/>
<path d="M439.019 658.898C438.478 653.696 436.597 651.152 429.209 647.547C420.104 644.816 419.429 646.671 417.764 649.626C413.086 664.959 421.885 676.779 427.765 678.432C433.645 680.085 443.418 672.562 439.019 658.898Z" fill="#6A6358"/>
<path d="M251.915 321.528C325.419 290.689 450.663 263.308 500.794 305.747C532.507 356.165 313.585 465.452 286.405 456.73C220.657 458.968 185.416 472.719 124.029 508.651C133.275 526.525 133.222 536.147 106.946 551.283C86.9642 554.377 77.6284 555.768 56.9965 538.417C36.3647 521.067 49.7871 483.215 74.1471 462.072C137.085 393.485 178.412 352.366 251.915 321.528Z" fill="url(#paint5_linear_1015_447)"/>
<path d="M74.1476 462.072C137.085 393.486 162.237 359.459 235.74 328.621C286.974 357.158 313.586 465.452 286.406 456.73C220.657 458.968 185.417 472.719 124.029 508.651C103.397 491.301 102.514 471.425 74.1476 462.072Z" fill="url(#paint6_linear_1015_447)"/>
<path d="M257.677 458.789C246.716 460.056 246.476 459.744 235.346 461.711C235.953 416.146 228.001 390.539 201.532 344.807C213.101 338.686 219.691 335.496 231.483 330.387C255.358 389.248 263.794 419.1 257.677 458.789Z" fill="#8B877E"/>
<path d="M243.715 460.235C231.985 462.811 237.72 460.785 227.061 463.68C209.704 425.739 196.21 405.215 164.365 370.146C173.491 360.763 174.244 362.819 184.547 355.169C213.427 395.509 225.528 418.616 243.715 460.235Z" fill="#8B877E"/>
<path d="M195.106 472.62C184.279 477.316 189.928 474.797 179.529 479.169C165.955 449.354 155.736 432.915 126.303 404.781C135.429 395.399 135.309 395.256 144.958 386.768C170.967 418.883 179.576 438.048 194.719 471.759L195.106 472.62Z" fill="#868278"/>
<path d="M146.305 495.182C135.478 499.878 146.073 496.746 135.674 501.118C119.425 471.251 109.541 457.447 88.3845 445.992C97.5109 436.609 96.2326 435.655 105.881 427.168C119.981 441.322 127.479 446.192 146.305 495.182Z" fill="#868278"/>
<path d="M179.037 479.256C168.233 484.207 173.014 480.746 163.656 487.045C143.15 459.411 131.738 443.769 103.764 429.572C110.906 418.603 111.637 422.271 119.465 412.08C141.333 425.695 154.742 444.744 178.211 478.082L179.037 479.256Z" fill="#868278"/>
<path d="M305.428 315.807C297.412 311.631 291.935 311.916 279.62 319.119C266.907 329.629 268.929 332.368 271.581 337.581C289.162 358.924 314.672 357.514 322.722 350.622C330.772 343.73 329.355 322.49 305.428 315.807Z" fill="#81786C"/>
<path d="M307.792 361.995C302.571 362.31 299.948 364.078 296.026 371.302C292.901 380.28 294.724 381.035 297.604 382.827C312.72 388.168 324.911 379.891 326.818 374.089C328.726 368.286 321.635 358.195 307.792 361.995Z" fill="#81786C"/>
<path d="M505.429 259.909C499.736 260.961 496.2 262.771 488.537 270.658" stroke="#5D5548" stroke-width="3.07119"/>
<path d="M656.655 284.425C650.89 283.904 646.996 284.693 637.491 290.223" stroke="#5D5548" stroke-width="3.07119"/>
<path d="M643.724 240.56L640.544 181.147L588.89 208.686L587.139 179.172L548.031 203.617L531.434 159.816L482.759 231.661C475.418 221.253 470.118 225.324 462.895 231.661C460.782 233.515 458.504 235.563 455.962 237.5C450.356 241.771 443.465 245.497 434.225 245.397C448.157 267.91 444.999 254.079 454.592 269.324C440.787 282.804 433.566 271.455 424.899 263C421.335 254.588 420.145 254.627 420 258.855C417.656 257.245 415.135 256.121 412.313 255.905C411.719 269.268 407.373 288.172 413.569 306C402.675 302.029 404 302 417.157 314C418.301 316.042 419.62 318.055 421.139 320.028C416.137 324.648 405.402 324.006 394.5 323.52C378.5 316 380.5 317 387.65 323.284C384.204 323.225 380.861 323.301 377.806 323.689C379.042 333.82 387.865 345.014 396.5 356.238C384.754 358.377 383.875 361.104 403 364.897C405.536 368.429 407.854 371.937 409.707 375.388C401.014 381.237 395.562 386.559 392.127 395C380.225 409.458 377.351 414.58 389.448 404C388.68 407.61 388.096 411.7 387.65 416.408C402.131 407.907 413.856 411.376 438.751 426.557L423.422 470.674L477.632 466.69C488.357 472.365 495.327 476.472 492.717 488.837C483.513 502.036 475.757 507.543 489.955 497.324C488.723 500.289 487.125 503.603 485.123 507.326C506.064 503.087 518.345 497.972 527.404 488.426C519.093 504.547 528.888 494.874 533.585 480.523C535.753 477.205 537.776 473.477 539.769 469.264C543.098 471.301 545.834 473.357 548.079 475.47C552.316 487.488 553.31 493.975 553.479 496.558C553.604 498.462 553.281 498.245 553.479 496.558C553.666 494.969 554.315 492.076 556.238 488.423C558.576 496.288 557.858 505.47 557.329 517.202C560.525 513.343 563.49 509.898 566.203 506.618C567.435 522.909 565.108 515.593 573.983 496.388C579.331 488.38 582.961 479.73 584.53 466.56C589.421 467.295 584.231 459.89 597.476 468.263C610.721 476.637 611.927 489.77 611.461 475.567C615.386 479 619.805 483.988 625.15 491.324C626.951 486.883 628.41 482.772 629.572 478.958C633.075 486.4 635.87 491.937 631.814 470.359C638.532 438.832 622.2 431.405 619.864 422.375C633.227 425.08 647.217 416.834 655.535 414.536C663.854 412.238 677.334 409.821 663.945 408.061C666.131 406.058 668.015 404.031 669.545 402.104C652.413 386.653 648.888 368.622 656.879 367.126L664.87 365.63C692.159 368.907 691.024 368.119 672.861 364.134L692.169 360.52C674.965 353.538 672.275 340.639 665.24 325.872C670.228 314.267 704.485 310.155 710.5 308C716.516 305.845 746.724 305.643 722.499 299C725.932 297.77 731.094 293.31 733.617 292.181C723.535 281.66 691.454 277.024 674.826 274.06C687.35 262.298 693.888 259.286 706.463 260.169C686.819 236.018 671.279 237.848 643.724 240.56Z" fill="url(#paint7_radial_1015_447)"/>
<path d="M728.371 130.24C714.796 134.684 673.937 168.099 633.193 173.094L679.316 237.48C693.513 236.376 705.554 234.912 715.95 233.039C719.07 224.764 724.781 225.748 731.112 229.722C733.966 230.544 736.508 230.127 738.654 227.521C739.247 216.584 745.924 215.787 755.859 220.397C758.824 220.393 761.566 220.555 764.725 215.113C766.871 205.167 770.99 204.556 775.675 206.598C778.133 204.428 780.541 202.133 782.953 199.708C795.969 179.007 794.394 151.26 786.271 136.728C778.148 122.195 741.945 125.795 728.371 130.24Z" fill="#746C5F"/>
<path d="M522.39 62.2196C531.877 72.8978 550.337 122.348 583.015 147.19L509.463 176.58C459.446 141.949 447.979 124.45 440.242 94.728C439.428 70.2883 454.768 47.1139 469.107 38.653C483.445 30.1921 512.903 51.5415 522.39 62.2196Z" fill="#7C7467"/>
<path d="M726.523 143.245C712.81 147.989 674.146 176.266 635.595 181.042L679.789 233.774C693.595 232.621 701.176 229.989 711.003 228.337C708.86 197.683 732.854 245.281 735.739 219.68C738.625 194.079 755.573 216.317 758.572 215.171C761.571 214.026 759.214 180.325 776.04 201.904C788.889 184.057 788.865 159.151 780.928 148.063C772.991 136.975 740.236 138.501 726.523 143.245Z" fill="url(#paint8_linear_1015_447)"/>
<path d="M517.431 74.3854C526.886 85.3922 546.038 129.297 576.933 152.846L512.19 176.131C465.094 143.12 453.759 127.003 445.104 100.108C442.996 78.2183 455.565 56.7161 468.008 51.1371C480.45 45.5582 507.976 63.3786 517.431 74.3854Z" fill="url(#paint9_linear_1015_447)"/>
<path d="M507.115 154.627C499.886 156.212 508.568 195.815 508.568 195.815L463.387 205.72C463.387 205.72 488.001 231.501 471.28 241.723C454.559 251.944 457.879 247.38 476.889 255.888C478.373 258.731 479.987 261.518 481.568 264.09C464.71 261.788 463.841 262.823 490.41 277.149L484.83 283.409C470.229 287.387 469.212 289.012 477.857 291.232L469.985 300.062C461.214 275.036 466.156 293.115 463.475 307.365C446.511 301.704 431.594 267.584 449.896 321.439C449.896 321.439 441.259 329.43 426.117 355.389C410.976 381.349 429.408 466.239 453.084 474.589C476.759 482.939 574.592 462.454 596.346 440.705C618.099 418.957 641.966 311.845 641.966 311.845C641.966 311.845 644.922 311.443 649.634 310.714C653.702 318.715 643.164 328.975 657.564 309.435C670.155 346.134 663.059 328.171 670.929 307.035C691.704 324.579 684.167 316.049 684.787 304.512C701.166 301 711.848 297.183 713.465 292.398C714.897 288.162 709.753 280.803 703.253 273.649C706.689 264.971 721.076 264.383 694.469 264.74C693.503 263.823 692.495 262.881 691.479 261.942C694.826 251.584 697.749 249.821 688.111 258.86C683.521 254.698 679.559 251.247 679.559 251.247C690.514 254.766 699.816 256.738 681.652 246.59C701.021 241.727 696.719 252.94 679.842 232.682C678.141 221.979 675.418 209.946 671.258 203.544C662.674 190.332 648.913 170.709 637.109 160.09C625.305 149.471 610.298 141.441 595.835 144.612C581.372 147.782 558.741 139.537 548.681 145.515C538.622 151.494 534.389 158.081 534.389 158.081C534.389 158.081 514.344 153.042 507.115 154.627Z" fill="url(#paint10_linear_1015_447)"/>
<path d="M612.726 210.49C596.127 210.426 556.766 225.969 544.093 258.868C579.575 284.227 615.942 267.191 624.376 246.824C632.81 226.457 657.248 211.841 657.248 211.841C657.248 211.841 629.324 210.555 612.726 210.49Z" fill="url(#paint11_linear_1015_447)"/>
<path d="M521.775 182.282C533.874 187.037 533.264 235.996 534.527 257.262C517.348 250.02 507.796 244.604 503.714 234.388C499.632 224.172 498.837 189.534 505.385 174.764C505.385 174.764 509.677 177.527 521.775 182.282Z" fill="url(#paint12_linear_1015_447)"/>
<path d="M563.89 179.171C553.555 184.717 540.884 194.592 546.709 222.165C575.023 222.284 584.924 203.931 583.309 188.438C581.695 172.945 580.241 169.881 580.241 169.881C580.241 169.881 574.225 173.624 563.89 179.171Z" fill="url(#paint13_linear_1015_447)"/>
<path d="M557.149 185.124C542.929 189.625 544.418 204.617 545.035 213.428C545.652 222.239 552.898 226.846 570.028 216.284C587.158 205.723 571.369 180.624 557.149 185.124Z" fill="#872D43"/>
<path d="M573.815 225.663C557.645 230.78 550.69 245.668 554.235 258.253C557.78 270.838 584.081 276.078 597.93 267.539C611.779 259 589.986 220.546 573.815 225.663Z" fill="#872D43"/>
<path d="M527.233 206.792C531.784 216.798 536.388 237.798 530.532 246.942C524.677 256.086 506.527 242.601 502.186 228.789C495.281 197.29 522.681 196.785 527.233 206.792Z" fill="#872D43"/>
<path d="M466.414 476.783C480.887 478.027 518.286 455.031 550.062 425.3C456.941 422.157 460.571 420.784 420.975 375.588C416.677 400.312 428.94 456.937 439.65 466.223C450.361 475.508 451.942 475.539 466.414 476.783Z" fill="#754E53"/>
<path d="M549.357 425.946C457.721 421.897 458.417 421.099 420.975 375.588C420.975 375.588 437.447 443.66 451.146 451.556C464.846 459.453 549.357 425.946 549.357 425.946Z" fill="#9D6774"/>
<path d="M593.068 335.872C593.052 346.648 606.537 410.81 592.312 444.303C595.131 441.6 596.604 443.281 601.66 434.628C606.053 427.109 613.791 408.237 616.929 401.935C623.682 381.16 646.806 322.878 641.246 309.413C635.686 295.947 642.258 290.87 639.693 287.201C637.127 283.532 593.084 325.095 593.068 335.872Z" fill="#9D6774"/>
<path d="M625.338 319.34L637.393 287.361C629.545 291.835 619.807 301.18 611.926 308.384C599.875 318.724 594.223 330.403 592.984 334.7L596.057 334.485L599.253 328.071L606.58 329.436L605.655 322.112L610.228 317.528L618.014 320.265L616.176 314.773L621.203 306.984L625.338 319.34Z" fill="#ECD66E"/>
<path d="M602.933 369.538L614.239 407.51C621.243 393.127 622.618 386.288 628.703 370.864L628.958 370.057C636.783 345.279 643.47 324.102 642.187 314.678L633.466 328.444L633.378 339.572L622.224 342.663L628.508 352.252L625.253 361.766L612.522 363.254L618.83 369.664L617.127 383.959L602.933 369.538Z" fill="#ECD66E"/>
</g>
<defs>
<linearGradient id="paint0_linear_1015_447" x1="383.312" y1="976.1" x2="472.982" y2="721" gradientUnits="userSpaceOnUse">
<stop stop-color="#898072"/>
<stop offset="1" stop-color="#6F6659"/>
</linearGradient>
<linearGradient id="paint1_linear_1015_447" x1="795.976" y1="980.259" x2="751.225" y2="751.913" gradientUnits="userSpaceOnUse">
<stop stop-color="#898072"/>
<stop offset="1" stop-color="#6F6659"/>
</linearGradient>
<linearGradient id="paint2_linear_1015_447" x1="729.738" y1="322.662" x2="915.773" y2="429.26" gradientUnits="userSpaceOnUse">
<stop stop-color="#898072"/>
<stop offset="1" stop-color="#6F6659"/>
</linearGradient>
<linearGradient id="paint3_linear_1015_447" x1="818.358" y1="418.398" x2="1038.53" y2="537.44" gradientUnits="userSpaceOnUse">
<stop stop-color="#989590"/>
<stop offset="1" stop-color="#8E8982"/>
</linearGradient>
<linearGradient id="paint4_linear_1015_447" x1="585.535" y1="286" x2="595.462" y2="588.04" gradientUnits="userSpaceOnUse">
<stop stop-color="#8A8173"/>
<stop offset="1" stop-color="#635A4E"/>
</linearGradient>
<linearGradient id="paint5_linear_1015_447" x1="466.4" y1="289.257" x2="250.023" y2="423.901" gradientUnits="userSpaceOnUse">
<stop stop-color="#898072"/>
<stop offset="1" stop-color="#6F6659"/>
</linearGradient>
<linearGradient id="paint6_linear_1015_447" x1="311.125" y1="390.47" x2="90.9519" y2="509.511" gradientUnits="userSpaceOnUse">
<stop stop-color="#989590"/>
<stop offset="1" stop-color="#8E8982"/>
</linearGradient>
<radialGradient id="paint7_radial_1015_447" cx="0" cy="0" r="1" gradientUnits="userSpaceOnUse" gradientTransform="translate(455.5 310.5) rotate(27.887) scale(366.19 387.15)">
<stop stop-color="#7E6B51"/>
<stop offset="0.415" stop-color="#867358"/>
<stop offset="1" stop-color="#A39889"/>
</radialGradient>
<linearGradient id="paint8_linear_1015_447" x1="790.844" y1="176.501" x2="647.358" y2="219.918" gradientUnits="userSpaceOnUse">
<stop stop-color="#754E53"/>
<stop offset="1" stop-color="#90686D"/>
</linearGradient>
<linearGradient id="paint9_linear_1015_447" x1="445.12" y1="70.701" x2="547.191" y2="180.495" gradientUnits="userSpaceOnUse">
<stop stop-color="#754E53"/>
<stop offset="1" stop-color="#90686D"/>
</linearGradient>
<linearGradient id="paint10_linear_1015_447" x1="506.046" y1="221.278" x2="623.749" y2="384.966" gradientUnits="userSpaceOnUse">
<stop stop-color="#968E81"/>
<stop offset="1" stop-color="#5C5547"/>
</linearGradient>
<linearGradient id="paint11_linear_1015_447" x1="596.039" y1="189.422" x2="572.872" y2="245.174" gradientUnits="userSpaceOnUse">
<stop stop-color="#ECD66E"/>
<stop offset="1" stop-color="#C3AD46"/>
</linearGradient>
<linearGradient id="paint12_linear_1015_447" x1="596.039" y1="189.422" x2="572.872" y2="245.174" gradientUnits="userSpaceOnUse">
<stop stop-color="#ECD66E"/>
<stop offset="1" stop-color="#C3AD46"/>
</linearGradient>
<linearGradient id="paint13_linear_1015_447" x1="553.886" y1="156.722" x2="558.256" y2="199.159" gradientUnits="userSpaceOnUse">
<stop stop-color="#ECD66E"/>
<stop offset="1" stop-color="#C3AD46"/>
</linearGradient>
<clipPath id="clip0_1015_447">
<rect width="1185" height="1011" fill="white"/>
</clipPath>
</defs>
</svg>
