<svg width="2880" height="1864" viewBox="0 0 2880 1864" fill="none" xmlns="http://www.w3.org/2000/svg">
<g clip-path="url(#clip0_599_805)">
<rect width="2880" height="1864" fill="url(#paint0_linear_599_805)"/>
<path d="M2902 131.165V1133L2862.77 1044.9C2853.88 1028.55 2852.12 1019.12 2862.77 1001.14L2831.51 959.719L2799.02 956.218L2770.83 943.382C2770.83 943.382 2761.63 939.882 2762.86 928.213C2764.08 916.544 2823.54 895.541 2823.54 895.541C2808.04 813.639 2814.72 815.715 2823.54 809.775L2770.83 740.346C2749.48 731.823 2748.76 672.667 2731.6 660.415C2714.43 648.163 2675.82 660.415 2675.82 660.415C2663.48 658.092 2662.02 653.496 2667.24 640.578L2655.59 594.487C2630.16 602.209 2620.75 580.438 2600.42 560.647C2600.42 560.647 2587.55 567.648 2571 560.647C2554.45 553.646 2529.93 505.804 2529.93 505.804C2485.4 488.345 2466.86 496.767 2427.57 494.135C2418.37 508.633 2414.33 517.12 2382.82 524.474C2351.78 524.142 2328.87 529.8 2308.04 518.64V512.222C2308.04 512.222 2300.69 516.306 2292.11 512.222C2283.52 508.138 2287.89 497.994 2265.13 494.135C2235.99 512.101 2230.88 501.105 2224.68 476.049H2168.29C2165.84 470.214 2127.85 462.775 2127.85 462.775L2040.87 518.64L1986.57 527.579C1974.81 519.167 1969.06 581.29 1936.95 546.845C1936.95 546.845 1928.77 599.972 1915.75 600.556C1902.72 601.14 1897.25 494.135 1890.24 481.457C1883.23 468.779 1861.05 457.52 1856.9 443.509C1852.76 429.497 1893.07 416.538 1883.87 418.288C1874.68 420.039 1856.9 403.702 1856.9 403.702L1833.61 356.444C1833.61 356.444 1824.42 362.862 1818.29 356.444C1812.16 350.026 1782.74 328.439 1782.74 328.439L1748.41 316.187C1728.87 309.268 1727.03 301.089 1725.12 285.848L1696.92 270.095L1687.11 257.843C1678 250.794 1672.24 249.67 1661.37 250.258C1661.37 250.258 1619.08 270.095 1606.82 270.095C1594.56 270.095 1563.91 249.091 1563.91 249.091L1546.75 246.174L1513.09 216.987L1502 131.165H2902Z" fill="url(#paint1_linear_599_805)"/>
<path d="M2138.33 52.5959C2186.39 51.8636 2211.4 -88.0571 2239.87 -123L-29 25.0345V946.717L510.477 739.859L547.19 676.568H602.649L664.357 577.537L702.632 560.411L743.25 585.728L759.654 644.551L789.336 663.91L830.736 484.462L871.354 501.588V606.576L926.813 695.928L959.62 640.083L977.586 532.117L1026.8 439.042L1038.51 433.83L1083.04 397.344L1121.31 416.704L1152.56 409.258L1193.96 405.535L1261.13 416.704L1291.59 405.535L1335.34 416.704L1387.67 519.458L1404.86 535.84L1426.73 485.207L1430.63 433.83L1454.07 401.812C1454.07 401.812 1495.47 327.352 1508.75 331.82C1522.02 336.287 1533.74 369.05 1533.74 369.05L1543.9 422.661C1555.25 422.392 1562.45 427.212 1568.89 397.344L1581.39 325.118L1619.66 280.443C1619.66 280.443 1629.82 302.036 1642.32 310.971C1654.81 319.906 1693.09 310.971 1693.09 310.971C1706.11 288.755 1705.82 280.432 1693.09 272.252L1761.05 256.616C1761.05 256.616 1748.55 280.443 1747.77 291.612C1746.99 302.781 1769.64 310.971 1769.64 310.971L1807.91 331.82C1818.09 335.323 1823.7 335.963 1832.91 325.118L1853.22 280.443C1853.22 280.443 1878.21 283.421 1888.37 272.252C1898.52 261.083 1919.61 217.152 1919.61 217.152C1931.1 217.985 1937.49 218.989 1950.08 205.983V185.134L1973.51 192.58V205.983L2007.88 217.152L2038.34 192.58L2021.94 169.498C2021.94 169.498 2052.4 180.667 2064.9 169.498C2077.4 158.329 2079.66 144.157 2082.09 124.822L2118.02 102.484C2129.73 85.2518 2135.16 74.9138 2138.33 52.5959Z" fill="url(#paint2_linear_599_805)"/>
<path d="M1494.96 64.328C1446.9 63.5957 1421.89 -48.0571 1393.42 -83H3297.78V810.414L3122.81 751.591L3086.1 688.3H3030.64L2968.93 589.269L2930.66 572.143L2890.04 597.46L2873.64 656.283L2843.95 675.642L2802.55 496.194L2761.94 513.32V618.308C2759.06 676.337 2726.65 662.185 2706.48 707.66C2686.3 753.135 2673.67 651.815 2673.67 651.815L2655.7 543.849L2606.49 450.774L2594.78 445.562L2550.25 409.077L2511.98 428.436L2480.73 420.99L2439.34 417.267L2372.16 428.436L2341.7 417.267L2297.95 428.436L2263.03 541.869C2263.03 541.869 2241.83 623.203 2231.79 604.356C2221.74 585.51 2206.56 496.939 2206.56 496.939L2202.66 445.562L2179.22 413.544C2179.22 413.544 2137.82 339.084 2124.55 343.552C2111.27 348.02 2099.55 380.782 2099.55 380.782L2089.39 434.393C2078.04 434.124 2070.84 438.945 2064.4 409.077L2051.9 336.851L2013.63 292.175C2013.63 292.175 2003.47 313.768 1990.97 322.703C1978.48 331.638 1940.2 322.703 1940.2 322.703C1927.18 300.487 1927.47 292.164 1940.2 283.984L1872.24 268.348C1872.24 268.348 1884.74 292.175 1885.52 303.344C1886.3 314.513 1863.65 322.703 1863.65 322.703L1825.38 343.552C1815.2 347.055 1809.59 347.695 1800.38 336.851L1780.07 292.175C1780.07 292.175 1755.08 295.153 1744.92 283.984C1734.77 272.815 1713.68 228.884 1713.68 228.884C1702.2 229.717 1695.8 230.721 1683.21 217.715V196.866L1659.78 204.312V217.715L1625.41 228.884L1594.95 204.312L1611.35 181.23C1611.35 181.23 1580.89 192.399 1568.39 181.23C1555.89 170.061 1553.63 155.889 1551.2 136.554L1515.27 114.216C1503.56 96.9839 1498.13 86.6459 1494.96 64.328Z" fill="url(#paint3_linear_599_805)"/>
<path opacity="0.75" d="M2202.43 444.018L2179 412L2297.73 426.892L2262.81 540.325C2262.81 540.325 2241.61 621.658 2231.56 602.812C2221.52 583.966 2206.34 495.395 2206.34 495.395L2202.43 444.018Z" fill="url(#paint4_linear_599_805)"/>
<path d="M1262.61 1205.64C1216.38 1192.47 1191.34 1188.88 1154 1214.12L2977.32 1763.76L3204.05 1011.64L3019.54 1017.46L2966.13 1067.46L2913.03 1051.46L2825.36 1128.46L2783.77 1133.81L2752.19 1097.85L2753.46 1036.8L2730.63 1009.69L2639.2 1169.56L2605.26 1141.44L2635.56 1040.92L2608.25 939.361L2560.72 983.36L2512.36 1081.55L2438.38 1156.46L2425.65 1158.07L2372.49 1180.15L2341.44 1150.56L2309.37 1148.68L2268.66 1140.29L2207.57 1110.21L2175.18 1112.11L2136.52 1088.79L2116.07 975.305L2104.34 954.661L2068.79 996.827L2050.22 1044.89L2018.54 1068.78C2018.54 1068.78 1957.42 1128.12 1945.99 1120.01C1934.57 1111.9 1932.8 1077.15 1932.8 1077.15L1938.56 1022.89C1927.6 1019.87 1922.11 1013.18 1907.32 1039.92L1874.5 1105.46L1824.96 1137.19C1824.96 1137.19 1821.47 1113.59 1812.09 1101.42C1802.7 1089.26 1763.48 1086.77 1763.48 1086.77C1744.59 1104.28 1742.47 1112.33 1752.3 1123.84L1682.72 1119.2C1682.72 1119.2 1701.56 1099.99 1705.54 1089.52C1709.51 1079.06 1690.18 1064.68 1690.18 1064.68L1659.55 1033.67C1650.83 1027.38 1645.64 1025.14 1633.69 1032.87L1601.35 1069.78C1601.35 1069.78 1578.28 1059.72 1565.33 1067.48C1552.39 1075.24 1519.51 1111.22 1519.51 1111.22C1508.76 1107.1 1502.93 1104.3 1487.12 1113.12L1481.1 1133.08L1460.82 1119.19L1464.69 1106.35L1435 1085.74L1398.74 1100.47L1407.79 1127.31C1407.79 1127.31 1381.84 1107.82 1366.65 1114.91C1351.46 1121.99 1345.21 1134.91 1337.31 1152.72L1296.46 1163.74C1280.27 1176.86 1272.08 1185.19 1262.61 1205.64Z" fill="url(#paint5_linear_599_805)"/>
<path d="M-3.70703 -1.00146V1143.1L46.2784 1041.67C57.6092 1022.84 59.8503 1011.98 46.2784 991.284L86.1105 943.588L127.505 939.557L163.432 924.778C163.432 924.778 175.147 920.748 173.585 907.312C172.023 893.877 96.2637 869.693 96.2637 869.693C116.012 775.391 107.504 777.782 96.2637 770.942L163.432 691.001C190.629 681.188 191.548 613.076 213.417 598.968C235.286 584.861 284.49 598.968 284.49 598.968C300.208 596.294 302.068 591.002 295.424 576.128L310.264 523.058C342.671 531.95 354.662 506.883 380.556 484.095C380.556 484.095 396.957 492.157 418.045 484.095C439.132 476.034 470.373 420.949 470.373 420.949C527.117 400.846 550.734 410.543 600.804 407.513C612.526 424.206 617.671 433.977 657.818 442.445C697.368 442.063 726.565 448.578 753.103 435.728C753.103 435.728 762.475 433.04 773.409 428.338C784.344 423.636 830.325 391.131 859.322 386.688L931.176 379.97C938.205 371.909 1045.99 343.023 1059.26 345.038C1062.39 338.32 1079.57 320.183 1079.57 320.183L1097.53 345.038L1142.05 332.275C1157.04 322.59 1172.49 327.226 1163.92 283.907L1211.56 277.189L1230.31 303.388H1252.96C1252.96 303.388 1290.28 343.023 1302 345.038C1313.72 347.054 1327.93 303.388 1327.93 303.388L1357.61 248.975C1357.61 248.975 1369.33 256.364 1377.14 248.975C1384.95 241.585 1422.44 216.73 1422.44 216.73L1466.18 202.622C1491.07 194.656 1493.42 185.239 1495.85 167.69L1531.78 149.552L1544.28 135.445C1555.89 127.329 1563.23 126.035 1577.08 126.712C1577.08 126.712 1630.97 149.552 1646.59 149.552C1662.21 149.552 1701.26 125.368 1701.26 125.368L1723.13 122.01H1766.09L1858 -1.00146H-3.70703Z" fill="url(#paint6_linear_599_805)"/>
<path d="M1327.37 303.414L1357.05 249L1211 277.214L1229.74 303.414H1252.39C1252.39 303.414 1289.72 343.048 1301.44 345.064C1313.15 347.079 1327.37 303.414 1327.37 303.414Z" fill="url(#paint7_linear_599_805)"/>
<path d="M1330.84 6.43701H-3.70703L-2.92614 806.865L22.8433 783.783C22.8433 783.783 43.9273 746.554 45.4891 736.874C47.0509 727.194 29.0904 694.433 29.0904 694.433L45.4891 649.758C48.0843 640.736 50.9292 638.473 58.7642 639.334C58.7642 639.334 75.9438 653.481 83.7528 649.758C91.5617 646.035 97.0279 634.866 95.4661 625.931C93.9043 616.996 83.7528 594.659 88.4381 587.213C93.1234 579.767 106.399 587.213 106.399 587.213L145.443 532.113C153.762 495.597 148.29 490.918 145.443 471.802C145.443 471.802 126.702 438.296 126.702 431.595C126.702 424.893 132.168 419.681 145.443 412.235C158.718 404.79 145.443 376.495 156.376 368.305C167.308 360.114 236.807 368.305 236.807 368.305C248.534 367.573 256.828 371.507 262.577 355.647L284.442 306.504C284.442 306.504 297.717 267.041 311.773 255.873C325.829 244.704 378.149 223.111 378.149 223.111C378.149 223.111 417.974 229.068 444.524 229.068C471.075 229.068 469.513 223.111 469.513 223.111L539.012 229.068C539.012 229.068 552.287 247.682 566.343 251.405C580.399 255.128 606.762 240.949 610.073 206.73C610.073 206.73 630.376 183.648 639.747 180.67C649.118 177.691 665.516 198.54 665.516 198.54L674.887 223.111C674.887 223.111 683.477 242.47 701.438 243.959C719.398 245.449 755.319 180.67 755.319 180.67V158.332C755.319 158.332 769.375 127.804 782.65 123.337C795.925 118.869 849.807 139.718 861.52 140.462C873.234 141.207 888.07 123.337 888.07 123.337L893.537 94.2979C893.537 94.2979 891.194 73.4496 907.593 71.2158C923.991 68.9821 950.542 118.869 956.789 118.869C963.036 118.869 984.12 109.19 984.12 109.19C984.12 109.19 1054.4 93.5534 1064.55 99.51C1074.7 105.467 1069.24 119.614 1074.7 123.337C1080.17 127.06 1093.44 123.337 1093.44 123.337C1093.44 123.337 1119.99 147.908 1134.05 146.419C1148.11 144.93 1181.69 94.2979 1181.69 94.2979L1210.58 71.2158C1210.58 71.2158 1220.73 49.6229 1228.54 42.9216C1236.35 36.2204 1255.09 42.9216 1255.09 42.9216C1255.09 42.9216 1277.73 48.8783 1289.45 49.6229C1301.16 50.3675 1316.78 26.5408 1316.78 26.5408L1330.84 6.43701Z" fill="url(#paint8_linear_599_805)"/>
<path d="M1677.59 -20.5129H3012.13L3011.35 779.915L2985.58 756.833C2985.58 756.833 2964.49 719.604 2962.93 709.924C2961.37 700.245 2979.33 667.483 2979.33 667.483L2962.93 622.808C2960.34 613.786 2957.49 611.523 2949.66 612.384C2949.66 612.384 2932.48 626.531 2924.67 622.808C2916.86 619.085 2911.39 607.916 2912.96 598.981C2914.52 590.046 2924.67 567.709 2919.98 560.263C2915.3 552.817 2902.02 560.263 2902.02 560.263L2862.98 505.163C2854.66 468.647 2860.13 463.968 2862.98 444.852C2862.98 444.852 2881.72 411.346 2881.72 404.645C2881.72 397.943 2876.25 392.731 2862.98 385.285C2849.7 377.84 2862.98 349.545 2852.05 341.355C2841.11 333.165 2771.61 341.355 2771.61 341.355C2759.89 340.623 2751.59 344.557 2745.85 328.697L2723.98 279.554C2723.98 279.554 2710.71 240.092 2696.65 228.923C2682.59 217.754 2630.27 196.161 2630.27 196.161C2630.27 196.161 2590.45 202.118 2563.9 202.118C2537.35 202.118 2538.91 196.161 2538.91 196.161L2469.41 202.118C2469.41 202.118 2456.13 220.732 2442.08 224.455C2428.02 228.178 2401.66 213.999 2398.35 179.78C2398.35 179.78 2378.05 156.698 2368.67 153.72C2359.3 150.741 2342.91 171.59 2342.91 171.59L2333.53 196.161C2333.53 196.161 2324.94 215.52 2306.98 217.009C2289.02 218.499 2253.1 153.72 2253.1 153.72V131.382C2253.1 131.382 2239.05 100.854 2225.77 96.3868C2212.5 91.9193 2158.62 112.768 2146.9 113.512C2135.19 114.257 2120.35 96.3868 2120.35 96.3868L2114.89 67.348C2114.89 67.348 2117.23 46.4996 2100.83 44.2659C2084.43 42.0321 2057.88 91.9193 2051.63 91.9193C2045.39 91.9193 2024.3 82.2397 2024.3 82.2397C2024.3 82.2397 1954.02 66.6034 1943.87 72.5601C1933.72 78.5168 1939.18 92.6638 1933.72 96.3868C1928.25 100.11 1914.98 96.3868 1914.98 96.3868C1914.98 96.3868 1888.43 120.958 1874.37 119.469C1860.31 117.98 1826.74 67.348 1826.74 67.348L1797.84 44.2659C1797.84 44.2659 1787.69 22.6729 1779.88 15.9717C1772.07 9.27043 1753.33 15.9717 1753.33 15.9717C1753.33 15.9717 1730.69 21.9284 1718.97 22.6729C1707.26 23.4175 1691.64 -0.409168 1691.64 -0.409168L1677.59 -20.5129Z" fill="url(#paint9_linear_599_805)"/>
<path d="M3151.98 1889.52V613L3102 725.254C3090.66 746.084 3088.42 758.107 3102 781.01L3062.16 833.792L3020.77 838.252L2984.84 854.607C2984.84 854.607 2973.13 859.068 2974.69 873.936C2976.25 888.804 3052.01 915.566 3052.01 915.566C3032.26 1019.92 3040.77 1017.28 3052.01 1024.85L2984.84 1113.31C2957.64 1124.17 2956.73 1199.55 2934.86 1215.16C2912.99 1230.77 2863.78 1215.16 2863.78 1215.16C2848.07 1218.12 2846.21 1223.98 2852.85 1240.43L2838.01 1299.16C2805.6 1289.32 2793.61 1317.06 2767.72 1342.28C2767.72 1342.28 2751.32 1333.36 2730.23 1342.28C2709.14 1351.2 2677.9 1412.16 2677.9 1412.16C2621.16 1434.41 2597.54 1423.68 2547.47 1427.03C2535.75 1408.56 2530.6 1397.74 2490.46 1388.37C2450.91 1388.8 2421.71 1381.59 2395.17 1395.81V1403.98C2395.17 1403.98 2385.8 1398.78 2374.86 1403.98C2363.93 1409.19 2369.5 1422.11 2340.5 1427.03C2303.36 1404.14 2296.86 1418.15 2288.95 1450.07H2217.1C2217.1 1450.07 2168.67 1426.29 2161.65 1435.21C2154.62 1444.13 2161.65 1470.15 2148.37 1467.92C2135.09 1465.69 2119.47 1457.51 2119.47 1457.51L2089.01 1479.81C2089.01 1479.81 2092.13 1488.73 2089.01 1496.17C2085.89 1503.6 2068.7 1523.67 2068.7 1523.67L2050.74 1496.17L2006.22 1510.29C1991.23 1521.01 1975.78 1515.88 1984.35 1563.82L1936.71 1571.25L1917.97 1542.26H1895.32C1895.32 1542.26 1866.42 1525.9 1854.7 1523.67C1842.99 1521.44 1820.34 1542.26 1820.34 1542.26L1790.66 1602.47C1790.66 1602.47 1778.94 1594.3 1771.13 1602.47C1763.32 1610.65 1725.83 1638.16 1725.83 1638.16L1682.1 1653.77C1657.2 1662.58 1654.85 1673 1652.42 1692.43L1616.49 1712.5L1604 1728.11C1592.38 1737.09 1585.04 1738.52 1571.19 1737.77C1571.19 1737.77 1517.3 1712.5 1501.68 1712.5C1486.06 1712.5 1447.01 1739.26 1447.01 1739.26L1425.14 1742.98L1382.26 1780.17L1368.13 1889.52H3151.98Z" fill="url(#paint10_linear_599_805)"/>
<path opacity="0.75" d="M2656.21 544.075L2607 451L2762.44 513.546V618.534C2759.57 676.563 2727.16 662.411 2706.98 707.886C2686.81 753.361 2674.18 652.041 2674.18 652.041L2656.21 544.075Z" fill="url(#paint11_linear_599_805)"/>
<path opacity="0.15" d="M922.063 720.219C938.114 722.307 953.085 708.68 955.503 689.781C957.92 670.883 946.869 653.87 930.818 651.781C914.767 649.693 899.796 663.32 897.378 682.219C894.961 701.117 906.012 718.13 922.063 720.219Z" fill="#FFFBFB"/>
<path opacity="0.3" fill-rule="evenodd" clip-rule="evenodd" d="M939.445 689.013C938.281 698.109 931.04 704.653 923.309 703.647C915.578 702.641 910.221 694.458 911.385 685.362C912.548 676.266 919.789 669.722 927.52 670.728C935.251 671.734 940.608 679.917 939.445 689.013Z" fill="white"/>
<path opacity="0.15" d="M1300.06 369.219C1316.11 371.307 1331.09 357.68 1333.5 338.781C1335.92 319.883 1324.87 302.87 1308.82 300.781C1292.77 298.693 1277.8 312.32 1275.38 331.219C1272.96 350.117 1284.01 367.13 1300.06 369.219Z" fill="#FFFBFB"/>
<path opacity="0.3" fill-rule="evenodd" clip-rule="evenodd" d="M1317.44 338.013C1316.28 347.109 1309.04 353.653 1301.31 352.647C1293.58 351.641 1288.22 343.458 1289.38 334.362C1290.55 325.266 1297.79 318.722 1305.52 319.728C1313.25 320.734 1318.61 328.917 1317.44 338.013Z" fill="white"/>
<path opacity="0.15" d="M1397.06 557.219C1413.11 559.307 1428.09 545.68 1430.5 526.781C1432.92 507.883 1421.87 490.87 1405.82 488.781C1389.77 486.693 1374.8 500.32 1372.38 519.219C1369.96 538.117 1381.01 555.13 1397.06 557.219Z" fill="#FFFBFB"/>
<path opacity="0.3" fill-rule="evenodd" clip-rule="evenodd" d="M1414.44 526.013C1413.28 535.109 1406.04 541.653 1398.31 540.647C1390.58 539.641 1385.22 531.458 1386.38 522.362C1387.55 513.266 1394.79 506.722 1402.52 507.728C1410.25 508.734 1415.61 516.917 1414.44 526.013Z" fill="white"/>
<path opacity="0.15" d="M2234.06 633.219C2250.11 635.307 2265.09 621.68 2267.5 602.781C2269.92 583.883 2258.87 566.87 2242.82 564.781C2226.77 562.693 2211.8 576.32 2209.38 595.219C2206.96 614.117 2218.01 631.13 2234.06 633.219Z" fill="#FFFBFB"/>
<path opacity="0.3" fill-rule="evenodd" clip-rule="evenodd" d="M2251.44 602.013C2250.28 611.109 2243.04 617.653 2235.31 616.647C2227.58 615.641 2222.22 607.458 2223.38 598.362C2224.55 589.266 2231.79 582.722 2239.52 583.728C2247.25 584.734 2252.61 592.917 2251.44 602.013Z" fill="white"/>
<path opacity="0.15" d="M2692.06 743.219C2708.11 745.307 2723.09 731.68 2725.5 712.781C2727.92 693.883 2716.87 676.87 2700.82 674.781C2684.77 672.693 2669.8 686.32 2667.38 705.219C2664.96 724.117 2676.01 741.13 2692.06 743.219Z" fill="#FFFBFB"/>
<path opacity="0.3" fill-rule="evenodd" clip-rule="evenodd" d="M2709.44 712.013C2708.28 721.109 2701.04 727.653 2693.31 726.647C2685.58 725.641 2680.22 717.458 2681.38 708.362C2682.55 699.266 2689.79 692.722 2697.52 693.728C2705.25 694.734 2710.61 702.917 2709.44 712.013Z" fill="white"/>
<g style="mix-blend-mode:screen">
<path d="M200.063 165.219C216.114 167.307 231.085 153.68 233.503 134.781C235.92 115.883 224.869 98.87 208.818 96.7815C192.767 94.693 177.796 108.32 175.378 127.219C172.961 146.117 184.012 163.13 200.063 165.219Z" fill="#1A1A1A"/>
</g>
<g style="mix-blend-mode:screen">
<path fill-rule="evenodd" clip-rule="evenodd" d="M217.445 134.013C216.281 143.109 209.04 149.653 201.309 148.647C193.578 147.641 188.221 139.458 189.385 130.362C190.548 121.266 197.789 114.722 205.52 115.728C213.251 116.734 218.608 124.917 217.445 134.013Z" fill="#606060"/>
</g>
<g style="mix-blend-mode:screen">
<path d="M354.062 156.218C370.113 158.307 385.085 144.68 387.502 125.781C389.92 106.883 378.868 89.8699 362.818 87.7814C346.767 85.6929 331.795 99.32 329.378 118.218C326.96 137.117 338.012 154.13 354.062 156.218Z" fill="#1A1A1A"/>
<path fill-rule="evenodd" clip-rule="evenodd" d="M371.445 125.013C370.281 134.109 363.04 140.653 355.309 139.647C347.578 138.641 342.221 130.458 343.385 121.362C344.548 112.266 351.79 105.722 359.52 106.728C367.251 107.734 372.609 115.917 371.445 125.013Z" fill="#606060"/>
</g>
</g>
<defs>
<linearGradient id="paint0_linear_599_805" x1="1816.88" y1="23.3689" x2="1682.97" y2="1452.81" gradientUnits="userSpaceOnUse">
<stop offset="0.426847" stop-color="#528ABB"/>
<stop offset="0.657057" stop-color="#4C7396"/>
</linearGradient>
<linearGradient id="paint1_linear_599_805" x1="2480.95" y1="343.604" x2="2432.61" y2="564.359" gradientUnits="userSpaceOnUse">
<stop stop-color="#517BAE"/>
<stop offset="1" stop-color="#496A92"/>
</linearGradient>
<linearGradient id="paint2_linear_599_805" x1="1225.2" y1="254.153" x2="1417.59" y2="798.682" gradientUnits="userSpaceOnUse">
<stop stop-color="#507AAD"/>
<stop offset="1" stop-color="#405875"/>
</linearGradient>
<linearGradient id="paint3_linear_599_805" x1="2408.09" y1="265.885" x2="2215.7" y2="810.415" gradientUnits="userSpaceOnUse">
<stop stop-color="#28396B"/>
<stop offset="1" stop-color="#4D5E93"/>
</linearGradient>
<linearGradient id="paint4_linear_599_805" x1="2255.5" y1="409.5" x2="2230" y2="715.5" gradientUnits="userSpaceOnUse">
<stop stop-color="#354679" stop-opacity="0.5"/>
<stop offset="1" stop-color="#8E208E"/>
</linearGradient>
<linearGradient id="paint5_linear_599_805" x1="2195.05" y1="1276.21" x2="2168.01" y2="699.329" gradientUnits="userSpaceOnUse">
<stop stop-color="#446A99"/>
<stop offset="1" stop-color="#405875"/>
</linearGradient>
<linearGradient id="paint6_linear_599_805" x1="488.006" y1="197.974" x2="706.232" y2="943.67" gradientUnits="userSpaceOnUse">
<stop stop-color="#28396B"/>
<stop offset="1" stop-color="#4D5E93"/>
</linearGradient>
<linearGradient id="paint7_linear_599_805" x1="1270.5" y1="263.5" x2="1295.93" y2="401.794" gradientUnits="userSpaceOnUse">
<stop stop-color="#354679" stop-opacity="0.5"/>
<stop offset="1" stop-color="#8E208E"/>
</linearGradient>
<linearGradient id="paint8_linear_599_805" x1="394.275" y1="242.995" x2="488.006" y2="459.467" gradientUnits="userSpaceOnUse">
<stop stop-color="#20273F"/>
<stop offset="1" stop-color="#3B4463"/>
</linearGradient>
<linearGradient id="paint9_linear_599_805" x1="2614.15" y1="216.045" x2="2520.42" y2="432.517" gradientUnits="userSpaceOnUse">
<stop stop-color="#20273F"/>
<stop offset="1" stop-color="#3B4463"/>
</linearGradient>
<linearGradient id="paint10_linear_599_805" x1="2688.54" y1="1591.22" x2="2312.87" y2="818.315" gradientUnits="userSpaceOnUse">
<stop stop-color="#435383"/>
<stop offset="1" stop-color="#3E4D7A"/>
</linearGradient>
<linearGradient id="paint11_linear_599_805" x1="2735.5" y1="443.5" x2="2640" y2="770.5" gradientUnits="userSpaceOnUse">
<stop offset="0.00714065" stop-color="#28396B" stop-opacity="0.5"/>
<stop offset="1" stop-color="#8669B5"/>
</linearGradient>
<clipPath id="clip0_599_805">
<rect width="2880" height="1864" fill="white"/>
</clipPath>
</defs>
</svg>
