<svg width="66" height="63" viewBox="0 0 66 63" fill="none" xmlns="http://www.w3.org/2000/svg">
<g opacity="0.8" filter="url(#filter0_d_1045_2350)">
<path d="M21.4777 8.53448C12.7101 6.67759 11.4282 9.84793 11.4282 9.84793L21.0366 46.0156C21.0366 46.0156 32.516 36.5598 30.28 20.6161C27.9486 10.1363 21.4777 8.53448 21.4777 8.53448Z" fill="#D0D5E0"/>
</g>
<path opacity="0.65" d="M14.7188 11.8334C28.6521 8.04102 29.2579 26.2993 27.6751 32.2373C25.9074 38.172 22.3067 43.1975 22.3067 43.1975L14.7188 11.8334Z" fill="url(#paint0_linear_1045_2350)"/>
<g opacity="0.8" filter="url(#filter1_d_1045_2350)">
<path d="M41.8388 6.61788C35.7614 7.74124 38.3011 43.4769 38.3011 43.4769C38.3011 43.4769 52.6431 31.6086 54.6888 17.2423C56.7314 3.05166 41.8388 6.61788 41.8388 6.61788Z" fill="#D0D5E0"/>
</g>
<path opacity="0.65" d="M40.9852 11.5296C48.8488 9.27276 53.0505 12.4935 52.2855 20.1063C52.4524 21.4773 43.9114 37.7175 40.6354 39.5415C37.1687 41.362 40.9852 11.5296 40.9852 11.5296Z" fill="url(#paint1_linear_1045_2350)"/>
<defs>
<filter id="filter0_d_1045_2350" x="0.388223" y="2.43119" width="41.2206" height="60.1444" filterUnits="userSpaceOnUse" color-interpolation-filters="sRGB">
<feFlood flood-opacity="0" result="BackgroundImageFix"/>
<feColorMatrix in="SourceAlpha" type="matrix" values="0 0 0 0 0 0 0 0 0 0 0 0 0 0 0 0 0 0 127 0" result="hardAlpha"/>
<feOffset dy="5.52"/>
<feGaussianBlur stdDeviation="5.52"/>
<feComposite in2="hardAlpha" operator="out"/>
<feColorMatrix type="matrix" values="0 0 0 0 1 0 0 0 0 1 0 0 0 0 1 0 0 0 0.55 0"/>
<feBlend mode="normal" in2="BackgroundImageFix" result="effect1_dropShadow_1045_2350"/>
<feBlend mode="normal" in="SourceGraphic" in2="effect1_dropShadow_1045_2350" result="shape"/>
</filter>
<filter id="filter1_d_1045_2350" x="26.7347" y="0.698872" width="39.1864" height="59.3381" filterUnits="userSpaceOnUse" color-interpolation-filters="sRGB">
<feFlood flood-opacity="0" result="BackgroundImageFix"/>
<feColorMatrix in="SourceAlpha" type="matrix" values="0 0 0 0 0 0 0 0 0 0 0 0 0 0 0 0 0 0 127 0" result="hardAlpha"/>
<feOffset dy="5.52"/>
<feGaussianBlur stdDeviation="5.52"/>
<feComposite in2="hardAlpha" operator="out"/>
<feColorMatrix type="matrix" values="0 0 0 0 1 0 0 0 0 1 0 0 0 0 1 0 0 0 0.55 0"/>
<feBlend mode="normal" in2="BackgroundImageFix" result="effect1_dropShadow_1045_2350"/>
<feBlend mode="normal" in="SourceGraphic" in2="effect1_dropShadow_1045_2350" result="shape"/>
</filter>
<linearGradient id="paint0_linear_1045_2350" x1="21.6411" y1="11.3772" x2="21.0861" y2="43.1762" gradientUnits="userSpaceOnUse">
<stop stop-color="#6580B2"/>
<stop offset="1" stop-color="#45587D"/>
</linearGradient>
<linearGradient id="paint1_linear_1045_2350" x1="46.041" y1="10.8311" x2="45.5369" y2="39.7122" gradientUnits="userSpaceOnUse">
<stop stop-color="#6580B2"/>
<stop offset="1" stop-color="#45587D"/>
</linearGradient>
</defs>
</svg>
