<svg width="520" height="560" viewBox="0 0 520 560" fill="none" xmlns="http://www.w3.org/2000/svg">
<ellipse cx="215.924" cy="500.016" rx="126" ry="59.5" fill="url(#paint0_radial_864_608)"/>
<path d="M127.417 217.615C127.147 216.608 125.859 216.094 124.563 216.628C123.304 217.087 122.428 218.328 122.698 219.335L122.728 219.447C123.193 221.612 122.932 223.858 121.883 225.96C119.562 230.615 114.184 232.452 109.935 230.13C108.789 229.504 107.792 228.577 107.073 227.61C106.556 226.754 105.252 226.615 104.084 227.41C102.915 228.204 102.346 229.517 102.826 230.448C102.826 230.448 102.826 230.448 102.893 230.485C104.063 232.271 105.621 233.792 107.577 234.86C114.253 238.51 122.568 235.602 126.162 228.394C127.959 224.79 128.28 221.048 127.417 217.615Z" fill="#8E8B97"/>
<path opacity="0.25" d="M122.766 219.372C123.171 221.313 123.021 223.334 122.22 225.284C122.333 225.059 122.445 224.834 122.52 224.684C123.418 222.882 123.755 219.626 123.147 217.574C122.825 217.876 122.481 218.739 122.766 219.372Z" fill="#46395B"/>
<path opacity="0.25" d="M108.138 233.734C106.318 232.739 105.059 231.477 103.807 230.029C103.477 229.658 103.118 229.174 102.893 228.765C102.706 229.14 102.609 229.852 102.863 230.373C104.032 232.159 105.659 233.716 107.614 234.785C114.29 238.434 122.605 235.527 126.199 228.319C126.386 227.943 126.573 227.568 126.656 227.231C122.889 233.58 115.623 237.825 108.138 233.734Z" fill="#46395B"/>
<path opacity="0.3" d="M125.936 223.685C125.524 223.651 125.029 223.954 124.91 224.366C124.752 224.853 124.595 225.341 124.371 225.791C122.941 228.831 120.409 230.983 117.585 231.828C117.165 231.98 116.873 232.394 116.956 232.917C117.001 233.515 117.54 233.81 118.027 233.694C121.376 232.658 124.402 230.203 126.026 226.601C126.288 226.075 126.483 225.513 126.678 224.95C126.872 224.388 126.483 223.793 125.936 223.685Z" fill="#9C8C9A"/>
<path d="M180.061 466.318C181.02 466.597 181.529 467.96 181.212 469.364C180.895 470.769 179.816 471.792 178.856 471.513C178.784 471.486 178.784 471.486 178.712 471.458C176.739 471.06 174.593 471.404 172.777 472.682C168.679 475.419 167.401 481.305 169.832 485.83C170.467 487.062 171.353 488.031 172.393 488.789C173.2 489.278 173.439 490.717 172.763 491.984C172.159 493.279 170.946 493.981 170.067 493.464C170.067 493.464 170.067 493.464 169.996 493.437C168.293 492.244 166.753 490.575 165.662 488.54C161.817 481.497 163.892 472.325 170.301 468.05C173.401 466.097 176.813 465.61 180.061 466.318Z" fill="url(#paint1_linear_864_608)"/>
<path opacity="0.25" d="M178.713 471.458C176.954 471.142 175.006 471.382 173.299 472.343C173.496 472.24 173.649 472.029 173.847 471.925C175.438 470.83 178.437 470.364 180.356 470.922C180.05 471.343 179.331 471.785 178.713 471.458Z" fill="#46395B"/>
<path opacity="0.25" d="M166.579 487.994C167.625 489.922 168.861 491.294 170.321 492.483C170.769 492.835 171.145 493.159 171.549 493.404C171.225 493.639 170.615 493.764 170.068 493.464C168.365 492.271 166.825 490.602 165.662 488.54C161.818 481.496 163.892 472.325 170.301 468.049C170.625 467.814 170.921 467.659 171.316 467.451C165.697 472.03 162.278 480.146 166.579 487.994Z" fill="#46395B"/>
<path opacity="0.3" d="M174.537 468.238C174.617 468.718 174.382 469.167 173.987 469.374C173.592 469.582 173.125 469.762 172.729 469.969C170.051 471.635 168.277 474.456 167.678 477.639C167.587 478.143 167.165 478.43 166.752 478.451C166.195 478.417 165.873 477.934 165.991 477.351C166.681 473.664 168.717 470.315 171.916 468.31C172.41 468.051 172.904 467.791 173.399 467.532C173.821 467.245 174.413 467.652 174.537 468.238Z" fill="#575878"/>
<path opacity="0.45" d="M180.061 466.318C181.02 466.597 181.529 467.96 181.212 469.364C180.895 470.769 179.816 471.792 178.856 471.513C178.784 471.486 178.784 471.486 178.712 471.458C176.739 471.06 174.593 471.404 172.777 472.682C168.679 475.419 167.401 481.305 169.832 485.83C170.467 487.062 171.353 488.031 172.393 488.789C173.2 489.278 173.439 490.717 172.763 491.984C172.159 493.279 170.946 493.981 170.067 493.464C170.067 493.464 170.067 493.464 169.996 493.437C168.293 492.244 166.753 490.575 165.662 488.54C161.817 481.497 163.892 472.325 170.301 468.05C173.401 466.097 176.813 465.61 180.061 466.318Z" fill="#BEBEBE"/>
<path d="M100.597 270.888C96.2665 269.763 93.7706 264.959 95.0279 260.2L98.0216 249.033C99.279 244.274 103.841 241.322 108.171 242.447C110.216 242.991 111.955 244.324 113.011 246.335C114.136 248.382 114.384 250.811 113.74 253.134L110.746 264.301C109.556 269.097 104.995 272.049 100.597 270.888ZM106.876 247.281C104.966 246.81 102.951 248.097 102.419 250.195L99.4258 261.362C98.8944 263.46 99.9812 265.583 101.892 266.054C103.802 266.525 105.817 265.237 106.348 263.139L109.342 251.972C109.589 250.961 109.529 249.877 109.012 249.021C108.532 248.09 107.798 247.498 106.876 247.281Z" fill="url(#paint2_linear_864_608)"/>
<g opacity="0.35">
<path d="M107.589 262.195L110.583 251.028C110.83 250.016 110.769 248.932 110.252 248.076C109.803 247.257 109.001 246.628 108.117 246.336C106.821 246.01 105.562 246.468 104.626 247.485C105.293 247.181 106.124 247.062 106.873 247.281C107.795 247.498 108.529 248.09 109.009 249.021C109.489 249.952 109.586 250.961 109.339 251.973L106.346 263.139C106.181 263.814 105.814 264.377 105.38 264.904C106.398 264.41 107.297 263.468 107.589 262.195Z" fill="#26366F"/>
<path d="M101.905 269.98C97.5743 268.855 95.0784 264.051 96.3357 259.292L99.3294 248.125C99.8534 246.214 100.917 244.598 102.205 243.391C100.228 244.603 98.6698 246.523 98.0187 249.033L95.025 260.2C93.7676 264.959 96.2635 269.763 100.594 270.888C103.186 271.54 105.868 270.808 107.868 269.035C106.137 270.096 103.95 270.525 101.905 269.98Z" fill="#26366F"/>
</g>
<path opacity="0.3" d="M108.951 245.357C110.27 245.983 111.289 247.208 111.709 248.776C111.979 249.783 111.867 250.868 111.62 251.88L111.051 254.053C111.051 254.053 110.849 254.803 110.692 255.29C110.572 255.702 110.797 256.112 111.134 256.296C111.576 256.442 112.033 256.214 112.19 255.727C112.953 252.991 113.126 252.13 113.126 252.13C113.649 250.219 113.417 248.276 112.555 246.563C111.82 245.11 110.509 244.298 109.632 243.819C109.228 243.598 108.733 243.901 108.614 244.313C108.389 244.763 108.576 245.248 108.951 245.357Z" fill="#575878"/>
<path opacity="0.3" d="M101.615 266.954C100.296 266.328 99.2769 265.103 98.857 263.535C98.587 262.528 98.6991 261.443 98.9461 260.431L99.0733 259.832C99.0733 259.832 99.2753 259.082 99.4325 258.595C99.5523 258.183 99.3274 257.773 98.9903 257.589C98.5482 257.443 98.0913 257.671 97.9341 258.158C97.1707 260.894 97.4402 260.181 97.4402 260.181C96.9163 262.092 97.149 264.035 98.011 265.748C98.7456 267.201 100.057 268.013 100.933 268.492C101.338 268.713 101.832 268.41 101.952 267.998C102.109 267.511 101.989 267.063 101.615 266.954Z" fill="#575878"/>
<path d="M95.6472 307.832C91.1521 307.382 88.087 303.031 88.7299 298.128L90.2178 286.711C90.8608 281.808 95.0326 278.26 99.5277 278.71C101.655 278.918 103.573 280.062 104.847 281.809C106.151 283.669 106.781 286.019 106.445 288.415L104.957 299.832C104.284 304.623 100.075 308.246 95.6472 307.832ZM98.8472 283.689C96.8919 283.48 95.0719 285.065 94.7803 287.199L93.2924 298.615C93.0008 300.749 94.3722 302.645 96.3276 302.854C98.2829 303.063 100.103 301.478 100.395 299.344L101.882 287.928C102.062 286.879 101.792 285.872 101.17 285.054C100.548 284.236 99.7762 283.719 98.8472 283.689Z" fill="url(#paint3_linear_864_608)"/>
<g opacity="0.35">
<path d="M101.473 298.214L102.961 286.797C103.141 285.749 102.871 284.741 102.249 283.924C101.694 283.143 100.818 282.664 99.9262 282.559C98.6226 282.419 97.3567 283.065 96.6228 284.193C97.2595 283.776 98.0236 283.621 98.7802 283.652C99.6718 283.757 100.548 284.236 101.103 285.017C101.725 285.835 101.927 286.805 101.815 287.891L100.328 299.307C100.23 300.018 99.9308 300.619 99.5639 301.183C100.59 300.502 101.354 299.486 101.473 298.214Z" fill="#26366F"/>
<path d="M96.7934 306.739C92.2983 306.288 89.2332 301.938 89.8762 297.034L91.364 285.618C91.6482 283.671 92.4418 281.907 93.6326 280.552C91.85 282.062 90.5246 284.203 90.2181 286.711L88.7303 298.128C88.0873 303.031 91.1524 307.382 95.6475 307.832C98.322 308.148 100.921 306.893 102.689 304.898C101.018 306.182 98.921 306.947 96.7934 306.739Z" fill="#26366F"/>
</g>
<path opacity="0.3" d="M100.622 281.506C102.053 281.906 103.185 282.907 103.777 284.472C104.152 285.442 104.249 286.45 104.137 287.536L103.876 289.781C103.876 289.781 103.779 290.493 103.719 291.129C103.666 291.578 103.929 291.912 104.303 292.022C104.745 292.168 105.172 291.828 105.262 291.304C105.651 288.459 105.756 287.56 105.756 287.56C106.04 285.614 105.53 283.711 104.488 282.186C103.574 280.922 102.12 280.223 101.236 279.931C100.794 279.785 100.3 280.088 100.21 280.612C100.023 280.987 100.248 281.397 100.622 281.506Z" fill="#575878"/>
<path opacity="0.3" d="M96.1182 303.791C94.6872 303.391 93.5557 302.39 92.9635 300.824C92.5886 299.855 92.491 298.846 92.6031 297.761L92.6628 297.125C92.6628 297.125 92.76 296.413 92.8198 295.777C92.8721 295.328 92.6098 294.994 92.2352 294.884C91.7932 294.738 91.3663 295.078 91.2765 295.603C90.8877 298.447 91.0223 297.661 91.0223 297.661C90.7382 299.608 91.2481 301.511 92.2898 303.036C93.2041 304.3 94.6576 304.999 95.5417 305.291C95.9837 305.437 96.4781 305.134 96.5679 304.61C96.6502 304.273 96.4928 303.9 96.1182 303.791Z" fill="#575878"/>
<path d="M95.9494 344.401C91.4246 344.699 87.7528 340.876 87.7065 335.978L87.6811 324.499C87.6349 319.601 91.3496 315.421 95.8744 315.123C98.0169 314.957 100.085 315.8 101.643 317.321C103.232 318.954 104.109 321.153 104.117 323.546L104.143 335.026C104.151 339.999 100.437 344.179 95.9494 344.401ZM95.9132 320.208C93.9804 320.298 92.3552 322.181 92.3408 324.275L92.3662 335.754C92.3518 337.848 94.0078 339.518 95.9406 339.428C97.8734 339.338 99.4986 337.455 99.513 335.361L99.4876 323.882C99.4948 322.835 99.12 321.866 98.4231 321.198C97.7262 320.531 96.8121 320.126 95.9132 320.208Z" fill="url(#paint4_linear_864_608)"/>
<g opacity="0.35">
<path d="M100.494 334.082L100.469 322.603C100.476 321.556 100.101 320.587 99.4045 319.919C98.7077 319.252 97.861 318.884 96.8946 318.93C95.5836 318.977 94.4451 319.884 93.7787 321.048C94.3854 320.52 95.052 320.215 95.8461 320.172C96.8125 320.127 97.6592 320.494 98.3561 321.162C99.0529 321.829 99.4278 322.798 99.4205 323.845L99.446 335.325C99.4537 335.998 99.289 336.672 98.9895 337.273C99.8808 336.518 100.48 335.317 100.494 334.082Z" fill="#26366F"/>
<path d="M96.9311 343.122C92.4063 343.419 88.7344 339.597 88.6882 334.699L88.6627 323.22C88.7072 321.237 89.2611 319.438 90.287 317.897C88.6693 319.592 87.681 321.919 87.6817 324.499L87.7071 335.978C87.7533 340.876 91.3578 344.662 95.95 344.401C98.6769 344.267 101.014 342.678 102.586 340.385C101.074 342.042 99.1036 343.067 96.9311 343.122Z" fill="#26366F"/>
</g>
<path opacity="0.3" d="M97.3886 317.766C98.827 317.979 100.138 318.791 100.91 320.169C101.427 321.025 101.66 322.107 101.653 323.154L101.668 325.36C101.668 325.36 101.638 326.109 101.684 326.706C101.669 327.08 101.998 327.452 102.343 327.449C102.822 327.52 103.219 327.068 103.204 326.582C103.249 323.74 103.181 322.843 103.181 322.843C103.188 320.936 102.468 319.11 101.142 317.811C100.085 316.66 98.5494 316.299 97.6279 316.082C97.1484 316.011 96.7889 316.387 96.6992 316.912C96.7143 317.398 96.9766 317.732 97.3886 317.766Z" fill="#575878"/>
<path opacity="0.3" d="M95.9037 340.363C94.4653 340.15 93.1541 339.338 92.3821 337.961C91.865 337.105 91.6324 336.022 91.6397 334.975L91.5946 334.377C91.5946 334.377 91.6243 333.629 91.5792 333.031C91.5941 332.657 91.2644 332.286 90.9198 332.289C90.4403 332.218 90.0434 332.669 90.0585 333.155C90.0143 335.998 90.044 335.25 90.044 335.25C90.037 337.157 90.7567 338.983 92.083 340.281C93.1396 341.432 94.6755 341.794 95.597 342.011C96.0765 342.082 96.436 341.705 96.5258 341.181C96.5406 340.807 96.2109 340.436 95.9037 340.363Z" fill="#575878"/>
<path d="M100.506 379.663C96.0263 380.558 91.8827 377.338 91.2821 372.519L89.8708 361.238C89.2702 356.419 92.4529 351.757 96.9326 350.862C99.0526 350.396 101.203 350.903 102.941 352.235C104.747 353.604 105.871 355.652 106.157 358.005L107.568 369.287C108.168 374.106 104.986 378.768 100.506 379.663ZM97.5631 355.792C95.5855 356.145 94.23 358.174 94.4553 360.304L95.8667 371.586C96.092 373.715 97.8978 375.084 99.8755 374.732C101.853 374.38 103.209 372.35 102.983 370.221L101.572 358.939C101.407 357.893 100.927 356.962 100.155 356.445C99.4211 355.852 98.4995 355.635 97.5631 355.792Z" fill="url(#paint5_linear_864_608)"/>
<g opacity="0.35">
<path d="M103.867 368.792L102.455 357.511C102.29 356.465 101.81 355.534 101.039 355.017C100.304 354.424 99.3828 354.207 98.409 354.439C97.0905 354.674 96.0495 355.729 95.5853 357.004C96.1246 356.439 96.7613 356.023 97.5254 355.867C98.4618 355.71 99.3833 355.927 100.155 356.444C100.889 357.037 101.474 357.93 101.572 358.939L102.983 370.22C103.058 370.93 102.998 371.566 102.766 372.204C103.56 371.3 103.987 370.1 103.867 368.792Z" fill="#26366F"/>
<path d="M101.389 378.235C96.9097 379.13 92.7661 375.91 92.1655 371.091L90.7542 359.81C90.5214 357.867 90.873 355.957 91.6967 354.306C90.3112 356.224 89.5927 358.697 89.908 361.163L91.3193 372.444C91.9199 377.263 96.0636 380.483 100.543 379.588C103.218 379.043 105.427 377.193 106.663 374.716C105.315 376.559 103.472 377.845 101.389 378.235Z" fill="#26366F"/>
</g>
<path opacity="0.3" d="M98.7689 353.203C100.252 353.154 101.638 353.816 102.658 355.042C103.28 355.859 103.654 356.829 103.752 357.837L104.045 360.004C104.045 360.004 104.12 360.714 104.165 361.312C104.217 361.723 104.517 361.982 104.929 362.016C105.379 361.975 105.776 361.523 105.693 361C105.393 358.161 105.288 357.339 105.288 357.339C105.055 355.397 104.051 353.797 102.649 352.649C101.413 351.686 99.8698 351.511 98.8734 351.444C98.4239 351.485 98.0644 351.862 98.0795 352.348C98.0572 352.909 98.4243 353.205 98.7689 353.203Z" fill="#575878"/>
<path opacity="0.3" d="M100.011 375.665C98.5273 375.715 97.1412 375.052 96.1221 373.827C95.5001 373.009 95.1252 372.04 95.0276 371.031L94.915 370.396C94.915 370.396 94.8399 369.686 94.7948 369.088C94.7423 368.677 94.4426 368.418 94.0305 368.384C93.581 368.425 93.1841 368.877 93.2667 369.399C93.567 372.239 93.5294 371.454 93.5294 371.454C93.7621 373.396 94.7664 374.996 96.1676 376.144C97.404 377.107 98.9473 377.282 99.9437 377.349C100.393 377.308 100.753 376.931 100.738 376.445C100.722 375.959 100.355 375.663 100.011 375.665Z" fill="#575878"/>
<path d="M111.714 414.836C107.467 416.814 102.762 414.72 101.15 410.208L97.4691 399.692C95.8573 395.18 98.0285 389.966 102.276 387.988C104.276 387.074 106.516 387.057 108.449 387.827C110.517 388.67 112.068 390.378 112.84 392.616L116.521 403.131C118.133 407.643 115.924 412.933 111.714 414.836ZM103.85 392.574C101.992 393.374 101.072 395.737 101.754 397.639L105.435 408.155C106.08 410.131 108.215 411.012 110.005 410.175C111.863 409.375 112.784 407.012 112.101 405.111L108.42 394.595C108.046 393.626 107.386 392.883 106.54 392.516C105.693 392.149 104.726 392.194 103.85 392.574Z" fill="url(#paint6_linear_864_608)"/>
<g opacity="0.35">
<path d="M112.677 403.61L108.996 393.094C108.621 392.125 107.962 391.382 107.115 391.015C106.269 390.648 105.302 390.693 104.426 391.074C103.197 391.644 102.321 392.885 102.164 394.232C102.569 393.594 103.145 392.953 103.917 392.611C104.793 392.23 105.76 392.185 106.606 392.552C107.52 392.956 108.18 393.699 108.487 394.631L112.168 405.147C112.386 405.743 112.461 406.453 112.296 407.128C112.925 406.038 113.112 404.803 112.677 403.61Z" fill="#26366F"/>
<path d="M112.223 413.298C107.976 415.276 103.271 413.182 101.659 408.67L97.9776 398.154C97.3254 396.365 97.3324 394.458 97.8188 392.622C96.838 394.761 96.6664 397.342 97.4686 399.692L101.15 410.207C102.762 414.719 107.467 416.813 111.714 414.835C114.276 413.656 116.021 411.361 116.747 408.7C115.773 410.652 114.223 412.385 112.223 413.298Z" fill="#26366F"/>
</g>
<path opacity="0.3" d="M104.479 389.765C105.872 389.38 107.446 389.667 108.682 390.629C109.416 391.222 110.001 392.114 110.376 393.084L111.155 395.134C111.155 395.134 111.403 395.843 111.59 396.327C111.748 396.7 112.085 396.884 112.467 396.806C112.886 396.654 113.148 396.128 113.028 395.68C112.099 393.07 111.821 392.25 111.821 392.25C111.169 390.46 109.948 389.123 108.254 388.389C106.868 387.727 105.31 387.926 104.336 388.158C103.849 388.274 103.587 388.8 103.707 389.248C103.76 389.659 104.164 389.88 104.479 389.765Z" fill="#575878"/>
<path opacity="0.3" d="M110.312 411.108C108.919 411.493 107.346 411.206 106.109 410.244C105.375 409.651 104.79 408.758 104.415 407.789L104.198 407.193C104.198 407.193 103.951 406.484 103.763 405.999C103.606 405.627 103.269 405.442 102.887 405.52C102.467 405.673 102.205 406.199 102.325 406.646C103.255 409.257 103.007 408.548 103.007 408.548C103.659 410.338 104.881 411.674 106.574 412.409C107.96 413.071 109.519 412.872 110.492 412.639C110.979 412.523 111.241 411.998 111.121 411.55C111.099 411.251 110.694 411.03 110.312 411.108Z" fill="#575878"/>
<path d="M130.654 444.488C126.789 447.248 121.732 446.204 119.378 442.147L113.9 432.655C111.546 428.598 112.766 423.054 116.631 420.294C118.473 419.008 120.631 418.467 122.751 418.862C124.939 419.293 126.782 420.587 127.906 422.635L133.385 432.127C135.738 436.184 134.451 441.691 130.654 444.488ZM118.947 424.426C117.246 425.599 116.7 428.071 117.734 429.783L123.281 439.311C124.278 441.098 126.533 441.567 128.165 440.357C129.866 439.185 130.412 436.712 129.378 435L123.899 425.509C123.382 424.653 122.58 424.023 121.621 423.881C120.7 423.664 119.763 423.821 118.947 424.426Z" fill="url(#paint7_linear_864_608)"/>
<g opacity="0.35">
<path d="M129.685 433.352L124.206 423.861C123.689 423.005 122.887 422.375 121.928 422.233C121.006 422.016 120.1 422.285 119.216 422.853C118.048 423.648 117.441 425.036 117.524 426.419C117.793 425.706 118.303 425.029 118.977 424.538C119.793 423.933 120.73 423.776 121.689 423.918C122.61 424.135 123.449 424.689 123.966 425.545L129.445 435.037C129.768 435.595 129.947 436.267 129.955 436.94C130.314 435.703 130.299 434.357 129.685 433.352Z" fill="#26366F"/>
<path d="M130.856 442.878C126.991 445.638 121.934 444.594 119.581 440.537L114.102 431.045C113.135 429.37 112.76 427.541 112.969 425.744C112.393 428.104 112.603 430.608 113.863 432.73L119.341 442.221C121.695 446.279 126.752 447.323 130.617 444.563C132.924 442.862 134.301 440.271 134.48 437.502C133.949 439.601 132.736 441.517 130.856 442.878Z" fill="#26366F"/>
</g>
<path opacity="0.3" d="M119.059 421.621C120.429 420.937 121.98 420.925 123.366 421.587C124.28 421.991 124.94 422.733 125.457 423.589L126.589 425.45C126.589 425.45 126.978 426.045 127.233 426.567C127.391 426.939 127.87 427.01 128.222 426.821C128.679 426.593 128.806 425.993 128.581 425.584C127.195 423.202 126.775 422.495 126.775 422.495C125.876 420.856 124.332 419.822 122.557 419.424C121.088 419.099 119.553 419.598 118.571 420.017C118.114 420.245 117.957 420.732 118.145 421.217C118.37 421.626 118.744 421.735 119.059 421.621Z" fill="#575878"/>
<path opacity="0.3" d="M128.615 441.176C127.245 441.86 125.694 441.872 124.308 441.21C123.394 440.806 122.734 440.063 122.217 439.207L121.857 438.724C121.857 438.724 121.468 438.129 121.213 437.607C121.055 437.235 120.576 437.164 120.224 437.354C119.767 437.582 119.64 438.181 119.865 438.59C121.251 440.973 120.899 440.302 120.899 440.302C121.798 441.94 123.342 442.975 125.117 443.372C126.586 443.697 128.121 443.199 129.103 442.78C129.56 442.552 129.717 442.065 129.529 441.58C129.41 441.132 128.967 440.986 128.615 441.176Z" fill="#575878"/>
<path d="M157.442 468.207C154.364 471.971 149.142 472.461 145.823 469.308L138.09 461.928C134.77 458.776 134.581 453.131 137.659 449.368C139.142 447.599 141.082 446.462 143.262 446.22C145.51 446.015 147.652 446.709 149.279 448.266L157.012 455.646C160.331 458.799 160.52 464.443 157.442 468.207ZM141.009 452.632C139.668 454.288 139.744 456.718 141.205 458.09L148.938 465.47C150.4 466.842 152.647 466.637 153.988 464.981C155.328 463.325 155.253 460.895 153.791 459.523L146.058 452.143C145.361 451.476 144.41 451.147 143.406 451.267C142.507 451.349 141.661 451.842 141.009 452.632Z" fill="url(#paint8_linear_864_608)"/>
<g opacity="0.35">
<path d="M153.648 457.916L145.915 450.536C145.218 449.869 144.267 449.54 143.263 449.66C142.364 449.742 141.413 450.273 140.798 450.988C139.892 452.117 139.698 453.539 139.99 454.846C140.058 454.023 140.365 453.235 140.941 452.595C141.593 451.804 142.439 451.312 143.406 451.267C144.409 451.146 145.294 451.439 146.058 452.143L153.791 459.523C154.256 459.968 154.578 460.526 154.758 461.198C154.945 459.963 154.547 458.694 153.648 457.916Z" fill="#26366F"/>
<path d="M157.299 466.6C154.221 470.363 148.999 470.853 145.68 467.701L137.947 460.321C136.62 459.023 135.788 457.422 135.481 455.629C135.489 458.022 136.396 460.333 138.089 461.928L145.823 469.308C149.142 472.46 154.364 471.97 157.442 468.207C159.254 465.949 159.92 463.064 159.44 460.413C159.493 462.544 158.714 464.794 157.299 466.6Z" fill="#26366F"/>
</g>
<path opacity="0.3" d="M140.394 449.907C141.502 448.888 143.038 448.39 144.544 448.64C145.503 448.782 146.379 449.261 147.076 449.929L148.605 451.338C148.605 451.338 149.069 451.783 149.467 452.191C149.766 452.45 150.178 452.484 150.5 452.183C150.86 451.806 150.882 451.245 150.515 450.949C148.589 449.131 148.027 448.538 148.027 448.538C146.701 447.239 144.963 446.767 143.165 446.931C141.644 447.055 140.228 448.001 139.479 448.643C139.09 448.907 139.03 449.544 139.36 449.915C139.697 450.099 140.177 450.17 140.394 449.907Z" fill="#575878"/>
<path opacity="0.3" d="M154.685 465.649C153.576 466.667 152.04 467.165 150.535 466.916C149.576 466.774 148.699 466.294 148.002 465.627L147.567 465.294C147.567 465.294 147.103 464.849 146.706 464.44C146.406 464.181 145.994 464.147 145.672 464.449C145.312 464.825 145.29 465.387 145.657 465.683C147.583 467.5 147.051 467.018 147.051 467.018C148.377 468.316 150.116 468.788 151.913 468.625C153.434 468.5 154.85 467.554 155.599 466.913C155.988 466.648 156.048 466.012 155.718 465.641C155.419 465.381 154.902 465.385 154.685 465.649Z" fill="#575878"/>
<path d="M104.481 254.665C102.915 254.191 102.053 252.478 102.569 250.754L109.134 228.64C109.65 226.916 111.276 225.894 112.841 226.367C113.591 226.586 114.19 227.105 114.505 227.85C114.857 228.52 114.925 229.417 114.685 230.242L108.256 252.429C107.739 254.153 106.047 255.139 104.481 254.665Z" fill="url(#paint9_linear_864_608)"/>
<path opacity="0.3" d="M107.385 245.743C106.501 245.45 106.081 243.883 106.598 242.159L108.828 234.588C109.345 232.864 110.491 231.771 111.412 231.988C111.854 232.134 112.214 232.617 112.326 233.252C112.439 233.887 112.439 234.747 112.2 235.571L109.969 243.142C109.52 244.903 108.374 245.997 107.385 245.743Z" fill="#575878"/>
<path opacity="0.35" d="M106.022 249.679C105.205 249.424 104.576 248.793 104.261 248.048L110.549 226.834C109.912 227.25 109.44 227.852 109.201 228.677L104.111 245.768L102.951 249.816L102.636 250.791C102.12 252.515 102.982 254.228 104.548 254.702C106.113 255.175 107.739 254.153 108.255 252.429L109.73 247.407C109.213 249.131 107.52 250.116 106.022 249.679Z" fill="#26366F"/>
<path d="M97.6803 289.644C96.107 289.357 95.1027 287.757 95.4843 285.96L100.071 263.338C100.415 261.615 101.943 260.444 103.584 260.768C104.37 260.911 105.007 261.355 105.427 262.062C105.779 262.732 105.952 263.591 105.78 264.452L101.193 287.074C100.849 288.796 99.2536 289.931 97.6803 289.644Z" fill="url(#paint10_linear_864_608)"/>
<path opacity="0.3" d="M99.7678 280.466C98.8089 280.324 98.3215 278.72 98.6657 276.997L100.214 269.245C100.559 267.522 101.607 266.28 102.566 266.422C103.046 266.493 103.405 266.976 103.623 267.573C103.84 268.169 103.84 269.029 103.668 269.89L102.119 277.643C101.805 279.478 100.757 280.72 99.7678 280.466Z" fill="#575878"/>
<path opacity="0.35" d="M98.7425 284.587C97.8884 284.407 97.289 283.888 96.8692 283.181L101.246 261.496C100.677 261.95 100.235 262.664 100.1 263.45L96.5465 280.903L95.6935 285.023L95.4466 286.034C95.1024 287.757 96.0693 289.432 97.6426 289.719C99.2159 290.006 100.811 288.871 101.155 287.148L102.188 281.98C101.844 283.703 100.316 284.874 98.7425 284.587Z" fill="#26366F"/>
<path d="M103.04 272.7C102.516 273.751 101.43 274.208 100.62 273.766C99.8112 273.324 99.5487 272.129 100.073 271.078C100.597 270.027 101.683 269.57 102.492 270.012C103.302 270.454 103.527 271.724 103.04 272.7Z" fill="#575878"/>
<path d="M95.8468 327.051C94.2286 327.026 92.9771 325.578 93.0441 323.894L94.0945 300.964C94.1989 299.206 95.5994 297.774 97.1502 297.762C97.9443 297.718 98.686 298.124 99.1806 298.681C99.6752 299.238 99.9526 300.058 99.9528 300.918L98.9025 323.848C98.8655 325.643 97.5024 327 95.8468 327.051Z" fill="url(#paint11_linear_864_608)"/>
<path opacity="0.3" d="M96.564 317.697C95.5976 317.742 94.8631 316.289 94.9675 314.531L95.3475 306.713C95.452 304.955 96.3356 303.527 97.2645 303.557C97.7815 303.553 98.2161 303.886 98.4335 304.482C98.7557 305.041 98.8608 305.863 98.8611 306.723L98.481 314.541C98.3766 316.299 97.5304 317.652 96.564 317.697Z" fill="#575878"/>
<path opacity="0.35" d="M96.1235 321.851C95.262 321.858 94.5202 321.452 93.9956 320.783L95.0087 298.788C94.4695 299.354 94.1625 300.141 94.1328 300.889L93.2908 318.583L93.0896 322.772L93.015 323.782C92.9106 325.541 94.162 326.989 95.8176 326.939C97.4358 326.963 98.8364 325.531 98.8734 323.736L99.1492 318.536C99.0748 320.407 97.7791 321.8 96.1235 321.851Z" fill="#26366F"/>
<path d="M98.0064 362.818C96.3808 362.981 95.017 361.758 94.9491 360.001L93.7895 337.2C93.7216 335.444 94.9198 333.901 96.5455 333.739C97.377 333.62 98.0888 333.913 98.6882 334.432C99.2202 334.914 99.6025 335.696 99.6702 336.593L100.83 359.393C100.83 361.113 99.632 362.656 98.0064 362.818Z" fill="url(#paint12_linear_864_608)"/>
<path opacity="0.5" d="M97.7569 353.509C96.7531 353.629 95.8762 352.29 95.8083 350.533L95.4317 342.684C95.3638 340.927 96.0452 339.388 97.0116 339.343C97.4611 339.302 98.0005 339.597 98.3228 340.156C98.6451 340.714 98.8925 341.422 98.9601 342.319L99.3368 350.169C99.4046 351.926 98.7233 353.464 97.7569 353.509Z" fill="#575878"/>
<path opacity="0.35" d="M97.7279 357.698C96.8963 357.816 96.1171 357.486 95.5551 356.892L94.4257 335.064C93.9539 335.666 93.7144 336.49 93.752 337.275L94.6031 354.843L94.8514 358.992L94.8817 359.964C94.9495 361.721 96.3808 362.981 97.9389 362.781C99.5646 362.619 100.8 361.001 100.695 359.32L100.454 354.124C100.589 355.918 99.3535 357.535 97.7279 357.698Z" fill="#26366F"/>
<path d="M105.454 398.133C103.851 398.594 102.308 397.56 101.963 395.842L97.6417 373.703C97.2966 371.985 98.33 370.257 99.9331 369.796C100.735 369.565 101.521 369.708 102.158 370.152C102.795 370.596 103.252 371.228 103.425 372.086L107.746 394.226C108.053 396.018 107.02 397.747 105.454 398.133Z" fill="url(#paint13_linear_864_608)"/>
<path opacity="0.3" d="M103.887 389.059C102.913 389.291 101.856 388.14 101.579 386.46L100.056 378.843C99.7107 377.126 100.22 375.589 101.231 375.282C101.718 375.166 102.227 375.349 102.655 375.869C103.119 376.314 103.434 377.059 103.607 377.918L105.129 385.534C105.407 387.215 104.86 388.827 103.887 389.059Z" fill="#575878"/>
<path opacity="0.35" d="M104.449 393.093C103.648 393.324 102.794 393.144 102.157 392.7L98.0083 371.419C97.6714 372.095 97.5367 372.881 97.6418 373.703L101.025 390.839L101.828 394.909L102.03 395.879C102.375 397.597 103.919 398.631 105.522 398.17C107.125 397.709 108.158 395.98 107.813 394.263L106.808 389.223C107.048 390.979 106.015 392.707 104.449 393.093Z" fill="#26366F"/>
<path opacity="0.8" d="M103.284 378.22C102.76 379.271 101.607 379.691 100.73 379.212C99.8533 378.733 99.5233 377.501 100.047 376.45C100.572 375.399 101.725 374.979 102.602 375.458C103.441 376.012 103.771 377.243 103.284 378.22Z" fill="#575878"/>
<path d="M121.944 429.599C120.529 430.545 118.753 430.148 117.914 428.734L107.061 409.712C106.259 408.222 106.715 406.274 108.064 405.291C108.738 404.8 109.569 404.681 110.288 404.788C110.97 404.969 111.674 405.45 112.094 406.157L122.947 425.179C123.854 426.63 123.397 428.578 121.944 429.599Z" fill="url(#paint14_linear_864_608)"/>
<path opacity="0.3" d="M117.747 421.668C116.931 422.272 115.582 421.535 114.743 420.121L111.04 413.606C110.238 412.117 110.2 410.472 111.084 409.904C111.473 409.639 112.058 409.672 112.597 409.967C113.137 410.262 113.736 410.781 114.118 411.563L117.821 418.077C118.593 419.455 118.631 421.1 117.747 421.668Z" fill="#575878"/>
<path opacity="0.35" d="M119.568 425.243C118.789 425.772 117.958 425.891 117.208 425.673L106.775 407.358C106.641 408.144 106.746 408.966 107.098 409.636L115.47 424.34L117.434 427.802L117.883 428.621C118.685 430.111 120.498 430.433 121.914 429.487C123.33 428.541 123.719 426.556 122.917 425.067L120.436 420.749C121.373 422.312 120.916 424.26 119.568 425.243Z" fill="#26366F"/>
<path d="M145.564 455.887C144.478 457.205 142.575 457.407 141.451 456.219L126.022 441.384C124.861 440.271 124.77 438.215 125.924 436.935C126.501 436.295 127.205 435.915 127.931 435.835C128.658 435.754 129.475 436.009 130.037 436.603L145.466 451.438C146.56 452.514 146.65 454.57 145.564 455.887Z" fill="url(#paint15_linear_864_608)"/>
<path opacity="0.3" d="M139.405 449.654C138.753 450.444 137.247 450.194 136.086 449.082L130.81 444.001C129.649 442.888 129.229 441.321 129.918 440.455C130.277 440.079 130.802 439.888 131.416 440.032C132.031 440.177 132.742 440.47 133.304 441.064L138.58 446.145C139.674 447.221 140.056 448.863 139.405 449.654Z" fill="#575878"/>
<path opacity="0.35" d="M142.012 452.513C141.398 453.228 140.627 453.571 139.833 453.614L125.071 439.335C125.108 440.12 125.423 440.865 125.955 441.347L137.832 452.808L140.687 455.515L141.384 456.182C142.546 457.295 144.411 457.168 145.497 455.851C146.583 454.533 146.56 452.514 145.398 451.402L141.914 448.064C143.075 449.176 143.166 451.232 142.012 452.513Z" fill="#26366F"/>
<path opacity="0.8" d="M137.613 447.051C137.089 448.102 135.935 448.522 135.059 448.043C134.182 447.564 133.852 446.332 134.376 445.281C134.9 444.23 136.054 443.81 136.93 444.289C137.807 444.768 138.1 446.075 137.613 447.051Z" fill="#575878"/>
<path d="M172.121 479.384C171.065 480.813 169.297 481.089 167.993 480.089L151.583 466.533C150.317 465.459 150.151 463.553 151.14 462.087C151.649 461.41 152.391 460.956 153.117 460.875C153.881 460.719 154.631 460.938 155.23 461.457L171.64 475.013C172.981 475.937 173.177 477.954 172.121 479.384Z" fill="url(#paint16_linear_864_608)"/>
<path opacity="0.45" d="M172.121 479.384C171.065 480.813 169.297 481.089 167.993 480.089L151.583 466.533C150.317 465.459 150.151 463.553 151.14 462.087C151.649 461.41 152.391 460.956 153.117 460.875C153.881 460.719 154.631 460.938 155.23 461.457L171.64 475.013C172.981 475.937 173.177 477.954 172.121 479.384Z" fill="#AEA8B4"/>
<path opacity="0.3" d="M165.631 473.64C165.01 474.542 163.466 474.367 162.268 473.33L156.595 468.7C155.329 467.626 154.804 466.097 155.456 465.307C155.748 464.893 156.272 464.702 156.924 464.772C157.508 464.804 158.22 465.098 158.887 465.653L164.559 470.283C165.691 471.283 166.215 472.812 165.631 473.64Z" fill="#575878"/>
<path opacity="0.35" d="M168.419 476.309C167.872 477.061 167.13 477.516 166.336 477.56L150.593 464.559C150.736 465.306 151.051 466.051 151.62 466.458L164.328 476.94L167.296 479.422L168.03 480.014C169.296 481.089 171.102 480.738 172.158 479.308C173.214 477.879 172.981 475.937 171.714 474.862L168.013 471.788C169.242 472.937 169.475 474.88 168.419 476.309Z" fill="#26366F"/>
<path d="M197.2 344.37C197.618 341.977 199.696 340.232 202.125 340.232H227.774C230.18 340.232 232.245 341.946 232.689 344.31L260.814 494.31C261.391 497.388 259.03 500.232 255.899 500.232H175.875C172.769 500.232 170.414 497.43 170.95 494.37L197.2 344.37Z" fill="url(#paint17_linear_864_608)"/>
<path d="M232.124 369.516L212.924 373.901V433.824L228.924 463.055L235.324 502.516L244.924 486.439L227.324 427.978L232.124 369.516Z" fill="#A39875"/>
<path d="M329.5 46.8047C389.261 65.0849 401.017 75.9698 427.5 130.805L417.5 187L395 213.5L367.5 237L285.136 350.635L134 223.816L231 123L251.5 94.5L273 66L329.5 46.8047Z" fill="url(#paint18_linear_864_608)"/>
<path d="M407.88 96.3438L416.246 110.781L370.522 181.214L334.685 207.022L299.052 250.141L303.331 225.925L362.929 166.467L407.88 96.3438Z" fill="#A4997C"/>
<path d="M247.148 218.66L247.148 218.659L247.147 218.66L247.148 218.66L255.908 233.186L282.945 195.716L312.289 161.298L314.928 134.974L281.753 185.986L247.148 218.66Z" fill="#AC9F7C"/>
<path d="M341.555 51.2807L349.36 54.147L306 84.8387L316.956 70.5637L341.555 51.2807Z" fill="#A49976"/>
<path d="M305.656 102.268L301.335 113.782L288.431 129.718L276.077 136.547L305.656 102.268Z" fill="#ADA281"/>
<path d="M158.375 494.682L166.338 462.251L171.677 457.324L183.386 462.197L189.02 477.74L227.958 481.848L231.453 466.804L241.556 464.959L246.397 469.174L251.499 460.849L251.997 451.707L264.757 455.368L267.394 476.813L262.926 494.201L267.847 499.549L256.433 515.146L232.676 516.807L229.939 510.168L182.606 499.818L177.188 503.612L158.375 494.682Z" fill="url(#paint19_linear_864_608)"/>
<path d="M181.315 464.552L166.442 462.205L171.757 457.318L177.424 456.517L176.924 459.517L183.41 462.148L189.013 477.559L227.768 481.622L231.251 466.704L241.306 464.872L242.511 465.917L233.738 469.917L228.082 486.116L187.966 478.761L181.315 464.552Z" fill="#837B63"/>
<path d="M347.424 274.017C347.424 349.68 288.811 415.232 213.424 415.232C138.037 415.232 76.9238 353.895 76.9238 278.232C76.9238 202.569 138.037 141.232 213.424 141.232C255.424 153.017 271.363 162.517 304.424 198.517C326.924 223.017 338.924 240.017 347.424 274.017Z" fill="url(#paint20_radial_864_608)"/>
<path d="M206.653 253.707C188.946 280.974 150.808 288.009 124.535 270.947C98.2614 253.885 102.976 226.107 120.683 198.84C138.39 171.573 175.444 156.258 201.717 173.32C227.99 190.382 224.36 226.44 206.653 253.707Z" fill="#4E3B21"/>
<path d="M231.408 306.354C231.101 305.371 231.788 303.89 233.005 303.184C234.158 302.454 235.422 302.634 235.729 303.616L235.763 303.726C236.507 305.739 237.825 307.193 239.646 307.87C243.681 309.369 248.543 306.157 250.492 300.801C251.018 299.356 251.284 297.815 251.327 296.479C251.276 295.399 252.162 294.184 253.416 293.782C254.671 293.379 255.746 293.875 255.861 294.979C255.861 294.979 255.861 294.979 255.83 295.064C255.868 297.395 255.489 299.859 254.591 302.324C251.528 310.74 243.978 315.655 237.731 313.335C234.608 312.175 232.497 309.653 231.408 306.354Z" fill="url(#paint21_linear_864_608)"/>
<path opacity="0.45" d="M231.408 306.354C231.101 305.371 231.788 303.89 233.005 303.184C234.158 302.454 235.422 302.634 235.729 303.616L235.763 303.726C236.507 305.739 237.825 307.193 239.646 307.87C243.681 309.369 248.543 306.157 250.492 300.801C251.018 299.356 251.284 297.815 251.327 296.479C251.276 295.399 252.162 294.184 253.416 293.782C254.671 293.379 255.746 293.875 255.861 294.979C255.861 294.979 255.861 294.979 255.83 295.064C255.868 297.395 255.489 299.859 254.591 302.324C251.528 310.74 243.978 315.655 237.731 313.335C234.608 312.175 232.497 309.653 231.408 306.354Z" fill="#BEBED0"/>
<path opacity="0.25" d="M235.698 303.701C236.374 305.496 237.496 306.878 239.061 307.652C238.866 307.58 238.671 307.507 238.541 307.459C236.979 306.879 235.101 304.734 234.517 302.684C234.874 302.719 235.589 302.985 235.698 303.701Z" fill="#46395B"/>
<path opacity="0.25" d="M253.615 301.962C254.451 299.667 254.741 297.652 254.932 295.503C254.988 294.945 255.009 294.277 254.968 293.78C255.294 293.901 255.721 294.349 255.796 294.956C255.834 297.286 255.423 299.835 254.526 302.301C251.463 310.716 243.913 315.631 237.666 313.311C237.341 313.19 237.016 313.069 236.786 312.888C242.729 314.42 250.181 311.398 253.615 301.962Z" fill="#46395B"/>
<path opacity="0.3" d="M235.536 309.624C235.821 309.247 236.27 309.028 236.63 309.258C236.989 309.488 237.349 309.718 237.739 309.863C240.311 310.915 243.244 310.364 245.737 308.588C246.121 308.345 246.543 308.405 246.744 308.866C247.011 309.351 246.763 310.031 246.348 310.359C243.375 312.439 239.928 313.185 236.931 311.879C236.476 311.71 236.051 311.456 235.627 311.202C235.202 310.947 235.19 310.171 235.536 309.624Z" fill="#575878"/>
<path d="M234.615 487.84C233.956 488.833 234.166 490.241 235.073 490.999C235.98 491.757 237.337 491.61 237.996 490.618C238.042 490.539 238.042 490.539 238.088 490.46C239.524 488.545 241.443 487.028 243.521 486.46C248.144 485.071 251.903 488.29 251.992 493.576C252.039 494.992 251.758 496.425 251.254 497.832C250.818 498.851 251.284 500.092 252.422 500.455C253.514 500.897 254.832 500.407 255.315 499.309C255.315 499.309 255.315 499.309 255.361 499.23C256.209 496.962 256.704 494.483 256.662 492.108C256.572 483.831 250.646 478.885 243.419 481.06C239.976 482.196 236.953 484.652 234.615 487.84Z" fill="url(#paint22_linear_864_608)"/>
<path opacity="0.25" d="M238.042 490.539C239.34 488.862 241.048 487.432 242.892 486.723C242.682 486.811 242.459 486.784 242.249 486.871C240.439 487.387 237.765 489.518 236.447 491.503C236.938 491.478 237.732 491.207 238.042 490.539Z" fill="#46395B"/>
<path opacity="0.25" d="M255.658 492.467C255.7 494.842 255.306 496.741 254.668 498.921C254.462 499.545 254.303 500.09 254.085 500.599C254.458 500.503 255.017 500.091 255.327 499.423C256.175 497.156 256.67 494.677 256.674 492.223C256.584 483.946 250.658 478.999 243.432 481.174C243.058 481.27 242.743 481.401 242.323 481.576C249.029 480.157 255.572 483.231 255.658 492.467Z" fill="#46395B"/>
<path opacity="0.3" d="M240.031 484.685C240.187 485.099 240.586 485.232 241.006 485.057C241.426 484.882 241.892 484.628 242.312 484.452C245.276 483.456 248.031 484.042 249.988 485.858C250.295 486.149 250.773 486.009 251.122 485.685C251.563 485.202 251.605 484.586 251.239 484.26C248.975 482.153 245.763 481.399 242.215 482.579C241.69 482.798 241.165 483.016 240.64 483.235C240.115 483.454 239.863 484.157 240.031 484.685Z" fill="#575878"/>
<path d="M248.887 337.348L244.792 328.622C243.919 326.816 243.965 324.526 244.958 322.195C245.884 319.927 247.58 317.972 249.665 316.59C254.08 313.689 259.093 314.351 260.818 318.077L264.913 326.803C266.639 330.529 264.457 335.935 260.041 338.835C255.625 341.736 250.613 341.074 248.887 337.348ZM249.429 322.801C249.01 323.846 248.996 324.795 249.342 325.596L253.437 334.322C254.174 335.975 256.386 336.252 258.337 334.995C260.287 333.738 261.235 331.357 260.498 329.704L256.403 320.978C255.666 319.325 253.453 319.048 251.503 320.305C250.561 320.902 249.781 321.817 249.429 322.801Z" fill="url(#paint23_linear_864_608)"/>
<g opacity="0.35">
<path d="M251.992 334.079L247.897 325.353C247.551 324.552 247.52 323.552 247.984 322.557C248.381 321.625 249.162 320.71 250.058 320.062C251.381 319.203 252.732 319.066 253.797 319.571C253.075 319.588 252.198 319.844 251.436 320.368C250.495 320.965 249.781 321.818 249.362 322.863C248.944 323.909 248.93 324.858 249.275 325.659L253.37 334.385C253.601 334.919 254.033 335.265 254.531 335.549C253.426 335.55 252.474 335.033 251.992 334.079Z" fill="#26366F"/>
<path d="M258.663 338.529C263.079 335.629 265.261 330.223 263.535 326.497L259.441 317.771C258.728 316.283 257.478 315.295 256.03 314.773C258.197 314.999 259.988 316.044 260.886 318.015L264.981 326.74C266.707 330.467 264.524 335.872 260.109 338.773C257.464 340.491 254.604 341.004 252.365 340.283C254.261 340.481 256.579 339.911 258.663 338.529Z" fill="#26366F"/>
</g>
<path opacity="0.3" d="M249.174 319.482C247.854 320.619 246.898 322.165 246.597 323.756C246.404 324.779 246.615 325.705 246.961 326.506L247.744 328.211C247.744 328.211 248.02 328.796 248.226 329.165C248.387 329.483 248.188 329.949 247.853 330.262C247.405 330.586 246.909 330.581 246.702 330.212C245.668 328.087 245.413 327.388 245.413 327.388C244.7 325.9 244.774 324.053 245.522 322.138C246.161 320.512 247.457 319.21 248.329 318.397C248.732 318.022 249.273 318.078 249.434 318.396C249.641 318.765 249.555 319.22 249.174 319.482Z" fill="#575878"/>
<path opacity="0.3" d="M258.704 335.683C260.024 334.545 260.979 332.999 261.28 331.408C261.474 330.385 261.262 329.459 260.917 328.658L260.732 328.175C260.732 328.175 260.456 327.59 260.249 327.221C260.088 326.902 260.287 326.436 260.622 326.124C261.07 325.799 261.567 325.805 261.773 326.174C262.808 328.299 262.464 327.776 262.464 327.776C263.177 329.264 263.104 331.111 262.355 333.027C261.716 334.652 260.42 335.954 259.548 336.767C259.146 337.143 258.604 337.086 258.443 336.768C258.237 336.399 258.323 335.944 258.704 335.683Z" fill="#575878"/>
<path opacity="0.45" d="M249.686 316.476C247.601 317.858 245.906 319.813 244.98 322.081C244.163 324.059 243.978 325.917 244.489 327.593C245.973 327.053 247.703 326.375 249.479 325.749L249.409 325.533C249.063 324.732 249.031 323.732 249.496 322.738C249.893 321.806 250.674 320.89 251.57 320.242C253.52 318.985 255.733 319.262 256.47 320.915L257.689 323.522C259.513 323.226 261.382 322.98 263.367 323.002L261.065 317.94C259.16 314.288 254.102 313.575 249.686 316.476Z" fill="#9A9A9A"/>
<path d="M258.494 366.583L255.7 357.112C255.14 355.106 255.412 352.794 256.676 350.491C257.806 348.314 259.705 346.449 261.859 345.283C266.46 342.865 271.185 344.169 272.417 348.169L275.211 357.64C276.376 361.702 273.607 367 269.052 369.469C264.384 371.949 259.659 370.645 258.494 366.583ZM260.814 351.688C260.304 352.632 260.156 353.706 260.435 354.569L263.228 364.04C263.719 365.83 265.821 366.396 267.795 365.304C269.815 364.263 271.034 361.91 270.477 360.183L267.683 350.712C267.193 348.922 265.09 348.355 263.116 349.448C262.129 349.994 261.324 350.744 260.814 351.688Z" fill="url(#paint24_linear_864_608)"/>
<g opacity="0.35">
<path d="M261.873 363.62L259.079 354.15C258.8 353.286 258.994 352.263 259.458 351.269C259.968 350.325 260.794 349.461 261.714 348.977C263.061 348.283 264.437 348.311 265.367 348.941C264.667 348.845 263.857 349.038 263.004 349.459C262.084 349.943 261.212 350.756 260.748 351.751C260.238 352.694 260.09 353.768 260.369 354.632L263.162 364.103C263.326 364.699 263.69 365.108 264.122 365.454C263.106 365.279 262.221 364.7 261.873 363.62Z" fill="#26366F"/>
<path d="M267.696 369.049C272.297 366.632 275.066 361.334 273.856 357.221L271.062 347.75C270.596 346.125 269.548 344.949 268.121 344.314C270.132 344.779 271.746 346.175 272.352 348.232L275.146 357.703C276.311 361.765 273.541 367.063 268.986 369.532C266.226 370.982 263.431 371.154 261.369 370.082C263.268 370.558 265.496 370.164 267.696 369.049Z" fill="#26366F"/>
</g>
<path opacity="0.3" d="M261.008 348.324C259.597 349.359 258.505 350.752 258.024 352.417C257.718 353.451 257.75 354.451 258.028 355.315L258.564 357.156C258.564 357.156 258.727 357.752 258.912 358.235C259.006 358.616 258.762 359.031 258.448 359.23C258 359.554 257.525 359.435 257.386 359.003C256.665 356.679 256.478 355.918 256.478 355.918C256.012 354.293 256.31 352.424 257.217 350.548C258.014 348.962 259.469 347.7 260.365 347.051C260.813 346.727 261.354 346.784 261.448 347.164C261.587 347.596 261.389 348.062 261.008 348.324Z" fill="#575878"/>
<path opacity="0.3" d="M268.141 366.105C269.552 365.069 270.645 363.677 271.125 362.011C271.431 360.977 271.4 359.977 271.121 359.113L271.003 358.568C271.003 358.568 270.84 357.971 270.655 357.489C270.561 357.108 270.805 356.693 271.119 356.494C271.567 356.17 272.042 356.289 272.181 356.721C272.902 359.044 272.738 358.448 272.738 358.448C273.205 360.072 272.906 361.942 271.999 363.818C271.202 365.404 269.748 366.666 268.852 367.314C268.404 367.639 267.862 367.582 267.768 367.201C267.562 366.832 267.76 366.366 268.141 366.105Z" fill="#575878"/>
<path d="M263.112 397.663L261.89 387.475C261.644 385.27 262.299 382.974 263.813 380.814C265.259 378.716 267.274 377.118 269.543 376.219C274.261 374.347 278.565 376.418 279.057 380.827L280.279 391.015C280.838 395.362 277.39 400.45 272.626 402.271C267.974 404.081 263.671 402.009 263.112 397.663ZM267.551 382.664C266.928 383.619 266.622 384.653 266.721 385.591L267.943 395.779C268.186 397.705 270.066 398.573 272.088 397.81C274.178 396.985 275.646 394.774 275.448 392.899L274.226 382.711C273.983 380.785 272.103 379.917 270.08 380.679C269.069 381.061 268.219 381.76 267.551 382.664Z" fill="url(#paint25_linear_864_608)"/>
<g opacity="0.35">
<path d="M266.809 395.058L265.587 384.87C265.488 383.932 265.794 382.898 266.416 381.943C267.085 381.039 267.935 380.34 268.946 379.958C270.317 379.429 271.604 379.633 272.379 380.502C271.701 380.292 270.912 380.372 270.081 380.679C269.069 381.061 268.219 381.76 267.551 382.664C266.928 383.619 266.622 384.653 266.721 385.591L267.943 395.779C267.994 396.387 268.291 396.858 268.656 397.267C267.661 396.978 266.977 396.211 266.809 395.058Z" fill="#26366F"/>
<path d="M271.492 401.55C276.211 399.677 279.637 394.703 279.146 390.294L277.924 380.106C277.704 378.345 276.857 376.982 275.699 376.096C277.533 376.913 278.833 378.509 279.125 380.765L280.347 390.952C280.906 395.299 277.457 400.387 272.694 402.208C269.885 403.329 267.243 402.984 265.45 401.661C267.08 402.388 269.223 402.449 271.492 401.55Z" fill="#26366F"/>
</g>
<path opacity="0.3" d="M268.263 379.192C266.782 380.011 265.532 381.364 264.847 382.939C264.383 383.933 264.302 384.945 264.401 385.882L264.623 387.922C264.623 387.922 264.719 388.581 264.791 389.076C264.839 389.405 264.528 389.883 264.214 390.082C263.721 390.355 263.267 390.122 263.241 389.679C262.947 387.145 262.872 386.372 262.872 386.372C262.653 384.611 263.289 382.707 264.446 380.973C265.447 379.478 266.97 378.431 267.912 377.834C268.405 377.561 268.88 377.68 268.952 378.174C268.888 378.515 268.689 378.981 268.263 379.192Z" fill="#575878"/>
<path opacity="0.3" d="M272.321 398.623C273.802 397.803 275.052 396.45 275.737 394.876C276.201 393.881 276.282 392.87 276.183 391.932L276.178 391.375C276.178 391.375 276.082 390.716 276.009 390.222C275.961 389.892 276.273 389.415 276.586 389.216C277.08 388.943 277.533 389.175 277.56 389.619C277.854 392.153 277.758 391.494 277.758 391.494C277.977 393.255 277.341 395.159 276.184 396.893C275.183 398.388 273.659 399.434 272.718 400.032C272.224 400.305 271.749 400.186 271.677 399.691C271.65 399.248 271.895 398.833 272.321 398.623Z" fill="#575878"/>
<path d="M263.228 429.756L263.423 419.09C263.469 416.8 264.462 414.47 266.113 412.463C267.808 410.507 269.893 409.125 272.165 408.504C276.934 407.24 280.725 409.976 280.587 414.505L280.392 425.171C280.299 429.751 276.307 434.504 271.605 435.706C266.948 436.959 263.157 434.222 263.228 429.756ZM269.472 414.853C268.759 415.706 268.34 416.751 268.259 417.763L268.065 428.429C268.016 430.44 269.673 431.61 271.765 431.063C273.857 430.516 275.574 428.447 275.623 426.435L275.818 415.769C275.867 413.758 274.21 412.588 272.117 413.135C271.195 413.34 270.232 414.051 269.472 414.853Z" fill="url(#paint26_linear_864_608)"/>
<g opacity="0.35">
<path d="M267.065 427.582L267.259 416.916C267.273 415.967 267.692 414.921 268.472 414.006C269.186 413.153 270.128 412.556 271.117 412.288C272.512 411.924 273.711 412.304 274.306 413.247C273.695 412.974 272.928 412.941 272.118 413.134C271.128 413.402 270.186 413.999 269.472 414.852C268.759 415.705 268.34 416.751 268.259 417.762L268.065 428.428C268.048 429.098 268.233 429.581 268.531 430.053C267.67 429.639 267.008 428.758 267.065 427.582Z" fill="#26366F"/>
<path d="M270.718 434.848C275.487 433.584 279.413 428.893 279.505 424.313L279.7 413.647C279.773 411.801 279.173 410.301 278.103 409.239C279.782 410.295 280.746 412.203 280.745 414.545L280.551 425.21C280.458 429.79 276.466 434.543 271.764 435.745C268.907 436.537 266.442 435.839 264.871 434.215C266.346 435.18 268.401 435.418 270.718 434.848Z" fill="#26366F"/>
</g>
<path opacity="0.3" d="M270.635 411.335C269.13 411.989 267.743 413.189 266.833 414.786C266.256 415.792 266.017 416.764 265.982 417.827L265.911 419.952C265.911 419.952 265.895 420.623 265.9 421.18C265.881 421.572 265.591 421.935 265.165 422.146C264.693 422.305 264.24 422.073 264.258 421.681C264.324 418.998 264.362 418.214 264.362 418.214C264.435 416.367 265.229 414.503 266.59 412.86C267.749 411.405 269.342 410.574 270.375 410.079C270.802 409.869 271.322 410.039 271.281 410.545C271.351 410.76 271.107 411.175 270.635 411.335Z" fill="#575878"/>
<path opacity="0.3" d="M271.819 431.95C273.324 431.296 274.711 430.096 275.62 428.499C276.197 427.492 276.437 426.521 276.472 425.458L276.534 424.839C276.534 424.839 276.55 424.168 276.545 423.611C276.564 423.219 276.854 422.855 277.28 422.645C277.752 422.485 278.205 422.718 278.186 423.11C278.121 425.792 278.159 425.008 278.159 425.008C278.086 426.855 277.291 428.719 275.931 430.362C274.772 431.818 273.178 432.648 272.146 433.143C271.719 433.354 271.199 433.184 271.239 432.678C271.102 432.524 271.459 432.098 271.819 431.95Z" fill="#575878"/>
<path d="M254.43 463.423L258.184 452.34C258.951 450.033 260.578 447.861 262.683 446.365C264.789 444.869 267.083 444.135 269.159 444.259C273.581 444.534 275.964 448.585 274.34 453.376L270.586 464.459C268.983 469.136 264.033 472.816 259.498 472.551C255.143 472.213 252.873 468.152 254.43 463.423ZM264.814 449.995C263.918 450.643 263.183 451.61 262.831 452.593L259.078 463.676C258.353 465.756 259.406 467.489 261.369 467.624C263.333 467.759 265.46 466.149 266.185 464.069L269.939 452.986C270.663 450.906 269.61 449.174 267.647 449.039C266.655 449.028 265.71 449.347 264.814 449.995Z" fill="url(#paint27_linear_864_608)"/>
<g opacity="0.35">
<path d="M258.481 462.455L262.234 451.372C262.586 450.389 263.321 449.423 264.217 448.774C265.113 448.126 266.17 447.796 267.05 447.818C268.359 447.908 269.246 448.766 269.482 449.856C269.026 449.345 268.415 449.073 267.648 449.039C266.722 448.966 265.711 449.347 264.815 449.996C263.919 450.644 263.184 451.61 262.832 452.594L259.079 463.677C258.837 464.37 258.775 464.989 258.938 465.586C258.255 464.819 258.019 463.728 258.481 462.455Z" fill="#26366F"/>
<path d="M259.081 471.257C263.504 471.533 268.499 467.904 270.169 463.164L273.923 452.081C274.559 450.177 274.565 448.393 274.077 446.882C275.085 448.563 275.377 450.819 274.52 453.302L270.767 464.385C269.164 469.063 264.214 472.742 259.679 472.478C256.994 472.36 255.085 470.771 254.343 468.561C255.327 470.077 256.96 471.082 259.081 471.257Z" fill="#26366F"/>
</g>
<path opacity="0.3" d="M266.926 446.715C265.462 446.864 263.823 447.643 262.573 448.997C261.746 449.861 261.236 450.804 260.817 451.85L260.071 454.044C260.071 454.044 259.829 454.737 259.609 455.317C259.478 455.721 259.075 456.096 258.692 456.079C258.241 456.125 257.922 455.767 258.075 455.25C259.042 452.476 259.305 451.669 259.305 451.669C259.941 449.765 261.256 448.071 262.981 446.837C264.459 445.739 266.079 445.352 267.16 445.187C267.611 445.141 267.93 445.499 267.844 445.953C267.712 446.357 267.377 446.669 266.926 446.715Z" fill="#575878"/>
<path opacity="0.3" d="M261.085 468.545C262.549 468.397 264.188 467.617 265.438 466.264C266.265 465.4 266.775 464.456 267.193 463.41L267.414 462.831C267.414 462.831 267.655 462.137 267.875 461.558C268.007 461.154 268.455 460.83 268.793 460.796C269.243 460.75 269.563 461.108 269.409 461.625C268.443 464.398 268.752 463.642 268.752 463.642C268.115 465.546 266.8 467.241 265.075 468.475C263.597 469.572 261.977 469.96 260.896 470.125C260.446 470.171 260.127 469.813 260.213 469.358C260.232 468.966 260.634 468.591 261.085 468.545Z" fill="#575878"/>
<g opacity="0.45">
<path d="M253.941 466.593C255.281 467.683 257.225 468.211 259.454 467.817L260.715 467.578C259.133 467.181 258.329 465.59 259.011 463.738L259.185 463.107C257.538 463.051 256.445 461.824 256.676 460.017C256.802 459.057 257.267 458.062 258.026 457.26C258.852 456.396 259.84 455.85 260.808 455.696L261.776 455.542L262.697 452.717C263.027 451.848 263.561 451.069 264.299 450.381L261.26 450.968C260.225 451.184 259.281 451.503 258.248 451.998C258.159 452.174 258.138 452.288 258.049 452.464L254.296 463.547C254.057 464.519 253.909 465.593 253.941 466.593Z" fill="#575878"/>
<path d="M270.72 464.333L271.949 460.752C271.657 460.838 271.41 460.974 271.072 461.008L266.907 461.71L266.139 464.017C265.744 465.228 264.762 466.331 263.662 466.888L270.057 465.794C270.301 465.379 270.5 464.913 270.72 464.333Z" fill="#575878"/>
<path d="M272.426 448.887L268.937 449.52C269.98 450.139 270.376 451.548 269.871 453.048L269.52 454.032L271.861 453.627C272.784 453.422 273.575 453.62 274.143 454.12L274.407 453.313C274.933 451.699 275.009 450.13 274.703 448.823C274.07 448.665 273.282 448.745 272.426 448.887Z" fill="#575878"/>
</g>
<path d="M254.577 325.956C256.168 324.847 256.917 322.932 256.228 321.608L247.456 304.606C246.768 303.283 244.984 303.073 243.393 304.182C242.631 304.706 242.052 305.433 241.789 306.24C241.48 306.996 241.488 307.832 241.809 308.468L250.514 325.532C251.203 326.856 253.054 327.002 254.577 325.956Z" fill="url(#paint28_linear_864_608)"/>
<path opacity="0.45" d="M254.577 325.956C256.168 324.847 256.917 322.932 256.228 321.608L247.456 304.606C246.768 303.283 244.984 303.073 243.393 304.182C242.631 304.706 242.052 305.433 241.789 306.24C241.48 306.996 241.488 307.832 241.809 308.468L250.514 325.532C251.203 326.856 253.054 327.002 254.577 325.956Z" fill="#9A9A9A"/>
<path opacity="0.3" d="M250.839 319.144C251.735 318.496 252.036 316.905 251.347 315.581L248.362 309.753C247.673 308.429 246.383 307.947 245.441 308.544C244.993 308.868 244.661 309.46 244.599 310.079C244.537 310.698 244.612 311.471 244.933 312.107L247.919 317.936C248.541 319.322 249.83 319.804 250.839 319.144Z" fill="#575878"/>
<path opacity="0.35" d="M252.602 322.087C253.431 321.501 254.032 320.66 254.295 319.853L245.891 303.539C246.59 303.635 247.135 303.97 247.456 304.606L254.253 317.739L255.816 320.869L256.228 321.608C256.917 322.931 256.168 324.847 254.577 325.956C252.986 327.065 251.203 326.856 250.514 325.532L248.539 321.664C249.228 322.987 251.078 323.134 252.602 322.087Z" fill="#26366F"/>
<path d="M264.718 354.413C266.333 353.469 267.24 351.593 266.686 350.144L259.931 331.823C259.422 330.425 257.727 330.04 256.045 331.047C255.238 331.519 254.612 332.196 254.237 333.014C253.861 333.833 253.823 334.617 254.078 335.315L260.832 353.637C261.408 354.972 263.103 355.357 264.718 354.413Z" fill="url(#paint29_linear_864_608)"/>
<path opacity="0.3" d="M261.742 347.079C262.729 346.533 263.097 344.879 262.588 343.481L260.297 337.193C259.788 335.795 258.587 335.137 257.599 335.683C257.106 335.956 256.773 336.547 256.599 337.178C256.424 337.809 256.499 338.581 256.753 339.28L259.044 345.569C259.599 347.018 260.8 347.676 261.742 347.079Z" fill="#575878"/>
<path opacity="0.35" d="M263.237 350.272C264.111 349.737 264.758 348.947 265.067 348.191L258.612 330.62C259.245 330.778 259.768 331.227 259.977 331.875L265.204 346.003L266.453 349.333L266.799 350.134C267.308 351.531 266.446 353.458 264.831 354.402C263.216 355.347 261.454 355.024 260.945 353.626L259.418 349.434C259.927 350.831 261.622 351.216 263.237 350.272Z" fill="#26366F"/>
<path d="M270.814 386.736C272.498 386.008 273.676 384.16 273.347 382.689L269.712 362.769C269.45 361.235 267.865 360.56 266.226 361.339C265.373 361.76 264.657 362.334 264.235 363.102C263.768 363.818 263.551 364.676 263.738 365.437L267.373 385.358C267.59 386.841 269.129 387.465 270.814 386.736Z" fill="url(#paint30_linear_864_608)"/>
<path opacity="0.8" d="M269.183 378.708C270.216 378.213 270.788 376.65 270.525 375.116L269.495 368.588C269.233 367.054 267.366 367.578 267.366 367.578C266.58 367.936 265.531 369.102 265.606 369.875L266.797 376.721C267.105 378.306 268.105 379.152 269.183 378.708Z" fill="#575878"/>
<path opacity="0.35" d="M270.005 382.247C270.903 381.877 271.596 381.138 272.084 380.308L268.637 361.149C269.248 361.422 269.658 361.882 269.733 362.655L272.514 378.035L273.156 381.649L273.322 382.524C273.585 384.058 272.474 385.843 270.789 386.571C269.105 387.299 267.565 386.675 267.303 385.141L266.495 380.653C266.735 382.3 268.32 382.976 270.005 382.247Z" fill="#26366F"/>
<path opacity="0.8" d="M269.153 368.065C269.791 368.78 269.554 370.03 268.682 370.844C267.811 371.657 266.571 371.782 265.933 371.067C265.295 370.351 265.532 369.101 266.404 368.288C267.276 367.475 268.515 367.349 269.153 368.065Z" fill="#575878"/>
<path d="M272.492 419.619C274.201 419.055 275.47 417.31 275.388 415.702L274.135 394.871C274.052 393.263 272.602 392.463 270.893 393.027C270.062 393.334 269.3 393.857 268.766 394.636C268.253 395.301 267.923 396.171 267.998 396.943L269.251 417.774C269.4 419.32 270.784 420.183 272.492 419.619Z" fill="url(#paint31_linear_864_608)"/>
<path opacity="0.3" d="M271.76 411.221C272.817 410.891 273.502 409.316 273.419 407.708L272.947 400.566C272.864 398.958 271.953 397.936 270.942 398.317C270.47 398.476 269.933 398.977 269.646 399.619C269.359 400.261 269.208 401.057 269.216 401.892L269.688 409.035C269.792 410.529 270.703 411.551 271.76 411.221Z" fill="#575878"/>
<path opacity="0.35" d="M272.223 414.908C273.167 414.589 273.884 414.015 274.418 413.236L273.218 393.292C273.762 393.627 274.151 394.2 274.113 394.985L275.097 411.105L275.313 414.929L275.366 415.815C275.449 417.423 274.179 419.169 272.471 419.732C270.762 420.296 269.311 419.495 269.229 417.887L268.96 413.177C269.085 414.558 270.515 415.472 272.223 414.908Z" fill="#26366F"/>
<path d="M266.051 454.831C267.741 454.66 269.351 453.159 269.673 451.454L274.002 429.443C274.325 427.739 273.231 426.512 271.541 426.683C270.753 426.763 269.9 427.184 269.229 427.81C268.558 428.435 268.137 429.203 267.919 430.061L263.59 452.071C263.268 453.776 264.362 455.003 266.051 454.831Z" fill="url(#paint32_linear_864_608)"/>
<path opacity="0.3" d="M267.525 445.876C268.539 445.773 269.585 444.329 269.954 442.675L271.439 435.111C271.762 433.406 271.231 432.122 270.218 432.225C269.721 432.22 269.139 432.669 268.761 433.209C268.315 433.812 268.007 434.568 267.789 435.426L266.303 442.99C265.981 444.695 266.511 445.979 267.525 445.876Z" fill="#575878"/>
<path opacity="0.35" d="M266.997 449.83C267.898 449.739 268.751 449.318 269.376 448.641L273.488 427.489C273.898 427.949 274.04 428.659 273.889 429.455L270.552 446.515L269.733 450.556L269.493 451.528C269.171 453.233 267.561 454.734 265.871 454.905C264.182 455.077 263.088 453.85 263.41 452.145L264.356 447.144C264.281 448.713 265.307 450.002 266.997 449.83Z" fill="#26366F"/>
<path d="M248.992 489.839C250.461 490.247 252.369 489.217 253.233 487.569L264.422 466.088C265.286 464.44 264.775 462.764 263.305 462.356C262.559 462.209 261.771 462.289 260.963 462.761C260.223 463.17 259.485 463.858 259.109 464.677L247.92 486.157C247.01 487.755 247.522 489.431 248.992 489.839Z" fill="url(#paint33_linear_864_608)"/>
<path opacity="0.3" d="M253.375 480.977C254.211 481.226 255.644 480.077 256.508 478.429L260.341 471.017C261.205 469.368 261.168 467.811 260.264 467.624C259.79 467.505 259.25 467.727 258.668 468.177C258.086 468.626 257.507 469.354 257.131 470.172L253.298 477.584C252.434 479.233 252.425 480.738 253.375 480.977Z" fill="#575878"/>
<path opacity="0.35" d="M251.517 484.955C252.308 485.154 253.163 485.011 253.971 484.539L264.672 463.888C264.835 464.485 264.73 465.332 264.309 466.099L255.645 482.697L253.629 486.636L253.119 487.579C252.255 489.228 250.348 490.258 248.878 489.849C247.409 489.441 246.897 487.765 247.761 486.117L250.287 481.234C249.535 482.871 250.047 484.547 251.517 484.955Z" fill="#26366F"/>
<path d="M248.424 276.516L171.924 313.016L172.424 309.516L139.924 312.016L106.924 304.016L97.4238 286.016L95.4238 268.516L80.9238 247.016L85.9238 307.016L113.424 315.016L109.424 319.016L147.424 330.016L193.924 318.016L177.424 330.016L211.424 315.016L260.924 290.016L280.924 243.016L264.424 177.516L236.924 150.516L188.924 143.516L236.924 159.016L248.424 181.016L250.924 175.516L264.424 222.516L257.424 254.516L256.424 228.516L248.424 276.516Z" fill="url(#paint34_linear_864_608)"/>
<path d="M236.778 494.822L239.456 485.59L243.786 484.156L251.816 488.117L250.556 501.774L241.659 501.265L236.778 494.822Z" fill="url(#paint35_linear_864_608)"/>
<path d="M167.148 484.633L167.5 474.271L171.707 472.828L179.528 476.876L177.944 485.027L169.691 490.198L167.148 484.633Z" fill="url(#paint36_linear_864_608)"/>
<path d="M128.491 258.915C128.369 260.002 128.974 265.879 130.293 266.966C131.513 266.68 131.961 267.084 132.587 266.951C133.127 266.836 133.68 266.748 134.212 266.605C135.66 266.217 137.021 265.378 138.448 264.905C139.389 264.593 140.149 263.067 140.92 262.425C141.506 261.937 141.71 261.189 142.262 260.697C142.734 260.275 144.554 257.051 144.8 256.474C146.266 253.043 147.291 251.899 147.838 248.163C148.325 244.832 150.305 241.605 149.745 238.119C149.605 237.251 149.769 236.355 149.581 235.466L149.052 232.98C148.721 231.422 148.463 229.824 148.054 228.284C147.668 226.829 146.937 225.453 146.214 224.122C145.369 222.565 144.962 220.657 143.96 219.16C143.327 218.213 142.946 216.724 142.487 215.676C141.892 214.316 141.424 212.793 140.91 211.391C140.068 209.095 139.264 206.683 138.24 204.474C137.375 202.607 136.707 200.409 136.114 198.441C135.453 196.246 132.822 191.044 132.091 188.935C132.305 190.159 131.874 197.266 131.884 198.496C131.905 201.282 131.792 203.858 131.257 206.625C130.945 208.242 130.966 209.897 130.699 211.518C130.484 212.819 130.347 214.279 130.322 215.596C130.261 218.789 130.131 222.013 130.803 225.177C132.419 232.779 133.801 241.372 131.294 248.903C130.708 250.664 130.226 252.553 129.719 254.346C129.286 255.877 128.671 257.325 128.491 258.915Z" fill="#C34FBC"/>
<path d="M158.295 277.275C158.323 277.278 158.35 277.28 158.377 277.282C158.365 277.3 158.337 277.297 158.295 277.275C156.979 277.149 154.828 276.424 153.761 275.731C153.207 275.371 152.367 275.128 151.705 274.991C150.288 274.7 148.924 274.529 147.515 274.083C145.343 273.397 143.199 272.815 141.128 271.832C139.903 271.25 138.755 270.598 137.451 270.204C136.371 269.877 135.283 269.844 134.224 269.39C132.769 268.766 131.006 268.385 130.294 266.966C131.513 266.681 131.824 266.915 132.45 266.782C132.989 266.668 133.592 266.767 134.125 266.624C135.573 266.236 136.933 265.398 138.361 264.924C139.301 264.613 140.062 263.086 140.832 262.445C141.419 261.957 141.623 261.209 142.175 260.716C142.647 260.294 144.467 257.07 144.713 256.493C145.449 257.634 146.93 259.628 147.481 260.865C148.442 263.021 149.911 264.903 151.014 266.987C152.256 269.335 153.407 271.778 155.123 273.831C155.392 274.153 157.8 277.014 158.295 277.275Z" fill="#832FA0"/>
<path d="M166.73 271.775C167.448 270.911 168.561 269.999 168.981 268.942C168.625 267.873 168 266.049 167.881 265.489C167.668 264.489 166.947 263.665 166.688 262.7C166.541 262.152 166.142 261.564 165.844 261.081C165.538 260.583 165.526 259.975 165.243 259.454C164.795 258.628 164.498 257.444 164.19 256.535C163.54 254.618 163.292 252.566 162.528 250.703C161.927 249.237 161.891 247.652 161.581 246.196C161.173 244.273 161.367 242.367 160.967 240.486C160.544 238.495 160.317 236.486 159.889 234.474C159.383 232.092 159.08 229.728 158.576 227.358C158.32 226.151 157.591 225.027 157.217 223.838C157.005 223.16 156.067 221.891 155.956 221.178C155.014 221.881 153.196 223.698 152.278 224.476C151.519 225.121 150.953 225.986 150.264 226.703C150.074 226.902 147.382 228.311 147.792 228.34C148.201 229.879 148.459 231.478 148.79 233.036L149.319 235.522C149.507 236.41 149.343 237.307 149.483 238.174C150.043 241.661 148.063 244.887 147.576 248.218C147.029 251.955 146.004 253.098 144.538 256.53C145.275 257.67 146.755 259.664 147.306 260.901C148.267 263.058 149.737 264.939 150.84 267.024C152.082 269.371 153.232 271.815 154.948 273.868C155.24 274.217 158.05 277.554 158.203 277.319C159.267 277.402 162.1 277.718 162.817 276.404C163.142 275.808 163.942 275.122 164.407 274.589C165.211 273.67 165.944 272.721 166.73 271.775Z" fill="#9440A2"/>
<path d="M160.018 223.197C159.715 221.769 159.687 220.659 159.352 219.084C158.811 217.827 156.03 220.65 155.634 220.945C155.745 221.658 156.683 222.928 156.896 223.605C157.269 224.795 157.998 225.919 158.254 227.125C158.758 229.496 159.061 231.86 159.567 234.242C159.995 236.254 160.222 238.262 160.645 240.253C161.045 242.135 160.851 244.041 161.259 245.964C161.569 247.42 161.605 249.005 162.206 250.471C162.97 252.333 163.218 254.385 163.868 256.303C164.176 257.212 164.473 258.396 164.921 259.222C165.204 259.742 165.216 260.351 165.522 260.848C165.821 261.332 166.219 261.92 166.366 262.468C166.625 263.433 167.346 264.256 167.559 265.257C167.678 265.817 168.547 268.115 168.904 269.185C169.761 267.031 170.189 264.353 170.995 262.195C171.397 261.118 171.464 259.879 171.823 258.776C172.146 257.782 172.482 256.611 172.653 255.579C172.949 253.804 173.516 251.907 173.137 250.124C172.664 247.897 171.408 245.944 170.459 243.897C169.558 241.955 168.711 239.989 167.739 238.102C166.939 236.548 166.469 234.841 165.606 233.291C164.57 231.43 163.533 229.593 162.434 227.769C161.52 226.254 160.399 224.988 160.018 223.197Z" fill="#8A3B96"/>
<path d="M138.178 193.405C137.187 192.852 132.971 189.705 132.09 188.936C132.822 191.044 135.19 196.302 135.851 198.497C136.444 200.465 137.112 202.663 137.977 204.53C139.001 206.739 139.805 209.151 140.647 211.447C141.161 212.849 141.629 214.372 142.224 215.732C142.683 216.78 143.064 218.269 143.697 219.216C144.699 220.713 145.106 222.621 145.951 224.178C146.674 225.509 147.405 226.885 147.791 228.34C149.307 228.627 150.073 226.902 150.264 226.704C150.952 225.986 151.518 225.121 152.278 224.477C153.196 223.698 155.014 221.882 155.955 221.178C156.351 220.882 159.138 219.884 159.407 219.347C158.827 218.278 158.728 216.59 157.871 215.681C157.01 214.769 156.175 213.905 155.398 212.931C154.048 211.237 152.658 209.62 151.512 207.761C150.455 206.046 149.009 204.946 147.705 203.484C146.352 201.969 144.97 200.436 143.534 198.963C142.323 197.721 141.343 196.23 140.018 195.113C139.344 194.545 138.968 193.846 138.178 193.405Z" fill="#C667BC"/>
<path d="M171.64 244.073C173.311 245.892 178.852 251.458 180.581 253.218L180.539 252.006L177.302 247.119C177.302 247.119 176.612 244.641 176.198 243.039C175.642 240.89 175.427 238.647 174.936 236.473C174.397 234.089 175.065 231.742 175.234 229.37C175.369 227.478 175.522 225.559 175.713 223.681C175.859 222.249 175.687 220.621 176.077 219.245C176.448 217.936 176.293 212.251 176.55 210.874C175.809 212.083 173.594 216.863 172.586 217.865C169.952 220.482 167.482 220.862 165.419 223.898C164.657 225.019 163.194 225.476 162.896 226.765C163.888 230.972 164.646 235.736 167.592 239.163C168.338 240.031 168.817 241.057 169.597 241.905C170.269 242.637 170.969 243.343 171.64 244.073Z" fill="#5A2373"/>
<path d="M187.955 245.412C188.877 242.045 189.035 238.515 189.876 235.113C190.203 235.174 189.295 228.052 189.051 227.204C188.889 226.638 188.901 226.009 188.499 225.423C187.347 223.741 186.341 221.922 185.262 220.191C184.693 219.279 184.119 218.365 183.573 217.448C182.996 216.483 182.014 215.771 181.398 214.823C180.771 213.857 179.64 212.692 178.672 212.084C177.658 211.447 177.006 211.12 175.974 210.466C175.717 211.843 176.112 217.709 175.741 219.017C175.351 220.394 175.523 222.022 175.377 223.454C175.187 225.332 175.033 227.251 174.899 229.143C174.73 231.515 174.062 233.862 174.6 236.246C175.091 238.42 175.307 240.662 175.862 242.812C176.276 244.414 177.197 247.822 177.197 247.822L177.203 247.831C177.89 248.951 180.221 251.963 180.581 253.218C181.588 254.102 183.344 255.058 183.83 256.365C183.992 256.801 185.767 259.315 185.962 259.003C186.394 258.312 186.039 257.297 186.163 256.554C186.304 255.705 186.401 254.853 186.56 254.003C187.095 251.132 187.18 248.239 187.955 245.412Z" fill="#772D81"/>
<path d="M159.817 214.263C160.736 218.475 161.911 222.59 162.896 226.765C163.195 225.476 164.758 225.297 165.52 224.176C167.583 221.14 169.732 221.046 172.366 218.429C173.374 217.427 174.371 215.917 175.112 214.708C175.905 213.413 176.134 212.282 176.389 210.821C176.658 209.283 176.43 207.703 176.32 206.171C176.187 204.322 175.188 202.518 175.005 200.681C174.796 198.582 173.989 196.617 173.649 194.537C173.349 192.698 173.161 190.749 172.65 188.968C171.665 185.533 171.247 181.95 170.251 178.475C168.244 171.475 164.615 163.113 162.617 156.145C162.234 159.961 162.171 163.935 161.417 167.748C160.578 171.994 160.83 176.289 160.14 180.526C159.617 183.731 160.238 187.317 160.241 190.56C160.244 193.655 159.921 196.73 159.827 199.818C159.75 202.349 159.528 204.915 159.647 207.452C159.752 209.697 159.331 212.033 159.817 214.263Z" fill="#903A8B"/>
<path d="M162.61 156.147C162.801 156.516 163.907 157.946 164.089 158.205C164.576 158.898 165.064 159.555 165.497 160.283C166.654 162.228 168.959 163.524 170.046 165.523C172.548 170.126 174.8 174.793 177.093 179.478C179.228 183.839 180.682 188.571 182.782 192.943C183.937 195.346 184.479 197.993 185.638 200.383C186.76 202.698 186.736 205.534 187.867 207.844C188.908 209.971 189.525 212.366 190.18 214.65C190.419 215.483 190.846 216.265 191.091 217.119C191.396 218.181 191.386 219.196 191.437 220.292C191.671 225.309 191.099 229.96 189.914 234.876C189.905 235.131 189.875 235.277 189.818 235.267C189.85 235.136 189.882 235.006 189.914 234.876C189.957 233.661 189.529 229.988 189.328 229.286C189.165 228.72 189.059 226.439 188.657 225.853C187.504 224.171 186.498 222.352 185.419 220.621C184.85 219.709 184.277 218.794 183.73 217.878C183.154 216.912 182.171 216.201 181.556 215.252C180.929 214.287 179.798 213.122 178.83 212.514C177.816 211.877 177.415 211.478 176.382 210.824C176.651 209.285 176.422 207.706 176.312 206.173C176.179 204.324 175.181 202.52 174.998 200.683C174.788 198.585 173.982 196.619 173.642 194.539C173.341 192.701 173.154 190.751 172.643 188.97C171.658 185.535 171.24 181.953 170.243 178.477C168.236 171.477 164.608 163.116 162.61 156.147Z" fill="#A5569D"/>
<path d="M179.014 267.414C177.982 268.423 175.172 270.401 173.949 271.176C173.555 271.373 172.034 265.488 171.623 264.83C171.236 264.211 171.306 263.263 171.117 262.577C170.922 261.87 170.621 261.014 170.6 260.282C170.578 259.525 170.608 258.272 170.373 257.594C170.148 256.948 170.44 256.151 170.186 255.548C169.697 254.385 170.042 252.607 170.042 251.351C170.042 249.244 170.653 247.664 171.065 245.687C172.798 243.521 184.576 231.845 186.445 229.756C187.721 229.756 188.972 229.495 190.212 229.495C191.627 229.495 193.429 229.16 194.677 228.447C195.095 228.75 195.685 229.561 196.102 230.092C196.778 230.952 196.948 230.898 197.586 231.793C199.818 234.917 205.163 236.838 204.828 241.536C203.344 243.695 201.127 245.673 199.293 247.506C197.508 249.292 195.654 250.959 193.857 252.757C190.887 255.727 188.065 258.734 185.112 261.688C184.002 262.798 182.687 263.713 181.701 264.954C180.908 265.952 179.913 266.534 179.014 267.414Z" fill="#7838AA"/>
<path d="M177.861 220.065C179.194 217.843 181.469 215.023 183.348 213.68C183.483 214.016 185.02 217.323 185.362 217.708L186.369 230.125C184.5 232.214 172.664 244.069 170.931 246.235C171.26 244.655 171.473 243.22 171.846 241.637C172.061 240.721 172.325 239.819 172.507 238.887C172.738 237.71 172.692 236.348 173.065 235.228C173.44 234.106 173.241 232.588 173.386 231.404C173.524 230.268 173.538 229.065 173.944 227.983C174.978 225.225 176.342 222.597 177.861 220.065Z" fill="#C34FBC"/>
<path d="M189.787 230.006C188.547 230.006 187.645 230.126 186.369 230.126L185.362 217.731C186.279 217.85 187.392 217.571 187.685 217.491C188.532 217.263 189.474 216.967 190.362 217.051C190.905 217.103 193.417 217.037 194.455 217.497C194.424 218.379 194.135 219.045 194.135 219.795C194.135 222.951 194.252 225.813 194.252 228.959C193.004 229.672 191.202 230.006 189.787 230.006Z" fill="#9440A2"/>
<path d="M206.519 239.607C205.785 240.376 205.432 240.657 204.828 241.536C202.109 238.817 199.395 235.308 197.163 232.183C196.524 231.289 196.354 231.343 195.678 230.483C195.261 229.952 194.505 229.421 194.088 229.118C194.088 225.973 194.137 222.83 194.137 219.674C194.137 218.925 193.903 217.93 194.457 217.376C195.366 216.467 196.202 215.301 196.871 214.205C197.776 212.724 198.759 211.443 199.504 209.871C200.234 208.329 200.903 206.998 201.875 205.594C202.939 204.057 204.968 200.77 204.968 198.913C205.727 202.137 207.405 205.73 209.62 208.205C210.272 208.935 210.296 210.572 210.457 211.472C210.682 212.735 210.922 214.021 210.922 215.306C210.922 217.039 210.954 218.794 210.726 220.506C210.232 224.205 210.123 228.02 209.289 231.669C208.813 233.75 209.037 235.812 208.121 237.798C207.829 238.43 207.007 239.096 206.519 239.607Z" fill="#8A3B96"/>
<path d="M203.476 193.925C203.852 195.73 204.639 197.45 205.058 199.227C205.058 201.084 203.029 204.371 201.964 205.908C200.993 207.312 200.324 208.643 199.594 210.185C198.849 211.757 197.866 213.038 196.961 214.519C196.291 215.615 195.455 216.781 194.546 217.69C194.546 218.21 190.996 217.296 190.453 217.245C189.565 217.16 188.623 217.456 187.776 217.685C187.483 217.764 186.37 218.043 185.453 217.924C185.111 217.54 183.295 213.708 183.35 213.68C185.526 211.797 187.265 209.348 189.533 207.548C191.232 206.199 192.529 204.154 193.719 202.369C194.942 200.535 196.332 198.83 197.533 196.974C198.634 195.272 199.502 193.397 200.406 191.589C200.576 191.25 201.446 188.953 201.853 189.645C202.534 190.802 203.204 192.62 203.476 193.925Z" fill="#C667BC"/>
<path d="M124.924 271.016C151.197 288.078 188.832 281.841 206.54 254.574C215.401 240.929 220.737 225.082 220.564 210.516C218.781 191.82 215.279 185.72 206.924 178.516C209.662 190.023 209.367 229.724 201.604 240.467C163.309 287.232 98.6504 253.954 124.924 271.016Z" fill="#4E3B21"/>
<path d="M197 375.804L156 380.304L125 374.804L132 380.304L161 387.304L197 375.804Z" fill="url(#paint37_linear_864_608)"/>
<path d="M302.663 341.869L313.849 302.169L330.562 275.487L322.84 279.917L305.486 304.183L302.663 341.869Z" fill="url(#paint38_linear_864_608)"/>
<defs>
<radialGradient id="paint0_radial_864_608" cx="0" cy="0" r="1" gradientUnits="userSpaceOnUse" gradientTransform="translate(186.487 487.289) rotate(67.0387) scale(78.4424 147.721)">
<stop stop-color="#A08464"/>
<stop offset="1" stop-color="#645143"/>
</radialGradient>
<linearGradient id="paint1_linear_864_608" x1="179.056" y1="488.436" x2="166.978" y2="470.381" gradientUnits="userSpaceOnUse">
<stop stop-color="#493A48"/>
<stop offset="1" stop-color="#706D75"/>
</linearGradient>
<linearGradient id="paint2_linear_864_608" x1="100.586" y1="270.874" x2="108.134" y2="242.391" gradientUnits="userSpaceOnUse">
<stop stop-color="#706D75"/>
<stop offset="1" stop-color="#B8B2BF"/>
</linearGradient>
<linearGradient id="paint3_linear_864_608" x1="95.5927" y1="307.794" x2="98.6748" y2="278.565" gradientUnits="userSpaceOnUse">
<stop stop-color="#706D75"/>
<stop offset="1" stop-color="#B8B2BF"/>
</linearGradient>
<linearGradient id="paint4_linear_864_608" x1="86.485" y1="324.646" x2="105.698" y2="334.226" gradientUnits="userSpaceOnUse">
<stop stop-color="#706D75"/>
<stop offset="1" stop-color="#B8B2BF"/>
</linearGradient>
<linearGradient id="paint5_linear_864_608" x1="100.49" y1="379.66" x2="94.9418" y2="351.262" gradientUnits="userSpaceOnUse">
<stop stop-color="#706D75"/>
<stop offset="1" stop-color="#B8B2BF"/>
</linearGradient>
<linearGradient id="paint6_linear_864_608" x1="111.643" y1="414.861" x2="99.9047" y2="389.031" gradientUnits="userSpaceOnUse">
<stop stop-color="#706D75"/>
<stop offset="1" stop-color="#B8B2BF"/>
</linearGradient>
<linearGradient id="paint7_linear_864_608" x1="130.579" y1="444.509" x2="114.436" y2="421.801" gradientUnits="userSpaceOnUse">
<stop stop-color="#706D75"/>
<stop offset="1" stop-color="#B8B2BF"/>
</linearGradient>
<linearGradient id="paint8_linear_864_608" x1="157.398" y1="468.233" x2="136.37" y2="450.937" gradientUnits="userSpaceOnUse">
<stop stop-color="#706D75"/>
<stop offset="1" stop-color="#B8B2BF"/>
</linearGradient>
<linearGradient id="paint9_linear_864_608" x1="104.519" y1="254.667" x2="112.967" y2="226.437" gradientUnits="userSpaceOnUse">
<stop stop-color="#706D75"/>
<stop offset="1" stop-color="#B8B2BF"/>
</linearGradient>
<linearGradient id="paint10_linear_864_608" x1="97.6946" y1="289.673" x2="103.045" y2="260.72" gradientUnits="userSpaceOnUse">
<stop stop-color="#706D75"/>
<stop offset="1" stop-color="#B8B2BF"/>
</linearGradient>
<linearGradient id="paint11_linear_864_608" x1="95.8779" y1="327.023" x2="95.9051" y2="297.748" gradientUnits="userSpaceOnUse">
<stop stop-color="#706D75"/>
<stop offset="1" stop-color="#B8B2BF"/>
</linearGradient>
<linearGradient id="paint12_linear_864_608" x1="97.9874" y1="362.846" x2="94.6619" y2="333.947" gradientUnits="userSpaceOnUse">
<stop stop-color="#706D75"/>
<stop offset="1" stop-color="#B8B2BF"/>
</linearGradient>
<linearGradient id="paint13_linear_864_608" x1="105.447" y1="398.164" x2="97.6488" y2="370.49" gradientUnits="userSpaceOnUse">
<stop stop-color="#706D75"/>
<stop offset="1" stop-color="#B8B2BF"/>
</linearGradient>
<linearGradient id="paint14_linear_864_608" x1="121.985" y1="429.58" x2="105.969" y2="406.763" gradientUnits="userSpaceOnUse">
<stop stop-color="#706D75"/>
<stop offset="1" stop-color="#B8B2BF"/>
</linearGradient>
<linearGradient id="paint15_linear_864_608" x1="145.531" y1="455.887" x2="124.569" y2="438.498" gradientUnits="userSpaceOnUse">
<stop stop-color="#706D75"/>
<stop offset="1" stop-color="#B8B2BF"/>
</linearGradient>
<linearGradient id="paint16_linear_864_608" x1="172.16" y1="479.384" x2="150.176" y2="463.526" gradientUnits="userSpaceOnUse">
<stop stop-color="#706D75"/>
<stop offset="1" stop-color="#B8B2BF"/>
</linearGradient>
<linearGradient id="paint17_linear_864_608" x1="214.924" y1="340.232" x2="214.924" y2="500.232" gradientUnits="userSpaceOnUse">
<stop offset="0.275" stop-color="#C1B58F"/>
<stop offset="1" stop-color="#A59870"/>
</linearGradient>
<linearGradient id="paint18_linear_864_608" x1="259.501" y1="80.5151" x2="382.142" y2="204.376" gradientUnits="userSpaceOnUse">
<stop stop-color="#A59870"/>
<stop offset="0.264157" stop-color="#C1B58F"/>
<stop offset="1" stop-color="#A59870"/>
</linearGradient>
<linearGradient id="paint19_linear_864_608" x1="210.706" y1="454.595" x2="215.142" y2="518.033" gradientUnits="userSpaceOnUse">
<stop stop-color="#908564"/>
<stop offset="1" stop-color="#9D967F"/>
</linearGradient>
<radialGradient id="paint20_radial_864_608" cx="0" cy="0" r="1" gradientUnits="userSpaceOnUse" gradientTransform="translate(180.576 248.928) rotate(78.8271) scale(169.518 168.946)">
<stop stop-color="#A08464"/>
<stop offset="1" stop-color="#645143"/>
</radialGradient>
<linearGradient id="paint21_linear_864_608" x1="247.55" y1="291.073" x2="239.086" y2="313.858" gradientUnits="userSpaceOnUse">
<stop stop-color="#493A48"/>
<stop offset="1" stop-color="#706D75"/>
</linearGradient>
<linearGradient id="paint22_linear_864_608" x1="245.617" y1="503.075" x2="242.414" y2="480.902" gradientUnits="userSpaceOnUse">
<stop stop-color="#878A9C"/>
<stop offset="1" stop-color="#706D75"/>
</linearGradient>
<linearGradient id="paint23_linear_864_608" x1="260.107" y1="338.767" x2="246.693" y2="318.498" gradientUnits="userSpaceOnUse">
<stop stop-color="#706D75"/>
<stop offset="1" stop-color="#B8B2BF"/>
</linearGradient>
<linearGradient id="paint24_linear_864_608" x1="269.061" y1="369.466" x2="257.39" y2="347.692" gradientUnits="userSpaceOnUse">
<stop stop-color="#706D75"/>
<stop offset="1" stop-color="#B8B2BF"/>
</linearGradient>
<linearGradient id="paint25_linear_864_608" x1="272.707" y1="402.217" x2="263.439" y2="378.577" gradientUnits="userSpaceOnUse">
<stop stop-color="#706D75"/>
<stop offset="1" stop-color="#B8B2BF"/>
</linearGradient>
<linearGradient id="paint26_linear_864_608" x1="271.732" y1="435.701" x2="264.982" y2="410.398" gradientUnits="userSpaceOnUse">
<stop stop-color="#706D75"/>
<stop offset="1" stop-color="#B8B2BF"/>
</linearGradient>
<linearGradient id="paint27_linear_864_608" x1="259.707" y1="472.471" x2="261.336" y2="443.792" gradientUnits="userSpaceOnUse">
<stop stop-color="#706D75"/>
<stop offset="1" stop-color="#B8B2BF"/>
</linearGradient>
<linearGradient id="paint28_linear_864_608" x1="254.593" y1="325.922" x2="240.777" y2="306.015" gradientUnits="userSpaceOnUse">
<stop stop-color="#706D75"/>
<stop offset="1" stop-color="#B8B2BF"/>
</linearGradient>
<linearGradient id="paint29_linear_864_608" x1="264.762" y1="354.393" x2="252.347" y2="333.247" gradientUnits="userSpaceOnUse">
<stop stop-color="#706D75"/>
<stop offset="1" stop-color="#B8B2BF"/>
</linearGradient>
<linearGradient id="paint30_linear_864_608" x1="270.84" y1="386.721" x2="260.709" y2="363.721" gradientUnits="userSpaceOnUse">
<stop stop-color="#706D75"/>
<stop offset="1" stop-color="#B8B2BF"/>
</linearGradient>
<linearGradient id="paint31_linear_864_608" x1="272.515" y1="419.585" x2="264.302" y2="395.212" gradientUnits="userSpaceOnUse">
<stop stop-color="#706D75"/>
<stop offset="1" stop-color="#B8B2BF"/>
</linearGradient>
<linearGradient id="paint32_linear_864_608" x1="266.036" y1="454.818" x2="263.445" y2="427.438" gradientUnits="userSpaceOnUse">
<stop stop-color="#706D75"/>
<stop offset="1" stop-color="#B8B2BF"/>
</linearGradient>
<linearGradient id="paint33_linear_864_608" x1="249" y1="489.792" x2="256.96" y2="460.598" gradientUnits="userSpaceOnUse">
<stop stop-color="#706D75"/>
<stop offset="1" stop-color="#B8B2BF"/>
</linearGradient>
<linearGradient id="paint34_linear_864_608" x1="109.424" y1="132.016" x2="257.424" y2="330.516" gradientUnits="userSpaceOnUse">
<stop stop-color="#79634C"/>
<stop offset="1" stop-color="#77604B"/>
</linearGradient>
<linearGradient id="paint35_linear_864_608" x1="243.786" y1="484.156" x2="245.045" y2="502.159" gradientUnits="userSpaceOnUse">
<stop stop-color="#A35CAB"/>
<stop offset="1" stop-color="#77457D"/>
</linearGradient>
<linearGradient id="paint36_linear_864_608" x1="172.778" y1="472.753" x2="173.977" y2="489.899" gradientUnits="userSpaceOnUse">
<stop stop-color="#A35CAB"/>
<stop offset="1" stop-color="#77457D"/>
</linearGradient>
<linearGradient id="paint37_linear_864_608" x1="159.5" y1="375.804" x2="162" y2="400.804" gradientUnits="userSpaceOnUse">
<stop stop-color="#665343"/>
<stop offset="1" stop-color="#624F40"/>
</linearGradient>
<linearGradient id="paint38_linear_864_608" x1="316.71" y1="307.1" x2="295.5" y2="300.304" gradientUnits="userSpaceOnUse">
<stop stop-color="#5C4A3D"/>
<stop offset="1" stop-color="#5C4A3C"/>
</linearGradient>
</defs>
</svg>
