<svg width="387" height="387" viewBox="0 0 387 387" fill="none" xmlns="http://www.w3.org/2000/svg">
<circle cx="285.998" cy="181" r="2" transform="rotate(-8 285.998 181)" fill="#D9D9D9"/>
<path d="M276.558 190.699C275.211 191.898 274.634 193.3 274.953 194.88C275.381 196.999 276.698 198.564 278.008 201.015C283.5 211.292 285.79 209.907 290.949 220.283C295.172 228.778 303.932 244.689 309.195 248C314.458 251.311 338.694 236.883 362.5 217.999C368.5 213.24 373.8 202.999 375.65 198.499C377.5 193.999 377.636 191.676 379.068 187.156C379.836 184.731 381.357 178.783 381 173.5C380.692 168.935 380 165.5 378 163.5C376 161.5 374.5 165.5 374 165.5C373.5 165.5 372.5 165.622 372.5 163.5C372.5 161.378 371.375 158.178 369 157.5C367.307 157.016 364.5 157.5 363.499 160.499C362.499 163.499 361.182 162 361 161C360.818 159.999 359.734 155.236 357.5 155C355.266 154.764 354.521 154.631 352.001 156C349.481 157.369 347.5 160 347 160.5C346.5 161 345.5 162.5 344.908 163.317C343.442 165.342 341.85 169 341.5 172.499C341.15 175.999 341.5 179.999 339 183.499C336.5 186.999 332 189.364 328.5 191.156C325 192.947 315.321 190.566 309.195 186.364C305.533 183.852 304.912 184.352 301.003 182.635C297.706 181.187 294.964 181.548 291.568 182.53C288.171 183.513 284.389 185.017 282.49 186.331C278.825 188.865 277.438 189.915 276.558 190.699Z" fill="#E9C516"/>
<mask id="mask0_1195_2" style="mask-type:alpha" maskUnits="userSpaceOnUse" x="274" y="154" width="108" height="95">
<path d="M276.558 190.699C275.211 191.898 274.634 193.3 274.953 194.88C275.381 196.999 276.698 198.564 278.008 201.015C283.5 211.292 285.79 209.907 290.949 220.283C295.172 228.778 303.932 244.689 309.195 248C314.458 251.311 338.694 236.883 362.5 217.999C368.5 213.24 373.8 202.999 375.65 198.499C377.5 193.999 377.636 191.676 379.068 187.156C379.836 184.731 381.357 178.783 381 173.5C380.692 168.935 380 165.5 378 163.5C376 161.5 374.5 165.5 374 165.5C373.5 165.5 372.5 165.622 372.5 163.5C372.5 161.378 371.375 158.178 369 157.5C367.307 157.016 364.5 157.5 363.499 160.499C362.499 163.499 361.182 162 361 161C360.818 159.999 359.734 155.236 357.5 155C355.266 154.764 354.521 154.631 352.001 156C349.481 157.369 347.5 160 347 160.5C346.5 161 345.5 162.5 344.908 163.317C343.442 165.342 341.85 169 341.5 172.499C341.15 175.999 341.5 179.999 339 183.499C336.5 186.999 332 189.364 328.5 191.156C325 192.947 315.321 190.566 309.195 186.364C305.533 183.852 304.912 184.352 301.003 182.635C297.706 181.187 294.964 181.548 291.568 182.53C288.171 183.513 284.389 185.017 282.49 186.331C278.825 188.865 277.438 189.915 276.558 190.699Z" fill="#E9C516"/>
</mask>
<g mask="url(#mask0_1195_2)">
<path opacity="0.9" d="M353.238 194.099C361.711 195.321 364.461 205.091 364.777 209.824C366.93 210.341 371.391 211.481 372.011 211.901C372.631 212.321 379.107 200.517 382.268 194.562L399.447 177.393L385.524 155.535L357.409 143.831L338.123 169.174C337.625 170.343 336.352 173.509 335.24 176.823C333.851 180.965 333.133 184.998 335.413 190.496C337.692 195.994 342.647 192.573 353.238 194.099Z" fill="url(#paint0_linear_1195_2)"/>
<path opacity="0.3" d="M313.499 241.5C308.299 245.5 313.758 250.925 315.424 251.425C315.424 251.759 315.925 252.425 317.925 252.425C320.425 252.425 362.405 219.549 365.425 215.925C367.925 212.925 371 211.421 369 210.921C368.179 210.805 366.919 210.341 364.919 209.841C364.419 208.842 364.643 208.153 364 205.5C363.69 204.217 363.001 201.438 363 203.5C362.999 207.5 362.576 208.416 362.5 209.841C362.472 210.379 363.814 212.351 361.5 215C357.749 219.295 348.828 225.371 341.999 230C341.999 230 334.354 235.881 328.999 238.5C323.543 241.169 313.499 241.5 313.499 241.5Z" fill="url(#paint1_linear_1195_2)"/>
<g style="mix-blend-mode:multiply">
<path fill-rule="evenodd" clip-rule="evenodd" d="M359.25 170.032C358.88 168.013 358.003 166.244 356.746 165.356C356.292 165.013 355.735 164.875 355.26 164.757C355.208 164.744 355.158 164.732 355.108 164.719C353.089 164.963 351.817 167.733 352.184 170.762C352.55 173.917 354.433 176.194 356.453 175.95C357.84 175.829 358.855 174.319 359.241 172.429L359.241 172.303L359.243 171.924C359.371 171.294 359.374 170.664 359.25 170.032ZM368.201 186.524C370.361 185.455 371.768 183.374 371.617 181.224C371.418 178.796 369.238 176.833 366.627 176.32C365.901 176.105 365.104 176.131 364.307 176.157C360.441 176.325 357.38 179.1 357.642 182.204C357.905 185.308 361.137 187.715 365.038 187.427C366.149 187.231 367.26 187.034 368.201 186.524ZM366.674 166.345C367.583 167.273 368.034 168.854 367.894 170.654C367.871 171.174 367.692 171.779 367.548 172.262L367.548 172.262L367.548 172.262L367.44 172.625L367.404 172.746C366.817 174.282 365.611 175.239 364.451 175.158C362.772 175.054 361.618 172.737 361.852 170.176C362.087 167.614 363.616 165.568 365.295 165.672C365.694 165.659 366.262 165.959 366.674 166.345ZM375.815 174.206C376.555 172.737 376.732 171.223 376.259 170.054C376.023 169.469 375.656 169.1 375.375 169.078C374.014 168.404 371.999 169.545 370.804 171.769C369.608 173.994 369.818 176.331 371.287 177.07C372.324 177.549 373.666 177.033 374.772 175.933L374.838 175.825L375.033 175.501L375.815 174.206Z" fill="url(#paint2_linear_1195_2)"/>
</g>
<g opacity="0.2" filter="url(#filter0_f_1195_2)">
<path d="M299.374 172.215L296.654 172.754L296.828 184.786L305.711 224.093C306.928 232.22 310.211 249.359 313.606 252.89C317 256.421 319.866 254.829 320.875 253.591C320.91 250.924 320.852 244.136 320.346 238.32C319.713 231.05 318.343 224.509 316.465 216.318C314.586 208.126 312.834 205.554 311.31 200.601C310.091 196.639 302.845 180.026 299.374 172.215Z" fill="#090707"/>
</g>
<path opacity="0.3" d="M338.5 190.499C336.5 192 334.747 194.5 331 195.5C329.111 196.004 323.237 197.808 316.5 197.167C313.313 196.045 304.215 198.935 300.5 200.5C296.785 202.065 299.092 198.744 299.198 197.167C299.305 195.589 303.325 192.373 303.325 192.373L306.124 190.819L312.238 188.063L334.747 188.262L336.937 182.923L345 169.5C346 173.5 345 178.5 343 184.5C342.523 185.93 341 188 341 188C341 188 339.689 189.607 338.5 190.499Z" fill="#8C8C8C"/>
<path opacity="0.3" d="M328.202 214.397C327.872 217.655 325.301 219.056 322.63 217C317.968 213.41 315.886 205.962 315.364 200.174C314.877 194.775 312.802 185.18 314.261 183.918C318.073 184.57 321.082 169.669 326.064 178.909C331.046 188.15 323.157 189.755 323.657 196.416C324.384 206.099 328.45 211.952 328.202 214.397Z" fill="url(#paint3_linear_1195_2)"/>
<path opacity="0.15" d="M312.599 218.693C312.052 217.258 310.074 217.273 309.204 220.112C307.849 224.529 309.48 232.136 311.827 237.308C314.173 242.48 316.842 246.163 320.378 246.682C325.943 247.497 335.683 247.493 338.848 246.064C336.448 243.817 324.909 242.583 320.509 236.745C316.108 230.906 313.44 220.896 312.599 218.693Z" fill="url(#paint4_linear_1195_2)"/>
<path opacity="0.2" d="M342.592 203.536C340.484 201.362 338.437 204.907 337.825 206.096C335.7 210.224 333.826 212.493 336.82 221.548C339.814 230.604 351.944 248.526 355.064 246.646C358.355 244.663 365.142 240.331 367.909 237.855C366.01 237.973 353.598 237.509 349.249 228.064C344.899 218.618 344.7 205.709 342.592 203.536Z" fill="url(#paint5_linear_1195_2)"/>
</g>
<path d="M345.613 357.621C341.423 352.836 339.1 350.676 334.952 346.743C330.773 336.881 331 323 328 314C324.337 306.523 318 302.5 310.6 296.826L264.436 323.786C270.612 335.674 274.259 341.714 281.68 349.394C281.093 353.59 281.266 355.627 282.897 358.42C303.109 365.214 318.993 362.698 344.66 361.914C347.479 361.072 347.719 360.033 345.613 357.621Z" fill="url(#paint6_linear_1195_2)"/>
<mask id="mask1_1195_2" style="mask-type:alpha" maskUnits="userSpaceOnUse" x="264" y="296" width="84" height="68">
<path d="M345.613 357.621C341.423 352.836 339.1 350.676 334.952 346.743C330.773 336.881 331 323 328 314C324.337 306.523 318 302.5 310.6 296.826L264.436 323.786C270.612 335.674 274.259 341.714 281.68 349.394C281.093 353.59 281.266 355.627 282.897 358.42C303.109 365.214 318.993 362.698 344.66 361.914C347.479 361.072 347.719 360.033 345.613 357.621Z" fill="url(#paint7_linear_1195_2)"/>
</mask>
<g mask="url(#mask1_1195_2)">
<path d="M311 297.5L310 293.5L296 300.5L283 309L267.5 316L263 323.5L267.5 340L278 350L279 365L347.5 364L348.5 359.5L346 356.5C345.833 356.833 345.2 357.5 344 357.5C342.5 357.5 319.5 359 311 358.5C305.41 358.171 297.667 356.167 294.5 355.5C293.333 355.333 290.8 354.7 290 353.5C289 352 289.5 351 289.5 350C289.5 349 291.5 349 292.5 347.5C293.3 346.3 289.167 342 287 340C282.667 336 276.478 328.014 284 323.5C291.5 319 305.334 304.667 311 297.5Z" fill="url(#paint8_linear_1195_2)"/>
</g>
<path d="M92.0012 243.914C125.501 235.414 151.155 195.623 164.084 171.273L149.373 304.046C141.551 314.607 141.253 294.101 116.001 288.914C90.7492 283.727 58.5009 252.414 92.0012 243.914Z" fill="url(#paint9_linear_1195_2)"/>
<path d="M110.502 250.414C141.325 241.385 132 232.914 139 218.914L151.002 241.414L142.001 299.913C142.001 299.913 134.5 292.5 124.001 287.413C113.501 282.326 100.892 277.723 96.7641 270C92.8211 262.623 95.4437 254.825 110.502 250.414Z" fill="#265482"/>
<path d="M65.0688 223.597C64.0256 226.022 64.26 229.57 66.6669 231.446C68.2037 232.626 70.1776 232.878 72.3089 233.081C73.9195 233.273 75.5834 233.414 77.0807 234.02C81.4176 235.782 83.397 240.514 83.3956 245.306C83.4488 245.256 83.5529 245.258 83.657 245.26C87.9797 245.303 92.4942 243.736 95.8884 240.998C92.124 243.988 89.1451 243.794 84.355 243.688C84.355 243.688 83.487 244.809 83.3852 244.702C83.3068 245.898 83.0006 249.048 82.6629 250.187C81.761 253.293 80.188 256.123 78.7191 258.956C77.4167 261.323 76.1121 263.795 75.2216 266.38C72.6105 273.771 73.6164 282.493 77.8987 289.099C82.1809 295.705 89.7395 300.195 97.487 300.834C103.467 301.331 109.388 299.742 115.099 298.253C119.5 297.1 124.058 295.898 128.65 295.583C129.64 295.552 130.887 295.684 132.341 295.924C133.74 293.871 135.454 291.721 137.581 289.789C137.972 286.741 137.091 287.233 135.851 286.789C133.525 285.956 132.12 285.513 130.871 285.485C126.5 285.284 124.718 281.831 120.425 282.778C118.384 283.202 116.29 283.677 114.147 283.994C108.293 284.907 100.166 284.936 94.7547 279.92C88.427 273.947 89.1147 264.012 91.6057 257.347C93.2109 253.059 92.0191 255.938 93.6997 252.01C94.6892 248.805 96.0243 245.239 97.1568 242.536C99.0142 238.618 102.828 228.649 97.8932 220.934C93.5114 214.118 81.8086 210.943 71.3063 217.119C68.1896 219.082 66.0588 221.223 65.0688 223.597Z" fill="#E9C519"/>
<path opacity="0.5" d="M65.5387 231.985C63.657 229.912 63.3648 226.624 64.4658 223.939C65.7287 220.998 68.2761 218.866 71.0735 217.209C76.7724 213.896 84.2952 212.916 90.3445 214.977C87.8127 225.86 76.2327 236.024 65.5387 231.985Z" fill="#EBE8DA"/>
<g opacity="0.5">
<path d="M97.8027 220.573C97.8536 220.626 97.9045 220.679 97.9045 220.679C101.631 226.491 100.298 233.887 97.4536 240.588C92.4882 243.708 88.862 245.04 83.1673 245.8C83.382 243.148 82.9719 240.482 81.9255 238.324C89.5589 234.689 94.8653 228.582 97.8027 220.573Z" fill="#B0960F"/>
</g>
<g opacity="0.5">
<path d="M90.1828 268.39C86.3166 268.93 79.3801 266.335 75.6874 266.098C76.6252 263.034 79.3426 258.022 80.0338 257.299C86.3069 257.738 88.0652 258.299 92.0517 257.032C89.715 262.412 90.4659 265.201 90.1828 268.39Z" fill="#B0960F"/>
</g>
<path d="M119.763 358.487C123.733 353.605 126.008 353.389 130.058 349.355C133.306 339.248 128.86 329.434 132 321.5C134.931 314.093 145.397 308.581 149.792 299L205.56 324.443C200.439 336.446 197.267 342.559 190.116 350.415C191.407 354.57 191.522 354.601 190.116 357.426C168.507 364.78 150.34 362.748 121.479 362.727C118.195 361.974 117.769 360.947 119.763 358.487Z" fill="url(#paint10_linear_1195_2)"/>
<mask id="mask2_1195_2" style="mask-type:alpha" maskUnits="userSpaceOnUse" x="118" y="299" width="88" height="64">
<path d="M119.774 358.487C123.744 353.605 126.019 353.389 130.069 349.355C133.317 339.248 128.871 329.434 132.011 321.5C134.942 314.093 145.408 308.581 149.802 299L205.57 324.443C200.45 336.446 197.278 342.559 190.127 350.415C191.418 354.57 191.532 354.601 190.127 357.426C168.518 364.78 150.351 362.748 121.489 362.727C118.205 361.974 117.78 360.947 119.774 358.487Z" fill="url(#paint11_linear_1195_2)"/>
</mask>
<g mask="url(#mask2_1195_2)">
<path opacity="0.4" d="M79.8735 320.076C81.9036 313.552 88.1865 309.308 94.9968 309.86L127.239 312.477C136.629 313.239 143.42 321.781 142.043 331.102V331.102C140.692 340.254 132.002 346.447 122.911 344.738L91.1192 338.765C82.5359 337.152 77.2787 328.415 79.8735 320.076V320.076Z" fill="#B99C12"/>
</g>
<path d="M138.53 293.393C136.367 285.086 119.053 228.592 166.274 162.806L292.217 175.984C324.287 223.623 313.62 292.058 310.369 299.075C307.118 306.092 305.259 307.5 301.293 312.383C264.254 357.989 160.345 321.573 150.85 311.636C141.355 301.699 140.693 301.699 138.53 293.393Z" fill="url(#paint12_linear_1195_2)"/>
<path d="M169.321 193.42C165.349 193.911 169.869 189.201 172.625 186.785L267.631 185.003C272.968 188.84 283.899 196.828 284.93 198.085C285.961 199.341 286.17 200.306 286.146 200.632L281.771 202.764C282.213 203.125 284.392 205.318 289.576 211.208C294.76 217.098 297.755 230.891 297.208 231.434C296.662 231.978 290.918 230.967 290.918 230.967C291.575 232.944 300.665 236.46 300.653 246.168C300.64 251.236 295.235 244.345 295.672 246.181C296.543 249.844 297.462 255.756 296.851 260.966C295.783 270.085 286.968 282.244 286.968 282.244C286.968 282.244 285.677 284.105 281.853 288.478C278.817 291.949 275.111 295.484 272.034 295.911L271.436 285.054C270.861 286.485 268.719 291.339 264.754 299.301C260.789 307.263 254.061 310.793 251.193 311.562C251.193 311.562 251.286 302.106 250.809 301.621C250.332 301.137 249.051 302.557 249.051 302.557C247.544 303.919 243.921 307.286 241.481 309.857C238.431 313.071 236.96 313.944 235.926 308.953C235.098 304.959 234.183 307.185 233.829 308.797C232.936 311.352 229.384 315.863 227.706 315.738C226.029 315.613 215.481 305.549 214.405 305.387C213.33 305.225 210.729 307.571 210.729 307.571C208.275 305.914 202.698 302.157 200.019 300.385C197.34 298.613 188.768 290.536 188.166 289.674C187.564 288.813 186.228 294.108 186.228 294.108C177.102 286.218 173.759 274.716 173.513 274.053C173.267 273.391 170.435 281.713 169.109 277.354C163.403 258.595 169.368 248.886 168.781 247.933C167.837 246.402 162.565 249.314 162.565 249.314C162.365 245.695 163.261 236.629 163.465 233.892C163.668 231.155 166.42 219.703 166.033 218.732C165.646 217.761 156.547 223.433 156.547 223.433C156.632 222.292 157.161 218.957 158.599 214.739C160.037 210.521 170.539 199.081 175.611 193.888C175.169 193.527 173.293 192.929 169.321 193.42Z" fill="url(#paint13_radial_1195_2)"/>
<g style="mix-blend-mode:multiply">
<mask id="mask3_1195_2" style="mask-type:alpha" maskUnits="userSpaceOnUse" x="133" y="162" width="182" height="178">
<path d="M138.5 293.5C137 285.5 118.39 228.785 165.612 163L291.555 176.177C323.625 223.816 312.958 292.252 309.707 299.269C306.456 306.286 304.597 307.693 300.631 312.576C280.363 337.533 237.979 338.332 202.82 330.5C200.82 335 200.5 336 198 340C189.907 339.915 185.001 328.5 171.501 321C158.001 313.5 141.075 317.985 138 313.5C140 311.5 145.3 305.9 145.3 305.9C145.3 305.9 140 301.5 138.5 293.5Z" fill="url(#paint14_linear_1195_2)"/>
</mask>
<g mask="url(#mask3_1195_2)">
<path d="M133 258.193C131.4 233.793 126.501 194.193 146 198.193C165.5 202.193 144.5 263.193 158 286.693C173.779 314.161 209.171 325.201 237 324.695C258.762 324.298 275.858 319.583 280.5 318.5C292.5 315.7 308 299.833 311 297.5L302.5 312.193L296 319.193C293.167 321.193 285.1 326.293 275.5 330.693C263.5 336.193 249.5 336.5 229.5 338C213.54 339.197 189 342.667 180.5 340C174.167 338 160.8 333.6 158 332C154.5 330 150.5 328 142 320.5C135.2 314.5 136.834 293.526 136.5 290.193C136 289.693 134.6 282.593 133 258.193Z" fill="url(#paint15_linear_1195_2)"/>
</g>
</g>
<circle cx="166.5" cy="177.5" r="3.5" fill="#D9D9D9"/>
<path opacity="0.2" d="M166.501 198.5C170.502 189.3 184.835 172.667 191.501 165.5L192.501 172.5L182.501 186.5C179.001 190.5 171.601 199.3 170.001 202.5C168.001 206.5 165.501 214 163.501 221.5C161.501 229 161.001 251.5 158.001 254C155.601 256 154.668 253.833 154.501 252.5V249C154.501 247.4 157.501 229 159.001 220C159.834 216.667 162.501 207.7 166.501 198.5Z" fill="#887878"/>
<path d="M168.161 162C145.022 172.118 106.32 223.755 113.078 271.455C115.289 287.013 123.869 293.7 140.813 291.74C145.858 292.599 157.525 292.864 162.279 286.62C166.072 281.649 165.785 272.511 160.003 268.81C160.003 268.81 168.221 268.062 167.288 260.099C166.609 254.28 159.709 251.675 156.419 250.967C155.842 244.09 158.799 217.128 167.387 198.893L191.001 165L168.161 162Z" fill="#E9C516"/>
<g style="mix-blend-mode:multiply" opacity="0.5">
<path d="M131.307 211.5C130.682 211.168 128.849 208.592 131.28 206.28C135.523 202.245 142.59 201.628 147.829 202.268C152.718 202.865 161.844 209.592 162.627 211.339C161.777 213.69 159.987 221.922 159.487 224.422C158.987 220.922 154.263 211.343 148.255 210.503C139.523 209.282 133.281 212.55 131.307 211.5Z" fill="#D1D1D1"/>
</g>
<g style="mix-blend-mode:multiply" opacity="0.5">
<path d="M158.81 198.028C159.862 198.406 160.947 197 159.943 194.871C158.38 191.559 153.5 188.658 149.499 187.561C145.498 186.464 140 187.5 138.5 189C136.463 192.015 131 199 130 201.999C132.501 201.5 139.517 194 145 194C150.484 194 157.194 197.448 158.81 198.028Z" fill="#D1D1D1"/>
</g>
<g style="mix-blend-mode:multiply" opacity="0.5">
<path d="M151.5 233C152 233.5 152.45 229.453 152 228.5C150.437 225.187 149.879 222.867 143.19 221.032C136.5 219.198 121.001 220.499 120 222.499C118.373 225.754 116.001 233.5 115.5 236C116.238 234.601 126.501 225.956 134.001 227C141.5 228.044 150.286 231.785 151.5 233Z" fill="#D1D1D1"/>
</g>
<g opacity="0.2">
<path d="M115.075 279.405C118.881 289.258 127.12 293.326 140.825 291.739C145.87 292.611 157.537 292.862 162.291 286.619C166.084 281.648 165.797 272.51 160.015 268.809C160.015 268.809 168.232 268.06 167.3 260.097C167.253 259.712 167.181 259.34 167.084 258.969C166.168 261.051 164.475 263.577 161.457 264.769C157.358 266.373 152.901 265.681 152.351 270.472C151.993 273.662 155.487 276.065 155.263 280.088C155.019 284.37 149.055 286.559 141.124 284.867C141.124 284.867 122.838 288.636 115.075 279.405Z" fill="#2525AD"/>
</g>
<path d="M181.102 200.345C187.448 204.593 210.709 214.328 227.915 197.033C283.119 239.429 294.573 206.391 323.5 198C317.5 188 310.279 183.784 300.784 182.459C304.759 178.043 299.901 174.289 295.264 174.951L158.844 166.339C155.487 166.339 153.546 166.66 155.046 170.093C171.335 181.28 174.756 196.097 181.102 200.345Z" fill="url(#paint16_linear_1195_2)"/>
<path d="M236.501 192.914C248.737 194.941 294.005 187.011 300.501 182.414C300.501 182.414 319.501 186.414 308.001 186.914C296.501 187.414 275.001 192.914 264.001 201.414C253.001 209.914 236.501 192.914 236.501 192.914Z" fill="#265482"/>
<path d="M194.501 191.414C183.001 192.914 160.501 167.414 160.501 167.414C184.657 184.575 204.667 188.465 232.001 192.914C232.001 192.914 206.001 189.914 194.501 191.414Z" fill="#083868"/>
<circle cx="232.001" cy="198.629" r="8" fill="url(#paint17_linear_1195_2)"/>
<circle cx="232.001" cy="198.914" r="6" fill="#E2E1E0"/>
<mask id="mask4_1195_2" style="mask-type:alpha" maskUnits="userSpaceOnUse" x="222" y="190" width="24" height="18">
<rect x="222.001" y="201.477" width="22.0669" height="2.45188" transform="rotate(-28.5994 222.001 201.477)" fill="#D9D9D9"/>
<rect x="224.453" y="205.155" width="22.0669" height="2.45188" transform="rotate(-28.5994 224.453 205.155)" fill="#D9D9D9"/>
</mask>
<g mask="url(#mask4_1195_2)">
<circle cx="232.001" cy="198.914" r="6" fill="#D5D4D3"/>
</g>
<path d="M268.715 27.6783C251.044 40.3244 244.557 48.5092 235.027 63.7616L289.289 82.4253C291.842 60.7976 289.076 48.9789 276.721 28.4119C274.821 25.8416 273.368 25.122 268.715 27.6783Z" fill="url(#paint18_linear_1195_2)"/>
<path d="M269.102 37.1697C259.124 48.6036 255.597 57.7507 256.211 64.0459C256.825 70.3412 285.37 82.8101 287.37 73.428C289.37 64.0459 287.011 44.9313 276.369 33.428C275.127 32.0854 273.889 31.6847 269.102 37.1697Z" fill="url(#paint19_linear_1195_2)"/>
<path opacity="0.1" fill-rule="evenodd" clip-rule="evenodd" d="M281.605 75.2852C282.035 74.8625 282.359 74.3293 282.557 73.6738C285.27 64.7078 284.629 44.3429 275.619 31.8882C286.227 43.0526 289.284 62.3758 287.705 71.654C287.275 74.1798 284.889 75.2267 281.605 75.2852Z" fill="#6E5B00"/>
<path d="M150.128 99.3119C142.661 112.983 139.754 140.622 149.363 153.968C158.972 167.313 175.672 174.37 194.486 179.338C200.711 180.982 224.794 186.5 239.294 186.5C253.794 186.5 267.378 184.732 272.086 183.366C276.794 182 286.794 180 298.794 173C310.794 166 320.879 155.143 320.294 146C320.071 142.505 319.473 136.312 317.794 131.5C317.794 131.5 314.607 110.915 303.15 89.5102C291.692 68.1052 253.797 48.6205 218.525 51.5988C183.253 54.5771 157.595 85.6405 150.128 99.3119Z" fill="url(#paint20_linear_1195_2)"/>
<mask id="mask5_1195_2" style="mask-type:alpha" maskUnits="userSpaceOnUse" x="143" y="51" width="178" height="136">
<path d="M150.128 99.31C142.661 112.981 139.754 140.62 149.363 153.966C158.972 167.311 175.672 174.368 194.486 179.336C200.711 180.98 224.794 186.498 239.294 186.498C253.794 186.498 267.378 184.73 272.086 183.364C276.794 181.998 286.794 179.998 298.794 172.998C310.794 165.998 320.879 155.141 320.294 145.998C320.071 142.503 319.473 136.31 317.794 131.498C317.794 131.498 314.607 110.913 303.15 89.5083C291.692 68.1032 253.797 48.6186 218.525 51.5968C183.253 54.5751 157.595 85.6385 150.128 99.31Z" fill="url(#paint21_linear_1195_2)"/>
</mask>
<g mask="url(#mask5_1195_2)">
<path opacity="0.5" d="M208.758 52.107C208.758 52.107 210.758 51.5606 212.397 51.2682C214.036 50.9758 217.14 50.5005 217.14 50.5005C217.14 50.5005 223.66 57.7588 228.734 63.2816C234.279 69.3169 241.081 74.7364 239.529 75.7701C237.956 76.8178 226.892 67.254 221.57 61.9875C214.406 55.6685 208.758 52.107 208.758 52.107Z" fill="url(#paint22_linear_1195_2)"/>
<path opacity="0.5" d="M219.2 50.2812C219.2 50.2812 221.119 49.9643 223.024 49.8273C224.93 49.6903 226.834 49.5623 226.834 49.5623C226.834 49.5623 234.264 54.8985 236.948 59.746C237.91 61.8121 249.242 74.5 247.001 76C244.76 77.5 233.256 60.9246 230.045 57.1092C226.834 53.2938 219.2 50.2812 219.2 50.2812Z" fill="url(#paint23_linear_1195_2)"/>
<path opacity="0.5" d="M233.058 50.1743C233.058 50.1743 235.067 50.1241 237.061 50.2732C239.056 50.4224 240.609 50.3199 240.609 50.3199C240.609 50.3199 244.196 57.0913 248.768 62.3027C251.492 65.407 254.001 73.5 252.001 74C250.001 74.5 248.001 68 245.001 64C242.001 60 233.058 50.1743 233.058 50.1743Z" fill="url(#paint24_linear_1195_2)"/>
</g>
<path opacity="0.7" d="M197.561 171C198.716 168 214.561 175.351 214.561 171C214.56 166.649 193.694 160.44 195.561 155.5C196.526 153.077 213.431 157.278 230.061 157C247.308 156.712 264.297 151.873 265.061 145C266.561 131.5 270.71 127 275.561 131.5C280.411 136 281.141 140.5 292.061 140.5C301.061 140.5 306.459 134.028 308.561 137C310.562 139.969 298.726 147.987 302.061 150C306.061 149.5 311.561 138 313.561 141.5C315.135 145.255 304.835 155.825 307.013 156.498C309.192 157.172 320.994 142.296 317.163 152.073C311.523 163.753 292.131 177.345 271.561 181C221.911 189.823 195.697 175.84 197.561 171Z" fill="#FFEFA6"/>
<path d="M264.561 164.763C266.219 171.18 278.811 168.786 281.288 159.175C287.931 164.604 293.185 162.996 293.185 158.49" stroke="#CB9218" stroke-width="2"/>
<path d="M284.101 82.352C271.928 83.3521 271.109 110.571 280.143 128.915C289.177 147.259 314.772 130.207 312.307 114.328C309.841 98.4485 296.273 81.352 284.101 82.352Z" fill="url(#paint25_linear_1195_2)"/>
<path d="M291.587 87.1244C281.949 87.9163 274.53 115.656 287.442 128.88C300.355 142.104 314.399 127.583 312.446 115.01C310.494 102.437 301.226 86.3325 291.587 87.1244Z" fill="black"/>
<path d="M281.206 148.258L269.167 152.572C268.054 153.633 268.795 154.16 270.271 155.091C274.32 156.934 279.551 161.471 282.339 159.889C285.128 158.306 286.938 151.75 286.547 149.76C286.155 147.77 284.506 147.272 281.206 148.258Z" fill="#DB9A11"/>
<path d="M166.37 30.428C166.37 30.428 168.87 27.428 174.37 29.928C187.87 40.428 195.87 46.9279 202.37 63.9279L152.37 97.4279C149.385 84.8827 148.107 71.9007 149.37 62.428C152.37 39.9279 166.37 30.428 166.37 30.428Z" fill="url(#paint26_angular_1195_2)"/>
<path d="M165.819 41.9131C158.87 55.4277 161.84 76.1308 164.37 81.9279C166.9 87.7249 192.654 68.3332 192.947 64.836C193.241 61.3388 186.064 44.151 172.388 36.5004C170.635 35.5199 168.216 38.2605 165.819 41.9131Z" fill="url(#paint27_linear_1195_2)"/>
<path opacity="0.3" fill-rule="evenodd" clip-rule="evenodd" d="M179.856 76.8578C183.881 71.799 186.984 67.0038 187.292 64.8456C187.977 60.0361 180.892 45.8702 170.849 36.4817C171.395 36.2705 171.906 36.2688 172.371 36.5288C186.047 44.1794 193.225 61.3673 192.931 64.8645C192.794 66.5002 186.634 72.0288 179.856 76.8578Z" fill="#6E5B00"/>
<circle cx="5.03686" cy="5.03686" r="5.03686" transform="matrix(-0.723998 0.689802 0.689802 0.723998 215.129 69.4185)" fill="#D9D9D9"/>
<path d="M186.371 88.4665C192.547 84.0631 211.495 84.9917 217.981 81.3425C220.614 79.8606 221.373 75.49 219.289 73.302C213.526 67.2542 190.884 78.5999 186.508 82.7692C182.132 86.9386 182.703 91.0817 186.371 88.4665Z" fill="#D4B314"/>
<circle cx="277.566" cy="74.1246" r="4.02949" transform="rotate(43.6144 277.566 74.1246)" fill="#D9D9D9"/>
<path d="M294.369 80.9277C288.192 76.5244 278.448 80.4875 274.369 77.428C272.369 75.9276 272.755 71.8368 274.869 70.4277C277.869 68.4279 289.855 71.0611 294.231 75.2305C298.607 79.3999 298.037 83.543 294.369 80.9277Z" fill="#D4B314"/>
<path d="M227.335 87.6739C204.684 82.9102 184.865 109.558 187.536 131.442C190.207 153.326 247.05 158.6 254.376 142.176C261.702 125.751 249.987 92.4376 227.335 87.6739Z" fill="url(#paint28_linear_1195_2)"/>
<path d="M238.265 93.6281C224.601 86.2398 206.632 104.118 205.431 127.815C204.229 151.511 248.314 159.147 254.862 141.121C261.41 123.095 251.929 101.016 238.265 93.6281Z" fill="black"/>
<defs>
<filter id="filter0_f_1195_2" x="288.654" y="164.215" width="40.2285" height="98.8286" filterUnits="userSpaceOnUse" color-interpolation-filters="sRGB">
<feFlood flood-opacity="0" result="BackgroundImageFix"/>
<feBlend mode="normal" in="SourceGraphic" in2="BackgroundImageFix" result="shape"/>
<feGaussianBlur stdDeviation="4" result="effect1_foregroundBlur_1195_2"/>
</filter>
<linearGradient id="paint0_linear_1195_2" x1="340.5" y1="204" x2="368.134" y2="149.059" gradientUnits="userSpaceOnUse">
<stop stop-color="#D8BA27"/>
<stop offset="1" stop-color="#D23F00"/>
</linearGradient>
<linearGradient id="paint1_linear_1195_2" x1="363" y1="204.5" x2="303" y2="248.5" gradientUnits="userSpaceOnUse">
<stop stop-color="#6B4141"/>
<stop offset="1" stop-color="#6B4141" stop-opacity="0"/>
</linearGradient>
<linearGradient id="paint2_linear_1195_2" x1="368.408" y1="162.765" x2="356.354" y2="195.548" gradientUnits="userSpaceOnUse">
<stop stop-color="#F0BF99"/>
<stop offset="1" stop-color="#EDB990"/>
</linearGradient>
<linearGradient id="paint3_linear_1195_2" x1="327.272" y1="212.345" x2="322.707" y2="177.614" gradientUnits="userSpaceOnUse">
<stop stop-color="#CAAC16"/>
<stop offset="1" stop-color="#AE971D"/>
</linearGradient>
<linearGradient id="paint4_linear_1195_2" x1="309.5" y1="215.5" x2="332.644" y2="240.138" gradientUnits="userSpaceOnUse">
<stop stop-color="#CEB138"/>
<stop offset="1" stop-color="#6C5B1A"/>
</linearGradient>
<linearGradient id="paint5_linear_1195_2" x1="344.909" y1="208.456" x2="360.123" y2="226.737" gradientUnits="userSpaceOnUse">
<stop stop-color="#BCA015"/>
<stop offset="1" stop-color="#6B6B6B"/>
</linearGradient>
<linearGradient id="paint6_linear_1195_2" x1="313.266" y1="310.992" x2="286.469" y2="359.357" gradientUnits="userSpaceOnUse">
<stop stop-color="#FED201"/>
<stop offset="1" stop-color="#E7C001"/>
</linearGradient>
<linearGradient id="paint7_linear_1195_2" x1="313.266" y1="310.992" x2="286.469" y2="359.357" gradientUnits="userSpaceOnUse">
<stop stop-color="#FED201"/>
<stop offset="1" stop-color="#E7C001"/>
</linearGradient>
<linearGradient id="paint8_linear_1195_2" x1="277.5" y1="329" x2="347.5" y2="359.5" gradientUnits="userSpaceOnUse">
<stop stop-color="#E4BE18"/>
<stop offset="1" stop-color="#C8AA19"/>
</linearGradient>
<linearGradient id="paint9_linear_1195_2" x1="73.001" y1="232.914" x2="135.001" y2="272.914" gradientUnits="userSpaceOnUse">
<stop stop-color="#5082B3"/>
<stop offset="1" stop-color="#1E5284"/>
</linearGradient>
<linearGradient id="paint10_linear_1195_2" x1="134" y1="329" x2="199.628" y2="343.927" gradientUnits="userSpaceOnUse">
<stop stop-color="#EAC201"/>
<stop offset="1" stop-color="#E8C102"/>
</linearGradient>
<linearGradient id="paint11_linear_1195_2" x1="134.011" y1="329" x2="182.42" y2="353.716" gradientUnits="userSpaceOnUse">
<stop stop-color="#EAC201"/>
<stop offset="1" stop-color="#EBC305"/>
</linearGradient>
<linearGradient id="paint12_linear_1195_2" x1="246.861" y1="193.098" x2="214.402" y2="335.361" gradientUnits="userSpaceOnUse">
<stop stop-color="#FFD300"/>
<stop offset="1" stop-color="#E7C001"/>
</linearGradient>
<radialGradient id="paint13_radial_1195_2" cx="0" cy="0" r="1" gradientUnits="userSpaceOnUse" gradientTransform="translate(238.049 190.136) rotate(96.5247) scale(141.767 157.038)">
<stop offset="0.0001" stop-color="#FFF2E0"/>
<stop offset="1" stop-color="#FFDB2C"/>
</radialGradient>
<linearGradient id="paint14_linear_1195_2" x1="246.197" y1="193.292" x2="213.737" y2="335.555" gradientUnits="userSpaceOnUse">
<stop stop-color="#FFD300"/>
<stop offset="1" stop-color="#E7C001"/>
</linearGradient>
<linearGradient id="paint15_linear_1195_2" x1="302" y1="309" x2="131.266" y2="266.905" gradientUnits="userSpaceOnUse">
<stop stop-color="#F1F1F1"/>
<stop offset="1" stop-color="#EAE7E7"/>
</linearGradient>
<linearGradient id="paint16_linear_1195_2" x1="306" y1="186.414" x2="176.465" y2="198.358" gradientUnits="userSpaceOnUse">
<stop stop-color="#4F82B3"/>
<stop offset="1" stop-color="#1A4D80"/>
</linearGradient>
<linearGradient id="paint17_linear_1195_2" x1="237.608" y1="190.629" x2="226.394" y2="206.629" gradientUnits="userSpaceOnUse">
<stop stop-color="#D9D9D9"/>
<stop offset="1" stop-color="#CABABA"/>
</linearGradient>
<linearGradient id="paint18_linear_1195_2" x1="274.774" y1="31.5203" x2="243.899" y2="71.911" gradientUnits="userSpaceOnUse">
<stop stop-color="#FFDD38"/>
<stop offset="0.718286" stop-color="#E2BE0F"/>
</linearGradient>
<linearGradient id="paint19_linear_1195_2" x1="280.028" y1="28.542" x2="265.089" y2="84.0543" gradientUnits="userSpaceOnUse">
<stop stop-color="#FFE97B"/>
<stop offset="1" stop-color="#F8E68C"/>
</linearGradient>
<linearGradient id="paint20_linear_1195_2" x1="260.085" y1="65.9521" x2="197.267" y2="181.225" gradientUnits="userSpaceOnUse">
<stop stop-color="#FFDD38"/>
<stop offset="1" stop-color="#E2BE0F"/>
</linearGradient>
<linearGradient id="paint21_linear_1195_2" x1="284.388" y1="106.109" x2="293.058" y2="250.876" gradientUnits="userSpaceOnUse">
<stop stop-color="#ECC307"/>
<stop offset="1" stop-color="#EDCA1F" stop-opacity="0"/>
</linearGradient>
<linearGradient id="paint22_linear_1195_2" x1="226.135" y1="59.4778" x2="255.008" y2="77.4511" gradientUnits="userSpaceOnUse">
<stop stop-color="#CCAD14"/>
<stop offset="1" stop-color="#EDCA1F" stop-opacity="0"/>
</linearGradient>
<linearGradient id="paint23_linear_1195_2" x1="231.896" y1="54.8455" x2="258.68" y2="73.8823" gradientUnits="userSpaceOnUse">
<stop stop-color="#CCAD14"/>
<stop offset="1" stop-color="#EDCA1F" stop-opacity="0"/>
</linearGradient>
<linearGradient id="paint24_linear_1195_2" x1="245.034" y1="58.7874" x2="270.564" y2="71.7986" gradientUnits="userSpaceOnUse">
<stop stop-color="#CCAD14"/>
<stop offset="1" stop-color="#EDCA1F" stop-opacity="0"/>
</linearGradient>
<linearGradient id="paint25_linear_1195_2" x1="281.857" y1="82.8738" x2="301.392" y2="134.356" gradientUnits="userSpaceOnUse">
<stop stop-color="white"/>
<stop offset="1" stop-color="#E1E1E1"/>
</linearGradient>
<radialGradient id="paint26_angular_1195_2" cx="0" cy="0" r="1" gradientUnits="userSpaceOnUse" gradientTransform="translate(175.773 63.759) rotate(93.6568) scale(34.5924 26.5534)">
<stop offset="0.119946" stop-color="#EDCA1F"/>
<stop offset="0.386152" stop-color="#E8C000"/>
<stop offset="0.752364" stop-color="#FAD731"/>
</radialGradient>
<linearGradient id="paint27_linear_1195_2" x1="175.086" y1="31.6805" x2="178.038" y2="89.0921" gradientUnits="userSpaceOnUse">
<stop stop-color="#FFE97B"/>
<stop offset="1" stop-color="#F8E68C"/>
</linearGradient>
<linearGradient id="paint28_linear_1195_2" x1="224.045" y1="87.186" x2="220.784" y2="151.485" gradientUnits="userSpaceOnUse">
<stop stop-color="white"/>
<stop offset="1" stop-color="#E1E1E1"/>
</linearGradient>
</defs>
</svg>
