<svg width="520" height="560" viewBox="0 0 520 560" fill="none" xmlns="http://www.w3.org/2000/svg">
<g clip-path="url(#clip0_864_379)">
<ellipse cx="126" cy="59.5" rx="126" ry="59.5" transform="matrix(-1 0 0 1 430.076 440.974)" fill="url(#paint0_radial_864_379)"/>
<path d="M392.583 218.073C392.853 217.066 394.141 216.552 395.437 217.086C396.696 217.545 397.572 218.786 397.302 219.793L397.272 219.905C396.807 222.07 397.068 224.316 398.117 226.418C400.438 231.073 405.816 232.91 410.065 230.588C411.211 229.962 412.208 229.035 412.927 228.068C413.444 227.212 414.748 227.073 415.916 227.868C417.085 228.662 417.654 229.975 417.174 230.906C417.174 230.906 417.174 230.906 417.107 230.943C415.937 232.729 414.379 234.25 412.423 235.318C405.747 238.968 397.432 236.06 393.838 228.852C392.041 225.248 391.72 221.506 392.583 218.073Z" fill="#8E8B97"/>
<path opacity="0.25" d="M397.234 219.83C396.829 221.771 396.979 223.792 397.78 225.742C397.667 225.517 397.555 225.292 397.48 225.142C396.582 223.34 396.245 220.084 396.853 218.032C397.175 218.334 397.519 219.197 397.234 219.83Z" fill="#46395B"/>
<path opacity="0.25" d="M411.862 234.192C413.682 233.197 414.941 231.935 416.193 230.487C416.523 230.116 416.882 229.632 417.107 229.223C417.294 229.598 417.391 230.31 417.137 230.831C415.968 232.617 414.341 234.174 412.386 235.243C405.71 238.892 397.395 235.985 393.801 228.777C393.614 228.401 393.427 228.026 393.344 227.689C397.111 234.038 404.377 238.283 411.862 234.192Z" fill="#46395B"/>
<path opacity="0.3" d="M394.064 224.143C394.476 224.109 394.971 224.412 395.09 224.824C395.248 225.311 395.405 225.799 395.629 226.249C397.059 229.289 399.591 231.441 402.415 232.286C402.835 232.438 403.127 232.852 403.044 233.375C402.999 233.973 402.46 234.268 401.973 234.152C398.624 233.116 395.598 230.661 393.974 227.059C393.712 226.533 393.517 225.971 393.322 225.408C393.128 224.846 393.517 224.251 394.064 224.143Z" fill="#9C8C9A"/>
<path d="M339.939 466.776C338.98 467.055 338.471 468.418 338.788 469.822C339.105 471.227 340.184 472.25 341.144 471.971C341.216 471.944 341.216 471.944 341.288 471.916C343.261 471.518 345.407 471.862 347.223 473.14C351.321 475.877 352.599 481.763 350.168 486.288C349.533 487.52 348.647 488.489 347.607 489.247C346.8 489.736 346.561 491.175 347.237 492.442C347.841 493.737 349.054 494.439 349.933 493.922C349.933 493.922 349.933 493.922 350.004 493.895C351.707 492.702 353.247 491.033 354.338 488.998C358.183 481.955 356.108 472.783 349.699 468.508C346.599 466.555 343.187 466.068 339.939 466.776Z" fill="url(#paint1_linear_864_379)"/>
<path opacity="0.25" d="M341.287 471.916C343.046 471.6 344.994 471.84 346.701 472.801C346.504 472.698 346.351 472.487 346.153 472.383C344.562 471.288 341.563 470.822 339.644 471.38C339.95 471.801 340.669 472.243 341.287 471.916Z" fill="#46395B"/>
<path opacity="0.25" d="M353.421 488.452C352.375 490.38 351.139 491.752 349.679 492.941C349.231 493.293 348.855 493.617 348.451 493.862C348.775 494.097 349.385 494.222 349.932 493.922C351.635 492.729 353.175 491.06 354.338 488.998C358.182 481.954 356.108 472.783 349.699 468.507C349.375 468.272 349.079 468.117 348.684 467.909C354.303 472.488 357.722 480.604 353.421 488.452Z" fill="#46395B"/>
<path opacity="0.3" d="M345.463 468.696C345.383 469.176 345.618 469.625 346.013 469.832C346.408 470.04 346.875 470.22 347.271 470.427C349.949 472.093 351.723 474.914 352.322 478.097C352.413 478.601 352.835 478.888 353.248 478.909C353.805 478.875 354.127 478.392 354.009 477.809C353.319 474.122 351.283 470.773 348.084 468.768C347.59 468.509 347.096 468.249 346.601 467.99C346.179 467.703 345.587 468.11 345.463 468.696Z" fill="#575878"/>
<path opacity="0.45" d="M339.939 466.776C338.98 467.055 338.471 468.418 338.788 469.822C339.105 471.227 340.184 472.25 341.144 471.971C341.216 471.944 341.216 471.944 341.288 471.916C343.261 471.518 345.407 471.862 347.223 473.14C351.321 475.877 352.599 481.763 350.168 486.288C349.533 487.52 348.647 488.489 347.607 489.247C346.8 489.736 346.561 491.175 347.237 492.442C347.841 493.737 349.054 494.439 349.933 493.922C349.933 493.922 349.933 493.922 350.004 493.895C351.707 492.702 353.247 491.033 354.338 488.998C358.183 481.955 356.108 472.783 349.699 468.508C346.599 466.555 343.187 466.068 339.939 466.776Z" fill="#BEBEBE"/>
<path d="M419.403 271.346C423.733 270.221 426.229 265.417 424.972 260.658L421.978 249.491C420.721 244.732 416.159 241.78 411.829 242.905C409.784 243.449 408.045 244.782 406.989 246.793C405.864 248.84 405.616 251.269 406.26 253.592L409.254 264.759C410.444 269.555 415.005 272.507 419.403 271.346ZM413.124 247.739C415.034 247.268 417.049 248.555 417.581 250.653L420.574 261.82C421.106 263.918 420.019 266.041 418.108 266.512C416.198 266.983 414.183 265.695 413.652 263.597L410.658 252.43C410.411 251.419 410.471 250.335 410.988 249.479C411.468 248.548 412.202 247.956 413.124 247.739Z" fill="url(#paint2_linear_864_379)"/>
<g opacity="0.35">
<path d="M412.411 262.653L409.417 251.486C409.17 250.474 409.231 249.39 409.748 248.534C410.197 247.715 410.999 247.086 411.883 246.794C413.179 246.468 414.438 246.926 415.374 247.943C414.707 247.639 413.876 247.52 413.127 247.739C412.205 247.956 411.471 248.548 410.991 249.479C410.511 250.41 410.414 251.419 410.661 252.431L413.654 263.597C413.819 264.272 414.186 264.835 414.62 265.362C413.602 264.868 412.703 263.926 412.411 262.653Z" fill="#26366F"/>
<path d="M418.095 270.438C422.426 269.313 424.922 264.509 423.664 259.75L420.671 248.583C420.147 246.672 419.083 245.056 417.795 243.849C419.772 245.061 421.33 246.981 421.981 249.491L424.975 260.658C426.232 265.417 423.736 270.221 419.406 271.346C416.814 271.998 414.132 271.267 412.132 269.493C413.863 270.554 416.05 270.983 418.095 270.438Z" fill="#26366F"/>
</g>
<path opacity="0.3" d="M411.049 245.815C409.73 246.441 408.711 247.666 408.291 249.234C408.021 250.241 408.133 251.326 408.38 252.338L408.949 254.511C408.949 254.511 409.151 255.261 409.308 255.748C409.428 256.16 409.203 256.57 408.866 256.754C408.424 256.9 407.967 256.672 407.81 256.185C407.047 253.449 406.874 252.588 406.874 252.588C406.351 250.677 406.583 248.734 407.445 247.021C408.18 245.568 409.491 244.756 410.368 244.277C410.772 244.056 411.267 244.359 411.386 244.771C411.611 245.221 411.424 245.706 411.049 245.815Z" fill="#575878"/>
<path opacity="0.3" d="M418.385 267.412C419.704 266.786 420.723 265.561 421.143 263.993C421.413 262.986 421.301 261.901 421.054 260.889L420.927 260.29C420.927 260.29 420.725 259.54 420.567 259.053C420.448 258.641 420.673 258.231 421.01 258.047C421.452 257.901 421.909 258.129 422.066 258.616C422.829 261.352 422.56 260.639 422.56 260.639C423.084 262.55 422.851 264.493 421.989 266.206C421.254 267.659 419.943 268.471 419.067 268.95C418.662 269.171 418.168 268.868 418.048 268.456C417.891 267.969 418.011 267.521 418.385 267.412Z" fill="#575878"/>
<path d="M424.353 308.291C428.848 307.84 431.913 303.489 431.27 298.586L429.782 287.169C429.139 282.266 424.967 278.718 420.472 279.168C418.345 279.376 416.427 280.52 415.153 282.267C413.849 284.127 413.219 286.477 413.555 288.873L415.043 300.29C415.716 305.081 419.925 308.704 424.353 308.291ZM421.153 284.147C423.108 283.938 424.928 285.523 425.22 287.657L426.708 299.073C426.999 301.207 425.628 303.103 423.672 303.312C421.717 303.521 419.897 301.936 419.605 299.802L418.118 288.386C417.938 287.337 418.208 286.33 418.83 285.512C419.452 284.694 420.224 284.177 421.153 284.147Z" fill="url(#paint3_linear_864_379)"/>
<g opacity="0.35">
<path d="M418.527 298.672L417.039 287.255C416.859 286.207 417.129 285.199 417.751 284.382C418.306 283.601 419.182 283.122 420.074 283.017C421.377 282.877 422.643 283.523 423.377 284.651C422.741 284.234 421.976 284.079 421.22 284.11C420.328 284.215 419.452 284.694 418.897 285.475C418.275 286.293 418.073 287.263 418.185 288.349L419.672 299.765C419.77 300.476 420.069 301.077 420.436 301.641C419.41 300.96 418.646 299.944 418.527 298.672Z" fill="#26366F"/>
<path d="M423.207 307.197C427.702 306.746 430.767 302.396 430.124 297.492L428.636 286.076C428.352 284.129 427.558 282.365 426.367 281.01C428.15 282.52 429.475 284.661 429.782 287.169L431.27 298.586C431.913 303.489 428.848 307.84 424.353 308.29C421.678 308.606 419.079 307.351 417.311 305.356C418.982 306.64 421.079 307.405 423.207 307.197Z" fill="#26366F"/>
</g>
<path opacity="0.3" d="M419.378 281.964C417.947 282.364 416.815 283.365 416.223 284.93C415.848 285.9 415.751 286.908 415.863 287.994L416.124 290.239C416.124 290.239 416.221 290.951 416.281 291.587C416.334 292.036 416.071 292.37 415.697 292.48C415.255 292.626 414.828 292.286 414.738 291.762C414.349 288.917 414.244 288.018 414.244 288.018C413.96 286.072 414.47 284.169 415.512 282.644C416.426 281.38 417.88 280.681 418.764 280.389C419.206 280.243 419.7 280.546 419.79 281.07C419.977 281.445 419.752 281.855 419.378 281.964Z" fill="#575878"/>
<path opacity="0.3" d="M423.882 304.249C425.313 303.849 426.444 302.848 427.037 301.282C427.411 300.313 427.509 299.304 427.397 298.219L427.337 297.583C427.337 297.583 427.24 296.871 427.18 296.235C427.128 295.786 427.39 295.452 427.765 295.342C428.207 295.196 428.634 295.536 428.723 296.061C429.112 298.905 428.978 298.119 428.978 298.119C429.262 300.066 428.752 301.969 427.71 303.494C426.796 304.758 425.342 305.457 424.458 305.749C424.016 305.895 423.522 305.592 423.432 305.068C423.35 304.731 423.507 304.358 423.882 304.249Z" fill="#575878"/>
<path d="M424.051 344.859C428.575 345.157 432.247 341.334 432.293 336.436L432.319 324.957C432.365 320.059 428.65 315.879 424.126 315.581C421.983 315.415 419.915 316.258 418.357 317.779C416.768 319.412 415.891 321.611 415.883 324.004L415.857 335.484C415.849 340.457 419.563 344.637 424.051 344.859ZM424.087 320.666C426.02 320.756 427.645 322.639 427.659 324.733L427.634 336.212C427.648 338.306 425.992 339.976 424.059 339.886C422.127 339.796 420.501 337.913 420.487 335.819L420.512 324.34C420.505 323.293 420.88 322.324 421.577 321.656C422.274 320.989 423.188 320.584 424.087 320.666Z" fill="url(#paint4_linear_864_379)"/>
<g opacity="0.35">
<path d="M419.506 334.54L419.531 323.061C419.524 322.014 419.899 321.045 420.595 320.377C421.292 319.71 422.139 319.343 423.105 319.388C424.416 319.435 425.555 320.342 426.221 321.506C425.615 320.978 424.948 320.673 424.154 320.63C423.187 320.585 422.341 320.952 421.644 321.62C420.947 322.287 420.572 323.256 420.579 324.303L420.554 335.783C420.546 336.456 420.711 337.13 421.01 337.731C420.119 336.976 419.52 335.775 419.506 334.54Z" fill="#26366F"/>
<path d="M423.069 343.58C427.594 343.877 431.266 340.055 431.312 335.157L431.337 323.678C431.293 321.695 430.739 319.896 429.713 318.355C431.331 320.05 432.319 322.377 432.318 324.957L432.293 336.436C432.247 341.334 428.642 345.12 424.05 344.859C421.323 344.725 418.986 343.136 417.414 340.843C418.926 342.5 420.896 343.525 423.069 343.58Z" fill="#26366F"/>
</g>
<path opacity="0.3" d="M422.611 318.224C421.173 318.437 419.862 319.249 419.09 320.627C418.573 321.483 418.34 322.565 418.347 323.612L418.332 325.818C418.332 325.818 418.362 326.567 418.316 327.164C418.331 327.538 418.002 327.91 417.657 327.907C417.178 327.978 416.781 327.526 416.796 327.04C416.751 324.198 416.819 323.301 416.819 323.301C416.812 321.394 417.532 319.568 418.858 318.269C419.915 317.118 421.451 316.757 422.372 316.54C422.852 316.469 423.211 316.845 423.301 317.37C423.286 317.856 423.023 318.19 422.611 318.224Z" fill="#575878"/>
<path opacity="0.3" d="M424.096 340.821C425.535 340.608 426.846 339.796 427.618 338.419C428.135 337.563 428.368 336.48 428.36 335.433L428.405 334.835C428.405 334.835 428.376 334.087 428.421 333.489C428.406 333.115 428.736 332.744 429.08 332.747C429.56 332.676 429.957 333.127 429.942 333.613C429.986 336.456 429.956 335.708 429.956 335.708C429.963 337.615 429.243 339.441 427.917 340.739C426.86 341.89 425.324 342.252 424.403 342.469C423.924 342.54 423.564 342.163 423.474 341.639C423.459 341.265 423.789 340.894 424.096 340.821Z" fill="#575878"/>
<path d="M419.494 380.121C423.974 381.016 428.117 377.796 428.718 372.977L430.129 361.696C430.73 356.877 427.547 352.215 423.067 351.32C420.947 350.854 418.797 351.361 417.059 352.693C415.253 354.062 414.129 356.11 413.843 358.463L412.432 369.745C411.832 374.564 415.014 379.226 419.494 380.121ZM422.437 356.25C424.415 356.603 425.77 358.633 425.545 360.762L424.133 372.044C423.908 374.173 422.102 375.542 420.125 375.19C418.147 374.838 416.791 372.808 417.017 370.679L418.428 359.397C418.593 358.351 419.073 357.42 419.845 356.903C420.579 356.311 421.5 356.093 422.437 356.25Z" fill="url(#paint5_linear_864_379)"/>
<g opacity="0.35">
<path d="M416.133 369.25L417.545 357.969C417.71 356.923 418.19 355.992 418.961 355.475C419.696 354.882 420.617 354.665 421.591 354.897C422.909 355.132 423.951 356.187 424.415 357.462C423.875 356.897 423.239 356.481 422.475 356.325C421.538 356.168 420.617 356.385 419.845 356.902C419.111 357.495 418.526 358.388 418.428 359.397L417.017 370.678C416.942 371.388 417.002 372.024 417.234 372.662C416.44 371.758 416.013 370.558 416.133 369.25Z" fill="#26366F"/>
<path d="M418.611 378.693C423.09 379.588 427.234 376.368 427.834 371.549L429.246 360.268C429.479 358.325 429.127 356.415 428.303 354.764C429.689 356.682 430.407 359.155 430.092 361.621L428.681 372.902C428.08 377.721 423.936 380.941 419.457 380.046C416.782 379.501 414.573 377.651 413.337 375.174C414.685 377.017 416.528 378.303 418.611 378.693Z" fill="#26366F"/>
</g>
<path opacity="0.3" d="M421.231 353.661C419.748 353.612 418.362 354.274 417.342 355.5C416.72 356.317 416.346 357.287 416.248 358.295L415.955 360.462C415.955 360.462 415.88 361.172 415.835 361.77C415.783 362.181 415.483 362.44 415.071 362.474C414.621 362.433 414.224 361.981 414.307 361.458C414.607 358.619 414.712 357.797 414.712 357.797C414.945 355.855 415.949 354.255 417.351 353.107C418.587 352.144 420.13 351.969 421.127 351.902C421.576 351.943 421.936 352.32 421.921 352.806C421.943 353.367 421.576 353.663 421.231 353.661Z" fill="#575878"/>
<path opacity="0.3" d="M419.989 376.123C421.473 376.173 422.859 375.51 423.878 374.285C424.5 373.467 424.875 372.498 424.972 371.489L425.085 370.854C425.085 370.854 425.16 370.144 425.205 369.546C425.258 369.135 425.557 368.876 425.969 368.842C426.419 368.883 426.816 369.335 426.733 369.857C426.433 372.697 426.471 371.912 426.471 371.912C426.238 373.854 425.234 375.454 423.832 376.602C422.596 377.565 421.053 377.74 420.056 377.807C419.607 377.766 419.247 377.389 419.262 376.903C419.278 376.417 419.645 376.121 419.989 376.123Z" fill="#575878"/>
<path d="M408.286 415.294C412.533 417.272 417.238 415.178 418.85 410.666L422.531 400.15C424.143 395.638 421.972 390.424 417.724 388.446C415.724 387.532 413.484 387.515 411.551 388.285C409.483 389.128 407.932 390.836 407.16 393.074L403.479 403.589C401.867 408.101 404.076 413.391 408.286 415.294ZM416.15 393.033C418.008 393.832 418.928 396.195 418.246 398.097L414.565 408.613C413.92 410.589 411.785 411.47 409.995 410.633C408.137 409.833 407.216 407.47 407.899 405.569L411.58 395.053C411.954 394.084 412.614 393.341 413.46 392.974C414.307 392.607 415.274 392.652 416.15 393.033Z" fill="url(#paint6_linear_864_379)"/>
<g opacity="0.35">
<path d="M407.323 404.068L411.004 393.552C411.379 392.583 412.038 391.84 412.885 391.473C413.731 391.106 414.698 391.151 415.574 391.532C416.803 392.102 417.679 393.343 417.836 394.69C417.431 394.052 416.855 393.411 416.083 393.069C415.207 392.688 414.24 392.643 413.394 393.01C412.48 393.414 411.82 394.157 411.513 395.089L407.832 405.605C407.614 406.201 407.539 406.911 407.704 407.586C407.075 406.496 406.888 405.261 407.323 404.068Z" fill="#26366F"/>
<path d="M407.777 413.756C412.024 415.734 416.729 413.64 418.341 409.128L422.022 398.612C422.675 396.823 422.668 394.916 422.181 393.08C423.162 395.219 423.334 397.8 422.531 400.15L418.85 410.665C417.238 415.177 412.533 417.271 408.286 415.293C405.724 414.114 403.979 411.819 403.253 409.158C404.227 411.11 405.777 412.843 407.777 413.756Z" fill="#26366F"/>
</g>
<path opacity="0.3" d="M415.521 390.223C414.128 389.838 412.554 390.125 411.318 391.087C410.584 391.68 409.999 392.572 409.624 393.542L408.845 395.592C408.845 395.592 408.597 396.301 408.41 396.785C408.252 397.158 407.915 397.342 407.533 397.264C407.114 397.112 406.852 396.586 406.972 396.138C407.901 393.528 408.179 392.708 408.179 392.708C408.831 390.918 410.052 389.581 411.746 388.847C413.132 388.185 414.69 388.384 415.664 388.616C416.151 388.732 416.413 389.258 416.293 389.706C416.24 390.117 415.836 390.338 415.521 390.223Z" fill="#575878"/>
<path opacity="0.3" d="M409.688 411.566C411.081 411.951 412.654 411.664 413.891 410.702C414.625 410.109 415.21 409.216 415.585 408.247L415.802 407.651C415.802 407.651 416.049 406.942 416.237 406.457C416.394 406.085 416.731 405.9 417.113 405.978C417.533 406.131 417.795 406.657 417.675 407.104C416.745 409.715 416.993 409.006 416.993 409.006C416.341 410.796 415.119 412.132 413.426 412.867C412.04 413.529 410.481 413.33 409.508 413.097C409.021 412.981 408.759 412.456 408.879 412.008C408.901 411.709 409.306 411.488 409.688 411.566Z" fill="#575878"/>
<path d="M389.346 444.946C393.211 447.706 398.268 446.662 400.622 442.605L406.1 433.113C408.454 429.056 407.234 423.512 403.369 420.752C401.527 419.466 399.369 418.925 397.249 419.32C395.061 419.751 393.218 421.045 392.094 423.093L386.615 432.585C384.262 436.642 385.549 442.149 389.346 444.946ZM401.053 424.884C402.754 426.057 403.3 428.529 402.266 430.241L396.719 439.769C395.722 441.556 393.467 442.025 391.835 440.815C390.134 439.643 389.588 437.17 390.622 435.458L396.101 425.967C396.618 425.111 397.42 424.481 398.379 424.339C399.3 424.122 400.237 424.279 401.053 424.884Z" fill="url(#paint7_linear_864_379)"/>
<g opacity="0.35">
<path d="M390.315 433.811L395.794 424.319C396.311 423.463 397.113 422.833 398.072 422.691C398.994 422.474 399.9 422.743 400.784 423.311C401.952 424.106 402.559 425.494 402.476 426.877C402.207 426.164 401.697 425.487 401.023 424.996C400.207 424.391 399.27 424.234 398.311 424.376C397.39 424.593 396.551 425.147 396.034 426.003L390.555 435.495C390.232 436.053 390.053 436.725 390.045 437.398C389.686 436.161 389.701 434.815 390.315 433.811Z" fill="#26366F"/>
<path d="M389.144 443.336C393.009 446.096 398.066 445.052 400.419 440.995L405.898 431.503C406.865 429.828 407.24 427.999 407.031 426.202C407.607 428.562 407.397 431.066 406.137 433.188L400.659 442.679C398.305 446.737 393.248 447.781 389.383 445.021C387.076 443.32 385.699 440.729 385.52 437.96C386.051 440.059 387.264 441.975 389.144 443.336Z" fill="#26366F"/>
</g>
<path opacity="0.3" d="M400.941 422.079C399.571 421.395 398.02 421.383 396.634 422.045C395.72 422.449 395.06 423.191 394.543 424.047L393.411 425.908C393.411 425.908 393.022 426.503 392.767 427.025C392.609 427.397 392.13 427.468 391.778 427.279C391.321 427.051 391.194 426.451 391.419 426.042C392.805 423.66 393.225 422.953 393.225 422.953C394.124 421.314 395.668 420.28 397.443 419.882C398.912 419.557 400.447 420.056 401.429 420.475C401.886 420.703 402.043 421.19 401.855 421.675C401.63 422.084 401.256 422.193 400.941 422.079Z" fill="#575878"/>
<path opacity="0.3" d="M391.385 441.634C392.755 442.318 394.306 442.33 395.692 441.668C396.606 441.264 397.266 440.521 397.783 439.665L398.143 439.182C398.143 439.182 398.532 438.587 398.787 438.065C398.945 437.693 399.424 437.622 399.776 437.812C400.233 438.04 400.36 438.639 400.135 439.048C398.749 441.431 399.101 440.76 399.101 440.76C398.202 442.398 396.658 443.433 394.883 443.83C393.414 444.155 391.879 443.657 390.897 443.238C390.44 443.01 390.283 442.523 390.471 442.038C390.59 441.59 391.033 441.444 391.385 441.634Z" fill="#575878"/>
<path d="M362.558 468.665C365.636 472.429 370.858 472.919 374.177 469.766L381.91 462.386C385.23 459.234 385.419 453.589 382.341 449.826C380.858 448.057 378.918 446.92 376.738 446.678C374.49 446.473 372.348 447.167 370.721 448.724L362.988 456.104C359.669 459.257 359.48 464.901 362.558 468.665ZM378.991 453.09C380.332 454.746 380.256 457.176 378.795 458.548L371.062 465.928C369.6 467.3 367.353 467.095 366.012 465.439C364.672 463.783 364.747 461.353 366.209 459.981L373.942 452.601C374.639 451.934 375.59 451.605 376.594 451.725C377.493 451.807 378.339 452.3 378.991 453.09Z" fill="url(#paint8_linear_864_379)"/>
<g opacity="0.35">
<path d="M366.352 458.374L374.085 450.994C374.782 450.327 375.733 449.998 376.737 450.118C377.636 450.2 378.587 450.731 379.202 451.446C380.108 452.575 380.302 453.997 380.01 455.304C379.942 454.481 379.635 453.693 379.059 453.053C378.407 452.262 377.561 451.77 376.594 451.725C375.591 451.604 374.706 451.897 373.942 452.601L366.209 459.981C365.744 460.426 365.422 460.984 365.242 461.656C365.055 460.421 365.453 459.152 366.352 458.374Z" fill="#26366F"/>
<path d="M362.701 467.058C365.779 470.821 371.001 471.311 374.32 468.159L382.053 460.779C383.38 459.481 384.212 457.88 384.519 456.087C384.511 458.48 383.604 460.791 381.911 462.386L374.177 469.766C370.858 472.918 365.636 472.428 362.558 468.665C360.746 466.407 360.08 463.522 360.56 460.871C360.507 463.002 361.286 465.252 362.701 467.058Z" fill="#26366F"/>
</g>
<path opacity="0.3" d="M379.606 450.365C378.498 449.346 376.962 448.848 375.456 449.098C374.497 449.24 373.621 449.719 372.924 450.387L371.395 451.796C371.395 451.796 370.931 452.241 370.533 452.649C370.234 452.908 369.822 452.942 369.5 452.641C369.14 452.264 369.118 451.703 369.485 451.407C371.411 449.59 371.973 448.996 371.973 448.996C373.299 447.697 375.037 447.225 376.835 447.389C378.356 447.513 379.772 448.459 380.521 449.101C380.91 449.365 380.97 450.002 380.64 450.373C380.303 450.557 379.823 450.628 379.606 450.365Z" fill="#575878"/>
<path opacity="0.3" d="M365.315 466.107C366.424 467.125 367.96 467.623 369.465 467.374C370.424 467.232 371.301 466.752 371.998 466.085L372.433 465.752C372.433 465.752 372.897 465.307 373.294 464.898C373.594 464.639 374.006 464.605 374.328 464.907C374.688 465.283 374.71 465.845 374.343 466.141C372.417 467.958 372.949 467.476 372.949 467.476C371.623 468.774 369.884 469.246 368.087 469.083C366.566 468.958 365.15 468.012 364.401 467.371C364.012 467.106 363.952 466.47 364.282 466.099C364.581 465.839 365.098 465.843 365.315 466.107Z" fill="#575878"/>
<path d="M415.519 255.123C417.085 254.649 417.947 252.936 417.431 251.212L410.866 229.098C410.35 227.374 408.724 226.352 407.159 226.825C406.409 227.044 405.81 227.563 405.495 228.308C405.143 228.978 405.075 229.875 405.315 230.7L411.744 252.887C412.261 254.611 413.953 255.597 415.519 255.123Z" fill="url(#paint9_linear_864_379)"/>
<path opacity="0.3" d="M412.615 246.201C413.499 245.908 413.919 244.341 413.402 242.617L411.172 235.046C410.655 233.322 409.509 232.229 408.588 232.446C408.146 232.592 407.786 233.075 407.674 233.71C407.561 234.345 407.561 235.205 407.8 236.029L410.031 243.6C410.48 245.361 411.626 246.455 412.615 246.201Z" fill="#575878"/>
<path opacity="0.35" d="M413.978 250.137C414.795 249.882 415.424 249.251 415.739 248.506L409.451 227.292C410.088 227.708 410.56 228.311 410.799 229.135L415.889 246.226L417.049 250.274L417.364 251.249C417.88 252.973 417.018 254.686 415.452 255.16C413.887 255.633 412.261 254.611 411.745 252.887L410.27 247.865C410.787 249.589 412.48 250.574 413.978 250.137Z" fill="#26366F"/>
<path d="M422.32 290.102C423.893 289.815 424.897 288.215 424.516 286.418L419.929 263.796C419.585 262.073 418.057 260.902 416.416 261.226C415.63 261.369 414.993 261.813 414.573 262.52C414.221 263.19 414.048 264.049 414.22 264.91L418.807 287.532C419.151 289.254 420.746 290.389 422.32 290.102Z" fill="url(#paint10_linear_864_379)"/>
<path opacity="0.3" d="M420.232 280.924C421.191 280.782 421.678 279.178 421.334 277.455L419.786 269.703C419.441 267.98 418.393 266.738 417.434 266.88C416.954 266.951 416.595 267.434 416.377 268.031C416.16 268.627 416.16 269.487 416.332 270.349L417.881 278.101C418.195 279.936 419.243 281.178 420.232 280.924Z" fill="#575878"/>
<path opacity="0.35" d="M421.258 285.045C422.112 284.865 422.711 284.347 423.131 283.639L418.754 261.954C419.323 262.408 419.765 263.122 419.9 263.908L423.453 281.361L424.306 285.481L424.553 286.492C424.898 288.215 423.931 289.89 422.357 290.177C420.784 290.464 419.189 289.329 418.845 287.606L417.812 282.438C418.156 284.161 419.684 285.332 421.258 285.045Z" fill="#26366F"/>
<path d="M416.96 273.158C417.484 274.209 418.57 274.666 419.38 274.224C420.189 273.782 420.451 272.587 419.927 271.536C419.403 270.485 418.317 270.028 417.508 270.47C416.698 270.912 416.473 272.182 416.96 273.158Z" fill="#575878"/>
<path d="M424.153 327.509C425.771 327.484 427.023 326.036 426.956 324.352L425.906 301.422C425.801 299.664 424.401 298.232 422.85 298.22C422.056 298.176 421.314 298.582 420.819 299.139C420.325 299.696 420.047 300.516 420.047 301.376L421.098 324.306C421.135 326.101 422.498 327.458 424.153 327.509Z" fill="url(#paint11_linear_864_379)"/>
<path opacity="0.3" d="M423.436 318.155C424.402 318.2 425.137 316.747 425.033 314.989L424.652 307.171C424.548 305.413 423.664 303.985 422.735 304.015C422.219 304.011 421.784 304.344 421.567 304.94C421.244 305.499 421.139 306.321 421.139 307.181L421.519 314.999C421.623 316.757 422.47 318.11 423.436 318.155Z" fill="#575878"/>
<path opacity="0.35" d="M423.877 322.309C424.738 322.316 425.48 321.91 426.004 321.241L424.991 299.246C425.531 299.812 425.837 300.599 425.867 301.347L426.709 319.041L426.91 323.23L426.985 324.24C427.089 325.999 425.838 327.447 424.182 327.397C422.564 327.421 421.164 325.989 421.127 324.194L420.851 318.994C420.925 320.865 422.221 322.258 423.877 322.309Z" fill="#26366F"/>
<path d="M421.994 363.276C423.619 363.439 424.983 362.216 425.051 360.459L426.211 337.658C426.278 335.902 425.08 334.359 423.455 334.197C422.623 334.078 421.911 334.371 421.312 334.89C420.78 335.372 420.397 336.154 420.33 337.051L419.17 359.851C419.17 361.571 420.368 363.114 421.994 363.276Z" fill="url(#paint12_linear_864_379)"/>
<path opacity="0.5" d="M422.243 353.967C423.247 354.087 424.124 352.748 424.192 350.991L424.568 343.142C424.636 341.385 423.955 339.846 422.988 339.801C422.539 339.76 421.999 340.055 421.677 340.614C421.355 341.172 421.108 341.88 421.04 342.777L420.663 350.627C420.595 352.384 421.277 353.922 422.243 353.967Z" fill="#575878"/>
<path opacity="0.35" d="M422.272 358.156C423.104 358.274 423.883 357.944 424.445 357.35L425.574 335.522C426.046 336.124 426.286 336.948 426.248 337.733L425.397 355.301L425.149 359.45L425.118 360.422C425.05 362.179 423.619 363.439 422.061 363.239C420.435 363.077 419.2 361.459 419.305 359.778L419.546 354.582C419.411 356.376 420.647 357.993 422.272 358.156Z" fill="#26366F"/>
<path d="M414.546 398.591C416.149 399.052 417.692 398.018 418.037 396.3L422.358 374.161C422.703 372.443 421.67 370.715 420.067 370.254C419.265 370.023 418.479 370.166 417.842 370.61C417.205 371.054 416.748 371.686 416.575 372.544L412.254 394.684C411.947 396.476 412.98 398.205 414.546 398.591Z" fill="url(#paint13_linear_864_379)"/>
<path opacity="0.3" d="M416.113 389.517C417.087 389.749 418.144 388.598 418.421 386.918L419.944 379.301C420.289 377.584 419.78 376.047 418.769 375.74C418.282 375.624 417.773 375.807 417.345 376.327C416.881 376.772 416.566 377.517 416.393 378.376L414.871 385.992C414.593 387.673 415.14 389.285 416.113 389.517Z" fill="#575878"/>
<path opacity="0.35" d="M415.551 393.551C416.352 393.782 417.206 393.602 417.843 393.158L421.992 371.877C422.329 372.553 422.463 373.339 422.358 374.161L418.975 391.297L418.172 395.367L417.97 396.337C417.625 398.055 416.081 399.089 414.478 398.628C412.875 398.167 411.842 396.438 412.187 394.721L413.192 389.681C412.952 391.437 413.985 393.165 415.551 393.551Z" fill="#26366F"/>
<path opacity="0.8" d="M416.716 378.678C417.24 379.729 418.393 380.149 419.27 379.67C420.147 379.191 420.477 377.959 419.953 376.908C419.428 375.857 418.275 375.437 417.398 375.916C416.559 376.47 416.229 377.701 416.716 378.678Z" fill="#575878"/>
<path d="M398.056 430.057C399.471 431.003 401.247 430.606 402.086 429.192L412.939 410.17C413.741 408.68 413.285 406.732 411.936 405.749C411.262 405.258 410.431 405.139 409.712 405.246C409.03 405.427 408.326 405.908 407.906 406.615L397.053 425.637C396.146 427.088 396.603 429.036 398.056 430.057Z" fill="url(#paint14_linear_864_379)"/>
<path opacity="0.3" d="M402.253 422.126C403.069 422.73 404.418 421.993 405.257 420.579L408.96 414.064C409.762 412.575 409.8 410.93 408.916 410.362C408.527 410.097 407.942 410.13 407.403 410.425C406.863 410.72 406.264 411.239 405.882 412.021L402.179 418.535C401.407 419.913 401.369 421.558 402.253 422.126Z" fill="#575878"/>
<path opacity="0.35" d="M400.432 425.701C401.211 426.23 402.042 426.349 402.792 426.131L413.225 407.816C413.359 408.602 413.254 409.424 412.902 410.094L404.53 424.798L402.566 428.26L402.117 429.079C401.315 430.569 399.502 430.891 398.086 429.945C396.67 428.999 396.281 427.014 397.083 425.525L399.564 421.207C398.627 422.77 399.084 424.718 400.432 425.701Z" fill="#26366F"/>
<path d="M374.436 456.345C375.522 457.663 377.425 457.865 378.549 456.677L393.978 441.842C395.139 440.729 395.23 438.673 394.076 437.393C393.499 436.753 392.795 436.373 392.069 436.293C391.342 436.212 390.525 436.467 389.963 437.061L374.534 451.896C373.44 452.972 373.35 455.028 374.436 456.345Z" fill="url(#paint15_linear_864_379)"/>
<path opacity="0.3" d="M380.595 450.112C381.247 450.902 382.753 450.652 383.914 449.54L389.19 444.459C390.351 443.346 390.771 441.779 390.082 440.913C389.723 440.537 389.198 440.346 388.584 440.49C387.969 440.635 387.258 440.928 386.696 441.522L381.42 446.603C380.326 447.679 379.944 449.321 380.595 450.112Z" fill="#575878"/>
<path opacity="0.35" d="M377.988 452.971C378.602 453.686 379.373 454.029 380.167 454.072L394.929 439.793C394.892 440.578 394.577 441.323 394.045 441.805L382.168 453.266L379.313 455.973L378.616 456.64C377.454 457.753 375.589 457.626 374.503 456.309C373.417 454.991 373.44 452.972 374.602 451.86L378.086 448.522C376.925 449.634 376.834 451.69 377.988 452.971Z" fill="#26366F"/>
<path opacity="0.8" d="M382.387 447.509C382.911 448.56 384.065 448.98 384.941 448.501C385.818 448.022 386.148 446.79 385.624 445.739C385.1 444.688 383.946 444.268 383.07 444.747C382.193 445.226 381.9 446.533 382.387 447.509Z" fill="#575878"/>
<path d="M347.879 479.842C348.935 481.271 350.703 481.547 352.007 480.547L368.417 466.991C369.683 465.917 369.849 464.011 368.86 462.545C368.351 461.868 367.609 461.414 366.883 461.333C366.119 461.177 365.369 461.396 364.77 461.915L348.36 475.471C347.019 476.395 346.823 478.412 347.879 479.842Z" fill="url(#paint16_linear_864_379)"/>
<path opacity="0.45" d="M347.879 479.842C348.935 481.271 350.703 481.547 352.007 480.547L368.417 466.991C369.683 465.917 369.849 464.011 368.86 462.545C368.351 461.868 367.609 461.414 366.883 461.333C366.119 461.177 365.369 461.396 364.77 461.915L348.36 475.471C347.019 476.395 346.823 478.412 347.879 479.842Z" fill="#AEA8B4"/>
<path opacity="0.3" d="M354.369 474.098C354.99 475 356.534 474.825 357.732 473.788L363.405 469.158C364.671 468.084 365.196 466.555 364.544 465.765C364.252 465.351 363.728 465.16 363.076 465.23C362.492 465.262 361.78 465.556 361.113 466.112L355.441 470.741C354.309 471.741 353.785 473.27 354.369 474.098Z" fill="#575878"/>
<path opacity="0.35" d="M351.581 476.767C352.128 477.519 352.87 477.974 353.664 478.018L369.407 465.017C369.264 465.764 368.949 466.509 368.38 466.916L355.672 477.398L352.704 479.88L351.97 480.472C350.704 481.547 348.898 481.196 347.842 479.766C346.786 478.337 347.019 476.395 348.286 475.32L351.987 472.246C350.758 473.395 350.525 475.338 351.581 476.767Z" fill="#26366F"/>
<path d="M322.8 344.828C322.382 342.436 320.304 340.69 317.875 340.69H292.226C289.82 340.69 287.755 342.404 287.311 344.768L259.186 494.768C258.609 497.846 260.97 500.69 264.101 500.69H344.125C347.231 500.69 349.586 497.888 349.05 494.828L322.8 344.828Z" fill="url(#paint17_linear_864_379)"/>
<path d="M287.876 369.974L307.076 374.359V434.282L291.076 463.513L284.676 502.974L275.076 486.897L292.676 428.436L287.876 369.974Z" fill="#A39875"/>
<path d="M186.5 19C126.74 37.2803 103.483 57.1647 77 112L100 167L143 215.5L224.941 338.092L376.077 211.274L276 112L232 57.0001L186.5 19Z" fill="url(#paint18_linear_864_379)"/>
<path d="M97.5479 76.519L89.2078 90.996L135.221 161.875L171.2 187.901L207.025 231.315L202.668 206.98L142.786 147.084L97.5479 76.519Z" fill="#A4997C"/>
<path d="M262.929 206.117L262.929 206.117L262.93 206.118L262.929 206.117L254.17 220.643L227.132 183.173L197.788 148.756L195.149 122.431L228.324 173.443L262.929 206.117Z" fill="#AC9F7C"/>
<path d="M160.683 29.6972L152.783 32.3867L200.076 70.4742L187.649 53.4333L160.683 29.6972Z" fill="#A49976"/>
<path d="M204.421 89.7256L208.742 101.24L221.647 117.176L234 124.005L204.421 89.7256Z" fill="#ADA281"/>
<path d="M361.625 495.14L353.662 462.709L348.323 457.782L336.614 462.655L330.98 478.198L292.042 482.306L288.547 467.262L278.444 465.417L273.603 469.632L268.501 461.307L268.003 452.165L255.243 455.826L252.606 477.271L257.074 494.659L252.153 500.007L263.567 515.604L287.324 517.265L290.061 510.626L337.394 500.276L342.812 504.07L361.625 495.14Z" fill="url(#paint19_linear_864_379)"/>
<path d="M338.685 465.01L353.558 462.663L348.243 457.776L342.576 456.975L343.076 459.975L336.59 462.606L330.987 478.017L292.232 482.08L288.749 467.162L278.694 465.33L277.489 466.375L286.262 470.375L291.918 486.574L332.034 479.219L338.685 465.01Z" fill="#837B63"/>
<path d="M172.576 274.474C172.576 350.137 231.189 415.69 306.576 415.69C381.963 415.69 443.076 354.353 443.076 278.69C443.076 203.027 381.963 141.69 306.576 141.69C264.576 153.474 248.637 162.974 215.576 198.974C193.076 223.474 181.076 240.474 172.576 274.474Z" fill="url(#paint20_radial_864_379)"/>
<path d="M313.347 254.165C331.054 281.432 369.192 288.467 395.465 271.405C421.739 254.343 417.024 226.564 399.317 199.297C381.61 172.031 344.556 156.716 318.283 173.778C292.01 190.84 295.639 226.898 313.347 254.165Z" fill="#4E3B21"/>
<path d="M288.592 306.812C288.899 305.829 288.212 304.348 286.995 303.642C285.842 302.912 284.578 303.092 284.271 304.074L284.237 304.184C283.493 306.197 282.175 307.651 280.354 308.328C276.319 309.827 271.457 306.615 269.508 301.259C268.982 299.814 268.716 298.273 268.673 296.937C268.724 295.857 267.838 294.642 266.584 294.24C265.329 293.837 264.254 294.333 264.139 295.437C264.139 295.437 264.139 295.437 264.17 295.522C264.132 297.853 264.511 300.317 265.409 302.782C268.472 311.198 276.022 316.113 282.269 313.793C285.392 312.633 287.503 310.111 288.592 306.812Z" fill="url(#paint21_linear_864_379)"/>
<path opacity="0.45" d="M288.592 306.812C288.899 305.829 288.212 304.348 286.995 303.642C285.842 302.912 284.578 303.092 284.271 304.074L284.237 304.184C283.493 306.197 282.175 307.651 280.354 308.328C276.319 309.827 271.457 306.615 269.508 301.259C268.982 299.814 268.716 298.273 268.673 296.937C268.724 295.857 267.838 294.642 266.584 294.24C265.329 293.837 264.254 294.333 264.139 295.437C264.139 295.437 264.139 295.437 264.17 295.522C264.132 297.853 264.511 300.317 265.409 302.782C268.472 311.198 276.022 316.113 282.269 313.793C285.392 312.633 287.503 310.111 288.592 306.812Z" fill="#BEBED0"/>
<path opacity="0.25" d="M284.302 304.159C283.626 305.954 282.504 307.336 280.939 308.11C281.134 308.038 281.329 307.965 281.459 307.917C283.021 307.337 284.899 305.192 285.483 303.142C285.126 303.177 284.411 303.443 284.302 304.159Z" fill="#46395B"/>
<path opacity="0.25" d="M266.385 302.42C265.549 300.125 265.259 298.11 265.068 295.961C265.012 295.403 264.991 294.735 265.032 294.238C264.706 294.359 264.279 294.807 264.204 295.414C264.166 297.744 264.577 300.293 265.474 302.759C268.537 311.174 276.087 316.089 282.334 313.769C282.659 313.648 282.984 313.527 283.214 313.346C277.271 314.878 269.819 311.856 266.385 302.42Z" fill="#46395B"/>
<path opacity="0.3" d="M284.464 310.082C284.179 309.705 283.73 309.486 283.37 309.716C283.011 309.946 282.651 310.176 282.261 310.321C279.689 311.373 276.756 310.822 274.263 309.046C273.879 308.803 273.457 308.863 273.256 309.324C272.989 309.809 273.237 310.489 273.652 310.817C276.625 312.897 280.072 313.643 283.069 312.337C283.524 312.168 283.949 311.914 284.373 311.66C284.798 311.405 284.81 310.629 284.464 310.082Z" fill="#575878"/>
<path d="M285.385 488.298C286.044 489.291 285.834 490.699 284.927 491.457C284.02 492.215 282.663 492.068 282.004 491.076C281.958 490.997 281.958 490.997 281.912 490.918C280.476 489.003 278.557 487.486 276.479 486.918C271.856 485.529 268.097 488.748 268.008 494.034C267.961 495.45 268.242 496.883 268.746 498.29C269.182 499.309 268.716 500.55 267.578 500.913C266.486 501.355 265.168 500.865 264.685 499.767C264.685 499.767 264.685 499.767 264.639 499.688C263.791 497.42 263.296 494.941 263.338 492.566C263.428 484.289 269.354 479.343 276.581 481.518C280.024 482.654 283.047 485.11 285.385 488.298Z" fill="url(#paint22_linear_864_379)"/>
<path opacity="0.25" d="M281.958 490.997C280.66 489.32 278.952 487.89 277.108 487.181C277.318 487.269 277.541 487.242 277.751 487.329C279.561 487.845 282.235 489.976 283.553 491.961C283.062 491.936 282.268 491.665 281.958 490.997Z" fill="#46395B"/>
<path opacity="0.25" d="M264.342 492.925C264.3 495.3 264.694 497.199 265.332 499.379C265.538 500.003 265.697 500.548 265.915 501.057C265.542 500.961 264.983 500.549 264.673 499.881C263.825 497.614 263.33 495.135 263.326 492.681C263.416 484.404 269.342 479.457 276.568 481.632C276.942 481.728 277.257 481.859 277.677 482.034C270.971 480.615 264.428 483.689 264.342 492.925Z" fill="#46395B"/>
<path opacity="0.3" d="M279.969 485.143C279.813 485.557 279.414 485.69 278.994 485.515C278.574 485.34 278.108 485.086 277.688 484.911C274.724 483.914 271.969 484.5 270.012 486.316C269.705 486.607 269.227 486.467 268.878 486.143C268.437 485.66 268.395 485.044 268.761 484.718C271.025 482.611 274.237 481.857 277.785 483.037C278.31 483.256 278.835 483.474 279.36 483.693C279.885 483.912 280.137 484.615 279.969 485.143Z" fill="#575878"/>
<path d="M271.113 337.806L275.208 329.08C276.081 327.274 276.035 324.984 275.042 322.653C274.116 320.385 272.42 318.43 270.335 317.048C265.92 314.147 260.907 314.809 259.182 318.535L255.087 327.261C253.361 330.987 255.543 336.393 259.959 339.293C264.375 342.194 269.387 341.532 271.113 337.806ZM270.571 323.259C270.99 324.304 271.004 325.253 270.658 326.054L266.563 334.78C265.826 336.433 263.614 336.71 261.663 335.453C259.713 334.196 258.765 331.815 259.502 330.162L263.597 321.436C264.334 319.783 266.547 319.506 268.497 320.763C269.439 321.36 270.219 322.275 270.571 323.259Z" fill="url(#paint23_linear_864_379)"/>
<g opacity="0.35">
<path d="M268.008 334.537L272.103 325.811C272.449 325.01 272.48 324.01 272.016 323.015C271.619 322.083 270.838 321.168 269.942 320.52C268.619 319.661 267.268 319.524 266.203 320.029C266.925 320.046 267.802 320.302 268.564 320.826C269.505 321.423 270.219 322.276 270.638 323.321C271.056 324.367 271.07 325.316 270.725 326.117L266.63 334.843C266.399 335.377 265.967 335.723 265.469 336.007C266.574 336.008 267.526 335.491 268.008 334.537Z" fill="#26366F"/>
<path d="M261.337 338.987C256.921 336.087 254.739 330.681 256.465 326.955L260.559 318.229C261.272 316.741 262.522 315.753 263.97 315.231C261.803 315.457 260.012 316.502 259.114 318.473L255.019 327.198C253.293 330.925 255.476 336.33 259.891 339.231C262.536 340.949 265.396 341.462 267.635 340.741C265.739 340.939 263.421 340.369 261.337 338.987Z" fill="#26366F"/>
</g>
<path opacity="0.3" d="M270.826 319.94C272.146 321.077 273.102 322.623 273.403 324.214C273.596 325.237 273.385 326.163 273.039 326.964L272.256 328.669C272.256 328.669 271.98 329.254 271.774 329.623C271.613 329.941 271.812 330.407 272.147 330.72C272.595 331.044 273.091 331.039 273.298 330.67C274.332 328.545 274.587 327.846 274.587 327.846C275.3 326.358 275.226 324.511 274.478 322.596C273.839 320.97 272.543 319.668 271.671 318.855C271.268 318.48 270.727 318.536 270.566 318.854C270.359 319.223 270.445 319.678 270.826 319.94Z" fill="#575878"/>
<path opacity="0.3" d="M261.296 336.141C259.976 335.003 259.021 333.457 258.72 331.866C258.526 330.843 258.738 329.917 259.083 329.116L259.268 328.633C259.268 328.633 259.544 328.048 259.751 327.679C259.912 327.36 259.713 326.894 259.378 326.582C258.93 326.257 258.433 326.263 258.227 326.632C257.192 328.757 257.536 328.234 257.536 328.234C256.823 329.722 256.896 331.569 257.645 333.485C258.284 335.11 259.58 336.412 260.452 337.225C260.854 337.601 261.396 337.544 261.557 337.226C261.763 336.857 261.677 336.402 261.296 336.141Z" fill="#575878"/>
<path opacity="0.45" d="M270.314 316.934C272.399 318.316 274.094 320.271 275.02 322.539C275.837 324.517 276.022 326.375 275.511 328.051C274.027 327.511 272.297 326.833 270.521 326.207L270.591 325.991C270.937 325.19 270.969 324.19 270.504 323.196C270.107 322.264 269.326 321.348 268.43 320.7C266.48 319.443 264.267 319.72 263.53 321.373L262.311 323.981C260.487 323.684 258.618 323.438 256.633 323.46L258.935 318.398C260.84 314.746 265.898 314.033 270.314 316.934Z" fill="#9A9A9A"/>
<path d="M261.506 367.041L264.3 357.57C264.86 355.565 264.588 353.252 263.324 350.949C262.194 348.772 260.295 346.907 258.141 345.741C253.54 343.323 248.815 344.628 247.583 348.627L244.789 358.098C243.624 362.16 246.393 367.458 250.948 369.927C255.616 372.407 260.341 371.103 261.506 367.041ZM259.186 352.146C259.696 353.09 259.844 354.164 259.565 355.027L256.772 364.498C256.281 366.288 254.179 366.854 252.205 365.762C250.185 364.721 248.966 362.368 249.523 360.641L252.317 351.17C252.807 349.38 254.91 348.813 256.884 349.906C257.871 350.452 258.676 351.202 259.186 352.146Z" fill="url(#paint24_linear_864_379)"/>
<g opacity="0.35">
<path d="M258.127 364.078L260.921 354.608C261.2 353.744 261.006 352.721 260.542 351.727C260.032 350.783 259.206 349.919 258.286 349.435C256.939 348.741 255.563 348.769 254.633 349.399C255.333 349.303 256.143 349.496 256.996 349.917C257.916 350.401 258.788 351.214 259.252 352.209C259.762 353.152 259.91 354.226 259.631 355.09L256.838 364.561C256.674 365.157 256.31 365.566 255.878 365.912C256.894 365.737 257.779 365.158 258.127 364.078Z" fill="#26366F"/>
<path d="M252.304 369.507C247.703 367.09 244.934 361.792 246.144 357.679L248.938 348.208C249.404 346.583 250.452 345.407 251.879 344.772C249.868 345.237 248.254 346.633 247.648 348.69L244.854 358.161C243.689 362.223 246.459 367.521 251.014 369.99C253.774 371.44 256.569 371.612 258.631 370.54C256.732 371.016 254.504 370.622 252.304 369.507Z" fill="#26366F"/>
</g>
<path opacity="0.3" d="M258.992 348.782C260.403 349.817 261.495 351.21 261.976 352.875C262.282 353.909 262.25 354.909 261.972 355.773L261.436 357.614C261.436 357.614 261.273 358.21 261.088 358.693C260.994 359.074 261.238 359.489 261.552 359.688C262 360.012 262.475 359.893 262.614 359.461C263.335 357.137 263.522 356.376 263.522 356.376C263.988 354.751 263.69 352.882 262.783 351.006C261.986 349.42 260.531 348.158 259.635 347.509C259.187 347.185 258.646 347.242 258.552 347.622C258.413 348.054 258.611 348.52 258.992 348.782Z" fill="#575878"/>
<path opacity="0.3" d="M251.859 366.563C250.448 365.527 249.355 364.135 248.875 362.469C248.569 361.435 248.6 360.435 248.879 359.571L248.997 359.026C248.997 359.026 249.16 358.429 249.345 357.947C249.439 357.566 249.195 357.151 248.881 356.952C248.433 356.628 247.958 356.747 247.819 357.179C247.098 359.502 247.262 358.906 247.262 358.906C246.795 360.53 247.094 362.4 248.001 364.276C248.798 365.862 250.252 367.124 251.148 367.772C251.596 368.097 252.138 368.04 252.232 367.659C252.438 367.29 252.24 366.824 251.859 366.563Z" fill="#575878"/>
<path d="M256.888 398.121L258.11 387.933C258.356 385.728 257.701 383.432 256.187 381.272C254.741 379.174 252.726 377.576 250.457 376.677C245.739 374.805 241.435 376.876 240.943 381.285L239.721 391.473C239.162 395.82 242.61 400.908 247.374 402.729C252.026 404.539 256.329 402.467 256.888 398.121ZM252.449 383.122C253.072 384.077 253.378 385.112 253.279 386.049L252.057 396.237C251.814 398.163 249.934 399.031 247.912 398.268C245.822 397.443 244.354 395.232 244.552 393.357L245.774 383.169C246.017 381.243 247.897 380.375 249.92 381.137C250.931 381.519 251.781 382.218 252.449 383.122Z" fill="url(#paint25_linear_864_379)"/>
<g opacity="0.35">
<path d="M253.191 395.516L254.413 385.328C254.512 384.39 254.206 383.356 253.584 382.401C252.915 381.497 252.065 380.798 251.054 380.416C249.683 379.887 248.396 380.091 247.621 380.96C248.299 380.75 249.088 380.83 249.919 381.137C250.931 381.519 251.781 382.218 252.449 383.122C253.072 384.077 253.378 385.111 253.279 386.049L252.057 396.237C252.006 396.845 251.709 397.316 251.344 397.725C252.339 397.436 253.023 396.669 253.191 395.516Z" fill="#26366F"/>
<path d="M248.508 402.008C243.789 400.135 240.363 395.161 240.854 390.752L242.076 380.564C242.296 378.803 243.143 377.44 244.301 376.554C242.467 377.371 241.167 378.967 240.875 381.223L239.653 391.41C239.094 395.757 242.543 400.845 247.306 402.666C250.115 403.787 252.757 403.442 254.55 402.119C252.92 402.846 250.777 402.907 248.508 402.008Z" fill="#26366F"/>
</g>
<path opacity="0.3" d="M251.737 379.65C253.218 380.469 254.468 381.822 255.153 383.397C255.617 384.391 255.698 385.403 255.599 386.34L255.377 388.38C255.377 388.38 255.281 389.039 255.209 389.534C255.161 389.863 255.472 390.341 255.786 390.54C256.279 390.813 256.733 390.58 256.759 390.137C257.053 387.603 257.128 386.83 257.128 386.83C257.347 385.069 256.711 383.165 255.554 381.431C254.553 379.936 253.03 378.889 252.088 378.292C251.595 378.019 251.12 378.138 251.048 378.632C251.112 378.973 251.311 379.439 251.737 379.65Z" fill="#575878"/>
<path opacity="0.3" d="M247.679 399.081C246.198 398.261 244.948 396.908 244.263 395.334C243.799 394.339 243.718 393.328 243.817 392.39L243.822 391.833C243.822 391.833 243.918 391.174 243.991 390.68C244.039 390.35 243.727 389.873 243.414 389.674C242.92 389.401 242.467 389.633 242.44 390.077C242.146 392.611 242.242 391.952 242.242 391.952C242.023 393.713 242.659 395.617 243.816 397.351C244.817 398.846 246.341 399.892 247.282 400.49C247.776 400.763 248.251 400.644 248.323 400.149C248.35 399.706 248.105 399.291 247.679 399.081Z" fill="#575878"/>
<path d="M256.772 430.214L256.577 419.548C256.531 417.258 255.538 414.928 253.887 412.921C252.192 410.965 250.107 409.583 247.835 408.962C243.066 407.698 239.275 410.434 239.413 414.963L239.608 425.629C239.701 430.209 243.693 434.962 248.395 436.164C253.052 437.417 256.843 434.68 256.772 430.214ZM250.528 415.311C251.241 416.164 251.66 417.209 251.741 418.221L251.935 428.887C251.984 430.898 250.327 432.068 248.235 431.521C246.143 430.974 244.426 428.905 244.377 426.893L244.182 416.228C244.133 414.216 245.79 413.046 247.883 413.593C248.805 413.798 249.768 414.509 250.528 415.311Z" fill="url(#paint26_linear_864_379)"/>
<g opacity="0.35">
<path d="M252.935 428.04L252.741 417.374C252.727 416.425 252.308 415.379 251.528 414.464C250.814 413.611 249.872 413.014 248.883 412.746C247.488 412.382 246.289 412.762 245.694 413.705C246.305 413.432 247.072 413.399 247.882 413.592C248.872 413.86 249.814 414.457 250.528 415.31C251.241 416.163 251.66 417.209 251.741 418.22L251.935 428.886C251.952 429.556 251.767 430.039 251.469 430.511C252.33 430.097 252.992 429.216 252.935 428.04Z" fill="#26366F"/>
<path d="M249.282 435.306C244.513 434.042 240.587 429.351 240.495 424.771L240.3 414.105C240.227 412.259 240.827 410.759 241.897 409.697C240.218 410.753 239.254 412.661 239.255 415.003L239.449 425.668C239.542 430.248 243.534 435.001 248.236 436.203C251.093 436.995 253.558 436.297 255.129 434.673C253.654 435.638 251.599 435.876 249.282 435.306Z" fill="#26366F"/>
</g>
<path opacity="0.3" d="M249.365 411.793C250.87 412.447 252.257 413.647 253.167 415.244C253.744 416.25 253.983 417.222 254.018 418.285L254.089 420.41C254.089 420.41 254.105 421.081 254.1 421.638C254.119 422.03 254.409 422.393 254.835 422.604C255.307 422.763 255.76 422.531 255.742 422.139C255.676 419.456 255.638 418.672 255.638 418.672C255.565 416.825 254.771 414.961 253.41 413.318C252.251 411.863 250.658 411.032 249.625 410.537C249.198 410.327 248.678 410.497 248.719 411.003C248.649 411.218 248.893 411.633 249.365 411.793Z" fill="#575878"/>
<path opacity="0.3" d="M248.181 432.408C246.676 431.754 245.289 430.554 244.38 428.957C243.803 427.951 243.563 426.979 243.528 425.916L243.466 425.297C243.466 425.297 243.45 424.626 243.455 424.069C243.436 423.677 243.146 423.313 242.72 423.103C242.248 422.943 241.795 423.176 241.814 423.568C241.879 426.25 241.841 425.466 241.841 425.466C241.914 427.313 242.709 429.177 244.069 430.82C245.228 432.276 246.822 433.106 247.854 433.601C248.281 433.812 248.801 433.642 248.761 433.136C248.898 432.983 248.541 432.556 248.181 432.408Z" fill="#575878"/>
<path d="M265.57 463.881L261.816 452.798C261.049 450.491 259.422 448.319 257.317 446.823C255.211 445.327 252.917 444.593 250.841 444.717C246.419 444.992 244.036 449.043 245.66 453.834L249.414 464.917C251.017 469.594 255.967 473.274 260.502 473.009C264.857 472.671 267.127 468.61 265.57 463.881ZM255.186 450.453C256.082 451.101 256.817 452.068 257.169 453.051L260.922 464.134C261.647 466.214 260.594 467.947 258.631 468.082C256.667 468.217 254.54 466.607 253.815 464.527L250.061 453.444C249.337 451.364 250.39 449.632 252.353 449.497C253.345 449.486 254.29 449.805 255.186 450.453Z" fill="url(#paint27_linear_864_379)"/>
<g opacity="0.35">
<path d="M261.519 462.913L257.766 451.83C257.414 450.847 256.679 449.881 255.783 449.232C254.887 448.584 253.83 448.254 252.95 448.276C251.641 448.366 250.754 449.224 250.518 450.314C250.974 449.803 251.585 449.531 252.352 449.497C253.278 449.424 254.289 449.805 255.185 450.454C256.081 451.102 256.816 452.068 257.168 453.052L260.921 464.135C261.163 464.828 261.225 465.447 261.062 466.044C261.745 465.277 261.981 464.186 261.519 462.913Z" fill="#26366F"/>
<path d="M260.919 471.715C256.496 471.991 251.501 468.362 249.831 463.622L246.077 452.539C245.441 450.635 245.435 448.851 245.923 447.34C244.915 449.021 244.623 451.277 245.48 453.76L249.233 464.843C250.836 469.521 255.786 473.2 260.321 472.936C263.006 472.818 264.915 471.229 265.657 469.019C264.673 470.535 263.04 471.54 260.919 471.715Z" fill="#26366F"/>
</g>
<path opacity="0.3" d="M253.074 447.173C254.538 447.322 256.177 448.101 257.427 449.455C258.254 450.319 258.764 451.262 259.183 452.308L259.929 454.502C259.929 454.502 260.171 455.195 260.391 455.775C260.522 456.179 260.925 456.554 261.308 456.537C261.759 456.583 262.078 456.225 261.925 455.708C260.958 452.934 260.695 452.127 260.695 452.127C260.059 450.223 258.744 448.529 257.019 447.295C255.541 446.197 253.921 445.81 252.84 445.645C252.389 445.599 252.07 445.957 252.156 446.411C252.288 446.815 252.623 447.128 253.074 447.173Z" fill="#575878"/>
<path opacity="0.3" d="M258.915 469.003C257.451 468.855 255.812 468.075 254.562 466.722C253.735 465.858 253.225 464.914 252.807 463.868L252.586 463.289C252.586 463.289 252.345 462.595 252.125 462.016C251.993 461.612 251.545 461.288 251.207 461.254C250.757 461.208 250.437 461.566 250.591 462.083C251.557 464.856 251.248 464.1 251.248 464.1C251.885 466.004 253.2 467.699 254.925 468.933C256.403 470.03 258.023 470.418 259.104 470.583C259.554 470.629 259.873 470.271 259.787 469.816C259.768 469.424 259.366 469.049 258.915 469.003Z" fill="#575878"/>
<g opacity="0.45">
<path d="M266.059 467.051C264.719 468.141 262.775 468.669 260.546 468.275L259.285 468.036C260.867 467.639 261.671 466.048 260.989 464.196L260.815 463.565C262.462 463.509 263.555 462.282 263.324 460.475C263.198 459.515 262.733 458.52 261.974 457.718C261.148 456.854 260.16 456.308 259.192 456.154L258.224 456L257.303 453.175C256.973 452.306 256.439 451.527 255.701 450.839L258.74 451.426C259.775 451.642 260.719 451.961 261.752 452.456C261.841 452.632 261.862 452.746 261.951 452.922L265.704 464.005C265.943 464.977 266.091 466.051 266.059 467.051Z" fill="#575878"/>
<path d="M249.28 464.791L248.051 461.21C248.343 461.296 248.59 461.432 248.928 461.466L253.093 462.168L253.861 464.475C254.256 465.686 255.238 466.789 256.338 467.347L249.943 466.252C249.699 465.837 249.5 465.371 249.28 464.791Z" fill="#575878"/>
<path d="M247.574 449.345L251.063 449.978C250.02 450.597 249.624 452.006 250.129 453.506L250.48 454.49L248.139 454.085C247.216 453.88 246.425 454.078 245.857 454.578L245.593 453.771C245.067 452.157 244.991 450.588 245.297 449.281C245.93 449.123 246.718 449.203 247.574 449.345Z" fill="#575878"/>
</g>
<path d="M265.423 326.414C263.832 325.305 263.083 323.39 263.772 322.066L272.544 305.064C273.232 303.741 275.016 303.531 276.607 304.64C277.369 305.164 277.948 305.891 278.211 306.698C278.52 307.454 278.512 308.29 278.191 308.926L269.486 325.99C268.797 327.314 266.946 327.46 265.423 326.414Z" fill="url(#paint28_linear_864_379)"/>
<path opacity="0.45" d="M265.423 326.414C263.832 325.305 263.083 323.39 263.772 322.066L272.544 305.064C273.232 303.741 275.016 303.531 276.607 304.64C277.369 305.164 277.948 305.891 278.211 306.698C278.52 307.454 278.512 308.29 278.191 308.926L269.486 325.99C268.797 327.314 266.946 327.46 265.423 326.414Z" fill="#9A9A9A"/>
<path opacity="0.3" d="M269.161 319.602C268.265 318.954 267.964 317.363 268.653 316.039L271.638 310.211C272.327 308.887 273.617 308.405 274.559 309.002C275.007 309.326 275.339 309.918 275.401 310.537C275.463 311.156 275.388 311.929 275.067 312.565L272.081 318.394C271.459 319.78 270.17 320.262 269.161 319.602Z" fill="#575878"/>
<path opacity="0.35" d="M267.398 322.545C266.569 321.959 265.968 321.118 265.705 320.311L274.109 303.997C273.41 304.093 272.865 304.428 272.544 305.064L265.747 318.197L264.184 321.327L263.772 322.066C263.083 323.389 263.832 325.305 265.423 326.414C267.014 327.523 268.797 327.314 269.486 325.99L271.461 322.122C270.772 323.445 268.922 323.592 267.398 322.545Z" fill="#26366F"/>
<path d="M255.282 354.871C253.667 353.927 252.76 352.051 253.314 350.602L260.069 332.281C260.578 330.883 262.273 330.498 263.955 331.505C264.762 331.977 265.388 332.654 265.763 333.472C266.139 334.291 266.177 335.075 265.922 335.773L259.168 354.095C258.592 355.43 256.897 355.815 255.282 354.871Z" fill="url(#paint29_linear_864_379)"/>
<path opacity="0.3" d="M258.258 347.537C257.271 346.991 256.903 345.337 257.412 343.939L259.703 337.651C260.212 336.253 261.413 335.595 262.401 336.141C262.894 336.414 263.227 337.005 263.401 337.636C263.576 338.267 263.501 339.039 263.247 339.738L260.956 346.027C260.401 347.476 259.2 348.134 258.258 347.537Z" fill="#575878"/>
<path opacity="0.35" d="M256.763 350.73C255.889 350.195 255.242 349.405 254.933 348.649L261.388 331.078C260.755 331.236 260.232 331.685 260.023 332.333L254.796 346.462L253.547 349.791L253.201 350.592C252.692 351.989 253.554 353.916 255.169 354.86C256.784 355.805 258.546 355.482 259.055 354.084L260.582 349.892C260.073 351.289 258.378 351.674 256.763 350.73Z" fill="#26366F"/>
<path d="M249.186 387.194C247.502 386.466 246.324 384.618 246.653 383.147L250.288 363.227C250.55 361.693 252.135 361.018 253.774 361.797C254.627 362.218 255.343 362.792 255.765 363.56C256.232 364.276 256.449 365.134 256.262 365.895L252.627 385.816C252.41 387.299 250.871 387.923 249.186 387.194Z" fill="url(#paint30_linear_864_379)"/>
<path opacity="0.8" d="M250.817 379.166C249.784 378.671 249.212 377.108 249.475 375.574L250.505 369.046C250.767 367.512 252.634 368.036 252.634 368.036C253.42 368.394 254.469 369.56 254.394 370.333L253.203 377.179C252.895 378.764 251.895 379.61 250.817 379.166Z" fill="#575878"/>
<path opacity="0.35" d="M249.995 382.705C249.097 382.335 248.404 381.596 247.916 380.766L251.363 361.607C250.752 361.88 250.342 362.34 250.267 363.113L247.486 378.493L246.844 382.107L246.678 382.982C246.415 384.516 247.526 386.301 249.211 387.029C250.895 387.757 252.435 387.133 252.697 385.599L253.505 381.111C253.265 382.758 251.68 383.434 249.995 382.705Z" fill="#26366F"/>
<path opacity="0.8" d="M250.847 368.523C250.209 369.238 250.446 370.488 251.318 371.302C252.189 372.115 253.429 372.24 254.067 371.525C254.705 370.809 254.468 369.559 253.596 368.746C252.724 367.933 251.485 367.807 250.847 368.523Z" fill="#575878"/>
<path d="M247.508 420.077C245.799 419.513 244.53 417.768 244.612 416.16L245.865 395.329C245.948 393.721 247.398 392.921 249.107 393.485C249.938 393.792 250.7 394.315 251.234 395.094C251.747 395.759 252.077 396.629 252.002 397.401L250.749 418.232C250.6 419.778 249.216 420.641 247.508 420.077Z" fill="url(#paint31_linear_864_379)"/>
<path opacity="0.3" d="M248.24 411.679C247.183 411.349 246.498 409.774 246.581 408.166L247.053 401.024C247.136 399.416 248.047 398.394 249.058 398.775C249.53 398.934 250.067 399.435 250.354 400.077C250.641 400.719 250.792 401.515 250.784 402.35L250.312 409.493C250.208 410.987 249.297 412.009 248.24 411.679Z" fill="#575878"/>
<path opacity="0.35" d="M247.777 415.366C246.833 415.047 246.116 414.473 245.582 413.694L246.782 393.75C246.238 394.085 245.849 394.658 245.887 395.443L244.903 411.563L244.687 415.387L244.634 416.273C244.551 417.881 245.821 419.627 247.529 420.19C249.238 420.754 250.689 419.953 250.771 418.345L251.04 413.635C250.915 415.016 249.485 415.93 247.777 415.366Z" fill="#26366F"/>
<path d="M253.949 455.289C252.259 455.118 250.649 453.617 250.327 451.912L245.998 429.901C245.675 428.197 246.769 426.97 248.459 427.141C249.247 427.221 250.1 427.642 250.771 428.268C251.442 428.893 251.863 429.661 252.081 430.519L256.41 452.529C256.732 454.234 255.638 455.461 253.949 455.289Z" fill="url(#paint32_linear_864_379)"/>
<path opacity="0.3" d="M252.475 446.334C251.461 446.231 250.415 444.787 250.046 443.133L248.561 435.569C248.238 433.864 248.769 432.58 249.782 432.683C250.279 432.678 250.861 433.127 251.239 433.667C251.685 434.27 251.993 435.026 252.211 435.884L253.697 443.448C254.019 445.153 253.489 446.437 252.475 446.334Z" fill="#575878"/>
<path opacity="0.35" d="M253.003 450.288C252.102 450.197 251.249 449.776 250.624 449.099L246.512 427.947C246.102 428.407 245.96 429.117 246.111 429.913L249.448 446.973L250.267 451.014L250.507 451.986C250.829 453.691 252.439 455.192 254.129 455.363C255.818 455.535 256.912 454.308 256.59 452.603L255.644 447.602C255.719 449.171 254.693 450.46 253.003 450.288Z" fill="#26366F"/>
<path d="M271.008 490.297C269.539 490.705 267.631 489.675 266.767 488.027L255.578 466.546C254.714 464.898 255.225 463.222 256.695 462.814C257.441 462.667 258.229 462.747 259.037 463.219C259.777 463.628 260.515 464.316 260.891 465.135L272.08 486.615C272.99 488.213 272.478 489.889 271.008 490.297Z" fill="url(#paint33_linear_864_379)"/>
<path opacity="0.3" d="M266.625 481.435C265.789 481.684 264.356 480.535 263.492 478.887L259.659 471.475C258.795 469.826 258.832 468.269 259.736 468.083C260.21 467.963 260.75 468.185 261.332 468.635C261.914 469.084 262.493 469.812 262.869 470.63L266.702 478.042C267.566 479.691 267.575 481.196 266.625 481.435Z" fill="#575878"/>
<path opacity="0.35" d="M268.483 485.413C267.692 485.612 266.837 485.469 266.029 484.997L255.328 464.346C255.165 464.943 255.27 465.79 255.691 466.557L264.355 483.155L266.371 487.094L266.881 488.037C267.745 489.686 269.652 490.716 271.122 490.307C272.591 489.899 273.103 488.223 272.239 486.575L269.713 481.692C270.465 483.329 269.953 485.005 268.483 485.413Z" fill="#26366F"/>
<path d="M271.576 276.974L348.076 313.474L347.576 309.974L380.076 312.474L413.076 304.474L422.576 286.474L424.576 268.974L439.076 247.474L434.076 307.474L406.576 315.474L410.576 319.474L372.576 330.474L326.076 318.474L342.576 330.474L308.576 315.474L259.076 290.474L239.076 243.474L255.576 177.974L283.076 150.974L331.076 143.974L283.076 159.474L271.576 181.474L269.076 175.974L255.576 222.974L262.576 254.974L263.576 228.974L271.576 276.974Z" fill="url(#paint34_linear_864_379)"/>
<path d="M283.222 495.28L280.544 486.048L276.214 484.614L268.184 488.575L269.444 502.232L278.341 501.723L283.222 495.28Z" fill="url(#paint35_linear_864_379)"/>
<path d="M352.852 485.091L352.5 474.729L348.293 473.286L340.472 477.334L342.056 485.485L350.309 490.656L352.852 485.091Z" fill="url(#paint36_linear_864_379)"/>
<path d="M391.509 259.373C391.631 260.46 391.026 266.336 389.707 267.423C388.487 267.138 388.039 267.541 387.413 267.408C386.873 267.293 386.32 267.205 385.788 267.063C384.34 266.674 382.979 265.836 381.552 265.363C380.611 265.051 379.851 263.524 379.08 262.883C378.494 262.395 378.29 261.647 377.738 261.154C377.266 260.733 375.446 257.508 375.2 256.932C373.734 253.5 372.709 252.357 372.162 248.62C371.675 245.289 369.695 242.063 370.255 238.576C370.395 237.709 370.231 236.812 370.419 235.924L370.948 233.438C371.279 231.879 371.537 230.281 371.946 228.742C372.332 227.287 373.063 225.91 373.786 224.58C374.631 223.022 375.038 221.114 376.04 219.618C376.673 218.671 377.054 217.182 377.513 216.133C378.108 214.773 378.576 213.25 379.09 211.849C379.932 209.553 380.736 207.14 381.76 204.932C382.625 203.064 383.293 200.866 383.886 198.899C384.547 196.704 387.178 191.502 387.909 189.393C387.695 190.616 388.126 197.723 388.116 198.954C388.095 201.739 388.208 204.316 388.743 207.082C389.055 208.7 389.034 210.355 389.301 211.976C389.516 213.277 389.653 214.736 389.678 216.054C389.739 219.247 389.869 222.47 389.197 225.634C387.581 233.236 386.199 241.829 388.706 249.36C389.292 251.121 389.774 253.011 390.281 254.803C390.714 256.335 391.329 257.782 391.509 259.373Z" fill="#C34FBC"/>
<path d="M361.705 277.732C361.677 277.735 361.65 277.737 361.623 277.74C361.635 277.758 361.663 277.755 361.705 277.732C363.021 277.606 365.172 276.882 366.239 276.189C366.793 275.829 367.633 275.585 368.295 275.449C369.712 275.157 371.076 274.986 372.485 274.541C374.657 273.854 376.801 273.272 378.872 272.289C380.097 271.707 381.245 271.055 382.549 270.661C383.629 270.335 384.717 270.302 385.776 269.848C387.231 269.223 388.994 268.843 389.706 267.424C388.487 267.138 388.176 267.373 387.55 267.24C387.011 267.125 386.408 267.225 385.875 267.082C384.427 266.694 383.067 265.855 381.639 265.382C380.699 265.07 379.938 263.543 379.168 262.902C378.581 262.414 378.377 261.666 377.825 261.173C377.353 260.752 375.533 257.527 375.287 256.951C374.551 258.091 373.07 260.085 372.519 261.322C371.558 263.479 370.089 265.36 368.986 267.445C367.744 269.792 366.593 272.236 364.877 274.289C364.608 274.611 362.2 277.471 361.705 277.732Z" fill="#832FA0"/>
<path d="M353.27 272.232C352.552 271.368 351.439 270.456 351.019 269.4C351.375 268.33 352 266.507 352.119 265.947C352.332 264.946 353.053 264.123 353.312 263.158C353.459 262.61 353.858 262.022 354.156 261.538C354.462 261.041 354.474 260.432 354.757 259.911C355.205 259.086 355.502 257.902 355.81 256.993C356.46 255.075 356.708 253.023 357.472 251.161C358.073 249.694 358.109 248.11 358.419 246.654C358.827 244.731 358.633 242.825 359.033 240.943C359.456 238.952 359.683 236.944 360.111 234.932C360.617 232.55 360.92 230.186 361.424 227.815C361.68 226.609 362.409 225.485 362.783 224.295C362.995 223.618 363.933 222.348 364.044 221.635C364.986 222.339 366.804 224.155 367.722 224.934C368.481 225.578 369.047 226.443 369.736 227.161C369.926 227.359 372.618 228.769 372.208 228.797C371.799 230.337 371.541 231.935 371.21 233.493L370.681 235.979C370.493 236.868 370.657 237.765 370.517 238.632C369.957 242.119 371.937 245.345 372.424 248.676C372.971 252.412 373.996 253.556 375.462 256.987C374.725 258.128 373.245 260.122 372.694 261.358C371.733 263.515 370.263 265.397 369.16 267.481C367.918 269.829 366.768 272.272 365.052 274.325C364.76 274.674 361.95 278.012 361.797 277.776C360.733 277.86 357.9 278.176 357.183 276.862C356.858 276.266 356.058 275.58 355.593 275.047C354.789 274.127 354.056 273.178 353.27 272.232Z" fill="#9440A2"/>
<path d="M359.982 223.655C360.285 222.226 360.313 221.116 360.648 219.541C361.189 218.284 363.97 221.107 364.366 221.403C364.255 222.116 363.317 223.386 363.104 224.063C362.731 225.253 362.002 226.376 361.746 227.583C361.242 229.953 360.939 232.317 360.433 234.699C360.005 236.711 359.778 238.72 359.355 240.711C358.955 242.592 359.149 244.498 358.741 246.421C358.431 247.878 358.395 249.462 357.794 250.928C357.03 252.791 356.782 254.843 356.132 256.76C355.824 257.67 355.527 258.853 355.079 259.679C354.796 260.2 354.784 260.809 354.478 261.306C354.179 261.789 353.781 262.378 353.634 262.925C353.375 263.89 352.654 264.714 352.441 265.715C352.322 266.275 351.453 268.573 351.096 269.642C350.239 267.489 349.811 264.81 349.005 262.652C348.603 261.576 348.536 260.337 348.177 259.234C347.854 258.24 347.518 257.069 347.347 256.037C347.051 254.262 346.484 252.365 346.863 250.582C347.336 248.354 348.592 246.401 349.541 244.355C350.442 242.412 351.289 240.446 352.261 238.559C353.061 237.006 353.531 235.299 354.394 233.749C355.43 231.888 356.467 230.051 357.566 228.227C358.48 226.712 359.601 225.445 359.982 223.655Z" fill="#8A3B96"/>
<path d="M381.822 193.863C382.813 193.309 387.029 190.162 387.91 189.393C387.178 191.502 384.81 196.76 384.149 198.955C383.556 200.922 382.888 203.12 382.023 204.988C380.999 207.196 380.195 209.609 379.353 211.905C378.839 213.306 378.371 214.829 377.776 216.189C377.317 217.238 376.936 218.727 376.303 219.674C375.301 221.17 374.894 223.078 374.049 224.636C373.326 225.966 372.595 227.343 372.209 228.797C370.693 229.085 369.927 227.359 369.736 227.161C369.048 226.443 368.482 225.578 367.722 224.934C366.804 224.156 364.986 222.339 364.045 221.635C363.649 221.34 360.862 220.341 360.593 219.804C361.173 218.735 361.272 217.048 362.129 216.139C362.99 215.226 363.825 214.362 364.602 213.389C365.952 211.695 367.342 210.077 368.488 208.218C369.545 206.503 370.991 205.403 372.295 203.942C373.648 202.426 375.03 200.893 376.466 199.42C377.677 198.178 378.657 196.687 379.982 195.57C380.656 195.003 381.032 194.304 381.822 193.863Z" fill="#C667BC"/>
<path d="M348.36 244.53C346.689 246.35 341.148 251.916 339.419 253.676L339.461 252.463L342.698 247.577C342.698 247.577 343.388 245.099 343.802 243.496C344.358 241.347 344.573 239.104 345.064 236.931C345.603 234.547 344.935 232.199 344.766 229.827C344.631 227.936 344.478 226.016 344.287 224.139C344.141 222.707 344.313 221.079 343.923 219.702C343.552 218.394 343.707 212.708 343.45 211.331C344.191 212.54 346.406 217.321 347.414 218.323C350.048 220.939 352.518 221.32 354.581 224.355C355.343 225.476 356.806 225.934 357.104 227.223C356.112 231.429 355.354 236.194 352.408 239.621C351.662 240.489 351.183 241.514 350.403 242.363C349.731 243.095 349.031 243.8 348.36 244.53Z" fill="#5A2373"/>
<path d="M332.045 245.869C331.123 242.503 330.965 238.973 330.124 235.57C329.797 235.631 330.705 228.51 330.949 227.661C331.111 227.096 331.099 226.467 331.501 225.88C332.653 224.199 333.659 222.379 334.738 220.648C335.307 219.736 335.881 218.822 336.427 217.906C337.004 216.94 337.986 216.229 338.602 215.28C339.229 214.314 340.36 213.149 341.328 212.542C342.342 211.905 342.994 211.578 344.026 210.924C344.283 212.301 343.888 218.166 344.259 219.475C344.649 220.852 344.477 222.48 344.623 223.912C344.813 225.789 344.967 227.708 345.101 229.6C345.27 231.972 345.938 234.32 345.4 236.703C344.909 238.877 344.693 241.12 344.138 243.269C343.724 244.872 342.803 248.279 342.803 248.279L342.797 248.289C342.11 249.409 339.779 252.42 339.419 253.675C338.412 254.559 336.656 255.516 336.17 256.823C336.008 257.259 334.233 259.773 334.038 259.46C333.606 258.77 333.961 257.755 333.837 257.011C333.696 256.162 333.599 255.311 333.44 254.46C332.905 251.589 332.82 248.696 332.045 245.869Z" fill="#772D81"/>
<path d="M360.183 214.72C359.264 218.932 358.089 223.047 357.104 227.222C356.805 225.933 355.242 225.755 354.48 224.633C352.417 221.598 350.268 221.503 347.634 218.886C346.626 217.885 345.629 216.374 344.888 215.165C344.095 213.871 343.866 212.74 343.611 211.279C343.342 209.74 343.57 208.161 343.68 206.628C343.813 204.779 344.812 202.976 344.995 201.138C345.204 199.04 346.011 197.074 346.351 194.994C346.651 193.156 346.839 191.206 347.35 189.425C348.335 185.99 348.753 182.408 349.749 178.932C351.756 171.932 355.385 163.571 357.383 156.602C357.766 160.418 357.829 164.392 358.583 168.206C359.422 172.452 359.17 176.747 359.86 180.983C360.383 184.188 359.762 187.774 359.759 191.018C359.756 194.112 360.079 197.188 360.173 200.276C360.25 202.807 360.472 205.372 360.353 207.909C360.248 210.154 360.669 212.491 360.183 214.72Z" fill="#903A8B"/>
<path d="M357.39 156.604C357.199 156.973 356.093 158.404 355.911 158.662C355.424 159.356 354.936 160.013 354.503 160.741C353.346 162.685 351.041 163.982 349.954 165.98C347.452 170.583 345.2 175.25 342.907 179.935C340.772 184.296 339.318 189.029 337.218 193.4C336.063 195.803 335.521 198.451 334.362 200.84C333.24 203.155 333.264 205.991 332.133 208.302C331.092 210.428 330.475 212.824 329.82 215.108C329.581 215.94 329.154 216.723 328.909 217.577C328.604 218.638 328.614 219.654 328.563 220.75C328.329 225.767 328.901 230.418 330.086 235.334C330.095 235.588 330.125 235.735 330.182 235.724C330.15 235.594 330.118 235.464 330.086 235.334C330.043 234.119 330.471 230.445 330.672 229.743C330.835 229.178 330.941 226.897 331.343 226.31C332.496 224.629 333.502 222.809 334.581 221.078C335.15 220.166 335.723 219.252 336.27 218.336C336.846 217.37 337.829 216.659 338.444 215.71C339.071 214.744 340.202 213.579 341.17 212.971C342.184 212.335 342.585 211.936 343.618 211.281C343.349 209.743 343.578 208.163 343.688 206.631C343.821 204.781 344.819 202.978 345.002 201.141C345.212 199.042 346.018 197.077 346.358 194.997C346.659 193.158 346.846 191.209 347.357 189.428C348.342 185.993 348.76 182.41 349.757 178.935C351.764 171.935 355.392 163.573 357.39 156.604Z" fill="#A5569D"/>
<path d="M340.986 267.872C342.018 268.881 344.828 270.859 346.051 271.634C346.445 271.831 347.966 265.946 348.377 265.288C348.764 264.669 348.694 263.721 348.883 263.035C349.078 262.328 349.379 261.472 349.4 260.74C349.422 259.983 349.392 258.73 349.627 258.052C349.852 257.406 349.56 256.609 349.814 256.006C350.303 254.843 349.958 253.065 349.958 251.809C349.958 249.702 349.347 248.122 348.935 246.145C347.202 243.979 335.424 232.303 333.555 230.214C332.279 230.214 331.028 229.953 329.788 229.953C328.373 229.953 326.571 229.618 325.323 228.905C324.905 229.208 324.315 230.019 323.898 230.55C323.222 231.41 323.052 231.356 322.414 232.251C320.182 235.375 314.837 237.296 315.172 241.994C316.656 244.153 318.873 246.131 320.707 247.964C322.492 249.75 324.346 251.417 326.143 253.215C329.113 256.185 331.935 259.192 334.888 262.146C335.998 263.256 337.313 264.171 338.299 265.412C339.092 266.41 340.087 266.992 340.986 267.872Z" fill="#7838AA"/>
<path d="M342.139 220.523C340.806 218.301 338.531 215.481 336.652 214.138C336.517 214.474 334.98 217.781 334.638 218.166L333.631 230.583C335.5 232.672 347.336 244.527 349.069 246.693C348.74 245.113 348.527 243.678 348.154 242.095C347.939 241.179 347.675 240.277 347.493 239.345C347.262 238.168 347.308 236.806 346.935 235.686C346.56 234.564 346.759 233.046 346.614 231.862C346.476 230.726 346.462 229.523 346.056 228.441C345.022 225.683 343.658 223.055 342.139 220.523Z" fill="#C34FBC"/>
<path d="M330.213 230.464C331.453 230.464 332.355 230.584 333.631 230.584L334.638 218.189C333.721 218.308 332.608 218.029 332.315 217.949C331.468 217.721 330.526 217.425 329.638 217.509C329.095 217.561 326.583 217.495 325.545 217.955C325.576 218.837 325.865 219.503 325.865 220.253C325.865 223.409 325.748 226.271 325.748 229.417C326.996 230.13 328.798 230.464 330.213 230.464Z" fill="#9440A2"/>
<path d="M313.481 240.065C314.215 240.834 314.568 241.115 315.172 241.994C317.891 239.275 320.605 235.766 322.837 232.641C323.476 231.747 323.646 231.801 324.322 230.941C324.739 230.41 325.495 229.879 325.912 229.576C325.912 226.431 325.863 223.288 325.863 220.132C325.863 219.383 326.097 218.388 325.543 217.834C324.634 216.925 323.798 215.759 323.129 214.663C322.224 213.182 321.241 211.901 320.496 210.329C319.766 208.787 319.097 207.456 318.125 206.052C317.061 204.515 315.032 201.228 315.032 199.371C314.273 202.595 312.595 206.188 310.38 208.663C309.728 209.393 309.704 211.03 309.543 211.93C309.318 213.193 309.078 214.479 309.078 215.764C309.078 217.497 309.046 219.252 309.274 220.964C309.768 224.663 309.877 228.478 310.711 232.127C311.187 234.208 310.963 236.27 311.879 238.256C312.171 238.888 312.993 239.554 313.481 240.065Z" fill="#8A3B96"/>
<path d="M316.524 194.383C316.148 196.188 315.361 197.908 314.942 199.685C314.942 201.542 316.971 204.829 318.036 206.366C319.007 207.77 319.676 209.101 320.406 210.643C321.151 212.215 322.134 213.496 323.039 214.977C323.709 216.073 324.545 217.239 325.454 218.148C325.454 218.668 329.004 217.754 329.547 217.703C330.435 217.618 331.377 217.914 332.224 218.143C332.517 218.222 333.63 218.501 334.547 218.382C334.889 217.998 336.705 214.166 336.65 214.138C334.474 212.255 332.735 209.806 330.467 208.006C328.768 206.657 327.471 204.612 326.281 202.827C325.058 200.993 323.668 199.288 322.467 197.432C321.366 195.73 320.498 193.855 319.594 192.047C319.424 191.708 318.554 189.411 318.147 190.103C317.466 191.261 316.796 193.078 316.524 194.383Z" fill="#C667BC"/>
<path d="M395.076 271.474C368.803 288.536 331.168 282.299 313.46 255.032C304.599 241.387 299.263 225.54 299.436 210.974C301.219 192.278 304.721 186.178 313.076 178.974C310.338 190.481 310.633 230.182 318.396 240.925C356.691 287.69 421.35 254.412 395.076 271.474Z" fill="#4E3B21"/>
<path d="M323 376.262L364 380.762L395 375.262L388 380.762L359 387.762L323 376.262Z" fill="url(#paint37_linear_864_379)"/>
<path d="M217.337 342.327L206.151 302.627L189.438 275.945L197.16 280.375L214.514 304.641L217.337 342.327Z" fill="url(#paint38_linear_864_379)"/>
</g>
<defs>
<radialGradient id="paint0_radial_864_379" cx="0" cy="0" r="1" gradientUnits="userSpaceOnUse" gradientTransform="translate(96.5634 46.7727) rotate(67.0387) scale(78.4424 147.721)">
<stop stop-color="#A08464"/>
<stop offset="1" stop-color="#645143"/>
</radialGradient>
<linearGradient id="paint1_linear_864_379" x1="340.944" y1="488.894" x2="353.022" y2="470.839" gradientUnits="userSpaceOnUse">
<stop stop-color="#493A48"/>
<stop offset="1" stop-color="#706D75"/>
</linearGradient>
<linearGradient id="paint2_linear_864_379" x1="419.414" y1="271.332" x2="411.866" y2="242.849" gradientUnits="userSpaceOnUse">
<stop stop-color="#706D75"/>
<stop offset="1" stop-color="#B8B2BF"/>
</linearGradient>
<linearGradient id="paint3_linear_864_379" x1="424.407" y1="308.252" x2="421.325" y2="279.023" gradientUnits="userSpaceOnUse">
<stop stop-color="#706D75"/>
<stop offset="1" stop-color="#B8B2BF"/>
</linearGradient>
<linearGradient id="paint4_linear_864_379" x1="433.515" y1="325.104" x2="414.302" y2="334.684" gradientUnits="userSpaceOnUse">
<stop stop-color="#706D75"/>
<stop offset="1" stop-color="#B8B2BF"/>
</linearGradient>
<linearGradient id="paint5_linear_864_379" x1="419.51" y1="380.118" x2="425.058" y2="351.72" gradientUnits="userSpaceOnUse">
<stop stop-color="#706D75"/>
<stop offset="1" stop-color="#B8B2BF"/>
</linearGradient>
<linearGradient id="paint6_linear_864_379" x1="408.357" y1="415.319" x2="420.095" y2="389.489" gradientUnits="userSpaceOnUse">
<stop stop-color="#706D75"/>
<stop offset="1" stop-color="#B8B2BF"/>
</linearGradient>
<linearGradient id="paint7_linear_864_379" x1="389.421" y1="444.967" x2="405.564" y2="422.259" gradientUnits="userSpaceOnUse">
<stop stop-color="#706D75"/>
<stop offset="1" stop-color="#B8B2BF"/>
</linearGradient>
<linearGradient id="paint8_linear_864_379" x1="362.602" y1="468.691" x2="383.63" y2="451.395" gradientUnits="userSpaceOnUse">
<stop stop-color="#706D75"/>
<stop offset="1" stop-color="#B8B2BF"/>
</linearGradient>
<linearGradient id="paint9_linear_864_379" x1="415.481" y1="255.125" x2="407.033" y2="226.895" gradientUnits="userSpaceOnUse">
<stop stop-color="#706D75"/>
<stop offset="1" stop-color="#B8B2BF"/>
</linearGradient>
<linearGradient id="paint10_linear_864_379" x1="422.305" y1="290.131" x2="416.955" y2="261.178" gradientUnits="userSpaceOnUse">
<stop stop-color="#706D75"/>
<stop offset="1" stop-color="#B8B2BF"/>
</linearGradient>
<linearGradient id="paint11_linear_864_379" x1="424.122" y1="327.481" x2="424.095" y2="298.206" gradientUnits="userSpaceOnUse">
<stop stop-color="#706D75"/>
<stop offset="1" stop-color="#B8B2BF"/>
</linearGradient>
<linearGradient id="paint12_linear_864_379" x1="422.013" y1="363.304" x2="425.338" y2="334.405" gradientUnits="userSpaceOnUse">
<stop stop-color="#706D75"/>
<stop offset="1" stop-color="#B8B2BF"/>
</linearGradient>
<linearGradient id="paint13_linear_864_379" x1="414.553" y1="398.622" x2="422.351" y2="370.948" gradientUnits="userSpaceOnUse">
<stop stop-color="#706D75"/>
<stop offset="1" stop-color="#B8B2BF"/>
</linearGradient>
<linearGradient id="paint14_linear_864_379" x1="398.015" y1="430.038" x2="414.031" y2="407.221" gradientUnits="userSpaceOnUse">
<stop stop-color="#706D75"/>
<stop offset="1" stop-color="#B8B2BF"/>
</linearGradient>
<linearGradient id="paint15_linear_864_379" x1="374.469" y1="456.345" x2="395.431" y2="438.956" gradientUnits="userSpaceOnUse">
<stop stop-color="#706D75"/>
<stop offset="1" stop-color="#B8B2BF"/>
</linearGradient>
<linearGradient id="paint16_linear_864_379" x1="347.84" y1="479.842" x2="369.824" y2="463.984" gradientUnits="userSpaceOnUse">
<stop stop-color="#706D75"/>
<stop offset="1" stop-color="#B8B2BF"/>
</linearGradient>
<linearGradient id="paint17_linear_864_379" x1="305.076" y1="340.69" x2="305.076" y2="500.69" gradientUnits="userSpaceOnUse">
<stop offset="0.275" stop-color="#C1B58F"/>
<stop offset="1" stop-color="#A59870"/>
</linearGradient>
<linearGradient id="paint18_linear_864_379" x1="250.575" y1="67.9741" x2="127.934" y2="191.835" gradientUnits="userSpaceOnUse">
<stop stop-color="#A59870"/>
<stop offset="0.264157" stop-color="#C1B58F"/>
<stop offset="1" stop-color="#A59870"/>
</linearGradient>
<linearGradient id="paint19_linear_864_379" x1="309.294" y1="455.053" x2="304.858" y2="518.491" gradientUnits="userSpaceOnUse">
<stop stop-color="#908564"/>
<stop offset="1" stop-color="#9D967F"/>
</linearGradient>
<radialGradient id="paint20_radial_864_379" cx="0" cy="0" r="1" gradientUnits="userSpaceOnUse" gradientTransform="translate(339.424 249.385) rotate(101.173) scale(169.518 168.946)">
<stop stop-color="#A08464"/>
<stop offset="1" stop-color="#645143"/>
</radialGradient>
<linearGradient id="paint21_linear_864_379" x1="272.45" y1="291.531" x2="280.914" y2="314.316" gradientUnits="userSpaceOnUse">
<stop stop-color="#493A48"/>
<stop offset="1" stop-color="#706D75"/>
</linearGradient>
<linearGradient id="paint22_linear_864_379" x1="274.383" y1="503.534" x2="277.586" y2="481.36" gradientUnits="userSpaceOnUse">
<stop stop-color="#878A9C"/>
<stop offset="1" stop-color="#706D75"/>
</linearGradient>
<linearGradient id="paint23_linear_864_379" x1="259.893" y1="339.225" x2="273.307" y2="318.956" gradientUnits="userSpaceOnUse">
<stop stop-color="#706D75"/>
<stop offset="1" stop-color="#B8B2BF"/>
</linearGradient>
<linearGradient id="paint24_linear_864_379" x1="250.939" y1="369.924" x2="262.61" y2="348.15" gradientUnits="userSpaceOnUse">
<stop stop-color="#706D75"/>
<stop offset="1" stop-color="#B8B2BF"/>
</linearGradient>
<linearGradient id="paint25_linear_864_379" x1="247.293" y1="402.675" x2="256.561" y2="379.035" gradientUnits="userSpaceOnUse">
<stop stop-color="#706D75"/>
<stop offset="1" stop-color="#B8B2BF"/>
</linearGradient>
<linearGradient id="paint26_linear_864_379" x1="248.268" y1="436.159" x2="255.018" y2="410.856" gradientUnits="userSpaceOnUse">
<stop stop-color="#706D75"/>
<stop offset="1" stop-color="#B8B2BF"/>
</linearGradient>
<linearGradient id="paint27_linear_864_379" x1="260.293" y1="472.929" x2="258.664" y2="444.25" gradientUnits="userSpaceOnUse">
<stop stop-color="#706D75"/>
<stop offset="1" stop-color="#B8B2BF"/>
</linearGradient>
<linearGradient id="paint28_linear_864_379" x1="265.407" y1="326.38" x2="279.223" y2="306.473" gradientUnits="userSpaceOnUse">
<stop stop-color="#706D75"/>
<stop offset="1" stop-color="#B8B2BF"/>
</linearGradient>
<linearGradient id="paint29_linear_864_379" x1="255.238" y1="354.851" x2="267.653" y2="333.705" gradientUnits="userSpaceOnUse">
<stop stop-color="#706D75"/>
<stop offset="1" stop-color="#B8B2BF"/>
</linearGradient>
<linearGradient id="paint30_linear_864_379" x1="249.16" y1="387.179" x2="259.291" y2="364.179" gradientUnits="userSpaceOnUse">
<stop stop-color="#706D75"/>
<stop offset="1" stop-color="#B8B2BF"/>
</linearGradient>
<linearGradient id="paint31_linear_864_379" x1="247.485" y1="420.043" x2="255.698" y2="395.67" gradientUnits="userSpaceOnUse">
<stop stop-color="#706D75"/>
<stop offset="1" stop-color="#B8B2BF"/>
</linearGradient>
<linearGradient id="paint32_linear_864_379" x1="253.964" y1="455.276" x2="256.555" y2="427.896" gradientUnits="userSpaceOnUse">
<stop stop-color="#706D75"/>
<stop offset="1" stop-color="#B8B2BF"/>
</linearGradient>
<linearGradient id="paint33_linear_864_379" x1="271" y1="490.25" x2="263.04" y2="461.056" gradientUnits="userSpaceOnUse">
<stop stop-color="#706D75"/>
<stop offset="1" stop-color="#B8B2BF"/>
</linearGradient>
<linearGradient id="paint34_linear_864_379" x1="410.576" y1="132.474" x2="262.576" y2="330.974" gradientUnits="userSpaceOnUse">
<stop stop-color="#79634C"/>
<stop offset="1" stop-color="#77604B"/>
</linearGradient>
<linearGradient id="paint35_linear_864_379" x1="276.214" y1="484.614" x2="274.955" y2="502.617" gradientUnits="userSpaceOnUse">
<stop stop-color="#A35CAB"/>
<stop offset="1" stop-color="#77457D"/>
</linearGradient>
<linearGradient id="paint36_linear_864_379" x1="347.222" y1="473.211" x2="346.023" y2="490.357" gradientUnits="userSpaceOnUse">
<stop stop-color="#A35CAB"/>
<stop offset="1" stop-color="#77457D"/>
</linearGradient>
<linearGradient id="paint37_linear_864_379" x1="360.5" y1="376.262" x2="358" y2="401.262" gradientUnits="userSpaceOnUse">
<stop stop-color="#665343"/>
<stop offset="1" stop-color="#624F40"/>
</linearGradient>
<linearGradient id="paint38_linear_864_379" x1="203.29" y1="307.558" x2="224.5" y2="300.762" gradientUnits="userSpaceOnUse">
<stop stop-color="#5C4A3D"/>
<stop offset="1" stop-color="#5C4A3C"/>
</linearGradient>
<clipPath id="clip0_864_379">
<rect width="520" height="560" fill="white" transform="matrix(-1 0 0 1 520 0)"/>
</clipPath>
</defs>
</svg>
