<svg width="1184" height="976" viewBox="0 0 1184 976" fill="none" xmlns="http://www.w3.org/2000/svg">
<path d="M455.098 887.97C456.846 839.128 482.781 806.583 509.611 797.369C534.223 770.496 455.098 700.627 428.225 719.054C388.338 742.576 365.223 768.193 362.962 797.369C360.701 826.546 371.751 883.072 384.46 916.378C338.328 937.688 329.95 950.929 344.535 965.517C359.12 980.105 399.988 964.791 455.098 934.805V887.97Z" fill="url(#paint0_linear_857_1268)"/>
<path d="M754.643 707.755C698.594 697.005 683.28 804.497 698.594 813.711C713.907 822.924 729.452 889.307 718.556 941.933C783.022 988.542 809.16 972.645 825.28 972.645C841.401 972.645 831.324 946.161 793.033 914.292C816.39 876.115 831.465 813.711 825.28 788.373C819.095 763.036 775.416 718.504 754.643 707.755Z" fill="url(#paint1_linear_857_1268)"/>
<path d="M1110.65 458.902C1136.45 478.268 1152.52 515.076 1133.16 533.842C1113.81 552.608 1104.4 551.881 1084.25 550.209C1056.97 536.969 1056.23 527.376 1064.19 508.892C1000.77 477.567 926.822 471.072 899.01 468.629L898.55 468.588C871.101 466.176 646 458.5 690.499 331.284C712.863 318.366 751.264 311.971 793.5 311.843C817.5 304.5 818 302.5 802.5 311.843C805.816 311.883 806.651 311.99 810 312.106C825.753 300.596 820.5 302.5 823 313.157C825.995 313.326 825.996 312.929 829 313.157C836.5 311 839.5 310 833.5 313.522C864.983 316.226 896.494 322.179 923.389 331.284C935.867 335.509 947.488 340.076 958.5 345.045C972 333 969.5 338 967.5 349.261C969.686 350.323 967.857 349.402 970 350.5C992 327.5 982.3 340.684 981 356.193C1025.64 380.383 1062.09 412.973 1110.65 458.902Z" fill="url(#paint2_linear_857_1268)"/>
<path d="M958.5 344C916.5 319.162 901.728 323.491 874.5 319C829 356 846.499 433 846.5 464C895.499 472.5 919.5 472 920 470.5C920.5 469 934 369 958.5 344Z" fill="url(#paint3_linear_857_1268)"/>
<path d="M865 467C876 468.5 876.259 468.829 887.501 470C883.656 424.593 902.349 375.498 925.501 328C913.526 322.716 900.328 322.5 887.5 321C867.869 381.409 856.077 427.847 865 467Z" fill="#8B877E"/>
<path d="M879.001 469C890.885 470.735 885.001 470 896.076 470.852C910.692 431.773 924.73 378.744 954.001 341.5C944.001 335 940 334 937.502 333C911.562 375.291 894.184 426.192 879.001 469Z" fill="#8B877E"/>
<path d="M263.16 272.823C340.902 255.217 468.998 250 510.998 300.5C533.474 355.659 298.901 425.27 273.648 411.961C208.51 402.747 171.417 410.17 104.723 434.896C110.725 454.104 109.002 463.571 80.4965 473.914C60.2811 473.491 50.8456 473.24 33.54 452.57C16.2344 431.901 36.0258 396.955 63.6872 380.363C137.579 323.747 185.418 290.429 263.16 272.823Z" fill="url(#paint4_linear_857_1268)"/>
<path d="M63.6889 380.363C137.58 323.748 168.259 294.606 246 277C291.5 314 298.903 425.27 273.65 411.961C208.512 402.747 171.419 410.17 104.724 434.896C87.4186 414.227 90 394.5 63.6889 380.363Z" fill="url(#paint5_linear_857_1268)"/>
<path d="M245 409C233.985 408.344 233.803 407.995 222.5 408C231.011 363.232 227.626 336.634 209.5 287C221.957 282.98 229.001 280.983 241.5 278C254.792 340.113 257.916 370.976 245 409Z" fill="#8B877E"/>
<path d="M231 408C219 408.5 225 407.5 214 408.5C203.495 368.122 193.77 345.566 168.499 305.5C179.116 297.844 179.5 300 190.975 294.255C212.412 338.997 220.316 363.854 231 408Z" fill="#8B877E"/>
<path d="M180.978 411.755C169.501 414.5 175.501 413 164.501 415.5C156.31 383.78 149.101 365.817 125.001 333C135.618 325.344 135.524 325.183 146.5 318.5C166.538 354.643 171.688 375.012 180.747 410.84L180.978 411.755Z" fill="#868278"/>
<path d="M129 425.5C117.523 428.245 128.5 427 117.5 429.5C106.684 397.265 99.3471 381.955 80.5012 367C91.1183 359.344 90.0251 358.183 101.001 351.5C112.429 367.887 118.968 373.985 129 425.5Z" fill="#868278"/>
<path d="M164 415.5C152.5 418.5 157.81 415.922 147.5 420.5C132.105 389.725 123.582 372.339 98.4983 353.5C107.437 343.938 107.52 347.677 116.998 339C136.169 356.206 146.067 377.293 163.39 414.201L164 415.5Z" fill="#868278"/>
<path d="M799.428 333.224C691.485 264.396 616.984 243.461 418.601 288.692C308.698 342.218 456.998 455.5 396.999 539C337 622.5 351.848 719.189 414 732C476.153 744.811 494.071 781.095 507.999 797C521.928 812.905 673.187 848.15 697 811.5C720.813 774.85 718.501 776.418 784.5 726.5C850.5 676.582 818.197 569.836 798.5 552.5C778.803 535.164 858.151 370.668 799.428 333.224Z" fill="url(#paint6_linear_857_1268)"/>
<path d="M679 295.5C662.96 308.665 653.499 334.5 653.499 334.5C685.5 301 730.619 322.554 745.197 329.573C759.775 336.592 765.957 326.437 756.449 316.725C735.384 299.419 695.04 282.335 679 295.5Z" fill="#6C5C43"/>
<ellipse cx="774.738" cy="337.619" rx="9.95413" ry="6.22133" transform="rotate(32.7639 774.738 337.619)" fill="#6C5C43"/>
<ellipse cx="793.035" cy="349.269" rx="6.81437" ry="4.25898" transform="rotate(32.7639 793.035 349.269)" fill="#6C5C43"/>
<path d="M400.102 539.327C377.602 555.327 369.6 590.826 369.6 590.826C394.102 516.826 499.577 541.14 515.149 545.531C530.721 549.922 535.053 538.85 524.008 530.929C500.267 517.529 422.601 523.328 400.102 539.327Z" fill="#AFABA4" fill-opacity="0.3"/>
<ellipse cx="545.636" cy="548.345" rx="9.95413" ry="6.22133" transform="rotate(22.801 545.636 548.345)" fill="#7E776C"/>
<ellipse cx="565.674" cy="556.654" rx="6.81437" ry="4.25898" transform="rotate(22.801 565.674 556.654)" fill="#7E776C"/>
<ellipse cx="666.783" cy="523.518" rx="12.5" ry="7" transform="rotate(2.40549 666.783 523.518)" fill="#615546"/>
<ellipse cx="458.012" cy="499.601" rx="12.5" ry="7" transform="rotate(2.40549 458.012 499.601)" fill="#615546"/>
<path d="M779.862 449.736C773.498 439.081 767.479 435.9 750.454 437.318C731.244 442.797 731.952 447.686 732.019 456.215C739.495 495.498 767.572 510.206 779.862 506.427C792.152 502.648 801.936 473.987 779.862 449.736Z" fill="#736B5E"/>
<path d="M412.719 631.251C416.543 623.061 416.02 617.601 408.287 605.611C397.234 593.368 394.586 595.507 389.493 598.383C368.935 616.877 371.453 642.301 378.689 650.043C385.925 657.786 407.084 655.446 412.719 631.251Z" fill="#6A6358"/>
<path d="M1018.25 392.711C1014.98 384.283 1010.68 380.883 996.672 378.171C980.185 377.68 979.897 381.072 978.45 386.739C977.578 414.377 997.677 430.15 1008.27 430.282C1018.87 430.415 1031.82 413.52 1018.25 392.711Z" fill="#6A6358"/>
<path d="M316.853 276.482C309.684 270.977 304.24 270.306 290.861 275.262C276.517 283.404 278.033 286.453 279.739 292.047C293.347 316.119 318.714 319.16 327.838 313.771C336.962 308.381 339.255 287.217 316.853 276.482Z" fill="#81786C"/>
<path d="M767.908 516.275C765.925 513.535 764.051 512.717 758.748 513.082C752.764 514.491 752.985 515.748 753.006 517.941C755.335 528.042 764.08 531.824 767.908 530.853C771.736 529.881 774.783 522.511 767.908 516.275Z" fill="#6E6557"/>
<path d="M437.019 641.898C436.478 636.696 434.597 634.152 427.209 630.547C418.104 627.816 417.429 629.671 415.764 632.626C411.086 647.959 419.885 659.779 425.765 661.432C431.645 663.085 441.418 655.562 437.019 641.898Z" fill="#6A6358"/>
<path d="M989.551 428.978C985.42 425.769 982.283 425.367 974.568 428.207C966.296 432.891 967.169 434.662 968.15 437.909C975.984 451.895 990.606 453.721 995.868 450.619C1001.13 447.517 1002.46 435.256 989.551 428.978Z" fill="#6A6358"/>
<path d="M311.161 322.379C305.965 321.782 303.075 323.068 297.957 329.501C293.321 337.8 294.986 338.86 297.511 341.125C311.469 349.009 324.912 342.975 327.798 337.592C330.684 332.209 325.454 321.04 311.161 322.379Z" fill="#81786C"/>
<path d="M503.429 254.909C497.736 255.961 494.2 257.771 486.537 265.658" stroke="#5D5548" stroke-width="3.07119"/>
<path d="M654.655 279.425C648.89 278.904 644.996 279.693 635.491 285.223" stroke="#5D5548" stroke-width="3.07119"/>
<path d="M641.724 235.56L638.544 176.147L586.89 203.686L585.139 174.172L546.031 198.617L529.434 154.816L480.759 226.661C473.418 216.253 468.118 220.324 460.895 226.661C458.782 228.515 456.504 230.563 453.962 232.5C448.356 236.771 441.465 240.497 432.225 240.397C446.157 262.91 442.999 249.079 452.592 264.324C438.787 277.804 431.566 266.455 422.899 258C419.335 249.588 418.145 249.627 418 253.855C415.656 252.245 413.135 251.121 410.313 250.905C409.719 264.268 405.373 283.172 411.569 301C400.675 297.029 402 297 415.157 309C416.301 311.042 417.62 313.055 419.139 315.028C414.137 319.648 403.402 319.006 392.5 318.52C376.5 311 378.5 312 385.65 318.284C382.204 318.225 378.861 318.301 375.806 318.689C377.042 328.82 385.865 340.014 394.5 351.238C382.754 353.377 381.875 356.104 401 359.897C403.536 363.429 405.854 366.937 407.707 370.388C399.014 376.237 393.562 381.559 390.127 390C378.225 404.458 375.351 409.58 387.448 399C386.68 402.61 386.096 406.7 385.65 411.408C400.131 402.907 411.856 406.376 436.751 421.557L421.422 465.674L475.632 461.69C486.357 467.365 493.327 471.472 490.717 483.837C481.513 497.036 473.757 502.543 487.955 492.324C486.723 495.289 485.125 498.603 483.123 502.326C504.064 498.087 516.345 492.972 525.404 483.426C517.093 499.547 526.888 489.874 531.585 475.523C533.753 472.205 535.776 468.477 537.769 464.264C541.098 466.301 543.834 468.357 546.079 470.47C550.316 482.488 551.31 488.975 551.479 491.558C551.604 493.462 551.281 493.245 551.479 491.558C551.666 489.969 552.315 487.076 554.238 483.423C556.576 491.288 555.858 500.47 555.329 512.202C558.525 508.343 561.49 504.898 564.203 501.618C565.435 517.909 563.108 510.593 571.983 491.388C577.331 483.38 580.961 474.73 582.53 461.56C587.421 462.295 582.231 454.89 595.476 463.263C608.721 471.637 609.927 484.77 609.461 470.567C613.386 474 617.805 478.988 623.15 486.324C624.951 481.883 626.41 477.772 627.572 473.958C631.075 481.4 633.87 486.937 629.814 465.359C636.532 433.832 620.2 426.405 617.864 417.375C631.227 420.08 645.217 411.834 653.535 409.536C661.854 407.238 675.334 404.821 661.945 403.061C664.131 401.058 666.015 399.031 667.545 397.104C650.413 381.653 646.888 363.622 654.879 362.126L662.87 360.63C690.159 363.907 689.024 363.119 670.861 359.134L690.169 355.52C672.965 348.538 670.275 335.639 663.24 320.872C668.228 309.267 702.485 305.155 708.5 303C714.516 300.845 744.724 300.643 720.499 294C723.932 292.77 729.094 288.31 731.617 287.181C721.535 276.66 689.454 272.024 672.826 269.06C685.35 257.298 691.888 254.286 704.463 255.169C684.819 231.018 669.279 232.848 641.724 235.56Z" fill="url(#paint7_radial_857_1268)"/>
<path d="M734.135 133.693C720.283 137.179 677.192 167.663 636.199 169.803L677.719 237.25C691.957 237.139 704.072 236.519 714.573 235.375C718.263 227.338 723.891 228.718 729.929 233.124C732.719 234.143 735.284 233.904 737.607 231.454C738.961 220.586 745.677 220.256 755.266 225.548C758.225 225.75 760.949 226.104 764.48 220.895C767.315 211.123 771.466 210.801 775.997 213.165C778.601 211.172 781.163 209.05 783.738 206.799C798.166 187.057 798.531 159.268 791.441 144.204C784.352 129.14 747.986 130.206 734.135 133.693Z" fill="#746C5F"/>
<path d="M533.399 51.4697C542.118 62.7836 557.084 113.401 587.949 140.462L512.526 164.65C465.047 126.614 454.828 108.357 449.184 78.1685C450.077 53.7316 466.996 31.6837 481.89 24.2436C496.783 16.8035 524.681 40.1558 533.399 51.4697Z" fill="#7C7467"/>
<path d="M731.384 146.537C717.374 150.313 676.832 175.824 638.041 177.899L678.45 233.586C692.302 233.399 700.048 231.301 709.967 230.339C709.967 199.611 730.582 248.766 735.247 223.429C739.911 198.092 755.267 221.457 758.338 220.524C761.409 219.59 761.409 185.807 776.689 208.507C790.752 191.601 792.465 166.753 785.321 155.138C778.176 143.524 745.395 142.761 731.384 146.537Z" fill="url(#paint8_linear_857_1268)"/>
<path d="M527.606 63.26C536.27 74.8996 552.312 120.034 581.489 145.68L515.28 164.392C470.601 128.176 460.418 111.308 453.66 83.8745C453.084 61.8912 467.123 41.3182 479.925 36.6208C492.726 31.9234 518.941 51.6205 527.606 63.26Z" fill="url(#paint9_linear_857_1268)"/>
<path d="M511.716 142.586C504.394 143.663 510.292 183.775 510.292 183.775L464.531 190.504C464.531 190.504 487.286 217.94 469.893 226.97C452.5 236 456.129 231.679 474.5 241.492C475.782 244.432 477.198 247.325 478.595 250C461.939 246.528 461 247.5 486.505 263.644L480.502 269.5C465.659 272.449 464.531 274 473 276.817L464.531 285.077C457.528 259.5 461.196 277.88 457.528 291.908C441 285.077 428.5 250 443 305C443 305 433.827 312.37 416.911 337.21C399.996 362.049 412.461 448.019 435.497 458C458.532 467.981 557.556 454.37 580.773 434.192C603.991 414.014 635.271 308.828 635.271 308.828C635.271 308.828 638.249 308.633 643 308.234C646.5 316.5 635.271 326 651 307.512C661 345 655.174 326.586 664.5 306.05C684 325 677.077 315.966 678.5 304.5C695.084 302.139 706.006 299.076 707.953 294.415C709.677 290.29 705.058 282.59 699.074 275C703.106 266.583 717.5 267 690.933 265.5C690.033 264.518 689.093 263.508 688.145 262.5C692.207 252.401 695.245 250.846 685 259.191C680.711 254.719 677 251 677 251C687.683 255.274 696.824 257.89 679.413 246.5C699.074 243 694 253.886 678.578 232.5C677.627 221.704 675.75 209.51 672.047 202.834C664.405 189.056 652.047 168.52 641.013 157.104C629.978 145.687 615.567 136.63 600.918 138.784C586.269 140.938 564.269 131.134 553.816 136.396C543.364 141.658 538.683 147.935 538.683 147.935C538.683 147.935 519.038 141.51 511.716 142.586Z" fill="url(#paint10_linear_857_1268)"/>
<path d="M613.174 205.681C596.62 204.458 556.271 217.218 541.334 249.153C574.961 276.926 612.427 262.468 622.262 242.739C632.096 223.01 657.493 210.134 657.493 210.134C657.493 210.134 629.728 206.903 613.174 205.681Z" fill="url(#paint11_linear_857_1268)"/>
<path d="M524.413 171.196C536.151 176.784 532.126 225.581 531.903 246.883C515.272 238.461 506.121 232.391 502.761 221.916C499.401 211.44 501.024 176.83 508.587 162.554C508.587 162.554 512.675 165.609 524.413 171.196Z" fill="url(#paint12_linear_857_1268)"/>
<path d="M566.641 171.031C555.944 175.843 542.615 184.81 546.502 212.722C574.739 214.816 585.896 197.198 585.367 181.63C584.837 166.062 583.6 162.905 583.6 162.905C583.6 162.905 577.338 166.219 566.641 171.031Z" fill="url(#paint13_linear_857_1268)"/>
<path d="M559.501 176.5C545.002 179.997 545.442 195.057 545.443 203.889C545.444 212.722 552.351 217.824 570.175 208.482C588 199.141 574 173.003 559.501 176.5Z" fill="#872D43"/>
<path d="M573.3 218.102C556.811 222.079 548.835 236.445 551.493 249.247C554.152 262.049 580.024 269.11 594.434 261.558C608.845 254.007 589.788 214.125 573.3 218.102Z" fill="#872D43"/>
<path d="M528.147 196.027C531.99 206.327 535.117 227.597 528.638 236.31C522.158 245.024 504.994 230.305 501.627 216.224C496.935 184.32 524.304 185.728 528.147 196.027Z" fill="#872D43"/>
<path d="M448.643 461.118C462.994 463.369 501.906 443.038 535.679 415.596C443.003 405.965 446.72 404.848 410.373 357C404.361 381.364 412.644 438.707 422.681 448.717C432.718 458.727 434.293 458.868 448.643 461.118Z" fill="#754E53"/>
<path d="M534.93 416.191C443.8 405.76 444.55 405.012 410.373 357C410.373 357 422.057 426.055 435.172 434.888C448.287 443.721 534.93 416.191 534.93 416.191Z" fill="#9D6774"/>
<path d="M584.818 329.385C584.05 340.134 593.026 405.081 576.5 437.5C579.5 435 580.853 436.779 586.5 428.5C591.407 421.306 600.442 403.02 604.012 396.952C612.198 376.699 639.331 320.172 634.724 306.351C630.117 292.531 637.027 287.924 634.724 284.085C632.421 280.246 585.585 318.636 584.818 329.385Z" fill="#9D6774"/>
<path d="M618.162 315.145L632.417 284.085C624.276 288.001 613.91 296.644 605.546 303.28C592.803 312.754 586.35 324.01 584.815 328.211L587.895 328.211L591.531 322.036L598.745 323.908L598.333 316.537L603.214 312.283L610.791 315.557L609.34 309.95L614.898 302.531L618.162 315.145Z" fill="#ECD66E"/>
<path d="M592.31 363.658L600.94 402.326C608.93 388.467 610.779 381.74 617.925 366.778L618.236 365.991C627.77 341.819 635.918 321.16 635.296 311.67L625.636 324.793L624.772 335.888L613.429 338.194L619.029 348.198L615.118 357.461L602.314 358.058L608.16 364.892L605.464 379.034L592.31 363.658Z" fill="#ECD66E"/>
<defs>
<linearGradient id="paint0_linear_857_1268" x1="381.312" y1="971.1" x2="470.982" y2="716" gradientUnits="userSpaceOnUse">
<stop stop-color="#898072"/>
<stop offset="1" stop-color="#6F6659"/>
</linearGradient>
<linearGradient id="paint1_linear_857_1268" x1="793.976" y1="975.259" x2="749.225" y2="746.913" gradientUnits="userSpaceOnUse">
<stop stop-color="#898072"/>
<stop offset="1" stop-color="#6F6659"/>
</linearGradient>
<linearGradient id="paint2_linear_857_1268" x1="707.161" y1="314.268" x2="908.88" y2="386.941" gradientUnits="userSpaceOnUse">
<stop stop-color="#898072"/>
<stop offset="1" stop-color="#6F6659"/>
</linearGradient>
<linearGradient id="paint3_linear_857_1268" x1="811.059" y1="393.161" x2="1048.56" y2="472.161" gradientUnits="userSpaceOnUse">
<stop stop-color="#989590"/>
<stop offset="1" stop-color="#8E8982"/>
</linearGradient>
<linearGradient id="paint4_linear_857_1268" x1="479.99" y1="278.287" x2="243.52" y2="373.312" gradientUnits="userSpaceOnUse">
<stop stop-color="#898072"/>
<stop offset="1" stop-color="#6F6659"/>
</linearGradient>
<linearGradient id="paint5_linear_857_1268" x1="309.5" y1="351" x2="72.0002" y2="430" gradientUnits="userSpaceOnUse">
<stop stop-color="#989590"/>
<stop offset="1" stop-color="#8E8982"/>
</linearGradient>
<linearGradient id="paint6_linear_857_1268" x1="583.489" y1="264.715" x2="593.998" y2="575.5" gradientUnits="userSpaceOnUse">
<stop stop-color="#8A8173"/>
<stop offset="1" stop-color="#635A4E"/>
</linearGradient>
<radialGradient id="paint7_radial_857_1268" cx="0" cy="0" r="1" gradientUnits="userSpaceOnUse" gradientTransform="translate(453.5 305.5) rotate(27.887) scale(366.19 387.15)">
<stop stop-color="#7E6B51"/>
<stop offset="0.415" stop-color="#867358"/>
<stop offset="1" stop-color="#A39889"/>
</radialGradient>
<linearGradient id="paint8_linear_857_1268" x1="793.229" y1="184.199" x2="647.064" y2="217.501" gradientUnits="userSpaceOnUse">
<stop stop-color="#754E53"/>
<stop offset="1" stop-color="#90686D"/>
</linearGradient>
<linearGradient id="paint9_linear_857_1268" x1="455.728" y1="54.5405" x2="549.892" y2="171.187" gradientUnits="userSpaceOnUse">
<stop stop-color="#754E53"/>
<stop offset="1" stop-color="#90686D"/>
</linearGradient>
<linearGradient id="paint10_linear_857_1268" x1="506" y1="209" x2="611.998" y2="380.5" gradientUnits="userSpaceOnUse">
<stop stop-color="#968E81"/>
<stop offset="1" stop-color="#5C5547"/>
</linearGradient>
<linearGradient id="paint11_linear_857_1268" x1="597.998" y1="183.5" x2="570.998" y2="237.5" gradientUnits="userSpaceOnUse">
<stop stop-color="#ECD66E"/>
<stop offset="1" stop-color="#C3AD46"/>
</linearGradient>
<linearGradient id="paint12_linear_857_1268" x1="597.998" y1="183.5" x2="570.998" y2="237.5" gradientUnits="userSpaceOnUse">
<stop stop-color="#ECD66E"/>
<stop offset="1" stop-color="#C3AD46"/>
</linearGradient>
<linearGradient id="paint13_linear_857_1268" x1="558.227" y1="147.939" x2="559.626" y2="190.578" gradientUnits="userSpaceOnUse">
<stop stop-color="#ECD66E"/>
<stop offset="1" stop-color="#C3AD46"/>
</linearGradient>
</defs>
</svg>
