<svg width="1185" height="1011" viewBox="0 0 1185 1011" fill="none" xmlns="http://www.w3.org/2000/svg">
<g clip-path="url(#clip0_1015_507)">
<path d="M457.098 892.97C458.846 844.128 484.781 811.583 511.611 802.369C536.223 775.496 457.098 705.627 430.225 724.054C390.338 747.576 367.223 773.193 364.962 802.369C362.701 831.546 373.751 888.072 386.46 921.378C340.328 942.688 331.95 955.929 346.535 970.517C361.12 985.105 401.988 969.791 457.098 939.805V892.97Z" fill="url(#paint0_linear_1015_507)"/>
<path d="M756.643 712.755C700.594 702.005 685.28 809.497 700.594 818.711C715.907 827.924 731.452 894.307 720.556 946.933C785.022 993.542 811.16 977.645 827.28 977.645C843.401 977.645 833.324 951.161 795.033 919.292C818.39 881.115 833.465 818.711 827.28 793.373C821.095 768.036 777.416 723.504 756.643 712.755Z" fill="url(#paint1_linear_1015_507)"/>
<path d="M1094.72 570.154C1114.62 595.537 1120.61 635.248 1097.06 648.366C1073.51 661.485 1064.61 658.347 1045.58 651.516C1022.65 631.667 1024.43 622.21 1036.9 606.416C983.745 559.743 913.998 534.33 887.766 524.772L887.332 524.614C861.443 515.18 645.998 449.505 721.907 338.141C746.853 331.451 785.601 335.213 826.43 346.021C851.513 345.14 852.514 343.337 835.124 348.351C838.316 349.247 839.095 349.567 842.3 350.545C860.496 343.505 854.929 343.984 854.585 354.926C857.434 355.864 857.538 355.48 860.381 356.479C868.183 356.336 871.34 356.146 864.633 357.995C894.343 368.755 923.24 382.662 946.861 398.418C957.821 405.728 967.864 413.147 977.215 420.797C993.372 412.656 989.663 416.839 984.817 427.198C986.653 428.79 985.126 427.427 986.911 429.042C1014.11 412.52 1001.33 422.744 996.063 437.389C1032.92 472.309 1059.69 513.222 1094.72 570.154Z" fill="url(#paint2_linear_1015_507)"/>
<path d="M977.485 419.787C943.345 384.925 927.956 385.284 902.817 373.898C849.292 397.861 846.266 476.766 838.243 506.71C883.373 527.603 906.685 533.332 907.556 532.012C908.427 530.693 947.349 437.594 977.485 419.787Z" fill="url(#paint3_linear_1015_507)"/>
<path d="M855.335 514.396C865.572 518.692 865.737 519.077 876.293 523.118C884.331 478.263 915.094 435.679 949.751 395.791C939.551 387.588 926.859 383.964 914.856 379.194C880.259 432.464 856.85 474.268 855.335 514.396Z" fill="#8B877E"/>
<path d="M868.343 519.952C879.373 524.704 873.88 522.471 884.357 526.16C908.589 492.196 935.873 444.607 973.787 416.208C965.81 407.341 962.204 405.34 960.049 403.727C924.048 437.864 894.088 482.533 868.343 519.952Z" fill="#8B877E"/>
<path d="M1022.59 482.303C1021.62 473.317 1018.34 468.919 1005.51 462.673C989.714 457.932 988.558 461.134 985.693 466.233C977.698 492.704 993.03 513.141 1003.23 516.012C1013.43 518.882 1030.31 505.915 1022.59 482.303Z" fill="#6A6358"/>
<path d="M985.484 509.906C982.325 505.738 979.398 504.537 971.212 505.284C962.009 507.667 962.394 509.603 962.501 512.994C966.449 528.531 980.1 534.079 985.985 532.445C991.87 530.81 996.329 519.311 985.484 509.906Z" fill="#6A6358"/>
<path d="M801.444 361.36C693.516 295.695 619.026 275.723 420.671 318.875C310.783 369.941 459.063 478.015 399.072 557.677C339.081 637.339 353.927 729.584 416.07 741.806C478.214 754.029 496.13 788.645 510.057 803.819C523.983 818.992 675.221 852.617 699.031 817.652C722.84 782.687 720.528 784.182 786.518 736.559C852.509 688.936 820.21 587.096 800.516 570.557C780.822 554.018 860.159 397.083 801.444 361.36Z" fill="url(#paint4_linear_1015_507)"/>
<path d="M678.197 331.673C662.157 344.838 652.696 370.674 652.696 370.674C684.697 337.173 729.817 358.728 744.394 365.747C758.972 372.766 765.154 362.611 755.646 352.898C734.582 335.593 694.237 318.508 678.197 331.673Z" fill="#6C5C43"/>
<ellipse cx="773.935" cy="373.792" rx="9.95413" ry="6.22133" transform="rotate(32.7639 773.935 373.792)" fill="#6C5C43"/>
<ellipse cx="792.232" cy="385.443" rx="6.81437" ry="4.25898" transform="rotate(32.7639 792.232 385.443)" fill="#6C5C43"/>
<path d="M399.102 563.327C376.602 579.327 368.6 614.826 368.6 614.826C393.102 540.826 498.577 565.14 514.149 569.531C529.721 573.922 534.053 562.85 523.008 554.929C499.267 541.529 421.601 547.328 399.102 563.327Z" fill="#AFABA4" fill-opacity="0.3"/>
<ellipse cx="544.636" cy="572.345" rx="9.95413" ry="6.22133" transform="rotate(22.801 544.636 572.345)" fill="#7E776C"/>
<ellipse cx="564.674" cy="580.654" rx="6.81437" ry="4.25898" transform="rotate(22.801 564.674 580.654)" fill="#7E776C"/>
<ellipse cx="668.555" cy="543.435" rx="12.5" ry="7" transform="rotate(2.40549 668.555 543.435)" fill="#615546"/>
<ellipse cx="459.783" cy="519.518" rx="12.5" ry="7" transform="rotate(2.40549 459.783 519.518)" fill="#615546"/>
<path d="M781.862 473.736C775.498 463.081 769.479 459.9 752.454 461.318C733.244 466.797 733.952 471.686 734.019 480.215C741.495 519.498 769.572 534.206 781.862 530.427C794.152 526.648 803.936 497.987 781.862 473.736Z" fill="#736B5E"/>
<path d="M414.719 645.251C418.543 637.061 418.02 631.601 410.287 619.611C399.234 607.368 396.586 609.507 391.493 612.383C370.935 630.877 373.453 656.301 380.689 664.043C387.925 671.786 409.084 669.446 414.719 645.251Z" fill="#6A6358"/>
<path d="M769.908 540.275C767.925 537.535 766.051 536.717 760.748 537.082C754.764 538.491 754.985 539.748 755.006 541.941C757.335 552.042 766.08 555.824 769.908 554.853C773.736 553.881 776.783 546.511 769.908 540.275Z" fill="#6E6557"/>
<path d="M439.019 655.898C438.478 650.696 436.597 648.152 429.209 644.547C420.104 641.816 419.429 643.671 417.764 646.626C413.086 661.959 421.885 673.779 427.765 675.432C433.645 677.085 443.418 669.562 439.019 655.898Z" fill="#6A6358"/>
<path d="M246.69 357.369C317.226 320.242 439.608 282.049 493.247 319.958C529.233 367.42 320.67 495.371 292.833 489.051C227.53 497.011 193.621 513.781 135.599 554.927C146.368 571.927 147.154 581.516 122.297 598.885C102.661 603.709 93.482 605.908 71.4164 590.422C49.3509 574.936 59.4232 536.058 81.8479 512.873C138.568 439.061 176.155 394.496 246.69 357.369Z" fill="url(#paint5_linear_1015_507)"/>
<path d="M81.8465 512.872C138.567 439.061 160.657 402.972 231.193 365.845C284.719 389.808 320.668 495.371 292.831 489.051C227.528 497.011 193.62 513.78 135.598 554.927C113.532 539.44 110.92 519.717 81.8465 512.872Z" fill="url(#paint6_linear_1015_507)"/>
<path d="M264.393 493.607C253.584 495.824 253.317 495.534 242.401 498.464C239.035 453.019 228.881 428.203 198.527 384.952C209.519 377.845 215.806 374.093 227.107 367.976C256.022 424.532 267.027 453.536 264.393 493.607Z" fill="#8B877E"/>
<path d="M250.611 496.264C239.149 499.853 244.686 497.334 234.32 501.147C213.722 464.863 198.49 445.593 163.71 413.433C171.984 403.29 172.913 405.273 182.511 396.754C214.797 434.423 228.865 456.388 250.611 496.264Z" fill="#8B877E"/>
<path d="M203.266 512.838C192.89 518.46 198.297 515.458 188.319 520.72C172.198 492.201 160.585 476.716 128.812 451.254C137.086 441.112 136.954 440.98 145.826 431.684C174.536 461.409 184.782 479.751 202.806 512.014L203.266 512.838Z" fill="#868278"/>
<path d="M156.614 539.567C146.238 545.189 156.52 541.146 146.542 546.407C127.751 518.07 116.702 505.181 94.6272 495.613C102.901 485.47 101.545 484.631 110.417 475.335C125.696 488.207 133.591 492.405 156.614 539.567Z" fill="#868278"/>
<path d="M187.834 520.849C177.502 526.723 181.964 522.859 173.19 529.949C150.354 504.208 137.622 489.62 108.517 477.915C114.676 466.365 115.724 469.956 122.634 459.121C145.605 470.778 160.623 488.586 186.908 519.752L187.834 520.849Z" fill="#868278"/>
<path d="M299.499 347.007C291.149 343.545 285.718 344.306 274.077 352.556C262.329 364.133 264.582 366.685 267.678 371.648C287.053 391.377 312.343 387.749 319.761 380.182C327.18 372.614 323.917 351.578 299.499 347.007Z" fill="#81786C"/>
<path d="M305.879 392.813C300.706 393.581 298.247 395.571 294.968 403.109C292.638 412.326 294.521 412.918 297.546 414.453C313.069 418.456 324.493 409.148 325.887 403.202C327.281 397.255 319.338 387.82 305.879 392.813Z" fill="#81786C"/>
<path d="M505.429 259.909C499.736 260.961 496.2 262.771 488.537 270.658" stroke="#5D5548" stroke-width="3.07119"/>
<path d="M656.655 284.425C650.89 283.904 646.996 284.693 637.491 290.223" stroke="#5D5548" stroke-width="3.07119"/>
<path d="M643.724 251.12L640.544 191.707L588.89 219.246L587.139 189.733L548.031 214.177L531.434 170.377L482.759 242.222C475.418 231.813 470.118 235.884 462.895 242.222C460.782 244.076 458.504 246.124 455.962 248.06C450.356 252.331 443.465 256.058 434.225 255.957C448.157 278.47 444.999 264.639 454.592 279.884C440.787 293.365 433.566 282.015 424.899 273.56C421.335 265.149 420.145 265.187 420 269.415C417.656 267.805 415.135 266.681 412.313 266.465C411.719 279.829 407.373 298.732 413.569 316.56C402.675 312.59 404 312.56 417.157 324.56C418.301 326.602 419.62 328.615 421.139 330.589C416.137 335.208 405.402 334.567 394.5 334.08C378.5 326.56 380.5 327.56 387.65 333.844C384.204 333.786 380.861 333.861 377.806 334.25C379.042 344.38 387.865 355.575 396.5 366.799C384.754 368.937 383.875 371.665 403 375.457C405.536 378.989 407.854 382.497 409.707 385.949C401.014 391.798 395.562 397.12 392.127 405.56C380.225 420.018 377.351 425.141 389.448 414.56C388.68 418.17 388.096 422.26 387.65 426.968C402.131 418.468 413.856 421.937 438.751 437.117L423.422 481.234L477.632 477.251C488.357 482.925 495.327 487.032 492.717 499.398C483.513 512.596 475.757 518.103 489.955 507.884C488.723 510.849 487.125 514.163 485.123 517.887C506.064 513.648 518.345 508.532 527.404 498.986C519.093 515.108 528.888 505.434 533.585 491.084C535.753 487.766 537.776 484.038 539.769 479.824C543.098 481.861 545.834 483.917 548.079 486.03C552.316 498.049 553.31 504.536 553.479 507.119C553.604 509.023 553.281 508.806 553.479 507.119C553.666 505.53 554.315 502.636 556.238 498.984C558.576 506.849 557.858 516.03 557.329 527.763C560.525 523.903 563.49 520.459 566.203 517.179C567.435 533.47 565.108 526.153 573.983 506.948C579.331 498.941 582.961 490.291 584.53 477.121C589.421 477.855 584.231 470.451 597.476 478.824C610.721 487.197 611.927 500.33 611.461 486.127C615.386 489.561 619.805 494.549 625.15 501.884C626.951 497.444 628.41 493.332 629.572 489.519C633.075 496.961 635.87 502.498 631.814 480.92C638.532 449.393 622.2 441.965 619.864 432.935C633.227 435.641 647.217 427.394 655.535 425.097C663.854 422.799 677.334 420.382 663.945 418.622C666.131 416.618 668.015 414.592 669.545 412.665C652.413 397.213 648.888 379.182 656.879 377.686L664.87 376.191C692.159 379.467 691.024 378.679 672.861 374.695L692.169 371.081C674.965 364.099 672.275 351.2 665.24 336.432C670.228 324.827 704.485 320.715 710.5 318.56C716.516 316.405 746.724 316.203 722.499 309.56C725.932 308.33 731.094 303.871 733.617 302.741C723.535 292.22 691.454 287.584 674.826 284.62C687.35 272.859 693.888 269.846 706.463 270.729C686.819 246.578 671.279 248.409 643.724 251.12Z" fill="url(#paint7_radial_1015_507)"/>
<path d="M724.272 136.782C710.861 141.697 671.192 176.518 630.648 182.932L678.99 245.669C693.139 244.07 705.122 242.187 715.447 239.952C718.276 231.573 724.018 232.358 730.483 236.108C733.364 236.83 735.891 236.325 737.945 233.645C738.155 222.694 744.8 221.665 754.89 225.926C757.853 225.817 760.599 225.884 763.567 220.335C765.364 210.32 769.459 209.566 774.212 211.443C776.594 209.189 778.92 206.811 781.245 204.303C793.531 183.16 790.989 155.486 782.363 141.245C773.738 127.005 737.683 131.867 724.272 136.782Z" fill="#746C5F"/>
<path d="M516.043 75.9921C525.896 86.3327 546.071 135.108 579.596 158.794L507.114 190.734C455.92 157.869 443.849 140.781 435.079 111.348C433.413 86.9512 447.935 63.2556 461.969 54.2994C476.004 45.3432 506.189 65.6515 516.043 75.9921Z" fill="#7C7467"/>
<path d="M722.88 149.843C709.341 155.063 671.688 184.672 633.327 190.791L679.334 241.949C693.091 240.314 700.576 237.419 710.34 235.425C707.128 204.865 732.768 251.597 734.759 225.911C736.749 200.224 754.463 221.857 757.42 220.607C760.377 219.358 756.846 185.76 774.414 206.738C786.633 188.455 785.739 163.564 777.42 152.76C769.101 141.956 736.419 144.624 722.88 149.843Z" fill="url(#paint8_linear_1015_507)"/>
<path d="M511.511 88.3237C521.345 98.9938 542.017 142.204 573.715 164.66L509.824 190.19C461.605 158.843 449.714 143.132 440.126 116.555C437.255 94.752 449.067 72.8241 461.307 66.8144C473.547 60.8046 501.677 77.6535 511.511 88.3237Z" fill="url(#paint9_linear_1015_507)"/>
<path d="M504.002 168.876C496.833 170.712 506.892 209.989 506.892 209.989L462.084 221.464C462.084 221.464 487.582 246.371 471.229 257.17C454.875 267.968 458.033 263.291 477.328 271.13C478.911 273.92 480.621 276.649 482.29 279.164C465.363 277.452 464.53 278.517 491.584 291.906L486.225 298.358C471.772 302.842 470.812 304.503 479.529 306.419L471.97 315.519C462.332 290.814 467.901 308.709 465.719 323.044C448.568 317.979 432.47 284.4 452.639 337.583C452.639 337.583 444.287 345.871 430.06 372.343C415.834 398.815 437.218 483.01 461.17 490.529C485.123 498.048 582.181 474.161 603.162 451.666C624.144 429.172 644.257 321.292 644.257 321.292C644.257 321.292 647.198 320.787 651.882 319.894C656.227 327.749 646.052 338.37 659.763 318.34C673.626 354.577 665.907 336.873 673.036 315.475C694.41 332.282 686.58 324.021 686.797 312.47C703.043 308.388 713.586 304.2 715.035 299.361C716.317 295.078 710.92 287.903 704.175 280.981C707.305 272.188 721.664 271.098 695.085 272.384C694.087 271.501 693.047 270.595 691.999 269.691C694.983 259.223 697.842 257.359 688.525 266.729C683.793 262.73 679.713 259.419 679.713 259.419C690.784 262.553 700.149 264.199 681.643 254.692C700.83 249.156 696.922 260.513 679.348 240.856C677.274 230.218 674.133 218.288 669.752 212.035C660.712 199.131 646.275 180 634.108 169.799C621.941 159.599 606.662 152.097 592.318 155.771C577.974 159.444 555.07 151.993 545.225 158.319C535.38 164.645 531.38 171.377 531.38 171.377C531.38 171.377 511.171 167.04 504.002 168.876Z" fill="url(#paint10_linear_1015_507)"/>
<path d="M611.499 221.02C594.908 221.534 556.114 238.442 544.597 271.764C580.942 295.869 616.692 277.574 624.411 256.925C632.129 236.276 656.041 220.816 656.041 220.816C656.041 220.816 628.09 220.505 611.499 221.02Z" fill="#73695C"/>
<path d="M519.62 196.003C531.878 200.332 532.976 249.283 534.981 270.492C517.56 263.854 507.825 258.774 503.388 248.707C498.952 238.64 496.948 204.05 502.978 189.061C502.978 189.061 507.363 191.673 519.62 196.003Z" fill="#73695C"/>
<path d="M561.6 191.423C551.465 197.327 539.146 207.639 545.93 234.991C574.23 234.122 583.485 215.435 581.331 200.007C579.177 184.58 577.617 181.569 577.617 181.569C577.617 181.569 571.735 185.52 561.6 191.423Z" fill="#73695C"/>
<path d="M555.071 197.609C541.017 202.603 543.029 217.534 543.953 226.318C544.877 235.102 552.279 239.454 569.03 228.301C585.781 217.147 569.125 192.615 555.071 197.609Z" fill="#73695C"/>
<path d="M573.143 237.541C557.161 243.22 550.73 258.34 554.712 270.794C558.694 283.248 585.162 287.567 598.705 278.55C612.247 269.533 589.126 231.862 573.143 237.541Z" fill="#73695C"/>
<path d="M525.93 220.307C530.829 230.149 536.162 250.975 530.629 260.318C525.096 269.661 506.487 256.817 501.667 243.165C493.666 211.926 521.032 210.465 525.93 220.307Z" fill="#73695C"/>
<path d="M474.571 492.256C489.078 492.994 525.651 468.707 556.371 437.885C463.197 437.994 466.776 436.495 425.627 392.708C422.195 417.567 436.426 473.73 447.454 482.636C458.483 491.542 460.064 491.518 474.571 492.256Z" fill="#754E53"/>
<path d="M555.689 438.555C463.967 437.707 464.635 436.885 425.627 392.708C425.627 392.708 444.465 460.164 458.432 467.578C472.398 474.991 555.689 438.555 555.689 438.555Z" fill="#9D6774"/>
<path d="M596.229 347.011C596.589 357.781 612.305 421.434 599.258 455.403C601.98 452.603 603.511 454.231 608.262 445.407C612.39 437.74 619.465 418.609 622.381 412.201C628.405 391.203 649.48 332.149 643.454 318.886C637.428 305.623 643.819 300.319 641.127 296.742C638.434 293.165 595.869 336.24 596.229 347.011Z" fill="#9D6774"/>
<path d="M627.902 329.363L638.833 296.983C631.146 301.728 621.74 311.407 614.115 318.881C602.432 329.636 597.192 341.505 596.103 345.843L599.166 345.521L602.137 338.999L609.508 340.107L608.328 332.82L612.737 328.079L620.615 330.543L618.586 325.119L623.337 317.159L627.902 329.363Z" fill="#ECD66E"/>
<path d="M607.264 380.312L619.889 417.866C626.386 403.248 627.522 396.365 633.065 380.738L633.292 379.923C640.247 354.887 646.191 333.489 644.58 324.116L636.345 338.177L636.645 349.302L625.606 352.78L632.22 362.144L629.299 371.766L616.628 373.698L623.156 379.883L621.953 394.229L607.264 380.312Z" fill="#ECD66E"/>
</g>
<defs>
<linearGradient id="paint0_linear_1015_507" x1="383.312" y1="976.1" x2="472.982" y2="721" gradientUnits="userSpaceOnUse">
<stop stop-color="#898072"/>
<stop offset="1" stop-color="#6F6659"/>
</linearGradient>
<linearGradient id="paint1_linear_1015_507" x1="795.976" y1="980.259" x2="751.225" y2="751.913" gradientUnits="userSpaceOnUse">
<stop stop-color="#898072"/>
<stop offset="1" stop-color="#6F6659"/>
</linearGradient>
<linearGradient id="paint2_linear_1015_507" x1="742.405" y1="326.017" x2="918.442" y2="448.423" gradientUnits="userSpaceOnUse">
<stop stop-color="#898072"/>
<stop offset="1" stop-color="#6F6659"/>
</linearGradient>
<linearGradient id="paint3_linear_1015_507" x1="822.344" y1="429.112" x2="1031.3" y2="566.89" gradientUnits="userSpaceOnUse">
<stop stop-color="#989590"/>
<stop offset="1" stop-color="#8E8982"/>
</linearGradient>
<linearGradient id="paint4_linear_1015_507" x1="585.535" y1="296" x2="595.103" y2="592.53" gradientUnits="userSpaceOnUse">
<stop stop-color="#8A8173"/>
<stop offset="1" stop-color="#635A4E"/>
</linearGradient>
<linearGradient id="paint5_linear_1015_507" x1="457.547" y1="306.528" x2="253.728" y2="459.518" gradientUnits="userSpaceOnUse">
<stop stop-color="#898072"/>
<stop offset="1" stop-color="#6F6659"/>
</linearGradient>
<linearGradient id="paint6_linear_1015_507" x1="311.682" y1="420.889" x2="102.721" y2="558.666" gradientUnits="userSpaceOnUse">
<stop stop-color="#989590"/>
<stop offset="1" stop-color="#8E8982"/>
</linearGradient>
<radialGradient id="paint7_radial_1015_507" cx="0" cy="0" r="1" gradientUnits="userSpaceOnUse" gradientTransform="translate(455.5 321.06) rotate(27.887) scale(366.19 387.15)">
<stop stop-color="#7E6B51"/>
<stop offset="0.415" stop-color="#867358"/>
<stop offset="1" stop-color="#A39889"/>
</radialGradient>
<linearGradient id="paint8_linear_1015_507" x1="788.323" y1="180.835" x2="646.439" y2="229.232" gradientUnits="userSpaceOnUse">
<stop stop-color="#754E53"/>
<stop offset="1" stop-color="#90686D"/>
</linearGradient>
<linearGradient id="paint9_linear_1015_507" x1="439.116" y1="87.1651" x2="544.957" y2="193.33" gradientUnits="userSpaceOnUse">
<stop stop-color="#754E53"/>
<stop offset="1" stop-color="#90686D"/>
</linearGradient>
<linearGradient id="paint10_linear_1015_507" x1="505.26" y1="235.524" x2="628.604" y2="395.004" gradientUnits="userSpaceOnUse">
<stop stop-color="#968E81"/>
<stop offset="1" stop-color="#5C5547"/>
</linearGradient>
<clipPath id="clip0_1015_507">
<rect width="1185" height="1011" fill="white"/>
</clipPath>
</defs>
</svg>
