<svg width="1185" height="1011" viewBox="0 0 1185 1011" fill="none" xmlns="http://www.w3.org/2000/svg">
<g clip-path="url(#clip0_1037_1933)">
<path d="M457.098 892.97C458.846 844.128 484.781 811.583 511.611 802.369C536.223 775.496 457.098 705.627 430.225 724.054C390.338 747.576 367.223 773.193 364.962 802.369C362.701 831.546 373.751 888.072 386.46 921.378C340.328 942.688 331.95 955.929 346.535 970.517C361.12 985.105 401.988 969.791 457.098 939.805V892.97Z" fill="url(#paint0_linear_1037_1933)"/>
<path d="M756.643 712.755C700.594 702.005 685.28 809.497 700.594 818.711C715.907 827.924 731.452 894.307 720.556 946.933C785.022 993.542 811.16 977.645 827.28 977.645C843.401 977.645 833.324 951.161 795.033 919.292C818.39 881.115 833.465 818.711 827.28 793.373C821.095 768.036 777.416 723.504 756.643 712.755Z" fill="url(#paint1_linear_1037_1933)"/>
<path d="M1093.73 578.624C1108.93 607.077 1107.93 647.226 1082.46 656.056C1056.99 664.885 1048.77 660.249 1031.21 650.217C1012.08 626.689 1015.47 617.684 1030.5 604.296C986.256 549.102 921.982 511.963 897.808 497.995L897.408 497.764L897.581 496.838C916.29 396.793 926.834 340.409 1003.95 411.132C1021.28 405.921 1016.9 409.396 1010.33 418.756C1011.86 420.643 1010.59 419.036 1012.07 420.936C1041.73 409.389 1027.37 417.238 1019.63 430.745C1049.87 471.535 1069.13 516.475 1093.73 578.624Z" fill="url(#paint2_linear_1037_1933)"/>
<path d="M1040.19 471.378C1040 462.342 1037.12 457.675 1024.88 450.335C1009.56 444.235 1008.13 447.324 1004.83 452.154C994.559 477.828 1008.05 499.523 1017.96 503.272C1027.88 507.02 1045.82 495.574 1040.19 471.378Z" fill="#6A6358"/>
<path d="M1000.82 495.643C998.034 491.215 995.223 489.764 987.003 489.794C977.627 491.367 977.842 493.329 977.653 496.716C980.231 512.538 993.347 519.254 999.352 518.139C1005.36 517.024 1010.8 505.957 1000.82 495.643Z" fill="#6A6358"/>
<path d="M709.543 326.957C643.629 444.513 883.785 496.595 910.398 503.737L968.571 384.02C943.662 367.87 884.038 339.802 853.456 334.296C859.976 331.87 856.848 332.334 849.087 333.156C846.169 332.41 846.099 332.801 843.178 332.114C842.567 321.185 848.071 320.222 830.558 328.821C827.28 328.126 826.477 327.875 823.218 327.26C840.105 320.751 839.265 322.633 814.355 325.698C772.738 318.489 733.81 318.118 709.543 326.957Z" fill="url(#paint3_linear_1037_1933)"/>
<path d="M971.264 386.017C934.215 354.263 918.916 355.962 892.881 346.811C841.647 375.347 845.51 454.216 840.128 484.746C886.907 501.625 910.629 505.3 911.382 503.91C912.135 502.52 942.795 406.383 971.264 386.017Z" fill="url(#paint4_linear_1037_1933)"/>
<path d="M857.825 490.913C868.397 494.3 868.595 494.669 879.463 497.774C883.561 452.39 910.496 407.287 941.544 364.53C930.668 357.247 917.709 354.743 905.336 351.038C875.513 407.12 855.837 450.805 857.825 490.913Z" fill="#8B877E"/>
<path d="M871.265 495.314C882.667 499.087 877 497.34 887.759 500.103C908.939 464.156 931.972 414.37 967.266 382.774C958.546 374.637 954.78 372.957 952.493 371.539C919.604 408.683 893.651 455.793 871.265 495.314Z" fill="#8B877E"/>
<path d="M801.428 341.109C693.485 272.682 618.984 251.87 420.601 296.837C310.698 350.051 458.998 462.671 398.999 545.684C339 628.697 353.848 724.821 416 737.558C478.153 750.294 496.071 786.366 509.999 802.179C523.928 817.991 675.187 853.03 699 816.594C722.813 780.158 720.501 781.716 786.5 732.09C852.5 682.463 820.197 576.34 800.5 559.105C780.803 541.87 860.151 378.334 801.428 341.109Z" fill="url(#paint5_linear_1037_1933)"/>
<path d="M681.002 303.605C664.962 316.693 655.501 342.377 655.501 342.377C687.502 309.073 732.621 330.501 747.199 337.479C761.777 344.457 767.958 334.362 758.451 324.706C737.386 307.501 697.042 290.517 681.002 303.605Z" fill="#6C5C43"/>
<ellipse cx="9.93715" cy="6.19568" rx="9.93715" ry="6.19568" transform="matrix(0.842344 0.53894 -0.543419 0.839461 771.734 334.922)" fill="#6C5C43"/>
<ellipse cx="6.80275" cy="4.24142" rx="6.80275" ry="4.24142" transform="matrix(0.842344 0.53894 -0.543419 0.839461 791.609 349.834)" fill="#6C5C43"/>
<path d="M402.102 546.01C379.602 561.917 371.6 597.209 371.6 597.209C396.102 523.641 501.577 547.812 517.149 552.177C532.721 556.543 537.053 545.536 526.008 537.661C502.267 524.339 424.601 530.104 402.102 546.01Z" fill="#AFABA4" fill-opacity="0.3"/>
<ellipse cx="9.94543" cy="6.19049" rx="9.94543" ry="6.19049" transform="matrix(0.922663 0.385607 -0.389462 0.921042 540.871 545.438)" fill="#7E776C"/>
<ellipse cx="6.80842" cy="4.23787" rx="6.80842" ry="4.23787" transform="matrix(0.922663 0.385607 -0.389462 0.921042 563.043 556.707)" fill="#7E776C"/>
<ellipse cx="12.4999" cy="6.95922" rx="12.4999" ry="6.95922" transform="matrix(0.999129 0.0417269 -0.0422173 0.999108 656.586 522.818)" fill="#615546"/>
<ellipse cx="12.4999" cy="6.95922" rx="12.4999" ry="6.95922" transform="matrix(0.999129 0.0417269 -0.0422173 0.999108 447.816 499.041)" fill="#615546"/>
<path d="M781.862 456.941C775.498 446.348 769.479 443.185 752.454 444.596C733.244 450.042 733.952 454.903 734.019 463.382C741.495 502.436 769.572 517.058 781.862 513.301C794.152 509.544 803.936 481.051 781.862 456.941Z" fill="#736B5E"/>
<path d="M414.719 637.397C418.543 629.255 418.02 623.827 410.287 611.907C399.234 599.735 396.586 601.862 391.493 604.721C370.935 623.107 373.453 648.383 380.689 656.08C387.925 663.777 409.084 661.451 414.719 637.397Z" fill="#6A6358"/>
<path d="M769.908 523.092C767.925 520.368 766.051 519.555 760.748 519.917C754.764 521.318 754.985 522.568 755.006 524.748C757.335 534.79 766.08 538.551 769.908 537.584C773.736 536.618 776.783 529.291 769.908 523.092Z" fill="#6E6557"/>
<path d="M439.019 647.982C438.478 642.81 436.597 640.281 429.209 636.697C420.104 633.982 419.429 635.826 417.764 638.764C413.086 654.008 421.885 665.759 427.765 667.402C433.645 669.045 443.418 661.566 439.019 647.982Z" fill="#6A6358"/>
<path d="M218.491 320.725C291.994 289.887 450.507 247.864 500.638 290.304C532.351 340.722 297.952 450.852 270.772 442.131C249.748 420.151 251.246 401.491 243.132 381.911C235.139 362.627 216.234 349.092 218.491 320.725Z" fill="url(#paint6_linear_1037_1933)"/>
<path d="M305.27 300.363C297.254 296.187 291.777 296.472 279.462 303.676C266.749 314.185 268.771 316.924 271.423 322.137C289.004 343.481 314.514 342.07 322.564 335.178C330.613 328.286 329.197 307.046 305.27 300.363Z" fill="#81786C"/>
<path d="M307.634 346.552C302.413 346.866 299.79 348.634 295.867 355.858C292.742 364.836 294.566 365.591 297.446 367.383C312.562 372.724 324.753 364.447 326.66 358.645C328.567 352.842 321.477 342.751 307.634 346.552Z" fill="#81786C"/>
<path d="M82.7665 480.619C132.838 402.145 152.342 364.566 219.373 321.433L290.872 438.499C226.511 452.12 194.194 471.781 139.979 517.828C152.188 533.825 153.807 543.309 130.558 562.778C111.417 569.295 102.465 572.286 79.1336 558.782C55.8024 545.278 62.4479 505.67 82.7665 480.619Z" fill="url(#paint7_linear_1037_1933)"/>
<path d="M82.7674 480.618C132.334 401.195 148.768 358.782 218.732 321.134C274.142 340.34 319.332 443.551 291.05 439.682C226.689 453.303 194.195 471.781 139.979 517.827C116.648 504.323 112.327 484.903 82.7674 480.618Z" fill="url(#paint8_linear_1037_1933)"/>
<path d="M262.937 445.516C252.362 448.667 252.071 448.402 241.452 452.272C234.138 407.293 220.394 381.805 186.385 341.364C196.716 333.326 203.933 330.256 214.658 323.178C248.392 376.999 262.069 405.368 262.937 445.516Z" fill="#8B877E"/>
<path d="M249.441 449.364C238.336 453.938 243.632 450.946 233.638 455.648C209.957 421.298 190.756 401.589 153.306 372.582C160.664 361.757 162.477 362.995 171.296 353.671C206.742 388.384 224.303 411.535 249.441 449.364Z" fill="#8B877E"/>
<path d="M203.718 470.001C193.872 476.506 198.997 473.044 189.515 479.156C170.97 452.151 156.987 437.056 123.116 414.46C130.474 403.635 129.515 402.657 137.544 392.623C168.999 419.963 182.62 438.945 203.718 470.001Z" fill="#868278"/>
<path d="M159.575 500.695C149.729 507.2 159.619 502.275 150.137 508.387C128.949 481.795 116.818 469.918 93.9933 462.31C101.352 451.485 99.9272 450.767 107.956 440.733C124.299 452.224 132.529 455.718 159.575 500.695Z" fill="#868278"/>
<path d="M189.046 479.327C179.266 486.079 183.374 481.841 175.252 489.669C150.259 466.015 136.304 452.592 106.29 443.469C111.419 431.426 111.588 434.457 117.527 423.062C141.705 432.785 159.512 449.942 189.046 479.327Z" fill="#868278"/>
<path d="M643.724 240.56L640.544 181.147L588.89 208.686L587.139 179.172L548.031 203.617L531.434 159.816L482.759 231.661C475.418 221.253 470.118 225.324 462.895 231.661C460.782 233.515 458.504 235.563 455.962 237.5C450.356 241.771 443.465 245.497 434.225 245.397C448.157 267.91 444.999 254.079 454.592 269.324C440.787 282.804 433.566 271.455 424.899 263C421.335 254.588 420.145 254.627 420 258.855C417.656 257.245 415.135 256.121 412.313 255.905C411.719 269.268 407.373 288.172 413.569 306C402.675 302.029 404 302 417.157 314C418.301 316.042 419.62 318.055 421.139 320.028C416.137 324.648 405.402 324.006 394.5 323.52C378.5 316 380.5 317 387.65 323.284C384.204 323.225 380.861 323.301 377.806 323.689C379.042 333.82 387.865 345.014 396.5 356.238C384.754 358.377 383.875 361.104 403 364.897C405.536 368.429 407.854 371.937 409.707 375.388C401.014 381.237 395.562 386.559 392.127 395C380.225 409.458 377.351 414.58 389.448 404C388.68 407.61 388.096 411.7 387.65 416.408C402.131 407.907 413.856 411.376 438.751 426.557L423.422 470.674L477.632 466.69C488.357 472.365 495.327 476.472 492.717 488.837C483.513 502.036 475.757 507.543 489.955 497.324C488.723 500.289 487.125 503.603 485.123 507.326C506.064 503.087 518.345 497.972 527.404 488.426C519.093 504.547 528.888 494.874 533.585 480.523C535.753 477.205 537.776 473.477 539.769 469.264C543.098 471.301 545.834 473.357 548.079 475.47C552.316 487.488 553.31 493.975 553.479 496.558C553.604 498.462 553.281 498.245 553.479 496.558C553.666 494.969 554.315 492.076 556.238 488.423C558.576 496.288 557.858 505.47 557.329 517.202C560.525 513.343 563.49 509.898 566.203 506.618C567.435 522.909 565.108 515.593 573.983 496.388C579.331 488.38 582.961 479.73 584.53 466.56C589.421 467.295 584.231 459.89 597.476 468.263C610.721 476.637 611.927 489.77 611.461 475.567C615.386 479 619.805 483.988 625.15 491.324C626.951 486.883 628.41 482.772 629.572 478.958C633.075 486.4 635.87 491.937 631.814 470.359C638.532 438.832 622.2 431.405 619.864 422.375C633.227 425.08 647.217 416.834 655.535 414.536C663.854 412.238 677.334 409.821 663.945 408.061C666.131 406.058 668.015 404.031 669.545 402.104C652.413 386.653 648.888 368.622 656.879 367.126L664.87 365.63C692.159 368.907 691.024 368.119 672.861 364.134L692.169 360.52C674.965 353.538 672.275 340.639 665.24 325.872C670.228 314.267 704.485 310.155 710.5 308C716.516 305.845 746.724 305.643 722.499 299C725.932 297.77 731.094 293.31 733.617 292.181C723.535 281.66 691.454 277.024 674.826 274.06C687.35 262.298 693.888 259.286 706.463 260.169C686.819 236.018 671.279 237.848 643.724 240.56Z" fill="url(#paint9_radial_1037_1933)"/>
<path d="M736.133 139.692C722.281 143.179 679.19 173.662 638.197 175.803L679.717 243.249C693.955 243.138 706.07 242.518 716.571 241.375C720.261 233.337 725.889 234.718 731.927 239.124C734.717 240.142 737.282 239.904 739.605 237.454C740.959 226.585 747.675 226.256 757.264 231.548C760.223 231.75 762.947 232.103 766.478 226.895C769.313 217.123 773.464 216.8 777.995 219.165C780.599 217.171 783.161 215.05 785.736 212.799C800.164 193.056 800.529 165.267 793.439 150.203C786.35 135.139 749.984 136.206 736.133 139.692Z" fill="#746C5F"/>
<path d="M535.399 57.4698C544.118 68.7837 559.084 119.401 589.949 146.462L514.526 170.65C467.047 132.614 456.828 114.358 451.184 84.1686C452.077 59.7317 468.996 37.6838 483.89 30.2437C498.783 22.8036 526.681 46.1559 535.399 57.4698Z" fill="#7C7467"/>
<path d="M733.382 152.537C719.372 156.313 678.83 181.824 640.039 183.9L680.448 239.586C694.3 239.399 702.046 237.302 711.965 236.34C711.965 205.611 732.58 254.767 737.245 229.43C741.909 204.092 757.265 227.458 760.336 226.524C763.407 225.591 763.407 191.807 778.687 214.507C792.75 197.601 794.463 172.753 787.319 161.139C780.174 149.524 747.393 148.762 733.382 152.537Z" fill="url(#paint10_linear_1037_1933)"/>
<path d="M529.606 69.2599C538.27 80.8995 554.312 126.034 583.489 151.68L517.28 170.392C472.601 134.176 462.418 117.308 455.66 89.8744C455.084 67.8911 469.123 47.3181 481.925 42.6207C494.726 37.9232 520.941 57.6204 529.606 69.2599Z" fill="url(#paint11_linear_1037_1933)"/>
<path d="M513.716 148.587C506.394 149.663 512.292 189.776 512.292 189.776L466.531 196.505C466.531 196.505 489.286 223.94 471.893 232.97C454.5 242.001 458.129 237.679 476.5 247.492C477.782 250.433 479.198 253.325 480.595 256.001C463.939 252.529 463 253.501 488.505 269.645L482.502 275.501C467.659 278.45 466.531 280.001 475 282.817L466.531 291.078C459.528 265.501 463.196 283.88 459.528 297.908C443 291.078 430.5 256.001 445 311.001C445 311.001 435.827 318.37 418.911 343.21C401.996 368.05 414.461 454.019 437.497 464C460.532 473.982 559.556 460.371 582.773 440.193C605.991 420.014 637.271 314.828 637.271 314.828C637.271 314.828 640.249 314.633 645 314.235C648.5 322.501 637.271 332.001 653 313.513C663 351.001 657.174 332.586 666.5 312.051C686 331.001 679.077 321.966 680.5 310.501C697.084 308.139 708.006 305.077 709.953 300.416C711.677 296.291 707.058 288.59 701.074 281.001C705.106 272.583 719.5 273.001 692.933 271.501C692.033 270.519 691.093 269.509 690.145 268.501C694.207 258.401 697.245 256.847 687 265.191C682.711 260.719 679 257.001 679 257.001C689.683 261.275 698.824 263.891 681.413 252.501C701.074 249.001 696 259.887 680.578 238.501C679.627 227.704 677.75 215.511 674.047 208.834C666.405 195.056 654.047 174.521 643.013 163.104C631.978 151.688 617.567 142.63 602.918 144.784C588.269 146.938 566.269 137.134 555.816 142.397C545.364 147.659 540.683 153.935 540.683 153.935C540.683 153.935 521.038 147.51 513.716 148.587Z" fill="url(#paint12_linear_1037_1933)"/>
<path d="M615.172 211.681C598.618 210.458 558.269 223.218 543.332 255.153C576.959 282.926 614.425 268.468 624.26 248.739C634.094 229.01 659.491 216.134 659.491 216.134C659.491 216.134 631.726 212.903 615.172 211.681Z" fill="url(#paint13_linear_1037_1933)"/>
<path d="M526.411 177.196C538.149 182.784 534.124 231.581 533.901 252.883C517.27 244.461 508.119 238.391 504.759 227.916C501.399 217.44 503.022 182.83 510.586 168.554C510.586 168.554 514.674 171.609 526.411 177.196Z" fill="url(#paint14_linear_1037_1933)"/>
<path d="M568.641 177.03C557.944 181.842 544.615 190.81 548.502 218.722C576.739 220.815 587.896 203.198 587.367 187.63C586.837 172.062 585.6 168.904 585.6 168.904C585.6 168.904 579.338 172.218 568.641 177.03Z" fill="url(#paint15_linear_1037_1933)"/>
<path d="M561.501 182.5C547.002 185.998 547.442 201.057 547.443 209.89C547.444 218.722 554.351 223.824 572.175 214.483C590 205.141 576 179.003 561.501 182.5Z" fill="#872D43"/>
<path d="M575.3 224.102C558.811 228.079 550.835 242.445 553.493 255.247C556.152 268.049 582.024 275.11 596.434 267.558C610.845 260.007 591.788 220.125 575.3 224.102Z" fill="#872D43"/>
<path d="M530.147 202.027C533.99 212.327 537.117 233.597 530.638 242.31C524.158 251.024 506.994 236.305 503.627 222.224C498.935 190.32 526.304 191.728 530.147 202.027Z" fill="#872D43"/>
<path d="M450.645 467.118C464.996 469.369 503.907 449.038 537.681 421.596C445.005 411.965 448.722 410.848 412.375 363C406.363 387.364 414.646 444.707 424.683 454.717C434.72 464.727 436.295 464.868 450.645 467.118Z" fill="#754E53"/>
<path d="M536.932 422.191C445.802 411.76 446.552 411.012 412.375 363C412.375 363 424.059 432.055 437.174 440.888C450.289 449.721 536.932 422.191 536.932 422.191Z" fill="#9D6774"/>
<path d="M586.818 335.385C586.05 346.134 595.026 411.081 578.5 443.5C581.5 441 582.853 442.779 588.5 434.5C593.407 427.306 602.442 409.02 606.012 402.952C614.198 382.699 641.331 326.172 636.724 312.351C632.117 298.531 639.027 293.924 636.724 290.085C634.421 286.246 587.585 324.636 586.818 335.385Z" fill="#9D6774"/>
<path d="M620.164 321.145L634.419 290.085C626.278 294.001 615.912 302.644 607.548 309.28C594.805 318.754 588.352 330.01 586.817 334.211L589.897 334.211L593.533 328.036L600.747 329.908L600.335 322.537L605.216 318.283L612.793 321.557L611.342 315.95L616.9 308.531L620.164 321.145Z" fill="#ECD66E"/>
<path d="M594.312 369.657L602.942 408.325C610.932 394.466 612.781 387.74 619.927 372.778L620.238 371.991C629.772 347.819 637.92 327.159 637.298 317.669L627.638 330.793L626.773 341.888L615.431 344.194L621.031 354.198L617.12 363.461L604.316 364.058L610.162 370.892L607.466 385.034L594.312 369.657Z" fill="#ECD66E"/>
</g>
<defs>
<linearGradient id="paint0_linear_1037_1933" x1="383.312" y1="976.1" x2="472.982" y2="721" gradientUnits="userSpaceOnUse">
<stop stop-color="#898072"/>
<stop offset="1" stop-color="#6F6659"/>
</linearGradient>
<linearGradient id="paint1_linear_1037_1933" x1="795.976" y1="980.259" x2="751.225" y2="751.913" gradientUnits="userSpaceOnUse">
<stop stop-color="#898072"/>
<stop offset="1" stop-color="#6F6659"/>
</linearGradient>
<linearGradient id="paint2_linear_1037_1933" x1="789.169" y1="277.019" x2="941.276" y2="428.134" gradientUnits="userSpaceOnUse">
<stop stop-color="#898072"/>
<stop offset="1" stop-color="#6F6659"/>
</linearGradient>
<linearGradient id="paint3_linear_1037_1933" x1="728.905" y1="313.093" x2="914.94" y2="419.691" gradientUnits="userSpaceOnUse">
<stop stop-color="#898072"/>
<stop offset="1" stop-color="#6F6659"/>
</linearGradient>
<linearGradient id="paint4_linear_1037_1933" x1="817.526" y1="408.829" x2="1037.7" y2="527.87" gradientUnits="userSpaceOnUse">
<stop stop-color="#989590"/>
<stop offset="1" stop-color="#8E8982"/>
</linearGradient>
<linearGradient id="paint5_linear_1037_1933" x1="585.489" y1="273" x2="595.876" y2="581.975" gradientUnits="userSpaceOnUse">
<stop stop-color="#8A8173"/>
<stop offset="1" stop-color="#635A4E"/>
</linearGradient>
<linearGradient id="paint6_linear_1037_1933" x1="466.245" y1="273.813" x2="249.868" y2="408.457" gradientUnits="userSpaceOnUse">
<stop stop-color="#898072"/>
<stop offset="1" stop-color="#6F6659"/>
</linearGradient>
<linearGradient id="paint7_linear_1037_1933" x1="439.052" y1="242.314" x2="249.343" y2="412.486" gradientUnits="userSpaceOnUse">
<stop stop-color="#898072"/>
<stop offset="1" stop-color="#6F6659"/>
</linearGradient>
<linearGradient id="paint8_linear_1037_1933" x1="303.71" y1="368.954" x2="107.552" y2="524.42" gradientUnits="userSpaceOnUse">
<stop stop-color="#989590"/>
<stop offset="1" stop-color="#8E8982"/>
</linearGradient>
<radialGradient id="paint9_radial_1037_1933" cx="0" cy="0" r="1" gradientUnits="userSpaceOnUse" gradientTransform="translate(455.5 310.5) rotate(27.887) scale(366.19 387.15)">
<stop stop-color="#7E6B51"/>
<stop offset="0.415" stop-color="#867358"/>
<stop offset="1" stop-color="#A39889"/>
</radialGradient>
<linearGradient id="paint10_linear_1037_1933" x1="795.227" y1="190.2" x2="649.062" y2="223.501" gradientUnits="userSpaceOnUse">
<stop stop-color="#754E53"/>
<stop offset="1" stop-color="#90686D"/>
</linearGradient>
<linearGradient id="paint11_linear_1037_1933" x1="457.728" y1="60.5403" x2="551.892" y2="177.187" gradientUnits="userSpaceOnUse">
<stop stop-color="#754E53"/>
<stop offset="1" stop-color="#90686D"/>
</linearGradient>
<linearGradient id="paint12_linear_1037_1933" x1="508" y1="215.001" x2="613.998" y2="386.5" gradientUnits="userSpaceOnUse">
<stop stop-color="#968E81"/>
<stop offset="1" stop-color="#5C5547"/>
</linearGradient>
<linearGradient id="paint13_linear_1037_1933" x1="599.996" y1="189.5" x2="572.996" y2="243.5" gradientUnits="userSpaceOnUse">
<stop stop-color="#ECD66E"/>
<stop offset="1" stop-color="#C3AD46"/>
</linearGradient>
<linearGradient id="paint14_linear_1037_1933" x1="599.996" y1="189.5" x2="572.996" y2="243.5" gradientUnits="userSpaceOnUse">
<stop stop-color="#ECD66E"/>
<stop offset="1" stop-color="#C3AD46"/>
</linearGradient>
<linearGradient id="paint15_linear_1037_1933" x1="560.227" y1="153.938" x2="561.626" y2="196.578" gradientUnits="userSpaceOnUse">
<stop stop-color="#ECD66E"/>
<stop offset="1" stop-color="#C3AD46"/>
</linearGradient>
<clipPath id="clip0_1037_1933">
<rect width="1185" height="1011" fill="white"/>
</clipPath>
</defs>
</svg>
