<svg width="554" height="896" viewBox="0 0 554 896" fill="none" xmlns="http://www.w3.org/2000/svg">
<ellipse cx="274.5" cy="711.554" rx="172.5" ry="71.4459" fill="#E9DDB9" fill-opacity="0.05"/>
<g filter="url(#filter0_d_852_80)">
<ellipse cx="277" cy="714.5" rx="170" ry="74.5" stroke="#7FD71B" stroke-opacity="0.01" stroke-width="82.5686"/>
</g>
<path d="M182.397 587.315L176.863 296.091C175.618 276.342 177.429 265.138 237.74 242.16C313.247 221.781 335.153 239.506 356.726 296.091C356.726 296.091 368.102 280.428 373.636 302C379.17 323.572 365.028 608.887 365.028 608.887C359.968 650.786 342.664 687.986 301.157 687.986C259.65 687.986 186.2 691.529 182.397 587.315Z" fill="url(#paint0_linear_852_80)"/>
<path d="M266.435 334.675L233.136 343L237.449 557.343L265.198 612.842L276.298 687.765L292.947 657.241L262.423 546.243L266.435 334.675Z" fill="#837A61"/>
<path d="M370.643 309.5H357.324L353.994 648.168L363.984 565.438L357.324 559.074L370.643 309.5Z" fill="#A09881"/>
<path d="M190.274 320.771L176.627 281.922C175.379 266.68 177.194 258.033 237.676 240.298C313.396 224.569 335.364 238.25 356.998 281.922C356.998 281.922 368.098 281.922 373.647 298.572C379.197 315.221 356.998 309.672 356.998 309.672C351.924 342.009 334.571 329.096 292.947 329.096C251.323 329.096 237.676 359.62 190.274 320.771Z" fill="url(#paint1_linear_852_80)"/>
<path d="M330.57 296.82L337.636 259.133C333.405 252.326 330.085 249.455 323.503 245L316.437 277.977L288.171 303.887L233.995 341.574C239.666 341.805 246.55 340.398 266.972 334.508L330.57 296.82Z" fill="#928A74"/>
<path d="M240.222 476.87L265.196 471.32L270.746 485.195L267.971 524.044L237.447 529.594L204.148 521.269V546.243L165.298 537.919L148.649 512.944V432.471L176.398 401.947V424.146L165.298 438.021L179.173 454.671L197.727 461.726L204.148 457.446L220.797 465.77L223.572 485.195L240.222 490.745V476.87Z" fill="url(#paint2_linear_852_80)"/>
<path d="M270.746 485.195L265.196 471.321L240.222 476.87V487.97L223.572 485.195L220.797 465.771L204.147 457.446L195.823 462.996L212.472 468.546L218.022 487.97L245.771 493.52V485.195H270.746Z" fill="#837B63"/>
<path d="M176.398 424.146V401.947L148.649 432.471L165.298 451.896L170.848 457.446L195.823 468.545V462.995H201.373L179.173 454.671V446.346L165.298 438.021L176.398 424.146Z" fill="#837B63"/>
<path d="M204.15 521.269V546.243L212.474 537.919V524.044L204.15 521.269Z" fill="#837B63"/>
<path d="M176.398 424.147L165.298 438.021L176.398 446.346V424.147Z" fill="#8D866F"/>
<path d="M390.069 363H373.419L376.194 387.974L337.345 410.174L340.12 465.673L356.769 471.222L365.094 421.274L401.168 390.749L390.069 363Z" fill="#837B63"/>
<path d="M365.094 501.747L376.194 507.297L370.644 471.222L384.519 451.798L367.869 462.898L362.319 471.222L365.094 501.747Z" fill="#837B63"/>
<path d="M401.168 390.749L365.093 421.273L356.769 471.222L384.518 451.798L370.643 471.222L376.193 507.296L390.068 468.447L401.168 390.749Z" fill="#948A6C"/>
<path d="M132 675.917L156.974 598.219L170.849 587.119L198.598 600.994L209.698 639.843L304.046 656.492L315.146 620.418L340.12 617.643L351.22 628.743L365.095 609.319L367.87 587.119L398.394 598.219L401.169 650.943L387.294 692.567L398.394 706.441L367.87 742.515H309.596L304.046 725.866L190.274 692.567L176.399 700.891L132 675.917Z" fill="url(#paint3_linear_852_80)"/>
<path d="M219.911 695.74C222.196 703.883 221.962 710.861 219.903 719.659C214.073 714.389 210.14 707.39 207.38 701.709C204.619 696.028 202.085 683.127 208.266 679.692C214.445 676.258 217.623 687.585 219.908 695.728L219.911 695.74Z" fill="#A0B479"/>
<path d="M234.151 704.603C230.793 712.09 226.264 716.76 219.224 721.242C218.119 712.932 219.523 704.93 220.986 698.778C222.449 692.626 228.588 681.63 235.388 684.162C242.185 686.693 237.514 697.107 234.156 704.593L234.151 704.603Z" fill="#A0B479"/>
<path d="M209.332 703.891C215.4 708.805 218.233 713.968 219.901 721.246C211.278 719.957 203.939 716.588 198.446 713.668C192.954 710.747 184.514 702.489 189.666 697.311C194.816 692.135 203.256 698.971 209.323 703.884L209.332 703.891Z" fill="#A0B479"/>
<path d="M242.288 714.819C235.058 719.208 228.274 720.858 219.246 721.239C222.755 714.208 228.44 708.539 233.17 704.352C237.9 700.166 249.645 694.259 254.616 699.289C259.583 704.318 249.527 710.423 242.298 714.813L242.288 714.819Z" fill="#A0B479"/>
<path d="M193.05 606.544L156.976 598.219L170.851 587.119L198.6 600.994L209.7 639.843L304.048 656.492L315.148 620.418L340.122 617.643L342.897 620.418L320.697 628.743L304.048 667.592L206.925 642.618L193.05 606.544Z" fill="#837B63"/>
<path d="M381.744 592.669L367.869 587.119L365.094 609.319L351.22 628.743L376.194 606.544L381.744 592.669Z" fill="#837B63"/>
<path d="M323.469 689.792L331.794 667.592L342.894 664.817L362.318 675.917L356.768 709.216L334.569 706.441L323.469 689.792Z" fill="url(#paint4_linear_852_80)"/>
<path d="M154.198 653.717L156.972 628.743L168.072 625.968L187.497 637.068L181.947 656.492L159.747 667.592L154.198 653.717Z" fill="url(#paint5_linear_852_80)"/>
<path d="M160.773 505.945L156.973 489.996L170.983 476.648L186.126 480.82L188.65 505.145L173.623 514.971L160.773 505.945Z" fill="url(#paint6_linear_852_80)"/>
<path d="M387.009 438.55L383.209 422.602L397.218 409.253L403.944 412.949L398.394 437.924L392.844 443.474L387.009 438.55Z" fill="url(#paint7_linear_852_80)"/>
<path opacity="0.55" d="M241.542 157.422C210.813 151.762 206.32 161.425 206.32 161.425L239.996 271.664C239.996 271.664 280.231 242.843 272.394 194.247C264.222 162.304 241.542 157.422 241.542 157.422Z" fill="url(#paint8_linear_852_80)"/>
<path opacity="0.65" d="M217.854 167.477C266.689 155.918 268.812 211.569 263.265 229.668C257.069 247.757 244.449 263.074 244.449 263.074L217.854 167.477Z" fill="url(#paint9_linear_852_80)"/>
<path opacity="0.55" d="M298.763 155.913C277.462 159.337 286.364 268.259 286.364 268.259C286.364 268.259 336.631 232.084 343.801 188.296C350.96 145.043 298.763 155.913 298.763 155.913Z" fill="url(#paint10_linear_852_80)"/>
<path opacity="0.65" d="M295.774 170.885C323.335 164.006 338.061 173.823 335.38 197.027C335.965 201.205 306.03 250.706 294.548 256.265C282.397 261.814 295.774 170.885 295.774 170.885Z" fill="url(#paint11_linear_852_80)"/>
<g filter="url(#filter1_d_852_80)">
<circle cx="281" cy="201" r="94" stroke="#7FD71B" stroke-opacity="0.01" stroke-width="82.5686"/>
</g>
<defs>
<filter id="filter0_d_852_80" x="0.715698" y="533.716" width="552.569" height="361.569" filterUnits="userSpaceOnUse" color-interpolation-filters="sRGB">
<feFlood flood-opacity="0" result="BackgroundImageFix"/>
<feColorMatrix in="SourceAlpha" type="matrix" values="0 0 0 0 0 0 0 0 0 0 0 0 0 0 0 0 0 0 127 0" result="hardAlpha"/>
<feOffset/>
<feGaussianBlur stdDeviation="32.5"/>
<feColorMatrix type="matrix" values="0 0 0 0 0.269437 0 0 0 0 0.533479 0 0 0 0 0.843441 0 0 0 0.25 0"/>
<feBlend mode="normal" in2="BackgroundImageFix" result="effect1_dropShadow_852_80"/>
<feBlend mode="normal" in="SourceGraphic" in2="effect1_dropShadow_852_80" result="shape"/>
</filter>
<filter id="filter1_d_852_80" x="80.7157" y="0.715714" width="400.569" height="400.569" filterUnits="userSpaceOnUse" color-interpolation-filters="sRGB">
<feFlood flood-opacity="0" result="BackgroundImageFix"/>
<feColorMatrix in="SourceAlpha" type="matrix" values="0 0 0 0 0 0 0 0 0 0 0 0 0 0 0 0 0 0 127 0" result="hardAlpha"/>
<feOffset/>
<feGaussianBlur stdDeviation="32.5"/>
<feColorMatrix type="matrix" values="0 0 0 0 0.269437 0 0 0 0 0.533479 0 0 0 0 0.843441 0 0 0 0.25 0"/>
<feBlend mode="normal" in2="BackgroundImageFix" result="effect1_dropShadow_852_80"/>
<feBlend mode="normal" in="SourceGraphic" in2="effect1_dropShadow_852_80" result="shape"/>
</filter>
<linearGradient id="paint0_linear_852_80" x1="281.787" y1="389.57" x2="271.408" y2="687.853" gradientUnits="userSpaceOnUse">
<stop offset="0.307345" stop-color="#948A6C"/>
<stop offset="0.745124" stop-color="#948A6C"/>
</linearGradient>
<linearGradient id="paint1_linear_852_80" x1="286.699" y1="254.173" x2="234.673" y2="326.321" gradientUnits="userSpaceOnUse">
<stop stop-color="#948A6C"/>
<stop offset="1" stop-color="#AAA082"/>
</linearGradient>
<linearGradient id="paint2_linear_852_80" x1="218.022" y1="485.195" x2="209.697" y2="546.243" gradientUnits="userSpaceOnUse">
<stop stop-color="#948B6D"/>
<stop offset="1" stop-color="#A69D80"/>
</linearGradient>
<linearGradient id="paint3_linear_852_80" x1="266.584" y1="587.119" x2="266.584" y2="742.515" gradientUnits="userSpaceOnUse">
<stop stop-color="#908564"/>
<stop offset="1" stop-color="#9D967F"/>
</linearGradient>
<linearGradient id="paint4_linear_852_80" x1="342.894" y1="664.817" x2="342.894" y2="709.216" gradientUnits="userSpaceOnUse">
<stop stop-color="#6580B2"/>
<stop offset="1" stop-color="#45587D"/>
</linearGradient>
<linearGradient id="paint5_linear_852_80" x1="170.847" y1="625.968" x2="170.847" y2="667.592" gradientUnits="userSpaceOnUse">
<stop stop-color="#6580B2"/>
<stop offset="1" stop-color="#45587D"/>
</linearGradient>
<linearGradient id="paint6_linear_852_80" x1="170.429" y1="476.719" x2="175.336" y2="514.75" gradientUnits="userSpaceOnUse">
<stop stop-color="#6580B2"/>
<stop offset="1" stop-color="#45587D"/>
</linearGradient>
<linearGradient id="paint7_linear_852_80" x1="392.554" y1="409.855" x2="396.826" y2="442.96" gradientUnits="userSpaceOnUse">
<stop stop-color="#6580B2"/>
<stop offset="1" stop-color="#45587D"/>
</linearGradient>
<linearGradient id="paint8_linear_852_80" x1="240.436" y1="155.88" x2="238.679" y2="271.644" gradientUnits="userSpaceOnUse">
<stop stop-color="#6580B2"/>
<stop offset="1" stop-color="#45587D"/>
</linearGradient>
<linearGradient id="paint9_linear_852_80" x1="242.116" y1="166.087" x2="240.645" y2="263.017" gradientUnits="userSpaceOnUse">
<stop stop-color="#6580B2"/>
<stop offset="1" stop-color="#45587D"/>
</linearGradient>
<linearGradient id="paint10_linear_852_80" x1="315.375" y1="154.738" x2="313.646" y2="268.673" gradientUnits="userSpaceOnUse">
<stop stop-color="#6580B2"/>
<stop offset="1" stop-color="#45587D"/>
</linearGradient>
<linearGradient id="paint11_linear_852_80" x1="313.494" y1="168.756" x2="312.157" y2="256.792" gradientUnits="userSpaceOnUse">
<stop stop-color="#6580B2"/>
<stop offset="1" stop-color="#45587D"/>
</linearGradient>
</defs>
</svg>
