<svg width="520" height="560" viewBox="0 0 520 560" fill="none" xmlns="http://www.w3.org/2000/svg">
<ellipse cx="126" cy="59.5" rx="126" ry="59.5" transform="matrix(-1 0 0 1 430.076 440.516)" fill="url(#paint0_radial_864_608)"/>
<path d="M392.583 217.615C392.853 216.608 394.141 216.094 395.437 216.628C396.696 217.087 397.572 218.328 397.302 219.335L397.272 219.447C396.807 221.612 397.068 223.858 398.117 225.96C400.438 230.615 405.816 232.452 410.065 230.13C411.211 229.504 412.208 228.577 412.927 227.61C413.444 226.754 414.748 226.615 415.916 227.41C417.085 228.204 417.654 229.517 417.174 230.448C417.174 230.448 417.174 230.448 417.107 230.485C415.937 232.271 414.379 233.792 412.423 234.86C405.747 238.51 397.432 235.602 393.838 228.394C392.041 224.79 391.72 221.048 392.583 217.615Z" fill="#8E8B97"/>
<path opacity="0.25" d="M397.234 219.372C396.829 221.313 396.979 223.334 397.78 225.284C397.667 225.059 397.555 224.834 397.48 224.684C396.582 222.882 396.245 219.626 396.853 217.574C397.175 217.876 397.519 218.739 397.234 219.372Z" fill="#46395B"/>
<path opacity="0.25" d="M411.862 233.734C413.682 232.739 414.941 231.477 416.193 230.029C416.523 229.658 416.882 229.174 417.107 228.765C417.294 229.14 417.391 229.852 417.137 230.373C415.968 232.159 414.341 233.716 412.386 234.785C405.71 238.434 397.395 235.527 393.801 228.319C393.614 227.943 393.427 227.568 393.344 227.231C397.111 233.58 404.377 237.825 411.862 233.734Z" fill="#46395B"/>
<path opacity="0.3" d="M394.064 223.685C394.476 223.651 394.971 223.954 395.09 224.366C395.248 224.853 395.405 225.341 395.629 225.791C397.059 228.831 399.591 230.983 402.415 231.828C402.835 231.98 403.127 232.394 403.044 232.917C402.999 233.515 402.46 233.81 401.973 233.694C398.624 232.658 395.598 230.203 393.974 226.601C393.712 226.075 393.517 225.513 393.322 224.95C393.128 224.388 393.517 223.793 394.064 223.685Z" fill="#9C8C9A"/>
<path d="M339.939 466.318C338.98 466.597 338.471 467.96 338.788 469.364C339.105 470.769 340.184 471.792 341.144 471.513C341.216 471.486 341.216 471.486 341.288 471.458C343.261 471.06 345.407 471.404 347.223 472.682C351.321 475.419 352.599 481.305 350.168 485.83C349.533 487.062 348.647 488.031 347.607 488.789C346.8 489.278 346.561 490.717 347.237 491.984C347.841 493.279 349.054 493.981 349.933 493.464C349.933 493.464 349.933 493.464 350.004 493.437C351.707 492.244 353.247 490.575 354.338 488.54C358.183 481.497 356.108 472.325 349.699 468.05C346.599 466.097 343.187 465.61 339.939 466.318Z" fill="url(#paint1_linear_864_608)"/>
<path opacity="0.25" d="M341.287 471.458C343.046 471.142 344.994 471.382 346.701 472.343C346.504 472.24 346.351 472.029 346.153 471.925C344.562 470.83 341.563 470.364 339.644 470.922C339.95 471.343 340.669 471.785 341.287 471.458Z" fill="#46395B"/>
<path opacity="0.25" d="M353.421 487.994C352.375 489.922 351.139 491.294 349.679 492.483C349.231 492.835 348.855 493.159 348.451 493.404C348.775 493.639 349.385 493.764 349.932 493.464C351.635 492.271 353.175 490.602 354.338 488.54C358.182 481.496 356.108 472.325 349.699 468.049C349.375 467.814 349.079 467.659 348.684 467.451C354.303 472.03 357.722 480.146 353.421 487.994Z" fill="#46395B"/>
<path opacity="0.3" d="M345.463 468.238C345.383 468.718 345.618 469.167 346.013 469.374C346.408 469.582 346.875 469.762 347.271 469.969C349.949 471.635 351.723 474.456 352.322 477.639C352.413 478.143 352.835 478.43 353.248 478.451C353.805 478.417 354.127 477.934 354.009 477.351C353.319 473.664 351.283 470.315 348.084 468.31C347.59 468.051 347.096 467.791 346.601 467.532C346.179 467.245 345.587 467.652 345.463 468.238Z" fill="#575878"/>
<path opacity="0.45" d="M339.939 466.318C338.98 466.597 338.471 467.96 338.788 469.364C339.105 470.769 340.184 471.792 341.144 471.513C341.216 471.486 341.216 471.486 341.288 471.458C343.261 471.06 345.407 471.404 347.223 472.682C351.321 475.419 352.599 481.305 350.168 485.83C349.533 487.062 348.647 488.031 347.607 488.789C346.8 489.278 346.561 490.717 347.237 491.984C347.841 493.279 349.054 493.981 349.933 493.464C349.933 493.464 349.933 493.464 350.004 493.437C351.707 492.244 353.247 490.575 354.338 488.54C358.183 481.497 356.108 472.325 349.699 468.05C346.599 466.097 343.187 465.61 339.939 466.318Z" fill="#BEBEBE"/>
<path d="M419.403 270.888C423.733 269.763 426.229 264.959 424.972 260.2L421.978 249.033C420.721 244.274 416.159 241.322 411.829 242.447C409.784 242.991 408.045 244.324 406.989 246.335C405.864 248.382 405.616 250.811 406.26 253.134L409.254 264.301C410.444 269.097 415.005 272.049 419.403 270.888ZM413.124 247.281C415.034 246.81 417.049 248.097 417.581 250.195L420.574 261.362C421.106 263.46 420.019 265.583 418.108 266.054C416.198 266.525 414.183 265.237 413.652 263.139L410.658 251.972C410.411 250.961 410.471 249.877 410.988 249.021C411.468 248.09 412.202 247.498 413.124 247.281Z" fill="url(#paint2_linear_864_608)"/>
<g opacity="0.35">
<path d="M412.411 262.195L409.417 251.028C409.17 250.016 409.231 248.932 409.748 248.076C410.197 247.257 410.999 246.628 411.883 246.336C413.179 246.01 414.438 246.468 415.374 247.485C414.707 247.181 413.876 247.062 413.127 247.281C412.205 247.498 411.471 248.09 410.991 249.021C410.511 249.952 410.414 250.961 410.661 251.973L413.654 263.139C413.819 263.814 414.186 264.377 414.62 264.904C413.602 264.41 412.703 263.468 412.411 262.195Z" fill="#26366F"/>
<path d="M418.095 269.98C422.426 268.855 424.922 264.051 423.664 259.292L420.671 248.125C420.147 246.214 419.083 244.598 417.795 243.391C419.772 244.603 421.33 246.523 421.981 249.033L424.975 260.2C426.232 264.959 423.736 269.763 419.406 270.888C416.814 271.54 414.132 270.808 412.132 269.035C413.863 270.096 416.05 270.525 418.095 269.98Z" fill="#26366F"/>
</g>
<path opacity="0.3" d="M411.049 245.357C409.73 245.983 408.711 247.208 408.291 248.776C408.021 249.783 408.133 250.868 408.38 251.88L408.949 254.053C408.949 254.053 409.151 254.803 409.308 255.29C409.428 255.702 409.203 256.112 408.866 256.296C408.424 256.442 407.967 256.214 407.81 255.727C407.047 252.991 406.874 252.13 406.874 252.13C406.351 250.219 406.583 248.276 407.445 246.563C408.18 245.11 409.491 244.298 410.368 243.819C410.772 243.598 411.267 243.901 411.386 244.313C411.611 244.763 411.424 245.248 411.049 245.357Z" fill="#575878"/>
<path opacity="0.3" d="M418.385 266.954C419.704 266.328 420.723 265.102 421.143 263.535C421.413 262.528 421.301 261.443 421.054 260.431L420.927 259.832C420.927 259.832 420.725 259.082 420.567 258.595C420.448 258.183 420.673 257.773 421.01 257.589C421.452 257.443 421.909 257.671 422.066 258.158C422.829 260.894 422.56 260.181 422.56 260.181C423.084 262.092 422.851 264.035 421.989 265.748C421.254 267.201 419.943 268.013 419.067 268.492C418.662 268.713 418.168 268.41 418.048 267.998C417.891 267.511 418.011 267.063 418.385 266.954Z" fill="#575878"/>
<path d="M424.353 307.833C428.848 307.382 431.913 303.031 431.27 298.128L429.782 286.711C429.139 281.808 424.967 278.26 420.472 278.71C418.345 278.918 416.427 280.062 415.153 281.809C413.849 283.669 413.219 286.019 413.555 288.415L415.043 299.832C415.716 304.623 419.925 308.246 424.353 307.833ZM421.153 283.689C423.108 283.48 424.928 285.065 425.22 287.199L426.708 298.615C426.999 300.749 425.628 302.645 423.672 302.854C421.717 303.063 419.897 301.478 419.605 299.344L418.118 287.928C417.938 286.879 418.208 285.872 418.83 285.054C419.452 284.236 420.224 283.719 421.153 283.689Z" fill="url(#paint3_linear_864_608)"/>
<g opacity="0.35">
<path d="M418.527 298.214L417.039 286.797C416.859 285.749 417.129 284.741 417.751 283.924C418.306 283.143 419.182 282.664 420.074 282.559C421.377 282.419 422.643 283.065 423.377 284.193C422.741 283.776 421.976 283.621 421.22 283.652C420.328 283.757 419.452 284.236 418.897 285.017C418.275 285.835 418.073 286.805 418.185 287.891L419.672 299.307C419.77 300.018 420.069 300.619 420.436 301.183C419.41 300.502 418.646 299.486 418.527 298.214Z" fill="#26366F"/>
<path d="M423.207 306.739C427.702 306.288 430.767 301.938 430.124 297.034L428.636 285.618C428.352 283.671 427.558 281.907 426.367 280.552C428.15 282.062 429.475 284.203 429.782 286.711L431.27 298.128C431.913 303.031 428.848 307.382 424.353 307.832C421.678 308.148 419.079 306.893 417.311 304.898C418.982 306.182 421.079 306.947 423.207 306.739Z" fill="#26366F"/>
</g>
<path opacity="0.3" d="M419.378 281.506C417.947 281.906 416.815 282.907 416.223 284.472C415.848 285.442 415.751 286.45 415.863 287.536L416.124 289.781C416.124 289.781 416.221 290.493 416.281 291.129C416.334 291.578 416.071 291.912 415.697 292.022C415.255 292.168 414.828 291.828 414.738 291.304C414.349 288.459 414.244 287.56 414.244 287.56C413.96 285.614 414.47 283.711 415.512 282.186C416.426 280.922 417.88 280.223 418.764 279.931C419.206 279.785 419.7 280.088 419.79 280.612C419.977 280.987 419.752 281.397 419.378 281.506Z" fill="#575878"/>
<path opacity="0.3" d="M423.882 303.791C425.313 303.391 426.444 302.39 427.037 300.824C427.411 299.855 427.509 298.846 427.397 297.761L427.337 297.125C427.337 297.125 427.24 296.413 427.18 295.777C427.128 295.328 427.39 294.994 427.765 294.884C428.207 294.738 428.634 295.078 428.723 295.603C429.112 298.447 428.978 297.661 428.978 297.661C429.262 299.608 428.752 301.511 427.71 303.036C426.796 304.3 425.342 304.999 424.458 305.291C424.016 305.437 423.522 305.134 423.432 304.61C423.35 304.273 423.507 303.9 423.882 303.791Z" fill="#575878"/>
<path d="M424.051 344.401C428.575 344.699 432.247 340.876 432.293 335.978L432.319 324.499C432.365 319.601 428.65 315.421 424.126 315.123C421.983 314.957 419.915 315.8 418.357 317.321C416.768 318.954 415.891 321.153 415.883 323.546L415.857 335.026C415.849 339.999 419.563 344.179 424.051 344.401ZM424.087 320.208C426.02 320.298 427.645 322.181 427.659 324.275L427.634 335.754C427.648 337.848 425.992 339.518 424.059 339.428C422.127 339.338 420.501 337.455 420.487 335.361L420.512 323.882C420.505 322.835 420.88 321.866 421.577 321.198C422.274 320.531 423.188 320.126 424.087 320.208Z" fill="url(#paint4_linear_864_608)"/>
<g opacity="0.35">
<path d="M419.506 334.082L419.531 322.603C419.524 321.556 419.899 320.587 420.595 319.919C421.292 319.252 422.139 318.884 423.105 318.93C424.416 318.977 425.555 319.884 426.221 321.048C425.615 320.52 424.948 320.215 424.154 320.172C423.187 320.127 422.341 320.494 421.644 321.162C420.947 321.829 420.572 322.798 420.579 323.845L420.554 335.325C420.546 335.998 420.711 336.672 421.01 337.273C420.119 336.518 419.52 335.317 419.506 334.082Z" fill="#26366F"/>
<path d="M423.069 343.122C427.594 343.419 431.266 339.597 431.312 334.699L431.337 323.22C431.293 321.237 430.739 319.438 429.713 317.897C431.331 319.592 432.319 321.919 432.318 324.499L432.293 335.978C432.247 340.876 428.642 344.662 424.05 344.401C421.323 344.267 418.986 342.678 417.414 340.385C418.926 342.042 420.896 343.067 423.069 343.122Z" fill="#26366F"/>
</g>
<path opacity="0.3" d="M422.611 317.766C421.173 317.979 419.862 318.791 419.09 320.169C418.573 321.025 418.34 322.107 418.347 323.154L418.332 325.36C418.332 325.36 418.362 326.109 418.316 326.706C418.331 327.08 418.002 327.452 417.657 327.449C417.178 327.52 416.781 327.068 416.796 326.582C416.751 323.74 416.819 322.843 416.819 322.843C416.812 320.936 417.532 319.11 418.858 317.811C419.915 316.66 421.451 316.299 422.372 316.082C422.852 316.011 423.211 316.387 423.301 316.912C423.286 317.398 423.023 317.732 422.611 317.766Z" fill="#575878"/>
<path opacity="0.3" d="M424.096 340.363C425.535 340.15 426.846 339.338 427.618 337.961C428.135 337.105 428.368 336.022 428.36 334.975L428.405 334.377C428.405 334.377 428.376 333.629 428.421 333.031C428.406 332.657 428.736 332.286 429.08 332.289C429.56 332.218 429.957 332.669 429.942 333.155C429.986 335.998 429.956 335.25 429.956 335.25C429.963 337.157 429.243 338.983 427.917 340.281C426.86 341.432 425.324 341.794 424.403 342.011C423.924 342.082 423.564 341.705 423.474 341.181C423.459 340.807 423.789 340.436 424.096 340.363Z" fill="#575878"/>
<path d="M419.494 379.663C423.974 380.558 428.117 377.338 428.718 372.519L430.129 361.238C430.73 356.419 427.547 351.757 423.067 350.862C420.947 350.396 418.797 350.903 417.059 352.235C415.253 353.604 414.129 355.652 413.843 358.005L412.432 369.287C411.832 374.106 415.014 378.768 419.494 379.663ZM422.437 355.792C424.415 356.145 425.77 358.174 425.545 360.304L424.133 371.586C423.908 373.715 422.102 375.084 420.125 374.732C418.147 374.38 416.791 372.35 417.017 370.221L418.428 358.939C418.593 357.893 419.073 356.962 419.845 356.445C420.579 355.852 421.5 355.635 422.437 355.792Z" fill="url(#paint5_linear_864_608)"/>
<g opacity="0.35">
<path d="M416.133 368.792L417.545 357.511C417.71 356.465 418.19 355.534 418.961 355.017C419.696 354.424 420.617 354.207 421.591 354.439C422.909 354.674 423.951 355.729 424.415 357.004C423.875 356.439 423.239 356.023 422.475 355.867C421.538 355.71 420.617 355.927 419.845 356.444C419.111 357.037 418.526 357.93 418.428 358.939L417.017 370.22C416.942 370.93 417.002 371.566 417.234 372.204C416.44 371.3 416.013 370.1 416.133 368.792Z" fill="#26366F"/>
<path d="M418.611 378.235C423.09 379.13 427.234 375.91 427.834 371.091L429.246 359.81C429.479 357.867 429.127 355.957 428.303 354.306C429.689 356.224 430.407 358.697 430.092 361.163L428.681 372.444C428.08 377.263 423.936 380.483 419.457 379.588C416.782 379.043 414.573 377.193 413.337 374.716C414.685 376.559 416.528 377.845 418.611 378.235Z" fill="#26366F"/>
</g>
<path opacity="0.3" d="M421.231 353.203C419.748 353.154 418.362 353.816 417.342 355.042C416.72 355.859 416.346 356.829 416.248 357.837L415.955 360.004C415.955 360.004 415.88 360.714 415.835 361.312C415.783 361.723 415.483 361.982 415.071 362.016C414.621 361.975 414.224 361.523 414.307 361C414.607 358.161 414.712 357.339 414.712 357.339C414.945 355.397 415.949 353.797 417.351 352.649C418.587 351.686 420.13 351.511 421.127 351.444C421.576 351.485 421.936 351.862 421.921 352.348C421.943 352.909 421.576 353.205 421.231 353.203Z" fill="#575878"/>
<path opacity="0.3" d="M419.989 375.665C421.473 375.715 422.859 375.052 423.878 373.827C424.5 373.009 424.875 372.04 424.972 371.031L425.085 370.396C425.085 370.396 425.16 369.686 425.205 369.088C425.258 368.677 425.557 368.418 425.969 368.384C426.419 368.425 426.816 368.877 426.733 369.399C426.433 372.239 426.471 371.454 426.471 371.454C426.238 373.396 425.234 374.996 423.832 376.144C422.596 377.107 421.053 377.282 420.056 377.349C419.607 377.308 419.247 376.931 419.262 376.445C419.278 375.959 419.645 375.663 419.989 375.665Z" fill="#575878"/>
<path d="M408.286 414.836C412.533 416.814 417.238 414.72 418.85 410.208L422.531 399.692C424.143 395.18 421.972 389.966 417.724 387.988C415.724 387.074 413.484 387.057 411.551 387.827C409.483 388.67 407.932 390.378 407.16 392.616L403.479 403.131C401.867 407.643 404.076 412.933 408.286 414.836ZM416.15 392.574C418.008 393.374 418.928 395.737 418.246 397.639L414.565 408.155C413.92 410.131 411.785 411.012 409.995 410.175C408.137 409.375 407.216 407.012 407.899 405.111L411.58 394.595C411.954 393.626 412.614 392.883 413.46 392.516C414.307 392.149 415.274 392.194 416.15 392.574Z" fill="url(#paint6_linear_864_608)"/>
<g opacity="0.35">
<path d="M407.323 403.61L411.004 393.094C411.379 392.125 412.038 391.382 412.885 391.015C413.731 390.648 414.698 390.693 415.574 391.074C416.803 391.644 417.679 392.885 417.836 394.232C417.431 393.594 416.855 392.953 416.083 392.611C415.207 392.23 414.24 392.185 413.394 392.552C412.48 392.956 411.82 393.699 411.513 394.631L407.832 405.147C407.614 405.743 407.539 406.453 407.704 407.128C407.075 406.038 406.888 404.803 407.323 403.61Z" fill="#26366F"/>
<path d="M407.777 413.298C412.024 415.276 416.729 413.182 418.341 408.67L422.022 398.154C422.675 396.365 422.668 394.458 422.181 392.622C423.162 394.761 423.334 397.342 422.531 399.692L418.85 410.207C417.238 414.719 412.533 416.813 408.286 414.835C405.724 413.656 403.979 411.361 403.253 408.7C404.227 410.652 405.777 412.385 407.777 413.298Z" fill="#26366F"/>
</g>
<path opacity="0.3" d="M415.521 389.765C414.128 389.38 412.554 389.667 411.318 390.629C410.584 391.222 409.999 392.114 409.624 393.084L408.845 395.134C408.845 395.134 408.597 395.843 408.41 396.327C408.252 396.7 407.915 396.884 407.533 396.806C407.114 396.654 406.852 396.128 406.972 395.68C407.901 393.07 408.179 392.25 408.179 392.25C408.831 390.46 410.052 389.123 411.746 388.389C413.132 387.727 414.69 387.926 415.664 388.158C416.151 388.274 416.413 388.8 416.293 389.248C416.24 389.659 415.836 389.88 415.521 389.765Z" fill="#575878"/>
<path opacity="0.3" d="M409.688 411.108C411.081 411.493 412.654 411.206 413.891 410.244C414.625 409.651 415.21 408.758 415.585 407.789L415.802 407.193C415.802 407.193 416.049 406.484 416.237 405.999C416.394 405.627 416.731 405.442 417.113 405.52C417.533 405.673 417.795 406.199 417.675 406.646C416.745 409.257 416.993 408.548 416.993 408.548C416.341 410.338 415.119 411.674 413.426 412.409C412.04 413.071 410.481 412.872 409.508 412.639C409.021 412.523 408.759 411.998 408.879 411.55C408.901 411.251 409.306 411.03 409.688 411.108Z" fill="#575878"/>
<path d="M389.346 444.488C393.211 447.248 398.268 446.204 400.622 442.147L406.1 432.655C408.454 428.598 407.234 423.054 403.369 420.294C401.527 419.008 399.369 418.467 397.249 418.862C395.061 419.293 393.218 420.587 392.094 422.635L386.615 432.127C384.262 436.184 385.549 441.691 389.346 444.488ZM401.053 424.426C402.754 425.599 403.3 428.071 402.266 429.783L396.719 439.311C395.722 441.098 393.467 441.567 391.835 440.357C390.134 439.185 389.588 436.712 390.622 435L396.101 425.509C396.618 424.653 397.42 424.023 398.379 423.881C399.3 423.664 400.237 423.821 401.053 424.426Z" fill="url(#paint7_linear_864_608)"/>
<g opacity="0.35">
<path d="M390.315 433.352L395.794 423.861C396.311 423.005 397.113 422.375 398.072 422.233C398.994 422.016 399.9 422.285 400.784 422.853C401.952 423.648 402.559 425.036 402.476 426.419C402.207 425.706 401.697 425.029 401.023 424.538C400.207 423.933 399.27 423.776 398.311 423.918C397.39 424.135 396.551 424.689 396.034 425.545L390.555 435.037C390.232 435.595 390.053 436.267 390.045 436.94C389.686 435.703 389.701 434.357 390.315 433.352Z" fill="#26366F"/>
<path d="M389.144 442.878C393.009 445.638 398.066 444.594 400.419 440.537L405.898 431.045C406.865 429.37 407.24 427.541 407.031 425.744C407.607 428.104 407.397 430.608 406.137 432.73L400.659 442.221C398.305 446.279 393.248 447.323 389.383 444.563C387.076 442.862 385.699 440.271 385.52 437.502C386.051 439.601 387.264 441.517 389.144 442.878Z" fill="#26366F"/>
</g>
<path opacity="0.3" d="M400.941 421.621C399.571 420.937 398.02 420.925 396.634 421.587C395.72 421.991 395.06 422.733 394.543 423.589L393.411 425.45C393.411 425.45 393.022 426.045 392.767 426.567C392.609 426.939 392.13 427.01 391.778 426.821C391.321 426.593 391.194 425.993 391.419 425.584C392.805 423.202 393.225 422.495 393.225 422.495C394.124 420.856 395.668 419.822 397.443 419.424C398.912 419.099 400.447 419.598 401.429 420.017C401.886 420.245 402.043 420.732 401.855 421.217C401.63 421.626 401.256 421.735 400.941 421.621Z" fill="#575878"/>
<path opacity="0.3" d="M391.385 441.176C392.755 441.86 394.306 441.872 395.692 441.21C396.606 440.806 397.266 440.063 397.783 439.207L398.143 438.724C398.143 438.724 398.532 438.129 398.787 437.607C398.945 437.235 399.424 437.164 399.776 437.354C400.233 437.582 400.36 438.181 400.135 438.59C398.749 440.973 399.101 440.302 399.101 440.302C398.202 441.94 396.658 442.975 394.883 443.372C393.414 443.697 391.879 443.199 390.897 442.78C390.44 442.552 390.283 442.065 390.471 441.58C390.59 441.132 391.033 440.986 391.385 441.176Z" fill="#575878"/>
<path d="M362.558 468.207C365.636 471.971 370.858 472.461 374.177 469.308L381.91 461.928C385.23 458.776 385.419 453.131 382.341 449.368C380.858 447.599 378.918 446.462 376.738 446.22C374.49 446.015 372.348 446.709 370.721 448.266L362.988 455.646C359.669 458.799 359.48 464.443 362.558 468.207ZM378.991 452.632C380.332 454.288 380.256 456.718 378.795 458.09L371.062 465.47C369.6 466.842 367.353 466.637 366.012 464.981C364.672 463.325 364.747 460.895 366.209 459.523L373.942 452.143C374.639 451.476 375.59 451.147 376.594 451.267C377.493 451.349 378.339 451.842 378.991 452.632Z" fill="url(#paint8_linear_864_608)"/>
<g opacity="0.35">
<path d="M366.352 457.916L374.085 450.536C374.782 449.869 375.733 449.54 376.737 449.66C377.636 449.742 378.587 450.273 379.202 450.988C380.108 452.117 380.302 453.539 380.01 454.846C379.942 454.023 379.635 453.235 379.059 452.595C378.407 451.804 377.561 451.312 376.594 451.267C375.591 451.146 374.706 451.439 373.942 452.143L366.209 459.523C365.744 459.968 365.422 460.526 365.242 461.198C365.055 459.963 365.453 458.694 366.352 457.916Z" fill="#26366F"/>
<path d="M362.701 466.6C365.779 470.363 371.001 470.853 374.32 467.701L382.053 460.321C383.38 459.023 384.212 457.422 384.519 455.629C384.511 458.022 383.604 460.333 381.911 461.928L374.177 469.308C370.858 472.46 365.636 471.97 362.558 468.207C360.746 465.949 360.08 463.064 360.56 460.413C360.507 462.544 361.286 464.794 362.701 466.6Z" fill="#26366F"/>
</g>
<path opacity="0.3" d="M379.606 449.907C378.498 448.888 376.962 448.39 375.456 448.64C374.497 448.782 373.621 449.261 372.924 449.929L371.395 451.338C371.395 451.338 370.931 451.783 370.533 452.191C370.234 452.45 369.822 452.484 369.5 452.183C369.14 451.806 369.118 451.245 369.485 450.949C371.411 449.131 371.973 448.538 371.973 448.538C373.299 447.239 375.037 446.767 376.835 446.931C378.356 447.055 379.772 448.001 380.521 448.643C380.91 448.907 380.97 449.544 380.64 449.915C380.303 450.099 379.823 450.17 379.606 449.907Z" fill="#575878"/>
<path opacity="0.3" d="M365.315 465.649C366.424 466.667 367.96 467.165 369.465 466.916C370.424 466.774 371.301 466.294 371.998 465.627L372.433 465.294C372.433 465.294 372.897 464.849 373.294 464.44C373.594 464.181 374.006 464.147 374.328 464.449C374.688 464.825 374.71 465.387 374.343 465.683C372.417 467.5 372.949 467.018 372.949 467.018C371.623 468.316 369.884 468.788 368.087 468.625C366.566 468.5 365.15 467.554 364.401 466.913C364.012 466.648 363.952 466.012 364.282 465.641C364.581 465.381 365.098 465.385 365.315 465.649Z" fill="#575878"/>
<path d="M415.519 254.665C417.085 254.191 417.947 252.478 417.431 250.754L410.866 228.64C410.35 226.916 408.724 225.894 407.159 226.367C406.409 226.586 405.81 227.105 405.495 227.85C405.143 228.52 405.075 229.417 405.315 230.242L411.744 252.429C412.261 254.153 413.953 255.139 415.519 254.665Z" fill="url(#paint9_linear_864_608)"/>
<path opacity="0.3" d="M412.615 245.743C413.499 245.45 413.919 243.883 413.402 242.159L411.172 234.588C410.655 232.864 409.509 231.771 408.588 231.988C408.146 232.134 407.786 232.617 407.674 233.252C407.561 233.887 407.561 234.747 407.8 235.571L410.031 243.142C410.48 244.903 411.626 245.997 412.615 245.743Z" fill="#575878"/>
<path opacity="0.35" d="M413.978 249.679C414.795 249.424 415.424 248.793 415.739 248.048L409.451 226.834C410.088 227.25 410.56 227.852 410.799 228.677L415.889 245.768L417.049 249.816L417.364 250.791C417.88 252.515 417.018 254.228 415.452 254.702C413.887 255.175 412.261 254.153 411.745 252.429L410.27 247.407C410.787 249.131 412.48 250.116 413.978 249.679Z" fill="#26366F"/>
<path d="M422.32 289.644C423.893 289.357 424.897 287.757 424.516 285.96L419.929 263.338C419.585 261.615 418.057 260.444 416.416 260.768C415.63 260.911 414.993 261.355 414.573 262.062C414.221 262.732 414.048 263.591 414.22 264.452L418.807 287.074C419.151 288.796 420.746 289.931 422.32 289.644Z" fill="url(#paint10_linear_864_608)"/>
<path opacity="0.3" d="M420.232 280.466C421.191 280.324 421.678 278.72 421.334 276.997L419.786 269.245C419.441 267.522 418.393 266.28 417.434 266.422C416.954 266.493 416.595 266.976 416.377 267.573C416.16 268.169 416.16 269.029 416.332 269.89L417.881 277.643C418.195 279.478 419.243 280.72 420.232 280.466Z" fill="#575878"/>
<path opacity="0.35" d="M421.258 284.587C422.112 284.407 422.711 283.888 423.131 283.181L418.754 261.496C419.323 261.95 419.765 262.664 419.9 263.45L423.453 280.903L424.306 285.023L424.553 286.034C424.898 287.757 423.931 289.432 422.357 289.719C420.784 290.006 419.189 288.871 418.845 287.148L417.812 281.98C418.156 283.703 419.684 284.874 421.258 284.587Z" fill="#26366F"/>
<path d="M416.96 272.7C417.484 273.751 418.57 274.208 419.38 273.766C420.189 273.324 420.451 272.129 419.927 271.078C419.403 270.027 418.317 269.57 417.508 270.012C416.698 270.454 416.473 271.724 416.96 272.7Z" fill="#575878"/>
<path d="M424.153 327.051C425.771 327.026 427.023 325.578 426.956 323.894L425.906 300.964C425.801 299.206 424.401 297.774 422.85 297.762C422.056 297.718 421.314 298.124 420.819 298.681C420.325 299.238 420.047 300.058 420.047 300.918L421.098 323.848C421.135 325.643 422.498 327 424.153 327.051Z" fill="url(#paint11_linear_864_608)"/>
<path opacity="0.3" d="M423.436 317.697C424.402 317.742 425.137 316.289 425.033 314.531L424.652 306.713C424.548 304.955 423.664 303.527 422.735 303.557C422.219 303.553 421.784 303.886 421.567 304.482C421.244 305.041 421.139 305.863 421.139 306.723L421.519 314.541C421.623 316.299 422.47 317.652 423.436 317.697Z" fill="#575878"/>
<path opacity="0.35" d="M423.877 321.851C424.738 321.858 425.48 321.452 426.004 320.783L424.991 298.788C425.531 299.354 425.837 300.141 425.867 300.889L426.709 318.583L426.91 322.772L426.985 323.782C427.089 325.541 425.838 326.989 424.182 326.939C422.564 326.963 421.164 325.531 421.127 323.736L420.851 318.536C420.925 320.407 422.221 321.8 423.877 321.851Z" fill="#26366F"/>
<path d="M421.994 362.818C423.619 362.981 424.983 361.758 425.051 360.001L426.211 337.2C426.278 335.444 425.08 333.901 423.455 333.739C422.623 333.62 421.911 333.913 421.312 334.432C420.78 334.914 420.397 335.696 420.33 336.593L419.17 359.393C419.17 361.113 420.368 362.656 421.994 362.818Z" fill="url(#paint12_linear_864_608)"/>
<path opacity="0.5" d="M422.243 353.509C423.247 353.629 424.124 352.29 424.192 350.533L424.568 342.684C424.636 340.927 423.955 339.388 422.988 339.343C422.539 339.302 421.999 339.597 421.677 340.156C421.355 340.714 421.108 341.422 421.04 342.319L420.663 350.169C420.595 351.926 421.277 353.464 422.243 353.509Z" fill="#575878"/>
<path opacity="0.35" d="M422.272 357.698C423.104 357.816 423.883 357.486 424.445 356.892L425.574 335.064C426.046 335.666 426.286 336.49 426.248 337.275L425.397 354.843L425.149 358.992L425.118 359.964C425.05 361.721 423.619 362.981 422.061 362.781C420.435 362.619 419.2 361.001 419.305 359.32L419.546 354.124C419.411 355.918 420.647 357.535 422.272 357.698Z" fill="#26366F"/>
<path d="M414.546 398.133C416.149 398.594 417.692 397.56 418.037 395.842L422.358 373.703C422.703 371.985 421.67 370.257 420.067 369.796C419.265 369.565 418.479 369.708 417.842 370.152C417.205 370.596 416.748 371.228 416.575 372.086L412.254 394.226C411.947 396.018 412.98 397.747 414.546 398.133Z" fill="url(#paint13_linear_864_608)"/>
<path opacity="0.3" d="M416.113 389.059C417.087 389.291 418.144 388.14 418.421 386.46L419.944 378.843C420.289 377.126 419.78 375.589 418.769 375.282C418.282 375.166 417.773 375.349 417.345 375.869C416.881 376.314 416.566 377.059 416.393 377.918L414.871 385.534C414.593 387.215 415.14 388.827 416.113 389.059Z" fill="#575878"/>
<path opacity="0.35" d="M415.551 393.093C416.352 393.324 417.206 393.144 417.843 392.7L421.992 371.419C422.329 372.095 422.463 372.881 422.358 373.703L418.975 390.839L418.172 394.909L417.97 395.879C417.625 397.597 416.081 398.631 414.478 398.17C412.875 397.709 411.842 395.98 412.187 394.263L413.192 389.223C412.952 390.979 413.985 392.707 415.551 393.093Z" fill="#26366F"/>
<path opacity="0.8" d="M416.716 378.22C417.24 379.271 418.393 379.691 419.27 379.212C420.147 378.733 420.477 377.501 419.953 376.45C419.428 375.399 418.275 374.979 417.398 375.458C416.559 376.012 416.229 377.243 416.716 378.22Z" fill="#575878"/>
<path d="M398.056 429.599C399.471 430.545 401.247 430.148 402.086 428.734L412.939 409.712C413.741 408.222 413.285 406.274 411.936 405.291C411.262 404.8 410.431 404.681 409.712 404.788C409.03 404.969 408.326 405.45 407.906 406.157L397.053 425.179C396.146 426.63 396.603 428.578 398.056 429.599Z" fill="url(#paint14_linear_864_608)"/>
<path opacity="0.3" d="M402.253 421.668C403.069 422.272 404.418 421.535 405.257 420.121L408.96 413.606C409.762 412.117 409.8 410.472 408.916 409.904C408.527 409.639 407.942 409.672 407.403 409.967C406.863 410.262 406.264 410.781 405.882 411.563L402.179 418.077C401.407 419.455 401.369 421.1 402.253 421.668Z" fill="#575878"/>
<path opacity="0.35" d="M400.432 425.243C401.211 425.772 402.042 425.891 402.792 425.673L413.225 407.358C413.359 408.144 413.254 408.966 412.902 409.636L404.53 424.34L402.566 427.802L402.117 428.621C401.315 430.111 399.502 430.433 398.086 429.487C396.67 428.541 396.281 426.556 397.083 425.067L399.564 420.749C398.627 422.312 399.084 424.26 400.432 425.243Z" fill="#26366F"/>
<path d="M374.436 455.887C375.522 457.205 377.425 457.407 378.549 456.219L393.978 441.384C395.139 440.271 395.23 438.215 394.076 436.935C393.499 436.295 392.795 435.915 392.069 435.835C391.342 435.754 390.525 436.009 389.963 436.603L374.534 451.438C373.44 452.514 373.35 454.57 374.436 455.887Z" fill="url(#paint15_linear_864_608)"/>
<path opacity="0.3" d="M380.595 449.654C381.247 450.444 382.753 450.194 383.914 449.082L389.19 444.001C390.351 442.888 390.771 441.321 390.082 440.455C389.723 440.079 389.198 439.888 388.584 440.032C387.969 440.177 387.258 440.47 386.696 441.064L381.42 446.145C380.326 447.221 379.944 448.863 380.595 449.654Z" fill="#575878"/>
<path opacity="0.35" d="M377.988 452.513C378.602 453.228 379.373 453.571 380.167 453.614L394.929 439.335C394.892 440.12 394.577 440.865 394.045 441.347L382.168 452.808L379.313 455.515L378.616 456.182C377.454 457.295 375.589 457.168 374.503 455.851C373.417 454.533 373.44 452.514 374.602 451.402L378.086 448.064C376.925 449.176 376.834 451.232 377.988 452.513Z" fill="#26366F"/>
<path opacity="0.8" d="M382.387 447.051C382.911 448.102 384.065 448.522 384.941 448.043C385.818 447.564 386.148 446.332 385.624 445.281C385.1 444.23 383.946 443.81 383.07 444.289C382.193 444.768 381.9 446.075 382.387 447.051Z" fill="#575878"/>
<path d="M347.879 479.384C348.935 480.813 350.703 481.089 352.007 480.089L368.417 466.533C369.683 465.459 369.849 463.553 368.86 462.087C368.351 461.41 367.609 460.956 366.883 460.875C366.119 460.719 365.369 460.938 364.77 461.457L348.36 475.013C347.019 475.937 346.823 477.954 347.879 479.384Z" fill="url(#paint16_linear_864_608)"/>
<path opacity="0.45" d="M347.879 479.384C348.935 480.813 350.703 481.089 352.007 480.089L368.417 466.533C369.683 465.459 369.849 463.553 368.86 462.087C368.351 461.41 367.609 460.956 366.883 460.875C366.119 460.719 365.369 460.938 364.77 461.457L348.36 475.013C347.019 475.937 346.823 477.954 347.879 479.384Z" fill="#AEA8B4"/>
<path opacity="0.3" d="M354.369 473.64C354.99 474.542 356.534 474.367 357.732 473.33L363.405 468.7C364.671 467.626 365.196 466.097 364.544 465.307C364.252 464.893 363.728 464.702 363.076 464.772C362.492 464.804 361.78 465.098 361.113 465.653L355.441 470.283C354.309 471.283 353.785 472.812 354.369 473.64Z" fill="#575878"/>
<path opacity="0.35" d="M351.581 476.309C352.128 477.061 352.87 477.516 353.664 477.56L369.407 464.559C369.264 465.306 368.949 466.051 368.38 466.458L355.672 476.94L352.704 479.422L351.97 480.014C350.704 481.089 348.898 480.738 347.842 479.308C346.786 477.879 347.019 475.937 348.286 474.862L351.987 471.788C350.758 472.937 350.525 474.88 351.581 476.309Z" fill="#26366F"/>
<path d="M322.8 344.37C322.382 341.977 320.304 340.232 317.875 340.232H292.226C289.82 340.232 287.755 341.946 287.311 344.31L259.186 494.31C258.609 497.388 260.97 500.232 264.101 500.232H344.125C347.231 500.232 349.586 497.43 349.05 494.37L322.8 344.37Z" fill="url(#paint17_linear_864_608)"/>
<path d="M287.876 369.516L307.076 373.901V433.824L291.076 463.055L284.676 502.516L275.076 486.439L292.676 427.978L287.876 369.516Z" fill="#A39875"/>
<path d="M190.5 46.8047C130.739 65.0849 118.983 75.9698 92.5 130.805L102.5 187L125 213.5L152.5 237L234.864 350.635L386 223.816L289 123L268.5 94.5L247 66L190.5 46.8047Z" fill="url(#paint18_linear_864_608)"/>
<path d="M112.12 96.3438L103.754 110.781L149.478 181.214L185.315 207.022L220.948 250.141L216.669 225.925L157.071 166.467L112.12 96.3438Z" fill="#A4997C"/>
<path d="M272.852 218.66L272.852 218.659L272.853 218.66L272.852 218.66L264.092 233.186L237.055 195.716L207.711 161.298L205.072 134.974L238.247 185.986L272.852 218.66Z" fill="#AC9F7C"/>
<path d="M178.445 51.2807L170.64 54.147L214 84.8387L203.044 70.5637L178.445 51.2807Z" fill="#A49976"/>
<path d="M214.344 102.268L218.665 113.782L231.569 129.718L243.923 136.547L214.344 102.268Z" fill="#ADA281"/>
<path d="M361.625 494.682L353.662 462.251L348.323 457.324L336.614 462.197L330.98 477.74L292.042 481.848L288.547 466.804L278.444 464.959L273.603 469.174L268.501 460.849L268.003 451.707L255.243 455.368L252.606 476.813L257.074 494.201L252.153 499.549L263.567 515.146L287.324 516.807L290.061 510.168L337.394 499.818L342.812 503.612L361.625 494.682Z" fill="url(#paint19_linear_864_608)"/>
<path d="M338.685 464.552L353.558 462.205L348.243 457.318L342.576 456.517L343.076 459.517L336.59 462.148L330.987 477.559L292.232 481.622L288.749 466.704L278.694 464.872L277.489 465.917L286.262 469.917L291.918 486.116L332.034 478.761L338.685 464.552Z" fill="#837B63"/>
<path d="M172.576 274.017C172.576 349.68 231.189 415.232 306.576 415.232C381.963 415.232 443.076 353.895 443.076 278.232C443.076 202.569 381.963 141.232 306.576 141.232C264.576 153.017 248.637 162.517 215.576 198.517C193.076 223.017 181.076 240.017 172.576 274.017Z" fill="url(#paint20_radial_864_608)"/>
<path d="M313.347 253.707C331.054 280.974 369.192 288.009 395.465 270.947C421.739 253.885 417.024 226.107 399.317 198.84C381.61 171.573 344.556 156.258 318.283 173.32C292.01 190.382 295.639 226.44 313.347 253.707Z" fill="#4E3B21"/>
<path d="M288.592 306.354C288.899 305.371 288.212 303.89 286.995 303.184C285.842 302.454 284.578 302.634 284.271 303.616L284.237 303.726C283.493 305.739 282.175 307.193 280.354 307.87C276.319 309.369 271.457 306.157 269.508 300.801C268.982 299.356 268.716 297.815 268.673 296.479C268.724 295.399 267.838 294.184 266.584 293.782C265.329 293.379 264.254 293.875 264.139 294.979C264.139 294.979 264.139 294.979 264.17 295.064C264.132 297.395 264.511 299.859 265.409 302.324C268.472 310.74 276.022 315.655 282.269 313.335C285.392 312.175 287.503 309.653 288.592 306.354Z" fill="url(#paint21_linear_864_608)"/>
<path opacity="0.45" d="M288.592 306.354C288.899 305.371 288.212 303.89 286.995 303.184C285.842 302.454 284.578 302.634 284.271 303.616L284.237 303.726C283.493 305.739 282.175 307.193 280.354 307.87C276.319 309.369 271.457 306.157 269.508 300.801C268.982 299.356 268.716 297.815 268.673 296.479C268.724 295.399 267.838 294.184 266.584 293.782C265.329 293.379 264.254 293.875 264.139 294.979C264.139 294.979 264.139 294.979 264.17 295.064C264.132 297.395 264.511 299.859 265.409 302.324C268.472 310.74 276.022 315.655 282.269 313.335C285.392 312.175 287.503 309.653 288.592 306.354Z" fill="#BEBED0"/>
<path opacity="0.25" d="M284.302 303.701C283.626 305.496 282.504 306.878 280.939 307.652C281.134 307.58 281.329 307.507 281.459 307.459C283.021 306.879 284.899 304.734 285.483 302.684C285.126 302.719 284.411 302.985 284.302 303.701Z" fill="#46395B"/>
<path opacity="0.25" d="M266.385 301.962C265.549 299.667 265.259 297.652 265.068 295.503C265.012 294.945 264.991 294.277 265.032 293.78C264.706 293.901 264.279 294.349 264.204 294.956C264.166 297.286 264.577 299.835 265.474 302.301C268.537 310.716 276.087 315.631 282.334 313.311C282.659 313.19 282.984 313.069 283.214 312.888C277.271 314.42 269.819 311.398 266.385 301.962Z" fill="#46395B"/>
<path opacity="0.3" d="M284.464 309.624C284.179 309.247 283.73 309.028 283.37 309.258C283.011 309.488 282.651 309.718 282.261 309.863C279.689 310.915 276.756 310.364 274.263 308.588C273.879 308.345 273.457 308.405 273.256 308.866C272.989 309.351 273.237 310.031 273.652 310.359C276.625 312.439 280.072 313.185 283.069 311.879C283.524 311.71 283.949 311.456 284.373 311.202C284.798 310.947 284.81 310.171 284.464 309.624Z" fill="#575878"/>
<path d="M285.385 487.84C286.044 488.833 285.834 490.241 284.927 490.999C284.02 491.757 282.663 491.61 282.004 490.618C281.958 490.539 281.958 490.539 281.912 490.46C280.476 488.545 278.557 487.028 276.479 486.46C271.856 485.071 268.097 488.29 268.008 493.576C267.961 494.992 268.242 496.425 268.746 497.832C269.182 498.851 268.716 500.092 267.578 500.455C266.486 500.897 265.168 500.407 264.685 499.309C264.685 499.309 264.685 499.309 264.639 499.23C263.791 496.962 263.296 494.483 263.338 492.108C263.428 483.831 269.354 478.885 276.581 481.06C280.024 482.196 283.047 484.652 285.385 487.84Z" fill="url(#paint22_linear_864_608)"/>
<path opacity="0.25" d="M281.958 490.539C280.66 488.862 278.952 487.432 277.108 486.723C277.318 486.811 277.541 486.784 277.751 486.871C279.561 487.387 282.235 489.518 283.553 491.503C283.062 491.478 282.268 491.207 281.958 490.539Z" fill="#46395B"/>
<path opacity="0.25" d="M264.342 492.467C264.3 494.842 264.694 496.741 265.332 498.921C265.538 499.545 265.697 500.09 265.915 500.599C265.542 500.503 264.983 500.091 264.673 499.423C263.825 497.156 263.33 494.677 263.326 492.223C263.416 483.946 269.342 478.999 276.568 481.174C276.942 481.27 277.257 481.401 277.677 481.576C270.971 480.157 264.428 483.231 264.342 492.467Z" fill="#46395B"/>
<path opacity="0.3" d="M279.969 484.685C279.813 485.099 279.414 485.232 278.994 485.057C278.574 484.882 278.108 484.628 277.688 484.452C274.724 483.456 271.969 484.042 270.012 485.858C269.705 486.149 269.227 486.009 268.878 485.685C268.437 485.202 268.395 484.586 268.761 484.26C271.025 482.153 274.237 481.399 277.785 482.579C278.31 482.798 278.835 483.016 279.36 483.235C279.885 483.454 280.137 484.157 279.969 484.685Z" fill="#575878"/>
<path d="M271.113 337.348L275.208 328.622C276.081 326.816 276.035 324.526 275.042 322.195C274.116 319.927 272.42 317.972 270.335 316.59C265.92 313.689 260.907 314.351 259.182 318.077L255.087 326.803C253.361 330.529 255.543 335.935 259.959 338.835C264.375 341.736 269.387 341.074 271.113 337.348ZM270.571 322.801C270.99 323.846 271.004 324.795 270.658 325.596L266.563 334.322C265.826 335.975 263.614 336.252 261.663 334.995C259.713 333.738 258.765 331.357 259.502 329.704L263.597 320.978C264.334 319.325 266.547 319.048 268.497 320.305C269.439 320.902 270.219 321.817 270.571 322.801Z" fill="url(#paint23_linear_864_608)"/>
<g opacity="0.35">
<path d="M268.008 334.079L272.103 325.353C272.449 324.552 272.48 323.552 272.016 322.557C271.619 321.625 270.838 320.71 269.942 320.062C268.619 319.203 267.268 319.066 266.203 319.571C266.925 319.588 267.802 319.844 268.564 320.368C269.505 320.965 270.219 321.818 270.638 322.863C271.056 323.909 271.07 324.858 270.725 325.659L266.63 334.385C266.399 334.919 265.967 335.265 265.469 335.549C266.574 335.55 267.526 335.033 268.008 334.079Z" fill="#26366F"/>
<path d="M261.337 338.529C256.921 335.629 254.739 330.223 256.465 326.497L260.559 317.771C261.272 316.283 262.522 315.295 263.97 314.773C261.803 314.999 260.012 316.044 259.114 318.015L255.019 326.74C253.293 330.467 255.476 335.872 259.891 338.773C262.536 340.491 265.396 341.004 267.635 340.283C265.739 340.481 263.421 339.911 261.337 338.529Z" fill="#26366F"/>
</g>
<path opacity="0.3" d="M270.826 319.482C272.146 320.619 273.102 322.165 273.403 323.756C273.596 324.779 273.385 325.705 273.039 326.506L272.256 328.211C272.256 328.211 271.98 328.796 271.774 329.165C271.613 329.483 271.812 329.949 272.147 330.262C272.595 330.586 273.091 330.581 273.298 330.212C274.332 328.087 274.587 327.388 274.587 327.388C275.3 325.9 275.226 324.053 274.478 322.138C273.839 320.512 272.543 319.21 271.671 318.397C271.268 318.022 270.727 318.078 270.566 318.396C270.359 318.765 270.445 319.22 270.826 319.482Z" fill="#575878"/>
<path opacity="0.3" d="M261.296 335.683C259.976 334.545 259.021 332.999 258.72 331.408C258.526 330.385 258.738 329.459 259.083 328.658L259.268 328.175C259.268 328.175 259.544 327.59 259.751 327.221C259.912 326.902 259.713 326.436 259.378 326.124C258.93 325.799 258.433 325.805 258.227 326.174C257.192 328.299 257.536 327.776 257.536 327.776C256.823 329.264 256.896 331.111 257.645 333.027C258.284 334.652 259.58 335.954 260.452 336.767C260.854 337.143 261.396 337.086 261.557 336.768C261.763 336.399 261.677 335.944 261.296 335.683Z" fill="#575878"/>
<path opacity="0.45" d="M270.314 316.476C272.399 317.858 274.094 319.813 275.02 322.081C275.837 324.059 276.022 325.917 275.511 327.593C274.027 327.053 272.297 326.375 270.521 325.749L270.591 325.533C270.937 324.732 270.969 323.732 270.504 322.738C270.107 321.806 269.326 320.89 268.43 320.242C266.48 318.985 264.267 319.262 263.53 320.915L262.311 323.522C260.487 323.226 258.618 322.98 256.633 323.002L258.935 317.94C260.84 314.288 265.898 313.575 270.314 316.476Z" fill="#9A9A9A"/>
<path d="M261.506 366.583L264.3 357.112C264.86 355.106 264.588 352.794 263.324 350.491C262.194 348.314 260.295 346.449 258.141 345.283C253.54 342.865 248.815 344.169 247.583 348.169L244.789 357.64C243.624 361.702 246.393 367 250.948 369.469C255.616 371.949 260.341 370.645 261.506 366.583ZM259.186 351.688C259.696 352.632 259.844 353.706 259.565 354.569L256.772 364.04C256.281 365.83 254.179 366.396 252.205 365.304C250.185 364.263 248.966 361.91 249.523 360.183L252.317 350.712C252.807 348.922 254.91 348.355 256.884 349.448C257.871 349.994 258.676 350.744 259.186 351.688Z" fill="url(#paint24_linear_864_608)"/>
<g opacity="0.35">
<path d="M258.127 363.62L260.921 354.15C261.2 353.286 261.006 352.263 260.542 351.269C260.032 350.325 259.206 349.461 258.286 348.977C256.939 348.283 255.563 348.311 254.633 348.941C255.333 348.845 256.143 349.038 256.996 349.459C257.916 349.943 258.788 350.756 259.252 351.751C259.762 352.694 259.91 353.768 259.631 354.632L256.838 364.103C256.674 364.699 256.31 365.108 255.878 365.454C256.894 365.279 257.779 364.7 258.127 363.62Z" fill="#26366F"/>
<path d="M252.304 369.049C247.703 366.632 244.934 361.334 246.144 357.221L248.938 347.75C249.404 346.125 250.452 344.949 251.879 344.314C249.868 344.779 248.254 346.175 247.648 348.232L244.854 357.703C243.689 361.765 246.459 367.063 251.014 369.532C253.774 370.982 256.569 371.154 258.631 370.082C256.732 370.558 254.504 370.164 252.304 369.049Z" fill="#26366F"/>
</g>
<path opacity="0.3" d="M258.992 348.324C260.403 349.359 261.495 350.752 261.976 352.417C262.282 353.451 262.25 354.451 261.972 355.315L261.436 357.156C261.436 357.156 261.273 357.752 261.088 358.235C260.994 358.616 261.238 359.031 261.552 359.23C262 359.554 262.475 359.435 262.614 359.003C263.335 356.679 263.522 355.918 263.522 355.918C263.988 354.293 263.69 352.424 262.783 350.548C261.986 348.962 260.531 347.7 259.635 347.051C259.187 346.727 258.646 346.784 258.552 347.164C258.413 347.596 258.611 348.062 258.992 348.324Z" fill="#575878"/>
<path opacity="0.3" d="M251.859 366.105C250.448 365.069 249.355 363.677 248.875 362.011C248.569 360.977 248.6 359.977 248.879 359.113L248.997 358.568C248.997 358.568 249.16 357.971 249.345 357.489C249.439 357.108 249.195 356.693 248.881 356.494C248.433 356.17 247.958 356.289 247.819 356.721C247.098 359.044 247.262 358.448 247.262 358.448C246.795 360.072 247.094 361.942 248.001 363.818C248.798 365.404 250.252 366.666 251.148 367.314C251.596 367.639 252.138 367.582 252.232 367.201C252.438 366.832 252.24 366.366 251.859 366.105Z" fill="#575878"/>
<path d="M256.888 397.663L258.11 387.475C258.356 385.27 257.701 382.974 256.187 380.814C254.741 378.716 252.726 377.118 250.457 376.219C245.739 374.347 241.435 376.418 240.943 380.827L239.721 391.015C239.162 395.362 242.61 400.45 247.374 402.271C252.026 404.081 256.329 402.009 256.888 397.663ZM252.449 382.664C253.072 383.619 253.378 384.653 253.279 385.591L252.057 395.779C251.814 397.705 249.934 398.573 247.912 397.81C245.822 396.985 244.354 394.774 244.552 392.899L245.774 382.711C246.017 380.785 247.897 379.917 249.92 380.679C250.931 381.061 251.781 381.76 252.449 382.664Z" fill="url(#paint25_linear_864_608)"/>
<g opacity="0.35">
<path d="M253.191 395.058L254.413 384.87C254.512 383.932 254.206 382.898 253.584 381.943C252.915 381.039 252.065 380.34 251.054 379.958C249.683 379.429 248.396 379.633 247.621 380.502C248.299 380.292 249.088 380.372 249.919 380.679C250.931 381.061 251.781 381.76 252.449 382.664C253.072 383.619 253.378 384.653 253.279 385.591L252.057 395.779C252.006 396.387 251.709 396.858 251.344 397.267C252.339 396.978 253.023 396.211 253.191 395.058Z" fill="#26366F"/>
<path d="M248.508 401.55C243.789 399.677 240.363 394.703 240.854 390.294L242.076 380.106C242.296 378.345 243.143 376.982 244.301 376.096C242.467 376.913 241.167 378.509 240.875 380.765L239.653 390.952C239.094 395.299 242.543 400.387 247.306 402.208C250.115 403.329 252.757 402.984 254.55 401.661C252.92 402.388 250.777 402.449 248.508 401.55Z" fill="#26366F"/>
</g>
<path opacity="0.3" d="M251.737 379.192C253.218 380.011 254.468 381.364 255.153 382.939C255.617 383.933 255.698 384.945 255.599 385.882L255.377 387.922C255.377 387.922 255.281 388.581 255.209 389.076C255.161 389.405 255.472 389.883 255.786 390.082C256.279 390.355 256.733 390.122 256.759 389.679C257.053 387.145 257.128 386.372 257.128 386.372C257.347 384.611 256.711 382.707 255.554 380.973C254.553 379.478 253.03 378.431 252.088 377.834C251.595 377.561 251.12 377.68 251.048 378.174C251.112 378.515 251.311 378.981 251.737 379.192Z" fill="#575878"/>
<path opacity="0.3" d="M247.679 398.623C246.198 397.803 244.948 396.45 244.263 394.876C243.799 393.881 243.718 392.87 243.817 391.932L243.822 391.375C243.822 391.375 243.918 390.716 243.991 390.222C244.039 389.892 243.727 389.415 243.414 389.216C242.92 388.943 242.467 389.175 242.44 389.619C242.146 392.153 242.242 391.494 242.242 391.494C242.023 393.255 242.659 395.159 243.816 396.893C244.817 398.388 246.341 399.434 247.282 400.032C247.776 400.305 248.251 400.186 248.323 399.691C248.35 399.248 248.105 398.833 247.679 398.623Z" fill="#575878"/>
<path d="M256.772 429.756L256.577 419.09C256.531 416.8 255.538 414.47 253.887 412.463C252.192 410.507 250.107 409.125 247.835 408.504C243.066 407.24 239.275 409.976 239.413 414.505L239.608 425.171C239.701 429.751 243.693 434.504 248.395 435.706C253.052 436.959 256.843 434.222 256.772 429.756ZM250.528 414.853C251.241 415.706 251.66 416.751 251.741 417.763L251.935 428.429C251.984 430.44 250.327 431.61 248.235 431.063C246.143 430.516 244.426 428.447 244.377 426.435L244.182 415.769C244.133 413.758 245.79 412.588 247.883 413.135C248.805 413.34 249.768 414.051 250.528 414.853Z" fill="url(#paint26_linear_864_608)"/>
<g opacity="0.35">
<path d="M252.935 427.582L252.741 416.916C252.727 415.967 252.308 414.921 251.528 414.006C250.814 413.153 249.872 412.556 248.883 412.288C247.488 411.924 246.289 412.304 245.694 413.247C246.305 412.974 247.072 412.941 247.882 413.134C248.872 413.402 249.814 413.999 250.528 414.852C251.241 415.705 251.66 416.751 251.741 417.762L251.935 428.428C251.952 429.098 251.767 429.581 251.469 430.053C252.33 429.639 252.992 428.758 252.935 427.582Z" fill="#26366F"/>
<path d="M249.282 434.848C244.513 433.584 240.587 428.893 240.495 424.313L240.3 413.647C240.227 411.801 240.827 410.301 241.897 409.239C240.218 410.295 239.254 412.203 239.255 414.545L239.449 425.21C239.542 429.79 243.534 434.543 248.236 435.745C251.093 436.537 253.558 435.839 255.129 434.215C253.654 435.18 251.599 435.418 249.282 434.848Z" fill="#26366F"/>
</g>
<path opacity="0.3" d="M249.365 411.335C250.87 411.989 252.257 413.189 253.167 414.786C253.744 415.792 253.983 416.764 254.018 417.827L254.089 419.952C254.089 419.952 254.105 420.623 254.1 421.18C254.119 421.572 254.409 421.935 254.835 422.146C255.307 422.305 255.76 422.073 255.742 421.681C255.676 418.998 255.638 418.214 255.638 418.214C255.565 416.367 254.771 414.503 253.41 412.86C252.251 411.405 250.658 410.574 249.625 410.079C249.198 409.869 248.678 410.039 248.719 410.545C248.649 410.76 248.893 411.175 249.365 411.335Z" fill="#575878"/>
<path opacity="0.3" d="M248.181 431.95C246.676 431.296 245.289 430.096 244.38 428.499C243.803 427.492 243.563 426.521 243.528 425.458L243.466 424.839C243.466 424.839 243.45 424.168 243.455 423.611C243.436 423.219 243.146 422.855 242.72 422.645C242.248 422.485 241.795 422.718 241.814 423.11C241.879 425.792 241.841 425.008 241.841 425.008C241.914 426.855 242.709 428.719 244.069 430.362C245.228 431.818 246.822 432.648 247.854 433.143C248.281 433.354 248.801 433.184 248.761 432.678C248.898 432.524 248.541 432.098 248.181 431.95Z" fill="#575878"/>
<path d="M265.57 463.423L261.816 452.34C261.049 450.033 259.422 447.861 257.317 446.365C255.211 444.869 252.917 444.135 250.841 444.259C246.419 444.534 244.036 448.585 245.66 453.376L249.414 464.459C251.017 469.136 255.967 472.816 260.502 472.551C264.857 472.213 267.127 468.152 265.57 463.423ZM255.186 449.995C256.082 450.643 256.817 451.61 257.169 452.593L260.922 463.676C261.647 465.756 260.594 467.489 258.631 467.624C256.667 467.759 254.54 466.149 253.815 464.069L250.061 452.986C249.337 450.906 250.39 449.174 252.353 449.039C253.345 449.028 254.29 449.347 255.186 449.995Z" fill="url(#paint27_linear_864_608)"/>
<g opacity="0.35">
<path d="M261.519 462.455L257.766 451.372C257.414 450.389 256.679 449.423 255.783 448.774C254.887 448.126 253.83 447.796 252.95 447.818C251.641 447.908 250.754 448.766 250.518 449.856C250.974 449.345 251.585 449.073 252.352 449.039C253.278 448.966 254.289 449.347 255.185 449.996C256.081 450.644 256.816 451.61 257.168 452.594L260.921 463.677C261.163 464.37 261.225 464.989 261.062 465.586C261.745 464.819 261.981 463.728 261.519 462.455Z" fill="#26366F"/>
<path d="M260.919 471.257C256.496 471.533 251.501 467.904 249.831 463.164L246.077 452.081C245.441 450.177 245.435 448.393 245.923 446.882C244.915 448.563 244.623 450.819 245.48 453.302L249.233 464.385C250.836 469.063 255.786 472.742 260.321 472.478C263.006 472.36 264.915 470.771 265.657 468.561C264.673 470.077 263.04 471.082 260.919 471.257Z" fill="#26366F"/>
</g>
<path opacity="0.3" d="M253.074 446.715C254.538 446.864 256.177 447.643 257.427 448.997C258.254 449.861 258.764 450.804 259.183 451.85L259.929 454.044C259.929 454.044 260.171 454.737 260.391 455.317C260.522 455.721 260.925 456.096 261.308 456.079C261.759 456.125 262.078 455.767 261.925 455.25C260.958 452.476 260.695 451.669 260.695 451.669C260.059 449.765 258.744 448.071 257.019 446.837C255.541 445.739 253.921 445.352 252.84 445.187C252.389 445.141 252.07 445.499 252.156 445.953C252.288 446.357 252.623 446.669 253.074 446.715Z" fill="#575878"/>
<path opacity="0.3" d="M258.915 468.545C257.451 468.397 255.812 467.617 254.562 466.264C253.735 465.4 253.225 464.456 252.807 463.41L252.586 462.831C252.586 462.831 252.345 462.137 252.125 461.558C251.993 461.154 251.545 460.83 251.207 460.796C250.757 460.75 250.437 461.108 250.591 461.625C251.557 464.398 251.248 463.642 251.248 463.642C251.885 465.546 253.2 467.241 254.925 468.475C256.403 469.572 258.023 469.96 259.104 470.125C259.554 470.171 259.873 469.813 259.787 469.358C259.768 468.966 259.366 468.591 258.915 468.545Z" fill="#575878"/>
<g opacity="0.45">
<path d="M266.059 466.593C264.719 467.683 262.775 468.211 260.546 467.817L259.285 467.578C260.867 467.181 261.671 465.59 260.989 463.738L260.815 463.107C262.462 463.051 263.555 461.824 263.324 460.017C263.198 459.057 262.733 458.062 261.974 457.26C261.148 456.396 260.16 455.85 259.192 455.696L258.224 455.542L257.303 452.717C256.973 451.848 256.439 451.069 255.701 450.381L258.74 450.968C259.775 451.184 260.719 451.503 261.752 451.998C261.841 452.174 261.862 452.288 261.951 452.464L265.704 463.547C265.943 464.519 266.091 465.593 266.059 466.593Z" fill="#575878"/>
<path d="M249.28 464.333L248.051 460.752C248.343 460.838 248.59 460.974 248.928 461.008L253.093 461.71L253.861 464.017C254.256 465.228 255.238 466.331 256.338 466.888L249.943 465.794C249.699 465.379 249.5 464.913 249.28 464.333Z" fill="#575878"/>
<path d="M247.574 448.887L251.063 449.52C250.02 450.139 249.624 451.548 250.129 453.048L250.48 454.032L248.139 453.627C247.216 453.422 246.425 453.62 245.857 454.12L245.593 453.313C245.067 451.699 244.991 450.13 245.297 448.823C245.93 448.665 246.718 448.745 247.574 448.887Z" fill="#575878"/>
</g>
<path d="M265.423 325.956C263.832 324.847 263.083 322.932 263.772 321.608L272.544 304.606C273.232 303.283 275.016 303.073 276.607 304.182C277.369 304.706 277.948 305.433 278.211 306.24C278.52 306.996 278.512 307.832 278.191 308.468L269.486 325.532C268.797 326.856 266.946 327.002 265.423 325.956Z" fill="url(#paint28_linear_864_608)"/>
<path opacity="0.45" d="M265.423 325.956C263.832 324.847 263.083 322.932 263.772 321.608L272.544 304.606C273.232 303.283 275.016 303.073 276.607 304.182C277.369 304.706 277.948 305.433 278.211 306.24C278.52 306.996 278.512 307.832 278.191 308.468L269.486 325.532C268.797 326.856 266.946 327.002 265.423 325.956Z" fill="#9A9A9A"/>
<path opacity="0.3" d="M269.161 319.144C268.265 318.496 267.964 316.905 268.653 315.581L271.638 309.753C272.327 308.429 273.617 307.947 274.559 308.544C275.007 308.868 275.339 309.46 275.401 310.079C275.463 310.698 275.388 311.471 275.067 312.107L272.081 317.936C271.459 319.322 270.17 319.804 269.161 319.144Z" fill="#575878"/>
<path opacity="0.35" d="M267.398 322.087C266.569 321.501 265.968 320.66 265.705 319.853L274.109 303.539C273.41 303.635 272.865 303.97 272.544 304.606L265.747 317.739L264.184 320.869L263.772 321.608C263.083 322.931 263.832 324.847 265.423 325.956C267.014 327.065 268.797 326.856 269.486 325.532L271.461 321.664C270.772 322.987 268.922 323.134 267.398 322.087Z" fill="#26366F"/>
<path d="M255.282 354.413C253.667 353.469 252.76 351.593 253.314 350.144L260.069 331.823C260.578 330.425 262.273 330.04 263.955 331.047C264.762 331.519 265.388 332.196 265.763 333.014C266.139 333.833 266.177 334.617 265.922 335.315L259.168 353.637C258.592 354.972 256.897 355.357 255.282 354.413Z" fill="url(#paint29_linear_864_608)"/>
<path opacity="0.3" d="M258.258 347.079C257.271 346.533 256.903 344.879 257.412 343.481L259.703 337.193C260.212 335.795 261.413 335.137 262.401 335.683C262.894 335.956 263.227 336.547 263.401 337.178C263.576 337.809 263.501 338.581 263.247 339.28L260.956 345.569C260.401 347.018 259.2 347.676 258.258 347.079Z" fill="#575878"/>
<path opacity="0.35" d="M256.763 350.272C255.889 349.737 255.242 348.947 254.933 348.191L261.388 330.62C260.755 330.778 260.232 331.227 260.023 331.875L254.796 346.003L253.547 349.333L253.201 350.134C252.692 351.531 253.554 353.458 255.169 354.402C256.784 355.347 258.546 355.024 259.055 353.626L260.582 349.434C260.073 350.831 258.378 351.216 256.763 350.272Z" fill="#26366F"/>
<path d="M249.186 386.736C247.502 386.008 246.324 384.16 246.653 382.689L250.288 362.769C250.55 361.235 252.135 360.56 253.774 361.339C254.627 361.76 255.343 362.334 255.765 363.102C256.232 363.818 256.449 364.676 256.262 365.437L252.627 385.358C252.41 386.841 250.871 387.465 249.186 386.736Z" fill="url(#paint30_linear_864_608)"/>
<path opacity="0.8" d="M250.817 378.708C249.784 378.213 249.212 376.65 249.475 375.116L250.505 368.588C250.767 367.054 252.634 367.578 252.634 367.578C253.42 367.936 254.469 369.102 254.394 369.875L253.203 376.721C252.895 378.306 251.895 379.152 250.817 378.708Z" fill="#575878"/>
<path opacity="0.35" d="M249.995 382.247C249.097 381.877 248.404 381.138 247.916 380.308L251.363 361.149C250.752 361.422 250.342 361.882 250.267 362.655L247.486 378.035L246.844 381.649L246.678 382.524C246.415 384.058 247.526 385.843 249.211 386.571C250.895 387.299 252.435 386.675 252.697 385.141L253.505 380.653C253.265 382.3 251.68 382.976 249.995 382.247Z" fill="#26366F"/>
<path opacity="0.8" d="M250.847 368.065C250.209 368.78 250.446 370.03 251.318 370.844C252.189 371.657 253.429 371.782 254.067 371.067C254.705 370.351 254.468 369.101 253.596 368.288C252.724 367.475 251.485 367.349 250.847 368.065Z" fill="#575878"/>
<path d="M247.508 419.619C245.799 419.055 244.53 417.31 244.612 415.702L245.865 394.871C245.948 393.263 247.398 392.463 249.107 393.027C249.938 393.334 250.7 393.857 251.234 394.636C251.747 395.301 252.077 396.171 252.002 396.943L250.749 417.774C250.6 419.32 249.216 420.183 247.508 419.619Z" fill="url(#paint31_linear_864_608)"/>
<path opacity="0.3" d="M248.24 411.221C247.183 410.891 246.498 409.316 246.581 407.708L247.053 400.566C247.136 398.958 248.047 397.936 249.058 398.317C249.53 398.476 250.067 398.977 250.354 399.619C250.641 400.261 250.792 401.057 250.784 401.892L250.312 409.035C250.208 410.529 249.297 411.551 248.24 411.221Z" fill="#575878"/>
<path opacity="0.35" d="M247.777 414.908C246.833 414.589 246.116 414.015 245.582 413.236L246.782 393.292C246.238 393.627 245.849 394.2 245.887 394.985L244.903 411.105L244.687 414.929L244.634 415.815C244.551 417.423 245.821 419.169 247.529 419.732C249.238 420.296 250.689 419.495 250.771 417.887L251.04 413.177C250.915 414.558 249.485 415.472 247.777 414.908Z" fill="#26366F"/>
<path d="M253.949 454.831C252.259 454.66 250.649 453.159 250.327 451.454L245.998 429.443C245.675 427.739 246.769 426.512 248.459 426.683C249.247 426.763 250.1 427.184 250.771 427.81C251.442 428.435 251.863 429.203 252.081 430.061L256.41 452.071C256.732 453.776 255.638 455.003 253.949 454.831Z" fill="url(#paint32_linear_864_608)"/>
<path opacity="0.3" d="M252.475 445.876C251.461 445.773 250.415 444.329 250.046 442.675L248.561 435.111C248.238 433.406 248.769 432.122 249.782 432.225C250.279 432.22 250.861 432.669 251.239 433.209C251.685 433.812 251.993 434.568 252.211 435.426L253.697 442.99C254.019 444.695 253.489 445.979 252.475 445.876Z" fill="#575878"/>
<path opacity="0.35" d="M253.003 449.83C252.102 449.739 251.249 449.318 250.624 448.641L246.512 427.489C246.102 427.949 245.96 428.659 246.111 429.455L249.448 446.515L250.267 450.556L250.507 451.528C250.829 453.233 252.439 454.734 254.129 454.905C255.818 455.077 256.912 453.85 256.59 452.145L255.644 447.144C255.719 448.713 254.693 450.002 253.003 449.83Z" fill="#26366F"/>
<path d="M271.008 489.839C269.539 490.247 267.631 489.217 266.767 487.569L255.578 466.088C254.714 464.44 255.225 462.764 256.695 462.356C257.441 462.209 258.229 462.289 259.037 462.761C259.777 463.17 260.515 463.858 260.891 464.677L272.08 486.157C272.99 487.755 272.478 489.431 271.008 489.839Z" fill="url(#paint33_linear_864_608)"/>
<path opacity="0.3" d="M266.625 480.977C265.789 481.226 264.356 480.077 263.492 478.429L259.659 471.017C258.795 469.368 258.832 467.811 259.736 467.624C260.21 467.505 260.75 467.727 261.332 468.177C261.914 468.626 262.493 469.354 262.869 470.172L266.702 477.584C267.566 479.233 267.575 480.738 266.625 480.977Z" fill="#575878"/>
<path opacity="0.35" d="M268.483 484.955C267.692 485.154 266.837 485.011 266.029 484.539L255.328 463.888C255.165 464.485 255.27 465.332 255.691 466.099L264.355 482.697L266.371 486.636L266.881 487.579C267.745 489.228 269.652 490.258 271.122 489.849C272.591 489.441 273.103 487.765 272.239 486.117L269.713 481.234C270.465 482.871 269.953 484.547 268.483 484.955Z" fill="#26366F"/>
<path d="M271.576 276.516L348.076 313.016L347.576 309.516L380.076 312.016L413.076 304.016L422.576 286.016L424.576 268.516L439.076 247.016L434.076 307.016L406.576 315.016L410.576 319.016L372.576 330.016L326.076 318.016L342.576 330.016L308.576 315.016L259.076 290.016L239.076 243.016L255.576 177.516L283.076 150.516L331.076 143.516L283.076 159.016L271.576 181.016L269.076 175.516L255.576 222.516L262.576 254.516L263.576 228.516L271.576 276.516Z" fill="url(#paint34_linear_864_608)"/>
<path d="M283.222 494.822L280.544 485.59L276.214 484.156L268.184 488.117L269.444 501.774L278.341 501.265L283.222 494.822Z" fill="url(#paint35_linear_864_608)"/>
<path d="M352.852 484.633L352.5 474.271L348.293 472.828L340.472 476.876L342.056 485.027L350.309 490.198L352.852 484.633Z" fill="url(#paint36_linear_864_608)"/>
<path d="M391.509 258.915C391.631 260.002 391.026 265.879 389.707 266.966C388.487 266.68 388.039 267.084 387.413 266.951C386.873 266.836 386.32 266.748 385.788 266.605C384.34 266.217 382.979 265.378 381.552 264.905C380.611 264.593 379.851 263.067 379.08 262.425C378.494 261.937 378.29 261.189 377.738 260.697C377.266 260.275 375.446 257.051 375.2 256.474C373.734 253.043 372.709 251.899 372.162 248.163C371.675 244.832 369.695 241.605 370.255 238.119C370.395 237.251 370.231 236.355 370.419 235.466L370.948 232.98C371.279 231.422 371.537 229.824 371.946 228.284C372.332 226.829 373.063 225.453 373.786 224.122C374.631 222.565 375.038 220.657 376.04 219.16C376.673 218.213 377.054 216.724 377.513 215.676C378.108 214.316 378.576 212.793 379.09 211.391C379.932 209.095 380.736 206.683 381.76 204.474C382.625 202.607 383.293 200.409 383.886 198.441C384.547 196.246 387.178 191.044 387.909 188.935C387.695 190.159 388.126 197.266 388.116 198.496C388.095 201.282 388.208 203.858 388.743 206.625C389.055 208.242 389.034 209.897 389.301 211.518C389.516 212.819 389.653 214.279 389.678 215.596C389.739 218.789 389.869 222.013 389.197 225.177C387.581 232.779 386.199 241.372 388.706 248.903C389.292 250.664 389.774 252.553 390.281 254.346C390.714 255.877 391.329 257.325 391.509 258.915Z" fill="#C34FBC"/>
<path d="M361.705 277.275C361.677 277.278 361.65 277.28 361.623 277.282C361.635 277.3 361.663 277.297 361.705 277.275C363.021 277.149 365.172 276.424 366.239 275.731C366.793 275.371 367.633 275.128 368.295 274.991C369.712 274.7 371.076 274.529 372.485 274.083C374.657 273.397 376.801 272.815 378.872 271.832C380.097 271.25 381.245 270.598 382.549 270.204C383.629 269.877 384.717 269.844 385.776 269.39C387.231 268.766 388.994 268.385 389.706 266.966C388.487 266.681 388.176 266.915 387.55 266.782C387.011 266.668 386.408 266.767 385.875 266.624C384.427 266.236 383.067 265.398 381.639 264.924C380.699 264.613 379.938 263.086 379.168 262.445C378.581 261.957 378.377 261.209 377.825 260.716C377.353 260.294 375.533 257.07 375.287 256.493C374.551 257.634 373.07 259.628 372.519 260.865C371.558 263.021 370.089 264.903 368.986 266.987C367.744 269.335 366.593 271.778 364.877 273.831C364.608 274.153 362.2 277.014 361.705 277.275Z" fill="#832FA0"/>
<path d="M353.27 271.775C352.552 270.911 351.439 269.999 351.019 268.942C351.375 267.873 352 266.049 352.119 265.489C352.332 264.489 353.053 263.665 353.312 262.7C353.459 262.152 353.858 261.564 354.156 261.081C354.462 260.583 354.474 259.975 354.757 259.454C355.205 258.628 355.502 257.444 355.81 256.535C356.46 254.618 356.708 252.566 357.472 250.703C358.073 249.237 358.109 247.652 358.419 246.196C358.827 244.273 358.633 242.367 359.033 240.486C359.456 238.495 359.683 236.486 360.111 234.474C360.617 232.092 360.92 229.728 361.424 227.358C361.68 226.151 362.409 225.027 362.783 223.838C362.995 223.16 363.933 221.891 364.044 221.178C364.986 221.881 366.804 223.698 367.722 224.476C368.481 225.121 369.047 225.986 369.736 226.703C369.926 226.902 372.618 228.311 372.208 228.34C371.799 229.879 371.541 231.478 371.21 233.036L370.681 235.522C370.493 236.41 370.657 237.307 370.517 238.174C369.957 241.661 371.937 244.887 372.424 248.218C372.971 251.955 373.996 253.098 375.462 256.53C374.725 257.67 373.245 259.664 372.694 260.901C371.733 263.058 370.263 264.939 369.16 267.024C367.918 269.371 366.768 271.815 365.052 273.868C364.76 274.217 361.95 277.554 361.797 277.319C360.733 277.402 357.9 277.718 357.183 276.404C356.858 275.808 356.058 275.122 355.593 274.589C354.789 273.67 354.056 272.721 353.27 271.775Z" fill="#9440A2"/>
<path d="M359.982 223.197C360.285 221.769 360.313 220.659 360.648 219.084C361.189 217.827 363.97 220.65 364.366 220.945C364.255 221.658 363.317 222.928 363.104 223.605C362.731 224.795 362.002 225.919 361.746 227.125C361.242 229.496 360.939 231.86 360.433 234.242C360.005 236.254 359.778 238.262 359.355 240.253C358.955 242.135 359.149 244.041 358.741 245.964C358.431 247.42 358.395 249.005 357.794 250.471C357.03 252.333 356.782 254.385 356.132 256.303C355.824 257.212 355.527 258.396 355.079 259.222C354.796 259.742 354.784 260.351 354.478 260.848C354.179 261.332 353.781 261.92 353.634 262.468C353.375 263.433 352.654 264.256 352.441 265.257C352.322 265.817 351.453 268.115 351.096 269.185C350.239 267.031 349.811 264.353 349.005 262.195C348.603 261.118 348.536 259.879 348.177 258.776C347.854 257.782 347.518 256.611 347.347 255.579C347.051 253.804 346.484 251.907 346.863 250.124C347.336 247.897 348.592 245.944 349.541 243.897C350.442 241.955 351.289 239.989 352.261 238.102C353.061 236.548 353.531 234.841 354.394 233.291C355.43 231.43 356.467 229.593 357.566 227.769C358.48 226.254 359.601 224.988 359.982 223.197Z" fill="#8A3B96"/>
<path d="M381.822 193.405C382.813 192.852 387.029 189.705 387.91 188.936C387.178 191.044 384.81 196.302 384.149 198.497C383.556 200.465 382.888 202.663 382.023 204.53C380.999 206.739 380.195 209.151 379.353 211.447C378.839 212.849 378.371 214.372 377.776 215.732C377.317 216.78 376.936 218.269 376.303 219.216C375.301 220.713 374.894 222.621 374.049 224.178C373.326 225.509 372.595 226.885 372.209 228.34C370.693 228.627 369.927 226.902 369.736 226.704C369.048 225.986 368.482 225.121 367.722 224.477C366.804 223.698 364.986 221.882 364.045 221.178C363.649 220.882 360.862 219.884 360.593 219.347C361.173 218.278 361.272 216.59 362.129 215.681C362.99 214.769 363.825 213.905 364.602 212.931C365.952 211.237 367.342 209.62 368.488 207.761C369.545 206.046 370.991 204.946 372.295 203.484C373.648 201.969 375.03 200.436 376.466 198.963C377.677 197.721 378.657 196.23 379.982 195.113C380.656 194.545 381.032 193.846 381.822 193.405Z" fill="#C667BC"/>
<path d="M348.36 244.073C346.689 245.892 341.148 251.458 339.419 253.218L339.461 252.006L342.698 247.119C342.698 247.119 343.388 244.641 343.802 243.039C344.358 240.89 344.573 238.647 345.064 236.473C345.603 234.089 344.935 231.742 344.766 229.37C344.631 227.478 344.478 225.559 344.287 223.681C344.141 222.249 344.313 220.621 343.923 219.245C343.552 217.936 343.707 212.251 343.45 210.874C344.191 212.083 346.406 216.863 347.414 217.865C350.048 220.482 352.518 220.862 354.581 223.898C355.343 225.019 356.806 225.476 357.104 226.765C356.112 230.972 355.354 235.736 352.408 239.163C351.662 240.031 351.183 241.057 350.403 241.905C349.731 242.637 349.031 243.343 348.36 244.073Z" fill="#5A2373"/>
<path d="M332.045 245.412C331.123 242.045 330.965 238.515 330.124 235.113C329.797 235.174 330.705 228.052 330.949 227.204C331.111 226.638 331.099 226.009 331.501 225.423C332.653 223.741 333.659 221.922 334.738 220.191C335.307 219.279 335.881 218.365 336.427 217.448C337.004 216.483 337.986 215.771 338.602 214.823C339.229 213.857 340.36 212.692 341.328 212.084C342.342 211.447 342.994 211.12 344.026 210.466C344.283 211.843 343.888 217.709 344.259 219.017C344.649 220.394 344.477 222.022 344.623 223.454C344.813 225.332 344.967 227.251 345.101 229.143C345.27 231.515 345.938 233.862 345.4 236.246C344.909 238.42 344.693 240.662 344.138 242.812C343.724 244.414 342.803 247.822 342.803 247.822L342.797 247.831C342.11 248.951 339.779 251.963 339.419 253.218C338.412 254.102 336.656 255.058 336.17 256.365C336.008 256.801 334.233 259.315 334.038 259.003C333.606 258.312 333.961 257.297 333.837 256.554C333.696 255.705 333.599 254.853 333.44 254.003C332.905 251.132 332.82 248.239 332.045 245.412Z" fill="#772D81"/>
<path d="M360.183 214.263C359.264 218.475 358.089 222.59 357.104 226.765C356.805 225.476 355.242 225.297 354.48 224.176C352.417 221.14 350.268 221.046 347.634 218.429C346.626 217.427 345.629 215.917 344.888 214.708C344.095 213.413 343.866 212.282 343.611 210.821C343.342 209.283 343.57 207.703 343.68 206.171C343.813 204.322 344.812 202.518 344.995 200.681C345.204 198.582 346.011 196.617 346.351 194.537C346.651 192.698 346.839 190.749 347.35 188.968C348.335 185.533 348.753 181.95 349.749 178.475C351.756 171.475 355.385 163.113 357.383 156.145C357.766 159.961 357.829 163.935 358.583 167.748C359.422 171.994 359.17 176.289 359.86 180.526C360.383 183.731 359.762 187.317 359.759 190.56C359.756 193.655 360.079 196.73 360.173 199.818C360.25 202.349 360.472 204.915 360.353 207.452C360.248 209.697 360.669 212.033 360.183 214.263Z" fill="#903A8B"/>
<path d="M357.39 156.147C357.199 156.516 356.093 157.946 355.911 158.205C355.424 158.898 354.936 159.555 354.503 160.283C353.346 162.228 351.041 163.524 349.954 165.523C347.452 170.126 345.2 174.793 342.907 179.478C340.772 183.839 339.318 188.571 337.218 192.943C336.063 195.346 335.521 197.993 334.362 200.383C333.24 202.698 333.264 205.534 332.133 207.844C331.092 209.971 330.475 212.366 329.82 214.65C329.581 215.483 329.154 216.265 328.909 217.119C328.604 218.181 328.614 219.196 328.563 220.292C328.329 225.309 328.901 229.96 330.086 234.876C330.095 235.131 330.125 235.277 330.182 235.267C330.15 235.136 330.118 235.006 330.086 234.876C330.043 233.661 330.471 229.988 330.672 229.286C330.835 228.72 330.941 226.439 331.343 225.853C332.496 224.171 333.502 222.352 334.581 220.621C335.15 219.709 335.723 218.794 336.27 217.878C336.846 216.912 337.829 216.201 338.444 215.252C339.071 214.287 340.202 213.122 341.17 212.514C342.184 211.877 342.585 211.478 343.618 210.824C343.349 209.285 343.578 207.706 343.688 206.173C343.821 204.324 344.819 202.52 345.002 200.683C345.212 198.585 346.018 196.619 346.358 194.539C346.659 192.701 346.846 190.751 347.357 188.97C348.342 185.535 348.76 181.953 349.757 178.477C351.764 171.477 355.392 163.116 357.39 156.147Z" fill="#A5569D"/>
<path d="M340.986 267.414C342.018 268.423 344.828 270.401 346.051 271.176C346.445 271.373 347.966 265.488 348.377 264.83C348.764 264.211 348.694 263.263 348.883 262.577C349.078 261.87 349.379 261.014 349.4 260.282C349.422 259.525 349.392 258.272 349.627 257.594C349.852 256.948 349.56 256.151 349.814 255.548C350.303 254.385 349.958 252.607 349.958 251.351C349.958 249.244 349.347 247.664 348.935 245.687C347.202 243.521 335.424 231.845 333.555 229.756C332.279 229.756 331.028 229.495 329.788 229.495C328.373 229.495 326.571 229.16 325.323 228.447C324.905 228.75 324.315 229.561 323.898 230.092C323.222 230.952 323.052 230.898 322.414 231.793C320.182 234.917 314.837 236.838 315.172 241.536C316.656 243.695 318.873 245.673 320.707 247.506C322.492 249.292 324.346 250.959 326.143 252.757C329.113 255.727 331.935 258.734 334.888 261.688C335.998 262.798 337.313 263.713 338.299 264.954C339.092 265.952 340.087 266.534 340.986 267.414Z" fill="#7838AA"/>
<path d="M342.139 220.065C340.806 217.843 338.531 215.023 336.652 213.68C336.517 214.016 334.98 217.323 334.638 217.708L333.631 230.125C335.5 232.214 347.336 244.069 349.069 246.235C348.74 244.655 348.527 243.22 348.154 241.637C347.939 240.721 347.675 239.819 347.493 238.887C347.262 237.71 347.308 236.348 346.935 235.228C346.56 234.106 346.759 232.588 346.614 231.404C346.476 230.268 346.462 229.065 346.056 227.983C345.022 225.225 343.658 222.597 342.139 220.065Z" fill="#C34FBC"/>
<path d="M330.213 230.006C331.453 230.006 332.355 230.126 333.631 230.126L334.638 217.731C333.721 217.85 332.608 217.571 332.315 217.491C331.468 217.263 330.526 216.967 329.638 217.051C329.095 217.103 326.583 217.037 325.545 217.497C325.576 218.379 325.865 219.045 325.865 219.795C325.865 222.951 325.748 225.813 325.748 228.959C326.996 229.672 328.798 230.006 330.213 230.006Z" fill="#9440A2"/>
<path d="M313.481 239.607C314.215 240.376 314.568 240.657 315.172 241.536C317.891 238.817 320.605 235.308 322.837 232.183C323.476 231.289 323.646 231.343 324.322 230.483C324.739 229.952 325.495 229.421 325.912 229.118C325.912 225.973 325.863 222.83 325.863 219.674C325.863 218.925 326.097 217.93 325.543 217.376C324.634 216.467 323.798 215.301 323.129 214.205C322.224 212.724 321.241 211.443 320.496 209.871C319.766 208.329 319.097 206.998 318.125 205.594C317.061 204.057 315.032 200.77 315.032 198.913C314.273 202.137 312.595 205.73 310.38 208.205C309.728 208.935 309.704 210.572 309.543 211.472C309.318 212.735 309.078 214.021 309.078 215.306C309.078 217.039 309.046 218.794 309.274 220.506C309.768 224.205 309.877 228.02 310.711 231.669C311.187 233.75 310.963 235.812 311.879 237.798C312.171 238.43 312.993 239.096 313.481 239.607Z" fill="#8A3B96"/>
<path d="M316.524 193.925C316.148 195.73 315.361 197.45 314.942 199.227C314.942 201.084 316.971 204.371 318.036 205.908C319.007 207.312 319.676 208.643 320.406 210.185C321.151 211.757 322.134 213.038 323.039 214.519C323.709 215.615 324.545 216.781 325.454 217.69C325.454 218.21 329.004 217.296 329.547 217.245C330.435 217.16 331.377 217.456 332.224 217.685C332.517 217.764 333.63 218.043 334.547 217.924C334.889 217.54 336.705 213.708 336.65 213.68C334.474 211.797 332.735 209.348 330.467 207.548C328.768 206.199 327.471 204.154 326.281 202.369C325.058 200.535 323.668 198.83 322.467 196.974C321.366 195.272 320.498 193.397 319.594 191.589C319.424 191.25 318.554 188.953 318.147 189.645C317.466 190.802 316.796 192.62 316.524 193.925Z" fill="#C667BC"/>
<path d="M395.076 271.016C368.803 288.078 331.168 281.841 313.46 254.574C304.599 240.929 299.263 225.082 299.436 210.516C301.219 191.82 304.721 185.72 313.076 178.516C310.338 190.023 310.633 229.724 318.396 240.467C356.691 287.232 421.35 253.954 395.076 271.016Z" fill="#4E3B21"/>
<path d="M323 375.804L364 380.304L395 374.804L388 380.304L359 387.304L323 375.804Z" fill="url(#paint37_linear_864_608)"/>
<path d="M217.337 341.869L206.151 302.169L189.438 275.487L197.16 279.917L214.514 304.183L217.337 341.869Z" fill="url(#paint38_linear_864_608)"/>
<defs>
<radialGradient id="paint0_radial_864_608" cx="0" cy="0" r="1" gradientUnits="userSpaceOnUse" gradientTransform="translate(96.5634 46.7727) rotate(67.0387) scale(78.4424 147.721)">
<stop stop-color="#A08464"/>
<stop offset="1" stop-color="#645143"/>
</radialGradient>
<linearGradient id="paint1_linear_864_608" x1="340.944" y1="488.436" x2="353.022" y2="470.381" gradientUnits="userSpaceOnUse">
<stop stop-color="#493A48"/>
<stop offset="1" stop-color="#706D75"/>
</linearGradient>
<linearGradient id="paint2_linear_864_608" x1="419.414" y1="270.874" x2="411.866" y2="242.391" gradientUnits="userSpaceOnUse">
<stop stop-color="#706D75"/>
<stop offset="1" stop-color="#B8B2BF"/>
</linearGradient>
<linearGradient id="paint3_linear_864_608" x1="424.407" y1="307.794" x2="421.325" y2="278.565" gradientUnits="userSpaceOnUse">
<stop stop-color="#706D75"/>
<stop offset="1" stop-color="#B8B2BF"/>
</linearGradient>
<linearGradient id="paint4_linear_864_608" x1="433.515" y1="324.646" x2="414.302" y2="334.226" gradientUnits="userSpaceOnUse">
<stop stop-color="#706D75"/>
<stop offset="1" stop-color="#B8B2BF"/>
</linearGradient>
<linearGradient id="paint5_linear_864_608" x1="419.51" y1="379.66" x2="425.058" y2="351.262" gradientUnits="userSpaceOnUse">
<stop stop-color="#706D75"/>
<stop offset="1" stop-color="#B8B2BF"/>
</linearGradient>
<linearGradient id="paint6_linear_864_608" x1="408.357" y1="414.861" x2="420.095" y2="389.031" gradientUnits="userSpaceOnUse">
<stop stop-color="#706D75"/>
<stop offset="1" stop-color="#B8B2BF"/>
</linearGradient>
<linearGradient id="paint7_linear_864_608" x1="389.421" y1="444.509" x2="405.564" y2="421.801" gradientUnits="userSpaceOnUse">
<stop stop-color="#706D75"/>
<stop offset="1" stop-color="#B8B2BF"/>
</linearGradient>
<linearGradient id="paint8_linear_864_608" x1="362.602" y1="468.233" x2="383.63" y2="450.937" gradientUnits="userSpaceOnUse">
<stop stop-color="#706D75"/>
<stop offset="1" stop-color="#B8B2BF"/>
</linearGradient>
<linearGradient id="paint9_linear_864_608" x1="415.481" y1="254.667" x2="407.033" y2="226.437" gradientUnits="userSpaceOnUse">
<stop stop-color="#706D75"/>
<stop offset="1" stop-color="#B8B2BF"/>
</linearGradient>
<linearGradient id="paint10_linear_864_608" x1="422.305" y1="289.673" x2="416.955" y2="260.72" gradientUnits="userSpaceOnUse">
<stop stop-color="#706D75"/>
<stop offset="1" stop-color="#B8B2BF"/>
</linearGradient>
<linearGradient id="paint11_linear_864_608" x1="424.122" y1="327.023" x2="424.095" y2="297.748" gradientUnits="userSpaceOnUse">
<stop stop-color="#706D75"/>
<stop offset="1" stop-color="#B8B2BF"/>
</linearGradient>
<linearGradient id="paint12_linear_864_608" x1="422.013" y1="362.846" x2="425.338" y2="333.947" gradientUnits="userSpaceOnUse">
<stop stop-color="#706D75"/>
<stop offset="1" stop-color="#B8B2BF"/>
</linearGradient>
<linearGradient id="paint13_linear_864_608" x1="414.553" y1="398.164" x2="422.351" y2="370.49" gradientUnits="userSpaceOnUse">
<stop stop-color="#706D75"/>
<stop offset="1" stop-color="#B8B2BF"/>
</linearGradient>
<linearGradient id="paint14_linear_864_608" x1="398.015" y1="429.58" x2="414.031" y2="406.763" gradientUnits="userSpaceOnUse">
<stop stop-color="#706D75"/>
<stop offset="1" stop-color="#B8B2BF"/>
</linearGradient>
<linearGradient id="paint15_linear_864_608" x1="374.469" y1="455.887" x2="395.431" y2="438.498" gradientUnits="userSpaceOnUse">
<stop stop-color="#706D75"/>
<stop offset="1" stop-color="#B8B2BF"/>
</linearGradient>
<linearGradient id="paint16_linear_864_608" x1="347.84" y1="479.384" x2="369.824" y2="463.526" gradientUnits="userSpaceOnUse">
<stop stop-color="#706D75"/>
<stop offset="1" stop-color="#B8B2BF"/>
</linearGradient>
<linearGradient id="paint17_linear_864_608" x1="305.076" y1="340.232" x2="305.076" y2="500.232" gradientUnits="userSpaceOnUse">
<stop offset="0.275" stop-color="#C1B58F"/>
<stop offset="1" stop-color="#A59870"/>
</linearGradient>
<linearGradient id="paint18_linear_864_608" x1="260.499" y1="80.5151" x2="137.858" y2="204.376" gradientUnits="userSpaceOnUse">
<stop stop-color="#A59870"/>
<stop offset="0.264157" stop-color="#C1B58F"/>
<stop offset="1" stop-color="#A59870"/>
</linearGradient>
<linearGradient id="paint19_linear_864_608" x1="309.294" y1="454.595" x2="304.858" y2="518.033" gradientUnits="userSpaceOnUse">
<stop stop-color="#908564"/>
<stop offset="1" stop-color="#9D967F"/>
</linearGradient>
<radialGradient id="paint20_radial_864_608" cx="0" cy="0" r="1" gradientUnits="userSpaceOnUse" gradientTransform="translate(339.424 248.928) rotate(101.173) scale(169.518 168.946)">
<stop stop-color="#A08464"/>
<stop offset="1" stop-color="#645143"/>
</radialGradient>
<linearGradient id="paint21_linear_864_608" x1="272.45" y1="291.073" x2="280.914" y2="313.858" gradientUnits="userSpaceOnUse">
<stop stop-color="#493A48"/>
<stop offset="1" stop-color="#706D75"/>
</linearGradient>
<linearGradient id="paint22_linear_864_608" x1="274.383" y1="503.075" x2="277.586" y2="480.902" gradientUnits="userSpaceOnUse">
<stop stop-color="#878A9C"/>
<stop offset="1" stop-color="#706D75"/>
</linearGradient>
<linearGradient id="paint23_linear_864_608" x1="259.893" y1="338.767" x2="273.307" y2="318.498" gradientUnits="userSpaceOnUse">
<stop stop-color="#706D75"/>
<stop offset="1" stop-color="#B8B2BF"/>
</linearGradient>
<linearGradient id="paint24_linear_864_608" x1="250.939" y1="369.466" x2="262.61" y2="347.692" gradientUnits="userSpaceOnUse">
<stop stop-color="#706D75"/>
<stop offset="1" stop-color="#B8B2BF"/>
</linearGradient>
<linearGradient id="paint25_linear_864_608" x1="247.293" y1="402.217" x2="256.561" y2="378.577" gradientUnits="userSpaceOnUse">
<stop stop-color="#706D75"/>
<stop offset="1" stop-color="#B8B2BF"/>
</linearGradient>
<linearGradient id="paint26_linear_864_608" x1="248.268" y1="435.701" x2="255.018" y2="410.398" gradientUnits="userSpaceOnUse">
<stop stop-color="#706D75"/>
<stop offset="1" stop-color="#B8B2BF"/>
</linearGradient>
<linearGradient id="paint27_linear_864_608" x1="260.293" y1="472.471" x2="258.664" y2="443.792" gradientUnits="userSpaceOnUse">
<stop stop-color="#706D75"/>
<stop offset="1" stop-color="#B8B2BF"/>
</linearGradient>
<linearGradient id="paint28_linear_864_608" x1="265.407" y1="325.922" x2="279.223" y2="306.015" gradientUnits="userSpaceOnUse">
<stop stop-color="#706D75"/>
<stop offset="1" stop-color="#B8B2BF"/>
</linearGradient>
<linearGradient id="paint29_linear_864_608" x1="255.238" y1="354.393" x2="267.653" y2="333.247" gradientUnits="userSpaceOnUse">
<stop stop-color="#706D75"/>
<stop offset="1" stop-color="#B8B2BF"/>
</linearGradient>
<linearGradient id="paint30_linear_864_608" x1="249.16" y1="386.721" x2="259.291" y2="363.721" gradientUnits="userSpaceOnUse">
<stop stop-color="#706D75"/>
<stop offset="1" stop-color="#B8B2BF"/>
</linearGradient>
<linearGradient id="paint31_linear_864_608" x1="247.485" y1="419.585" x2="255.698" y2="395.212" gradientUnits="userSpaceOnUse">
<stop stop-color="#706D75"/>
<stop offset="1" stop-color="#B8B2BF"/>
</linearGradient>
<linearGradient id="paint32_linear_864_608" x1="253.964" y1="454.818" x2="256.555" y2="427.438" gradientUnits="userSpaceOnUse">
<stop stop-color="#706D75"/>
<stop offset="1" stop-color="#B8B2BF"/>
</linearGradient>
<linearGradient id="paint33_linear_864_608" x1="271" y1="489.792" x2="263.04" y2="460.598" gradientUnits="userSpaceOnUse">
<stop stop-color="#706D75"/>
<stop offset="1" stop-color="#B8B2BF"/>
</linearGradient>
<linearGradient id="paint34_linear_864_608" x1="410.576" y1="132.016" x2="262.576" y2="330.516" gradientUnits="userSpaceOnUse">
<stop stop-color="#79634C"/>
<stop offset="1" stop-color="#77604B"/>
</linearGradient>
<linearGradient id="paint35_linear_864_608" x1="276.214" y1="484.156" x2="274.955" y2="502.159" gradientUnits="userSpaceOnUse">
<stop stop-color="#A35CAB"/>
<stop offset="1" stop-color="#77457D"/>
</linearGradient>
<linearGradient id="paint36_linear_864_608" x1="347.222" y1="472.753" x2="346.023" y2="489.899" gradientUnits="userSpaceOnUse">
<stop stop-color="#A35CAB"/>
<stop offset="1" stop-color="#77457D"/>
</linearGradient>
<linearGradient id="paint37_linear_864_608" x1="360.5" y1="375.804" x2="358" y2="400.804" gradientUnits="userSpaceOnUse">
<stop stop-color="#665343"/>
<stop offset="1" stop-color="#624F40"/>
</linearGradient>
<linearGradient id="paint38_linear_864_608" x1="203.29" y1="307.1" x2="224.5" y2="300.304" gradientUnits="userSpaceOnUse">
<stop stop-color="#5C4A3D"/>
<stop offset="1" stop-color="#5C4A3C"/>
</linearGradient>
</defs>
</svg>
