<svg width="779" height="732" viewBox="0 0 779 732" fill="none" xmlns="http://www.w3.org/2000/svg">
<ellipse cx="390.209" cy="569.59" rx="276.209" ry="92.4099" fill="#E9DDB9" fill-opacity="0.25"/>
<g filter="url(#filter0_d_695_970)">
<ellipse cx="388.304" cy="570" rx="274" ry="85" stroke="#7FD71B" stroke-opacity="0.01" stroke-width="82.5686"/>
</g>
<path d="M336.815 478.969L333.804 263C333.074 249.028 333.904 251.03 369.239 234.773C413.478 220.355 426.312 232.896 438.951 272.929C438.951 272.929 446.061 261.738 449.303 277C452.546 292.262 443.815 494.231 443.815 494.231C440.851 523.874 430.713 550.193 406.394 550.193C382.076 550.193 339.044 552.7 336.815 478.969Z" fill="url(#paint0_linear_695_970)"/>
<path d="M388.503 296L369.303 304.374V418.813L385.303 474.637L391.703 550L401.303 519.297L383.703 407.648L388.503 296Z" fill="#8D7EA1"/>
<path d="M447.303 282H439.303L437.303 514L443.303 433.573L439.303 427.387L447.303 282Z" fill="#9182A7"/>
<path d="M341.426 290.109L333.436 262.749C332.706 252.015 333.769 245.925 369.177 233.435C413.507 222.358 426.369 231.993 439.034 262.749C439.034 262.749 445.533 262.749 448.782 274.475C452.031 286.201 439.034 282.292 439.034 282.292C436.064 305.066 425.904 295.972 401.536 295.972C377.167 295.972 369.177 317.469 341.426 290.109Z" fill="url(#paint1_linear_695_970)"/>
<path d="M426.144 273.951L430.303 247.805C427.813 243.083 425.859 241.091 421.985 238L417.826 260.878L401.19 278.854L369.303 305L388.712 298.463L426.144 273.951Z" fill="#8D7EA1"/>
<path d="M458.272 336H448.545L450.166 350.591L427.469 363.561L429.09 395.985L438.818 399.227L443.681 370.045L464.757 352.212L458.272 336Z" fill="#60546D"/>
<path d="M443.681 417.06L450.166 420.303L446.924 399.227L455.03 387.879L445.303 394.364L442.06 399.227L443.681 417.06Z" fill="#60546D"/>
<path d="M464.756 352.212L443.681 370.045L438.817 399.227L455.029 387.879L446.923 399.227L450.165 420.303L458.271 397.606L464.756 352.212Z" fill="#847992"/>
<path d="M307.5 543.274L322.09 497.881L330.196 491.396L346.409 499.502L352.893 522.199L408.014 531.926L414.499 510.85L429.09 509.229L435.575 515.714L443.681 504.365L445.302 491.396L463.136 497.881L464.757 528.684L456.651 553.002L463.136 561.108L445.302 582.183H411.257L408.014 572.456L341.545 553.002L333.439 557.865L307.5 543.274Z" fill="url(#paint2_linear_695_970)"/>
<path d="M343.167 502.744L322.091 497.881L330.197 491.396L346.409 499.502L352.894 522.199L408.015 531.926L414.5 510.85L429.091 509.229L430.712 510.85L417.742 515.714L408.015 538.411L351.273 523.82L343.167 502.744Z" fill="#60546D"/>
<path d="M453.409 494.638L445.303 491.396L443.681 504.365L435.575 515.714L450.166 502.744L453.409 494.638Z" fill="#60546D"/>
<path d="M419.362 551.381L424.226 538.411L430.711 536.79L442.059 543.275L438.817 562.729L425.847 561.108L419.362 551.381Z" fill="url(#paint3_linear_695_970)"/>
<path d="M320.468 530.305L322.089 515.714L328.574 514.093L339.922 520.578L336.68 531.926L323.71 538.411L320.468 530.305Z" fill="url(#paint4_linear_695_970)"/>
<path d="M370.726 364.773L385.317 361.53L388.559 369.636L386.938 392.333L369.105 395.576L349.65 390.712V405.303L326.953 400.439L317.226 385.848V338.833L333.438 321V333.97L326.953 342.076L335.059 351.803L345.899 355.925L349.65 353.424L359.378 358.288L360.999 369.636L370.726 372.879V364.773Z" fill="url(#paint5_linear_695_970)"/>
<path d="M388.56 369.636L385.317 361.53L370.726 364.773V371.258L360.999 369.636L359.378 358.288L349.651 353.424L344.787 356.667L354.514 359.909L357.757 371.258L373.969 374.5V369.636H388.56Z" fill="#60546D"/>
<path d="M333.438 333.97V321L317.226 338.833L326.953 350.182L330.196 353.424L344.787 359.909V356.667H348.029L335.059 351.803V346.939L326.953 342.076L333.438 333.97Z" fill="#60546D"/>
<path d="M349.651 390.712V405.303L354.515 400.439V392.333L349.651 390.712Z" fill="#60546D"/>
<path d="M333.438 333.97L326.954 342.076L333.438 346.94V333.97Z" fill="#7E738D"/>
<path d="M324.311 381.759L322.091 372.441L330.275 364.643L339.123 367.08L340.597 381.292L331.818 387.032L324.311 381.759Z" fill="url(#paint6_linear_695_970)"/>
<path d="M456.484 380.139L454.264 370.821L462.449 363.023L466.378 365.182L463.136 379.773L459.894 383.015L456.484 380.139Z" fill="url(#paint7_linear_695_970)"/>
<g filter="url(#filter1_d_695_970)">
<circle cx="386.276" cy="185.972" r="116.972" stroke="#7FD71B" stroke-opacity="0.01" stroke-width="82.5686"/>
</g>
<path d="M371.156 255.859L386.297 272.188L408.562 255.859L412.719 237.75L416.875 232.406L424 208.359L416.875 194.109L395.5 156.406L388.672 138L383.328 140.078L376.203 156.406L363.141 175.109V187.281L353.344 182.234V205.094L348 202.422L353.344 235.375L367.594 258.828L371.156 255.859Z" fill="url(#paint8_linear_695_970)"/>
<path d="M408.5 256L396.5 229.5L412.5 237.5L408.5 256Z" fill="#9A9A9A"/>
<path d="M371 256L367.5 259L372 234.5L371 256Z" fill="#9A9A9A"/>
<path d="M353.641 204.797V182.828L363.437 187.578L371.453 215.484L353.641 204.797Z" fill="white"/>
<path d="M371.156 255.859L371.75 234.484L381.547 243.094L386.297 272.188L371.156 255.859Z" fill="#D4D4D4"/>
<path d="M396.687 229.734L424 208.359L416.578 232.406L412.719 237.453L396.687 229.734Z" fill="#D4D4D4"/>
<defs>
<filter id="filter0_d_695_970" x="-2.03059" y="368.666" width="780.669" height="402.668" filterUnits="userSpaceOnUse" color-interpolation-filters="sRGB">
<feFlood flood-opacity="0" result="BackgroundImageFix"/>
<feColorMatrix in="SourceAlpha" type="matrix" values="0 0 0 0 0 0 0 0 0 0 0 0 0 0 0 0 0 0 127 0" result="hardAlpha"/>
<feOffset/>
<feGaussianBlur stdDeviation="37.525"/>
<feColorMatrix type="matrix" values="0 0 0 0 0.490393 0 0 0 0 0.427875 0 0 0 0 0.558122 0 0 0 0.5 0"/>
<feBlend mode="normal" in2="BackgroundImageFix" result="effect1_dropShadow_695_970"/>
<feBlend mode="normal" in="SourceGraphic" in2="effect1_dropShadow_695_970" result="shape"/>
</filter>
<filter id="filter1_d_695_970" x="152.969" y="-47.3343" width="466.613" height="466.613" filterUnits="userSpaceOnUse" color-interpolation-filters="sRGB">
<feFlood flood-opacity="0" result="BackgroundImageFix"/>
<feColorMatrix in="SourceAlpha" type="matrix" values="0 0 0 0 0 0 0 0 0 0 0 0 0 0 0 0 0 0 127 0" result="hardAlpha"/>
<feOffset/>
<feGaussianBlur stdDeviation="37.525"/>
<feColorMatrix type="matrix" values="0 0 0 0 0.490196 0 0 0 0 0.427451 0 0 0 0 0.556863 0 0 0 0.3 0"/>
<feBlend mode="normal" in2="BackgroundImageFix" result="effect1_dropShadow_695_970"/>
<feBlend mode="normal" in="SourceGraphic" in2="effect1_dropShadow_695_970" result="shape"/>
</filter>
<linearGradient id="paint0_linear_695_970" x1="395.047" y1="339.065" x2="386.184" y2="549.982" gradientUnits="userSpaceOnUse">
<stop offset="0.307345" stop-color="#A190B9"/>
<stop offset="0.745124" stop-color="#9180AA"/>
</linearGradient>
<linearGradient id="paint1_linear_695_970" x1="397.878" y1="243.207" x2="359.65" y2="287.278" gradientUnits="userSpaceOnUse">
<stop stop-color="#9C8AB4"/>
<stop offset="1" stop-color="#9888AD"/>
</linearGradient>
<linearGradient id="paint2_linear_695_970" x1="386.128" y1="491.396" x2="386.128" y2="582.183" gradientUnits="userSpaceOnUse">
<stop stop-color="#8E849B"/>
<stop offset="1" stop-color="#7F738D"/>
</linearGradient>
<linearGradient id="paint3_linear_695_970" x1="433.854" y1="539.299" x2="420.501" y2="557.686" gradientUnits="userSpaceOnUse">
<stop stop-color="#EFEFEF"/>
<stop offset="0.645" stop-color="#D4D4D4"/>
</linearGradient>
<linearGradient id="paint4_linear_695_970" x1="332.89" y1="516.445" x2="320.067" y2="532.588" gradientUnits="userSpaceOnUse">
<stop stop-color="#EFEFEF"/>
<stop offset="0.645" stop-color="#D4D4D4"/>
</linearGradient>
<linearGradient id="paint5_linear_695_970" x1="357.756" y1="369.636" x2="352.893" y2="405.303" gradientUnits="userSpaceOnUse">
<stop stop-color="#8D839A"/>
<stop offset="1" stop-color="#7D728C"/>
</linearGradient>
<linearGradient id="paint6_linear_695_970" x1="332.644" y1="366.522" x2="322.753" y2="382.567" gradientUnits="userSpaceOnUse">
<stop stop-color="#EFEFEF"/>
<stop offset="0.645" stop-color="#D4D4D4"/>
</linearGradient>
<linearGradient id="paint7_linear_695_970" x1="461.715" y1="365.02" x2="452.637" y2="377.126" gradientUnits="userSpaceOnUse">
<stop stop-color="#EFEFEF"/>
<stop offset="0.645" stop-color="#D4D4D4"/>
</linearGradient>
<linearGradient id="paint8_linear_695_970" x1="382" y1="165" x2="386" y2="272.188" gradientUnits="userSpaceOnUse">
<stop stop-color="white"/>
<stop offset="1" stop-color="#989292"/>
</linearGradient>
</defs>
</svg>
