<svg width="520" height="560" viewBox="0 0 520 560" fill="none" xmlns="http://www.w3.org/2000/svg">
<g clip-path="url(#clip0_864_837)">
<rect width="520" height="560" transform="matrix(-1 0 0 1 520 0)" fill="white"/>
<ellipse cx="126" cy="59.5" rx="126" ry="59.5" transform="matrix(-1 0 0 1 433.076 440.974)" fill="url(#paint0_radial_864_837)"/>
<path d="M395.583 218.073C395.853 217.066 397.141 216.552 398.437 217.086C399.696 217.545 400.572 218.786 400.302 219.793L400.272 219.905C399.807 222.07 400.068 224.316 401.117 226.418C403.438 231.073 408.816 232.91 413.065 230.588C414.211 229.962 415.208 229.035 415.927 228.068C416.444 227.212 417.748 227.073 418.916 227.868C420.085 228.662 420.654 229.975 420.174 230.906C420.174 230.906 420.174 230.906 420.107 230.943C418.937 232.729 417.379 234.25 415.423 235.318C408.747 238.968 400.432 236.06 396.838 228.852C395.041 225.248 394.72 221.506 395.583 218.073Z" fill="#8E8B97"/>
<path opacity="0.25" d="M400.234 219.83C399.829 221.771 399.979 223.792 400.78 225.742C400.667 225.517 400.555 225.292 400.48 225.142C399.582 223.34 399.245 220.084 399.853 218.032C400.175 218.334 400.519 219.197 400.234 219.83Z" fill="#46395B"/>
<path opacity="0.25" d="M414.862 234.192C416.682 233.197 417.941 231.935 419.193 230.487C419.523 230.116 419.882 229.632 420.107 229.223C420.294 229.598 420.391 230.31 420.137 230.831C418.968 232.617 417.341 234.174 415.386 235.243C408.71 238.892 400.395 235.985 396.801 228.777C396.614 228.401 396.427 228.026 396.344 227.689C400.111 234.038 407.377 238.283 414.862 234.192Z" fill="#46395B"/>
<path opacity="0.3" d="M397.064 224.143C397.476 224.109 397.971 224.412 398.09 224.824C398.248 225.311 398.405 225.799 398.629 226.249C400.059 229.289 402.591 231.441 405.415 232.286C405.835 232.438 406.127 232.852 406.044 233.375C405.999 233.973 405.46 234.268 404.973 234.152C401.624 233.116 398.598 230.661 396.974 227.059C396.712 226.533 396.517 225.971 396.322 225.408C396.128 224.846 396.517 224.251 397.064 224.143Z" fill="#9C8C9A"/>
<path d="M342.939 466.776C341.98 467.055 341.471 468.418 341.788 469.822C342.105 471.227 343.184 472.25 344.144 471.971C344.216 471.944 344.216 471.944 344.288 471.916C346.261 471.518 348.407 471.862 350.223 473.14C354.321 475.877 355.599 481.763 353.168 486.288C352.533 487.52 351.647 488.489 350.607 489.247C349.8 489.736 349.561 491.175 350.237 492.442C350.841 493.737 352.054 494.439 352.933 493.922C352.933 493.922 352.933 493.922 353.004 493.895C354.707 492.702 356.247 491.033 357.338 488.998C361.183 481.955 359.108 472.783 352.699 468.508C349.599 466.555 346.187 466.068 342.939 466.776Z" fill="url(#paint1_linear_864_837)"/>
<path opacity="0.25" d="M344.287 471.916C346.046 471.6 347.994 471.84 349.701 472.801C349.504 472.698 349.351 472.487 349.153 472.383C347.562 471.288 344.563 470.822 342.644 471.38C342.95 471.801 343.669 472.243 344.287 471.916Z" fill="#46395B"/>
<path opacity="0.25" d="M356.421 488.452C355.375 490.38 354.139 491.752 352.679 492.941C352.231 493.293 351.855 493.617 351.451 493.862C351.775 494.097 352.385 494.222 352.932 493.922C354.635 492.729 356.175 491.06 357.338 488.998C361.182 481.954 359.108 472.783 352.699 468.507C352.375 468.272 352.079 468.117 351.684 467.909C357.303 472.488 360.722 480.604 356.421 488.452Z" fill="#46395B"/>
<path opacity="0.3" d="M348.463 468.696C348.383 469.176 348.618 469.625 349.013 469.832C349.408 470.04 349.875 470.22 350.271 470.427C352.949 472.093 354.723 474.914 355.322 478.097C355.413 478.601 355.835 478.888 356.248 478.909C356.805 478.875 357.127 478.392 357.009 477.809C356.319 474.122 354.283 470.773 351.084 468.768C350.59 468.509 350.096 468.249 349.601 467.99C349.179 467.703 348.587 468.11 348.463 468.696Z" fill="#575878"/>
<path opacity="0.45" d="M342.939 466.776C341.98 467.055 341.471 468.418 341.788 469.822C342.105 471.227 343.184 472.25 344.144 471.971C344.216 471.944 344.216 471.944 344.288 471.916C346.261 471.518 348.407 471.862 350.223 473.14C354.321 475.877 355.599 481.763 353.168 486.288C352.533 487.52 351.647 488.489 350.607 489.247C349.8 489.736 349.561 491.175 350.237 492.442C350.841 493.737 352.054 494.439 352.933 493.922C352.933 493.922 352.933 493.922 353.004 493.895C354.707 492.702 356.247 491.033 357.338 488.998C361.183 481.955 359.108 472.783 352.699 468.508C349.599 466.555 346.187 466.068 342.939 466.776Z" fill="#BEBEBE"/>
<path d="M422.403 271.346C426.733 270.221 429.229 265.417 427.972 260.658L424.978 249.491C423.721 244.732 419.159 241.78 414.829 242.905C412.784 243.449 411.045 244.782 409.989 246.793C408.864 248.84 408.616 251.269 409.26 253.592L412.254 264.759C413.444 269.555 418.005 272.507 422.403 271.346ZM416.124 247.739C418.034 247.268 420.049 248.555 420.581 250.653L423.574 261.82C424.106 263.918 423.019 266.041 421.108 266.512C419.198 266.983 417.183 265.695 416.652 263.597L413.658 252.43C413.411 251.419 413.471 250.335 413.988 249.479C414.468 248.548 415.202 247.956 416.124 247.739Z" fill="url(#paint2_linear_864_837)"/>
<g opacity="0.35">
<path d="M415.411 262.653L412.417 251.486C412.17 250.474 412.231 249.39 412.748 248.534C413.197 247.715 413.999 247.086 414.883 246.794C416.179 246.468 417.438 246.926 418.374 247.943C417.707 247.639 416.876 247.52 416.127 247.739C415.205 247.956 414.471 248.548 413.991 249.479C413.511 250.41 413.414 251.419 413.661 252.431L416.654 263.597C416.819 264.272 417.186 264.835 417.62 265.362C416.602 264.868 415.703 263.926 415.411 262.653Z" fill="#26366F"/>
<path d="M421.095 270.438C425.426 269.313 427.922 264.509 426.664 259.75L423.671 248.583C423.147 246.672 422.083 245.056 420.795 243.849C422.772 245.061 424.33 246.981 424.981 249.491L427.975 260.658C429.232 265.417 426.736 270.221 422.406 271.346C419.814 271.998 417.132 271.267 415.132 269.493C416.863 270.554 419.05 270.983 421.095 270.438Z" fill="#26366F"/>
</g>
<path opacity="0.3" d="M414.049 245.815C412.73 246.441 411.711 247.666 411.291 249.234C411.021 250.241 411.133 251.326 411.38 252.338L411.949 254.511C411.949 254.511 412.151 255.261 412.308 255.748C412.428 256.16 412.203 256.57 411.866 256.754C411.424 256.9 410.967 256.672 410.81 256.185C410.047 253.449 409.874 252.588 409.874 252.588C409.351 250.677 409.583 248.734 410.445 247.021C411.18 245.568 412.491 244.756 413.368 244.277C413.772 244.056 414.267 244.359 414.386 244.771C414.611 245.221 414.424 245.706 414.049 245.815Z" fill="#575878"/>
<path opacity="0.3" d="M421.385 267.412C422.704 266.786 423.723 265.561 424.143 263.993C424.413 262.986 424.301 261.901 424.054 260.889L423.927 260.29C423.927 260.29 423.725 259.54 423.567 259.053C423.448 258.641 423.673 258.231 424.01 258.047C424.452 257.901 424.909 258.129 425.066 258.616C425.829 261.352 425.56 260.639 425.56 260.639C426.084 262.55 425.851 264.493 424.989 266.206C424.254 267.659 422.943 268.471 422.067 268.95C421.662 269.171 421.168 268.868 421.048 268.456C420.891 267.969 421.011 267.521 421.385 267.412Z" fill="#575878"/>
<path d="M427.353 308.291C431.848 307.84 434.913 303.489 434.27 298.586L432.782 287.169C432.139 282.266 427.967 278.718 423.472 279.168C421.345 279.376 419.427 280.52 418.153 282.267C416.849 284.127 416.219 286.477 416.555 288.873L418.043 300.29C418.716 305.081 422.925 308.704 427.353 308.291ZM424.153 284.147C426.108 283.938 427.928 285.523 428.22 287.657L429.708 299.073C429.999 301.207 428.628 303.103 426.672 303.312C424.717 303.521 422.897 301.936 422.605 299.802L421.118 288.386C420.938 287.337 421.208 286.33 421.83 285.512C422.452 284.694 423.224 284.177 424.153 284.147Z" fill="url(#paint3_linear_864_837)"/>
<g opacity="0.35">
<path d="M421.527 298.672L420.039 287.255C419.859 286.207 420.129 285.199 420.751 284.382C421.306 283.601 422.182 283.122 423.074 283.017C424.377 282.877 425.643 283.523 426.377 284.651C425.741 284.234 424.976 284.079 424.22 284.11C423.328 284.215 422.452 284.694 421.897 285.475C421.275 286.293 421.073 287.263 421.185 288.349L422.672 299.765C422.77 300.476 423.069 301.077 423.436 301.641C422.41 300.96 421.646 299.944 421.527 298.672Z" fill="#26366F"/>
<path d="M426.207 307.197C430.702 306.746 433.767 302.396 433.124 297.492L431.636 286.076C431.352 284.129 430.558 282.365 429.367 281.01C431.15 282.52 432.475 284.661 432.782 287.169L434.27 298.586C434.913 303.489 431.848 307.84 427.353 308.29C424.678 308.606 422.079 307.351 420.311 305.356C421.982 306.64 424.079 307.405 426.207 307.197Z" fill="#26366F"/>
</g>
<path opacity="0.3" d="M422.378 281.964C420.947 282.364 419.815 283.365 419.223 284.93C418.848 285.9 418.751 286.908 418.863 287.994L419.124 290.239C419.124 290.239 419.221 290.951 419.281 291.587C419.334 292.036 419.071 292.37 418.697 292.48C418.255 292.626 417.828 292.286 417.738 291.762C417.349 288.917 417.244 288.018 417.244 288.018C416.96 286.072 417.47 284.169 418.512 282.644C419.426 281.38 420.88 280.681 421.764 280.389C422.206 280.243 422.7 280.546 422.79 281.07C422.977 281.445 422.752 281.855 422.378 281.964Z" fill="#575878"/>
<path opacity="0.3" d="M426.882 304.249C428.313 303.849 429.444 302.848 430.037 301.282C430.411 300.313 430.509 299.304 430.397 298.219L430.337 297.583C430.337 297.583 430.24 296.871 430.18 296.235C430.128 295.786 430.39 295.452 430.765 295.342C431.207 295.196 431.634 295.536 431.723 296.061C432.112 298.905 431.978 298.119 431.978 298.119C432.262 300.066 431.752 301.969 430.71 303.494C429.796 304.758 428.342 305.457 427.458 305.749C427.016 305.895 426.522 305.592 426.432 305.068C426.35 304.731 426.507 304.358 426.882 304.249Z" fill="#575878"/>
<path d="M427.051 344.859C431.575 345.157 435.247 341.334 435.293 336.436L435.319 324.957C435.365 320.059 431.65 315.879 427.126 315.581C424.983 315.415 422.915 316.258 421.357 317.779C419.768 319.412 418.891 321.611 418.883 324.004L418.857 335.484C418.849 340.457 422.563 344.637 427.051 344.859ZM427.087 320.666C429.02 320.756 430.645 322.639 430.659 324.733L430.634 336.212C430.648 338.306 428.992 339.976 427.059 339.886C425.127 339.796 423.501 337.913 423.487 335.819L423.512 324.34C423.505 323.293 423.88 322.324 424.577 321.656C425.274 320.989 426.188 320.584 427.087 320.666Z" fill="url(#paint4_linear_864_837)"/>
<g opacity="0.35">
<path d="M422.506 334.54L422.531 323.061C422.524 322.014 422.899 321.045 423.595 320.377C424.292 319.71 425.139 319.343 426.105 319.388C427.416 319.435 428.555 320.342 429.221 321.506C428.615 320.978 427.948 320.673 427.154 320.63C426.187 320.585 425.341 320.952 424.644 321.62C423.947 322.287 423.572 323.256 423.579 324.303L423.554 335.783C423.546 336.456 423.711 337.13 424.01 337.731C423.119 336.976 422.52 335.775 422.506 334.54Z" fill="#26366F"/>
<path d="M426.069 343.58C430.594 343.877 434.266 340.055 434.312 335.157L434.337 323.678C434.293 321.695 433.739 319.896 432.713 318.355C434.331 320.05 435.319 322.377 435.318 324.957L435.293 336.436C435.247 341.334 431.642 345.12 427.05 344.859C424.323 344.725 421.986 343.136 420.414 340.843C421.926 342.5 423.896 343.525 426.069 343.58Z" fill="#26366F"/>
</g>
<path opacity="0.3" d="M425.611 318.224C424.173 318.437 422.862 319.249 422.09 320.627C421.573 321.483 421.34 322.565 421.347 323.612L421.332 325.818C421.332 325.818 421.362 326.567 421.316 327.164C421.331 327.538 421.002 327.91 420.657 327.907C420.178 327.978 419.781 327.526 419.796 327.04C419.751 324.198 419.819 323.301 419.819 323.301C419.812 321.394 420.532 319.568 421.858 318.269C422.915 317.118 424.451 316.757 425.372 316.54C425.852 316.469 426.211 316.845 426.301 317.37C426.286 317.856 426.023 318.19 425.611 318.224Z" fill="#575878"/>
<path opacity="0.3" d="M427.096 340.821C428.535 340.608 429.846 339.796 430.618 338.419C431.135 337.563 431.368 336.48 431.36 335.433L431.405 334.835C431.405 334.835 431.376 334.087 431.421 333.489C431.406 333.115 431.736 332.744 432.08 332.747C432.56 332.676 432.957 333.127 432.942 333.613C432.986 336.456 432.956 335.708 432.956 335.708C432.963 337.615 432.243 339.441 430.917 340.739C429.86 341.89 428.324 342.252 427.403 342.469C426.924 342.54 426.564 342.163 426.474 341.639C426.459 341.265 426.789 340.894 427.096 340.821Z" fill="#575878"/>
<path d="M422.494 380.121C426.974 381.016 431.117 377.796 431.718 372.977L433.129 361.696C433.73 356.877 430.547 352.215 426.067 351.32C423.947 350.854 421.797 351.361 420.059 352.693C418.253 354.062 417.129 356.11 416.843 358.463L415.432 369.745C414.832 374.564 418.014 379.226 422.494 380.121ZM425.437 356.25C427.415 356.603 428.77 358.633 428.545 360.762L427.133 372.044C426.908 374.173 425.102 375.542 423.125 375.19C421.147 374.838 419.791 372.808 420.017 370.679L421.428 359.397C421.593 358.351 422.073 357.42 422.845 356.903C423.579 356.311 424.5 356.093 425.437 356.25Z" fill="url(#paint5_linear_864_837)"/>
<g opacity="0.35">
<path d="M419.133 369.25L420.545 357.969C420.71 356.923 421.19 355.992 421.961 355.475C422.696 354.882 423.617 354.665 424.591 354.897C425.909 355.132 426.951 356.187 427.415 357.462C426.875 356.897 426.239 356.481 425.475 356.325C424.538 356.168 423.617 356.385 422.845 356.902C422.111 357.495 421.526 358.388 421.428 359.397L420.017 370.678C419.942 371.388 420.002 372.024 420.234 372.662C419.44 371.758 419.013 370.558 419.133 369.25Z" fill="#26366F"/>
<path d="M421.611 378.693C426.09 379.588 430.234 376.368 430.834 371.549L432.246 360.268C432.479 358.325 432.127 356.415 431.303 354.764C432.689 356.682 433.407 359.155 433.092 361.621L431.681 372.902C431.08 377.721 426.936 380.941 422.457 380.046C419.782 379.501 417.573 377.651 416.337 375.174C417.685 377.017 419.528 378.303 421.611 378.693Z" fill="#26366F"/>
</g>
<path opacity="0.3" d="M424.231 353.661C422.748 353.612 421.362 354.274 420.342 355.5C419.72 356.317 419.346 357.287 419.248 358.295L418.955 360.462C418.955 360.462 418.88 361.172 418.835 361.77C418.783 362.181 418.483 362.44 418.071 362.474C417.621 362.433 417.224 361.981 417.307 361.458C417.607 358.619 417.712 357.797 417.712 357.797C417.945 355.855 418.949 354.255 420.351 353.107C421.587 352.144 423.13 351.969 424.127 351.902C424.576 351.943 424.936 352.32 424.921 352.806C424.943 353.367 424.576 353.663 424.231 353.661Z" fill="#575878"/>
<path opacity="0.3" d="M422.989 376.123C424.473 376.173 425.859 375.51 426.878 374.285C427.5 373.467 427.875 372.498 427.972 371.489L428.085 370.854C428.085 370.854 428.16 370.144 428.205 369.546C428.258 369.135 428.557 368.876 428.969 368.842C429.419 368.883 429.816 369.335 429.733 369.857C429.433 372.697 429.471 371.912 429.471 371.912C429.238 373.854 428.234 375.454 426.832 376.602C425.596 377.565 424.053 377.74 423.056 377.807C422.607 377.766 422.247 377.389 422.262 376.903C422.278 376.417 422.645 376.121 422.989 376.123Z" fill="#575878"/>
<path d="M411.286 415.294C415.533 417.272 420.238 415.178 421.85 410.666L425.531 400.15C427.143 395.638 424.972 390.424 420.724 388.446C418.724 387.532 416.484 387.515 414.551 388.285C412.483 389.128 410.932 390.836 410.16 393.074L406.479 403.589C404.867 408.101 407.076 413.391 411.286 415.294ZM419.15 393.033C421.008 393.832 421.928 396.195 421.246 398.097L417.565 408.613C416.92 410.589 414.785 411.47 412.995 410.633C411.137 409.833 410.216 407.47 410.899 405.569L414.58 395.053C414.954 394.084 415.614 393.341 416.46 392.974C417.307 392.607 418.274 392.652 419.15 393.033Z" fill="url(#paint6_linear_864_837)"/>
<g opacity="0.35">
<path d="M410.323 404.068L414.004 393.552C414.379 392.583 415.038 391.84 415.885 391.473C416.731 391.106 417.698 391.151 418.574 391.532C419.803 392.102 420.679 393.343 420.836 394.69C420.431 394.052 419.855 393.411 419.083 393.069C418.207 392.688 417.24 392.643 416.394 393.01C415.48 393.414 414.82 394.157 414.513 395.089L410.832 405.605C410.614 406.201 410.539 406.911 410.704 407.586C410.075 406.496 409.888 405.261 410.323 404.068Z" fill="#26366F"/>
<path d="M410.777 413.756C415.024 415.734 419.729 413.64 421.341 409.128L425.022 398.612C425.675 396.823 425.668 394.916 425.181 393.08C426.162 395.219 426.334 397.8 425.531 400.15L421.85 410.665C420.238 415.177 415.533 417.271 411.286 415.293C408.724 414.114 406.979 411.819 406.253 409.158C407.227 411.11 408.777 412.843 410.777 413.756Z" fill="#26366F"/>
</g>
<path opacity="0.3" d="M418.521 390.223C417.128 389.838 415.554 390.125 414.318 391.087C413.584 391.68 412.999 392.572 412.624 393.542L411.845 395.592C411.845 395.592 411.597 396.301 411.41 396.785C411.252 397.158 410.915 397.342 410.533 397.264C410.114 397.112 409.852 396.586 409.972 396.138C410.901 393.528 411.179 392.708 411.179 392.708C411.831 390.918 413.052 389.581 414.746 388.847C416.132 388.185 417.69 388.384 418.664 388.616C419.151 388.732 419.413 389.258 419.293 389.706C419.24 390.117 418.836 390.338 418.521 390.223Z" fill="#575878"/>
<path opacity="0.3" d="M412.688 411.566C414.081 411.951 415.654 411.664 416.891 410.702C417.625 410.109 418.21 409.216 418.585 408.247L418.802 407.651C418.802 407.651 419.049 406.942 419.237 406.457C419.394 406.085 419.731 405.9 420.113 405.978C420.533 406.131 420.795 406.657 420.675 407.104C419.745 409.715 419.993 409.006 419.993 409.006C419.341 410.796 418.119 412.132 416.426 412.867C415.04 413.529 413.481 413.33 412.508 413.097C412.021 412.981 411.759 412.456 411.879 412.008C411.901 411.709 412.306 411.488 412.688 411.566Z" fill="#575878"/>
<path d="M392.346 444.946C396.211 447.706 401.268 446.662 403.622 442.605L409.1 433.113C411.454 429.056 410.234 423.512 406.369 420.752C404.527 419.466 402.369 418.925 400.249 419.32C398.061 419.751 396.218 421.045 395.094 423.093L389.615 432.585C387.262 436.642 388.549 442.149 392.346 444.946ZM404.053 424.884C405.754 426.057 406.3 428.529 405.266 430.241L399.719 439.769C398.722 441.556 396.467 442.025 394.835 440.815C393.134 439.643 392.588 437.17 393.622 435.458L399.101 425.967C399.618 425.111 400.42 424.481 401.379 424.339C402.3 424.122 403.237 424.279 404.053 424.884Z" fill="url(#paint7_linear_864_837)"/>
<g opacity="0.35">
<path d="M393.315 433.811L398.794 424.319C399.311 423.463 400.113 422.833 401.072 422.691C401.994 422.474 402.9 422.743 403.784 423.311C404.952 424.106 405.559 425.494 405.476 426.877C405.207 426.164 404.697 425.487 404.023 424.996C403.207 424.391 402.27 424.234 401.311 424.376C400.39 424.593 399.551 425.147 399.034 426.003L393.555 435.495C393.232 436.053 393.053 436.725 393.045 437.398C392.686 436.161 392.701 434.815 393.315 433.811Z" fill="#26366F"/>
<path d="M392.144 443.336C396.009 446.096 401.066 445.052 403.419 440.995L408.898 431.503C409.865 429.828 410.24 427.999 410.031 426.202C410.607 428.562 410.397 431.066 409.137 433.188L403.659 442.679C401.305 446.737 396.248 447.781 392.383 445.021C390.076 443.32 388.699 440.729 388.52 437.96C389.051 440.059 390.264 441.975 392.144 443.336Z" fill="#26366F"/>
</g>
<path opacity="0.3" d="M403.941 422.079C402.571 421.395 401.02 421.383 399.634 422.045C398.72 422.449 398.06 423.191 397.543 424.047L396.411 425.908C396.411 425.908 396.022 426.503 395.767 427.025C395.609 427.397 395.13 427.468 394.778 427.279C394.321 427.051 394.194 426.451 394.419 426.042C395.805 423.66 396.225 422.953 396.225 422.953C397.124 421.314 398.668 420.28 400.443 419.882C401.912 419.557 403.447 420.056 404.429 420.475C404.886 420.703 405.043 421.19 404.855 421.675C404.63 422.084 404.256 422.193 403.941 422.079Z" fill="#575878"/>
<path opacity="0.3" d="M394.385 441.634C395.755 442.318 397.306 442.33 398.692 441.668C399.606 441.264 400.266 440.521 400.783 439.665L401.143 439.182C401.143 439.182 401.532 438.587 401.787 438.065C401.945 437.693 402.424 437.622 402.776 437.812C403.233 438.04 403.36 438.639 403.135 439.048C401.749 441.431 402.101 440.76 402.101 440.76C401.202 442.398 399.658 443.433 397.883 443.83C396.414 444.155 394.879 443.657 393.897 443.238C393.44 443.01 393.283 442.523 393.471 442.038C393.59 441.59 394.033 441.444 394.385 441.634Z" fill="#575878"/>
<path d="M365.558 468.665C368.636 472.429 373.858 472.919 377.177 469.766L384.91 462.386C388.23 459.234 388.419 453.589 385.341 449.826C383.858 448.057 381.918 446.92 379.738 446.678C377.49 446.473 375.348 447.167 373.721 448.724L365.988 456.104C362.669 459.257 362.48 464.901 365.558 468.665ZM381.991 453.09C383.332 454.746 383.256 457.176 381.795 458.548L374.062 465.928C372.6 467.3 370.353 467.095 369.012 465.439C367.672 463.783 367.747 461.353 369.209 459.981L376.942 452.601C377.639 451.934 378.59 451.605 379.594 451.725C380.493 451.807 381.339 452.3 381.991 453.09Z" fill="url(#paint8_linear_864_837)"/>
<g opacity="0.35">
<path d="M369.352 458.374L377.085 450.994C377.782 450.327 378.733 449.998 379.737 450.118C380.636 450.2 381.587 450.731 382.202 451.446C383.108 452.575 383.302 453.997 383.01 455.304C382.942 454.481 382.635 453.693 382.059 453.053C381.407 452.262 380.561 451.77 379.594 451.725C378.591 451.604 377.706 451.897 376.942 452.601L369.209 459.981C368.744 460.426 368.422 460.984 368.242 461.656C368.055 460.421 368.453 459.152 369.352 458.374Z" fill="#26366F"/>
<path d="M365.701 467.058C368.779 470.821 374.001 471.311 377.32 468.159L385.053 460.779C386.38 459.481 387.212 457.88 387.519 456.087C387.511 458.48 386.604 460.791 384.911 462.386L377.177 469.766C373.858 472.918 368.636 472.428 365.558 468.665C363.746 466.407 363.08 463.522 363.56 460.871C363.507 463.002 364.286 465.252 365.701 467.058Z" fill="#26366F"/>
</g>
<path opacity="0.3" d="M382.606 450.365C381.498 449.346 379.962 448.848 378.456 449.098C377.497 449.24 376.621 449.719 375.924 450.387L374.395 451.796C374.395 451.796 373.931 452.241 373.533 452.649C373.234 452.908 372.822 452.942 372.5 452.641C372.14 452.264 372.118 451.703 372.485 451.407C374.411 449.59 374.973 448.996 374.973 448.996C376.299 447.697 378.037 447.225 379.835 447.389C381.356 447.513 382.772 448.459 383.521 449.101C383.91 449.365 383.97 450.002 383.64 450.373C383.303 450.557 382.823 450.628 382.606 450.365Z" fill="#575878"/>
<path opacity="0.3" d="M368.315 466.107C369.424 467.125 370.96 467.623 372.465 467.374C373.424 467.232 374.301 466.752 374.998 466.085L375.433 465.752C375.433 465.752 375.897 465.307 376.294 464.898C376.594 464.639 377.006 464.605 377.328 464.907C377.688 465.283 377.71 465.845 377.343 466.141C375.417 467.958 375.949 467.476 375.949 467.476C374.623 468.774 372.884 469.246 371.087 469.083C369.566 468.958 368.15 468.012 367.401 467.371C367.012 467.106 366.952 466.47 367.282 466.099C367.581 465.839 368.098 465.843 368.315 466.107Z" fill="#575878"/>
<path d="M418.519 255.123C420.085 254.649 420.947 252.936 420.431 251.212L413.866 229.098C413.35 227.374 411.724 226.352 410.159 226.825C409.409 227.044 408.81 227.563 408.495 228.308C408.143 228.978 408.075 229.875 408.315 230.7L414.744 252.887C415.261 254.611 416.953 255.597 418.519 255.123Z" fill="url(#paint9_linear_864_837)"/>
<path opacity="0.3" d="M415.615 246.201C416.499 245.908 416.919 244.341 416.402 242.617L414.172 235.046C413.655 233.322 412.509 232.229 411.588 232.446C411.146 232.592 410.786 233.075 410.674 233.71C410.561 234.345 410.561 235.205 410.8 236.029L413.031 243.6C413.48 245.361 414.626 246.455 415.615 246.201Z" fill="#575878"/>
<path opacity="0.35" d="M416.978 250.137C417.795 249.882 418.424 249.251 418.739 248.506L412.451 227.292C413.088 227.708 413.56 228.311 413.799 229.135L418.889 246.226L420.049 250.274L420.364 251.249C420.88 252.973 420.018 254.686 418.452 255.16C416.887 255.633 415.261 254.611 414.745 252.887L413.27 247.865C413.787 249.589 415.48 250.574 416.978 250.137Z" fill="#26366F"/>
<path d="M425.32 290.102C426.893 289.815 427.897 288.215 427.516 286.418L422.929 263.796C422.585 262.073 421.057 260.902 419.416 261.226C418.63 261.369 417.993 261.813 417.573 262.52C417.221 263.19 417.048 264.049 417.22 264.91L421.807 287.532C422.151 289.254 423.746 290.389 425.32 290.102Z" fill="url(#paint10_linear_864_837)"/>
<path opacity="0.3" d="M423.232 280.924C424.191 280.782 424.678 279.178 424.334 277.455L422.786 269.703C422.441 267.98 421.393 266.738 420.434 266.88C419.954 266.951 419.595 267.434 419.377 268.031C419.16 268.627 419.16 269.487 419.332 270.349L420.881 278.101C421.195 279.936 422.243 281.178 423.232 280.924Z" fill="#575878"/>
<path opacity="0.35" d="M424.258 285.045C425.112 284.865 425.711 284.347 426.131 283.639L421.754 261.954C422.323 262.408 422.765 263.122 422.9 263.908L426.453 281.361L427.306 285.481L427.553 286.492C427.898 288.215 426.931 289.89 425.357 290.177C423.784 290.464 422.189 289.329 421.845 287.606L420.812 282.438C421.156 284.161 422.684 285.332 424.258 285.045Z" fill="#26366F"/>
<path d="M419.96 273.158C420.484 274.209 421.57 274.666 422.38 274.224C423.189 273.782 423.451 272.587 422.927 271.536C422.403 270.485 421.317 270.028 420.508 270.47C419.698 270.912 419.473 272.182 419.96 273.158Z" fill="#575878"/>
<path d="M427.153 327.509C428.771 327.484 430.023 326.036 429.956 324.352L428.906 301.422C428.801 299.664 427.401 298.232 425.85 298.22C425.056 298.176 424.314 298.582 423.819 299.139C423.325 299.696 423.047 300.516 423.047 301.376L424.098 324.306C424.135 326.101 425.498 327.458 427.153 327.509Z" fill="url(#paint11_linear_864_837)"/>
<path opacity="0.3" d="M426.436 318.155C427.402 318.2 428.137 316.747 428.033 314.989L427.652 307.171C427.548 305.413 426.664 303.985 425.735 304.015C425.219 304.011 424.784 304.344 424.567 304.94C424.244 305.499 424.139 306.321 424.139 307.181L424.519 314.999C424.623 316.757 425.47 318.11 426.436 318.155Z" fill="#575878"/>
<path opacity="0.35" d="M426.877 322.309C427.738 322.316 428.48 321.91 429.004 321.241L427.991 299.246C428.531 299.812 428.837 300.599 428.867 301.347L429.709 319.041L429.91 323.23L429.985 324.24C430.089 325.999 428.838 327.447 427.182 327.397C425.564 327.421 424.164 325.989 424.127 324.194L423.851 318.994C423.925 320.865 425.221 322.258 426.877 322.309Z" fill="#26366F"/>
<path d="M424.994 363.276C426.619 363.439 427.983 362.216 428.051 360.459L429.211 337.658C429.278 335.902 428.08 334.359 426.455 334.197C425.623 334.078 424.911 334.371 424.312 334.89C423.78 335.372 423.397 336.154 423.33 337.051L422.17 359.851C422.17 361.571 423.368 363.114 424.994 363.276Z" fill="url(#paint12_linear_864_837)"/>
<path opacity="0.5" d="M425.243 353.967C426.247 354.087 427.124 352.748 427.192 350.991L427.568 343.142C427.636 341.385 426.955 339.846 425.988 339.801C425.539 339.76 424.999 340.055 424.677 340.614C424.355 341.172 424.108 341.88 424.04 342.777L423.663 350.627C423.595 352.384 424.277 353.922 425.243 353.967Z" fill="#575878"/>
<path opacity="0.35" d="M425.272 358.156C426.104 358.274 426.883 357.944 427.445 357.35L428.574 335.522C429.046 336.124 429.286 336.948 429.248 337.733L428.397 355.301L428.149 359.45L428.118 360.422C428.05 362.179 426.619 363.439 425.061 363.239C423.435 363.077 422.2 361.459 422.305 359.778L422.546 354.582C422.411 356.376 423.647 357.993 425.272 358.156Z" fill="#26366F"/>
<path d="M417.546 398.591C419.149 399.052 420.692 398.018 421.037 396.3L425.358 374.161C425.703 372.443 424.67 370.715 423.067 370.254C422.265 370.023 421.479 370.166 420.842 370.61C420.205 371.054 419.748 371.686 419.575 372.544L415.254 394.684C414.947 396.476 415.98 398.205 417.546 398.591Z" fill="url(#paint13_linear_864_837)"/>
<path opacity="0.3" d="M419.113 389.517C420.087 389.749 421.144 388.598 421.421 386.918L422.944 379.301C423.289 377.584 422.78 376.047 421.769 375.74C421.282 375.624 420.773 375.807 420.345 376.327C419.881 376.772 419.566 377.517 419.393 378.376L417.871 385.992C417.593 387.673 418.14 389.285 419.113 389.517Z" fill="#575878"/>
<path opacity="0.35" d="M418.551 393.551C419.352 393.782 420.206 393.602 420.843 393.158L424.992 371.877C425.329 372.553 425.463 373.339 425.358 374.161L421.975 391.297L421.172 395.367L420.97 396.337C420.625 398.055 419.081 399.089 417.478 398.628C415.875 398.167 414.842 396.438 415.187 394.721L416.192 389.681C415.952 391.437 416.985 393.165 418.551 393.551Z" fill="#26366F"/>
<path opacity="0.8" d="M419.716 378.678C420.24 379.729 421.393 380.149 422.27 379.67C423.147 379.191 423.477 377.959 422.953 376.908C422.428 375.857 421.275 375.437 420.398 375.916C419.559 376.47 419.229 377.701 419.716 378.678Z" fill="#575878"/>
<path d="M401.056 430.057C402.471 431.003 404.247 430.606 405.086 429.192L415.939 410.17C416.741 408.68 416.285 406.732 414.936 405.749C414.262 405.258 413.431 405.139 412.712 405.246C412.03 405.427 411.326 405.908 410.906 406.615L400.053 425.637C399.146 427.088 399.603 429.036 401.056 430.057Z" fill="url(#paint14_linear_864_837)"/>
<path opacity="0.3" d="M405.253 422.126C406.069 422.73 407.418 421.993 408.257 420.579L411.96 414.064C412.762 412.575 412.8 410.93 411.916 410.362C411.527 410.097 410.942 410.13 410.403 410.425C409.863 410.72 409.264 411.239 408.882 412.021L405.179 418.535C404.407 419.913 404.369 421.558 405.253 422.126Z" fill="#575878"/>
<path opacity="0.35" d="M403.432 425.701C404.211 426.23 405.042 426.349 405.792 426.131L416.225 407.816C416.359 408.602 416.254 409.424 415.902 410.094L407.53 424.798L405.566 428.26L405.117 429.079C404.315 430.569 402.502 430.891 401.086 429.945C399.67 428.999 399.281 427.014 400.083 425.525L402.564 421.207C401.627 422.77 402.084 424.718 403.432 425.701Z" fill="#26366F"/>
<path d="M377.436 456.345C378.522 457.663 380.425 457.865 381.549 456.677L396.978 441.842C398.139 440.729 398.23 438.673 397.076 437.393C396.499 436.753 395.795 436.373 395.069 436.293C394.342 436.212 393.525 436.467 392.963 437.061L377.534 451.896C376.44 452.972 376.35 455.028 377.436 456.345Z" fill="url(#paint15_linear_864_837)"/>
<path opacity="0.3" d="M383.595 450.112C384.247 450.902 385.753 450.652 386.914 449.54L392.19 444.459C393.351 443.346 393.771 441.779 393.082 440.913C392.723 440.537 392.198 440.346 391.584 440.49C390.969 440.635 390.258 440.928 389.696 441.522L384.42 446.603C383.326 447.679 382.944 449.321 383.595 450.112Z" fill="#575878"/>
<path opacity="0.35" d="M380.988 452.971C381.602 453.686 382.373 454.029 383.167 454.072L397.929 439.793C397.892 440.578 397.577 441.323 397.045 441.805L385.168 453.266L382.313 455.973L381.616 456.64C380.454 457.753 378.589 457.626 377.503 456.309C376.417 454.991 376.44 452.972 377.602 451.86L381.086 448.522C379.925 449.634 379.834 451.69 380.988 452.971Z" fill="#26366F"/>
<path opacity="0.8" d="M385.387 447.509C385.911 448.56 387.065 448.98 387.941 448.501C388.818 448.022 389.148 446.79 388.624 445.739C388.1 444.688 386.946 444.268 386.07 444.747C385.193 445.226 384.9 446.533 385.387 447.509Z" fill="#575878"/>
<path d="M350.879 479.842C351.935 481.271 353.703 481.547 355.007 480.547L371.417 466.991C372.683 465.917 372.849 464.011 371.86 462.545C371.351 461.868 370.609 461.414 369.883 461.333C369.119 461.177 368.369 461.396 367.77 461.915L351.36 475.471C350.019 476.395 349.823 478.412 350.879 479.842Z" fill="url(#paint16_linear_864_837)"/>
<path opacity="0.45" d="M350.879 479.842C351.935 481.271 353.703 481.547 355.007 480.547L371.417 466.991C372.683 465.917 372.849 464.011 371.86 462.545C371.351 461.868 370.609 461.414 369.883 461.333C369.119 461.177 368.369 461.396 367.77 461.915L351.36 475.471C350.019 476.395 349.823 478.412 350.879 479.842Z" fill="#AEA8B4"/>
<path opacity="0.3" d="M357.369 474.098C357.99 475 359.534 474.825 360.732 473.788L366.405 469.158C367.671 468.084 368.196 466.555 367.544 465.765C367.252 465.351 366.728 465.16 366.076 465.23C365.492 465.262 364.78 465.556 364.113 466.112L358.441 470.741C357.309 471.741 356.785 473.27 357.369 474.098Z" fill="#575878"/>
<path opacity="0.35" d="M354.581 476.767C355.128 477.519 355.87 477.974 356.664 478.018L372.407 465.017C372.264 465.764 371.949 466.509 371.38 466.916L358.672 477.398L355.704 479.88L354.97 480.472C353.704 481.547 351.898 481.196 350.842 479.766C349.786 478.337 350.019 476.395 351.286 475.32L354.987 472.246C353.758 473.395 353.525 475.338 354.581 476.767Z" fill="#26366F"/>
<path d="M325.8 344.828C325.382 342.436 323.304 340.69 320.875 340.69H295.226C292.82 340.69 290.755 342.404 290.311 344.768L262.186 494.768C261.609 497.846 263.97 500.69 267.101 500.69H347.125C350.231 500.69 352.586 497.888 352.05 494.828L325.8 344.828Z" fill="url(#paint17_linear_864_837)"/>
<path d="M290.876 369.974L310.076 374.359V434.282L294.076 463.513L287.676 502.974L278.076 486.897L295.676 428.436L290.876 369.974Z" fill="#A39875"/>
<path d="M192.001 30.5001C132.24 48.7804 108.483 76.665 82.0002 131.5L95.5 188.5L117 220L148.5 245L237.864 351.092L389 224.274L304.5 126.5L290 91.4999L257.5 57.0001L192.001 30.5001Z" fill="url(#paint18_linear_864_837)"/>
<path d="M107.558 85.0337L99.3344 99.6906L146.647 172.571L183.263 199.578L219.948 244.315L215.24 219.44L154.084 157.584L107.558 85.0337Z" fill="#A4997C"/>
<path d="M275.852 219.117L275.852 219.117L275.853 219.118L275.852 219.117L267.093 233.643L240.055 196.173L210.711 161.756L208.073 135.431L241.247 186.443L275.852 219.117Z" fill="#AC9F7C"/>
<path d="M173.606 42.6972L165.707 45.3867L212.999 83.4742L200.573 66.4333L173.606 42.6972Z" fill="#A49976"/>
<path d="M217.345 102.726L221.665 114.24L234.57 130.176L246.924 137.005L217.345 102.726Z" fill="#ADA281"/>
<path d="M364.625 495.14L356.662 462.709L351.323 457.782L339.614 462.655L333.98 478.198L295.042 482.306L291.547 467.262L281.444 465.417L276.603 469.632L271.501 461.307L271.003 452.165L258.243 455.826L255.606 477.271L260.074 494.659L255.153 500.007L266.567 515.604L290.324 517.265L293.061 510.626L340.394 500.276L345.812 504.07L364.625 495.14Z" fill="url(#paint19_linear_864_837)"/>
<path d="M341.685 465.01L356.558 462.663L351.243 457.776L345.576 456.975L346.076 459.975L339.59 462.606L333.987 478.017L295.232 482.08L291.749 467.162L281.694 465.33L280.489 466.375L289.262 470.375L294.918 486.574L335.034 479.219L341.685 465.01Z" fill="#837B63"/>
<path d="M175.576 274.474C175.576 350.137 234.189 415.69 309.576 415.69C384.963 415.69 446.076 354.353 446.076 278.69C446.076 203.027 384.963 141.69 309.576 141.69C267.576 153.474 251.637 162.974 218.576 198.974C196.076 223.474 184.076 240.474 175.576 274.474Z" fill="url(#paint20_radial_864_837)"/>
<path d="M316.347 254.165C334.054 281.432 372.192 288.467 398.465 271.405C424.739 254.343 420.024 226.564 402.317 199.297C384.61 172.031 347.556 156.716 321.283 173.778C295.01 190.84 298.639 226.898 316.347 254.165Z" fill="#4E3B21"/>
<path d="M291.592 306.812C291.899 305.829 291.212 304.348 289.995 303.642C288.842 302.912 287.578 303.092 287.271 304.074L287.237 304.184C286.493 306.197 285.175 307.651 283.354 308.328C279.319 309.827 274.457 306.615 272.508 301.259C271.982 299.814 271.716 298.273 271.673 296.937C271.724 295.857 270.838 294.642 269.584 294.24C268.329 293.837 267.254 294.333 267.139 295.437C267.139 295.437 267.139 295.437 267.17 295.522C267.132 297.853 267.511 300.317 268.409 302.782C271.472 311.198 279.022 316.113 285.269 313.793C288.392 312.633 290.503 310.111 291.592 306.812Z" fill="url(#paint21_linear_864_837)"/>
<path opacity="0.45" d="M291.592 306.812C291.899 305.829 291.212 304.348 289.995 303.642C288.842 302.912 287.578 303.092 287.271 304.074L287.237 304.184C286.493 306.197 285.175 307.651 283.354 308.328C279.319 309.827 274.457 306.615 272.508 301.259C271.982 299.814 271.716 298.273 271.673 296.937C271.724 295.857 270.838 294.642 269.584 294.24C268.329 293.837 267.254 294.333 267.139 295.437C267.139 295.437 267.139 295.437 267.17 295.522C267.132 297.853 267.511 300.317 268.409 302.782C271.472 311.198 279.022 316.113 285.269 313.793C288.392 312.633 290.503 310.111 291.592 306.812Z" fill="#BEBED0"/>
<path opacity="0.25" d="M287.302 304.159C286.626 305.954 285.504 307.336 283.939 308.11C284.134 308.038 284.329 307.965 284.459 307.917C286.021 307.337 287.899 305.192 288.483 303.142C288.126 303.177 287.411 303.443 287.302 304.159Z" fill="#46395B"/>
<path opacity="0.25" d="M269.385 302.42C268.549 300.125 268.259 298.11 268.068 295.961C268.012 295.403 267.991 294.735 268.032 294.238C267.706 294.359 267.279 294.807 267.204 295.414C267.166 297.744 267.577 300.293 268.474 302.759C271.537 311.174 279.087 316.089 285.334 313.769C285.659 313.648 285.984 313.527 286.214 313.346C280.271 314.878 272.819 311.856 269.385 302.42Z" fill="#46395B"/>
<path opacity="0.3" d="M287.464 310.082C287.179 309.705 286.73 309.486 286.37 309.716C286.011 309.946 285.651 310.176 285.261 310.321C282.689 311.373 279.756 310.822 277.263 309.046C276.879 308.803 276.457 308.863 276.256 309.324C275.989 309.809 276.237 310.489 276.652 310.817C279.625 312.897 283.072 313.643 286.069 312.337C286.524 312.168 286.949 311.914 287.373 311.66C287.798 311.405 287.81 310.629 287.464 310.082Z" fill="#575878"/>
<path d="M288.385 488.298C289.044 489.291 288.834 490.699 287.927 491.457C287.02 492.215 285.663 492.068 285.004 491.076C284.958 490.997 284.958 490.997 284.912 490.918C283.476 489.003 281.557 487.486 279.479 486.918C274.856 485.529 271.097 488.748 271.008 494.034C270.961 495.45 271.242 496.883 271.746 498.29C272.182 499.309 271.716 500.55 270.578 500.913C269.486 501.355 268.168 500.865 267.685 499.767C267.685 499.767 267.685 499.767 267.639 499.688C266.791 497.42 266.296 494.941 266.338 492.566C266.428 484.289 272.354 479.343 279.581 481.518C283.024 482.654 286.047 485.11 288.385 488.298Z" fill="url(#paint22_linear_864_837)"/>
<path opacity="0.25" d="M284.958 490.997C283.66 489.32 281.952 487.89 280.108 487.181C280.318 487.269 280.541 487.242 280.751 487.329C282.561 487.845 285.235 489.976 286.553 491.961C286.062 491.936 285.268 491.665 284.958 490.997Z" fill="#46395B"/>
<path opacity="0.25" d="M267.342 492.925C267.3 495.3 267.694 497.199 268.332 499.379C268.538 500.003 268.697 500.548 268.915 501.057C268.542 500.961 267.983 500.549 267.673 499.881C266.825 497.614 266.33 495.135 266.326 492.681C266.416 484.404 272.342 479.457 279.568 481.632C279.942 481.728 280.257 481.859 280.677 482.034C273.971 480.615 267.428 483.689 267.342 492.925Z" fill="#46395B"/>
<path opacity="0.3" d="M282.969 485.143C282.813 485.557 282.414 485.69 281.994 485.515C281.574 485.34 281.108 485.086 280.688 484.911C277.724 483.914 274.969 484.5 273.012 486.316C272.705 486.607 272.227 486.467 271.878 486.143C271.437 485.66 271.395 485.044 271.761 484.718C274.025 482.611 277.237 481.857 280.785 483.037C281.31 483.256 281.835 483.474 282.36 483.693C282.885 483.912 283.137 484.615 282.969 485.143Z" fill="#575878"/>
<path d="M274.113 337.806L278.208 329.08C279.081 327.274 279.035 324.984 278.042 322.653C277.116 320.385 275.42 318.43 273.335 317.048C268.92 314.147 263.907 314.809 262.182 318.535L258.087 327.261C256.361 330.987 258.543 336.393 262.959 339.293C267.375 342.194 272.387 341.532 274.113 337.806ZM273.571 323.259C273.99 324.304 274.004 325.253 273.658 326.054L269.563 334.78C268.826 336.433 266.614 336.71 264.663 335.453C262.713 334.196 261.765 331.815 262.502 330.162L266.597 321.436C267.334 319.783 269.547 319.506 271.497 320.763C272.439 321.36 273.219 322.275 273.571 323.259Z" fill="url(#paint23_linear_864_837)"/>
<g opacity="0.35">
<path d="M271.008 334.537L275.103 325.811C275.449 325.01 275.48 324.01 275.016 323.015C274.619 322.083 273.838 321.168 272.942 320.52C271.619 319.661 270.268 319.524 269.203 320.029C269.925 320.046 270.802 320.302 271.564 320.826C272.505 321.423 273.219 322.276 273.638 323.321C274.056 324.367 274.07 325.316 273.725 326.117L269.63 334.843C269.399 335.377 268.967 335.723 268.469 336.007C269.574 336.008 270.526 335.491 271.008 334.537Z" fill="#26366F"/>
<path d="M264.337 338.987C259.921 336.087 257.739 330.681 259.465 326.955L263.559 318.229C264.272 316.741 265.522 315.753 266.97 315.231C264.803 315.457 263.012 316.502 262.114 318.473L258.019 327.198C256.293 330.925 258.476 336.33 262.891 339.231C265.536 340.949 268.396 341.462 270.635 340.741C268.739 340.939 266.421 340.369 264.337 338.987Z" fill="#26366F"/>
</g>
<path opacity="0.3" d="M273.826 319.94C275.146 321.077 276.102 322.623 276.403 324.214C276.596 325.237 276.385 326.163 276.039 326.964L275.256 328.669C275.256 328.669 274.98 329.254 274.774 329.623C274.613 329.941 274.812 330.407 275.147 330.72C275.595 331.044 276.091 331.039 276.298 330.67C277.332 328.545 277.587 327.846 277.587 327.846C278.3 326.358 278.226 324.511 277.478 322.596C276.839 320.97 275.543 319.668 274.671 318.855C274.268 318.48 273.727 318.536 273.566 318.854C273.359 319.223 273.445 319.678 273.826 319.94Z" fill="#575878"/>
<path opacity="0.3" d="M264.296 336.141C262.976 335.003 262.021 333.457 261.72 331.866C261.526 330.843 261.738 329.917 262.083 329.116L262.268 328.633C262.268 328.633 262.544 328.048 262.751 327.679C262.912 327.36 262.713 326.894 262.378 326.582C261.93 326.257 261.433 326.263 261.227 326.632C260.192 328.757 260.536 328.234 260.536 328.234C259.823 329.722 259.896 331.569 260.645 333.485C261.284 335.11 262.58 336.412 263.452 337.225C263.854 337.601 264.396 337.544 264.557 337.226C264.763 336.857 264.677 336.402 264.296 336.141Z" fill="#575878"/>
<path opacity="0.45" d="M273.314 316.934C275.399 318.316 277.094 320.271 278.02 322.539C278.837 324.517 279.022 326.375 278.511 328.051C277.027 327.511 275.297 326.833 273.521 326.207L273.591 325.991C273.937 325.19 273.969 324.19 273.504 323.196C273.107 322.264 272.326 321.348 271.43 320.7C269.48 319.443 267.267 319.72 266.53 321.373L265.311 323.981C263.487 323.684 261.618 323.438 259.633 323.46L261.935 318.398C263.84 314.746 268.898 314.033 273.314 316.934Z" fill="#9A9A9A"/>
<path d="M264.506 367.041L267.3 357.57C267.86 355.565 267.588 353.252 266.324 350.949C265.194 348.772 263.295 346.907 261.141 345.741C256.54 343.323 251.815 344.628 250.583 348.627L247.789 358.098C246.624 362.16 249.393 367.458 253.948 369.927C258.616 372.407 263.341 371.103 264.506 367.041ZM262.186 352.146C262.696 353.09 262.844 354.164 262.565 355.027L259.772 364.498C259.281 366.288 257.179 366.854 255.205 365.762C253.185 364.721 251.966 362.368 252.523 360.641L255.317 351.17C255.807 349.38 257.91 348.813 259.884 349.906C260.871 350.452 261.676 351.202 262.186 352.146Z" fill="url(#paint24_linear_864_837)"/>
<g opacity="0.35">
<path d="M261.127 364.078L263.921 354.608C264.2 353.744 264.006 352.721 263.542 351.727C263.032 350.783 262.206 349.919 261.286 349.435C259.939 348.741 258.563 348.769 257.633 349.399C258.333 349.303 259.143 349.496 259.996 349.917C260.916 350.401 261.788 351.214 262.252 352.209C262.762 353.152 262.91 354.226 262.631 355.09L259.838 364.561C259.674 365.157 259.31 365.566 258.878 365.912C259.894 365.737 260.779 365.158 261.127 364.078Z" fill="#26366F"/>
<path d="M255.304 369.507C250.703 367.09 247.934 361.792 249.144 357.679L251.938 348.208C252.404 346.583 253.452 345.407 254.879 344.772C252.868 345.237 251.254 346.633 250.648 348.69L247.854 358.161C246.689 362.223 249.459 367.521 254.014 369.99C256.774 371.44 259.569 371.612 261.631 370.54C259.732 371.016 257.504 370.622 255.304 369.507Z" fill="#26366F"/>
</g>
<path opacity="0.3" d="M261.992 348.782C263.403 349.817 264.495 351.21 264.976 352.875C265.282 353.909 265.25 354.909 264.972 355.773L264.436 357.614C264.436 357.614 264.273 358.21 264.088 358.693C263.994 359.074 264.238 359.489 264.552 359.688C265 360.012 265.475 359.893 265.614 359.461C266.335 357.137 266.522 356.376 266.522 356.376C266.988 354.751 266.69 352.882 265.783 351.006C264.986 349.42 263.531 348.158 262.635 347.509C262.187 347.185 261.646 347.242 261.552 347.622C261.413 348.054 261.611 348.52 261.992 348.782Z" fill="#575878"/>
<path opacity="0.3" d="M254.859 366.563C253.448 365.527 252.355 364.135 251.875 362.469C251.569 361.435 251.6 360.435 251.879 359.571L251.997 359.026C251.997 359.026 252.16 358.429 252.345 357.947C252.439 357.566 252.195 357.151 251.881 356.952C251.433 356.628 250.958 356.747 250.819 357.179C250.098 359.502 250.262 358.906 250.262 358.906C249.795 360.53 250.094 362.4 251.001 364.276C251.798 365.862 253.252 367.124 254.148 367.772C254.596 368.097 255.138 368.04 255.232 367.659C255.438 367.29 255.24 366.824 254.859 366.563Z" fill="#575878"/>
<path d="M259.888 398.121L261.11 387.933C261.356 385.728 260.701 383.432 259.187 381.272C257.741 379.174 255.726 377.576 253.457 376.677C248.739 374.805 244.435 376.876 243.943 381.285L242.721 391.473C242.162 395.82 245.61 400.908 250.374 402.729C255.026 404.539 259.329 402.467 259.888 398.121ZM255.449 383.122C256.072 384.077 256.378 385.112 256.279 386.049L255.057 396.237C254.814 398.163 252.934 399.031 250.912 398.268C248.822 397.443 247.354 395.232 247.552 393.357L248.774 383.169C249.017 381.243 250.897 380.375 252.92 381.137C253.931 381.519 254.781 382.218 255.449 383.122Z" fill="url(#paint25_linear_864_837)"/>
<g opacity="0.35">
<path d="M256.191 395.516L257.413 385.328C257.512 384.39 257.206 383.356 256.584 382.401C255.915 381.497 255.065 380.798 254.054 380.416C252.683 379.887 251.396 380.091 250.621 380.96C251.299 380.75 252.088 380.83 252.919 381.137C253.931 381.519 254.781 382.218 255.449 383.122C256.072 384.077 256.378 385.111 256.279 386.049L255.057 396.237C255.006 396.845 254.709 397.316 254.344 397.725C255.339 397.436 256.023 396.669 256.191 395.516Z" fill="#26366F"/>
<path d="M251.508 402.008C246.789 400.135 243.363 395.161 243.854 390.752L245.076 380.564C245.296 378.803 246.143 377.44 247.301 376.554C245.467 377.371 244.167 378.967 243.875 381.223L242.653 391.41C242.094 395.757 245.543 400.845 250.306 402.666C253.115 403.787 255.757 403.442 257.55 402.119C255.92 402.846 253.777 402.907 251.508 402.008Z" fill="#26366F"/>
</g>
<path opacity="0.3" d="M254.737 379.65C256.218 380.469 257.468 381.822 258.153 383.397C258.617 384.391 258.698 385.403 258.599 386.34L258.377 388.38C258.377 388.38 258.281 389.039 258.209 389.534C258.161 389.863 258.472 390.341 258.786 390.54C259.279 390.813 259.733 390.58 259.759 390.137C260.053 387.603 260.128 386.83 260.128 386.83C260.347 385.069 259.711 383.165 258.554 381.431C257.553 379.936 256.03 378.889 255.088 378.292C254.595 378.019 254.12 378.138 254.048 378.632C254.112 378.973 254.311 379.439 254.737 379.65Z" fill="#575878"/>
<path opacity="0.3" d="M250.679 399.081C249.198 398.261 247.948 396.908 247.263 395.334C246.799 394.339 246.718 393.328 246.817 392.39L246.822 391.833C246.822 391.833 246.918 391.174 246.991 390.68C247.039 390.35 246.727 389.873 246.414 389.674C245.92 389.401 245.467 389.633 245.44 390.077C245.146 392.611 245.242 391.952 245.242 391.952C245.023 393.713 245.659 395.617 246.816 397.351C247.817 398.846 249.341 399.892 250.282 400.49C250.776 400.763 251.251 400.644 251.323 400.149C251.35 399.706 251.105 399.291 250.679 399.081Z" fill="#575878"/>
<path d="M259.772 430.214L259.577 419.548C259.531 417.258 258.538 414.928 256.887 412.921C255.192 410.965 253.107 409.583 250.835 408.962C246.066 407.698 242.275 410.434 242.413 414.963L242.608 425.629C242.701 430.209 246.693 434.962 251.395 436.164C256.052 437.417 259.843 434.68 259.772 430.214ZM253.528 415.311C254.241 416.164 254.66 417.209 254.741 418.221L254.935 428.887C254.984 430.898 253.327 432.068 251.235 431.521C249.143 430.974 247.426 428.905 247.377 426.893L247.182 416.228C247.133 414.216 248.79 413.046 250.883 413.593C251.805 413.798 252.768 414.509 253.528 415.311Z" fill="url(#paint26_linear_864_837)"/>
<g opacity="0.35">
<path d="M255.935 428.04L255.741 417.374C255.727 416.425 255.308 415.379 254.528 414.464C253.814 413.611 252.872 413.014 251.883 412.746C250.488 412.382 249.289 412.762 248.694 413.705C249.305 413.432 250.072 413.399 250.882 413.592C251.872 413.86 252.814 414.457 253.528 415.31C254.241 416.163 254.66 417.209 254.741 418.22L254.935 428.886C254.952 429.556 254.767 430.039 254.469 430.511C255.33 430.097 255.992 429.216 255.935 428.04Z" fill="#26366F"/>
<path d="M252.282 435.306C247.513 434.042 243.587 429.351 243.495 424.771L243.3 414.105C243.227 412.259 243.827 410.759 244.897 409.697C243.218 410.753 242.254 412.661 242.255 415.003L242.449 425.668C242.542 430.248 246.534 435.001 251.236 436.203C254.093 436.995 256.558 436.297 258.129 434.673C256.654 435.638 254.599 435.876 252.282 435.306Z" fill="#26366F"/>
</g>
<path opacity="0.3" d="M252.365 411.793C253.87 412.447 255.257 413.647 256.167 415.244C256.744 416.25 256.983 417.222 257.018 418.285L257.089 420.41C257.089 420.41 257.105 421.081 257.1 421.638C257.119 422.03 257.409 422.393 257.835 422.604C258.307 422.763 258.76 422.531 258.742 422.139C258.676 419.456 258.638 418.672 258.638 418.672C258.565 416.825 257.771 414.961 256.41 413.318C255.251 411.863 253.658 411.032 252.625 410.537C252.198 410.327 251.678 410.497 251.719 411.003C251.649 411.218 251.893 411.633 252.365 411.793Z" fill="#575878"/>
<path opacity="0.3" d="M251.181 432.408C249.676 431.754 248.289 430.554 247.38 428.957C246.803 427.951 246.563 426.979 246.528 425.916L246.466 425.297C246.466 425.297 246.45 424.626 246.455 424.069C246.436 423.677 246.146 423.313 245.72 423.103C245.248 422.943 244.795 423.176 244.814 423.568C244.879 426.25 244.841 425.466 244.841 425.466C244.914 427.313 245.709 429.177 247.069 430.82C248.228 432.276 249.822 433.106 250.854 433.601C251.281 433.812 251.801 433.642 251.761 433.136C251.898 432.983 251.541 432.556 251.181 432.408Z" fill="#575878"/>
<path d="M268.57 463.881L264.816 452.798C264.049 450.491 262.422 448.319 260.317 446.823C258.211 445.327 255.917 444.593 253.841 444.717C249.419 444.992 247.036 449.043 248.66 453.834L252.414 464.917C254.017 469.594 258.967 473.274 263.502 473.009C267.857 472.671 270.127 468.61 268.57 463.881ZM258.186 450.453C259.082 451.101 259.817 452.068 260.169 453.051L263.922 464.134C264.647 466.214 263.594 467.947 261.631 468.082C259.667 468.217 257.54 466.607 256.815 464.527L253.061 453.444C252.337 451.364 253.39 449.632 255.353 449.497C256.345 449.486 257.29 449.805 258.186 450.453Z" fill="url(#paint27_linear_864_837)"/>
<g opacity="0.35">
<path d="M264.519 462.913L260.766 451.83C260.414 450.847 259.679 449.881 258.783 449.232C257.887 448.584 256.83 448.254 255.95 448.276C254.641 448.366 253.754 449.224 253.518 450.314C253.974 449.803 254.585 449.531 255.352 449.497C256.278 449.424 257.289 449.805 258.185 450.454C259.081 451.102 259.816 452.068 260.168 453.052L263.921 464.135C264.163 464.828 264.225 465.447 264.062 466.044C264.745 465.277 264.981 464.186 264.519 462.913Z" fill="#26366F"/>
<path d="M263.919 471.715C259.496 471.991 254.501 468.362 252.831 463.622L249.077 452.539C248.441 450.635 248.435 448.851 248.923 447.34C247.915 449.021 247.623 451.277 248.48 453.76L252.233 464.843C253.836 469.521 258.786 473.2 263.321 472.936C266.006 472.818 267.915 471.229 268.657 469.019C267.673 470.535 266.04 471.54 263.919 471.715Z" fill="#26366F"/>
</g>
<path opacity="0.3" d="M256.074 447.173C257.538 447.322 259.177 448.101 260.427 449.455C261.254 450.319 261.764 451.262 262.183 452.308L262.929 454.502C262.929 454.502 263.171 455.195 263.391 455.775C263.522 456.179 263.925 456.554 264.308 456.537C264.759 456.583 265.078 456.225 264.925 455.708C263.958 452.934 263.695 452.127 263.695 452.127C263.059 450.223 261.744 448.529 260.019 447.295C258.541 446.197 256.921 445.81 255.84 445.645C255.389 445.599 255.07 445.957 255.156 446.411C255.288 446.815 255.623 447.128 256.074 447.173Z" fill="#575878"/>
<path opacity="0.3" d="M261.915 469.003C260.451 468.855 258.812 468.075 257.562 466.722C256.735 465.858 256.225 464.914 255.807 463.868L255.586 463.289C255.586 463.289 255.345 462.595 255.125 462.016C254.993 461.612 254.545 461.288 254.207 461.254C253.757 461.208 253.437 461.566 253.591 462.083C254.557 464.856 254.248 464.1 254.248 464.1C254.885 466.004 256.2 467.699 257.925 468.933C259.403 470.03 261.023 470.418 262.104 470.583C262.554 470.629 262.873 470.271 262.787 469.816C262.768 469.424 262.366 469.049 261.915 469.003Z" fill="#575878"/>
<g opacity="0.45">
<path d="M269.059 467.051C267.719 468.141 265.775 468.669 263.546 468.275L262.285 468.036C263.867 467.639 264.671 466.048 263.989 464.196L263.815 463.565C265.462 463.509 266.555 462.282 266.324 460.475C266.198 459.515 265.733 458.52 264.974 457.718C264.148 456.854 263.16 456.308 262.192 456.154L261.224 456L260.303 453.175C259.973 452.306 259.439 451.527 258.701 450.839L261.74 451.426C262.775 451.642 263.719 451.961 264.752 452.456C264.841 452.632 264.862 452.746 264.951 452.922L268.704 464.005C268.943 464.977 269.091 466.051 269.059 467.051Z" fill="#575878"/>
<path d="M252.28 464.791L251.051 461.21C251.343 461.296 251.59 461.432 251.928 461.466L256.093 462.168L256.861 464.475C257.256 465.686 258.238 466.789 259.338 467.347L252.943 466.252C252.699 465.837 252.5 465.371 252.28 464.791Z" fill="#575878"/>
<path d="M250.574 449.345L254.063 449.978C253.02 450.597 252.624 452.006 253.129 453.506L253.48 454.49L251.139 454.085C250.216 453.88 249.425 454.078 248.857 454.578L248.593 453.771C248.067 452.157 247.991 450.588 248.297 449.281C248.93 449.123 249.718 449.203 250.574 449.345Z" fill="#575878"/>
</g>
<path d="M268.423 326.414C266.832 325.305 266.083 323.39 266.772 322.066L275.544 305.064C276.232 303.741 278.016 303.531 279.607 304.64C280.369 305.164 280.948 305.891 281.211 306.698C281.52 307.454 281.512 308.29 281.191 308.926L272.486 325.99C271.797 327.314 269.946 327.46 268.423 326.414Z" fill="url(#paint28_linear_864_837)"/>
<path opacity="0.45" d="M268.423 326.414C266.832 325.305 266.083 323.39 266.772 322.066L275.544 305.064C276.232 303.741 278.016 303.531 279.607 304.64C280.369 305.164 280.948 305.891 281.211 306.698C281.52 307.454 281.512 308.29 281.191 308.926L272.486 325.99C271.797 327.314 269.946 327.46 268.423 326.414Z" fill="#9A9A9A"/>
<path opacity="0.3" d="M272.161 319.602C271.265 318.954 270.964 317.363 271.653 316.039L274.638 310.211C275.327 308.887 276.617 308.405 277.559 309.002C278.007 309.326 278.339 309.918 278.401 310.537C278.463 311.156 278.388 311.929 278.067 312.565L275.081 318.394C274.459 319.78 273.17 320.262 272.161 319.602Z" fill="#575878"/>
<path opacity="0.35" d="M270.398 322.545C269.569 321.959 268.968 321.118 268.705 320.311L277.109 303.997C276.41 304.093 275.865 304.428 275.544 305.064L268.747 318.197L267.184 321.327L266.772 322.066C266.083 323.389 266.832 325.305 268.423 326.414C270.014 327.523 271.797 327.314 272.486 325.99L274.461 322.122C273.772 323.445 271.922 323.592 270.398 322.545Z" fill="#26366F"/>
<path d="M258.282 354.871C256.667 353.927 255.76 352.051 256.314 350.602L263.069 332.281C263.578 330.883 265.273 330.498 266.955 331.505C267.762 331.977 268.388 332.654 268.763 333.472C269.139 334.291 269.177 335.075 268.922 335.773L262.168 354.095C261.592 355.43 259.897 355.815 258.282 354.871Z" fill="url(#paint29_linear_864_837)"/>
<path opacity="0.3" d="M261.258 347.537C260.271 346.991 259.903 345.337 260.412 343.939L262.703 337.651C263.212 336.253 264.413 335.595 265.401 336.141C265.894 336.414 266.227 337.005 266.401 337.636C266.576 338.267 266.501 339.039 266.247 339.738L263.956 346.027C263.401 347.476 262.2 348.134 261.258 347.537Z" fill="#575878"/>
<path opacity="0.35" d="M259.763 350.73C258.889 350.195 258.242 349.405 257.933 348.649L264.388 331.078C263.755 331.236 263.232 331.685 263.023 332.333L257.796 346.462L256.547 349.791L256.201 350.592C255.692 351.989 256.554 353.916 258.169 354.86C259.784 355.805 261.546 355.482 262.055 354.084L263.582 349.892C263.073 351.289 261.378 351.674 259.763 350.73Z" fill="#26366F"/>
<path d="M252.186 387.194C250.502 386.466 249.324 384.618 249.653 383.147L253.288 363.227C253.55 361.693 255.135 361.018 256.774 361.797C257.627 362.218 258.343 362.792 258.765 363.56C259.232 364.276 259.449 365.134 259.262 365.895L255.627 385.816C255.41 387.299 253.871 387.923 252.186 387.194Z" fill="url(#paint30_linear_864_837)"/>
<path opacity="0.8" d="M253.817 379.166C252.784 378.671 252.212 377.108 252.475 375.574L253.505 369.046C253.767 367.512 255.634 368.036 255.634 368.036C256.42 368.394 257.469 369.56 257.394 370.333L256.203 377.179C255.895 378.764 254.895 379.61 253.817 379.166Z" fill="#575878"/>
<path opacity="0.35" d="M252.995 382.705C252.097 382.335 251.404 381.596 250.916 380.766L254.363 361.607C253.752 361.88 253.342 362.34 253.267 363.113L250.486 378.493L249.844 382.107L249.678 382.982C249.415 384.516 250.526 386.301 252.211 387.029C253.895 387.757 255.435 387.133 255.697 385.599L256.505 381.111C256.265 382.758 254.68 383.434 252.995 382.705Z" fill="#26366F"/>
<path opacity="0.8" d="M253.847 368.523C253.209 369.238 253.446 370.488 254.318 371.302C255.189 372.115 256.429 372.24 257.067 371.525C257.705 370.809 257.468 369.559 256.596 368.746C255.724 367.933 254.485 367.807 253.847 368.523Z" fill="#575878"/>
<path d="M250.508 420.077C248.799 419.513 247.53 417.768 247.612 416.16L248.865 395.329C248.948 393.721 250.398 392.921 252.107 393.485C252.938 393.792 253.7 394.315 254.234 395.094C254.747 395.759 255.077 396.629 255.002 397.401L253.749 418.232C253.6 419.778 252.216 420.641 250.508 420.077Z" fill="url(#paint31_linear_864_837)"/>
<path opacity="0.3" d="M251.24 411.679C250.183 411.349 249.498 409.774 249.581 408.166L250.053 401.024C250.136 399.416 251.047 398.394 252.058 398.775C252.53 398.934 253.067 399.435 253.354 400.077C253.641 400.719 253.792 401.515 253.784 402.35L253.312 409.493C253.208 410.987 252.297 412.009 251.24 411.679Z" fill="#575878"/>
<path opacity="0.35" d="M250.777 415.366C249.833 415.047 249.116 414.473 248.582 413.694L249.782 393.75C249.238 394.085 248.849 394.658 248.887 395.443L247.903 411.563L247.687 415.387L247.634 416.273C247.551 417.881 248.821 419.627 250.529 420.19C252.238 420.754 253.689 419.953 253.771 418.345L254.04 413.635C253.915 415.016 252.485 415.93 250.777 415.366Z" fill="#26366F"/>
<path d="M256.949 455.289C255.259 455.118 253.649 453.617 253.327 451.912L248.998 429.901C248.675 428.197 249.769 426.97 251.459 427.141C252.247 427.221 253.1 427.642 253.771 428.268C254.442 428.893 254.863 429.661 255.081 430.519L259.41 452.529C259.732 454.234 258.638 455.461 256.949 455.289Z" fill="url(#paint32_linear_864_837)"/>
<path opacity="0.3" d="M255.475 446.334C254.461 446.231 253.415 444.787 253.046 443.133L251.561 435.569C251.238 433.864 251.769 432.58 252.782 432.683C253.279 432.678 253.861 433.127 254.239 433.667C254.685 434.27 254.993 435.026 255.211 435.884L256.697 443.448C257.019 445.153 256.489 446.437 255.475 446.334Z" fill="#575878"/>
<path opacity="0.35" d="M256.003 450.288C255.102 450.197 254.249 449.776 253.624 449.099L249.512 427.947C249.102 428.407 248.96 429.117 249.111 429.913L252.448 446.973L253.267 451.014L253.507 451.986C253.829 453.691 255.439 455.192 257.129 455.363C258.818 455.535 259.912 454.308 259.59 452.603L258.644 447.602C258.719 449.171 257.693 450.46 256.003 450.288Z" fill="#26366F"/>
<path d="M274.008 490.297C272.539 490.705 270.631 489.675 269.767 488.027L258.578 466.546C257.714 464.898 258.225 463.222 259.695 462.814C260.441 462.667 261.229 462.747 262.037 463.219C262.777 463.628 263.515 464.316 263.891 465.135L275.08 486.615C275.99 488.213 275.478 489.889 274.008 490.297Z" fill="url(#paint33_linear_864_837)"/>
<path opacity="0.3" d="M269.625 481.435C268.789 481.684 267.356 480.535 266.492 478.887L262.659 471.475C261.795 469.826 261.832 468.269 262.736 468.083C263.21 467.963 263.75 468.185 264.332 468.635C264.914 469.084 265.493 469.812 265.869 470.63L269.702 478.042C270.566 479.691 270.575 481.196 269.625 481.435Z" fill="#575878"/>
<path opacity="0.35" d="M271.483 485.413C270.692 485.612 269.837 485.469 269.029 484.997L258.328 464.346C258.165 464.943 258.27 465.79 258.691 466.557L267.355 483.155L269.371 487.094L269.881 488.037C270.745 489.686 272.652 490.716 274.122 490.307C275.591 489.899 276.103 488.223 275.239 486.575L272.713 481.692C273.465 483.329 272.953 485.005 271.483 485.413Z" fill="#26366F"/>
<path d="M274.576 276.974L351.076 313.474L350.576 309.974L383.076 312.474L416.076 304.474L425.576 286.474L427.576 268.974L442.076 247.474L437.076 307.474L409.576 315.474L413.576 319.474L375.576 330.474L329.076 318.474L345.576 330.474L311.576 315.474L262.076 290.474L242.076 243.474L258.576 177.974L286.076 150.974L334.076 143.974L286.076 159.474L274.576 181.474L272.076 175.974L258.576 222.974L265.576 254.974L266.576 228.974L274.576 276.974Z" fill="url(#paint34_linear_864_837)"/>
<path d="M286.222 495.28L283.544 486.048L279.214 484.614L271.184 488.575L272.444 502.232L281.341 501.723L286.222 495.28Z" fill="url(#paint35_linear_864_837)"/>
<path d="M355.852 485.091L355.5 474.729L351.293 473.286L343.472 477.334L345.056 485.485L353.309 490.656L355.852 485.091Z" fill="url(#paint36_linear_864_837)"/>
<path d="M394.509 259.373C394.631 260.46 394.026 266.336 392.707 267.423C391.487 267.138 391.039 267.541 390.413 267.408C389.873 267.293 389.32 267.205 388.788 267.063C387.34 266.674 385.979 265.836 384.552 265.363C383.611 265.051 382.851 263.524 382.08 262.883C381.494 262.395 381.29 261.647 380.738 261.154C380.266 260.733 378.446 257.508 378.2 256.932C376.734 253.5 375.709 252.357 375.162 248.62C374.675 245.289 372.695 242.063 373.255 238.576C373.395 237.709 373.231 236.812 373.419 235.924L373.948 233.438C374.279 231.879 374.537 230.281 374.946 228.742C375.332 227.287 376.063 225.91 376.786 224.58C377.631 223.022 378.038 221.114 379.04 219.618C379.673 218.671 380.054 217.182 380.513 216.133C381.108 214.773 381.576 213.25 382.09 211.849C382.932 209.553 383.736 207.14 384.76 204.932C385.625 203.064 386.293 200.866 386.886 198.899C387.547 196.704 390.178 191.502 390.909 189.393C390.695 190.616 391.126 197.723 391.116 198.954C391.095 201.739 391.208 204.316 391.743 207.082C392.055 208.7 392.034 210.355 392.301 211.976C392.516 213.277 392.653 214.736 392.678 216.054C392.739 219.247 392.869 222.47 392.197 225.634C390.581 233.236 389.199 241.829 391.706 249.36C392.292 251.121 392.774 253.011 393.281 254.803C393.714 256.335 394.329 257.782 394.509 259.373Z" fill="#C34FBC"/>
<path d="M364.705 277.732C364.677 277.735 364.65 277.737 364.623 277.74C364.635 277.758 364.663 277.755 364.705 277.732C366.021 277.606 368.172 276.882 369.239 276.189C369.793 275.829 370.633 275.585 371.295 275.449C372.712 275.157 374.076 274.986 375.485 274.541C377.657 273.854 379.801 273.272 381.872 272.289C383.097 271.707 384.245 271.055 385.549 270.661C386.629 270.335 387.717 270.302 388.776 269.848C390.231 269.223 391.994 268.843 392.706 267.424C391.487 267.138 391.176 267.373 390.55 267.24C390.011 267.125 389.408 267.225 388.875 267.082C387.427 266.694 386.067 265.855 384.639 265.382C383.699 265.07 382.938 263.543 382.168 262.902C381.581 262.414 381.377 261.666 380.825 261.173C380.353 260.752 378.533 257.527 378.287 256.951C377.551 258.091 376.07 260.085 375.519 261.322C374.558 263.479 373.089 265.36 371.986 267.445C370.744 269.792 369.593 272.236 367.877 274.289C367.608 274.611 365.2 277.471 364.705 277.732Z" fill="#832FA0"/>
<path d="M356.27 272.232C355.552 271.368 354.439 270.456 354.019 269.4C354.375 268.33 355 266.507 355.119 265.947C355.332 264.946 356.053 264.123 356.312 263.158C356.459 262.61 356.858 262.022 357.156 261.538C357.462 261.041 357.474 260.432 357.757 259.911C358.205 259.086 358.502 257.902 358.81 256.993C359.46 255.075 359.708 253.023 360.472 251.161C361.073 249.694 361.109 248.11 361.419 246.654C361.827 244.731 361.633 242.825 362.033 240.943C362.456 238.952 362.683 236.944 363.111 234.932C363.617 232.55 363.92 230.186 364.424 227.815C364.68 226.609 365.409 225.485 365.783 224.295C365.995 223.618 366.933 222.348 367.044 221.635C367.986 222.339 369.804 224.155 370.722 224.934C371.481 225.578 372.047 226.443 372.736 227.161C372.926 227.359 375.618 228.769 375.208 228.797C374.799 230.337 374.541 231.935 374.21 233.493L373.681 235.979C373.493 236.868 373.657 237.765 373.517 238.632C372.957 242.119 374.937 245.345 375.424 248.676C375.971 252.412 376.996 253.556 378.462 256.987C377.725 258.128 376.245 260.122 375.694 261.358C374.733 263.515 373.263 265.397 372.16 267.481C370.918 269.829 369.768 272.272 368.052 274.325C367.76 274.674 364.95 278.012 364.797 277.776C363.733 277.86 360.9 278.176 360.183 276.862C359.858 276.266 359.058 275.58 358.593 275.047C357.789 274.127 357.056 273.178 356.27 272.232Z" fill="#9440A2"/>
<path d="M362.982 223.655C363.285 222.226 363.313 221.116 363.648 219.541C364.189 218.284 366.97 221.107 367.366 221.403C367.255 222.116 366.317 223.386 366.104 224.063C365.731 225.253 365.002 226.376 364.746 227.583C364.242 229.953 363.939 232.317 363.433 234.699C363.005 236.711 362.778 238.72 362.355 240.711C361.955 242.592 362.149 244.498 361.741 246.421C361.431 247.878 361.395 249.462 360.794 250.928C360.03 252.791 359.782 254.843 359.132 256.76C358.824 257.67 358.527 258.853 358.079 259.679C357.796 260.2 357.784 260.809 357.478 261.306C357.179 261.789 356.781 262.378 356.634 262.925C356.375 263.89 355.654 264.714 355.441 265.715C355.322 266.275 354.453 268.573 354.096 269.642C353.239 267.489 352.811 264.81 352.005 262.652C351.603 261.576 351.536 260.337 351.177 259.234C350.854 258.24 350.518 257.069 350.347 256.037C350.051 254.262 349.484 252.365 349.863 250.582C350.336 248.354 351.592 246.401 352.541 244.355C353.442 242.412 354.289 240.446 355.261 238.559C356.061 237.006 356.531 235.299 357.394 233.749C358.43 231.888 359.467 230.051 360.566 228.227C361.48 226.712 362.601 225.445 362.982 223.655Z" fill="#8A3B96"/>
<path d="M384.822 193.863C385.813 193.309 390.029 190.162 390.91 189.393C390.178 191.502 387.81 196.76 387.149 198.955C386.556 200.922 385.888 203.12 385.023 204.988C383.999 207.196 383.195 209.609 382.353 211.905C381.839 213.306 381.371 214.829 380.776 216.189C380.317 217.238 379.936 218.727 379.303 219.674C378.301 221.17 377.894 223.078 377.049 224.636C376.326 225.966 375.595 227.343 375.209 228.797C373.693 229.085 372.927 227.359 372.736 227.161C372.048 226.443 371.482 225.578 370.722 224.934C369.804 224.156 367.986 222.339 367.045 221.635C366.649 221.34 363.862 220.341 363.593 219.804C364.173 218.735 364.272 217.048 365.129 216.139C365.99 215.226 366.825 214.362 367.602 213.389C368.952 211.695 370.342 210.077 371.488 208.218C372.545 206.503 373.991 205.403 375.295 203.942C376.648 202.426 378.03 200.893 379.466 199.42C380.677 198.178 381.657 196.687 382.982 195.57C383.656 195.003 384.032 194.304 384.822 193.863Z" fill="#C667BC"/>
<path d="M351.36 244.53C349.689 246.35 344.148 251.916 342.419 253.676L342.461 252.463L345.698 247.577C345.698 247.577 346.388 245.099 346.802 243.496C347.358 241.347 347.573 239.104 348.064 236.931C348.603 234.547 347.935 232.199 347.766 229.827C347.631 227.936 347.478 226.016 347.287 224.139C347.141 222.707 347.313 221.079 346.923 219.702C346.552 218.394 346.707 212.708 346.45 211.331C347.191 212.54 349.406 217.321 350.414 218.323C353.048 220.939 355.518 221.32 357.581 224.355C358.343 225.476 359.806 225.934 360.104 227.223C359.112 231.429 358.354 236.194 355.408 239.621C354.662 240.489 354.183 241.514 353.403 242.363C352.731 243.095 352.031 243.8 351.36 244.53Z" fill="#5A2373"/>
<path d="M335.045 245.869C334.123 242.503 333.965 238.973 333.124 235.57C332.797 235.631 333.705 228.51 333.949 227.661C334.111 227.096 334.099 226.467 334.501 225.88C335.653 224.199 336.659 222.379 337.738 220.648C338.307 219.736 338.881 218.822 339.427 217.906C340.004 216.94 340.986 216.229 341.602 215.28C342.229 214.314 343.36 213.149 344.328 212.542C345.342 211.905 345.994 211.578 347.026 210.924C347.283 212.301 346.888 218.166 347.259 219.475C347.649 220.852 347.477 222.48 347.623 223.912C347.813 225.789 347.967 227.708 348.101 229.6C348.27 231.972 348.938 234.32 348.4 236.703C347.909 238.877 347.693 241.12 347.138 243.269C346.724 244.872 345.803 248.279 345.803 248.279L345.797 248.289C345.11 249.409 342.779 252.42 342.419 253.675C341.412 254.559 339.656 255.516 339.17 256.823C339.008 257.259 337.233 259.773 337.038 259.46C336.606 258.77 336.961 257.755 336.837 257.011C336.696 256.162 336.599 255.311 336.44 254.46C335.905 251.589 335.82 248.696 335.045 245.869Z" fill="#772D81"/>
<path d="M363.183 214.72C362.264 218.932 361.089 223.047 360.104 227.222C359.805 225.933 358.242 225.755 357.48 224.633C355.417 221.598 353.268 221.503 350.634 218.886C349.626 217.885 348.629 216.374 347.888 215.165C347.095 213.871 346.866 212.74 346.611 211.279C346.342 209.74 346.57 208.161 346.68 206.628C346.813 204.779 347.812 202.976 347.995 201.138C348.204 199.04 349.011 197.074 349.351 194.994C349.651 193.156 349.839 191.206 350.35 189.425C351.335 185.99 351.753 182.408 352.749 178.932C354.756 171.932 358.385 163.571 360.383 156.602C360.766 160.418 360.829 164.392 361.583 168.206C362.422 172.452 362.17 176.747 362.86 180.983C363.383 184.188 362.762 187.774 362.759 191.018C362.756 194.112 363.079 197.188 363.173 200.276C363.25 202.807 363.472 205.372 363.353 207.909C363.248 210.154 363.669 212.491 363.183 214.72Z" fill="#903A8B"/>
<path d="M360.39 156.604C360.199 156.973 359.093 158.404 358.911 158.662C358.424 159.356 357.936 160.013 357.503 160.741C356.346 162.685 354.041 163.982 352.954 165.98C350.452 170.583 348.2 175.25 345.907 179.935C343.772 184.296 342.318 189.029 340.218 193.4C339.063 195.803 338.521 198.451 337.362 200.84C336.24 203.155 336.264 205.991 335.133 208.302C334.092 210.428 333.475 212.824 332.82 215.108C332.581 215.94 332.154 216.723 331.909 217.577C331.604 218.638 331.614 219.654 331.563 220.75C331.329 225.767 331.901 230.418 333.086 235.334C333.095 235.588 333.125 235.735 333.182 235.724C333.15 235.594 333.118 235.464 333.086 235.334C333.043 234.119 333.471 230.445 333.672 229.743C333.835 229.178 333.941 226.897 334.343 226.31C335.496 224.629 336.502 222.809 337.581 221.078C338.15 220.166 338.723 219.252 339.27 218.336C339.846 217.37 340.829 216.659 341.444 215.71C342.071 214.744 343.202 213.579 344.17 212.971C345.184 212.335 345.585 211.936 346.618 211.281C346.349 209.743 346.578 208.163 346.688 206.631C346.821 204.781 347.819 202.978 348.002 201.141C348.212 199.042 349.018 197.077 349.358 194.997C349.659 193.158 349.846 191.209 350.357 189.428C351.342 185.993 351.76 182.41 352.757 178.935C354.764 171.935 358.392 163.573 360.39 156.604Z" fill="#A5569D"/>
<path d="M343.986 267.872C345.018 268.881 347.828 270.859 349.051 271.634C349.445 271.831 350.966 265.946 351.377 265.288C351.764 264.669 351.694 263.721 351.883 263.035C352.078 262.328 352.379 261.472 352.4 260.74C352.422 259.983 352.392 258.73 352.627 258.052C352.852 257.406 352.56 256.609 352.814 256.006C353.303 254.843 352.958 253.065 352.958 251.809C352.958 249.702 352.347 248.122 351.935 246.145C350.202 243.979 338.424 232.303 336.555 230.214C335.279 230.214 334.028 229.953 332.788 229.953C331.373 229.953 329.571 229.618 328.323 228.905C327.905 229.208 327.315 230.019 326.898 230.55C326.222 231.41 326.052 231.356 325.414 232.251C323.182 235.375 317.837 237.296 318.172 241.994C319.656 244.153 321.873 246.131 323.707 247.964C325.492 249.75 327.346 251.417 329.143 253.215C332.113 256.185 334.935 259.192 337.888 262.146C338.998 263.256 340.313 264.171 341.299 265.412C342.092 266.41 343.087 266.992 343.986 267.872Z" fill="#7838AA"/>
<path d="M345.139 220.523C343.806 218.301 341.531 215.481 339.652 214.138C339.517 214.474 337.98 217.781 337.638 218.166L336.631 230.583C338.5 232.672 350.336 244.527 352.069 246.693C351.74 245.113 351.527 243.678 351.154 242.095C350.939 241.179 350.675 240.277 350.493 239.345C350.262 238.168 350.308 236.806 349.935 235.686C349.56 234.564 349.759 233.046 349.614 231.862C349.476 230.726 349.462 229.523 349.056 228.441C348.022 225.683 346.658 223.055 345.139 220.523Z" fill="#C34FBC"/>
<path d="M333.213 230.464C334.453 230.464 335.355 230.584 336.631 230.584L337.638 218.189C336.721 218.308 335.608 218.029 335.315 217.949C334.468 217.721 333.526 217.425 332.638 217.509C332.095 217.561 329.583 217.495 328.545 217.955C328.576 218.837 328.865 219.503 328.865 220.253C328.865 223.409 328.748 226.271 328.748 229.417C329.996 230.13 331.798 230.464 333.213 230.464Z" fill="#9440A2"/>
<path d="M316.481 240.065C317.215 240.834 317.568 241.115 318.172 241.994C320.891 239.275 323.605 235.766 325.837 232.641C326.476 231.747 326.646 231.801 327.322 230.941C327.739 230.41 328.495 229.879 328.912 229.576C328.912 226.431 328.863 223.288 328.863 220.132C328.863 219.383 329.097 218.388 328.543 217.834C327.634 216.925 326.798 215.759 326.129 214.663C325.224 213.182 324.241 211.901 323.496 210.329C322.766 208.787 322.097 207.456 321.125 206.052C320.061 204.515 318.032 201.228 318.032 199.371C317.273 202.595 315.595 206.188 313.38 208.663C312.728 209.393 312.704 211.03 312.543 211.93C312.318 213.193 312.078 214.479 312.078 215.764C312.078 217.497 312.046 219.252 312.274 220.964C312.768 224.663 312.877 228.478 313.711 232.127C314.187 234.208 313.963 236.27 314.879 238.256C315.171 238.888 315.993 239.554 316.481 240.065Z" fill="#8A3B96"/>
<path d="M319.524 194.383C319.148 196.188 318.361 197.908 317.942 199.685C317.942 201.542 319.971 204.829 321.036 206.366C322.007 207.77 322.676 209.101 323.406 210.643C324.151 212.215 325.134 213.496 326.039 214.977C326.709 216.073 327.545 217.239 328.454 218.148C328.454 218.668 332.004 217.754 332.547 217.703C333.435 217.618 334.377 217.914 335.224 218.143C335.517 218.222 336.63 218.501 337.547 218.382C337.889 217.998 339.705 214.166 339.65 214.138C337.474 212.255 335.735 209.806 333.467 208.006C331.768 206.657 330.471 204.612 329.281 202.827C328.058 200.993 326.668 199.288 325.467 197.432C324.366 195.73 323.498 193.855 322.594 192.047C322.424 191.708 321.554 189.411 321.147 190.103C320.466 191.261 319.796 193.078 319.524 194.383Z" fill="#C667BC"/>
<path d="M398.076 271.474C371.803 288.536 334.168 282.299 316.46 255.032C307.599 241.387 302.263 225.54 302.436 210.974C304.219 192.278 307.721 186.178 316.076 178.974C313.338 190.481 313.633 230.182 321.396 240.925C359.691 287.69 424.35 254.412 398.076 271.474Z" fill="#4E3B21"/>
<path d="M326 376.262L367 380.762L398 375.262L391 380.762L362 387.762L326 376.262Z" fill="url(#paint37_linear_864_837)"/>
<path d="M220.337 342.327L209.151 302.627L192.438 275.945L200.16 280.375L217.514 304.641L220.337 342.327Z" fill="url(#paint38_linear_864_837)"/>
</g>
<defs>
<radialGradient id="paint0_radial_864_837" cx="0" cy="0" r="1" gradientUnits="userSpaceOnUse" gradientTransform="translate(96.5634 46.7727) rotate(67.0387) scale(78.4424 147.721)">
<stop stop-color="#A08464"/>
<stop offset="1" stop-color="#645143"/>
</radialGradient>
<linearGradient id="paint1_linear_864_837" x1="343.944" y1="488.894" x2="356.022" y2="470.839" gradientUnits="userSpaceOnUse">
<stop stop-color="#493A48"/>
<stop offset="1" stop-color="#706D75"/>
</linearGradient>
<linearGradient id="paint2_linear_864_837" x1="422.414" y1="271.332" x2="414.866" y2="242.849" gradientUnits="userSpaceOnUse">
<stop stop-color="#706D75"/>
<stop offset="1" stop-color="#B8B2BF"/>
</linearGradient>
<linearGradient id="paint3_linear_864_837" x1="427.407" y1="308.252" x2="424.325" y2="279.023" gradientUnits="userSpaceOnUse">
<stop stop-color="#706D75"/>
<stop offset="1" stop-color="#B8B2BF"/>
</linearGradient>
<linearGradient id="paint4_linear_864_837" x1="436.515" y1="325.104" x2="417.302" y2="334.684" gradientUnits="userSpaceOnUse">
<stop stop-color="#706D75"/>
<stop offset="1" stop-color="#B8B2BF"/>
</linearGradient>
<linearGradient id="paint5_linear_864_837" x1="422.51" y1="380.118" x2="428.058" y2="351.72" gradientUnits="userSpaceOnUse">
<stop stop-color="#706D75"/>
<stop offset="1" stop-color="#B8B2BF"/>
</linearGradient>
<linearGradient id="paint6_linear_864_837" x1="411.357" y1="415.319" x2="423.095" y2="389.489" gradientUnits="userSpaceOnUse">
<stop stop-color="#706D75"/>
<stop offset="1" stop-color="#B8B2BF"/>
</linearGradient>
<linearGradient id="paint7_linear_864_837" x1="392.421" y1="444.967" x2="408.564" y2="422.259" gradientUnits="userSpaceOnUse">
<stop stop-color="#706D75"/>
<stop offset="1" stop-color="#B8B2BF"/>
</linearGradient>
<linearGradient id="paint8_linear_864_837" x1="365.602" y1="468.691" x2="386.63" y2="451.395" gradientUnits="userSpaceOnUse">
<stop stop-color="#706D75"/>
<stop offset="1" stop-color="#B8B2BF"/>
</linearGradient>
<linearGradient id="paint9_linear_864_837" x1="418.481" y1="255.125" x2="410.033" y2="226.895" gradientUnits="userSpaceOnUse">
<stop stop-color="#706D75"/>
<stop offset="1" stop-color="#B8B2BF"/>
</linearGradient>
<linearGradient id="paint10_linear_864_837" x1="425.305" y1="290.131" x2="419.955" y2="261.178" gradientUnits="userSpaceOnUse">
<stop stop-color="#706D75"/>
<stop offset="1" stop-color="#B8B2BF"/>
</linearGradient>
<linearGradient id="paint11_linear_864_837" x1="427.122" y1="327.481" x2="427.095" y2="298.206" gradientUnits="userSpaceOnUse">
<stop stop-color="#706D75"/>
<stop offset="1" stop-color="#B8B2BF"/>
</linearGradient>
<linearGradient id="paint12_linear_864_837" x1="425.013" y1="363.304" x2="428.338" y2="334.405" gradientUnits="userSpaceOnUse">
<stop stop-color="#706D75"/>
<stop offset="1" stop-color="#B8B2BF"/>
</linearGradient>
<linearGradient id="paint13_linear_864_837" x1="417.553" y1="398.622" x2="425.351" y2="370.948" gradientUnits="userSpaceOnUse">
<stop stop-color="#706D75"/>
<stop offset="1" stop-color="#B8B2BF"/>
</linearGradient>
<linearGradient id="paint14_linear_864_837" x1="401.015" y1="430.038" x2="417.031" y2="407.221" gradientUnits="userSpaceOnUse">
<stop stop-color="#706D75"/>
<stop offset="1" stop-color="#B8B2BF"/>
</linearGradient>
<linearGradient id="paint15_linear_864_837" x1="377.469" y1="456.345" x2="398.431" y2="438.956" gradientUnits="userSpaceOnUse">
<stop stop-color="#706D75"/>
<stop offset="1" stop-color="#B8B2BF"/>
</linearGradient>
<linearGradient id="paint16_linear_864_837" x1="350.84" y1="479.842" x2="372.824" y2="463.984" gradientUnits="userSpaceOnUse">
<stop stop-color="#706D75"/>
<stop offset="1" stop-color="#B8B2BF"/>
</linearGradient>
<linearGradient id="paint17_linear_864_837" x1="308.076" y1="340.69" x2="308.076" y2="500.69" gradientUnits="userSpaceOnUse">
<stop offset="0.275" stop-color="#C1B58F"/>
<stop offset="1" stop-color="#A59870"/>
</linearGradient>
<linearGradient id="paint18_linear_864_837" x1="263.497" y1="80.9736" x2="140.856" y2="204.834" gradientUnits="userSpaceOnUse">
<stop stop-color="#A59870"/>
<stop offset="0.264157" stop-color="#C1B58F"/>
<stop offset="1" stop-color="#A59870"/>
</linearGradient>
<linearGradient id="paint19_linear_864_837" x1="312.294" y1="455.053" x2="307.858" y2="518.491" gradientUnits="userSpaceOnUse">
<stop stop-color="#908564"/>
<stop offset="1" stop-color="#9D967F"/>
</linearGradient>
<radialGradient id="paint20_radial_864_837" cx="0" cy="0" r="1" gradientUnits="userSpaceOnUse" gradientTransform="translate(342.424 249.385) rotate(101.173) scale(169.518 168.946)">
<stop stop-color="#A08464"/>
<stop offset="1" stop-color="#645143"/>
</radialGradient>
<linearGradient id="paint21_linear_864_837" x1="275.45" y1="291.531" x2="283.914" y2="314.316" gradientUnits="userSpaceOnUse">
<stop stop-color="#493A48"/>
<stop offset="1" stop-color="#706D75"/>
</linearGradient>
<linearGradient id="paint22_linear_864_837" x1="277.383" y1="503.534" x2="280.586" y2="481.36" gradientUnits="userSpaceOnUse">
<stop stop-color="#878A9C"/>
<stop offset="1" stop-color="#706D75"/>
</linearGradient>
<linearGradient id="paint23_linear_864_837" x1="262.893" y1="339.225" x2="276.307" y2="318.956" gradientUnits="userSpaceOnUse">
<stop stop-color="#706D75"/>
<stop offset="1" stop-color="#B8B2BF"/>
</linearGradient>
<linearGradient id="paint24_linear_864_837" x1="253.939" y1="369.924" x2="265.61" y2="348.15" gradientUnits="userSpaceOnUse">
<stop stop-color="#706D75"/>
<stop offset="1" stop-color="#B8B2BF"/>
</linearGradient>
<linearGradient id="paint25_linear_864_837" x1="250.293" y1="402.675" x2="259.561" y2="379.035" gradientUnits="userSpaceOnUse">
<stop stop-color="#706D75"/>
<stop offset="1" stop-color="#B8B2BF"/>
</linearGradient>
<linearGradient id="paint26_linear_864_837" x1="251.268" y1="436.159" x2="258.018" y2="410.856" gradientUnits="userSpaceOnUse">
<stop stop-color="#706D75"/>
<stop offset="1" stop-color="#B8B2BF"/>
</linearGradient>
<linearGradient id="paint27_linear_864_837" x1="263.293" y1="472.929" x2="261.664" y2="444.25" gradientUnits="userSpaceOnUse">
<stop stop-color="#706D75"/>
<stop offset="1" stop-color="#B8B2BF"/>
</linearGradient>
<linearGradient id="paint28_linear_864_837" x1="268.407" y1="326.38" x2="282.223" y2="306.473" gradientUnits="userSpaceOnUse">
<stop stop-color="#706D75"/>
<stop offset="1" stop-color="#B8B2BF"/>
</linearGradient>
<linearGradient id="paint29_linear_864_837" x1="258.238" y1="354.851" x2="270.653" y2="333.705" gradientUnits="userSpaceOnUse">
<stop stop-color="#706D75"/>
<stop offset="1" stop-color="#B8B2BF"/>
</linearGradient>
<linearGradient id="paint30_linear_864_837" x1="252.16" y1="387.179" x2="262.291" y2="364.179" gradientUnits="userSpaceOnUse">
<stop stop-color="#706D75"/>
<stop offset="1" stop-color="#B8B2BF"/>
</linearGradient>
<linearGradient id="paint31_linear_864_837" x1="250.485" y1="420.043" x2="258.698" y2="395.67" gradientUnits="userSpaceOnUse">
<stop stop-color="#706D75"/>
<stop offset="1" stop-color="#B8B2BF"/>
</linearGradient>
<linearGradient id="paint32_linear_864_837" x1="256.964" y1="455.276" x2="259.555" y2="427.896" gradientUnits="userSpaceOnUse">
<stop stop-color="#706D75"/>
<stop offset="1" stop-color="#B8B2BF"/>
</linearGradient>
<linearGradient id="paint33_linear_864_837" x1="274" y1="490.25" x2="266.04" y2="461.056" gradientUnits="userSpaceOnUse">
<stop stop-color="#706D75"/>
<stop offset="1" stop-color="#B8B2BF"/>
</linearGradient>
<linearGradient id="paint34_linear_864_837" x1="413.576" y1="132.474" x2="265.576" y2="330.974" gradientUnits="userSpaceOnUse">
<stop stop-color="#79634C"/>
<stop offset="1" stop-color="#77604B"/>
</linearGradient>
<linearGradient id="paint35_linear_864_837" x1="279.214" y1="484.614" x2="277.955" y2="502.617" gradientUnits="userSpaceOnUse">
<stop stop-color="#A35CAB"/>
<stop offset="1" stop-color="#77457D"/>
</linearGradient>
<linearGradient id="paint36_linear_864_837" x1="350.222" y1="473.211" x2="349.023" y2="490.357" gradientUnits="userSpaceOnUse">
<stop stop-color="#A35CAB"/>
<stop offset="1" stop-color="#77457D"/>
</linearGradient>
<linearGradient id="paint37_linear_864_837" x1="363.5" y1="376.262" x2="361" y2="401.262" gradientUnits="userSpaceOnUse">
<stop stop-color="#665343"/>
<stop offset="1" stop-color="#624F40"/>
</linearGradient>
<linearGradient id="paint38_linear_864_837" x1="206.29" y1="307.558" x2="227.5" y2="300.762" gradientUnits="userSpaceOnUse">
<stop stop-color="#5C4A3D"/>
<stop offset="1" stop-color="#5C4A3C"/>
</linearGradient>
<clipPath id="clip0_864_837">
<rect width="520" height="560" fill="white" transform="matrix(-1 0 0 1 520 0)"/>
</clipPath>
</defs>
</svg>
