<svg width="1185" height="1011" viewBox="0 0 1185 1011" fill="none" xmlns="http://www.w3.org/2000/svg">
<path d="M457.098 892.97C458.846 844.128 484.781 811.583 511.611 802.369C536.223 775.496 457.098 705.627 430.225 724.054C390.338 747.576 367.223 773.193 364.962 802.369C362.701 831.546 373.751 888.072 386.46 921.378C340.328 942.688 331.95 955.929 346.535 970.517C361.12 985.105 401.988 969.791 457.098 939.805V892.97Z" fill="url(#paint0_linear_1037_1417)"/>
<path d="M756.643 712.755C700.594 702.005 685.28 809.497 700.594 818.711C715.907 827.924 731.452 894.307 720.556 946.933C785.022 993.542 811.16 977.645 827.28 977.645C843.401 977.645 833.324 951.161 795.033 919.292C818.39 881.115 833.465 818.711 827.28 793.373C821.095 768.036 777.416 723.504 756.643 712.755Z" fill="url(#paint1_linear_1037_1417)"/>
<path d="M787.999 340.272C666.578 398.761 825.299 567.293 843.003 588.407L962.41 531.598C957.334 505.02 923.57 450.88 901.676 428.829C908.409 430.581 905.581 429.167 898.752 425.389C896.79 423.104 896.508 423.384 894.509 421.146C900.277 411.843 905.338 414.211 886.06 411.211C883.774 408.761 883.259 408.094 880.943 405.722C898.51 410.075 896.742 411.136 874.579 399.358C844.623 369.583 812.948 346.95 787.999 340.272Z" fill="url(#paint2_linear_1037_1417)"/>
<path d="M801.428 349.014C693.485 281.688 618.984 261.21 420.601 305.453C310.698 357.811 458.998 468.621 398.999 550.298C339 631.976 353.848 726.555 416 739.086C478.153 751.618 496.071 787.11 509.999 802.668C523.928 818.225 675.187 852.701 699 816.851C722.813 781.001 720.501 782.535 786.5 733.706C852.5 684.878 820.197 580.462 800.5 563.504C780.803 546.546 860.151 385.64 801.428 349.014Z" fill="url(#paint3_linear_1037_1417)"/>
<path d="M681 312.112C664.96 324.989 655.499 350.261 655.499 350.261C687.5 317.492 732.619 338.576 747.197 345.441C761.775 352.307 767.957 342.374 758.449 332.873C737.384 315.945 697.04 299.234 681 312.112Z" fill="#6C5C43"/>
<ellipse cx="9.891" cy="6.12563" rx="9.891" ry="6.12563" transform="matrix(0.846275 0.532747 -0.549634 0.835406 771.734 342.925)" fill="#6C5C43"/>
<ellipse cx="6.77115" cy="4.19347" rx="6.77115" ry="4.19347" transform="matrix(0.846275 0.532747 -0.549634 0.835406 791.609 357.598)" fill="#6C5C43"/>
<path d="M402.102 550.619C379.602 566.269 371.6 600.994 371.6 600.994C396.102 528.609 501.577 552.392 517.149 556.687C532.721 560.982 537.053 550.152 526.008 542.404C502.267 529.296 424.601 534.968 402.102 550.619Z" fill="#AFABA4" fill-opacity="0.3"/>
<ellipse cx="9.92181" cy="6.10613" rx="9.92181" ry="6.10613" transform="matrix(0.92486 0.380309 -0.394843 0.918749 540.871 550.055)" fill="#7E776C"/>
<ellipse cx="6.79224" cy="4.18012" rx="6.79224" ry="4.18012" transform="matrix(0.92486 0.380309 -0.394843 0.918749 563.043 561.143)" fill="#7E776C"/>
<ellipse cx="12.4995" cy="6.8475" rx="12.4995" ry="6.8475" transform="matrix(0.999157 0.0410569 -0.0429061 0.999079 656.588 527.801)" fill="#615546"/>
<ellipse cx="12.4995" cy="6.8475" rx="12.4995" ry="6.8475" transform="matrix(0.999157 0.0410569 -0.0429061 0.999079 447.816 504.405)" fill="#615546"/>
<path d="M781.862 462.983C775.498 452.56 769.479 449.448 752.454 450.836C733.244 456.195 733.952 460.977 734.019 469.32C741.495 507.745 769.572 522.133 781.862 518.436C794.152 514.739 803.936 486.705 781.862 462.983Z" fill="#736B5E"/>
<path d="M414.719 640.536C418.543 632.525 418.02 627.184 410.287 615.456C399.234 603.48 396.586 605.572 391.493 608.386C370.935 626.476 373.453 651.345 380.689 658.918C387.925 666.491 409.084 664.203 414.719 640.536Z" fill="#6A6358"/>
<path d="M769.908 528.07C767.925 525.39 766.051 524.589 760.748 524.946C754.764 526.324 754.985 527.554 755.006 529.699C757.335 539.58 766.08 543.28 769.908 542.329C773.736 541.379 776.783 534.17 769.908 528.07Z" fill="#6E6557"/>
<path d="M439.019 650.951C438.478 645.863 436.597 643.374 429.209 639.848C420.104 637.176 419.429 638.991 417.764 641.881C413.086 656.881 421.885 668.442 427.765 670.059C433.645 671.676 443.418 664.317 439.019 650.951Z" fill="#6A6358"/>
<path d="M765.075 793.821C735.406 806.476 695.496 801.987 688.92 775.843C682.345 749.7 687.68 741.914 699.203 725.299C724.31 708.292 732.985 712.454 745.012 728.588C804.18 689.107 850.925 627.558 866.738 604.993C930.108 608.212 983.117 561.93 986.724 595.731C989.968 605.11 975.71 689.422 939.754 718.98C943.436 736.694 940.356 732.029 931.603 724.666C929.591 726.028 931.302 724.905 929.28 726.212C938.199 756.764 931.631 741.771 918.85 732.891C875.579 759.459 829.131 774.728 765.075 793.821Z" fill="url(#paint4_linear_1037_1417)"/>
<path d="M876.58 749.827C885.599 750.427 890.499 747.963 898.877 736.415C906.29 721.68 903.337 719.986 898.813 716.279C874.132 703.809 851.343 715.359 846.745 724.906C842.147 734.454 851.986 753.331 876.58 749.827Z" fill="#6A6358"/>
<path d="M855.84 708.488C860.493 706.101 862.183 703.427 862.87 695.236C862.12 685.759 860.147 685.801 856.789 685.318C840.802 686.508 832.969 698.988 833.556 705.068C834.144 711.148 844.694 717.535 855.84 708.488Z" fill="#6A6358"/>
<path d="M986.548 591.862C982.804 543.211 970.785 533.595 958.847 508.714C902.44 492.665 849.403 551.165 824.01 568.947C845.152 613.96 853.648 623.052 855.164 622.602C856.679 622.151 952.017 586.133 986.548 591.862Z" fill="url(#paint5_linear_1037_1417)"/>
<path d="M832.164 585.822C837.244 595.693 837.123 596.093 842.612 605.974C877.602 576.78 928.541 563.933 980.728 555.655C978.187 542.814 970.795 531.879 964.665 520.511C903.921 539.079 859.119 556.055 832.164 585.822Z" fill="#8B877E"/>
<path d="M838.556 598.438C843.95 609.168 841.178 603.926 846.832 613.487C887.227 603.045 938.717 584.128 986.015 586.743C985.604 574.823 984.128 570.973 983.515 568.352C933.993 571.361 882.33 586.322 838.556 598.438Z" fill="#8B877E"/>
<path d="M178.998 548.5C184.501 478.18 322.006 290.686 422.649 307.803C475.322 335.61 342.703 524.721 314.803 530.757C285.606 522.235 262.263 528.789 245.446 515.891C228.881 503.186 191.227 574.195 178.998 548.5Z" fill="url(#paint6_linear_1037_1417)"/>
<path d="M265.362 418.661C257.463 419.803 253.199 423.013 245.985 435.309C239.649 450.38 242.251 451.397 246.248 453.985C267.976 460.909 287.802 445.896 291.729 436.169C295.655 426.442 286.85 410.776 265.362 418.661Z" fill="#81786C"/>
<path d="M282.895 452.984C279.146 455.893 277.942 458.743 278.074 466.958C279.541 476.282 281.216 476.012 284.114 476.103C297.608 473.073 303.179 459.774 302.148 453.805C301.116 447.835 291.584 442.712 282.895 452.984Z" fill="#81786C"/>
<path d="M354.31 734.737C280.498 678.017 244.763 655.312 207.636 584.776L330.488 523.752C338.448 589.055 355.218 622.963 396.364 680.986C413.364 670.217 422.953 669.43 440.322 694.288C445.146 713.924 447.345 723.103 431.859 745.168C416.373 767.234 377.495 757.162 354.31 734.737Z" fill="url(#paint7_linear_1037_1417)"/>
<path d="M354.31 734.737C279.509 678.436 210.406 621.978 178.998 549C202.961 495.474 338.003 495.842 331.683 523.679C339.642 588.982 355.218 622.963 396.364 680.985C380.878 703.051 361.155 705.663 354.31 734.737Z" fill="url(#paint8_linear_1037_1417)"/>
<path d="M335.045 552.192C337.253 563.003 336.959 563.271 339.889 574.188C293.835 577.717 267.355 589.077 223.429 619.613C216.268 608.636 210.18 603.411 204.022 592.121C261.422 562.98 294.457 549.696 335.045 552.192Z" fill="#8B877E"/>
<path d="M337.701 565.975C341.336 577.408 338.804 571.879 342.652 582.223C306.959 602.438 286.04 619.596 254.532 653.954C244.446 645.643 245.807 643.964 237.315 634.349C274.287 602.515 298.468 587.305 337.701 565.975Z" fill="#8B877E"/>
<path d="M354.275 613.318C359.913 623.684 356.904 618.281 362.182 628.248C334.206 644.019 318.29 656.413 293.469 687.771C283.393 679.454 282.358 680.309 273.111 671.405C302.41 642.891 322.12 631.227 354.275 613.318Z" fill="#868278"/>
<path d="M381.005 659.969C386.627 670.345 382.583 660.063 387.845 670.042C359.507 688.832 346.618 699.881 337.05 721.956C326.908 713.682 326.069 715.038 316.773 706.166C329.644 690.887 333.842 682.992 381.005 659.969Z" fill="#868278"/>
<path d="M362.287 628.749C368.186 639.056 364.319 634.597 371.418 643.362C345.97 665.914 331.547 678.487 320.087 707.354C308.572 701.162 311.588 701.276 300.779 694.341C312.362 671.306 330.795 655.266 362.287 628.749Z" fill="#868278"/>
<path d="M643.724 247.56L640.544 188.147L588.89 215.686L587.139 186.172L548.031 210.617L531.434 166.816L482.759 238.661C475.418 228.253 470.118 232.324 462.895 238.661C460.782 240.515 458.504 242.563 455.962 244.5C450.356 248.771 443.465 252.497 434.225 252.397C448.157 274.91 444.999 261.079 454.592 276.324C440.787 289.804 433.566 278.455 424.899 270C421.335 261.588 420.145 261.627 420 265.855C417.656 264.245 415.135 263.121 412.313 262.905C411.719 276.268 407.373 295.172 413.569 313C402.675 309.029 404 309 417.157 321C418.301 323.042 419.62 325.055 421.139 327.028C416.137 331.648 405.402 331.006 394.5 330.52C378.5 323 380.5 324 387.65 330.284C384.204 330.225 380.861 330.301 377.806 330.689C379.042 340.82 387.865 352.014 396.5 363.238C384.754 365.377 383.875 368.104 403 371.897C405.536 375.429 407.854 378.937 409.707 382.388C401.014 388.237 395.562 393.559 392.127 402C380.225 416.458 377.351 421.58 389.448 411C388.68 414.61 388.096 418.7 387.65 423.408C402.131 414.907 413.856 418.376 438.751 433.557L423.422 477.674L477.632 473.69C488.357 479.365 495.327 483.472 492.717 495.837C483.513 509.036 475.757 514.543 489.955 504.324C488.723 507.289 487.125 510.603 485.123 514.326C506.064 510.087 518.345 504.972 527.404 495.426C519.093 511.547 528.888 501.874 533.585 487.523C535.753 484.205 537.776 480.477 539.769 476.264C543.098 478.301 545.834 480.357 548.079 482.47C552.316 494.488 553.31 500.975 553.479 503.558C553.604 505.462 553.281 505.245 553.479 503.558C553.666 501.969 554.315 499.076 556.238 495.423C558.576 503.288 557.858 512.47 557.329 524.202C560.525 520.343 563.49 516.898 566.203 513.618C567.435 529.909 565.108 522.593 573.983 503.388C579.331 495.38 582.961 486.73 584.53 473.56C589.421 474.295 584.231 466.89 597.476 475.263C610.721 483.637 611.927 496.77 611.461 482.567C615.386 486 619.805 490.988 625.15 498.324C626.951 493.883 628.41 489.772 629.572 485.958C633.075 493.4 635.87 498.937 631.814 477.359C638.532 445.832 622.2 438.405 619.864 429.375C633.227 432.08 647.217 423.834 655.535 421.536C663.854 419.238 677.334 416.821 663.945 415.061C666.131 413.058 668.015 411.031 669.545 409.104C652.413 393.653 648.888 375.622 656.879 374.126L664.87 372.63C692.159 375.907 691.024 375.119 672.861 371.134L692.169 367.52C674.965 360.538 672.275 347.639 665.24 332.872C670.228 321.267 704.485 317.155 710.5 315C716.516 312.845 746.724 312.643 722.499 306C725.932 304.77 731.094 300.31 733.617 299.181C723.535 288.66 691.454 284.024 674.826 281.06C687.35 269.298 693.888 266.286 706.463 267.169C686.819 243.018 671.279 244.848 643.724 247.56Z" fill="url(#paint9_radial_1037_1417)"/>
<path d="M736.135 145.692C722.283 149.179 679.192 179.662 638.199 181.803L679.719 249.249C693.957 249.138 706.072 248.518 716.573 247.375C720.263 239.337 725.891 240.718 731.929 245.124C734.719 246.142 737.284 245.904 739.607 243.454C740.961 232.585 747.677 232.256 757.266 237.548C760.225 237.75 762.949 238.103 766.48 232.895C769.315 223.123 773.466 222.8 777.997 225.165C780.601 223.171 783.163 221.05 785.738 218.799C800.166 199.056 800.531 171.267 793.441 156.203C786.352 141.139 749.986 142.206 736.135 145.692Z" fill="#746C5F"/>
<path d="M535.399 63.4698C544.118 74.7837 559.084 125.401 589.949 152.462L514.526 176.65C467.047 138.614 456.828 120.358 451.184 90.1686C452.077 65.7317 468.996 43.6838 483.89 36.2437C498.783 28.8036 526.681 52.1559 535.399 63.4698Z" fill="#7C7467"/>
<path d="M733.384 158.537C719.374 162.313 678.832 187.824 640.041 189.9L680.45 245.586C694.302 245.399 702.048 243.302 711.967 242.34C711.967 211.611 732.582 260.767 737.247 235.43C741.911 210.092 757.267 233.458 760.338 232.524C763.409 231.591 763.409 197.807 778.689 220.507C792.752 203.601 794.465 178.753 787.321 167.139C780.176 155.524 747.395 154.762 733.384 158.537Z" fill="url(#paint10_linear_1037_1417)"/>
<path d="M529.606 75.2599C538.27 86.8995 554.312 132.034 583.489 157.68L517.28 176.392C472.601 140.176 462.418 123.308 455.66 95.8744C455.084 73.8911 469.123 53.3181 481.925 48.6207C494.726 43.9232 520.941 63.6204 529.606 75.2599Z" fill="url(#paint11_linear_1037_1417)"/>
<path d="M513.716 154.587C506.394 155.663 512.292 195.776 512.292 195.776L466.531 202.505C466.531 202.505 489.286 229.94 471.893 238.97C454.5 248.001 458.129 243.679 476.5 253.492C477.782 256.433 479.198 259.325 480.595 262.001C463.939 258.529 463 259.501 488.505 275.645L482.502 281.501C467.659 284.45 466.531 286.001 475 288.817L466.531 297.078C459.528 271.501 463.196 289.88 459.528 303.908C443 297.078 430.5 262.001 445 317.001C445 317.001 435.827 324.37 418.911 349.21C401.996 374.05 414.461 460.019 437.497 470C460.532 479.982 559.556 466.371 582.773 446.193C605.991 426.014 637.271 320.828 637.271 320.828C637.271 320.828 640.249 320.633 645 320.235C648.5 328.501 637.271 338.001 653 319.513C663 357.001 657.174 338.586 666.5 318.051C686 337.001 679.077 327.966 680.5 316.501C697.084 314.139 708.006 311.077 709.953 306.416C711.677 302.291 707.058 294.59 701.074 287.001C705.106 278.583 719.5 279.001 692.933 277.501C692.033 276.519 691.093 275.509 690.145 274.501C694.207 264.401 697.245 262.847 687 271.191C682.711 266.719 679 263.001 679 263.001C689.683 267.275 698.824 269.891 681.413 258.501C701.074 255.001 696 265.887 680.578 244.501C679.627 233.704 677.75 221.511 674.047 214.834C666.405 201.056 654.047 180.521 643.013 169.104C631.978 157.688 617.567 148.63 602.918 150.784C588.269 152.938 566.269 143.134 555.816 148.397C545.364 153.659 540.683 159.935 540.683 159.935C540.683 159.935 521.038 153.51 513.716 154.587Z" fill="url(#paint12_linear_1037_1417)"/>
<path d="M615.174 217.681C598.62 216.458 558.271 229.218 543.334 261.153C576.961 288.926 614.427 274.468 624.262 254.739C634.096 235.01 659.493 222.134 659.493 222.134C659.493 222.134 631.728 218.903 615.174 217.681Z" fill="url(#paint13_linear_1037_1417)"/>
<path d="M526.413 183.196C538.151 188.784 534.126 237.581 533.903 258.883C517.272 250.461 508.121 244.391 504.761 233.916C501.401 223.44 503.024 188.83 510.587 174.554C510.587 174.554 514.675 177.609 526.413 183.196Z" fill="url(#paint14_linear_1037_1417)"/>
<path d="M568.641 183.03C557.944 187.842 544.615 196.81 548.502 224.722C576.739 226.815 587.896 209.198 587.367 193.63C586.837 178.062 585.6 174.904 585.6 174.904C585.6 174.904 579.338 178.218 568.641 183.03Z" fill="url(#paint15_linear_1037_1417)"/>
<path d="M561.501 188.5C547.002 191.998 547.442 207.057 547.443 215.89C547.444 224.722 554.351 229.824 572.175 220.483C590 211.141 576 185.003 561.501 188.5Z" fill="#872D43"/>
<path d="M575.3 230.102C558.811 234.079 550.835 248.445 553.493 261.247C556.152 274.049 582.024 281.11 596.434 273.558C610.845 266.007 591.788 226.125 575.3 230.102Z" fill="#872D43"/>
<path d="M530.147 208.027C533.99 218.327 537.117 239.597 530.638 248.31C524.158 257.024 506.994 242.305 503.627 228.224C498.935 196.32 526.304 197.728 530.147 208.027Z" fill="#872D43"/>
<path d="M450.643 473.118C464.994 475.369 503.906 455.038 537.679 427.596C445.003 417.965 448.72 416.848 412.373 369C406.361 393.364 414.644 450.707 424.681 460.717C434.718 470.727 436.293 470.868 450.643 473.118Z" fill="#754E53"/>
<path d="M536.93 428.191C445.8 417.76 446.55 417.012 412.373 369C412.373 369 424.057 438.055 437.172 446.888C450.287 455.721 536.93 428.191 536.93 428.191Z" fill="#9D6774"/>
<path d="M586.818 341.385C586.05 352.134 595.026 417.081 578.5 449.5C581.5 447 582.853 448.779 588.5 440.5C593.407 433.306 602.442 415.02 606.012 408.952C614.198 388.699 641.331 332.172 636.724 318.351C632.117 304.531 639.027 299.924 636.724 296.085C634.421 292.246 587.585 330.636 586.818 341.385Z" fill="#9D6774"/>
<path d="M620.162 327.145L634.417 296.085C626.276 300.001 615.91 308.644 607.546 315.28C594.803 324.754 588.35 336.01 586.815 340.211L589.895 340.211L593.531 334.036L600.745 335.908L600.333 328.537L605.214 324.283L612.791 327.557L611.34 321.95L616.898 314.531L620.162 327.145Z" fill="#ECD66E"/>
<path d="M594.31 375.657L602.94 414.325C610.93 400.466 612.779 393.74 619.925 378.778L620.236 377.991C629.77 353.819 637.918 333.159 637.296 323.669L627.636 336.793L626.772 347.888L615.429 350.194L621.029 360.198L617.118 369.461L604.314 370.058L610.16 376.892L607.464 391.034L594.31 375.657Z" fill="#ECD66E"/>
<defs>
<linearGradient id="paint0_linear_1037_1417" x1="383.312" y1="976.1" x2="472.982" y2="721" gradientUnits="userSpaceOnUse">
<stop stop-color="#898072"/>
<stop offset="1" stop-color="#6F6659"/>
</linearGradient>
<linearGradient id="paint1_linear_1037_1417" x1="795.976" y1="980.259" x2="751.225" y2="751.913" gradientUnits="userSpaceOnUse">
<stop stop-color="#898072"/>
<stop offset="1" stop-color="#6F6659"/>
</linearGradient>
<linearGradient id="paint2_linear_1037_1417" x1="811.815" y1="340.019" x2="903.064" y2="534.045" gradientUnits="userSpaceOnUse">
<stop stop-color="#898072"/>
<stop offset="1" stop-color="#6F6659"/>
</linearGradient>
<linearGradient id="paint3_linear_1037_1417" x1="585.489" y1="282" x2="595.545" y2="586.017" gradientUnits="userSpaceOnUse">
<stop stop-color="#8A8173"/>
<stop offset="1" stop-color="#635A4E"/>
</linearGradient>
<linearGradient id="paint4_linear_1037_1417" x1="1092.07" y1="516.699" x2="928.273" y2="655.057" gradientUnits="userSpaceOnUse">
<stop stop-color="#898072"/>
<stop offset="1" stop-color="#6F6659"/>
</linearGradient>
<linearGradient id="paint5_linear_1037_1417" x1="861.709" y1="499.283" x2="933.22" y2="739.144" gradientUnits="userSpaceOnUse">
<stop stop-color="#989590"/>
<stop offset="1" stop-color="#8E8982"/>
</linearGradient>
<linearGradient id="paint6_linear_1037_1417" x1="384.619" y1="310.718" x2="264.552" y2="535.512" gradientUnits="userSpaceOnUse">
<stop stop-color="#898072"/>
<stop offset="1" stop-color="#6F6659"/>
</linearGradient>
<linearGradient id="paint7_linear_1037_1417" x1="147.964" y1="359.037" x2="300.954" y2="562.856" gradientUnits="userSpaceOnUse">
<stop stop-color="#898072"/>
<stop offset="1" stop-color="#6F6659"/>
</linearGradient>
<linearGradient id="paint8_linear_1037_1417" x1="262.323" y1="504.902" x2="400.101" y2="713.863" gradientUnits="userSpaceOnUse">
<stop stop-color="#989590"/>
<stop offset="1" stop-color="#8E8982"/>
</linearGradient>
<radialGradient id="paint9_radial_1037_1417" cx="0" cy="0" r="1" gradientUnits="userSpaceOnUse" gradientTransform="translate(455.5 317.5) rotate(27.887) scale(366.19 387.15)">
<stop stop-color="#7E6B51"/>
<stop offset="0.415" stop-color="#867358"/>
<stop offset="1" stop-color="#A39889"/>
</radialGradient>
<linearGradient id="paint10_linear_1037_1417" x1="795.229" y1="196.2" x2="649.064" y2="229.501" gradientUnits="userSpaceOnUse">
<stop stop-color="#754E53"/>
<stop offset="1" stop-color="#90686D"/>
</linearGradient>
<linearGradient id="paint11_linear_1037_1417" x1="457.728" y1="66.5403" x2="551.892" y2="183.187" gradientUnits="userSpaceOnUse">
<stop stop-color="#754E53"/>
<stop offset="1" stop-color="#90686D"/>
</linearGradient>
<linearGradient id="paint12_linear_1037_1417" x1="508" y1="221.001" x2="613.998" y2="392.5" gradientUnits="userSpaceOnUse">
<stop stop-color="#968E81"/>
<stop offset="1" stop-color="#5C5547"/>
</linearGradient>
<linearGradient id="paint13_linear_1037_1417" x1="599.998" y1="195.5" x2="572.998" y2="249.5" gradientUnits="userSpaceOnUse">
<stop stop-color="#ECD66E"/>
<stop offset="1" stop-color="#C3AD46"/>
</linearGradient>
<linearGradient id="paint14_linear_1037_1417" x1="599.998" y1="195.5" x2="572.998" y2="249.5" gradientUnits="userSpaceOnUse">
<stop stop-color="#ECD66E"/>
<stop offset="1" stop-color="#C3AD46"/>
</linearGradient>
<linearGradient id="paint15_linear_1037_1417" x1="560.227" y1="159.938" x2="561.626" y2="202.578" gradientUnits="userSpaceOnUse">
<stop stop-color="#ECD66E"/>
<stop offset="1" stop-color="#C3AD46"/>
</linearGradient>
</defs>
</svg>
